<svg xmlns="http://www.w3.org/2000/svg" width="1193.8mm" height="787.4mm" viewBox="0 0 1193.8 787.4"><rect width="1193.8" height="787.4" fill="white" stroke="#111827" stroke-width="2"/><g transform="translate(0 787.4) scale(1 -1)"><path d="M 359.600 508.000 L 359.600 502.475 L 358.916 500.969 L 357.600 500.475 L 346.000 500.475 L 346.000 481.425 L 357.600 481.425 L 359.106 480.741 L 359.600 479.425 L 359.600 464.375 L 358.916 462.869 L 357.600 462.375 L 346.000 462.375 L 346.000 443.325 L 357.600 443.325 L 359.106 442.641 L 359.600 441.325 L 359.600 426.275 L 358.916 424.769 L 357.600 424.275 L 346.000 424.275 L 346.000 405.225 L 357.600 405.225 L 359.106 404.541 L 359.600 403.225 L 359.600 388.175 L 358.916 386.669 L 357.600 386.175 L 346.000 386.175 L 346.000 367.125 L 357.600 367.125 L 359.106 366.441 L 359.600 365.125 L 359.600 359.600 L 358.916 358.094 L 357.600 357.600 L 357.600 154.400 L 359.106 153.716 L 359.600 152.400 L 359.600 146.875 L 358.916 145.369 L 357.600 144.875 L 346.000 144.875 L 346.000 125.825 L 357.600 125.825 L 359.106 125.141 L 359.600 123.825 L 359.600 108.775 L 358.916 107.269 L 357.600 106.775 L 346.000 106.775 L 346.000 87.725 L 357.600 87.725 L 359.106 87.041 L 359.600 85.725 L 359.600 70.675 L 358.916 69.169 L 357.600 68.675 L 346.000 68.675 L 346.000 49.625 L 357.600 49.625 L 359.106 48.941 L 359.600 47.625 L 359.600 32.575 L 358.916 31.069 L 357.600 30.575 L 346.000 30.575 L 346.000 11.525 L 357.600 11.525 L 359.106 10.841 L 359.600 9.525 L 359.600 4.000 L 358.916 2.494 L 357.600 2.000 L 113.600 2.000 L 112.916 0.494 L 111.600 0.000 L 109.350 0.000 L 107.844 0.684 L 107.350 2.000 L 107.350 13.600 L 94.850 13.600 L 94.850 2.000 L 94.166 0.494 L 92.850 0.000 L 84.350 0.000 L 82.844 0.684 L 82.350 2.000 L 82.350 13.600 L 69.850 13.600 L 69.850 2.000 L 69.166 0.494 L 67.850 0.000 L 59.350 0.000 L 57.844 0.684 L 57.350 2.000 L 57.350 13.600 L 44.850 13.600 L 44.850 2.000 L 44.166 0.494 L 42.850 0.000 L 34.350 0.000 L 32.844 0.684 L 32.350 2.000 L 32.350 13.600 L 19.850 13.600 L 19.850 2.000 L 19.166 0.494 L 17.850 0.000 L 15.600 0.000 L 14.094 0.684 L 13.600 2.000 L 13.600 33.750 L 2.000 33.750 L 0.494 34.434 L 0.000 35.750 L 0.000 95.250 L 0.684 96.756 L 2.000 97.250 L 13.600 97.250 L 13.600 160.750 L 2.000 160.750 L 0.494 161.434 L 0.000 162.750 L 0.000 222.250 L 0.684 223.756 L 2.000 224.250 L 13.600 224.250 L 13.600 287.750 L 2.000 287.750 L 0.494 288.434 L 0.000 289.750 L 0.000 349.250 L 0.684 350.756 L 2.000 351.250 L 13.600 351.250 L 13.600 414.750 L 2.000 414.750 L 0.494 415.434 L 0.000 416.750 L 0.000 476.250 L 0.684 477.756 L 2.000 478.250 L 13.600 478.250 L 13.600 510.000 L 14.284 511.506 L 15.600 512.000 L 32.375 512.000 L 33.881 511.316 L 34.375 510.000 L 34.375 498.400 L 75.925 498.400 L 75.925 510.000 L 76.609 511.506 L 77.925 512.000 L 115.475 512.000 L 116.981 511.316 L 117.475 510.000 L 117.475 498.400 L 159.025 498.400 L 159.025 510.000 L 159.709 511.506 L 161.025 512.000 L 198.575 512.000 L 200.081 511.316 L 200.575 510.000 L 200.575 498.400 L 242.125 498.400 L 242.125 510.000 L 242.809 511.506 L 244.125 512.000 L 281.675 512.000 L 283.181 511.316 L 283.675 510.000 L 283.675 498.400 L 325.225 498.400 L 325.225 510.000 L 325.909 511.506 L 327.225 512.000 L 344.000 512.000 L 345.506 511.316 L 346.000 510.000 L 357.600 510.000 L 359.106 509.316 L 359.600 508.000 Z M 176.800 85.333 L 177.498 83.409 L 179.268 82.381 L 181.286 82.727 L 182.612 84.287 L 182.628 86.334 L 181.328 87.915 L 179.317 88.294 L 177.530 87.295 L 176.988 86.380 L 176.800 85.333 Z M 176.050 171.333 L 176.754 169.146 L 178.602 167.780 L 180.900 167.748 L 182.784 169.063 L 183.549 171.230 L 182.905 173.436 L 181.096 174.852 L 178.800 174.947 L 176.879 173.685 L 176.050 171.333 Z M 176.050 340.667 L 176.754 338.479 L 178.602 337.113 L 180.900 337.082 L 182.784 338.396 L 183.549 340.563 L 182.905 342.769 L 181.096 344.186 L 178.800 344.281 L 176.879 343.019 L 176.050 340.667 Z M 176.800 426.667 L 177.498 424.742 L 179.268 423.714 L 181.286 424.060 L 182.612 425.620 L 182.628 427.667 L 181.328 429.248 L 179.317 429.627 L 177.530 428.628 L 176.988 427.713 L 176.800 426.667 Z" fill="#9ecae1" fill-opacity="0.45" fill-rule="evenodd" stroke="#1f2937" stroke-width="0.8"/><path d="M 724.200 4.000 L 724.200 9.525 L 723.516 11.031 L 722.200 11.525 L 710.600 11.525 L 710.600 30.575 L 722.200 30.575 L 723.706 31.259 L 724.200 32.575 L 724.200 47.625 L 723.516 49.131 L 722.200 49.625 L 710.600 49.625 L 710.600 68.675 L 722.200 68.675 L 723.706 69.359 L 724.200 70.675 L 724.200 85.725 L 723.516 87.231 L 722.200 87.725 L 710.600 87.725 L 710.600 106.775 L 722.200 106.775 L 723.706 107.459 L 724.200 108.775 L 724.200 123.825 L 723.516 125.331 L 722.200 125.825 L 710.600 125.825 L 710.600 144.875 L 722.200 144.875 L 723.706 145.559 L 724.200 146.875 L 724.200 152.400 L 723.516 153.906 L 722.200 154.400 L 722.200 357.600 L 723.706 358.284 L 724.200 359.600 L 724.200 365.125 L 723.516 366.631 L 722.200 367.125 L 710.600 367.125 L 710.600 386.175 L 722.200 386.175 L 723.706 386.859 L 724.200 388.175 L 724.200 403.225 L 723.516 404.731 L 722.200 405.225 L 710.600 405.225 L 710.600 424.275 L 722.200 424.275 L 723.706 424.959 L 724.200 426.275 L 724.200 441.325 L 723.516 442.831 L 722.200 443.325 L 710.600 443.325 L 710.600 462.375 L 722.200 462.375 L 723.706 463.059 L 724.200 464.375 L 724.200 479.425 L 723.516 480.931 L 722.200 481.425 L 710.600 481.425 L 710.600 500.475 L 722.200 500.475 L 723.706 501.159 L 724.200 502.475 L 724.200 508.000 L 723.516 509.506 L 722.200 510.000 L 478.200 510.000 L 477.516 511.506 L 476.200 512.000 L 473.950 512.000 L 472.444 511.316 L 471.950 510.000 L 471.950 498.400 L 459.450 498.400 L 459.450 510.000 L 458.766 511.506 L 457.450 512.000 L 448.950 512.000 L 447.444 511.316 L 446.950 510.000 L 446.950 498.400 L 434.450 498.400 L 434.450 510.000 L 433.766 511.506 L 432.450 512.000 L 423.950 512.000 L 422.444 511.316 L 421.950 510.000 L 421.950 498.400 L 409.450 498.400 L 409.450 510.000 L 408.766 511.506 L 407.450 512.000 L 398.950 512.000 L 397.444 511.316 L 396.950 510.000 L 396.950 498.400 L 384.450 498.400 L 384.450 510.000 L 383.766 511.506 L 382.450 512.000 L 380.200 512.000 L 378.694 511.316 L 378.200 510.000 L 378.200 478.250 L 366.600 478.250 L 365.094 477.566 L 364.600 476.250 L 364.600 416.750 L 365.284 415.244 L 366.600 414.750 L 378.200 414.750 L 378.200 351.250 L 366.600 351.250 L 365.094 350.566 L 364.600 349.250 L 364.600 289.750 L 365.284 288.244 L 366.600 287.750 L 378.200 287.750 L 378.200 224.250 L 366.600 224.250 L 365.094 223.566 L 364.600 222.250 L 364.600 162.750 L 365.284 161.244 L 366.600 160.750 L 378.200 160.750 L 378.200 97.250 L 366.600 97.250 L 365.094 96.566 L 364.600 95.250 L 364.600 35.750 L 365.284 34.244 L 366.600 33.750 L 378.200 33.750 L 378.200 2.000 L 378.884 0.494 L 380.200 0.000 L 396.975 0.000 L 398.481 0.684 L 398.975 2.000 L 398.975 13.600 L 440.525 13.600 L 440.525 2.000 L 441.209 0.494 L 442.525 0.000 L 480.075 0.000 L 481.581 0.684 L 482.075 2.000 L 482.075 13.600 L 523.625 13.600 L 523.625 2.000 L 524.309 0.494 L 525.625 0.000 L 563.175 0.000 L 564.681 0.684 L 565.175 2.000 L 565.175 13.600 L 606.725 13.600 L 606.725 2.000 L 607.409 0.494 L 608.725 0.000 L 646.275 0.000 L 647.781 0.684 L 648.275 2.000 L 648.275 13.600 L 689.825 13.600 L 689.825 2.000 L 690.509 0.494 L 691.825 0.000 L 708.600 0.000 L 710.106 0.684 L 710.600 2.000 L 722.200 2.000 L 723.706 2.684 L 724.200 4.000 Z M 540.650 340.667 L 541.354 342.854 L 543.202 344.220 L 545.500 344.252 L 547.384 342.937 L 548.149 340.770 L 547.505 338.564 L 545.696 337.148 L 543.400 337.053 L 541.479 338.315 L 540.650 340.667 Z M 541.400 426.667 L 542.098 428.591 L 543.868 429.619 L 545.886 429.273 L 547.212 427.713 L 547.228 425.666 L 545.928 424.085 L 543.917 423.706 L 542.130 424.705 L 541.588 425.620 L 541.400 426.667 Z M 540.650 171.333 L 541.354 173.521 L 543.202 174.887 L 545.500 174.918 L 547.384 173.604 L 548.149 171.437 L 547.505 169.231 L 545.696 167.814 L 543.400 167.719 L 541.479 168.981 L 540.650 171.333 Z M 541.400 85.333 L 542.098 87.258 L 543.868 88.286 L 545.886 87.940 L 547.212 86.380 L 547.228 84.333 L 545.928 82.752 L 543.917 82.373 L 542.130 83.372 L 541.588 84.287 L 541.400 85.333 Z" fill="#9ecae1" fill-opacity="0.45" fill-rule="evenodd" stroke="#1f2937" stroke-width="0.8"/><path d="M 1088.800 502.475 L 1088.116 500.969 L 1086.800 500.475 L 1075.200 500.475 L 1075.200 481.425 L 1086.800 481.425 L 1088.306 480.741 L 1088.800 479.425 L 1088.800 464.375 L 1088.116 462.869 L 1086.800 462.375 L 1075.200 462.375 L 1075.200 443.325 L 1086.800 443.325 L 1088.306 442.641 L 1088.800 441.325 L 1088.800 426.275 L 1088.116 424.769 L 1086.800 424.275 L 1075.200 424.275 L 1075.200 405.225 L 1086.800 405.225 L 1088.306 404.541 L 1088.800 403.225 L 1088.800 388.175 L 1088.116 386.669 L 1086.800 386.175 L 1075.200 386.175 L 1075.200 367.125 L 1086.800 367.125 L 1088.306 366.441 L 1088.800 365.125 L 1088.800 359.600 L 1088.116 358.094 L 1086.800 357.600 L 1086.800 154.400 L 1088.306 153.716 L 1088.800 152.400 L 1088.800 146.875 L 1088.116 145.369 L 1086.800 144.875 L 1075.200 144.875 L 1075.200 125.825 L 1086.800 125.825 L 1088.306 125.141 L 1088.800 123.825 L 1088.800 108.775 L 1088.116 107.269 L 1086.800 106.775 L 1075.200 106.775 L 1075.200 87.725 L 1086.800 87.725 L 1088.306 87.041 L 1088.800 85.725 L 1088.800 70.675 L 1088.116 69.169 L 1086.800 68.675 L 1075.200 68.675 L 1075.200 49.625 L 1086.800 49.625 L 1088.306 48.941 L 1088.800 47.625 L 1088.800 32.575 L 1088.116 31.069 L 1086.800 30.575 L 1075.200 30.575 L 1075.200 11.525 L 1086.800 11.525 L 1088.306 10.841 L 1088.800 9.525 L 1088.800 4.000 L 1088.116 2.494 L 1086.800 2.000 L 842.800 2.000 L 842.116 0.494 L 840.800 0.000 L 838.550 0.000 L 837.044 0.684 L 836.550 2.000 L 836.550 13.600 L 824.050 13.600 L 824.050 2.000 L 823.366 0.494 L 822.050 0.000 L 813.550 0.000 L 812.044 0.684 L 811.550 2.000 L 811.550 13.600 L 799.050 13.600 L 799.050 2.000 L 798.366 0.494 L 797.050 0.000 L 788.550 0.000 L 787.044 0.684 L 786.550 2.000 L 786.550 13.600 L 774.050 13.600 L 774.050 2.000 L 773.366 0.494 L 772.050 0.000 L 763.550 0.000 L 762.044 0.684 L 761.550 2.000 L 761.550 13.600 L 749.050 13.600 L 749.050 2.000 L 748.366 0.494 L 747.050 0.000 L 744.800 0.000 L 743.294 0.684 L 742.800 2.000 L 742.800 33.750 L 731.200 33.750 L 729.694 34.434 L 729.200 35.750 L 729.200 95.250 L 729.884 96.756 L 731.200 97.250 L 742.800 97.250 L 742.800 160.750 L 731.200 160.750 L 729.694 161.434 L 729.200 162.750 L 729.200 222.250 L 729.884 223.756 L 731.200 224.250 L 742.800 224.250 L 742.800 287.750 L 731.200 287.750 L 729.694 288.434 L 729.200 289.750 L 729.200 349.250 L 729.884 350.756 L 731.200 351.250 L 742.800 351.250 L 742.800 414.750 L 731.200 414.750 L 729.694 415.434 L 729.200 416.750 L 729.200 476.250 L 729.884 477.756 L 731.200 478.250 L 742.800 478.250 L 742.800 510.000 L 743.484 511.506 L 744.800 512.000 L 761.575 512.000 L 763.081 511.316 L 763.575 510.000 L 763.575 498.400 L 805.125 498.400 L 805.125 510.000 L 805.809 511.506 L 807.125 512.000 L 844.675 512.000 L 846.181 511.316 L 846.675 510.000 L 846.675 498.400 L 888.225 498.400 L 888.225 510.000 L 888.909 511.506 L 890.225 512.000 L 927.775 512.000 L 929.281 511.316 L 929.775 510.000 L 929.775 498.400 L 971.325 498.400 L 971.325 510.000 L 972.009 511.506 L 973.325 512.000 L 1010.875 512.000 L 1012.381 511.316 L 1012.875 510.000 L 1012.875 498.400 L 1054.425 498.400 L 1054.425 510.000 L 1055.109 511.506 L 1056.425 512.000 L 1073.200 512.000 L 1074.706 511.316 L 1075.200 510.000 L 1086.800 510.000 L 1088.306 509.316 L 1088.800 508.000 L 1088.800 502.475 Z M 905.250 171.333 L 905.954 169.146 L 907.802 167.780 L 910.100 167.748 L 911.984 169.063 L 912.749 171.230 L 912.105 173.436 L 910.296 174.852 L 908.000 174.947 L 906.079 173.685 L 905.250 171.333 Z M 906.000 85.333 L 906.698 83.409 L 908.468 82.381 L 910.486 82.727 L 911.812 84.287 L 911.828 86.334 L 910.528 87.915 L 908.517 88.294 L 906.730 87.295 L 906.188 86.380 L 906.000 85.333 Z M 905.250 340.667 L 905.954 338.479 L 907.802 337.113 L 910.100 337.082 L 911.984 338.396 L 912.749 340.563 L 912.105 342.769 L 910.296 344.186 L 908.000 344.281 L 906.079 343.019 L 905.250 340.667 Z M 906.000 426.667 L 906.698 424.742 L 908.468 423.714 L 910.486 424.060 L 911.812 425.620 L 911.828 427.667 L 910.528 429.248 L 908.517 429.627 L 906.730 428.628 L 906.188 427.713 L 906.000 426.667 Z" fill="#bcbddc" fill-opacity="0.45" fill-rule="evenodd" stroke="#1f2937" stroke-width="0.8"/><path d="M 2.000 550.337 L 13.600 550.337 L 13.600 572.562 L 2.000 572.562 L 0.494 573.247 L 0.000 574.562 L 0.000 592.788 L 0.684 594.294 L 2.000 594.788 L 13.600 594.788 L 13.600 617.013 L 2.000 617.013 L 0.494 617.697 L 0.000 619.013 L 0.000 637.237 L 0.684 638.744 L 2.000 639.237 L 13.600 639.237 L 13.600 661.462 L 2.000 661.462 L 0.494 662.147 L 0.000 663.462 L 0.000 681.688 L 0.684 683.194 L 2.000 683.688 L 13.600 683.688 L 13.600 694.800 L 942.000 694.800 L 942.000 683.688 L 945.800 683.688 L 947.306 683.003 L 947.800 681.688 L 947.800 663.462 L 947.116 661.956 L 945.800 661.462 L 942.000 661.462 L 942.000 639.237 L 945.800 639.237 L 947.306 638.553 L 947.800 637.237 L 947.800 619.013 L 947.116 617.506 L 945.800 617.013 L 942.000 617.013 L 942.000 594.788 L 945.800 594.788 L 947.306 594.103 L 947.800 592.788 L 947.800 574.562 L 947.116 573.056 L 945.800 572.562 L 942.000 572.562 L 942.000 550.337 L 945.800 550.337 L 947.306 549.653 L 947.800 548.337 L 947.800 530.112 L 947.116 528.606 L 945.800 528.112 L 942.000 528.112 L 942.000 517.000 L 13.600 517.000 L 13.600 528.112 L 2.000 528.112 L 0.494 528.797 L 0.000 530.112 L 0.000 548.337 L 0.684 549.844 L 2.000 550.337 Z M 71.625 529.700 L 187.675 529.700 L 187.675 534.050 L 187.675 535.500 L 71.625 535.500 L 71.625 529.700 Z M 303.725 529.700 L 419.775 529.700 L 419.775 534.050 L 419.775 535.500 L 303.725 535.500 L 303.725 529.700 Z M 168.333 662.600 L 166.409 661.902 L 165.381 660.132 L 165.727 658.114 L 167.287 656.788 L 169.334 656.772 L 170.915 658.072 L 171.294 660.083 L 170.295 661.870 L 169.380 662.412 L 168.333 662.600 Z M 535.825 529.700 L 651.875 529.700 L 651.875 535.500 L 535.825 535.500 L 535.825 529.700 Z M 767.925 529.700 L 883.975 529.700 L 883.975 535.500 L 767.925 535.500 L 767.925 529.700 Z M 787.267 662.600 L 785.342 661.902 L 784.314 660.132 L 784.660 658.114 L 786.220 656.788 L 788.267 656.772 L 789.848 658.072 L 790.227 660.083 L 789.228 661.870 L 788.313 662.412 L 787.267 662.600 Z" fill="#a1d99b" fill-opacity="0.45" fill-rule="evenodd" stroke="#1f2937" stroke-width="0.8"/><path d="M 12.700 725.200 L 8.484 724.480 L 4.745 722.400 L 1.910 719.198 L 0.298 715.236 L 0.093 710.963 L 1.319 706.865 L 3.835 703.406 L 7.357 700.978 L 11.486 699.858 L 12.700 699.800 L 915.700 699.800 L 919.916 700.520 L 923.655 702.600 L 926.490 705.802 L 928.102 709.764 L 928.307 714.037 L 927.081 718.135 L 924.565 721.594 L 921.043 724.022 L 916.914 725.142 L 915.700 725.200 L 12.700 725.200 Z M 773.667 715.500 L 775.591 714.802 L 776.619 713.032 L 776.273 711.014 L 774.713 709.688 L 772.666 709.672 L 771.085 710.972 L 770.706 712.983 L 771.705 714.770 L 772.620 715.312 L 773.667 715.500 Z M 154.733 715.500 L 156.658 714.802 L 157.686 713.032 L 157.340 711.014 L 155.780 709.688 L 153.733 709.672 L 152.152 710.972 L 151.773 712.983 L 152.772 714.770 L 153.687 715.312 L 154.733 715.500 Z" fill="#a1d99b" fill-opacity="0.45" fill-rule="evenodd" stroke="#1f2937" stroke-width="0.8"/><path d="M 915.700 755.600 L 919.916 754.880 L 923.655 752.800 L 926.490 749.598 L 928.102 745.636 L 928.307 741.363 L 927.081 737.265 L 924.565 733.806 L 921.043 731.378 L 916.914 730.258 L 915.700 730.200 L 12.700 730.200 L 8.484 730.920 L 4.745 733.000 L 1.910 736.202 L 0.298 740.164 L 0.093 744.437 L 1.319 748.535 L 3.835 751.994 L 7.357 754.422 L 11.486 755.542 L 12.700 755.600 L 915.700 755.600 Z M 154.733 745.900 L 152.809 745.202 L 151.781 743.432 L 152.127 741.414 L 153.687 740.088 L 155.734 740.072 L 157.315 741.372 L 157.694 743.383 L 156.695 745.170 L 155.780 745.712 L 154.733 745.900 Z M 773.667 745.900 L 771.742 745.202 L 770.714 743.432 L 771.060 741.414 L 772.620 740.088 L 774.667 740.072 L 776.248 741.372 L 776.627 743.383 L 775.628 745.170 L 774.713 745.712 L 773.667 745.900 Z" fill="#a1d99b" fill-opacity="0.45" fill-rule="evenodd" stroke="#1f2937" stroke-width="0.8"/></g><text x="179.800" y="531.400" text-anchor="middle" dominant-baseline="central" font-size="11" fill="#111827">P054</text><text x="544.400" y="531.400" text-anchor="middle" dominant-baseline="central" font-size="11" fill="#111827">P053</text><text x="909.000" y="531.400" text-anchor="middle" dominant-baseline="central" font-size="11" fill="#111827">P063</text><text x="473.900" y="181.500" text-anchor="middle" dominant-baseline="central" font-size="11" fill="#111827">P136</text><text x="464.200" y="74.900" text-anchor="middle" dominant-baseline="central" font-size="11" fill="#111827">P144</text><text x="464.200" y="44.500" text-anchor="middle" dominant-baseline="central" font-size="11" fill="#111827">P143</text></svg>