999
FreeCAD v1.1 20260725 (Git shallow)
  0
SECTION
  2
HEADER
  9
$ACADVER
  1
AC1014
  9
$ACADMAINTVER
 70
     9
  9
$DWGCODEPAGE
  3
ANSI_1252
  9
$TEXTSTYLE
  7
STANDARD
  9
$DIMSTYLE
  2
STANDARD
  9
$DIMTXSTY
  7
STANDARD
  9
$CMLSTYLE
  2
STANDARD
  9
$LUNITS
 70
2
  9
$INSUNITS
 70
4
  9
$PEXTMAX
 10
50
 20
50
 30
50
  9
$PEXTMIN
 10
0
 20
0
 30
0
  9
$HANDSEED
  5
FFFF
  0
ENDSEC
  0
SECTION
  2
CLASSES
  0
CLASS
  1
ACDBDICTIONARYWDFLT
  2
AcDbDictionaryWithDefault
  3
ObjectDBX Classes
 90
        0
280
     0
281
     0
  0
CLASS
  1
XRECORD
  2
AcDbXrecord
  3
ObjectDBX Classes
 90
        0
280
     0
281
     0
  0
CLASS
  1
LWPOLYLINE
  2
AcDbPolyline
  3
ObjectDBX Classes
 90
        0
280
     0
281
     1
  0
ENDSEC
  0
SECTION
  2
TABLES
  0
TABLE
  2
VPORT
  5
20
330
0
100
AcDbSymbolTable
 70
     1
  0
VPORT
  5
21
330
20
100
AcDbSymbolTableRecord
100
AcDbViewportTableRecord
  2
*ACTIVE
 70
     0
  0
ENDTAB
  0
TABLE
  2
LTYPE
  5
22
330
0
100
AcDbSymbolTable
 70
     1
  0
LTYPE
  5
23
330
21
100
AcDbSymbolTableRecord
100
AcDbLinetypeTableRecord
  2
BYBLOCK
 70
     0
  3

 72
    65
 73
     0
 40
0.0
  0
LTYPE
  5
24
330
21
100
AcDbSymbolTableRecord
100
AcDbLinetypeTableRecord
  2
BYLAYER
 70
     0
  3

 72
    65
 73
     0
 40
0.0
  0
LTYPE
  5
25
330
21
100
AcDbSymbolTableRecord
100
AcDbLinetypeTableRecord
  2
CONTINUOUS
 70
     0
  3
Solid line
 72
    65
 73
     0
 40
0.0
  0
ENDTAB
  0
TABLE
  2
LAYER
  5
B9E
330
0
100
AcDbSymbolTable
 70
3
  0
LAYER
  5
B9F
330
B9E
100
AcDbSymbolTableRecord
100
AcDbLayerTableRecord
  2
0
 70
   0
 62
   7
  6
CONTINUOUS
  0
LAYER
  5
BA0
330
B9E
100
AcDbSymbolTableRecord
100
AcDbLayerTableRecord
  2
none
 70
    0
 62
    7
  6
CONTINUOUS
  0
LAYER
  5
BA1
330
B9E
100
AcDbSymbolTableRecord
100
AcDbLayerTableRecord
  2
SheetCutProfiles
 70
    0
 62
    7
  6
CONTINUOUS
  0
ENDTAB
  0
TABLE
  2
STYLE
  5
70
330
0
100
AcDbSymbolTable
 70
     2
  0
STYLE
  5
71
330
70
100
AcDbSymbolTableRecord
100
AcDbTextStyleTableRecord
  2
STANDARD
 70
     0
 40
0.0
 41
1.0
 50
0.0
 71
     0
 42
2.5
  3
arial.ttf
  4

  0
STYLE
  5
72
330
70
100
AcDbSymbolTableRecord
100
AcDbTextStyleTableRecord
  2
ANNOTATIVE
 70
     0
 40
0.0
 41
1.0
 50
0.0
 71
     0
 42
2.5
  3
arial.ttf
  4

  0
ENDTAB
  0
TABLE
  2
VIEW
  5
73
330
0
100
AcDbSymbolTable
 70
     0
  0
ENDTAB
  0
TABLE
  2
UCS
  5
74
330
0
100
AcDbSymbolTable
 70
     0
  0
ENDTAB
  0
TABLE
  2
APPID
  5
75
330
0
100
AcDbSymbolTable
 70
     2
  0
APPID
  5
76
330
75
100
AcDbSymbolTableRecord
100
AcDbRegAppTableRecord
  2
ACAD
 70
     0
  0
APPID
  5
77
330
75
100
AcDbSymbolTableRecord
100
AcDbRegAppTableRecord
  2
ACADANNOTATIVE
 70
     0
  0
ENDTAB
  0
TABLE
  2
DIMSTYLE
  5
78
330
0
100
AcDbSymbolTable
 70
     2
  0
DIMSTYLE
105
79
330
78
100
AcDbSymbolTableRecord
100
AcDbDimStyleTableRecord
  2
STANDARD
 70
     0
  3

  4

  5

  6

  7

 40
0.0
 41
2.5
 42
0.625
 43
3.75
 44
1.25
 45
0.0
 46
0.0
 47
0.0
 48
0.0
140
2.5
141
2.5
142
0.0
143
0.03937007874016
144
1.0
145
0.0
146
1.0
147
0.625
 71
     0
 72
     0
 73
     0
 74
     0
 75
     0
 76
     0
 77
     1
 78
     8
170
     0
171
     3
172
     1
173
     0
174
     0
175
     0
176
     0
177
     0
178
     0
270
     2
271
     2
272
     2
273
     2
274
     3
340
71
275
     0
280
     0
281
     0
282
     0
283
     0
284
     8
285
     0
286
     0
287
     3
288
     0
  0
ENDTAB
  0
TABLE
  2
BLOCK_RECORD
  5
A01
330
0
100
AcDbSymbolTable
  70
5
  0
BLOCK_RECORD
  5
A02
330
A01
100
AcDbSymbolTableRecord
100
AcDbBlockTableRecord
  2
*MODEL_SPACE
  0
BLOCK_RECORD
  5
A03
330
A01
100
AcDbSymbolTableRecord
100
AcDbBlockTableRecord
  2
*PAPER_SPACE
  0
ENDTAB
  0
ENDSEC
  0
SECTION
  2
BLOCKS
  0
BLOCK
  5
A04
330
A02
100
AcDbEntity
  8
0
100
AcDbBlockBegin
  2
*MODEL_SPACE
 70
   0
 10
0
 20
0
 30
0
  3
*MODEL_SPACE
  1
 
  0
ENDBLK
  5
A05
330
A02
100
AcDbEntity
  8
0
100
AcDbBlockEnd
  0
BLOCK
  5
A06
330
A03
100
AcDbEntity
 67
1
  8
0
100
AcDbBlockBegin
  2
*PAPER_SPACE
 70
   0
 10
0
 20
0
 30
0
  3
*PAPER_SPACE
  1
 
  0
ENDBLK
  5
A07
330
A03
100
AcDbEntity
 67
    1
  8
0
100
AcDbBlockEnd
  0
ENDSEC
  0
SECTION
  2
ENTITIES
  0
LINE
  5
A08
330
A02
100
AcDbEntity
  8
SheetCutProfiles
100
AcDbLine
 10
13.600000000
 20
324.325000000
 30
0.000000000
 11
2.000000000
 21
324.325000000
 31
0.000000000
  0
LINE
  5
A09
330
A02
100
AcDbEntity
  8
SheetCutProfiles
100
AcDbLine
 10
13.600000000
 20
324.325000000
 30
0.000000000
 11
13.600000000
 21
314.800000000
 31
0.000000000
  0
LINE
  5
A0A
330
A02
100
AcDbEntity
  8
SheetCutProfiles
100
AcDbLine
 10
13.600000000
 20
314.800000000
 30
0.000000000
 11
955.600000000
 21
314.800000000
 31
0.000000000
  0
LINE
  5
A0B
330
A02
100
AcDbEntity
  8
SheetCutProfiles
100
AcDbLine
 10
955.600000000
 20
324.325000000
 30
0.000000000
 11
955.600000000
 21
314.800000000
 31
0.000000000
  0
LINE
  5
A0C
330
A02
100
AcDbEntity
  8
SheetCutProfiles
100
AcDbLine
 10
955.600000000
 20
324.325000000
 30
0.000000000
 11
967.200000000
 21
324.325000000
 31
0.000000000
  0
ARC
  5
A0D
330
A02
100
AcDbEntity
  8
SheetCutProfiles
100
AcDbCircle
 10
967.200000000
 20
326.325000000
 30
0.000000000
 40
2.000000000
100
AcDbArc
 50
-90.000000000
 51
0.000000000
  0
LINE
  5
A0E
330
A02
100
AcDbEntity
  8
SheetCutProfiles
100
AcDbLine
 10
969.200000000
 20
341.375000000
 30
0.000000000
 11
969.200000000
 21
326.325000000
 31
0.000000000
  0
ARC
  5
A0F
330
A02
100
AcDbEntity
  8
SheetCutProfiles
100
AcDbCircle
 10
967.200000000
 20
341.375000000
 30
0.000000000
 40
2.000000000
100
AcDbArc
 50
0.000000000
 51
90.000000000
  0
LINE
  5
A10
330
A02
100
AcDbEntity
  8
SheetCutProfiles
100
AcDbLine
 10
967.200000000
 20
343.375000000
 30
0.000000000
 11
955.600000000
 21
343.375000000
 31
0.000000000
  0
LINE
  5
A11
330
A02
100
AcDbEntity
  8
SheetCutProfiles
100
AcDbLine
 10
955.600000000
 20
362.425000000
 30
0.000000000
 11
955.600000000
 21
343.375000000
 31
0.000000000
  0
LINE
  5
A12
330
A02
100
AcDbEntity
  8
SheetCutProfiles
100
AcDbLine
 10
955.600000000
 20
362.425000000
 30
0.000000000
 11
967.200000000
 21
362.425000000
 31
0.000000000
  0
ARC
  5
A13
330
A02
100
AcDbEntity
  8
SheetCutProfiles
100
AcDbCircle
 10
967.200000000
 20
364.425000000
 30
0.000000000
 40
2.000000000
100
AcDbArc
 50
-90.000000000
 51
0.000000000
  0
LINE
  5
A14
330
A02
100
AcDbEntity
  8
SheetCutProfiles
100
AcDbLine
 10
969.200000000
 20
379.475000000
 30
0.000000000
 11
969.200000000
 21
364.425000000
 31
0.000000000
  0
ARC
  5
A15
330
A02
100
AcDbEntity
  8
SheetCutProfiles
100
AcDbCircle
 10
967.200000000
 20
379.475000000
 30
0.000000000
 40
2.000000000
100
AcDbArc
 50
0.000000000
 51
90.000000000
  0
LINE
  5
A16
330
A02
100
AcDbEntity
  8
SheetCutProfiles
100
AcDbLine
 10
967.200000000
 20
381.475000000
 30
0.000000000
 11
955.600000000
 21
381.475000000
 31
0.000000000
  0
LINE
  5
A17
330
A02
100
AcDbEntity
  8
SheetCutProfiles
100
AcDbLine
 10
955.600000000
 20
400.525000000
 30
0.000000000
 11
955.600000000
 21
381.475000000
 31
0.000000000
  0
LINE
  5
A18
330
A02
100
AcDbEntity
  8
SheetCutProfiles
100
AcDbLine
 10
955.600000000
 20
400.525000000
 30
0.000000000
 11
967.200000000
 21
400.525000000
 31
0.000000000
  0
ARC
  5
A19
330
A02
100
AcDbEntity
  8
SheetCutProfiles
100
AcDbCircle
 10
967.200000000
 20
402.525000000
 30
0.000000000
 40
2.000000000
100
AcDbArc
 50
-90.000000000
 51
0.000000000
  0
LINE
  5
A1A
330
A02
100
AcDbEntity
  8
SheetCutProfiles
100
AcDbLine
 10
969.200000000
 20
417.575000000
 30
0.000000000
 11
969.200000000
 21
402.525000000
 31
0.000000000
  0
ARC
  5
A1B
330
A02
100
AcDbEntity
  8
SheetCutProfiles
100
AcDbCircle
 10
967.200000000
 20
417.575000000
 30
0.000000000
 40
2.000000000
100
AcDbArc
 50
0.000000000
 51
90.000000000
  0
LINE
  5
A1C
330
A02
100
AcDbEntity
  8
SheetCutProfiles
100
AcDbLine
 10
967.200000000
 20
419.575000000
 30
0.000000000
 11
955.600000000
 21
419.575000000
 31
0.000000000
  0
LINE
  5
A1D
330
A02
100
AcDbEntity
  8
SheetCutProfiles
100
AcDbLine
 10
955.600000000
 20
438.625000000
 30
0.000000000
 11
955.600000000
 21
419.575000000
 31
0.000000000
  0
LINE
  5
A1E
330
A02
100
AcDbEntity
  8
SheetCutProfiles
100
AcDbLine
 10
955.600000000
 20
438.625000000
 30
0.000000000
 11
967.200000000
 21
438.625000000
 31
0.000000000
  0
ARC
  5
A1F
330
A02
100
AcDbEntity
  8
SheetCutProfiles
100
AcDbCircle
 10
967.200000000
 20
440.625000000
 30
0.000000000
 40
2.000000000
100
AcDbArc
 50
-90.000000000
 51
0.000000000
  0
LINE
  5
A20
330
A02
100
AcDbEntity
  8
SheetCutProfiles
100
AcDbLine
 10
969.200000000
 20
455.675000000
 30
0.000000000
 11
969.200000000
 21
440.625000000
 31
0.000000000
  0
ARC
  5
A21
330
A02
100
AcDbEntity
  8
SheetCutProfiles
100
AcDbCircle
 10
967.200000000
 20
455.675000000
 30
0.000000000
 40
2.000000000
100
AcDbArc
 50
0.000000000
 51
90.000000000
  0
LINE
  5
A22
330
A02
100
AcDbEntity
  8
SheetCutProfiles
100
AcDbLine
 10
967.200000000
 20
457.675000000
 30
0.000000000
 11
955.600000000
 21
457.675000000
 31
0.000000000
  0
LINE
  5
A23
330
A02
100
AcDbEntity
  8
SheetCutProfiles
100
AcDbLine
 10
955.600000000
 20
467.200000000
 30
0.000000000
 11
955.600000000
 21
457.675000000
 31
0.000000000
  0
LINE
  5
A24
330
A02
100
AcDbEntity
  8
SheetCutProfiles
100
AcDbLine
 10
13.600000000
 20
467.200000000
 30
0.000000000
 11
955.600000000
 21
467.200000000
 31
0.000000000
  0
LINE
  5
A25
330
A02
100
AcDbEntity
  8
SheetCutProfiles
100
AcDbLine
 10
13.600000000
 20
467.200000000
 30
0.000000000
 11
13.600000000
 21
457.675000000
 31
0.000000000
  0
LINE
  5
A26
330
A02
100
AcDbEntity
  8
SheetCutProfiles
100
AcDbLine
 10
2.000000000
 20
457.675000000
 30
0.000000000
 11
13.600000000
 21
457.675000000
 31
0.000000000
  0
ARC
  5
A27
330
A02
100
AcDbEntity
  8
SheetCutProfiles
100
AcDbCircle
 10
2.000000000
 20
455.675000000
 30
0.000000000
 40
2.000000000
100
AcDbArc
 50
90.000000000
 51
180.000000000
  0
LINE
  5
A28
330
A02
100
AcDbEntity
  8
SheetCutProfiles
100
AcDbLine
 10
0.000000000
 20
455.675000000
 30
0.000000000
 11
0.000000000
 21
440.625000000
 31
0.000000000
  0
ARC
  5
A29
330
A02
100
AcDbEntity
  8
SheetCutProfiles
100
AcDbCircle
 10
2.000000000
 20
440.625000000
 30
0.000000000
 40
2.000000000
100
AcDbArc
 50
180.000000000
 51
-90.000000000
  0
LINE
  5
A2A
330
A02
100
AcDbEntity
  8
SheetCutProfiles
100
AcDbLine
 10
13.600000000
 20
438.625000000
 30
0.000000000
 11
2.000000000
 21
438.625000000
 31
0.000000000
  0
LINE
  5
A2B
330
A02
100
AcDbEntity
  8
SheetCutProfiles
100
AcDbLine
 10
13.600000000
 20
438.625000000
 30
0.000000000
 11
13.600000000
 21
419.575000000
 31
0.000000000
  0
LINE
  5
A2C
330
A02
100
AcDbEntity
  8
SheetCutProfiles
100
AcDbLine
 10
2.000000000
 20
419.575000000
 30
0.000000000
 11
13.600000000
 21
419.575000000
 31
0.000000000
  0
ARC
  5
A2D
330
A02
100
AcDbEntity
  8
SheetCutProfiles
100
AcDbCircle
 10
2.000000000
 20
417.575000000
 30
0.000000000
 40
2.000000000
100
AcDbArc
 50
90.000000000
 51
180.000000000
  0
LINE
  5
A2E
330
A02
100
AcDbEntity
  8
SheetCutProfiles
100
AcDbLine
 10
0.000000000
 20
417.575000000
 30
0.000000000
 11
0.000000000
 21
402.525000000
 31
0.000000000
  0
ARC
  5
A2F
330
A02
100
AcDbEntity
  8
SheetCutProfiles
100
AcDbCircle
 10
2.000000000
 20
402.525000000
 30
0.000000000
 40
2.000000000
100
AcDbArc
 50
180.000000000
 51
-90.000000000
  0
LINE
  5
A30
330
A02
100
AcDbEntity
  8
SheetCutProfiles
100
AcDbLine
 10
13.600000000
 20
400.525000000
 30
0.000000000
 11
2.000000000
 21
400.525000000
 31
0.000000000
  0
LINE
  5
A31
330
A02
100
AcDbEntity
  8
SheetCutProfiles
100
AcDbLine
 10
13.600000000
 20
400.525000000
 30
0.000000000
 11
13.600000000
 21
381.475000000
 31
0.000000000
  0
LINE
  5
A32
330
A02
100
AcDbEntity
  8
SheetCutProfiles
100
AcDbLine
 10
2.000000000
 20
381.475000000
 30
0.000000000
 11
13.600000000
 21
381.475000000
 31
0.000000000
  0
ARC
  5
A33
330
A02
100
AcDbEntity
  8
SheetCutProfiles
100
AcDbCircle
 10
2.000000000
 20
379.475000000
 30
0.000000000
 40
2.000000000
100
AcDbArc
 50
90.000000000
 51
180.000000000
  0
LINE
  5
A34
330
A02
100
AcDbEntity
  8
SheetCutProfiles
100
AcDbLine
 10
0.000000000
 20
379.475000000
 30
0.000000000
 11
0.000000000
 21
364.425000000
 31
0.000000000
  0
ARC
  5
A35
330
A02
100
AcDbEntity
  8
SheetCutProfiles
100
AcDbCircle
 10
2.000000000
 20
364.425000000
 30
0.000000000
 40
2.000000000
100
AcDbArc
 50
180.000000000
 51
-90.000000000
  0
LINE
  5
A36
330
A02
100
AcDbEntity
  8
SheetCutProfiles
100
AcDbLine
 10
13.600000000
 20
362.425000000
 30
0.000000000
 11
2.000000000
 21
362.425000000
 31
0.000000000
  0
LINE
  5
A37
330
A02
100
AcDbEntity
  8
SheetCutProfiles
100
AcDbLine
 10
13.600000000
 20
362.425000000
 30
0.000000000
 11
13.600000000
 21
343.375000000
 31
0.000000000
  0
LINE
  5
A38
330
A02
100
AcDbEntity
  8
SheetCutProfiles
100
AcDbLine
 10
2.000000000
 20
343.375000000
 30
0.000000000
 11
13.600000000
 21
343.375000000
 31
0.000000000
  0
ARC
  5
A39
330
A02
100
AcDbEntity
  8
SheetCutProfiles
100
AcDbCircle
 10
2.000000000
 20
341.375000000
 30
0.000000000
 40
2.000000000
100
AcDbArc
 50
90.000000000
 51
180.000000000
  0
LINE
  5
A3A
330
A02
100
AcDbEntity
  8
SheetCutProfiles
100
AcDbLine
 10
0.000000000
 20
341.375000000
 30
0.000000000
 11
0.000000000
 21
326.325000000
 31
0.000000000
  0
ARC
  5
A3B
330
A02
100
AcDbEntity
  8
SheetCutProfiles
100
AcDbCircle
 10
2.000000000
 20
326.325000000
 30
0.000000000
 40
2.000000000
100
AcDbArc
 50
180.000000000
 51
-90.000000000
  0
CIRCLE
  5
A3C
330
A02
100
AcDbEntity
  8
SheetCutProfiles
100
AcDbCircle
 10
161.533333333
 20
391.000000000
 30
0.000000000
 40
3.000000000
  0
CIRCLE
  5
A3D
330
A02
100
AcDbEntity
  8
SheetCutProfiles
100
AcDbCircle
 10
807.666666667
 20
391.000000000
 30
0.000000000
 40
3.000000000
  0
LINE
  5
A3E
330
A02
100
AcDbEntity
  8
SheetCutProfiles
100
AcDbLine
 10
13.600000000
 20
9.525000000
 30
0.000000000
 11
2.000000000
 21
9.525000000
 31
0.000000000
  0
LINE
  5
A3F
330
A02
100
AcDbEntity
  8
SheetCutProfiles
100
AcDbLine
 10
13.600000000
 20
9.525000000
 30
0.000000000
 11
13.600000000
 21
0.000000000
 31
0.000000000
  0
LINE
  5
A40
330
A02
100
AcDbEntity
  8
SheetCutProfiles
100
AcDbLine
 10
13.600000000
 20
0.000000000
 30
0.000000000
 11
955.600000000
 21
0.000000000
 31
0.000000000
  0
LINE
  5
A41
330
A02
100
AcDbEntity
  8
SheetCutProfiles
100
AcDbLine
 10
955.600000000
 20
9.525000000
 30
0.000000000
 11
955.600000000
 21
0.000000000
 31
0.000000000
  0
LINE
  5
A42
330
A02
100
AcDbEntity
  8
SheetCutProfiles
100
AcDbLine
 10
955.600000000
 20
9.525000000
 30
0.000000000
 11
967.200000000
 21
9.525000000
 31
0.000000000
  0
ARC
  5
A43
330
A02
100
AcDbEntity
  8
SheetCutProfiles
100
AcDbCircle
 10
967.200000000
 20
11.525000000
 30
0.000000000
 40
2.000000000
100
AcDbArc
 50
-90.000000000
 51
0.000000000
  0
LINE
  5
A44
330
A02
100
AcDbEntity
  8
SheetCutProfiles
100
AcDbLine
 10
969.200000000
 20
26.575000000
 30
0.000000000
 11
969.200000000
 21
11.525000000
 31
0.000000000
  0
ARC
  5
A45
330
A02
100
AcDbEntity
  8
SheetCutProfiles
100
AcDbCircle
 10
967.200000000
 20
26.575000000
 30
0.000000000
 40
2.000000000
100
AcDbArc
 50
0.000000000
 51
90.000000000
  0
LINE
  5
A46
330
A02
100
AcDbEntity
  8
SheetCutProfiles
100
AcDbLine
 10
967.200000000
 20
28.575000000
 30
0.000000000
 11
955.600000000
 21
28.575000000
 31
0.000000000
  0
LINE
  5
A47
330
A02
100
AcDbEntity
  8
SheetCutProfiles
100
AcDbLine
 10
955.600000000
 20
47.625000000
 30
0.000000000
 11
955.600000000
 21
28.575000000
 31
0.000000000
  0
LINE
  5
A48
330
A02
100
AcDbEntity
  8
SheetCutProfiles
100
AcDbLine
 10
955.600000000
 20
47.625000000
 30
0.000000000
 11
967.200000000
 21
47.625000000
 31
0.000000000
  0
ARC
  5
A49
330
A02
100
AcDbEntity
  8
SheetCutProfiles
100
AcDbCircle
 10
967.200000000
 20
49.625000000
 30
0.000000000
 40
2.000000000
100
AcDbArc
 50
-90.000000000
 51
0.000000000
  0
LINE
  5
A4A
330
A02
100
AcDbEntity
  8
SheetCutProfiles
100
AcDbLine
 10
969.200000000
 20
64.675000000
 30
0.000000000
 11
969.200000000
 21
49.625000000
 31
0.000000000
  0
ARC
  5
A4B
330
A02
100
AcDbEntity
  8
SheetCutProfiles
100
AcDbCircle
 10
967.200000000
 20
64.675000000
 30
0.000000000
 40
2.000000000
100
AcDbArc
 50
0.000000000
 51
90.000000000
  0
LINE
  5
A4C
330
A02
100
AcDbEntity
  8
SheetCutProfiles
100
AcDbLine
 10
967.200000000
 20
66.675000000
 30
0.000000000
 11
955.600000000
 21
66.675000000
 31
0.000000000
  0
LINE
  5
A4D
330
A02
100
AcDbEntity
  8
SheetCutProfiles
100
AcDbLine
 10
955.600000000
 20
85.725000000
 30
0.000000000
 11
955.600000000
 21
66.675000000
 31
0.000000000
  0
LINE
  5
A4E
330
A02
100
AcDbEntity
  8
SheetCutProfiles
100
AcDbLine
 10
955.600000000
 20
85.725000000
 30
0.000000000
 11
967.200000000
 21
85.725000000
 31
0.000000000
  0
ARC
  5
A4F
330
A02
100
AcDbEntity
  8
SheetCutProfiles
100
AcDbCircle
 10
967.200000000
 20
87.725000000
 30
0.000000000
 40
2.000000000
100
AcDbArc
 50
-90.000000000
 51
0.000000000
  0
LINE
  5
A50
330
A02
100
AcDbEntity
  8
SheetCutProfiles
100
AcDbLine
 10
969.200000000
 20
102.775000000
 30
0.000000000
 11
969.200000000
 21
87.725000000
 31
0.000000000
  0
ARC
  5
A51
330
A02
100
AcDbEntity
  8
SheetCutProfiles
100
AcDbCircle
 10
967.200000000
 20
102.775000000
 30
0.000000000
 40
2.000000000
100
AcDbArc
 50
0.000000000
 51
90.000000000
  0
LINE
  5
A52
330
A02
100
AcDbEntity
  8
SheetCutProfiles
100
AcDbLine
 10
967.200000000
 20
104.775000000
 30
0.000000000
 11
955.600000000
 21
104.775000000
 31
0.000000000
  0
LINE
  5
A53
330
A02
100
AcDbEntity
  8
SheetCutProfiles
100
AcDbLine
 10
955.600000000
 20
123.825000000
 30
0.000000000
 11
955.600000000
 21
104.775000000
 31
0.000000000
  0
LINE
  5
A54
330
A02
100
AcDbEntity
  8
SheetCutProfiles
100
AcDbLine
 10
955.600000000
 20
123.825000000
 30
0.000000000
 11
967.200000000
 21
123.825000000
 31
0.000000000
  0
ARC
  5
A55
330
A02
100
AcDbEntity
  8
SheetCutProfiles
100
AcDbCircle
 10
967.200000000
 20
125.825000000
 30
0.000000000
 40
2.000000000
100
AcDbArc
 50
-90.000000000
 51
0.000000000
  0
LINE
  5
A56
330
A02
100
AcDbEntity
  8
SheetCutProfiles
100
AcDbLine
 10
969.200000000
 20
140.875000000
 30
0.000000000
 11
969.200000000
 21
125.825000000
 31
0.000000000
  0
ARC
  5
A57
330
A02
100
AcDbEntity
  8
SheetCutProfiles
100
AcDbCircle
 10
967.200000000
 20
140.875000000
 30
0.000000000
 40
2.000000000
100
AcDbArc
 50
0.000000000
 51
90.000000000
  0
LINE
  5
A58
330
A02
100
AcDbEntity
  8
SheetCutProfiles
100
AcDbLine
 10
967.200000000
 20
142.875000000
 30
0.000000000
 11
955.600000000
 21
142.875000000
 31
0.000000000
  0
LINE
  5
A59
330
A02
100
AcDbEntity
  8
SheetCutProfiles
100
AcDbLine
 10
955.600000000
 20
152.400000000
 30
0.000000000
 11
955.600000000
 21
142.875000000
 31
0.000000000
  0
LINE
  5
A5A
330
A02
100
AcDbEntity
  8
SheetCutProfiles
100
AcDbLine
 10
13.600000000
 20
152.400000000
 30
0.000000000
 11
955.600000000
 21
152.400000000
 31
0.000000000
  0
LINE
  5
A5B
330
A02
100
AcDbEntity
  8
SheetCutProfiles
100
AcDbLine
 10
13.600000000
 20
152.400000000
 30
0.000000000
 11
13.600000000
 21
142.875000000
 31
0.000000000
  0
LINE
  5
A5C
330
A02
100
AcDbEntity
  8
SheetCutProfiles
100
AcDbLine
 10
2.000000000
 20
142.875000000
 30
0.000000000
 11
13.600000000
 21
142.875000000
 31
0.000000000
  0
ARC
  5
A5D
330
A02
100
AcDbEntity
  8
SheetCutProfiles
100
AcDbCircle
 10
2.000000000
 20
140.875000000
 30
0.000000000
 40
2.000000000
100
AcDbArc
 50
90.000000000
 51
180.000000000
  0
LINE
  5
A5E
330
A02
100
AcDbEntity
  8
SheetCutProfiles
100
AcDbLine
 10
0.000000000
 20
140.875000000
 30
0.000000000
 11
0.000000000
 21
125.825000000
 31
0.000000000
  0
ARC
  5
A5F
330
A02
100
AcDbEntity
  8
SheetCutProfiles
100
AcDbCircle
 10
2.000000000
 20
125.825000000
 30
0.000000000
 40
2.000000000
100
AcDbArc
 50
180.000000000
 51
-90.000000000
  0
LINE
  5
A60
330
A02
100
AcDbEntity
  8
SheetCutProfiles
100
AcDbLine
 10
13.600000000
 20
123.825000000
 30
0.000000000
 11
2.000000000
 21
123.825000000
 31
0.000000000
  0
LINE
  5
A61
330
A02
100
AcDbEntity
  8
SheetCutProfiles
100
AcDbLine
 10
13.600000000
 20
123.825000000
 30
0.000000000
 11
13.600000000
 21
104.775000000
 31
0.000000000
  0
LINE
  5
A62
330
A02
100
AcDbEntity
  8
SheetCutProfiles
100
AcDbLine
 10
2.000000000
 20
104.775000000
 30
0.000000000
 11
13.600000000
 21
104.775000000
 31
0.000000000
  0
ARC
  5
A63
330
A02
100
AcDbEntity
  8
SheetCutProfiles
100
AcDbCircle
 10
2.000000000
 20
102.775000000
 30
0.000000000
 40
2.000000000
100
AcDbArc
 50
90.000000000
 51
180.000000000
  0
LINE
  5
A64
330
A02
100
AcDbEntity
  8
SheetCutProfiles
100
AcDbLine
 10
0.000000000
 20
102.775000000
 30
0.000000000
 11
0.000000000
 21
87.725000000
 31
0.000000000
  0
ARC
  5
A65
330
A02
100
AcDbEntity
  8
SheetCutProfiles
100
AcDbCircle
 10
2.000000000
 20
87.725000000
 30
0.000000000
 40
2.000000000
100
AcDbArc
 50
180.000000000
 51
-90.000000000
  0
LINE
  5
A66
330
A02
100
AcDbEntity
  8
SheetCutProfiles
100
AcDbLine
 10
13.600000000
 20
85.725000000
 30
0.000000000
 11
2.000000000
 21
85.725000000
 31
0.000000000
  0
LINE
  5
A67
330
A02
100
AcDbEntity
  8
SheetCutProfiles
100
AcDbLine
 10
13.600000000
 20
85.725000000
 30
0.000000000
 11
13.600000000
 21
66.675000000
 31
0.000000000
  0
LINE
  5
A68
330
A02
100
AcDbEntity
  8
SheetCutProfiles
100
AcDbLine
 10
2.000000000
 20
66.675000000
 30
0.000000000
 11
13.600000000
 21
66.675000000
 31
0.000000000
  0
ARC
  5
A69
330
A02
100
AcDbEntity
  8
SheetCutProfiles
100
AcDbCircle
 10
2.000000000
 20
64.675000000
 30
0.000000000
 40
2.000000000
100
AcDbArc
 50
90.000000000
 51
180.000000000
  0
LINE
  5
A6A
330
A02
100
AcDbEntity
  8
SheetCutProfiles
100
AcDbLine
 10
0.000000000
 20
64.675000000
 30
0.000000000
 11
0.000000000
 21
49.625000000
 31
0.000000000
  0
ARC
  5
A6B
330
A02
100
AcDbEntity
  8
SheetCutProfiles
100
AcDbCircle
 10
2.000000000
 20
49.625000000
 30
0.000000000
 40
2.000000000
100
AcDbArc
 50
180.000000000
 51
-90.000000000
  0
LINE
  5
A6C
330
A02
100
AcDbEntity
  8
SheetCutProfiles
100
AcDbLine
 10
13.600000000
 20
47.625000000
 30
0.000000000
 11
2.000000000
 21
47.625000000
 31
0.000000000
  0
LINE
  5
A6D
330
A02
100
AcDbEntity
  8
SheetCutProfiles
100
AcDbLine
 10
13.600000000
 20
47.625000000
 30
0.000000000
 11
13.600000000
 21
28.575000000
 31
0.000000000
  0
LINE
  5
A6E
330
A02
100
AcDbEntity
  8
SheetCutProfiles
100
AcDbLine
 10
2.000000000
 20
28.575000000
 30
0.000000000
 11
13.600000000
 21
28.575000000
 31
0.000000000
  0
ARC
  5
A6F
330
A02
100
AcDbEntity
  8
SheetCutProfiles
100
AcDbCircle
 10
2.000000000
 20
26.575000000
 30
0.000000000
 40
2.000000000
100
AcDbArc
 50
90.000000000
 51
180.000000000
  0
LINE
  5
A70
330
A02
100
AcDbEntity
  8
SheetCutProfiles
100
AcDbLine
 10
0.000000000
 20
26.575000000
 30
0.000000000
 11
0.000000000
 21
11.525000000
 31
0.000000000
  0
ARC
  5
A71
330
A02
100
AcDbEntity
  8
SheetCutProfiles
100
AcDbCircle
 10
2.000000000
 20
11.525000000
 30
0.000000000
 40
2.000000000
100
AcDbArc
 50
180.000000000
 51
-90.000000000
  0
CIRCLE
  5
A72
330
A02
100
AcDbEntity
  8
SheetCutProfiles
100
AcDbCircle
 10
161.533333333
 20
76.200000000
 30
0.000000000
 40
3.000000000
  0
CIRCLE
  5
A73
330
A02
100
AcDbEntity
  8
SheetCutProfiles
100
AcDbCircle
 10
807.666666667
 20
76.200000000
 30
0.000000000
 40
3.000000000
  0
LINE
  5
A74
330
A02
100
AcDbEntity
  8
SheetCutProfiles
100
AcDbLine
 10
955.600000000
 20
166.925000000
 30
0.000000000
 11
967.200000000
 21
166.925000000
 31
0.000000000
  0
LINE
  5
A75
330
A02
100
AcDbEntity
  8
SheetCutProfiles
100
AcDbLine
 10
955.600000000
 20
166.925000000
 30
0.000000000
 11
955.600000000
 21
157.400000000
 31
0.000000000
  0
LINE
  5
A76
330
A02
100
AcDbEntity
  8
SheetCutProfiles
100
AcDbLine
 10
955.600000000
 20
157.400000000
 30
0.000000000
 11
13.600000000
 21
157.400000000
 31
0.000000000
  0
LINE
  5
A77
330
A02
100
AcDbEntity
  8
SheetCutProfiles
100
AcDbLine
 10
13.600000000
 20
166.925000000
 30
0.000000000
 11
13.600000000
 21
157.400000000
 31
0.000000000
  0
LINE
  5
A78
330
A02
100
AcDbEntity
  8
SheetCutProfiles
100
AcDbLine
 10
13.600000000
 20
166.925000000
 30
0.000000000
 11
2.000000000
 21
166.925000000
 31
0.000000000
  0
ARC
  5
A79
330
A02
100
AcDbEntity
  8
SheetCutProfiles
100
AcDbCircle
 10
2.000000000
 20
168.925000000
 30
0.000000000
 40
2.000000000
100
AcDbArc
 50
180.000000000
 51
-90.000000000
  0
LINE
  5
A7A
330
A02
100
AcDbEntity
  8
SheetCutProfiles
100
AcDbLine
 10
0.000000000
 20
183.975000000
 30
0.000000000
 11
0.000000000
 21
168.925000000
 31
0.000000000
  0
ARC
  5
A7B
330
A02
100
AcDbEntity
  8
SheetCutProfiles
100
AcDbCircle
 10
2.000000000
 20
183.975000000
 30
0.000000000
 40
2.000000000
100
AcDbArc
 50
90.000000000
 51
180.000000000
  0
LINE
  5
A7C
330
A02
100
AcDbEntity
  8
SheetCutProfiles
100
AcDbLine
 10
2.000000000
 20
185.975000000
 30
0.000000000
 11
13.600000000
 21
185.975000000
 31
0.000000000
  0
LINE
  5
A7D
330
A02
100
AcDbEntity
  8
SheetCutProfiles
100
AcDbLine
 10
13.600000000
 20
205.025000000
 30
0.000000000
 11
13.600000000
 21
185.975000000
 31
0.000000000
  0
LINE
  5
A7E
330
A02
100
AcDbEntity
  8
SheetCutProfiles
100
AcDbLine
 10
13.600000000
 20
205.025000000
 30
0.000000000
 11
2.000000000
 21
205.025000000
 31
0.000000000
  0
ARC
  5
A7F
330
A02
100
AcDbEntity
  8
SheetCutProfiles
100
AcDbCircle
 10
2.000000000
 20
207.025000000
 30
0.000000000
 40
2.000000000
100
AcDbArc
 50
180.000000000
 51
-90.000000000
  0
LINE
  5
A80
330
A02
100
AcDbEntity
  8
SheetCutProfiles
100
AcDbLine
 10
0.000000000
 20
222.075000000
 30
0.000000000
 11
0.000000000
 21
207.025000000
 31
0.000000000
  0
ARC
  5
A81
330
A02
100
AcDbEntity
  8
SheetCutProfiles
100
AcDbCircle
 10
2.000000000
 20
222.075000000
 30
0.000000000
 40
2.000000000
100
AcDbArc
 50
90.000000000
 51
180.000000000
  0
LINE
  5
A82
330
A02
100
AcDbEntity
  8
SheetCutProfiles
100
AcDbLine
 10
2.000000000
 20
224.075000000
 30
0.000000000
 11
13.600000000
 21
224.075000000
 31
0.000000000
  0
LINE
  5
A83
330
A02
100
AcDbEntity
  8
SheetCutProfiles
100
AcDbLine
 10
13.600000000
 20
243.125000000
 30
0.000000000
 11
13.600000000
 21
224.075000000
 31
0.000000000
  0
LINE
  5
A84
330
A02
100
AcDbEntity
  8
SheetCutProfiles
100
AcDbLine
 10
13.600000000
 20
243.125000000
 30
0.000000000
 11
2.000000000
 21
243.125000000
 31
0.000000000
  0
ARC
  5
A85
330
A02
100
AcDbEntity
  8
SheetCutProfiles
100
AcDbCircle
 10
2.000000000
 20
245.125000000
 30
0.000000000
 40
2.000000000
100
AcDbArc
 50
180.000000000
 51
-90.000000000
  0
LINE
  5
A86
330
A02
100
AcDbEntity
  8
SheetCutProfiles
100
AcDbLine
 10
0.000000000
 20
260.175000000
 30
0.000000000
 11
0.000000000
 21
245.125000000
 31
0.000000000
  0
ARC
  5
A87
330
A02
100
AcDbEntity
  8
SheetCutProfiles
100
AcDbCircle
 10
2.000000000
 20
260.175000000
 30
0.000000000
 40
2.000000000
100
AcDbArc
 50
90.000000000
 51
180.000000000
  0
LINE
  5
A88
330
A02
100
AcDbEntity
  8
SheetCutProfiles
100
AcDbLine
 10
2.000000000
 20
262.175000000
 30
0.000000000
 11
13.600000000
 21
262.175000000
 31
0.000000000
  0
LINE
  5
A89
330
A02
100
AcDbEntity
  8
SheetCutProfiles
100
AcDbLine
 10
13.600000000
 20
281.225000000
 30
0.000000000
 11
13.600000000
 21
262.175000000
 31
0.000000000
  0
LINE
  5
A8A
330
A02
100
AcDbEntity
  8
SheetCutProfiles
100
AcDbLine
 10
13.600000000
 20
281.225000000
 30
0.000000000
 11
2.000000000
 21
281.225000000
 31
0.000000000
  0
ARC
  5
A8B
330
A02
100
AcDbEntity
  8
SheetCutProfiles
100
AcDbCircle
 10
2.000000000
 20
283.225000000
 30
0.000000000
 40
2.000000000
100
AcDbArc
 50
180.000000000
 51
-90.000000000
  0
LINE
  5
A8C
330
A02
100
AcDbEntity
  8
SheetCutProfiles
100
AcDbLine
 10
0.000000000
 20
298.275000000
 30
0.000000000
 11
0.000000000
 21
283.225000000
 31
0.000000000
  0
ARC
  5
A8D
330
A02
100
AcDbEntity
  8
SheetCutProfiles
100
AcDbCircle
 10
2.000000000
 20
298.275000000
 30
0.000000000
 40
2.000000000
100
AcDbArc
 50
90.000000000
 51
180.000000000
  0
LINE
  5
A8E
330
A02
100
AcDbEntity
  8
SheetCutProfiles
100
AcDbLine
 10
2.000000000
 20
300.275000000
 30
0.000000000
 11
13.600000000
 21
300.275000000
 31
0.000000000
  0
LINE
  5
A8F
330
A02
100
AcDbEntity
  8
SheetCutProfiles
100
AcDbLine
 10
13.600000000
 20
309.800000000
 30
0.000000000
 11
13.600000000
 21
300.275000000
 31
0.000000000
  0
LINE
  5
A90
330
A02
100
AcDbEntity
  8
SheetCutProfiles
100
AcDbLine
 10
955.600000000
 20
309.800000000
 30
0.000000000
 11
13.600000000
 21
309.800000000
 31
0.000000000
  0
LINE
  5
A91
330
A02
100
AcDbEntity
  8
SheetCutProfiles
100
AcDbLine
 10
955.600000000
 20
309.800000000
 30
0.000000000
 11
955.600000000
 21
300.275000000
 31
0.000000000
  0
LINE
  5
A92
330
A02
100
AcDbEntity
  8
SheetCutProfiles
100
AcDbLine
 10
967.200000000
 20
300.275000000
 30
0.000000000
 11
955.600000000
 21
300.275000000
 31
0.000000000
  0
ARC
  5
A93
330
A02
100
AcDbEntity
  8
SheetCutProfiles
100
AcDbCircle
 10
967.200000000
 20
298.275000000
 30
0.000000000
 40
2.000000000
100
AcDbArc
 50
0.000000000
 51
90.000000000
  0
LINE
  5
A94
330
A02
100
AcDbEntity
  8
SheetCutProfiles
100
AcDbLine
 10
969.200000000
 20
298.275000000
 30
0.000000000
 11
969.200000000
 21
283.225000000
 31
0.000000000
  0
ARC
  5
A95
330
A02
100
AcDbEntity
  8
SheetCutProfiles
100
AcDbCircle
 10
967.200000000
 20
283.225000000
 30
0.000000000
 40
2.000000000
100
AcDbArc
 50
-90.000000000
 51
0.000000000
  0
LINE
  5
A96
330
A02
100
AcDbEntity
  8
SheetCutProfiles
100
AcDbLine
 10
955.600000000
 20
281.225000000
 30
0.000000000
 11
967.200000000
 21
281.225000000
 31
0.000000000
  0
LINE
  5
A97
330
A02
100
AcDbEntity
  8
SheetCutProfiles
100
AcDbLine
 10
955.600000000
 20
281.225000000
 30
0.000000000
 11
955.600000000
 21
262.175000000
 31
0.000000000
  0
LINE
  5
A98
330
A02
100
AcDbEntity
  8
SheetCutProfiles
100
AcDbLine
 10
967.200000000
 20
262.175000000
 30
0.000000000
 11
955.600000000
 21
262.175000000
 31
0.000000000
  0
ARC
  5
A99
330
A02
100
AcDbEntity
  8
SheetCutProfiles
100
AcDbCircle
 10
967.200000000
 20
260.175000000
 30
0.000000000
 40
2.000000000
100
AcDbArc
 50
0.000000000
 51
90.000000000
  0
LINE
  5
A9A
330
A02
100
AcDbEntity
  8
SheetCutProfiles
100
AcDbLine
 10
969.200000000
 20
260.175000000
 30
0.000000000
 11
969.200000000
 21
245.125000000
 31
0.000000000
  0
ARC
  5
A9B
330
A02
100
AcDbEntity
  8
SheetCutProfiles
100
AcDbCircle
 10
967.200000000
 20
245.125000000
 30
0.000000000
 40
2.000000000
100
AcDbArc
 50
-90.000000000
 51
0.000000000
  0
LINE
  5
A9C
330
A02
100
AcDbEntity
  8
SheetCutProfiles
100
AcDbLine
 10
955.600000000
 20
243.125000000
 30
0.000000000
 11
967.200000000
 21
243.125000000
 31
0.000000000
  0
LINE
  5
A9D
330
A02
100
AcDbEntity
  8
SheetCutProfiles
100
AcDbLine
 10
955.600000000
 20
243.125000000
 30
0.000000000
 11
955.600000000
 21
224.075000000
 31
0.000000000
  0
LINE
  5
A9E
330
A02
100
AcDbEntity
  8
SheetCutProfiles
100
AcDbLine
 10
967.200000000
 20
224.075000000
 30
0.000000000
 11
955.600000000
 21
224.075000000
 31
0.000000000
  0
ARC
  5
A9F
330
A02
100
AcDbEntity
  8
SheetCutProfiles
100
AcDbCircle
 10
967.200000000
 20
222.075000000
 30
0.000000000
 40
2.000000000
100
AcDbArc
 50
0.000000000
 51
90.000000000
  0
LINE
  5
AA0
330
A02
100
AcDbEntity
  8
SheetCutProfiles
100
AcDbLine
 10
969.200000000
 20
222.075000000
 30
0.000000000
 11
969.200000000
 21
207.025000000
 31
0.000000000
  0
ARC
  5
AA1
330
A02
100
AcDbEntity
  8
SheetCutProfiles
100
AcDbCircle
 10
967.200000000
 20
207.025000000
 30
0.000000000
 40
2.000000000
100
AcDbArc
 50
-90.000000000
 51
0.000000000
  0
LINE
  5
AA2
330
A02
100
AcDbEntity
  8
SheetCutProfiles
100
AcDbLine
 10
955.600000000
 20
205.025000000
 30
0.000000000
 11
967.200000000
 21
205.025000000
 31
0.000000000
  0
LINE
  5
AA3
330
A02
100
AcDbEntity
  8
SheetCutProfiles
100
AcDbLine
 10
955.600000000
 20
205.025000000
 30
0.000000000
 11
955.600000000
 21
185.975000000
 31
0.000000000
  0
LINE
  5
AA4
330
A02
100
AcDbEntity
  8
SheetCutProfiles
100
AcDbLine
 10
967.200000000
 20
185.975000000
 30
0.000000000
 11
955.600000000
 21
185.975000000
 31
0.000000000
  0
ARC
  5
AA5
330
A02
100
AcDbEntity
  8
SheetCutProfiles
100
AcDbCircle
 10
967.200000000
 20
183.975000000
 30
0.000000000
 40
2.000000000
100
AcDbArc
 50
0.000000000
 51
90.000000000
  0
LINE
  5
AA6
330
A02
100
AcDbEntity
  8
SheetCutProfiles
100
AcDbLine
 10
969.200000000
 20
183.975000000
 30
0.000000000
 11
969.200000000
 21
168.925000000
 31
0.000000000
  0
ARC
  5
AA7
330
A02
100
AcDbEntity
  8
SheetCutProfiles
100
AcDbCircle
 10
967.200000000
 20
168.925000000
 30
0.000000000
 40
2.000000000
100
AcDbArc
 50
-90.000000000
 51
0.000000000
  0
CIRCLE
  5
AA8
330
A02
100
AcDbEntity
  8
SheetCutProfiles
100
AcDbCircle
 10
807.666666667
 20
233.600000000
 30
0.000000000
 40
3.000000000
  0
CIRCLE
  5
AA9
330
A02
100
AcDbEntity
  8
SheetCutProfiles
100
AcDbCircle
 10
161.533333333
 20
233.600000000
 30
0.000000000
 40
3.000000000
  0
LINE
  5
AAA
330
A02
100
AcDbEntity
  8
SheetCutProfiles
100
AcDbLine
 10
987.800000000
 20
613.875000000
 30
0.000000000
 11
987.800000000
 21
521.525000000
 31
0.000000000
  0
LINE
  5
AAB
330
A02
100
AcDbEntity
  8
SheetCutProfiles
100
AcDbLine
 10
987.800000000
 20
613.875000000
 30
0.000000000
 11
976.200000000
 21
613.875000000
 31
0.000000000
  0
ARC
  5
AAC
330
A02
100
AcDbEntity
  8
SheetCutProfiles
100
AcDbCircle
 10
976.200000000
 20
615.875000000
 30
0.000000000
 40
2.000000000
100
AcDbArc
 50
180.000000000
 51
-90.000000000
  0
LINE
  5
AAD
330
A02
100
AcDbEntity
  8
SheetCutProfiles
100
AcDbLine
 10
974.200000000
 20
704.225000000
 30
0.000000000
 11
974.200000000
 21
615.875000000
 31
0.000000000
  0
ARC
  5
AAE
330
A02
100
AcDbEntity
  8
SheetCutProfiles
100
AcDbCircle
 10
976.200000000
 20
704.225000000
 30
0.000000000
 40
2.000000000
100
AcDbArc
 50
90.000000000
 51
180.000000000
  0
LINE
  5
AAF
330
A02
100
AcDbEntity
  8
SheetCutProfiles
100
AcDbLine
 10
976.200000000
 20
706.225000000
 30
0.000000000
 11
987.800000000
 21
706.225000000
 31
0.000000000
  0
LINE
  5
AB0
330
A02
100
AcDbEntity
  8
SheetCutProfiles
100
AcDbLine
 10
987.800000000
 20
752.400000000
 30
0.000000000
 11
987.800000000
 21
706.225000000
 31
0.000000000
  0
LINE
  5
AB1
330
A02
100
AcDbEntity
  8
SheetCutProfiles
100
AcDbLine
 10
997.325000000
 20
752.400000000
 30
0.000000000
 11
987.800000000
 21
752.400000000
 31
0.000000000
  0
LINE
  5
AB2
330
A02
100
AcDbEntity
  8
SheetCutProfiles
100
AcDbLine
 10
997.325000000
 20
752.400000000
 30
0.000000000
 11
997.325000000
 21
764.000000000
 31
0.000000000
  0
ARC
  5
AB3
330
A02
100
AcDbEntity
  8
SheetCutProfiles
100
AcDbCircle
 10
999.325000000
 20
764.000000000
 30
0.000000000
 40
2.000000000
100
AcDbArc
 50
90.000000000
 51
180.000000000
  0
LINE
  5
AB4
330
A02
100
AcDbEntity
  8
SheetCutProfiles
100
AcDbLine
 10
1014.375000000
 20
766.000000000
 30
0.000000000
 11
999.325000000
 21
766.000000000
 31
0.000000000
  0
ARC
  5
AB5
330
A02
100
AcDbEntity
  8
SheetCutProfiles
100
AcDbCircle
 10
1014.375000000
 20
764.000000000
 30
0.000000000
 40
2.000000000
100
AcDbArc
 50
0.000000000
 51
90.000000000
  0
LINE
  5
AB6
330
A02
100
AcDbEntity
  8
SheetCutProfiles
100
AcDbLine
 10
1016.375000000
 20
764.000000000
 30
0.000000000
 11
1016.375000000
 21
752.400000000
 31
0.000000000
  0
LINE
  5
AB7
330
A02
100
AcDbEntity
  8
SheetCutProfiles
100
AcDbLine
 10
1035.425000000
 20
752.400000000
 30
0.000000000
 11
1016.375000000
 21
752.400000000
 31
0.000000000
  0
LINE
  5
AB8
330
A02
100
AcDbEntity
  8
SheetCutProfiles
100
AcDbLine
 10
1035.425000000
 20
752.400000000
 30
0.000000000
 11
1035.425000000
 21
764.000000000
 31
0.000000000
  0
ARC
  5
AB9
330
A02
100
AcDbEntity
  8
SheetCutProfiles
100
AcDbCircle
 10
1037.425000000
 20
764.000000000
 30
0.000000000
 40
2.000000000
100
AcDbArc
 50
90.000000000
 51
180.000000000
  0
LINE
  5
ABA
330
A02
100
AcDbEntity
  8
SheetCutProfiles
100
AcDbLine
 10
1052.475000000
 20
766.000000000
 30
0.000000000
 11
1037.425000000
 21
766.000000000
 31
0.000000000
  0
ARC
  5
ABB
330
A02
100
AcDbEntity
  8
SheetCutProfiles
100
AcDbCircle
 10
1052.475000000
 20
764.000000000
 30
0.000000000
 40
2.000000000
100
AcDbArc
 50
0.000000000
 51
90.000000000
  0
LINE
  5
ABC
330
A02
100
AcDbEntity
  8
SheetCutProfiles
100
AcDbLine
 10
1054.475000000
 20
764.000000000
 30
0.000000000
 11
1054.475000000
 21
752.400000000
 31
0.000000000
  0
LINE
  5
ABD
330
A02
100
AcDbEntity
  8
SheetCutProfiles
100
AcDbLine
 10
1073.525000000
 20
752.400000000
 30
0.000000000
 11
1054.475000000
 21
752.400000000
 31
0.000000000
  0
LINE
  5
ABE
330
A02
100
AcDbEntity
  8
SheetCutProfiles
100
AcDbLine
 10
1073.525000000
 20
752.400000000
 30
0.000000000
 11
1073.525000000
 21
764.000000000
 31
0.000000000
  0
ARC
  5
ABF
330
A02
100
AcDbEntity
  8
SheetCutProfiles
100
AcDbCircle
 10
1075.525000000
 20
764.000000000
 30
0.000000000
 40
2.000000000
100
AcDbArc
 50
90.000000000
 51
180.000000000
  0
LINE
  5
AC0
330
A02
100
AcDbEntity
  8
SheetCutProfiles
100
AcDbLine
 10
1090.575000000
 20
766.000000000
 30
0.000000000
 11
1075.525000000
 21
766.000000000
 31
0.000000000
  0
ARC
  5
AC1
330
A02
100
AcDbEntity
  8
SheetCutProfiles
100
AcDbCircle
 10
1090.575000000
 20
764.000000000
 30
0.000000000
 40
2.000000000
100
AcDbArc
 50
0.000000000
 51
90.000000000
  0
LINE
  5
AC2
330
A02
100
AcDbEntity
  8
SheetCutProfiles
100
AcDbLine
 10
1092.575000000
 20
764.000000000
 30
0.000000000
 11
1092.575000000
 21
752.400000000
 31
0.000000000
  0
LINE
  5
AC3
330
A02
100
AcDbEntity
  8
SheetCutProfiles
100
AcDbLine
 10
1111.625000000
 20
752.400000000
 30
0.000000000
 11
1092.575000000
 21
752.400000000
 31
0.000000000
  0
LINE
  5
AC4
330
A02
100
AcDbEntity
  8
SheetCutProfiles
100
AcDbLine
 10
1111.625000000
 20
752.400000000
 30
0.000000000
 11
1111.625000000
 21
764.000000000
 31
0.000000000
  0
ARC
  5
AC5
330
A02
100
AcDbEntity
  8
SheetCutProfiles
100
AcDbCircle
 10
1113.625000000
 20
764.000000000
 30
0.000000000
 40
2.000000000
100
AcDbArc
 50
90.000000000
 51
180.000000000
  0
LINE
  5
AC6
330
A02
100
AcDbEntity
  8
SheetCutProfiles
100
AcDbLine
 10
1128.675000000
 20
766.000000000
 30
0.000000000
 11
1113.625000000
 21
766.000000000
 31
0.000000000
  0
ARC
  5
AC7
330
A02
100
AcDbEntity
  8
SheetCutProfiles
100
AcDbCircle
 10
1128.675000000
 20
764.000000000
 30
0.000000000
 40
2.000000000
100
AcDbArc
 50
0.000000000
 51
90.000000000
  0
LINE
  5
AC8
330
A02
100
AcDbEntity
  8
SheetCutProfiles
100
AcDbLine
 10
1130.675000000
 20
764.000000000
 30
0.000000000
 11
1130.675000000
 21
752.400000000
 31
0.000000000
  0
LINE
  5
AC9
330
A02
100
AcDbEntity
  8
SheetCutProfiles
100
AcDbLine
 10
1140.200000000
 20
752.400000000
 30
0.000000000
 11
1130.675000000
 21
752.400000000
 31
0.000000000
  0
LINE
  5
ACA
330
A02
100
AcDbEntity
  8
SheetCutProfiles
100
AcDbLine
 10
1140.200000000
 20
752.400000000
 30
0.000000000
 11
1140.200000000
 21
13.600000000
 31
0.000000000
  0
LINE
  5
ACB
330
A02
100
AcDbEntity
  8
SheetCutProfiles
100
AcDbLine
 10
1140.200000000
 20
13.600000000
 30
0.000000000
 11
1130.675000000
 21
13.600000000
 31
0.000000000
  0
LINE
  5
ACC
330
A02
100
AcDbEntity
  8
SheetCutProfiles
100
AcDbLine
 10
1130.675000000
 20
2.000000000
 30
0.000000000
 11
1130.675000000
 21
13.600000000
 31
0.000000000
  0
ARC
  5
ACD
330
A02
100
AcDbEntity
  8
SheetCutProfiles
100
AcDbCircle
 10
1128.675000000
 20
2.000000000
 30
0.000000000
 40
2.000000000
100
AcDbArc
 50
-90.000000000
 51
0.000000000
  0
LINE
  5
ACE
330
A02
100
AcDbEntity
  8
SheetCutProfiles
100
AcDbLine
 10
1128.675000000
 20
0.000000000
 30
0.000000000
 11
1113.625000000
 21
0.000000000
 31
0.000000000
  0
ARC
  5
ACF
330
A02
100
AcDbEntity
  8
SheetCutProfiles
100
AcDbCircle
 10
1113.625000000
 20
2.000000000
 30
0.000000000
 40
2.000000000
100
AcDbArc
 50
180.000000000
 51
-90.000000000
  0
LINE
  5
AD0
330
A02
100
AcDbEntity
  8
SheetCutProfiles
100
AcDbLine
 10
1111.625000000
 20
13.600000000
 30
0.000000000
 11
1111.625000000
 21
2.000000000
 31
0.000000000
  0
LINE
  5
AD1
330
A02
100
AcDbEntity
  8
SheetCutProfiles
100
AcDbLine
 10
1111.625000000
 20
13.600000000
 30
0.000000000
 11
1092.575000000
 21
13.600000000
 31
0.000000000
  0
LINE
  5
AD2
330
A02
100
AcDbEntity
  8
SheetCutProfiles
100
AcDbLine
 10
1092.575000000
 20
2.000000000
 30
0.000000000
 11
1092.575000000
 21
13.600000000
 31
0.000000000
  0
ARC
  5
AD3
330
A02
100
AcDbEntity
  8
SheetCutProfiles
100
AcDbCircle
 10
1090.575000000
 20
2.000000000
 30
0.000000000
 40
2.000000000
100
AcDbArc
 50
-90.000000000
 51
0.000000000
  0
LINE
  5
AD4
330
A02
100
AcDbEntity
  8
SheetCutProfiles
100
AcDbLine
 10
1090.575000000
 20
0.000000000
 30
0.000000000
 11
1075.525000000
 21
0.000000000
 31
0.000000000
  0
ARC
  5
AD5
330
A02
100
AcDbEntity
  8
SheetCutProfiles
100
AcDbCircle
 10
1075.525000000
 20
2.000000000
 30
0.000000000
 40
2.000000000
100
AcDbArc
 50
180.000000000
 51
-90.000000000
  0
LINE
  5
AD6
330
A02
100
AcDbEntity
  8
SheetCutProfiles
100
AcDbLine
 10
1073.525000000
 20
13.600000000
 30
0.000000000
 11
1073.525000000
 21
2.000000000
 31
0.000000000
  0
LINE
  5
AD7
330
A02
100
AcDbEntity
  8
SheetCutProfiles
100
AcDbLine
 10
1073.525000000
 20
13.600000000
 30
0.000000000
 11
1054.475000000
 21
13.600000000
 31
0.000000000
  0
LINE
  5
AD8
330
A02
100
AcDbEntity
  8
SheetCutProfiles
100
AcDbLine
 10
1054.475000000
 20
2.000000000
 30
0.000000000
 11
1054.475000000
 21
13.600000000
 31
0.000000000
  0
ARC
  5
AD9
330
A02
100
AcDbEntity
  8
SheetCutProfiles
100
AcDbCircle
 10
1052.475000000
 20
2.000000000
 30
0.000000000
 40
2.000000000
100
AcDbArc
 50
-90.000000000
 51
0.000000000
  0
LINE
  5
ADA
330
A02
100
AcDbEntity
  8
SheetCutProfiles
100
AcDbLine
 10
1052.475000000
 20
0.000000000
 30
0.000000000
 11
1037.425000000
 21
0.000000000
 31
0.000000000
  0
ARC
  5
ADB
330
A02
100
AcDbEntity
  8
SheetCutProfiles
100
AcDbCircle
 10
1037.425000000
 20
2.000000000
 30
0.000000000
 40
2.000000000
100
AcDbArc
 50
180.000000000
 51
-90.000000000
  0
LINE
  5
ADC
330
A02
100
AcDbEntity
  8
SheetCutProfiles
100
AcDbLine
 10
1035.425000000
 20
13.600000000
 30
0.000000000
 11
1035.425000000
 21
2.000000000
 31
0.000000000
  0
LINE
  5
ADD
330
A02
100
AcDbEntity
  8
SheetCutProfiles
100
AcDbLine
 10
1035.425000000
 20
13.600000000
 30
0.000000000
 11
1016.375000000
 21
13.600000000
 31
0.000000000
  0
LINE
  5
ADE
330
A02
100
AcDbEntity
  8
SheetCutProfiles
100
AcDbLine
 10
1016.375000000
 20
2.000000000
 30
0.000000000
 11
1016.375000000
 21
13.600000000
 31
0.000000000
  0
ARC
  5
ADF
330
A02
100
AcDbEntity
  8
SheetCutProfiles
100
AcDbCircle
 10
1014.375000000
 20
2.000000000
 30
0.000000000
 40
2.000000000
100
AcDbArc
 50
-90.000000000
 51
0.000000000
  0
LINE
  5
AE0
330
A02
100
AcDbEntity
  8
SheetCutProfiles
100
AcDbLine
 10
1014.375000000
 20
0.000000000
 30
0.000000000
 11
999.325000000
 21
0.000000000
 31
0.000000000
  0
ARC
  5
AE1
330
A02
100
AcDbEntity
  8
SheetCutProfiles
100
AcDbCircle
 10
999.325000000
 20
2.000000000
 30
0.000000000
 40
2.000000000
100
AcDbArc
 50
180.000000000
 51
-90.000000000
  0
LINE
  5
AE2
330
A02
100
AcDbEntity
  8
SheetCutProfiles
100
AcDbLine
 10
997.325000000
 20
13.600000000
 30
0.000000000
 11
997.325000000
 21
2.000000000
 31
0.000000000
  0
LINE
  5
AE3
330
A02
100
AcDbEntity
  8
SheetCutProfiles
100
AcDbLine
 10
997.325000000
 20
13.600000000
 30
0.000000000
 11
987.800000000
 21
13.600000000
 31
0.000000000
  0
LINE
  5
AE4
330
A02
100
AcDbEntity
  8
SheetCutProfiles
100
AcDbLine
 10
987.800000000
 20
59.775000000
 30
0.000000000
 11
987.800000000
 21
13.600000000
 31
0.000000000
  0
LINE
  5
AE5
330
A02
100
AcDbEntity
  8
SheetCutProfiles
100
AcDbLine
 10
987.800000000
 20
59.775000000
 30
0.000000000
 11
976.200000000
 21
59.775000000
 31
0.000000000
  0
ARC
  5
AE6
330
A02
100
AcDbEntity
  8
SheetCutProfiles
100
AcDbCircle
 10
976.200000000
 20
61.775000000
 30
0.000000000
 40
2.000000000
100
AcDbArc
 50
180.000000000
 51
-90.000000000
  0
LINE
  5
AE7
330
A02
100
AcDbEntity
  8
SheetCutProfiles
100
AcDbLine
 10
974.200000000
 20
150.125000000
 30
0.000000000
 11
974.200000000
 21
61.775000000
 31
0.000000000
  0
ARC
  5
AE8
330
A02
100
AcDbEntity
  8
SheetCutProfiles
100
AcDbCircle
 10
976.200000000
 20
150.125000000
 30
0.000000000
 40
2.000000000
100
AcDbArc
 50
90.000000000
 51
180.000000000
  0
LINE
  5
AE9
330
A02
100
AcDbEntity
  8
SheetCutProfiles
100
AcDbLine
 10
976.200000000
 20
152.125000000
 30
0.000000000
 11
987.800000000
 21
152.125000000
 31
0.000000000
  0
LINE
  5
AEA
330
A02
100
AcDbEntity
  8
SheetCutProfiles
100
AcDbLine
 10
987.800000000
 20
244.475000000
 30
0.000000000
 11
987.800000000
 21
152.125000000
 31
0.000000000
  0
LINE
  5
AEB
330
A02
100
AcDbEntity
  8
SheetCutProfiles
100
AcDbLine
 10
987.800000000
 20
244.475000000
 30
0.000000000
 11
976.200000000
 21
244.475000000
 31
0.000000000
  0
ARC
  5
AEC
330
A02
100
AcDbEntity
  8
SheetCutProfiles
100
AcDbCircle
 10
976.200000000
 20
246.475000000
 30
0.000000000
 40
2.000000000
100
AcDbArc
 50
180.000000000
 51
-90.000000000
  0
LINE
  5
AED
330
A02
100
AcDbEntity
  8
SheetCutProfiles
100
AcDbLine
 10
974.200000000
 20
334.825000000
 30
0.000000000
 11
974.200000000
 21
246.475000000
 31
0.000000000
  0
ARC
  5
AEE
330
A02
100
AcDbEntity
  8
SheetCutProfiles
100
AcDbCircle
 10
976.200000000
 20
334.825000000
 30
0.000000000
 40
2.000000000
100
AcDbArc
 50
90.000000000
 51
180.000000000
  0
LINE
  5
AEF
330
A02
100
AcDbEntity
  8
SheetCutProfiles
100
AcDbLine
 10
976.200000000
 20
336.825000000
 30
0.000000000
 11
987.800000000
 21
336.825000000
 31
0.000000000
  0
LINE
  5
AF0
330
A02
100
AcDbEntity
  8
SheetCutProfiles
100
AcDbLine
 10
987.800000000
 20
429.175000000
 30
0.000000000
 11
987.800000000
 21
336.825000000
 31
0.000000000
  0
LINE
  5
AF1
330
A02
100
AcDbEntity
  8
SheetCutProfiles
100
AcDbLine
 10
987.800000000
 20
429.175000000
 30
0.000000000
 11
976.200000000
 21
429.175000000
 31
0.000000000
  0
ARC
  5
AF2
330
A02
100
AcDbEntity
  8
SheetCutProfiles
100
AcDbCircle
 10
976.200000000
 20
431.175000000
 30
0.000000000
 40
2.000000000
100
AcDbArc
 50
180.000000000
 51
-90.000000000
  0
LINE
  5
AF3
330
A02
100
AcDbEntity
  8
SheetCutProfiles
100
AcDbLine
 10
974.200000000
 20
519.525000000
 30
0.000000000
 11
974.200000000
 21
431.175000000
 31
0.000000000
  0
ARC
  5
AF4
330
A02
100
AcDbEntity
  8
SheetCutProfiles
100
AcDbCircle
 10
976.200000000
 20
519.525000000
 30
0.000000000
 40
2.000000000
100
AcDbArc
 50
90.000000000
 51
180.000000000
  0
LINE
  5
AF5
330
A02
100
AcDbEntity
  8
SheetCutProfiles
100
AcDbLine
 10
976.200000000
 20
521.525000000
 30
0.000000000
 11
987.800000000
 21
521.525000000
 31
0.000000000
  0
CIRCLE
  5
AF6
330
A02
100
AcDbEntity
  8
SheetCutProfiles
100
AcDbCircle
 10
1057.200000000
 20
127.666666667
 30
0.000000000
 40
3.000000000
  0
CIRCLE
  5
AF7
330
A02
100
AcDbEntity
  8
SheetCutProfiles
100
AcDbCircle
 10
1057.200000000
 20
638.333333333
 30
0.000000000
 40
3.000000000
  0
LINE
  5
AF8
330
A02
100
AcDbEntity
  8
SheetCutProfiles
100
AcDbLine
 10
152.125000000
 20
624.600000000
 30
0.000000000
 11
244.475000000
 21
624.600000000
 31
0.000000000
  0
LINE
  5
AF9
330
A02
100
AcDbEntity
  8
SheetCutProfiles
100
AcDbLine
 10
152.125000000
 20
624.600000000
 30
0.000000000
 11
152.125000000
 21
636.200000000
 31
0.000000000
  0
ARC
  5
AFA
330
A02
100
AcDbEntity
  8
SheetCutProfiles
100
AcDbCircle
 10
150.125000000
 20
636.200000000
 30
0.000000000
 40
2.000000000
100
AcDbArc
 50
0.000000000
 51
90.000000000
  0
LINE
  5
AFB
330
A02
100
AcDbEntity
  8
SheetCutProfiles
100
AcDbLine
 10
61.775000000
 20
638.200000000
 30
0.000000000
 11
150.125000000
 21
638.200000000
 31
0.000000000
  0
ARC
  5
AFC
330
A02
100
AcDbEntity
  8
SheetCutProfiles
100
AcDbCircle
 10
61.775000000
 20
636.200000000
 30
0.000000000
 40
2.000000000
100
AcDbArc
 50
90.000000000
 51
180.000000000
  0
LINE
  5
AFD
330
A02
100
AcDbEntity
  8
SheetCutProfiles
100
AcDbLine
 10
59.775000000
 20
636.200000000
 30
0.000000000
 11
59.775000000
 21
624.600000000
 31
0.000000000
  0
LINE
  5
AFE
330
A02
100
AcDbEntity
  8
SheetCutProfiles
100
AcDbLine
 10
13.600000000
 20
624.600000000
 30
0.000000000
 11
59.775000000
 21
624.600000000
 31
0.000000000
  0
LINE
  5
AFF
330
A02
100
AcDbEntity
  8
SheetCutProfiles
100
AcDbLine
 10
13.600000000
 20
615.075000000
 30
0.000000000
 11
13.600000000
 21
624.600000000
 31
0.000000000
  0
LINE
  5
B00
330
A02
100
AcDbEntity
  8
SheetCutProfiles
100
AcDbLine
 10
13.600000000
 20
615.075000000
 30
0.000000000
 11
2.000000000
 21
615.075000000
 31
0.000000000
  0
ARC
  5
B01
330
A02
100
AcDbEntity
  8
SheetCutProfiles
100
AcDbCircle
 10
2.000000000
 20
613.075000000
 30
0.000000000
 40
2.000000000
100
AcDbArc
 50
90.000000000
 51
180.000000000
  0
LINE
  5
B02
330
A02
100
AcDbEntity
  8
SheetCutProfiles
100
AcDbLine
 10
0.000000000
 20
598.025000000
 30
0.000000000
 11
0.000000000
 21
613.075000000
 31
0.000000000
  0
ARC
  5
B03
330
A02
100
AcDbEntity
  8
SheetCutProfiles
100
AcDbCircle
 10
2.000000000
 20
598.025000000
 30
0.000000000
 40
2.000000000
100
AcDbArc
 50
180.000000000
 51
-90.000000000
  0
LINE
  5
B04
330
A02
100
AcDbEntity
  8
SheetCutProfiles
100
AcDbLine
 10
2.000000000
 20
596.025000000
 30
0.000000000
 11
13.600000000
 21
596.025000000
 31
0.000000000
  0
LINE
  5
B05
330
A02
100
AcDbEntity
  8
SheetCutProfiles
100
AcDbLine
 10
13.600000000
 20
576.975000000
 30
0.000000000
 11
13.600000000
 21
596.025000000
 31
0.000000000
  0
LINE
  5
B06
330
A02
100
AcDbEntity
  8
SheetCutProfiles
100
AcDbLine
 10
13.600000000
 20
576.975000000
 30
0.000000000
 11
2.000000000
 21
576.975000000
 31
0.000000000
  0
ARC
  5
B07
330
A02
100
AcDbEntity
  8
SheetCutProfiles
100
AcDbCircle
 10
2.000000000
 20
574.975000000
 30
0.000000000
 40
2.000000000
100
AcDbArc
 50
90.000000000
 51
180.000000000
  0
LINE
  5
B08
330
A02
100
AcDbEntity
  8
SheetCutProfiles
100
AcDbLine
 10
0.000000000
 20
559.925000000
 30
0.000000000
 11
0.000000000
 21
574.975000000
 31
0.000000000
  0
ARC
  5
B09
330
A02
100
AcDbEntity
  8
SheetCutProfiles
100
AcDbCircle
 10
2.000000000
 20
559.925000000
 30
0.000000000
 40
2.000000000
100
AcDbArc
 50
180.000000000
 51
-90.000000000
  0
LINE
  5
B0A
330
A02
100
AcDbEntity
  8
SheetCutProfiles
100
AcDbLine
 10
2.000000000
 20
557.925000000
 30
0.000000000
 11
13.600000000
 21
557.925000000
 31
0.000000000
  0
LINE
  5
B0B
330
A02
100
AcDbEntity
  8
SheetCutProfiles
100
AcDbLine
 10
13.600000000
 20
538.875000000
 30
0.000000000
 11
13.600000000
 21
557.925000000
 31
0.000000000
  0
LINE
  5
B0C
330
A02
100
AcDbEntity
  8
SheetCutProfiles
100
AcDbLine
 10
13.600000000
 20
538.875000000
 30
0.000000000
 11
2.000000000
 21
538.875000000
 31
0.000000000
  0
ARC
  5
B0D
330
A02
100
AcDbEntity
  8
SheetCutProfiles
100
AcDbCircle
 10
2.000000000
 20
536.875000000
 30
0.000000000
 40
2.000000000
100
AcDbArc
 50
90.000000000
 51
180.000000000
  0
LINE
  5
B0E
330
A02
100
AcDbEntity
  8
SheetCutProfiles
100
AcDbLine
 10
0.000000000
 20
521.825000000
 30
0.000000000
 11
0.000000000
 21
536.875000000
 31
0.000000000
  0
ARC
  5
B0F
330
A02
100
AcDbEntity
  8
SheetCutProfiles
100
AcDbCircle
 10
2.000000000
 20
521.825000000
 30
0.000000000
 40
2.000000000
100
AcDbArc
 50
180.000000000
 51
-90.000000000
  0
LINE
  5
B10
330
A02
100
AcDbEntity
  8
SheetCutProfiles
100
AcDbLine
 10
2.000000000
 20
519.825000000
 30
0.000000000
 11
13.600000000
 21
519.825000000
 31
0.000000000
  0
LINE
  5
B11
330
A02
100
AcDbEntity
  8
SheetCutProfiles
100
AcDbLine
 10
13.600000000
 20
500.775000000
 30
0.000000000
 11
13.600000000
 21
519.825000000
 31
0.000000000
  0
LINE
  5
B12
330
A02
100
AcDbEntity
  8
SheetCutProfiles
100
AcDbLine
 10
13.600000000
 20
500.775000000
 30
0.000000000
 11
2.000000000
 21
500.775000000
 31
0.000000000
  0
ARC
  5
B13
330
A02
100
AcDbEntity
  8
SheetCutProfiles
100
AcDbCircle
 10
2.000000000
 20
498.775000000
 30
0.000000000
 40
2.000000000
100
AcDbArc
 50
90.000000000
 51
180.000000000
  0
LINE
  5
B14
330
A02
100
AcDbEntity
  8
SheetCutProfiles
100
AcDbLine
 10
0.000000000
 20
483.725000000
 30
0.000000000
 11
0.000000000
 21
498.775000000
 31
0.000000000
  0
ARC
  5
B15
330
A02
100
AcDbEntity
  8
SheetCutProfiles
100
AcDbCircle
 10
2.000000000
 20
483.725000000
 30
0.000000000
 40
2.000000000
100
AcDbArc
 50
180.000000000
 51
-90.000000000
  0
LINE
  5
B16
330
A02
100
AcDbEntity
  8
SheetCutProfiles
100
AcDbLine
 10
2.000000000
 20
481.725000000
 30
0.000000000
 11
13.600000000
 21
481.725000000
 31
0.000000000
  0
LINE
  5
B17
330
A02
100
AcDbEntity
  8
SheetCutProfiles
100
AcDbLine
 10
13.600000000
 20
472.200000000
 30
0.000000000
 11
13.600000000
 21
481.725000000
 31
0.000000000
  0
LINE
  5
B18
330
A02
100
AcDbEntity
  8
SheetCutProfiles
100
AcDbLine
 10
13.600000000
 20
472.200000000
 30
0.000000000
 11
752.400000000
 21
472.200000000
 31
0.000000000
  0
LINE
  5
B19
330
A02
100
AcDbEntity
  8
SheetCutProfiles
100
AcDbLine
 10
752.400000000
 20
472.200000000
 30
0.000000000
 11
752.400000000
 21
481.725000000
 31
0.000000000
  0
LINE
  5
B1A
330
A02
100
AcDbEntity
  8
SheetCutProfiles
100
AcDbLine
 10
764.000000000
 20
481.725000000
 30
0.000000000
 11
752.400000000
 21
481.725000000
 31
0.000000000
  0
ARC
  5
B1B
330
A02
100
AcDbEntity
  8
SheetCutProfiles
100
AcDbCircle
 10
764.000000000
 20
483.725000000
 30
0.000000000
 40
2.000000000
100
AcDbArc
 50
-90.000000000
 51
0.000000000
  0
LINE
  5
B1C
330
A02
100
AcDbEntity
  8
SheetCutProfiles
100
AcDbLine
 10
766.000000000
 20
483.725000000
 30
0.000000000
 11
766.000000000
 21
498.775000000
 31
0.000000000
  0
ARC
  5
B1D
330
A02
100
AcDbEntity
  8
SheetCutProfiles
100
AcDbCircle
 10
764.000000000
 20
498.775000000
 30
0.000000000
 40
2.000000000
100
AcDbArc
 50
0.000000000
 51
90.000000000
  0
LINE
  5
B1E
330
A02
100
AcDbEntity
  8
SheetCutProfiles
100
AcDbLine
 10
752.400000000
 20
500.775000000
 30
0.000000000
 11
764.000000000
 21
500.775000000
 31
0.000000000
  0
LINE
  5
B1F
330
A02
100
AcDbEntity
  8
SheetCutProfiles
100
AcDbLine
 10
752.400000000
 20
500.775000000
 30
0.000000000
 11
752.400000000
 21
519.825000000
 31
0.000000000
  0
LINE
  5
B20
330
A02
100
AcDbEntity
  8
SheetCutProfiles
100
AcDbLine
 10
764.000000000
 20
519.825000000
 30
0.000000000
 11
752.400000000
 21
519.825000000
 31
0.000000000
  0
ARC
  5
B21
330
A02
100
AcDbEntity
  8
SheetCutProfiles
100
AcDbCircle
 10
764.000000000
 20
521.825000000
 30
0.000000000
 40
2.000000000
100
AcDbArc
 50
-90.000000000
 51
0.000000000
  0
LINE
  5
B22
330
A02
100
AcDbEntity
  8
SheetCutProfiles
100
AcDbLine
 10
766.000000000
 20
521.825000000
 30
0.000000000
 11
766.000000000
 21
536.875000000
 31
0.000000000
  0
ARC
  5
B23
330
A02
100
AcDbEntity
  8
SheetCutProfiles
100
AcDbCircle
 10
764.000000000
 20
536.875000000
 30
0.000000000
 40
2.000000000
100
AcDbArc
 50
0.000000000
 51
90.000000000
  0
LINE
  5
B24
330
A02
100
AcDbEntity
  8
SheetCutProfiles
100
AcDbLine
 10
752.400000000
 20
538.875000000
 30
0.000000000
 11
764.000000000
 21
538.875000000
 31
0.000000000
  0
LINE
  5
B25
330
A02
100
AcDbEntity
  8
SheetCutProfiles
100
AcDbLine
 10
752.400000000
 20
538.875000000
 30
0.000000000
 11
752.400000000
 21
557.925000000
 31
0.000000000
  0
LINE
  5
B26
330
A02
100
AcDbEntity
  8
SheetCutProfiles
100
AcDbLine
 10
764.000000000
 20
557.925000000
 30
0.000000000
 11
752.400000000
 21
557.925000000
 31
0.000000000
  0
ARC
  5
B27
330
A02
100
AcDbEntity
  8
SheetCutProfiles
100
AcDbCircle
 10
764.000000000
 20
559.925000000
 30
0.000000000
 40
2.000000000
100
AcDbArc
 50
-90.000000000
 51
0.000000000
  0
LINE
  5
B28
330
A02
100
AcDbEntity
  8
SheetCutProfiles
100
AcDbLine
 10
766.000000000
 20
559.925000000
 30
0.000000000
 11
766.000000000
 21
574.975000000
 31
0.000000000
  0
ARC
  5
B29
330
A02
100
AcDbEntity
  8
SheetCutProfiles
100
AcDbCircle
 10
764.000000000
 20
574.975000000
 30
0.000000000
 40
2.000000000
100
AcDbArc
 50
0.000000000
 51
90.000000000
  0
LINE
  5
B2A
330
A02
100
AcDbEntity
  8
SheetCutProfiles
100
AcDbLine
 10
752.400000000
 20
576.975000000
 30
0.000000000
 11
764.000000000
 21
576.975000000
 31
0.000000000
  0
LINE
  5
B2B
330
A02
100
AcDbEntity
  8
SheetCutProfiles
100
AcDbLine
 10
752.400000000
 20
576.975000000
 30
0.000000000
 11
752.400000000
 21
596.025000000
 31
0.000000000
  0
LINE
  5
B2C
330
A02
100
AcDbEntity
  8
SheetCutProfiles
100
AcDbLine
 10
764.000000000
 20
596.025000000
 30
0.000000000
 11
752.400000000
 21
596.025000000
 31
0.000000000
  0
ARC
  5
B2D
330
A02
100
AcDbEntity
  8
SheetCutProfiles
100
AcDbCircle
 10
764.000000000
 20
598.025000000
 30
0.000000000
 40
2.000000000
100
AcDbArc
 50
-90.000000000
 51
0.000000000
  0
LINE
  5
B2E
330
A02
100
AcDbEntity
  8
SheetCutProfiles
100
AcDbLine
 10
766.000000000
 20
598.025000000
 30
0.000000000
 11
766.000000000
 21
613.075000000
 31
0.000000000
  0
ARC
  5
B2F
330
A02
100
AcDbEntity
  8
SheetCutProfiles
100
AcDbCircle
 10
764.000000000
 20
613.075000000
 30
0.000000000
 40
2.000000000
100
AcDbArc
 50
0.000000000
 51
90.000000000
  0
LINE
  5
B30
330
A02
100
AcDbEntity
  8
SheetCutProfiles
100
AcDbLine
 10
752.400000000
 20
615.075000000
 30
0.000000000
 11
764.000000000
 21
615.075000000
 31
0.000000000
  0
LINE
  5
B31
330
A02
100
AcDbEntity
  8
SheetCutProfiles
100
AcDbLine
 10
752.400000000
 20
615.075000000
 30
0.000000000
 11
752.400000000
 21
624.600000000
 31
0.000000000
  0
LINE
  5
B32
330
A02
100
AcDbEntity
  8
SheetCutProfiles
100
AcDbLine
 10
706.225000000
 20
624.600000000
 30
0.000000000
 11
752.400000000
 21
624.600000000
 31
0.000000000
  0
LINE
  5
B33
330
A02
100
AcDbEntity
  8
SheetCutProfiles
100
AcDbLine
 10
706.225000000
 20
624.600000000
 30
0.000000000
 11
706.225000000
 21
636.200000000
 31
0.000000000
  0
ARC
  5
B34
330
A02
100
AcDbEntity
  8
SheetCutProfiles
100
AcDbCircle
 10
704.225000000
 20
636.200000000
 30
0.000000000
 40
2.000000000
100
AcDbArc
 50
0.000000000
 51
90.000000000
  0
LINE
  5
B35
330
A02
100
AcDbEntity
  8
SheetCutProfiles
100
AcDbLine
 10
615.875000000
 20
638.200000000
 30
0.000000000
 11
704.225000000
 21
638.200000000
 31
0.000000000
  0
ARC
  5
B36
330
A02
100
AcDbEntity
  8
SheetCutProfiles
100
AcDbCircle
 10
615.875000000
 20
636.200000000
 30
0.000000000
 40
2.000000000
100
AcDbArc
 50
90.000000000
 51
180.000000000
  0
LINE
  5
B37
330
A02
100
AcDbEntity
  8
SheetCutProfiles
100
AcDbLine
 10
613.875000000
 20
636.200000000
 30
0.000000000
 11
613.875000000
 21
624.600000000
 31
0.000000000
  0
LINE
  5
B38
330
A02
100
AcDbEntity
  8
SheetCutProfiles
100
AcDbLine
 10
521.525000000
 20
624.600000000
 30
0.000000000
 11
613.875000000
 21
624.600000000
 31
0.000000000
  0
LINE
  5
B39
330
A02
100
AcDbEntity
  8
SheetCutProfiles
100
AcDbLine
 10
521.525000000
 20
624.600000000
 30
0.000000000
 11
521.525000000
 21
636.200000000
 31
0.000000000
  0
ARC
  5
B3A
330
A02
100
AcDbEntity
  8
SheetCutProfiles
100
AcDbCircle
 10
519.525000000
 20
636.200000000
 30
0.000000000
 40
2.000000000
100
AcDbArc
 50
0.000000000
 51
90.000000000
  0
LINE
  5
B3B
330
A02
100
AcDbEntity
  8
SheetCutProfiles
100
AcDbLine
 10
431.175000000
 20
638.200000000
 30
0.000000000
 11
519.525000000
 21
638.200000000
 31
0.000000000
  0
ARC
  5
B3C
330
A02
100
AcDbEntity
  8
SheetCutProfiles
100
AcDbCircle
 10
431.175000000
 20
636.200000000
 30
0.000000000
 40
2.000000000
100
AcDbArc
 50
90.000000000
 51
180.000000000
  0
LINE
  5
B3D
330
A02
100
AcDbEntity
  8
SheetCutProfiles
100
AcDbLine
 10
429.175000000
 20
636.200000000
 30
0.000000000
 11
429.175000000
 21
624.600000000
 31
0.000000000
  0
LINE
  5
B3E
330
A02
100
AcDbEntity
  8
SheetCutProfiles
100
AcDbLine
 10
336.825000000
 20
624.600000000
 30
0.000000000
 11
429.175000000
 21
624.600000000
 31
0.000000000
  0
LINE
  5
B3F
330
A02
100
AcDbEntity
  8
SheetCutProfiles
100
AcDbLine
 10
336.825000000
 20
624.600000000
 30
0.000000000
 11
336.825000000
 21
636.200000000
 31
0.000000000
  0
ARC
  5
B40
330
A02
100
AcDbEntity
  8
SheetCutProfiles
100
AcDbCircle
 10
334.825000000
 20
636.200000000
 30
0.000000000
 40
2.000000000
100
AcDbArc
 50
0.000000000
 51
90.000000000
  0
LINE
  5
B41
330
A02
100
AcDbEntity
  8
SheetCutProfiles
100
AcDbLine
 10
246.475000000
 20
638.200000000
 30
0.000000000
 11
334.825000000
 21
638.200000000
 31
0.000000000
  0
ARC
  5
B42
330
A02
100
AcDbEntity
  8
SheetCutProfiles
100
AcDbCircle
 10
246.475000000
 20
636.200000000
 30
0.000000000
 40
2.000000000
100
AcDbArc
 50
90.000000000
 51
180.000000000
  0
LINE
  5
B43
330
A02
100
AcDbEntity
  8
SheetCutProfiles
100
AcDbLine
 10
244.475000000
 20
636.200000000
 30
0.000000000
 11
244.475000000
 21
624.600000000
 31
0.000000000
  0
CIRCLE
  5
B44
330
A02
100
AcDbEntity
  8
SheetCutProfiles
100
AcDbCircle
 10
638.333333333
 20
555.200000000
 30
0.000000000
 40
3.000000000
  0
CIRCLE
  5
B45
330
A02
100
AcDbEntity
  8
SheetCutProfiles
100
AcDbCircle
 10
127.666666667
 20
555.200000000
 30
0.000000000
 40
3.000000000
  0
LINE
  5
B46
330
A02
100
AcDbEntity
  8
SheetCutProfiles
100
AcDbLine
 10
955.600000000
 20
711.950000000
 30
0.000000000
 11
967.200000000
 21
711.950000000
 31
0.000000000
  0
LINE
  5
B47
330
A02
100
AcDbEntity
  8
SheetCutProfiles
100
AcDbLine
 10
955.600000000
 20
711.950000000
 30
0.000000000
 11
955.600000000
 21
724.450000000
 31
0.000000000
  0
LINE
  5
B48
330
A02
100
AcDbEntity
  8
SheetCutProfiles
100
AcDbLine
 10
967.200000000
 20
724.450000000
 30
0.000000000
 11
955.600000000
 21
724.450000000
 31
0.000000000
  0
ARC
  5
B49
330
A02
100
AcDbEntity
  8
SheetCutProfiles
100
AcDbCircle
 10
967.200000000
 20
726.450000000
 30
0.000000000
 40
2.000000000
100
AcDbArc
 50
-90.000000000
 51
0.000000000
  0
LINE
  5
B4A
330
A02
100
AcDbEntity
  8
SheetCutProfiles
100
AcDbLine
 10
969.200000000
 20
726.450000000
 30
0.000000000
 11
969.200000000
 21
734.950000000
 31
0.000000000
  0
ARC
  5
B4B
330
A02
100
AcDbEntity
  8
SheetCutProfiles
100
AcDbCircle
 10
967.200000000
 20
734.950000000
 30
0.000000000
 40
2.000000000
100
AcDbArc
 50
0.000000000
 51
90.000000000
  0
LINE
  5
B4C
330
A02
100
AcDbEntity
  8
SheetCutProfiles
100
AcDbLine
 10
955.600000000
 20
736.950000000
 30
0.000000000
 11
967.200000000
 21
736.950000000
 31
0.000000000
  0
LINE
  5
B4D
330
A02
100
AcDbEntity
  8
SheetCutProfiles
100
AcDbLine
 10
955.600000000
 20
736.950000000
 30
0.000000000
 11
955.600000000
 21
743.200000000
 31
0.000000000
  0
LINE
  5
B4E
330
A02
100
AcDbEntity
  8
SheetCutProfiles
100
AcDbLine
 10
896.725000000
 20
743.200000000
 30
0.000000000
 11
955.600000000
 21
743.200000000
 31
0.000000000
  0
LINE
  5
B4F
330
A02
100
AcDbEntity
  8
SheetCutProfiles
100
AcDbLine
 10
896.725000000
 20
743.200000000
 30
0.000000000
 11
896.725000000
 21
754.800000000
 31
0.000000000
  0
ARC
  5
B50
330
A02
100
AcDbEntity
  8
SheetCutProfiles
100
AcDbCircle
 10
894.725000000
 20
754.800000000
 30
0.000000000
 40
2.000000000
100
AcDbArc
 50
0.000000000
 51
90.000000000
  0
LINE
  5
B51
330
A02
100
AcDbEntity
  8
SheetCutProfiles
100
AcDbLine
 10
780.975000000
 20
756.800000000
 30
0.000000000
 11
894.725000000
 21
756.800000000
 31
0.000000000
  0
ARC
  5
B52
330
A02
100
AcDbEntity
  8
SheetCutProfiles
100
AcDbCircle
 10
780.975000000
 20
754.800000000
 30
0.000000000
 40
2.000000000
100
AcDbArc
 50
90.000000000
 51
180.000000000
  0
LINE
  5
B53
330
A02
100
AcDbEntity
  8
SheetCutProfiles
100
AcDbLine
 10
778.975000000
 20
754.800000000
 30
0.000000000
 11
778.975000000
 21
743.200000000
 31
0.000000000
  0
LINE
  5
B54
330
A02
100
AcDbEntity
  8
SheetCutProfiles
100
AcDbLine
 10
661.225000000
 20
743.200000000
 30
0.000000000
 11
778.975000000
 21
743.200000000
 31
0.000000000
  0
LINE
  5
B55
330
A02
100
AcDbEntity
  8
SheetCutProfiles
100
AcDbLine
 10
661.225000000
 20
743.200000000
 30
0.000000000
 11
661.225000000
 21
754.800000000
 31
0.000000000
  0
ARC
  5
B56
330
A02
100
AcDbEntity
  8
SheetCutProfiles
100
AcDbCircle
 10
659.225000000
 20
754.800000000
 30
0.000000000
 40
2.000000000
100
AcDbArc
 50
0.000000000
 51
90.000000000
  0
LINE
  5
B57
330
A02
100
AcDbEntity
  8
SheetCutProfiles
100
AcDbLine
 10
545.475000000
 20
756.800000000
 30
0.000000000
 11
659.225000000
 21
756.800000000
 31
0.000000000
  0
ARC
  5
B58
330
A02
100
AcDbEntity
  8
SheetCutProfiles
100
AcDbCircle
 10
545.475000000
 20
754.800000000
 30
0.000000000
 40
2.000000000
100
AcDbArc
 50
90.000000000
 51
180.000000000
  0
LINE
  5
B59
330
A02
100
AcDbEntity
  8
SheetCutProfiles
100
AcDbLine
 10
543.475000000
 20
754.800000000
 30
0.000000000
 11
543.475000000
 21
743.200000000
 31
0.000000000
  0
LINE
  5
B5A
330
A02
100
AcDbEntity
  8
SheetCutProfiles
100
AcDbLine
 10
425.725000000
 20
743.200000000
 30
0.000000000
 11
543.475000000
 21
743.200000000
 31
0.000000000
  0
LINE
  5
B5B
330
A02
100
AcDbEntity
  8
SheetCutProfiles
100
AcDbLine
 10
425.725000000
 20
743.200000000
 30
0.000000000
 11
425.725000000
 21
754.800000000
 31
0.000000000
  0
ARC
  5
B5C
330
A02
100
AcDbEntity
  8
SheetCutProfiles
100
AcDbCircle
 10
423.725000000
 20
754.800000000
 30
0.000000000
 40
2.000000000
100
AcDbArc
 50
0.000000000
 51
90.000000000
  0
LINE
  5
B5D
330
A02
100
AcDbEntity
  8
SheetCutProfiles
100
AcDbLine
 10
309.975000000
 20
756.800000000
 30
0.000000000
 11
423.725000000
 21
756.800000000
 31
0.000000000
  0
ARC
  5
B5E
330
A02
100
AcDbEntity
  8
SheetCutProfiles
100
AcDbCircle
 10
309.975000000
 20
754.800000000
 30
0.000000000
 40
2.000000000
100
AcDbArc
 50
90.000000000
 51
180.000000000
  0
LINE
  5
B5F
330
A02
100
AcDbEntity
  8
SheetCutProfiles
100
AcDbLine
 10
307.975000000
 20
754.800000000
 30
0.000000000
 11
307.975000000
 21
743.200000000
 31
0.000000000
  0
LINE
  5
B60
330
A02
100
AcDbEntity
  8
SheetCutProfiles
100
AcDbLine
 10
190.225000000
 20
743.200000000
 30
0.000000000
 11
307.975000000
 21
743.200000000
 31
0.000000000
  0
LINE
  5
B61
330
A02
100
AcDbEntity
  8
SheetCutProfiles
100
AcDbLine
 10
190.225000000
 20
743.200000000
 30
0.000000000
 11
190.225000000
 21
754.800000000
 31
0.000000000
  0
ARC
  5
B62
330
A02
100
AcDbEntity
  8
SheetCutProfiles
100
AcDbCircle
 10
188.225000000
 20
754.800000000
 30
0.000000000
 40
2.000000000
100
AcDbArc
 50
0.000000000
 51
90.000000000
  0
LINE
  5
B63
330
A02
100
AcDbEntity
  8
SheetCutProfiles
100
AcDbLine
 10
74.475000000
 20
756.800000000
 30
0.000000000
 11
188.225000000
 21
756.800000000
 31
0.000000000
  0
ARC
  5
B64
330
A02
100
AcDbEntity
  8
SheetCutProfiles
100
AcDbCircle
 10
74.475000000
 20
754.800000000
 30
0.000000000
 40
2.000000000
100
AcDbArc
 50
90.000000000
 51
180.000000000
  0
LINE
  5
B65
330
A02
100
AcDbEntity
  8
SheetCutProfiles
100
AcDbLine
 10
72.475000000
 20
754.800000000
 30
0.000000000
 11
72.475000000
 21
743.200000000
 31
0.000000000
  0
LINE
  5
B66
330
A02
100
AcDbEntity
  8
SheetCutProfiles
100
AcDbLine
 10
13.600000000
 20
743.200000000
 30
0.000000000
 11
72.475000000
 21
743.200000000
 31
0.000000000
  0
LINE
  5
B67
330
A02
100
AcDbEntity
  8
SheetCutProfiles
100
AcDbLine
 10
13.600000000
 20
736.950000000
 30
0.000000000
 11
13.600000000
 21
743.200000000
 31
0.000000000
  0
LINE
  5
B68
330
A02
100
AcDbEntity
  8
SheetCutProfiles
100
AcDbLine
 10
13.600000000
 20
736.950000000
 30
0.000000000
 11
2.000000000
 21
736.950000000
 31
0.000000000
  0
ARC
  5
B69
330
A02
100
AcDbEntity
  8
SheetCutProfiles
100
AcDbCircle
 10
2.000000000
 20
734.950000000
 30
0.000000000
 40
2.000000000
100
AcDbArc
 50
90.000000000
 51
180.000000000
  0
LINE
  5
B6A
330
A02
100
AcDbEntity
  8
SheetCutProfiles
100
AcDbLine
 10
0.000000000
 20
726.450000000
 30
0.000000000
 11
0.000000000
 21
734.950000000
 31
0.000000000
  0
ARC
  5
B6B
330
A02
100
AcDbEntity
  8
SheetCutProfiles
100
AcDbCircle
 10
2.000000000
 20
726.450000000
 30
0.000000000
 40
2.000000000
100
AcDbArc
 50
180.000000000
 51
-90.000000000
  0
LINE
  5
B6C
330
A02
100
AcDbEntity
  8
SheetCutProfiles
100
AcDbLine
 10
2.000000000
 20
724.450000000
 30
0.000000000
 11
13.600000000
 21
724.450000000
 31
0.000000000
  0
LINE
  5
B6D
330
A02
100
AcDbEntity
  8
SheetCutProfiles
100
AcDbLine
 10
13.600000000
 20
711.950000000
 30
0.000000000
 11
13.600000000
 21
724.450000000
 31
0.000000000
  0
LINE
  5
B6E
330
A02
100
AcDbEntity
  8
SheetCutProfiles
100
AcDbLine
 10
13.600000000
 20
711.950000000
 30
0.000000000
 11
2.000000000
 21
711.950000000
 31
0.000000000
  0
ARC
  5
B6F
330
A02
100
AcDbEntity
  8
SheetCutProfiles
100
AcDbCircle
 10
2.000000000
 20
709.950000000
 30
0.000000000
 40
2.000000000
100
AcDbArc
 50
90.000000000
 51
180.000000000
  0
LINE
  5
B70
330
A02
100
AcDbEntity
  8
SheetCutProfiles
100
AcDbLine
 10
0.000000000
 20
701.450000000
 30
0.000000000
 11
0.000000000
 21
709.950000000
 31
0.000000000
  0
ARC
  5
B71
330
A02
100
AcDbEntity
  8
SheetCutProfiles
100
AcDbCircle
 10
2.000000000
 20
701.450000000
 30
0.000000000
 40
2.000000000
100
AcDbArc
 50
180.000000000
 51
-90.000000000
  0
LINE
  5
B72
330
A02
100
AcDbEntity
  8
SheetCutProfiles
100
AcDbLine
 10
2.000000000
 20
699.450000000
 30
0.000000000
 11
13.600000000
 21
699.450000000
 31
0.000000000
  0
LINE
  5
B73
330
A02
100
AcDbEntity
  8
SheetCutProfiles
100
AcDbLine
 10
13.600000000
 20
686.950000000
 30
0.000000000
 11
13.600000000
 21
699.450000000
 31
0.000000000
  0
LINE
  5
B74
330
A02
100
AcDbEntity
  8
SheetCutProfiles
100
AcDbLine
 10
13.600000000
 20
686.950000000
 30
0.000000000
 11
2.000000000
 21
686.950000000
 31
0.000000000
  0
ARC
  5
B75
330
A02
100
AcDbEntity
  8
SheetCutProfiles
100
AcDbCircle
 10
2.000000000
 20
684.950000000
 30
0.000000000
 40
2.000000000
100
AcDbArc
 50
90.000000000
 51
180.000000000
  0
LINE
  5
B76
330
A02
100
AcDbEntity
  8
SheetCutProfiles
100
AcDbLine
 10
0.000000000
 20
676.450000000
 30
0.000000000
 11
0.000000000
 21
684.950000000
 31
0.000000000
  0
ARC
  5
B77
330
A02
100
AcDbEntity
  8
SheetCutProfiles
100
AcDbCircle
 10
2.000000000
 20
676.450000000
 30
0.000000000
 40
2.000000000
100
AcDbArc
 50
180.000000000
 51
-90.000000000
  0
LINE
  5
B78
330
A02
100
AcDbEntity
  8
SheetCutProfiles
100
AcDbLine
 10
2.000000000
 20
674.450000000
 30
0.000000000
 11
13.600000000
 21
674.450000000
 31
0.000000000
  0
LINE
  5
B79
330
A02
100
AcDbEntity
  8
SheetCutProfiles
100
AcDbLine
 10
13.600000000
 20
661.950000000
 30
0.000000000
 11
13.600000000
 21
674.450000000
 31
0.000000000
  0
LINE
  5
B7A
330
A02
100
AcDbEntity
  8
SheetCutProfiles
100
AcDbLine
 10
13.600000000
 20
661.950000000
 30
0.000000000
 11
2.000000000
 21
661.950000000
 31
0.000000000
  0
ARC
  5
B7B
330
A02
100
AcDbEntity
  8
SheetCutProfiles
100
AcDbCircle
 10
2.000000000
 20
659.950000000
 30
0.000000000
 40
2.000000000
100
AcDbArc
 50
90.000000000
 51
180.000000000
  0
LINE
  5
B7C
330
A02
100
AcDbEntity
  8
SheetCutProfiles
100
AcDbLine
 10
0.000000000
 20
651.450000000
 30
0.000000000
 11
0.000000000
 21
659.950000000
 31
0.000000000
  0
ARC
  5
B7D
330
A02
100
AcDbEntity
  8
SheetCutProfiles
100
AcDbCircle
 10
2.000000000
 20
651.450000000
 30
0.000000000
 40
2.000000000
100
AcDbArc
 50
180.000000000
 51
-90.000000000
  0
LINE
  5
B7E
330
A02
100
AcDbEntity
  8
SheetCutProfiles
100
AcDbLine
 10
2.000000000
 20
649.450000000
 30
0.000000000
 11
13.600000000
 21
649.450000000
 31
0.000000000
  0
LINE
  5
B7F
330
A02
100
AcDbEntity
  8
SheetCutProfiles
100
AcDbLine
 10
13.600000000
 20
643.200000000
 30
0.000000000
 11
13.600000000
 21
649.450000000
 31
0.000000000
  0
LINE
  5
B80
330
A02
100
AcDbEntity
  8
SheetCutProfiles
100
AcDbLine
 10
13.600000000
 20
643.200000000
 30
0.000000000
 11
955.600000000
 21
643.200000000
 31
0.000000000
  0
LINE
  5
B81
330
A02
100
AcDbEntity
  8
SheetCutProfiles
100
AcDbLine
 10
955.600000000
 20
643.200000000
 30
0.000000000
 11
955.600000000
 21
649.450000000
 31
0.000000000
  0
LINE
  5
B82
330
A02
100
AcDbEntity
  8
SheetCutProfiles
100
AcDbLine
 10
967.200000000
 20
649.450000000
 30
0.000000000
 11
955.600000000
 21
649.450000000
 31
0.000000000
  0
ARC
  5
B83
330
A02
100
AcDbEntity
  8
SheetCutProfiles
100
AcDbCircle
 10
967.200000000
 20
651.450000000
 30
0.000000000
 40
2.000000000
100
AcDbArc
 50
-90.000000000
 51
0.000000000
  0
LINE
  5
B84
330
A02
100
AcDbEntity
  8
SheetCutProfiles
100
AcDbLine
 10
969.200000000
 20
651.450000000
 30
0.000000000
 11
969.200000000
 21
659.950000000
 31
0.000000000
  0
ARC
  5
B85
330
A02
100
AcDbEntity
  8
SheetCutProfiles
100
AcDbCircle
 10
967.200000000
 20
659.950000000
 30
0.000000000
 40
2.000000000
100
AcDbArc
 50
0.000000000
 51
90.000000000
  0
LINE
  5
B86
330
A02
100
AcDbEntity
  8
SheetCutProfiles
100
AcDbLine
 10
955.600000000
 20
661.950000000
 30
0.000000000
 11
967.200000000
 21
661.950000000
 31
0.000000000
  0
LINE
  5
B87
330
A02
100
AcDbEntity
  8
SheetCutProfiles
100
AcDbLine
 10
955.600000000
 20
661.950000000
 30
0.000000000
 11
955.600000000
 21
674.450000000
 31
0.000000000
  0
LINE
  5
B88
330
A02
100
AcDbEntity
  8
SheetCutProfiles
100
AcDbLine
 10
967.200000000
 20
674.450000000
 30
0.000000000
 11
955.600000000
 21
674.450000000
 31
0.000000000
  0
ARC
  5
B89
330
A02
100
AcDbEntity
  8
SheetCutProfiles
100
AcDbCircle
 10
967.200000000
 20
676.450000000
 30
0.000000000
 40
2.000000000
100
AcDbArc
 50
-90.000000000
 51
0.000000000
  0
LINE
  5
B8A
330
A02
100
AcDbEntity
  8
SheetCutProfiles
100
AcDbLine
 10
969.200000000
 20
676.450000000
 30
0.000000000
 11
969.200000000
 21
684.950000000
 31
0.000000000
  0
ARC
  5
B8B
330
A02
100
AcDbEntity
  8
SheetCutProfiles
100
AcDbCircle
 10
967.200000000
 20
684.950000000
 30
0.000000000
 40
2.000000000
100
AcDbArc
 50
0.000000000
 51
90.000000000
  0
LINE
  5
B8C
330
A02
100
AcDbEntity
  8
SheetCutProfiles
100
AcDbLine
 10
955.600000000
 20
686.950000000
 30
0.000000000
 11
967.200000000
 21
686.950000000
 31
0.000000000
  0
LINE
  5
B8D
330
A02
100
AcDbEntity
  8
SheetCutProfiles
100
AcDbLine
 10
955.600000000
 20
686.950000000
 30
0.000000000
 11
955.600000000
 21
699.450000000
 31
0.000000000
  0
LINE
  5
B8E
330
A02
100
AcDbEntity
  8
SheetCutProfiles
100
AcDbLine
 10
967.200000000
 20
699.450000000
 30
0.000000000
 11
955.600000000
 21
699.450000000
 31
0.000000000
  0
ARC
  5
B8F
330
A02
100
AcDbEntity
  8
SheetCutProfiles
100
AcDbCircle
 10
967.200000000
 20
701.450000000
 30
0.000000000
 40
2.000000000
100
AcDbArc
 50
-90.000000000
 51
0.000000000
  0
LINE
  5
B90
330
A02
100
AcDbEntity
  8
SheetCutProfiles
100
AcDbLine
 10
969.200000000
 20
701.450000000
 30
0.000000000
 11
969.200000000
 21
709.950000000
 31
0.000000000
  0
ARC
  5
B91
330
A02
100
AcDbEntity
  8
SheetCutProfiles
100
AcDbCircle
 10
967.200000000
 20
709.950000000
 30
0.000000000
 40
2.000000000
100
AcDbArc
 50
0.000000000
 51
90.000000000
  0
LINE
  5
B92
330
A02
100
AcDbEntity
  8
SheetCutProfiles
100
AcDbLine
 10
934.700000000
 20
761.800000000
 30
0.000000000
 11
488.900000000
 21
761.800000000
 31
0.000000000
  0
ARC
  5
B93
330
A02
100
AcDbEntity
  8
SheetCutProfiles
100
AcDbCircle
 10
934.700000000
 20
774.500000000
 30
0.000000000
 40
12.700000000
100
AcDbArc
 50
-90.000000000
 51
90.000000000
  0
LINE
  5
B94
330
A02
100
AcDbEntity
  8
SheetCutProfiles
100
AcDbLine
 10
934.700000000
 20
787.200000000
 30
0.000000000
 11
488.900000000
 21
787.200000000
 31
0.000000000
  0
ARC
  5
B95
330
A02
100
AcDbEntity
  8
SheetCutProfiles
100
AcDbCircle
 10
488.900000000
 20
774.500000000
 30
0.000000000
 40
12.700000000
100
AcDbArc
 50
90.000000000
 51
-90.000000000
  0
CIRCLE
  5
B96
330
A02
100
AcDbEntity
  8
SheetCutProfiles
100
AcDbCircle
 10
868.866666667
 20
774.500000000
 30
0.000000000
 40
3.000000000
  0
CIRCLE
  5
B97
330
A02
100
AcDbEntity
  8
SheetCutProfiles
100
AcDbCircle
 10
554.733333333
 20
774.500000000
 30
0.000000000
 40
3.000000000
  0
LINE
  5
B98
330
A02
100
AcDbEntity
  8
SheetCutProfiles
100
AcDbLine
 10
12.700000000
 20
761.800000000
 30
0.000000000
 11
458.500000000
 21
761.800000000
 31
0.000000000
  0
ARC
  5
B99
330
A02
100
AcDbEntity
  8
SheetCutProfiles
100
AcDbCircle
 10
12.700000000
 20
774.500000000
 30
0.000000000
 40
12.700000000
100
AcDbArc
 50
90.000000000
 51
-90.000000000
  0
LINE
  5
B9A
330
A02
100
AcDbEntity
  8
SheetCutProfiles
100
AcDbLine
 10
12.700000000
 20
787.200000000
 30
0.000000000
 11
458.500000000
 21
787.200000000
 31
0.000000000
  0
ARC
  5
B9B
330
A02
100
AcDbEntity
  8
SheetCutProfiles
100
AcDbCircle
 10
458.500000000
 20
774.500000000
 30
0.000000000
 40
12.700000000
100
AcDbArc
 50
-90.000000000
 51
90.000000000
  0
CIRCLE
  5
B9C
330
A02
100
AcDbEntity
  8
SheetCutProfiles
100
AcDbCircle
 10
78.533333333
 20
774.500000000
 30
0.000000000
 40
3.000000000
  0
CIRCLE
  5
B9D
330
A02
100
AcDbEntity
  8
SheetCutProfiles
100
AcDbCircle
 10
392.666666667
 20
774.500000000
 30
0.000000000
 40
3.000000000
  0
ENDSEC
  0
SECTION
  2
OBJECTS
  0
DICTIONARY
  5
F000
330
0
100
AcDbDictionary
  3
ACAD_GROUP
350
F001
  0
DICTIONARY
  5
F001
330
F000
100
AcDbDictionary
  0
ENDSEC
  0
EOF