999
FreeCAD v1.1 20260725 (Git shallow)
  0
SECTION
  2
HEADER
  9
$ACADVER
  1
AC1014
  9
$ACADMAINTVER
 70
     9
  9
$DWGCODEPAGE
  3
ANSI_1252
  9
$TEXTSTYLE
  7
STANDARD
  9
$DIMSTYLE
  2
STANDARD
  9
$DIMTXSTY
  7
STANDARD
  9
$CMLSTYLE
  2
STANDARD
  9
$LUNITS
 70
2
  9
$INSUNITS
 70
4
  9
$PEXTMAX
 10
50
 20
50
 30
50
  9
$PEXTMIN
 10
0
 20
0
 30
0
  9
$HANDSEED
  5
FFFF
  0
ENDSEC
  0
SECTION
  2
CLASSES
  0
CLASS
  1
ACDBDICTIONARYWDFLT
  2
AcDbDictionaryWithDefault
  3
ObjectDBX Classes
 90
        0
280
     0
281
     0
  0
CLASS
  1
XRECORD
  2
AcDbXrecord
  3
ObjectDBX Classes
 90
        0
280
     0
281
     0
  0
CLASS
  1
LWPOLYLINE
  2
AcDbPolyline
  3
ObjectDBX Classes
 90
        0
280
     0
281
     1
  0
ENDSEC
  0
SECTION
  2
TABLES
  0
TABLE
  2
VPORT
  5
20
330
0
100
AcDbSymbolTable
 70
     1
  0
VPORT
  5
21
330
20
100
AcDbSymbolTableRecord
100
AcDbViewportTableRecord
  2
*ACTIVE
 70
     0
  0
ENDTAB
  0
TABLE
  2
LTYPE
  5
22
330
0
100
AcDbSymbolTable
 70
     1
  0
LTYPE
  5
23
330
21
100
AcDbSymbolTableRecord
100
AcDbLinetypeTableRecord
  2
BYBLOCK
 70
     0
  3

 72
    65
 73
     0
 40
0.0
  0
LTYPE
  5
24
330
21
100
AcDbSymbolTableRecord
100
AcDbLinetypeTableRecord
  2
BYLAYER
 70
     0
  3

 72
    65
 73
     0
 40
0.0
  0
LTYPE
  5
25
330
21
100
AcDbSymbolTableRecord
100
AcDbLinetypeTableRecord
  2
CONTINUOUS
 70
     0
  3
Solid line
 72
    65
 73
     0
 40
0.0
  0
ENDTAB
  0
TABLE
  2
LAYER
  5
C6B
330
0
100
AcDbSymbolTable
 70
3
  0
LAYER
  5
C6C
330
C6B
100
AcDbSymbolTableRecord
100
AcDbLayerTableRecord
  2
0
 70
   0
 62
   7
  6
CONTINUOUS
  0
LAYER
  5
C6D
330
C6B
100
AcDbSymbolTableRecord
100
AcDbLayerTableRecord
  2
none
 70
    0
 62
    7
  6
CONTINUOUS
  0
LAYER
  5
C6E
330
C6B
100
AcDbSymbolTableRecord
100
AcDbLayerTableRecord
  2
SheetCutProfiles
 70
    0
 62
    7
  6
CONTINUOUS
  0
ENDTAB
  0
TABLE
  2
STYLE
  5
70
330
0
100
AcDbSymbolTable
 70
     2
  0
STYLE
  5
71
330
70
100
AcDbSymbolTableRecord
100
AcDbTextStyleTableRecord
  2
STANDARD
 70
     0
 40
0.0
 41
1.0
 50
0.0
 71
     0
 42
2.5
  3
arial.ttf
  4

  0
STYLE
  5
72
330
70
100
AcDbSymbolTableRecord
100
AcDbTextStyleTableRecord
  2
ANNOTATIVE
 70
     0
 40
0.0
 41
1.0
 50
0.0
 71
     0
 42
2.5
  3
arial.ttf
  4

  0
ENDTAB
  0
TABLE
  2
VIEW
  5
73
330
0
100
AcDbSymbolTable
 70
     0
  0
ENDTAB
  0
TABLE
  2
UCS
  5
74
330
0
100
AcDbSymbolTable
 70
     0
  0
ENDTAB
  0
TABLE
  2
APPID
  5
75
330
0
100
AcDbSymbolTable
 70
     2
  0
APPID
  5
76
330
75
100
AcDbSymbolTableRecord
100
AcDbRegAppTableRecord
  2
ACAD
 70
     0
  0
APPID
  5
77
330
75
100
AcDbSymbolTableRecord
100
AcDbRegAppTableRecord
  2
ACADANNOTATIVE
 70
     0
  0
ENDTAB
  0
TABLE
  2
DIMSTYLE
  5
78
330
0
100
AcDbSymbolTable
 70
     2
  0
DIMSTYLE
105
79
330
78
100
AcDbSymbolTableRecord
100
AcDbDimStyleTableRecord
  2
STANDARD
 70
     0
  3

  4

  5

  6

  7

 40
0.0
 41
2.5
 42
0.625
 43
3.75
 44
1.25
 45
0.0
 46
0.0
 47
0.0
 48
0.0
140
2.5
141
2.5
142
0.0
143
0.03937007874016
144
1.0
145
0.0
146
1.0
147
0.625
 71
     0
 72
     0
 73
     0
 74
     0
 75
     0
 76
     0
 77
     1
 78
     8
170
     0
171
     3
172
     1
173
     0
174
     0
175
     0
176
     0
177
     0
178
     0
270
     2
271
     2
272
     2
273
     2
274
     3
340
71
275
     0
280
     0
281
     0
282
     0
283
     0
284
     8
285
     0
286
     0
287
     3
288
     0
  0
ENDTAB
  0
TABLE
  2
BLOCK_RECORD
  5
A01
330
0
100
AcDbSymbolTable
  70
5
  0
BLOCK_RECORD
  5
A02
330
A01
100
AcDbSymbolTableRecord
100
AcDbBlockTableRecord
  2
*MODEL_SPACE
  0
BLOCK_RECORD
  5
A03
330
A01
100
AcDbSymbolTableRecord
100
AcDbBlockTableRecord
  2
*PAPER_SPACE
  0
ENDTAB
  0
ENDSEC
  0
SECTION
  2
BLOCKS
  0
BLOCK
  5
A04
330
A02
100
AcDbEntity
  8
0
100
AcDbBlockBegin
  2
*MODEL_SPACE
 70
   0
 10
0
 20
0
 30
0
  3
*MODEL_SPACE
  1
 
  0
ENDBLK
  5
A05
330
A02
100
AcDbEntity
  8
0
100
AcDbBlockEnd
  0
BLOCK
  5
A06
330
A03
100
AcDbEntity
 67
1
  8
0
100
AcDbBlockBegin
  2
*PAPER_SPACE
 70
   0
 10
0
 20
0
 30
0
  3
*PAPER_SPACE
  1
 
  0
ENDBLK
  5
A07
330
A03
100
AcDbEntity
 67
    1
  8
0
100
AcDbBlockEnd
  0
ENDSEC
  0
SECTION
  2
ENTITIES
  0
LINE
  5
A08
330
A02
100
AcDbEntity
  8
SheetCutProfiles
100
AcDbLine
 10
325.225000000
 20
510.000000000
 30
0.000000000
 11
325.225000000
 21
498.400000000
 31
0.000000000
  0
ARC
  5
A09
330
A02
100
AcDbEntity
  8
SheetCutProfiles
100
AcDbCircle
 10
327.225000000
 20
510.000000000
 30
0.000000000
 40
2.000000000
100
AcDbArc
 50
90.000000000
 51
180.000000000
  0
LINE
  5
A0A
330
A02
100
AcDbEntity
  8
SheetCutProfiles
100
AcDbLine
 10
327.225000000
 20
512.000000000
 30
0.000000000
 11
344.000000000
 21
512.000000000
 31
0.000000000
  0
ARC
  5
A0B
330
A02
100
AcDbEntity
  8
SheetCutProfiles
100
AcDbCircle
 10
344.000000000
 20
510.000000000
 30
0.000000000
 40
2.000000000
100
AcDbArc
 50
0.000000000
 51
90.000000000
  0
LINE
  5
A0C
330
A02
100
AcDbEntity
  8
SheetCutProfiles
100
AcDbLine
 10
346.000000000
 20
510.000000000
 30
0.000000000
 11
357.600000000
 21
510.000000000
 31
0.000000000
  0
ARC
  5
A0D
330
A02
100
AcDbEntity
  8
SheetCutProfiles
100
AcDbCircle
 10
357.600000000
 20
508.000000000
 30
0.000000000
 40
2.000000000
100
AcDbArc
 50
0.000000000
 51
90.000000000
  0
LINE
  5
A0E
330
A02
100
AcDbEntity
  8
SheetCutProfiles
100
AcDbLine
 10
359.600000000
 20
502.475000000
 30
0.000000000
 11
359.600000000
 21
508.000000000
 31
0.000000000
  0
ARC
  5
A0F
330
A02
100
AcDbEntity
  8
SheetCutProfiles
100
AcDbCircle
 10
357.600000000
 20
502.475000000
 30
0.000000000
 40
2.000000000
100
AcDbArc
 50
-90.000000000
 51
0.000000000
  0
LINE
  5
A10
330
A02
100
AcDbEntity
  8
SheetCutProfiles
100
AcDbLine
 10
346.000000000
 20
500.475000000
 30
0.000000000
 11
357.600000000
 21
500.475000000
 31
0.000000000
  0
LINE
  5
A11
330
A02
100
AcDbEntity
  8
SheetCutProfiles
100
AcDbLine
 10
346.000000000
 20
481.425000000
 30
0.000000000
 11
346.000000000
 21
500.475000000
 31
0.000000000
  0
LINE
  5
A12
330
A02
100
AcDbEntity
  8
SheetCutProfiles
100
AcDbLine
 10
357.600000000
 20
481.425000000
 30
0.000000000
 11
346.000000000
 21
481.425000000
 31
0.000000000
  0
ARC
  5
A13
330
A02
100
AcDbEntity
  8
SheetCutProfiles
100
AcDbCircle
 10
357.600000000
 20
479.425000000
 30
0.000000000
 40
2.000000000
100
AcDbArc
 50
0.000000000
 51
90.000000000
  0
LINE
  5
A14
330
A02
100
AcDbEntity
  8
SheetCutProfiles
100
AcDbLine
 10
359.600000000
 20
464.375000000
 30
0.000000000
 11
359.600000000
 21
479.425000000
 31
0.000000000
  0
ARC
  5
A15
330
A02
100
AcDbEntity
  8
SheetCutProfiles
100
AcDbCircle
 10
357.600000000
 20
464.375000000
 30
0.000000000
 40
2.000000000
100
AcDbArc
 50
-90.000000000
 51
0.000000000
  0
LINE
  5
A16
330
A02
100
AcDbEntity
  8
SheetCutProfiles
100
AcDbLine
 10
346.000000000
 20
462.375000000
 30
0.000000000
 11
357.600000000
 21
462.375000000
 31
0.000000000
  0
LINE
  5
A17
330
A02
100
AcDbEntity
  8
SheetCutProfiles
100
AcDbLine
 10
346.000000000
 20
443.325000000
 30
0.000000000
 11
346.000000000
 21
462.375000000
 31
0.000000000
  0
LINE
  5
A18
330
A02
100
AcDbEntity
  8
SheetCutProfiles
100
AcDbLine
 10
357.600000000
 20
443.325000000
 30
0.000000000
 11
346.000000000
 21
443.325000000
 31
0.000000000
  0
ARC
  5
A19
330
A02
100
AcDbEntity
  8
SheetCutProfiles
100
AcDbCircle
 10
357.600000000
 20
441.325000000
 30
0.000000000
 40
2.000000000
100
AcDbArc
 50
0.000000000
 51
90.000000000
  0
LINE
  5
A1A
330
A02
100
AcDbEntity
  8
SheetCutProfiles
100
AcDbLine
 10
359.600000000
 20
426.275000000
 30
0.000000000
 11
359.600000000
 21
441.325000000
 31
0.000000000
  0
ARC
  5
A1B
330
A02
100
AcDbEntity
  8
SheetCutProfiles
100
AcDbCircle
 10
357.600000000
 20
426.275000000
 30
0.000000000
 40
2.000000000
100
AcDbArc
 50
-90.000000000
 51
0.000000000
  0
LINE
  5
A1C
330
A02
100
AcDbEntity
  8
SheetCutProfiles
100
AcDbLine
 10
346.000000000
 20
424.275000000
 30
0.000000000
 11
357.600000000
 21
424.275000000
 31
0.000000000
  0
LINE
  5
A1D
330
A02
100
AcDbEntity
  8
SheetCutProfiles
100
AcDbLine
 10
346.000000000
 20
405.225000000
 30
0.000000000
 11
346.000000000
 21
424.275000000
 31
0.000000000
  0
LINE
  5
A1E
330
A02
100
AcDbEntity
  8
SheetCutProfiles
100
AcDbLine
 10
357.600000000
 20
405.225000000
 30
0.000000000
 11
346.000000000
 21
405.225000000
 31
0.000000000
  0
ARC
  5
A1F
330
A02
100
AcDbEntity
  8
SheetCutProfiles
100
AcDbCircle
 10
357.600000000
 20
403.225000000
 30
0.000000000
 40
2.000000000
100
AcDbArc
 50
0.000000000
 51
90.000000000
  0
LINE
  5
A20
330
A02
100
AcDbEntity
  8
SheetCutProfiles
100
AcDbLine
 10
359.600000000
 20
388.175000000
 30
0.000000000
 11
359.600000000
 21
403.225000000
 31
0.000000000
  0
ARC
  5
A21
330
A02
100
AcDbEntity
  8
SheetCutProfiles
100
AcDbCircle
 10
357.600000000
 20
388.175000000
 30
0.000000000
 40
2.000000000
100
AcDbArc
 50
-90.000000000
 51
0.000000000
  0
LINE
  5
A22
330
A02
100
AcDbEntity
  8
SheetCutProfiles
100
AcDbLine
 10
346.000000000
 20
386.175000000
 30
0.000000000
 11
357.600000000
 21
386.175000000
 31
0.000000000
  0
LINE
  5
A23
330
A02
100
AcDbEntity
  8
SheetCutProfiles
100
AcDbLine
 10
346.000000000
 20
367.125000000
 30
0.000000000
 11
346.000000000
 21
386.175000000
 31
0.000000000
  0
LINE
  5
A24
330
A02
100
AcDbEntity
  8
SheetCutProfiles
100
AcDbLine
 10
357.600000000
 20
367.125000000
 30
0.000000000
 11
346.000000000
 21
367.125000000
 31
0.000000000
  0
ARC
  5
A25
330
A02
100
AcDbEntity
  8
SheetCutProfiles
100
AcDbCircle
 10
357.600000000
 20
365.125000000
 30
0.000000000
 40
2.000000000
100
AcDbArc
 50
0.000000000
 51
90.000000000
  0
LINE
  5
A26
330
A02
100
AcDbEntity
  8
SheetCutProfiles
100
AcDbLine
 10
359.600000000
 20
359.600000000
 30
0.000000000
 11
359.600000000
 21
365.125000000
 31
0.000000000
  0
ARC
  5
A27
330
A02
100
AcDbEntity
  8
SheetCutProfiles
100
AcDbCircle
 10
357.600000000
 20
359.600000000
 30
0.000000000
 40
2.000000000
100
AcDbArc
 50
-90.000000000
 51
0.000000000
  0
LINE
  5
A28
330
A02
100
AcDbEntity
  8
SheetCutProfiles
100
AcDbLine
 10
357.600000000
 20
357.600000000
 30
0.000000000
 11
357.600000000
 21
166.000000000
 31
0.000000000
  0
ARC
  5
A29
330
A02
100
AcDbEntity
  8
SheetCutProfiles
100
AcDbCircle
 10
357.600000000
 20
164.000000000
 30
0.000000000
 40
2.000000000
100
AcDbArc
 50
0.000000000
 51
90.000000000
  0
LINE
  5
A2A
330
A02
100
AcDbEntity
  8
SheetCutProfiles
100
AcDbLine
 10
359.600000000
 20
158.475000000
 30
0.000000000
 11
359.600000000
 21
164.000000000
 31
0.000000000
  0
ARC
  5
A2B
330
A02
100
AcDbEntity
  8
SheetCutProfiles
100
AcDbCircle
 10
357.600000000
 20
158.475000000
 30
0.000000000
 40
2.000000000
100
AcDbArc
 50
-90.000000000
 51
0.000000000
  0
LINE
  5
A2C
330
A02
100
AcDbEntity
  8
SheetCutProfiles
100
AcDbLine
 10
346.000000000
 20
156.475000000
 30
0.000000000
 11
357.600000000
 21
156.475000000
 31
0.000000000
  0
LINE
  5
A2D
330
A02
100
AcDbEntity
  8
SheetCutProfiles
100
AcDbLine
 10
346.000000000
 20
137.425000000
 30
0.000000000
 11
346.000000000
 21
156.475000000
 31
0.000000000
  0
LINE
  5
A2E
330
A02
100
AcDbEntity
  8
SheetCutProfiles
100
AcDbLine
 10
357.600000000
 20
137.425000000
 30
0.000000000
 11
346.000000000
 21
137.425000000
 31
0.000000000
  0
ARC
  5
A2F
330
A02
100
AcDbEntity
  8
SheetCutProfiles
100
AcDbCircle
 10
357.600000000
 20
135.425000000
 30
0.000000000
 40
2.000000000
100
AcDbArc
 50
0.000000000
 51
90.000000000
  0
LINE
  5
A30
330
A02
100
AcDbEntity
  8
SheetCutProfiles
100
AcDbLine
 10
359.600000000
 20
120.375000000
 30
0.000000000
 11
359.600000000
 21
135.425000000
 31
0.000000000
  0
ARC
  5
A31
330
A02
100
AcDbEntity
  8
SheetCutProfiles
100
AcDbCircle
 10
357.600000000
 20
120.375000000
 30
0.000000000
 40
2.000000000
100
AcDbArc
 50
-90.000000000
 51
0.000000000
  0
LINE
  5
A32
330
A02
100
AcDbEntity
  8
SheetCutProfiles
100
AcDbLine
 10
346.000000000
 20
118.375000000
 30
0.000000000
 11
357.600000000
 21
118.375000000
 31
0.000000000
  0
LINE
  5
A33
330
A02
100
AcDbEntity
  8
SheetCutProfiles
100
AcDbLine
 10
346.000000000
 20
99.325000000
 30
0.000000000
 11
346.000000000
 21
118.375000000
 31
0.000000000
  0
LINE
  5
A34
330
A02
100
AcDbEntity
  8
SheetCutProfiles
100
AcDbLine
 10
357.600000000
 20
99.325000000
 30
0.000000000
 11
346.000000000
 21
99.325000000
 31
0.000000000
  0
ARC
  5
A35
330
A02
100
AcDbEntity
  8
SheetCutProfiles
100
AcDbCircle
 10
357.600000000
 20
97.325000000
 30
0.000000000
 40
2.000000000
100
AcDbArc
 50
0.000000000
 51
90.000000000
  0
LINE
  5
A36
330
A02
100
AcDbEntity
  8
SheetCutProfiles
100
AcDbLine
 10
359.600000000
 20
82.275000000
 30
0.000000000
 11
359.600000000
 21
97.325000000
 31
0.000000000
  0
ARC
  5
A37
330
A02
100
AcDbEntity
  8
SheetCutProfiles
100
AcDbCircle
 10
357.600000000
 20
82.275000000
 30
0.000000000
 40
2.000000000
100
AcDbArc
 50
-90.000000000
 51
0.000000000
  0
LINE
  5
A38
330
A02
100
AcDbEntity
  8
SheetCutProfiles
100
AcDbLine
 10
346.000000000
 20
80.275000000
 30
0.000000000
 11
357.600000000
 21
80.275000000
 31
0.000000000
  0
LINE
  5
A39
330
A02
100
AcDbEntity
  8
SheetCutProfiles
100
AcDbLine
 10
346.000000000
 20
61.225000000
 30
0.000000000
 11
346.000000000
 21
80.275000000
 31
0.000000000
  0
LINE
  5
A3A
330
A02
100
AcDbEntity
  8
SheetCutProfiles
100
AcDbLine
 10
357.600000000
 20
61.225000000
 30
0.000000000
 11
346.000000000
 21
61.225000000
 31
0.000000000
  0
ARC
  5
A3B
330
A02
100
AcDbEntity
  8
SheetCutProfiles
100
AcDbCircle
 10
357.600000000
 20
59.225000000
 30
0.000000000
 40
2.000000000
100
AcDbArc
 50
0.000000000
 51
90.000000000
  0
LINE
  5
A3C
330
A02
100
AcDbEntity
  8
SheetCutProfiles
100
AcDbLine
 10
359.600000000
 20
44.175000000
 30
0.000000000
 11
359.600000000
 21
59.225000000
 31
0.000000000
  0
ARC
  5
A3D
330
A02
100
AcDbEntity
  8
SheetCutProfiles
100
AcDbCircle
 10
357.600000000
 20
44.175000000
 30
0.000000000
 40
2.000000000
100
AcDbArc
 50
-90.000000000
 51
0.000000000
  0
LINE
  5
A3E
330
A02
100
AcDbEntity
  8
SheetCutProfiles
100
AcDbLine
 10
346.000000000
 20
42.175000000
 30
0.000000000
 11
357.600000000
 21
42.175000000
 31
0.000000000
  0
LINE
  5
A3F
330
A02
100
AcDbEntity
  8
SheetCutProfiles
100
AcDbLine
 10
346.000000000
 20
23.125000000
 30
0.000000000
 11
346.000000000
 21
42.175000000
 31
0.000000000
  0
LINE
  5
A40
330
A02
100
AcDbEntity
  8
SheetCutProfiles
100
AcDbLine
 10
357.600000000
 20
23.125000000
 30
0.000000000
 11
346.000000000
 21
23.125000000
 31
0.000000000
  0
ARC
  5
A41
330
A02
100
AcDbEntity
  8
SheetCutProfiles
100
AcDbCircle
 10
357.600000000
 20
21.125000000
 30
0.000000000
 40
2.000000000
100
AcDbArc
 50
0.000000000
 51
90.000000000
  0
LINE
  5
A42
330
A02
100
AcDbEntity
  8
SheetCutProfiles
100
AcDbLine
 10
359.600000000
 20
15.600000000
 30
0.000000000
 11
359.600000000
 21
21.125000000
 31
0.000000000
  0
ARC
  5
A43
330
A02
100
AcDbEntity
  8
SheetCutProfiles
100
AcDbCircle
 10
357.600000000
 20
15.600000000
 30
0.000000000
 40
2.000000000
100
AcDbArc
 50
-90.000000000
 51
0.000000000
  0
LINE
  5
A44
330
A02
100
AcDbEntity
  8
SheetCutProfiles
100
AcDbLine
 10
336.100000000
 20
13.600000000
 30
0.000000000
 11
357.600000000
 21
13.600000000
 31
0.000000000
  0
LINE
  5
A45
330
A02
100
AcDbEntity
  8
SheetCutProfiles
100
AcDbLine
 10
336.100000000
 20
13.600000000
 30
0.000000000
 11
336.100000000
 21
2.000000000
 31
0.000000000
  0
ARC
  5
A46
330
A02
100
AcDbEntity
  8
SheetCutProfiles
100
AcDbCircle
 10
334.100000000
 20
2.000000000
 30
0.000000000
 40
2.000000000
100
AcDbArc
 50
-90.000000000
 51
0.000000000
  0
LINE
  5
A47
330
A02
100
AcDbEntity
  8
SheetCutProfiles
100
AcDbLine
 10
295.100000000
 20
0.000000000
 30
0.000000000
 11
334.100000000
 21
0.000000000
 31
0.000000000
  0
ARC
  5
A48
330
A02
100
AcDbEntity
  8
SheetCutProfiles
100
AcDbCircle
 10
295.100000000
 20
2.000000000
 30
0.000000000
 40
2.000000000
100
AcDbArc
 50
180.000000000
 51
-90.000000000
  0
LINE
  5
A49
330
A02
100
AcDbEntity
  8
SheetCutProfiles
100
AcDbLine
 10
293.100000000
 20
2.000000000
 30
0.000000000
 11
293.100000000
 21
13.600000000
 31
0.000000000
  0
LINE
  5
A4A
330
A02
100
AcDbEntity
  8
SheetCutProfiles
100
AcDbLine
 10
250.100000000
 20
13.600000000
 30
0.000000000
 11
293.100000000
 21
13.600000000
 31
0.000000000
  0
LINE
  5
A4B
330
A02
100
AcDbEntity
  8
SheetCutProfiles
100
AcDbLine
 10
250.100000000
 20
13.600000000
 30
0.000000000
 11
250.100000000
 21
2.000000000
 31
0.000000000
  0
ARC
  5
A4C
330
A02
100
AcDbEntity
  8
SheetCutProfiles
100
AcDbCircle
 10
248.100000000
 20
2.000000000
 30
0.000000000
 40
2.000000000
100
AcDbArc
 50
-90.000000000
 51
0.000000000
  0
LINE
  5
A4D
330
A02
100
AcDbEntity
  8
SheetCutProfiles
100
AcDbLine
 10
209.100000000
 20
0.000000000
 30
0.000000000
 11
248.100000000
 21
0.000000000
 31
0.000000000
  0
ARC
  5
A4E
330
A02
100
AcDbEntity
  8
SheetCutProfiles
100
AcDbCircle
 10
209.100000000
 20
2.000000000
 30
0.000000000
 40
2.000000000
100
AcDbArc
 50
180.000000000
 51
-90.000000000
  0
LINE
  5
A4F
330
A02
100
AcDbEntity
  8
SheetCutProfiles
100
AcDbLine
 10
207.100000000
 20
2.000000000
 30
0.000000000
 11
207.100000000
 21
13.600000000
 31
0.000000000
  0
LINE
  5
A50
330
A02
100
AcDbEntity
  8
SheetCutProfiles
100
AcDbLine
 10
164.100000000
 20
13.600000000
 30
0.000000000
 11
207.100000000
 21
13.600000000
 31
0.000000000
  0
LINE
  5
A51
330
A02
100
AcDbEntity
  8
SheetCutProfiles
100
AcDbLine
 10
164.100000000
 20
13.600000000
 30
0.000000000
 11
164.100000000
 21
2.000000000
 31
0.000000000
  0
ARC
  5
A52
330
A02
100
AcDbEntity
  8
SheetCutProfiles
100
AcDbCircle
 10
162.100000000
 20
2.000000000
 30
0.000000000
 40
2.000000000
100
AcDbArc
 50
-90.000000000
 51
0.000000000
  0
LINE
  5
A53
330
A02
100
AcDbEntity
  8
SheetCutProfiles
100
AcDbLine
 10
123.100000000
 20
0.000000000
 30
0.000000000
 11
162.100000000
 21
0.000000000
 31
0.000000000
  0
ARC
  5
A54
330
A02
100
AcDbEntity
  8
SheetCutProfiles
100
AcDbCircle
 10
123.100000000
 20
2.000000000
 30
0.000000000
 40
2.000000000
100
AcDbArc
 50
180.000000000
 51
-90.000000000
  0
LINE
  5
A55
330
A02
100
AcDbEntity
  8
SheetCutProfiles
100
AcDbLine
 10
121.100000000
 20
2.000000000
 30
0.000000000
 11
121.100000000
 21
13.600000000
 31
0.000000000
  0
LINE
  5
A56
330
A02
100
AcDbEntity
  8
SheetCutProfiles
100
AcDbLine
 10
78.100000000
 20
13.600000000
 30
0.000000000
 11
121.100000000
 21
13.600000000
 31
0.000000000
  0
LINE
  5
A57
330
A02
100
AcDbEntity
  8
SheetCutProfiles
100
AcDbLine
 10
78.100000000
 20
13.600000000
 30
0.000000000
 11
78.100000000
 21
2.000000000
 31
0.000000000
  0
ARC
  5
A58
330
A02
100
AcDbEntity
  8
SheetCutProfiles
100
AcDbCircle
 10
76.100000000
 20
2.000000000
 30
0.000000000
 40
2.000000000
100
AcDbArc
 50
-90.000000000
 51
0.000000000
  0
LINE
  5
A59
330
A02
100
AcDbEntity
  8
SheetCutProfiles
100
AcDbLine
 10
37.100000000
 20
0.000000000
 30
0.000000000
 11
76.100000000
 21
0.000000000
 31
0.000000000
  0
ARC
  5
A5A
330
A02
100
AcDbEntity
  8
SheetCutProfiles
100
AcDbCircle
 10
37.100000000
 20
2.000000000
 30
0.000000000
 40
2.000000000
100
AcDbArc
 50
180.000000000
 51
-90.000000000
  0
LINE
  5
A5B
330
A02
100
AcDbEntity
  8
SheetCutProfiles
100
AcDbLine
 10
35.100000000
 20
2.000000000
 30
0.000000000
 11
35.100000000
 21
13.600000000
 31
0.000000000
  0
LINE
  5
A5C
330
A02
100
AcDbEntity
  8
SheetCutProfiles
100
AcDbLine
 10
13.600000000
 20
13.600000000
 30
0.000000000
 11
35.100000000
 21
13.600000000
 31
0.000000000
  0
LINE
  5
A5D
330
A02
100
AcDbEntity
  8
SheetCutProfiles
100
AcDbLine
 10
13.600000000
 20
44.625000000
 30
0.000000000
 11
13.600000000
 21
13.600000000
 31
0.000000000
  0
LINE
  5
A5E
330
A02
100
AcDbEntity
  8
SheetCutProfiles
100
AcDbLine
 10
13.600000000
 20
44.625000000
 30
0.000000000
 11
2.000000000
 21
44.625000000
 31
0.000000000
  0
ARC
  5
A5F
330
A02
100
AcDbEntity
  8
SheetCutProfiles
100
AcDbCircle
 10
2.000000000
 20
46.625000000
 30
0.000000000
 40
2.000000000
100
AcDbArc
 50
180.000000000
 51
-90.000000000
  0
LINE
  5
A60
330
A02
100
AcDbEntity
  8
SheetCutProfiles
100
AcDbLine
 10
0.000000000
 20
104.675000000
 30
0.000000000
 11
0.000000000
 21
46.625000000
 31
0.000000000
  0
ARC
  5
A61
330
A02
100
AcDbEntity
  8
SheetCutProfiles
100
AcDbCircle
 10
2.000000000
 20
104.675000000
 30
0.000000000
 40
2.000000000
100
AcDbArc
 50
90.000000000
 51
180.000000000
  0
LINE
  5
A62
330
A02
100
AcDbEntity
  8
SheetCutProfiles
100
AcDbLine
 10
2.000000000
 20
106.675000000
 30
0.000000000
 11
13.600000000
 21
106.675000000
 31
0.000000000
  0
LINE
  5
A63
330
A02
100
AcDbEntity
  8
SheetCutProfiles
100
AcDbLine
 10
13.600000000
 20
168.725000000
 30
0.000000000
 11
13.600000000
 21
106.675000000
 31
0.000000000
  0
LINE
  5
A64
330
A02
100
AcDbEntity
  8
SheetCutProfiles
100
AcDbLine
 10
13.600000000
 20
168.725000000
 30
0.000000000
 11
2.000000000
 21
168.725000000
 31
0.000000000
  0
ARC
  5
A65
330
A02
100
AcDbEntity
  8
SheetCutProfiles
100
AcDbCircle
 10
2.000000000
 20
170.725000000
 30
0.000000000
 40
2.000000000
100
AcDbArc
 50
180.000000000
 51
-90.000000000
  0
LINE
  5
A66
330
A02
100
AcDbEntity
  8
SheetCutProfiles
100
AcDbLine
 10
0.000000000
 20
228.775000000
 30
0.000000000
 11
0.000000000
 21
170.725000000
 31
0.000000000
  0
ARC
  5
A67
330
A02
100
AcDbEntity
  8
SheetCutProfiles
100
AcDbCircle
 10
2.000000000
 20
228.775000000
 30
0.000000000
 40
2.000000000
100
AcDbArc
 50
90.000000000
 51
180.000000000
  0
LINE
  5
A68
330
A02
100
AcDbEntity
  8
SheetCutProfiles
100
AcDbLine
 10
2.000000000
 20
230.775000000
 30
0.000000000
 11
13.600000000
 21
230.775000000
 31
0.000000000
  0
LINE
  5
A69
330
A02
100
AcDbEntity
  8
SheetCutProfiles
100
AcDbLine
 10
13.600000000
 20
292.825000000
 30
0.000000000
 11
13.600000000
 21
230.775000000
 31
0.000000000
  0
LINE
  5
A6A
330
A02
100
AcDbEntity
  8
SheetCutProfiles
100
AcDbLine
 10
13.600000000
 20
292.825000000
 30
0.000000000
 11
2.000000000
 21
292.825000000
 31
0.000000000
  0
ARC
  5
A6B
330
A02
100
AcDbEntity
  8
SheetCutProfiles
100
AcDbCircle
 10
2.000000000
 20
294.825000000
 30
0.000000000
 40
2.000000000
100
AcDbArc
 50
180.000000000
 51
-90.000000000
  0
LINE
  5
A6C
330
A02
100
AcDbEntity
  8
SheetCutProfiles
100
AcDbLine
 10
0.000000000
 20
352.875000000
 30
0.000000000
 11
0.000000000
 21
294.825000000
 31
0.000000000
  0
ARC
  5
A6D
330
A02
100
AcDbEntity
  8
SheetCutProfiles
100
AcDbCircle
 10
2.000000000
 20
352.875000000
 30
0.000000000
 40
2.000000000
100
AcDbArc
 50
90.000000000
 51
180.000000000
  0
LINE
  5
A6E
330
A02
100
AcDbEntity
  8
SheetCutProfiles
100
AcDbLine
 10
2.000000000
 20
354.875000000
 30
0.000000000
 11
13.600000000
 21
354.875000000
 31
0.000000000
  0
LINE
  5
A6F
330
A02
100
AcDbEntity
  8
SheetCutProfiles
100
AcDbLine
 10
13.600000000
 20
416.925000000
 30
0.000000000
 11
13.600000000
 21
354.875000000
 31
0.000000000
  0
LINE
  5
A70
330
A02
100
AcDbEntity
  8
SheetCutProfiles
100
AcDbLine
 10
13.600000000
 20
416.925000000
 30
0.000000000
 11
2.000000000
 21
416.925000000
 31
0.000000000
  0
ARC
  5
A71
330
A02
100
AcDbEntity
  8
SheetCutProfiles
100
AcDbCircle
 10
2.000000000
 20
418.925000000
 30
0.000000000
 40
2.000000000
100
AcDbArc
 50
180.000000000
 51
-90.000000000
  0
LINE
  5
A72
330
A02
100
AcDbEntity
  8
SheetCutProfiles
100
AcDbLine
 10
0.000000000
 20
476.975000000
 30
0.000000000
 11
0.000000000
 21
418.925000000
 31
0.000000000
  0
ARC
  5
A73
330
A02
100
AcDbEntity
  8
SheetCutProfiles
100
AcDbCircle
 10
2.000000000
 20
476.975000000
 30
0.000000000
 40
2.000000000
100
AcDbArc
 50
90.000000000
 51
180.000000000
  0
LINE
  5
A74
330
A02
100
AcDbEntity
  8
SheetCutProfiles
100
AcDbLine
 10
2.000000000
 20
478.975000000
 30
0.000000000
 11
13.600000000
 21
478.975000000
 31
0.000000000
  0
LINE
  5
A75
330
A02
100
AcDbEntity
  8
SheetCutProfiles
100
AcDbLine
 10
13.600000000
 20
510.000000000
 30
0.000000000
 11
13.600000000
 21
478.975000000
 31
0.000000000
  0
ARC
  5
A76
330
A02
100
AcDbEntity
  8
SheetCutProfiles
100
AcDbCircle
 10
15.600000000
 20
510.000000000
 30
0.000000000
 40
2.000000000
100
AcDbArc
 50
90.000000000
 51
180.000000000
  0
LINE
  5
A77
330
A02
100
AcDbEntity
  8
SheetCutProfiles
100
AcDbLine
 10
15.600000000
 20
512.000000000
 30
0.000000000
 11
32.375000000
 21
512.000000000
 31
0.000000000
  0
ARC
  5
A78
330
A02
100
AcDbEntity
  8
SheetCutProfiles
100
AcDbCircle
 10
32.375000000
 20
510.000000000
 30
0.000000000
 40
2.000000000
100
AcDbArc
 50
0.000000000
 51
90.000000000
  0
LINE
  5
A79
330
A02
100
AcDbEntity
  8
SheetCutProfiles
100
AcDbLine
 10
34.375000000
 20
498.400000000
 30
0.000000000
 11
34.375000000
 21
510.000000000
 31
0.000000000
  0
LINE
  5
A7A
330
A02
100
AcDbEntity
  8
SheetCutProfiles
100
AcDbLine
 10
75.925000000
 20
498.400000000
 30
0.000000000
 11
34.375000000
 21
498.400000000
 31
0.000000000
  0
LINE
  5
A7B
330
A02
100
AcDbEntity
  8
SheetCutProfiles
100
AcDbLine
 10
75.925000000
 20
510.000000000
 30
0.000000000
 11
75.925000000
 21
498.400000000
 31
0.000000000
  0
ARC
  5
A7C
330
A02
100
AcDbEntity
  8
SheetCutProfiles
100
AcDbCircle
 10
77.925000000
 20
510.000000000
 30
0.000000000
 40
2.000000000
100
AcDbArc
 50
90.000000000
 51
180.000000000
  0
LINE
  5
A7D
330
A02
100
AcDbEntity
  8
SheetCutProfiles
100
AcDbLine
 10
77.925000000
 20
512.000000000
 30
0.000000000
 11
115.475000000
 21
512.000000000
 31
0.000000000
  0
ARC
  5
A7E
330
A02
100
AcDbEntity
  8
SheetCutProfiles
100
AcDbCircle
 10
115.475000000
 20
510.000000000
 30
0.000000000
 40
2.000000000
100
AcDbArc
 50
0.000000000
 51
90.000000000
  0
LINE
  5
A7F
330
A02
100
AcDbEntity
  8
SheetCutProfiles
100
AcDbLine
 10
117.475000000
 20
498.400000000
 30
0.000000000
 11
117.475000000
 21
510.000000000
 31
0.000000000
  0
LINE
  5
A80
330
A02
100
AcDbEntity
  8
SheetCutProfiles
100
AcDbLine
 10
159.025000000
 20
498.400000000
 30
0.000000000
 11
117.475000000
 21
498.400000000
 31
0.000000000
  0
LINE
  5
A81
330
A02
100
AcDbEntity
  8
SheetCutProfiles
100
AcDbLine
 10
159.025000000
 20
510.000000000
 30
0.000000000
 11
159.025000000
 21
498.400000000
 31
0.000000000
  0
ARC
  5
A82
330
A02
100
AcDbEntity
  8
SheetCutProfiles
100
AcDbCircle
 10
161.025000000
 20
510.000000000
 30
0.000000000
 40
2.000000000
100
AcDbArc
 50
90.000000000
 51
180.000000000
  0
LINE
  5
A83
330
A02
100
AcDbEntity
  8
SheetCutProfiles
100
AcDbLine
 10
161.025000000
 20
512.000000000
 30
0.000000000
 11
198.575000000
 21
512.000000000
 31
0.000000000
  0
ARC
  5
A84
330
A02
100
AcDbEntity
  8
SheetCutProfiles
100
AcDbCircle
 10
198.575000000
 20
510.000000000
 30
0.000000000
 40
2.000000000
100
AcDbArc
 50
0.000000000
 51
90.000000000
  0
LINE
  5
A85
330
A02
100
AcDbEntity
  8
SheetCutProfiles
100
AcDbLine
 10
200.575000000
 20
498.400000000
 30
0.000000000
 11
200.575000000
 21
510.000000000
 31
0.000000000
  0
LINE
  5
A86
330
A02
100
AcDbEntity
  8
SheetCutProfiles
100
AcDbLine
 10
242.125000000
 20
498.400000000
 30
0.000000000
 11
200.575000000
 21
498.400000000
 31
0.000000000
  0
LINE
  5
A87
330
A02
100
AcDbEntity
  8
SheetCutProfiles
100
AcDbLine
 10
242.125000000
 20
510.000000000
 30
0.000000000
 11
242.125000000
 21
498.400000000
 31
0.000000000
  0
ARC
  5
A88
330
A02
100
AcDbEntity
  8
SheetCutProfiles
100
AcDbCircle
 10
244.125000000
 20
510.000000000
 30
0.000000000
 40
2.000000000
100
AcDbArc
 50
90.000000000
 51
180.000000000
  0
LINE
  5
A89
330
A02
100
AcDbEntity
  8
SheetCutProfiles
100
AcDbLine
 10
244.125000000
 20
512.000000000
 30
0.000000000
 11
281.675000000
 21
512.000000000
 31
0.000000000
  0
ARC
  5
A8A
330
A02
100
AcDbEntity
  8
SheetCutProfiles
100
AcDbCircle
 10
281.675000000
 20
510.000000000
 30
0.000000000
 40
2.000000000
100
AcDbArc
 50
0.000000000
 51
90.000000000
  0
LINE
  5
A8B
330
A02
100
AcDbEntity
  8
SheetCutProfiles
100
AcDbLine
 10
283.675000000
 20
498.400000000
 30
0.000000000
 11
283.675000000
 21
510.000000000
 31
0.000000000
  0
LINE
  5
A8C
330
A02
100
AcDbEntity
  8
SheetCutProfiles
100
AcDbLine
 10
325.225000000
 20
498.400000000
 30
0.000000000
 11
283.675000000
 21
498.400000000
 31
0.000000000
  0
CIRCLE
  5
A8D
330
A02
100
AcDbEntity
  8
SheetCutProfiles
100
AcDbCircle
 10
288.300000000
 20
103.466666667
 30
0.000000000
 40
3.000000000
  0
CIRCLE
  5
A8E
330
A02
100
AcDbEntity
  8
SheetCutProfiles
100
AcDbCircle
 10
234.500000000
 20
103.466666667
 30
0.000000000
 40
3.000000000
  0
CIRCLE
  5
A8F
330
A02
100
AcDbEntity
  8
SheetCutProfiles
100
AcDbCircle
 10
122.100000000
 20
103.466666667
 30
0.000000000
 40
3.000000000
  0
CIRCLE
  5
A90
330
A02
100
AcDbEntity
  8
SheetCutProfiles
100
AcDbCircle
 10
68.300000000
 20
103.466666667
 30
0.000000000
 40
3.000000000
  0
CIRCLE
  5
A91
330
A02
100
AcDbEntity
  8
SheetCutProfiles
100
AcDbCircle
 10
288.300000000
 20
408.533333333
 30
0.000000000
 40
3.000000000
  0
CIRCLE
  5
A92
330
A02
100
AcDbEntity
  8
SheetCutProfiles
100
AcDbCircle
 10
234.500000000
 20
408.533333333
 30
0.000000000
 40
3.000000000
  0
CIRCLE
  5
A93
330
A02
100
AcDbEntity
  8
SheetCutProfiles
100
AcDbCircle
 10
122.100000000
 20
408.533333333
 30
0.000000000
 40
3.000000000
  0
CIRCLE
  5
A94
330
A02
100
AcDbEntity
  8
SheetCutProfiles
100
AcDbCircle
 10
68.300000000
 20
408.533333333
 30
0.000000000
 40
3.000000000
  0
LINE
  5
A95
330
A02
100
AcDbEntity
  8
SheetCutProfiles
100
AcDbLine
 10
840.800000000
 20
613.875000000
 30
0.000000000
 11
840.800000000
 21
521.525000000
 31
0.000000000
  0
LINE
  5
A96
330
A02
100
AcDbEntity
  8
SheetCutProfiles
100
AcDbLine
 10
840.800000000
 20
613.875000000
 30
0.000000000
 11
829.200000000
 21
613.875000000
 31
0.000000000
  0
ARC
  5
A97
330
A02
100
AcDbEntity
  8
SheetCutProfiles
100
AcDbCircle
 10
829.200000000
 20
615.875000000
 30
0.000000000
 40
2.000000000
100
AcDbArc
 50
180.000000000
 51
-90.000000000
  0
LINE
  5
A98
330
A02
100
AcDbEntity
  8
SheetCutProfiles
100
AcDbLine
 10
827.200000000
 20
704.225000000
 30
0.000000000
 11
827.200000000
 21
615.875000000
 31
0.000000000
  0
ARC
  5
A99
330
A02
100
AcDbEntity
  8
SheetCutProfiles
100
AcDbCircle
 10
829.200000000
 20
704.225000000
 30
0.000000000
 40
2.000000000
100
AcDbArc
 50
90.000000000
 51
180.000000000
  0
LINE
  5
A9A
330
A02
100
AcDbEntity
  8
SheetCutProfiles
100
AcDbLine
 10
829.200000000
 20
706.225000000
 30
0.000000000
 11
840.800000000
 21
706.225000000
 31
0.000000000
  0
LINE
  5
A9B
330
A02
100
AcDbEntity
  8
SheetCutProfiles
100
AcDbLine
 10
840.800000000
 20
752.400000000
 30
0.000000000
 11
840.800000000
 21
706.225000000
 31
0.000000000
  0
LINE
  5
A9C
330
A02
100
AcDbEntity
  8
SheetCutProfiles
100
AcDbLine
 10
850.325000000
 20
752.400000000
 30
0.000000000
 11
840.800000000
 21
752.400000000
 31
0.000000000
  0
LINE
  5
A9D
330
A02
100
AcDbEntity
  8
SheetCutProfiles
100
AcDbLine
 10
850.325000000
 20
752.400000000
 30
0.000000000
 11
850.325000000
 21
764.000000000
 31
0.000000000
  0
ARC
  5
A9E
330
A02
100
AcDbEntity
  8
SheetCutProfiles
100
AcDbCircle
 10
852.325000000
 20
764.000000000
 30
0.000000000
 40
2.000000000
100
AcDbArc
 50
90.000000000
 51
180.000000000
  0
LINE
  5
A9F
330
A02
100
AcDbEntity
  8
SheetCutProfiles
100
AcDbLine
 10
867.375000000
 20
766.000000000
 30
0.000000000
 11
852.325000000
 21
766.000000000
 31
0.000000000
  0
ARC
  5
AA0
330
A02
100
AcDbEntity
  8
SheetCutProfiles
100
AcDbCircle
 10
867.375000000
 20
764.000000000
 30
0.000000000
 40
2.000000000
100
AcDbArc
 50
0.000000000
 51
90.000000000
  0
LINE
  5
AA1
330
A02
100
AcDbEntity
  8
SheetCutProfiles
100
AcDbLine
 10
869.375000000
 20
764.000000000
 30
0.000000000
 11
869.375000000
 21
752.400000000
 31
0.000000000
  0
LINE
  5
AA2
330
A02
100
AcDbEntity
  8
SheetCutProfiles
100
AcDbLine
 10
888.425000000
 20
752.400000000
 30
0.000000000
 11
869.375000000
 21
752.400000000
 31
0.000000000
  0
LINE
  5
AA3
330
A02
100
AcDbEntity
  8
SheetCutProfiles
100
AcDbLine
 10
888.425000000
 20
752.400000000
 30
0.000000000
 11
888.425000000
 21
764.000000000
 31
0.000000000
  0
ARC
  5
AA4
330
A02
100
AcDbEntity
  8
SheetCutProfiles
100
AcDbCircle
 10
890.425000000
 20
764.000000000
 30
0.000000000
 40
2.000000000
100
AcDbArc
 50
90.000000000
 51
180.000000000
  0
LINE
  5
AA5
330
A02
100
AcDbEntity
  8
SheetCutProfiles
100
AcDbLine
 10
905.475000000
 20
766.000000000
 30
0.000000000
 11
890.425000000
 21
766.000000000
 31
0.000000000
  0
ARC
  5
AA6
330
A02
100
AcDbEntity
  8
SheetCutProfiles
100
AcDbCircle
 10
905.475000000
 20
764.000000000
 30
0.000000000
 40
2.000000000
100
AcDbArc
 50
0.000000000
 51
90.000000000
  0
LINE
  5
AA7
330
A02
100
AcDbEntity
  8
SheetCutProfiles
100
AcDbLine
 10
907.475000000
 20
764.000000000
 30
0.000000000
 11
907.475000000
 21
752.400000000
 31
0.000000000
  0
LINE
  5
AA8
330
A02
100
AcDbEntity
  8
SheetCutProfiles
100
AcDbLine
 10
926.525000000
 20
752.400000000
 30
0.000000000
 11
907.475000000
 21
752.400000000
 31
0.000000000
  0
LINE
  5
AA9
330
A02
100
AcDbEntity
  8
SheetCutProfiles
100
AcDbLine
 10
926.525000000
 20
752.400000000
 30
0.000000000
 11
926.525000000
 21
764.000000000
 31
0.000000000
  0
ARC
  5
AAA
330
A02
100
AcDbEntity
  8
SheetCutProfiles
100
AcDbCircle
 10
928.525000000
 20
764.000000000
 30
0.000000000
 40
2.000000000
100
AcDbArc
 50
90.000000000
 51
180.000000000
  0
LINE
  5
AAB
330
A02
100
AcDbEntity
  8
SheetCutProfiles
100
AcDbLine
 10
943.575000000
 20
766.000000000
 30
0.000000000
 11
928.525000000
 21
766.000000000
 31
0.000000000
  0
ARC
  5
AAC
330
A02
100
AcDbEntity
  8
SheetCutProfiles
100
AcDbCircle
 10
943.575000000
 20
764.000000000
 30
0.000000000
 40
2.000000000
100
AcDbArc
 50
0.000000000
 51
90.000000000
  0
LINE
  5
AAD
330
A02
100
AcDbEntity
  8
SheetCutProfiles
100
AcDbLine
 10
945.575000000
 20
764.000000000
 30
0.000000000
 11
945.575000000
 21
752.400000000
 31
0.000000000
  0
LINE
  5
AAE
330
A02
100
AcDbEntity
  8
SheetCutProfiles
100
AcDbLine
 10
964.625000000
 20
752.400000000
 30
0.000000000
 11
945.575000000
 21
752.400000000
 31
0.000000000
  0
LINE
  5
AAF
330
A02
100
AcDbEntity
  8
SheetCutProfiles
100
AcDbLine
 10
964.625000000
 20
752.400000000
 30
0.000000000
 11
964.625000000
 21
764.000000000
 31
0.000000000
  0
ARC
  5
AB0
330
A02
100
AcDbEntity
  8
SheetCutProfiles
100
AcDbCircle
 10
966.625000000
 20
764.000000000
 30
0.000000000
 40
2.000000000
100
AcDbArc
 50
90.000000000
 51
180.000000000
  0
LINE
  5
AB1
330
A02
100
AcDbEntity
  8
SheetCutProfiles
100
AcDbLine
 10
981.675000000
 20
766.000000000
 30
0.000000000
 11
966.625000000
 21
766.000000000
 31
0.000000000
  0
ARC
  5
AB2
330
A02
100
AcDbEntity
  8
SheetCutProfiles
100
AcDbCircle
 10
981.675000000
 20
764.000000000
 30
0.000000000
 40
2.000000000
100
AcDbArc
 50
0.000000000
 51
90.000000000
  0
LINE
  5
AB3
330
A02
100
AcDbEntity
  8
SheetCutProfiles
100
AcDbLine
 10
983.675000000
 20
764.000000000
 30
0.000000000
 11
983.675000000
 21
752.400000000
 31
0.000000000
  0
LINE
  5
AB4
330
A02
100
AcDbEntity
  8
SheetCutProfiles
100
AcDbLine
 10
993.200000000
 20
752.400000000
 30
0.000000000
 11
983.675000000
 21
752.400000000
 31
0.000000000
  0
LINE
  5
AB5
330
A02
100
AcDbEntity
  8
SheetCutProfiles
100
AcDbLine
 10
993.200000000
 20
752.400000000
 30
0.000000000
 11
993.200000000
 21
13.600000000
 31
0.000000000
  0
LINE
  5
AB6
330
A02
100
AcDbEntity
  8
SheetCutProfiles
100
AcDbLine
 10
993.200000000
 20
13.600000000
 30
0.000000000
 11
983.675000000
 21
13.600000000
 31
0.000000000
  0
LINE
  5
AB7
330
A02
100
AcDbEntity
  8
SheetCutProfiles
100
AcDbLine
 10
983.675000000
 20
2.000000000
 30
0.000000000
 11
983.675000000
 21
13.600000000
 31
0.000000000
  0
ARC
  5
AB8
330
A02
100
AcDbEntity
  8
SheetCutProfiles
100
AcDbCircle
 10
981.675000000
 20
2.000000000
 30
0.000000000
 40
2.000000000
100
AcDbArc
 50
-90.000000000
 51
0.000000000
  0
LINE
  5
AB9
330
A02
100
AcDbEntity
  8
SheetCutProfiles
100
AcDbLine
 10
981.675000000
 20
0.000000000
 30
0.000000000
 11
966.625000000
 21
0.000000000
 31
0.000000000
  0
ARC
  5
ABA
330
A02
100
AcDbEntity
  8
SheetCutProfiles
100
AcDbCircle
 10
966.625000000
 20
2.000000000
 30
0.000000000
 40
2.000000000
100
AcDbArc
 50
180.000000000
 51
-90.000000000
  0
LINE
  5
ABB
330
A02
100
AcDbEntity
  8
SheetCutProfiles
100
AcDbLine
 10
964.625000000
 20
13.600000000
 30
0.000000000
 11
964.625000000
 21
2.000000000
 31
0.000000000
  0
LINE
  5
ABC
330
A02
100
AcDbEntity
  8
SheetCutProfiles
100
AcDbLine
 10
964.625000000
 20
13.600000000
 30
0.000000000
 11
945.575000000
 21
13.600000000
 31
0.000000000
  0
LINE
  5
ABD
330
A02
100
AcDbEntity
  8
SheetCutProfiles
100
AcDbLine
 10
945.575000000
 20
2.000000000
 30
0.000000000
 11
945.575000000
 21
13.600000000
 31
0.000000000
  0
ARC
  5
ABE
330
A02
100
AcDbEntity
  8
SheetCutProfiles
100
AcDbCircle
 10
943.575000000
 20
2.000000000
 30
0.000000000
 40
2.000000000
100
AcDbArc
 50
-90.000000000
 51
0.000000000
  0
LINE
  5
ABF
330
A02
100
AcDbEntity
  8
SheetCutProfiles
100
AcDbLine
 10
943.575000000
 20
0.000000000
 30
0.000000000
 11
928.525000000
 21
0.000000000
 31
0.000000000
  0
ARC
  5
AC0
330
A02
100
AcDbEntity
  8
SheetCutProfiles
100
AcDbCircle
 10
928.525000000
 20
2.000000000
 30
0.000000000
 40
2.000000000
100
AcDbArc
 50
180.000000000
 51
-90.000000000
  0
LINE
  5
AC1
330
A02
100
AcDbEntity
  8
SheetCutProfiles
100
AcDbLine
 10
926.525000000
 20
13.600000000
 30
0.000000000
 11
926.525000000
 21
2.000000000
 31
0.000000000
  0
LINE
  5
AC2
330
A02
100
AcDbEntity
  8
SheetCutProfiles
100
AcDbLine
 10
926.525000000
 20
13.600000000
 30
0.000000000
 11
907.475000000
 21
13.600000000
 31
0.000000000
  0
LINE
  5
AC3
330
A02
100
AcDbEntity
  8
SheetCutProfiles
100
AcDbLine
 10
907.475000000
 20
2.000000000
 30
0.000000000
 11
907.475000000
 21
13.600000000
 31
0.000000000
  0
ARC
  5
AC4
330
A02
100
AcDbEntity
  8
SheetCutProfiles
100
AcDbCircle
 10
905.475000000
 20
2.000000000
 30
0.000000000
 40
2.000000000
100
AcDbArc
 50
-90.000000000
 51
0.000000000
  0
LINE
  5
AC5
330
A02
100
AcDbEntity
  8
SheetCutProfiles
100
AcDbLine
 10
905.475000000
 20
0.000000000
 30
0.000000000
 11
890.425000000
 21
0.000000000
 31
0.000000000
  0
ARC
  5
AC6
330
A02
100
AcDbEntity
  8
SheetCutProfiles
100
AcDbCircle
 10
890.425000000
 20
2.000000000
 30
0.000000000
 40
2.000000000
100
AcDbArc
 50
180.000000000
 51
-90.000000000
  0
LINE
  5
AC7
330
A02
100
AcDbEntity
  8
SheetCutProfiles
100
AcDbLine
 10
888.425000000
 20
13.600000000
 30
0.000000000
 11
888.425000000
 21
2.000000000
 31
0.000000000
  0
LINE
  5
AC8
330
A02
100
AcDbEntity
  8
SheetCutProfiles
100
AcDbLine
 10
888.425000000
 20
13.600000000
 30
0.000000000
 11
869.375000000
 21
13.600000000
 31
0.000000000
  0
LINE
  5
AC9
330
A02
100
AcDbEntity
  8
SheetCutProfiles
100
AcDbLine
 10
869.375000000
 20
2.000000000
 30
0.000000000
 11
869.375000000
 21
13.600000000
 31
0.000000000
  0
ARC
  5
ACA
330
A02
100
AcDbEntity
  8
SheetCutProfiles
100
AcDbCircle
 10
867.375000000
 20
2.000000000
 30
0.000000000
 40
2.000000000
100
AcDbArc
 50
-90.000000000
 51
0.000000000
  0
LINE
  5
ACB
330
A02
100
AcDbEntity
  8
SheetCutProfiles
100
AcDbLine
 10
867.375000000
 20
0.000000000
 30
0.000000000
 11
852.325000000
 21
0.000000000
 31
0.000000000
  0
ARC
  5
ACC
330
A02
100
AcDbEntity
  8
SheetCutProfiles
100
AcDbCircle
 10
852.325000000
 20
2.000000000
 30
0.000000000
 40
2.000000000
100
AcDbArc
 50
180.000000000
 51
-90.000000000
  0
LINE
  5
ACD
330
A02
100
AcDbEntity
  8
SheetCutProfiles
100
AcDbLine
 10
850.325000000
 20
13.600000000
 30
0.000000000
 11
850.325000000
 21
2.000000000
 31
0.000000000
  0
LINE
  5
ACE
330
A02
100
AcDbEntity
  8
SheetCutProfiles
100
AcDbLine
 10
850.325000000
 20
13.600000000
 30
0.000000000
 11
840.800000000
 21
13.600000000
 31
0.000000000
  0
LINE
  5
ACF
330
A02
100
AcDbEntity
  8
SheetCutProfiles
100
AcDbLine
 10
840.800000000
 20
59.775000000
 30
0.000000000
 11
840.800000000
 21
13.600000000
 31
0.000000000
  0
LINE
  5
AD0
330
A02
100
AcDbEntity
  8
SheetCutProfiles
100
AcDbLine
 10
840.800000000
 20
59.775000000
 30
0.000000000
 11
829.200000000
 21
59.775000000
 31
0.000000000
  0
ARC
  5
AD1
330
A02
100
AcDbEntity
  8
SheetCutProfiles
100
AcDbCircle
 10
829.200000000
 20
61.775000000
 30
0.000000000
 40
2.000000000
100
AcDbArc
 50
180.000000000
 51
-90.000000000
  0
LINE
  5
AD2
330
A02
100
AcDbEntity
  8
SheetCutProfiles
100
AcDbLine
 10
827.200000000
 20
150.125000000
 30
0.000000000
 11
827.200000000
 21
61.775000000
 31
0.000000000
  0
ARC
  5
AD3
330
A02
100
AcDbEntity
  8
SheetCutProfiles
100
AcDbCircle
 10
829.200000000
 20
150.125000000
 30
0.000000000
 40
2.000000000
100
AcDbArc
 50
90.000000000
 51
180.000000000
  0
LINE
  5
AD4
330
A02
100
AcDbEntity
  8
SheetCutProfiles
100
AcDbLine
 10
829.200000000
 20
152.125000000
 30
0.000000000
 11
840.800000000
 21
152.125000000
 31
0.000000000
  0
LINE
  5
AD5
330
A02
100
AcDbEntity
  8
SheetCutProfiles
100
AcDbLine
 10
840.800000000
 20
244.475000000
 30
0.000000000
 11
840.800000000
 21
152.125000000
 31
0.000000000
  0
LINE
  5
AD6
330
A02
100
AcDbEntity
  8
SheetCutProfiles
100
AcDbLine
 10
840.800000000
 20
244.475000000
 30
0.000000000
 11
829.200000000
 21
244.475000000
 31
0.000000000
  0
ARC
  5
AD7
330
A02
100
AcDbEntity
  8
SheetCutProfiles
100
AcDbCircle
 10
829.200000000
 20
246.475000000
 30
0.000000000
 40
2.000000000
100
AcDbArc
 50
180.000000000
 51
-90.000000000
  0
LINE
  5
AD8
330
A02
100
AcDbEntity
  8
SheetCutProfiles
100
AcDbLine
 10
827.200000000
 20
334.825000000
 30
0.000000000
 11
827.200000000
 21
246.475000000
 31
0.000000000
  0
ARC
  5
AD9
330
A02
100
AcDbEntity
  8
SheetCutProfiles
100
AcDbCircle
 10
829.200000000
 20
334.825000000
 30
0.000000000
 40
2.000000000
100
AcDbArc
 50
90.000000000
 51
180.000000000
  0
LINE
  5
ADA
330
A02
100
AcDbEntity
  8
SheetCutProfiles
100
AcDbLine
 10
829.200000000
 20
336.825000000
 30
0.000000000
 11
840.800000000
 21
336.825000000
 31
0.000000000
  0
LINE
  5
ADB
330
A02
100
AcDbEntity
  8
SheetCutProfiles
100
AcDbLine
 10
840.800000000
 20
429.175000000
 30
0.000000000
 11
840.800000000
 21
336.825000000
 31
0.000000000
  0
LINE
  5
ADC
330
A02
100
AcDbEntity
  8
SheetCutProfiles
100
AcDbLine
 10
840.800000000
 20
429.175000000
 30
0.000000000
 11
829.200000000
 21
429.175000000
 31
0.000000000
  0
ARC
  5
ADD
330
A02
100
AcDbEntity
  8
SheetCutProfiles
100
AcDbCircle
 10
829.200000000
 20
431.175000000
 30
0.000000000
 40
2.000000000
100
AcDbArc
 50
180.000000000
 51
-90.000000000
  0
LINE
  5
ADE
330
A02
100
AcDbEntity
  8
SheetCutProfiles
100
AcDbLine
 10
827.200000000
 20
519.525000000
 30
0.000000000
 11
827.200000000
 21
431.175000000
 31
0.000000000
  0
ARC
  5
ADF
330
A02
100
AcDbEntity
  8
SheetCutProfiles
100
AcDbCircle
 10
829.200000000
 20
519.525000000
 30
0.000000000
 40
2.000000000
100
AcDbArc
 50
90.000000000
 51
180.000000000
  0
LINE
  5
AE0
330
A02
100
AcDbEntity
  8
SheetCutProfiles
100
AcDbLine
 10
829.200000000
 20
521.525000000
 30
0.000000000
 11
840.800000000
 21
521.525000000
 31
0.000000000
  0
CIRCLE
  5
AE1
330
A02
100
AcDbEntity
  8
SheetCutProfiles
100
AcDbCircle
 10
910.200000000
 20
127.666666667
 30
0.000000000
 40
3.000000000
  0
CIRCLE
  5
AE2
330
A02
100
AcDbEntity
  8
SheetCutProfiles
100
AcDbCircle
 10
910.200000000
 20
638.333333333
 30
0.000000000
 40
3.000000000
  0
LINE
  5
AE3
330
A02
100
AcDbEntity
  8
SheetCutProfiles
100
AcDbLine
 10
1150.600000000
 20
613.875000000
 30
0.000000000
 11
1150.600000000
 21
521.525000000
 31
0.000000000
  0
LINE
  5
AE4
330
A02
100
AcDbEntity
  8
SheetCutProfiles
100
AcDbLine
 10
1150.600000000
 20
613.875000000
 30
0.000000000
 11
1162.200000000
 21
613.875000000
 31
0.000000000
  0
ARC
  5
AE5
330
A02
100
AcDbEntity
  8
SheetCutProfiles
100
AcDbCircle
 10
1162.200000000
 20
615.875000000
 30
0.000000000
 40
2.000000000
100
AcDbArc
 50
-90.000000000
 51
0.000000000
  0
LINE
  5
AE6
330
A02
100
AcDbEntity
  8
SheetCutProfiles
100
AcDbLine
 10
1164.200000000
 20
704.225000000
 30
0.000000000
 11
1164.200000000
 21
615.875000000
 31
0.000000000
  0
ARC
  5
AE7
330
A02
100
AcDbEntity
  8
SheetCutProfiles
100
AcDbCircle
 10
1162.200000000
 20
704.225000000
 30
0.000000000
 40
2.000000000
100
AcDbArc
 50
0.000000000
 51
90.000000000
  0
LINE
  5
AE8
330
A02
100
AcDbEntity
  8
SheetCutProfiles
100
AcDbLine
 10
1162.200000000
 20
706.225000000
 30
0.000000000
 11
1150.600000000
 21
706.225000000
 31
0.000000000
  0
LINE
  5
AE9
330
A02
100
AcDbEntity
  8
SheetCutProfiles
100
AcDbLine
 10
1150.600000000
 20
752.400000000
 30
0.000000000
 11
1150.600000000
 21
706.225000000
 31
0.000000000
  0
LINE
  5
AEA
330
A02
100
AcDbEntity
  8
SheetCutProfiles
100
AcDbLine
 10
1141.075000000
 20
752.400000000
 30
0.000000000
 11
1150.600000000
 21
752.400000000
 31
0.000000000
  0
LINE
  5
AEB
330
A02
100
AcDbEntity
  8
SheetCutProfiles
100
AcDbLine
 10
1141.075000000
 20
752.400000000
 30
0.000000000
 11
1141.075000000
 21
764.000000000
 31
0.000000000
  0
ARC
  5
AEC
330
A02
100
AcDbEntity
  8
SheetCutProfiles
100
AcDbCircle
 10
1139.075000000
 20
764.000000000
 30
0.000000000
 40
2.000000000
100
AcDbArc
 50
0.000000000
 51
90.000000000
  0
LINE
  5
AED
330
A02
100
AcDbEntity
  8
SheetCutProfiles
100
AcDbLine
 10
1124.025000000
 20
766.000000000
 30
0.000000000
 11
1139.075000000
 21
766.000000000
 31
0.000000000
  0
ARC
  5
AEE
330
A02
100
AcDbEntity
  8
SheetCutProfiles
100
AcDbCircle
 10
1124.025000000
 20
764.000000000
 30
0.000000000
 40
2.000000000
100
AcDbArc
 50
90.000000000
 51
180.000000000
  0
LINE
  5
AEF
330
A02
100
AcDbEntity
  8
SheetCutProfiles
100
AcDbLine
 10
1122.025000000
 20
764.000000000
 30
0.000000000
 11
1122.025000000
 21
752.400000000
 31
0.000000000
  0
LINE
  5
AF0
330
A02
100
AcDbEntity
  8
SheetCutProfiles
100
AcDbLine
 10
1102.975000000
 20
752.400000000
 30
0.000000000
 11
1122.025000000
 21
752.400000000
 31
0.000000000
  0
LINE
  5
AF1
330
A02
100
AcDbEntity
  8
SheetCutProfiles
100
AcDbLine
 10
1102.975000000
 20
752.400000000
 30
0.000000000
 11
1102.975000000
 21
764.000000000
 31
0.000000000
  0
ARC
  5
AF2
330
A02
100
AcDbEntity
  8
SheetCutProfiles
100
AcDbCircle
 10
1100.975000000
 20
764.000000000
 30
0.000000000
 40
2.000000000
100
AcDbArc
 50
0.000000000
 51
90.000000000
  0
LINE
  5
AF3
330
A02
100
AcDbEntity
  8
SheetCutProfiles
100
AcDbLine
 10
1085.925000000
 20
766.000000000
 30
0.000000000
 11
1100.975000000
 21
766.000000000
 31
0.000000000
  0
ARC
  5
AF4
330
A02
100
AcDbEntity
  8
SheetCutProfiles
100
AcDbCircle
 10
1085.925000000
 20
764.000000000
 30
0.000000000
 40
2.000000000
100
AcDbArc
 50
90.000000000
 51
180.000000000
  0
LINE
  5
AF5
330
A02
100
AcDbEntity
  8
SheetCutProfiles
100
AcDbLine
 10
1083.925000000
 20
764.000000000
 30
0.000000000
 11
1083.925000000
 21
752.400000000
 31
0.000000000
  0
LINE
  5
AF6
330
A02
100
AcDbEntity
  8
SheetCutProfiles
100
AcDbLine
 10
1064.875000000
 20
752.400000000
 30
0.000000000
 11
1083.925000000
 21
752.400000000
 31
0.000000000
  0
LINE
  5
AF7
330
A02
100
AcDbEntity
  8
SheetCutProfiles
100
AcDbLine
 10
1064.875000000
 20
752.400000000
 30
0.000000000
 11
1064.875000000
 21
764.000000000
 31
0.000000000
  0
ARC
  5
AF8
330
A02
100
AcDbEntity
  8
SheetCutProfiles
100
AcDbCircle
 10
1062.875000000
 20
764.000000000
 30
0.000000000
 40
2.000000000
100
AcDbArc
 50
0.000000000
 51
90.000000000
  0
LINE
  5
AF9
330
A02
100
AcDbEntity
  8
SheetCutProfiles
100
AcDbLine
 10
1047.825000000
 20
766.000000000
 30
0.000000000
 11
1062.875000000
 21
766.000000000
 31
0.000000000
  0
ARC
  5
AFA
330
A02
100
AcDbEntity
  8
SheetCutProfiles
100
AcDbCircle
 10
1047.825000000
 20
764.000000000
 30
0.000000000
 40
2.000000000
100
AcDbArc
 50
90.000000000
 51
180.000000000
  0
LINE
  5
AFB
330
A02
100
AcDbEntity
  8
SheetCutProfiles
100
AcDbLine
 10
1045.825000000
 20
764.000000000
 30
0.000000000
 11
1045.825000000
 21
752.400000000
 31
0.000000000
  0
LINE
  5
AFC
330
A02
100
AcDbEntity
  8
SheetCutProfiles
100
AcDbLine
 10
1026.775000000
 20
752.400000000
 30
0.000000000
 11
1045.825000000
 21
752.400000000
 31
0.000000000
  0
LINE
  5
AFD
330
A02
100
AcDbEntity
  8
SheetCutProfiles
100
AcDbLine
 10
1026.775000000
 20
752.400000000
 30
0.000000000
 11
1026.775000000
 21
764.000000000
 31
0.000000000
  0
ARC
  5
AFE
330
A02
100
AcDbEntity
  8
SheetCutProfiles
100
AcDbCircle
 10
1024.775000000
 20
764.000000000
 30
0.000000000
 40
2.000000000
100
AcDbArc
 50
0.000000000
 51
90.000000000
  0
LINE
  5
AFF
330
A02
100
AcDbEntity
  8
SheetCutProfiles
100
AcDbLine
 10
1009.725000000
 20
766.000000000
 30
0.000000000
 11
1024.775000000
 21
766.000000000
 31
0.000000000
  0
ARC
  5
B00
330
A02
100
AcDbEntity
  8
SheetCutProfiles
100
AcDbCircle
 10
1009.725000000
 20
764.000000000
 30
0.000000000
 40
2.000000000
100
AcDbArc
 50
90.000000000
 51
180.000000000
  0
LINE
  5
B01
330
A02
100
AcDbEntity
  8
SheetCutProfiles
100
AcDbLine
 10
1007.725000000
 20
764.000000000
 30
0.000000000
 11
1007.725000000
 21
752.400000000
 31
0.000000000
  0
LINE
  5
B02
330
A02
100
AcDbEntity
  8
SheetCutProfiles
100
AcDbLine
 10
998.200000000
 20
752.400000000
 30
0.000000000
 11
1007.725000000
 21
752.400000000
 31
0.000000000
  0
LINE
  5
B03
330
A02
100
AcDbEntity
  8
SheetCutProfiles
100
AcDbLine
 10
998.200000000
 20
752.400000000
 30
0.000000000
 11
998.200000000
 21
13.600000000
 31
0.000000000
  0
LINE
  5
B04
330
A02
100
AcDbEntity
  8
SheetCutProfiles
100
AcDbLine
 10
998.200000000
 20
13.600000000
 30
0.000000000
 11
1007.725000000
 21
13.600000000
 31
0.000000000
  0
LINE
  5
B05
330
A02
100
AcDbEntity
  8
SheetCutProfiles
100
AcDbLine
 10
1007.725000000
 20
2.000000000
 30
0.000000000
 11
1007.725000000
 21
13.600000000
 31
0.000000000
  0
ARC
  5
B06
330
A02
100
AcDbEntity
  8
SheetCutProfiles
100
AcDbCircle
 10
1009.725000000
 20
2.000000000
 30
0.000000000
 40
2.000000000
100
AcDbArc
 50
180.000000000
 51
-90.000000000
  0
LINE
  5
B07
330
A02
100
AcDbEntity
  8
SheetCutProfiles
100
AcDbLine
 10
1009.725000000
 20
0.000000000
 30
0.000000000
 11
1024.775000000
 21
0.000000000
 31
0.000000000
  0
ARC
  5
B08
330
A02
100
AcDbEntity
  8
SheetCutProfiles
100
AcDbCircle
 10
1024.775000000
 20
2.000000000
 30
0.000000000
 40
2.000000000
100
AcDbArc
 50
-90.000000000
 51
0.000000000
  0
LINE
  5
B09
330
A02
100
AcDbEntity
  8
SheetCutProfiles
100
AcDbLine
 10
1026.775000000
 20
13.600000000
 30
0.000000000
 11
1026.775000000
 21
2.000000000
 31
0.000000000
  0
LINE
  5
B0A
330
A02
100
AcDbEntity
  8
SheetCutProfiles
100
AcDbLine
 10
1026.775000000
 20
13.600000000
 30
0.000000000
 11
1045.825000000
 21
13.600000000
 31
0.000000000
  0
LINE
  5
B0B
330
A02
100
AcDbEntity
  8
SheetCutProfiles
100
AcDbLine
 10
1045.825000000
 20
2.000000000
 30
0.000000000
 11
1045.825000000
 21
13.600000000
 31
0.000000000
  0
ARC
  5
B0C
330
A02
100
AcDbEntity
  8
SheetCutProfiles
100
AcDbCircle
 10
1047.825000000
 20
2.000000000
 30
0.000000000
 40
2.000000000
100
AcDbArc
 50
180.000000000
 51
-90.000000000
  0
LINE
  5
B0D
330
A02
100
AcDbEntity
  8
SheetCutProfiles
100
AcDbLine
 10
1047.825000000
 20
0.000000000
 30
0.000000000
 11
1062.875000000
 21
0.000000000
 31
0.000000000
  0
ARC
  5
B0E
330
A02
100
AcDbEntity
  8
SheetCutProfiles
100
AcDbCircle
 10
1062.875000000
 20
2.000000000
 30
0.000000000
 40
2.000000000
100
AcDbArc
 50
-90.000000000
 51
0.000000000
  0
LINE
  5
B0F
330
A02
100
AcDbEntity
  8
SheetCutProfiles
100
AcDbLine
 10
1064.875000000
 20
13.600000000
 30
0.000000000
 11
1064.875000000
 21
2.000000000
 31
0.000000000
  0
LINE
  5
B10
330
A02
100
AcDbEntity
  8
SheetCutProfiles
100
AcDbLine
 10
1064.875000000
 20
13.600000000
 30
0.000000000
 11
1083.925000000
 21
13.600000000
 31
0.000000000
  0
LINE
  5
B11
330
A02
100
AcDbEntity
  8
SheetCutProfiles
100
AcDbLine
 10
1083.925000000
 20
2.000000000
 30
0.000000000
 11
1083.925000000
 21
13.600000000
 31
0.000000000
  0
ARC
  5
B12
330
A02
100
AcDbEntity
  8
SheetCutProfiles
100
AcDbCircle
 10
1085.925000000
 20
2.000000000
 30
0.000000000
 40
2.000000000
100
AcDbArc
 50
180.000000000
 51
-90.000000000
  0
LINE
  5
B13
330
A02
100
AcDbEntity
  8
SheetCutProfiles
100
AcDbLine
 10
1085.925000000
 20
0.000000000
 30
0.000000000
 11
1100.975000000
 21
0.000000000
 31
0.000000000
  0
ARC
  5
B14
330
A02
100
AcDbEntity
  8
SheetCutProfiles
100
AcDbCircle
 10
1100.975000000
 20
2.000000000
 30
0.000000000
 40
2.000000000
100
AcDbArc
 50
-90.000000000
 51
0.000000000
  0
LINE
  5
B15
330
A02
100
AcDbEntity
  8
SheetCutProfiles
100
AcDbLine
 10
1102.975000000
 20
13.600000000
 30
0.000000000
 11
1102.975000000
 21
2.000000000
 31
0.000000000
  0
LINE
  5
B16
330
A02
100
AcDbEntity
  8
SheetCutProfiles
100
AcDbLine
 10
1102.975000000
 20
13.600000000
 30
0.000000000
 11
1122.025000000
 21
13.600000000
 31
0.000000000
  0
LINE
  5
B17
330
A02
100
AcDbEntity
  8
SheetCutProfiles
100
AcDbLine
 10
1122.025000000
 20
2.000000000
 30
0.000000000
 11
1122.025000000
 21
13.600000000
 31
0.000000000
  0
ARC
  5
B18
330
A02
100
AcDbEntity
  8
SheetCutProfiles
100
AcDbCircle
 10
1124.025000000
 20
2.000000000
 30
0.000000000
 40
2.000000000
100
AcDbArc
 50
180.000000000
 51
-90.000000000
  0
LINE
  5
B19
330
A02
100
AcDbEntity
  8
SheetCutProfiles
100
AcDbLine
 10
1124.025000000
 20
0.000000000
 30
0.000000000
 11
1139.075000000
 21
0.000000000
 31
0.000000000
  0
ARC
  5
B1A
330
A02
100
AcDbEntity
  8
SheetCutProfiles
100
AcDbCircle
 10
1139.075000000
 20
2.000000000
 30
0.000000000
 40
2.000000000
100
AcDbArc
 50
-90.000000000
 51
0.000000000
  0
LINE
  5
B1B
330
A02
100
AcDbEntity
  8
SheetCutProfiles
100
AcDbLine
 10
1141.075000000
 20
13.600000000
 30
0.000000000
 11
1141.075000000
 21
2.000000000
 31
0.000000000
  0
LINE
  5
B1C
330
A02
100
AcDbEntity
  8
SheetCutProfiles
100
AcDbLine
 10
1141.075000000
 20
13.600000000
 30
0.000000000
 11
1150.600000000
 21
13.600000000
 31
0.000000000
  0
LINE
  5
B1D
330
A02
100
AcDbEntity
  8
SheetCutProfiles
100
AcDbLine
 10
1150.600000000
 20
59.775000000
 30
0.000000000
 11
1150.600000000
 21
13.600000000
 31
0.000000000
  0
LINE
  5
B1E
330
A02
100
AcDbEntity
  8
SheetCutProfiles
100
AcDbLine
 10
1150.600000000
 20
59.775000000
 30
0.000000000
 11
1162.200000000
 21
59.775000000
 31
0.000000000
  0
ARC
  5
B1F
330
A02
100
AcDbEntity
  8
SheetCutProfiles
100
AcDbCircle
 10
1162.200000000
 20
61.775000000
 30
0.000000000
 40
2.000000000
100
AcDbArc
 50
-90.000000000
 51
0.000000000
  0
LINE
  5
B20
330
A02
100
AcDbEntity
  8
SheetCutProfiles
100
AcDbLine
 10
1164.200000000
 20
150.125000000
 30
0.000000000
 11
1164.200000000
 21
61.775000000
 31
0.000000000
  0
ARC
  5
B21
330
A02
100
AcDbEntity
  8
SheetCutProfiles
100
AcDbCircle
 10
1162.200000000
 20
150.125000000
 30
0.000000000
 40
2.000000000
100
AcDbArc
 50
0.000000000
 51
90.000000000
  0
LINE
  5
B22
330
A02
100
AcDbEntity
  8
SheetCutProfiles
100
AcDbLine
 10
1162.200000000
 20
152.125000000
 30
0.000000000
 11
1150.600000000
 21
152.125000000
 31
0.000000000
  0
LINE
  5
B23
330
A02
100
AcDbEntity
  8
SheetCutProfiles
100
AcDbLine
 10
1150.600000000
 20
244.475000000
 30
0.000000000
 11
1150.600000000
 21
152.125000000
 31
0.000000000
  0
LINE
  5
B24
330
A02
100
AcDbEntity
  8
SheetCutProfiles
100
AcDbLine
 10
1150.600000000
 20
244.475000000
 30
0.000000000
 11
1162.200000000
 21
244.475000000
 31
0.000000000
  0
ARC
  5
B25
330
A02
100
AcDbEntity
  8
SheetCutProfiles
100
AcDbCircle
 10
1162.200000000
 20
246.475000000
 30
0.000000000
 40
2.000000000
100
AcDbArc
 50
-90.000000000
 51
0.000000000
  0
LINE
  5
B26
330
A02
100
AcDbEntity
  8
SheetCutProfiles
100
AcDbLine
 10
1164.200000000
 20
334.825000000
 30
0.000000000
 11
1164.200000000
 21
246.475000000
 31
0.000000000
  0
ARC
  5
B27
330
A02
100
AcDbEntity
  8
SheetCutProfiles
100
AcDbCircle
 10
1162.200000000
 20
334.825000000
 30
0.000000000
 40
2.000000000
100
AcDbArc
 50
0.000000000
 51
90.000000000
  0
LINE
  5
B28
330
A02
100
AcDbEntity
  8
SheetCutProfiles
100
AcDbLine
 10
1162.200000000
 20
336.825000000
 30
0.000000000
 11
1150.600000000
 21
336.825000000
 31
0.000000000
  0
LINE
  5
B29
330
A02
100
AcDbEntity
  8
SheetCutProfiles
100
AcDbLine
 10
1150.600000000
 20
429.175000000
 30
0.000000000
 11
1150.600000000
 21
336.825000000
 31
0.000000000
  0
LINE
  5
B2A
330
A02
100
AcDbEntity
  8
SheetCutProfiles
100
AcDbLine
 10
1150.600000000
 20
429.175000000
 30
0.000000000
 11
1162.200000000
 21
429.175000000
 31
0.000000000
  0
ARC
  5
B2B
330
A02
100
AcDbEntity
  8
SheetCutProfiles
100
AcDbCircle
 10
1162.200000000
 20
431.175000000
 30
0.000000000
 40
2.000000000
100
AcDbArc
 50
-90.000000000
 51
0.000000000
  0
LINE
  5
B2C
330
A02
100
AcDbEntity
  8
SheetCutProfiles
100
AcDbLine
 10
1164.200000000
 20
519.525000000
 30
0.000000000
 11
1164.200000000
 21
431.175000000
 31
0.000000000
  0
ARC
  5
B2D
330
A02
100
AcDbEntity
  8
SheetCutProfiles
100
AcDbCircle
 10
1162.200000000
 20
519.525000000
 30
0.000000000
 40
2.000000000
100
AcDbArc
 50
0.000000000
 51
90.000000000
  0
LINE
  5
B2E
330
A02
100
AcDbEntity
  8
SheetCutProfiles
100
AcDbLine
 10
1162.200000000
 20
521.525000000
 30
0.000000000
 11
1150.600000000
 21
521.525000000
 31
0.000000000
  0
CIRCLE
  5
B2F
330
A02
100
AcDbEntity
  8
SheetCutProfiles
100
AcDbCircle
 10
1081.200000000
 20
127.666666667
 30
0.000000000
 40
3.000000000
  0
CIRCLE
  5
B30
330
A02
100
AcDbEntity
  8
SheetCutProfiles
100
AcDbCircle
 10
1081.200000000
 20
638.333333333
 30
0.000000000
 40
3.000000000
  0
LINE
  5
B31
330
A02
100
AcDbEntity
  8
SheetCutProfiles
100
AcDbLine
 10
700.750000000
 20
0.000000000
 30
0.000000000
 11
703.000000000
 21
0.000000000
 31
0.000000000
  0
ARC
  5
B32
330
A02
100
AcDbEntity
  8
SheetCutProfiles
100
AcDbCircle
 10
700.750000000
 20
2.000000000
 30
0.000000000
 40
2.000000000
100
AcDbArc
 50
180.000000000
 51
-90.000000000
  0
LINE
  5
B33
330
A02
100
AcDbEntity
  8
SheetCutProfiles
100
AcDbLine
 10
698.750000000
 20
13.600000000
 30
0.000000000
 11
698.750000000
 21
2.000000000
 31
0.000000000
  0
LINE
  5
B34
330
A02
100
AcDbEntity
  8
SheetCutProfiles
100
AcDbLine
 10
686.250000000
 20
13.600000000
 30
0.000000000
 11
698.750000000
 21
13.600000000
 31
0.000000000
  0
LINE
  5
B35
330
A02
100
AcDbEntity
  8
SheetCutProfiles
100
AcDbLine
 10
686.250000000
 20
2.000000000
 30
0.000000000
 11
686.250000000
 21
13.600000000
 31
0.000000000
  0
ARC
  5
B36
330
A02
100
AcDbEntity
  8
SheetCutProfiles
100
AcDbCircle
 10
684.250000000
 20
2.000000000
 30
0.000000000
 40
2.000000000
100
AcDbArc
 50
-90.000000000
 51
0.000000000
  0
LINE
  5
B37
330
A02
100
AcDbEntity
  8
SheetCutProfiles
100
AcDbLine
 10
675.750000000
 20
0.000000000
 30
0.000000000
 11
684.250000000
 21
0.000000000
 31
0.000000000
  0
ARC
  5
B38
330
A02
100
AcDbEntity
  8
SheetCutProfiles
100
AcDbCircle
 10
675.750000000
 20
2.000000000
 30
0.000000000
 40
2.000000000
100
AcDbArc
 50
180.000000000
 51
-90.000000000
  0
LINE
  5
B39
330
A02
100
AcDbEntity
  8
SheetCutProfiles
100
AcDbLine
 10
673.750000000
 20
13.600000000
 30
0.000000000
 11
673.750000000
 21
2.000000000
 31
0.000000000
  0
LINE
  5
B3A
330
A02
100
AcDbEntity
  8
SheetCutProfiles
100
AcDbLine
 10
661.250000000
 20
13.600000000
 30
0.000000000
 11
673.750000000
 21
13.600000000
 31
0.000000000
  0
LINE
  5
B3B
330
A02
100
AcDbEntity
  8
SheetCutProfiles
100
AcDbLine
 10
661.250000000
 20
2.000000000
 30
0.000000000
 11
661.250000000
 21
13.600000000
 31
0.000000000
  0
ARC
  5
B3C
330
A02
100
AcDbEntity
  8
SheetCutProfiles
100
AcDbCircle
 10
659.250000000
 20
2.000000000
 30
0.000000000
 40
2.000000000
100
AcDbArc
 50
-90.000000000
 51
0.000000000
  0
LINE
  5
B3D
330
A02
100
AcDbEntity
  8
SheetCutProfiles
100
AcDbLine
 10
650.750000000
 20
0.000000000
 30
0.000000000
 11
659.250000000
 21
0.000000000
 31
0.000000000
  0
ARC
  5
B3E
330
A02
100
AcDbEntity
  8
SheetCutProfiles
100
AcDbCircle
 10
650.750000000
 20
2.000000000
 30
0.000000000
 40
2.000000000
100
AcDbArc
 50
180.000000000
 51
-90.000000000
  0
LINE
  5
B3F
330
A02
100
AcDbEntity
  8
SheetCutProfiles
100
AcDbLine
 10
648.750000000
 20
13.600000000
 30
0.000000000
 11
648.750000000
 21
2.000000000
 31
0.000000000
  0
LINE
  5
B40
330
A02
100
AcDbEntity
  8
SheetCutProfiles
100
AcDbLine
 10
636.250000000
 20
13.600000000
 30
0.000000000
 11
648.750000000
 21
13.600000000
 31
0.000000000
  0
LINE
  5
B41
330
A02
100
AcDbEntity
  8
SheetCutProfiles
100
AcDbLine
 10
636.250000000
 20
2.000000000
 30
0.000000000
 11
636.250000000
 21
13.600000000
 31
0.000000000
  0
ARC
  5
B42
330
A02
100
AcDbEntity
  8
SheetCutProfiles
100
AcDbCircle
 10
634.250000000
 20
2.000000000
 30
0.000000000
 40
2.000000000
100
AcDbArc
 50
-90.000000000
 51
0.000000000
  0
LINE
  5
B43
330
A02
100
AcDbEntity
  8
SheetCutProfiles
100
AcDbLine
 10
625.750000000
 20
0.000000000
 30
0.000000000
 11
634.250000000
 21
0.000000000
 31
0.000000000
  0
ARC
  5
B44
330
A02
100
AcDbEntity
  8
SheetCutProfiles
100
AcDbCircle
 10
625.750000000
 20
2.000000000
 30
0.000000000
 40
2.000000000
100
AcDbArc
 50
180.000000000
 51
-90.000000000
  0
LINE
  5
B45
330
A02
100
AcDbEntity
  8
SheetCutProfiles
100
AcDbLine
 10
623.750000000
 20
13.600000000
 30
0.000000000
 11
623.750000000
 21
2.000000000
 31
0.000000000
  0
LINE
  5
B46
330
A02
100
AcDbEntity
  8
SheetCutProfiles
100
AcDbLine
 10
611.250000000
 20
13.600000000
 30
0.000000000
 11
623.750000000
 21
13.600000000
 31
0.000000000
  0
LINE
  5
B47
330
A02
100
AcDbEntity
  8
SheetCutProfiles
100
AcDbLine
 10
611.250000000
 20
2.000000000
 30
0.000000000
 11
611.250000000
 21
13.600000000
 31
0.000000000
  0
ARC
  5
B48
330
A02
100
AcDbEntity
  8
SheetCutProfiles
100
AcDbCircle
 10
609.250000000
 20
2.000000000
 30
0.000000000
 40
2.000000000
100
AcDbArc
 50
-90.000000000
 51
0.000000000
  0
LINE
  5
B49
330
A02
100
AcDbEntity
  8
SheetCutProfiles
100
AcDbLine
 10
607.000000000
 20
0.000000000
 30
0.000000000
 11
609.250000000
 21
0.000000000
 31
0.000000000
  0
ARC
  5
B4A
330
A02
100
AcDbEntity
  8
SheetCutProfiles
100
AcDbCircle
 10
607.000000000
 20
2.000000000
 30
0.000000000
 40
2.000000000
100
AcDbArc
 50
180.000000000
 51
-90.000000000
  0
LINE
  5
B4B
330
A02
100
AcDbEntity
  8
SheetCutProfiles
100
AcDbLine
 10
605.000000000
 20
437.400000000
 30
0.000000000
 11
605.000000000
 21
2.000000000
 31
0.000000000
  0
ARC
  5
B4C
330
A02
100
AcDbEntity
  8
SheetCutProfiles
100
AcDbCircle
 10
607.000000000
 20
437.400000000
 30
0.000000000
 40
2.000000000
100
AcDbArc
 50
90.000000000
 51
180.000000000
  0
LINE
  5
B4D
330
A02
100
AcDbEntity
  8
SheetCutProfiles
100
AcDbLine
 10
607.000000000
 20
439.400000000
 30
0.000000000
 11
609.250000000
 21
439.400000000
 31
0.000000000
  0
ARC
  5
B4E
330
A02
100
AcDbEntity
  8
SheetCutProfiles
100
AcDbCircle
 10
609.250000000
 20
437.400000000
 30
0.000000000
 40
2.000000000
100
AcDbArc
 50
0.000000000
 51
90.000000000
  0
LINE
  5
B4F
330
A02
100
AcDbEntity
  8
SheetCutProfiles
100
AcDbLine
 10
611.250000000
 20
425.800000000
 30
0.000000000
 11
611.250000000
 21
437.400000000
 31
0.000000000
  0
LINE
  5
B50
330
A02
100
AcDbEntity
  8
SheetCutProfiles
100
AcDbLine
 10
623.750000000
 20
425.800000000
 30
0.000000000
 11
611.250000000
 21
425.800000000
 31
0.000000000
  0
LINE
  5
B51
330
A02
100
AcDbEntity
  8
SheetCutProfiles
100
AcDbLine
 10
623.750000000
 20
437.400000000
 30
0.000000000
 11
623.750000000
 21
425.800000000
 31
0.000000000
  0
ARC
  5
B52
330
A02
100
AcDbEntity
  8
SheetCutProfiles
100
AcDbCircle
 10
625.750000000
 20
437.400000000
 30
0.000000000
 40
2.000000000
100
AcDbArc
 50
90.000000000
 51
180.000000000
  0
LINE
  5
B53
330
A02
100
AcDbEntity
  8
SheetCutProfiles
100
AcDbLine
 10
625.750000000
 20
439.400000000
 30
0.000000000
 11
634.250000000
 21
439.400000000
 31
0.000000000
  0
ARC
  5
B54
330
A02
100
AcDbEntity
  8
SheetCutProfiles
100
AcDbCircle
 10
634.250000000
 20
437.400000000
 30
0.000000000
 40
2.000000000
100
AcDbArc
 50
0.000000000
 51
90.000000000
  0
LINE
  5
B55
330
A02
100
AcDbEntity
  8
SheetCutProfiles
100
AcDbLine
 10
636.250000000
 20
425.800000000
 30
0.000000000
 11
636.250000000
 21
437.400000000
 31
0.000000000
  0
LINE
  5
B56
330
A02
100
AcDbEntity
  8
SheetCutProfiles
100
AcDbLine
 10
648.750000000
 20
425.800000000
 30
0.000000000
 11
636.250000000
 21
425.800000000
 31
0.000000000
  0
LINE
  5
B57
330
A02
100
AcDbEntity
  8
SheetCutProfiles
100
AcDbLine
 10
648.750000000
 20
437.400000000
 30
0.000000000
 11
648.750000000
 21
425.800000000
 31
0.000000000
  0
ARC
  5
B58
330
A02
100
AcDbEntity
  8
SheetCutProfiles
100
AcDbCircle
 10
650.750000000
 20
437.400000000
 30
0.000000000
 40
2.000000000
100
AcDbArc
 50
90.000000000
 51
180.000000000
  0
LINE
  5
B59
330
A02
100
AcDbEntity
  8
SheetCutProfiles
100
AcDbLine
 10
650.750000000
 20
439.400000000
 30
0.000000000
 11
659.250000000
 21
439.400000000
 31
0.000000000
  0
ARC
  5
B5A
330
A02
100
AcDbEntity
  8
SheetCutProfiles
100
AcDbCircle
 10
659.250000000
 20
437.400000000
 30
0.000000000
 40
2.000000000
100
AcDbArc
 50
0.000000000
 51
90.000000000
  0
LINE
  5
B5B
330
A02
100
AcDbEntity
  8
SheetCutProfiles
100
AcDbLine
 10
661.250000000
 20
425.800000000
 30
0.000000000
 11
661.250000000
 21
437.400000000
 31
0.000000000
  0
LINE
  5
B5C
330
A02
100
AcDbEntity
  8
SheetCutProfiles
100
AcDbLine
 10
673.750000000
 20
425.800000000
 30
0.000000000
 11
661.250000000
 21
425.800000000
 31
0.000000000
  0
LINE
  5
B5D
330
A02
100
AcDbEntity
  8
SheetCutProfiles
100
AcDbLine
 10
673.750000000
 20
437.400000000
 30
0.000000000
 11
673.750000000
 21
425.800000000
 31
0.000000000
  0
ARC
  5
B5E
330
A02
100
AcDbEntity
  8
SheetCutProfiles
100
AcDbCircle
 10
675.750000000
 20
437.400000000
 30
0.000000000
 40
2.000000000
100
AcDbArc
 50
90.000000000
 51
180.000000000
  0
LINE
  5
B5F
330
A02
100
AcDbEntity
  8
SheetCutProfiles
100
AcDbLine
 10
675.750000000
 20
439.400000000
 30
0.000000000
 11
684.250000000
 21
439.400000000
 31
0.000000000
  0
ARC
  5
B60
330
A02
100
AcDbEntity
  8
SheetCutProfiles
100
AcDbCircle
 10
684.250000000
 20
437.400000000
 30
0.000000000
 40
2.000000000
100
AcDbArc
 50
0.000000000
 51
90.000000000
  0
LINE
  5
B61
330
A02
100
AcDbEntity
  8
SheetCutProfiles
100
AcDbLine
 10
686.250000000
 20
425.800000000
 30
0.000000000
 11
686.250000000
 21
437.400000000
 31
0.000000000
  0
LINE
  5
B62
330
A02
100
AcDbEntity
  8
SheetCutProfiles
100
AcDbLine
 10
698.750000000
 20
425.800000000
 30
0.000000000
 11
686.250000000
 21
425.800000000
 31
0.000000000
  0
LINE
  5
B63
330
A02
100
AcDbEntity
  8
SheetCutProfiles
100
AcDbLine
 10
698.750000000
 20
437.400000000
 30
0.000000000
 11
698.750000000
 21
425.800000000
 31
0.000000000
  0
ARC
  5
B64
330
A02
100
AcDbEntity
  8
SheetCutProfiles
100
AcDbCircle
 10
700.750000000
 20
437.400000000
 30
0.000000000
 40
2.000000000
100
AcDbArc
 50
90.000000000
 51
180.000000000
  0
LINE
  5
B65
330
A02
100
AcDbEntity
  8
SheetCutProfiles
100
AcDbLine
 10
700.750000000
 20
439.400000000
 30
0.000000000
 11
703.000000000
 21
439.400000000
 31
0.000000000
  0
ARC
  5
B66
330
A02
100
AcDbEntity
  8
SheetCutProfiles
100
AcDbCircle
 10
703.000000000
 20
437.400000000
 30
0.000000000
 40
2.000000000
100
AcDbArc
 50
0.000000000
 51
90.000000000
  0
LINE
  5
B67
330
A02
100
AcDbEntity
  8
SheetCutProfiles
100
AcDbLine
 10
705.000000000
 20
437.400000000
 30
0.000000000
 11
705.000000000
 21
2.000000000
 31
0.000000000
  0
ARC
  5
B68
330
A02
100
AcDbEntity
  8
SheetCutProfiles
100
AcDbCircle
 10
703.000000000
 20
2.000000000
 30
0.000000000
 40
2.000000000
100
AcDbArc
 50
-90.000000000
 51
0.000000000
  0
LINE
  5
B69
330
A02
100
AcDbEntity
  8
SheetCutProfiles
100
AcDbLine
 10
686.500000000
 20
39.362500000
 30
0.000000000
 11
686.500000000
 21
90.887500000
 31
0.000000000
  0
LINE
  5
B6A
330
A02
100
AcDbEntity
  8
SheetCutProfiles
100
AcDbLine
 10
692.300000000
 20
39.362500000
 30
0.000000000
 11
686.500000000
 21
39.362500000
 31
0.000000000
  0
LINE
  5
B6B
330
A02
100
AcDbEntity
  8
SheetCutProfiles
100
AcDbLine
 10
692.300000000
 20
90.887500000
 30
0.000000000
 11
692.300000000
 21
39.362500000
 31
0.000000000
  0
LINE
  5
B6C
330
A02
100
AcDbEntity
  8
SheetCutProfiles
100
AcDbLine
 10
686.500000000
 20
90.887500000
 30
0.000000000
 11
692.300000000
 21
90.887500000
 31
0.000000000
  0
LINE
  5
B6D
330
A02
100
AcDbEntity
  8
SheetCutProfiles
100
AcDbLine
 10
686.500000000
 20
142.412500000
 30
0.000000000
 11
686.500000000
 21
193.937500000
 31
0.000000000
  0
LINE
  5
B6E
330
A02
100
AcDbEntity
  8
SheetCutProfiles
100
AcDbLine
 10
692.300000000
 20
142.412500000
 30
0.000000000
 11
686.500000000
 21
142.412500000
 31
0.000000000
  0
LINE
  5
B6F
330
A02
100
AcDbEntity
  8
SheetCutProfiles
100
AcDbLine
 10
692.300000000
 20
193.937500000
 30
0.000000000
 11
692.300000000
 21
142.412500000
 31
0.000000000
  0
LINE
  5
B70
330
A02
100
AcDbEntity
  8
SheetCutProfiles
100
AcDbLine
 10
686.500000000
 20
193.937500000
 30
0.000000000
 11
692.300000000
 21
193.937500000
 31
0.000000000
  0
CIRCLE
  5
B71
330
A02
100
AcDbEntity
  8
SheetCutProfiles
100
AcDbCircle
 10
655.000000000
 20
74.566666667
 30
0.000000000
 40
3.000000000
  0
LINE
  5
B72
330
A02
100
AcDbEntity
  8
SheetCutProfiles
100
AcDbLine
 10
686.500000000
 20
245.462500000
 30
0.000000000
 11
686.500000000
 21
296.987500000
 31
0.000000000
  0
LINE
  5
B73
330
A02
100
AcDbEntity
  8
SheetCutProfiles
100
AcDbLine
 10
692.300000000
 20
245.462500000
 30
0.000000000
 11
686.500000000
 21
245.462500000
 31
0.000000000
  0
LINE
  5
B74
330
A02
100
AcDbEntity
  8
SheetCutProfiles
100
AcDbLine
 10
692.300000000
 20
296.987500000
 30
0.000000000
 11
692.300000000
 21
245.462500000
 31
0.000000000
  0
LINE
  5
B75
330
A02
100
AcDbEntity
  8
SheetCutProfiles
100
AcDbLine
 10
686.500000000
 20
296.987500000
 30
0.000000000
 11
692.300000000
 21
296.987500000
 31
0.000000000
  0
LINE
  5
B76
330
A02
100
AcDbEntity
  8
SheetCutProfiles
100
AcDbLine
 10
686.500000000
 20
348.512500000
 30
0.000000000
 11
686.500000000
 21
400.037500000
 31
0.000000000
  0
LINE
  5
B77
330
A02
100
AcDbEntity
  8
SheetCutProfiles
100
AcDbLine
 10
692.300000000
 20
348.512500000
 30
0.000000000
 11
686.500000000
 21
348.512500000
 31
0.000000000
  0
LINE
  5
B78
330
A02
100
AcDbEntity
  8
SheetCutProfiles
100
AcDbLine
 10
692.300000000
 20
400.037500000
 30
0.000000000
 11
692.300000000
 21
348.512500000
 31
0.000000000
  0
LINE
  5
B79
330
A02
100
AcDbEntity
  8
SheetCutProfiles
100
AcDbLine
 10
686.500000000
 20
400.037500000
 30
0.000000000
 11
692.300000000
 21
400.037500000
 31
0.000000000
  0
CIRCLE
  5
B7A
330
A02
100
AcDbEntity
  8
SheetCutProfiles
100
AcDbCircle
 10
655.000000000
 20
364.833333333
 30
0.000000000
 40
3.000000000
  0
LINE
  5
B7B
330
A02
100
AcDbEntity
  8
SheetCutProfiles
100
AcDbLine
 10
490.750000000
 20
0.000000000
 30
0.000000000
 11
493.000000000
 21
0.000000000
 31
0.000000000
  0
ARC
  5
B7C
330
A02
100
AcDbEntity
  8
SheetCutProfiles
100
AcDbCircle
 10
490.750000000
 20
2.000000000
 30
0.000000000
 40
2.000000000
100
AcDbArc
 50
180.000000000
 51
-90.000000000
  0
LINE
  5
B7D
330
A02
100
AcDbEntity
  8
SheetCutProfiles
100
AcDbLine
 10
488.750000000
 20
13.600000000
 30
0.000000000
 11
488.750000000
 21
2.000000000
 31
0.000000000
  0
LINE
  5
B7E
330
A02
100
AcDbEntity
  8
SheetCutProfiles
100
AcDbLine
 10
476.250000000
 20
13.600000000
 30
0.000000000
 11
488.750000000
 21
13.600000000
 31
0.000000000
  0
LINE
  5
B7F
330
A02
100
AcDbEntity
  8
SheetCutProfiles
100
AcDbLine
 10
476.250000000
 20
2.000000000
 30
0.000000000
 11
476.250000000
 21
13.600000000
 31
0.000000000
  0
ARC
  5
B80
330
A02
100
AcDbEntity
  8
SheetCutProfiles
100
AcDbCircle
 10
474.250000000
 20
2.000000000
 30
0.000000000
 40
2.000000000
100
AcDbArc
 50
-90.000000000
 51
0.000000000
  0
LINE
  5
B81
330
A02
100
AcDbEntity
  8
SheetCutProfiles
100
AcDbLine
 10
465.750000000
 20
0.000000000
 30
0.000000000
 11
474.250000000
 21
0.000000000
 31
0.000000000
  0
ARC
  5
B82
330
A02
100
AcDbEntity
  8
SheetCutProfiles
100
AcDbCircle
 10
465.750000000
 20
2.000000000
 30
0.000000000
 40
2.000000000
100
AcDbArc
 50
180.000000000
 51
-90.000000000
  0
LINE
  5
B83
330
A02
100
AcDbEntity
  8
SheetCutProfiles
100
AcDbLine
 10
463.750000000
 20
13.600000000
 30
0.000000000
 11
463.750000000
 21
2.000000000
 31
0.000000000
  0
LINE
  5
B84
330
A02
100
AcDbEntity
  8
SheetCutProfiles
100
AcDbLine
 10
451.250000000
 20
13.600000000
 30
0.000000000
 11
463.750000000
 21
13.600000000
 31
0.000000000
  0
LINE
  5
B85
330
A02
100
AcDbEntity
  8
SheetCutProfiles
100
AcDbLine
 10
451.250000000
 20
2.000000000
 30
0.000000000
 11
451.250000000
 21
13.600000000
 31
0.000000000
  0
ARC
  5
B86
330
A02
100
AcDbEntity
  8
SheetCutProfiles
100
AcDbCircle
 10
449.250000000
 20
2.000000000
 30
0.000000000
 40
2.000000000
100
AcDbArc
 50
-90.000000000
 51
0.000000000
  0
LINE
  5
B87
330
A02
100
AcDbEntity
  8
SheetCutProfiles
100
AcDbLine
 10
440.750000000
 20
0.000000000
 30
0.000000000
 11
449.250000000
 21
0.000000000
 31
0.000000000
  0
ARC
  5
B88
330
A02
100
AcDbEntity
  8
SheetCutProfiles
100
AcDbCircle
 10
440.750000000
 20
2.000000000
 30
0.000000000
 40
2.000000000
100
AcDbArc
 50
180.000000000
 51
-90.000000000
  0
LINE
  5
B89
330
A02
100
AcDbEntity
  8
SheetCutProfiles
100
AcDbLine
 10
438.750000000
 20
13.600000000
 30
0.000000000
 11
438.750000000
 21
2.000000000
 31
0.000000000
  0
LINE
  5
B8A
330
A02
100
AcDbEntity
  8
SheetCutProfiles
100
AcDbLine
 10
426.250000000
 20
13.600000000
 30
0.000000000
 11
438.750000000
 21
13.600000000
 31
0.000000000
  0
LINE
  5
B8B
330
A02
100
AcDbEntity
  8
SheetCutProfiles
100
AcDbLine
 10
426.250000000
 20
2.000000000
 30
0.000000000
 11
426.250000000
 21
13.600000000
 31
0.000000000
  0
ARC
  5
B8C
330
A02
100
AcDbEntity
  8
SheetCutProfiles
100
AcDbCircle
 10
424.250000000
 20
2.000000000
 30
0.000000000
 40
2.000000000
100
AcDbArc
 50
-90.000000000
 51
0.000000000
  0
LINE
  5
B8D
330
A02
100
AcDbEntity
  8
SheetCutProfiles
100
AcDbLine
 10
415.750000000
 20
0.000000000
 30
0.000000000
 11
424.250000000
 21
0.000000000
 31
0.000000000
  0
ARC
  5
B8E
330
A02
100
AcDbEntity
  8
SheetCutProfiles
100
AcDbCircle
 10
415.750000000
 20
2.000000000
 30
0.000000000
 40
2.000000000
100
AcDbArc
 50
180.000000000
 51
-90.000000000
  0
LINE
  5
B8F
330
A02
100
AcDbEntity
  8
SheetCutProfiles
100
AcDbLine
 10
413.750000000
 20
13.600000000
 30
0.000000000
 11
413.750000000
 21
2.000000000
 31
0.000000000
  0
LINE
  5
B90
330
A02
100
AcDbEntity
  8
SheetCutProfiles
100
AcDbLine
 10
401.250000000
 20
13.600000000
 30
0.000000000
 11
413.750000000
 21
13.600000000
 31
0.000000000
  0
LINE
  5
B91
330
A02
100
AcDbEntity
  8
SheetCutProfiles
100
AcDbLine
 10
401.250000000
 20
2.000000000
 30
0.000000000
 11
401.250000000
 21
13.600000000
 31
0.000000000
  0
ARC
  5
B92
330
A02
100
AcDbEntity
  8
SheetCutProfiles
100
AcDbCircle
 10
399.250000000
 20
2.000000000
 30
0.000000000
 40
2.000000000
100
AcDbArc
 50
-90.000000000
 51
0.000000000
  0
LINE
  5
B93
330
A02
100
AcDbEntity
  8
SheetCutProfiles
100
AcDbLine
 10
397.000000000
 20
0.000000000
 30
0.000000000
 11
399.250000000
 21
0.000000000
 31
0.000000000
  0
ARC
  5
B94
330
A02
100
AcDbEntity
  8
SheetCutProfiles
100
AcDbCircle
 10
397.000000000
 20
2.000000000
 30
0.000000000
 40
2.000000000
100
AcDbArc
 50
180.000000000
 51
-90.000000000
  0
LINE
  5
B95
330
A02
100
AcDbEntity
  8
SheetCutProfiles
100
AcDbLine
 10
395.000000000
 20
437.400000000
 30
0.000000000
 11
395.000000000
 21
2.000000000
 31
0.000000000
  0
ARC
  5
B96
330
A02
100
AcDbEntity
  8
SheetCutProfiles
100
AcDbCircle
 10
397.000000000
 20
437.400000000
 30
0.000000000
 40
2.000000000
100
AcDbArc
 50
90.000000000
 51
180.000000000
  0
LINE
  5
B97
330
A02
100
AcDbEntity
  8
SheetCutProfiles
100
AcDbLine
 10
397.000000000
 20
439.400000000
 30
0.000000000
 11
399.250000000
 21
439.400000000
 31
0.000000000
  0
ARC
  5
B98
330
A02
100
AcDbEntity
  8
SheetCutProfiles
100
AcDbCircle
 10
399.250000000
 20
437.400000000
 30
0.000000000
 40
2.000000000
100
AcDbArc
 50
0.000000000
 51
90.000000000
  0
LINE
  5
B99
330
A02
100
AcDbEntity
  8
SheetCutProfiles
100
AcDbLine
 10
401.250000000
 20
425.800000000
 30
0.000000000
 11
401.250000000
 21
437.400000000
 31
0.000000000
  0
LINE
  5
B9A
330
A02
100
AcDbEntity
  8
SheetCutProfiles
100
AcDbLine
 10
413.750000000
 20
425.800000000
 30
0.000000000
 11
401.250000000
 21
425.800000000
 31
0.000000000
  0
LINE
  5
B9B
330
A02
100
AcDbEntity
  8
SheetCutProfiles
100
AcDbLine
 10
413.750000000
 20
437.400000000
 30
0.000000000
 11
413.750000000
 21
425.800000000
 31
0.000000000
  0
ARC
  5
B9C
330
A02
100
AcDbEntity
  8
SheetCutProfiles
100
AcDbCircle
 10
415.750000000
 20
437.400000000
 30
0.000000000
 40
2.000000000
100
AcDbArc
 50
90.000000000
 51
180.000000000
  0
LINE
  5
B9D
330
A02
100
AcDbEntity
  8
SheetCutProfiles
100
AcDbLine
 10
415.750000000
 20
439.400000000
 30
0.000000000
 11
424.250000000
 21
439.400000000
 31
0.000000000
  0
ARC
  5
B9E
330
A02
100
AcDbEntity
  8
SheetCutProfiles
100
AcDbCircle
 10
424.250000000
 20
437.400000000
 30
0.000000000
 40
2.000000000
100
AcDbArc
 50
0.000000000
 51
90.000000000
  0
LINE
  5
B9F
330
A02
100
AcDbEntity
  8
SheetCutProfiles
100
AcDbLine
 10
426.250000000
 20
425.800000000
 30
0.000000000
 11
426.250000000
 21
437.400000000
 31
0.000000000
  0
LINE
  5
BA0
330
A02
100
AcDbEntity
  8
SheetCutProfiles
100
AcDbLine
 10
438.750000000
 20
425.800000000
 30
0.000000000
 11
426.250000000
 21
425.800000000
 31
0.000000000
  0
LINE
  5
BA1
330
A02
100
AcDbEntity
  8
SheetCutProfiles
100
AcDbLine
 10
438.750000000
 20
437.400000000
 30
0.000000000
 11
438.750000000
 21
425.800000000
 31
0.000000000
  0
ARC
  5
BA2
330
A02
100
AcDbEntity
  8
SheetCutProfiles
100
AcDbCircle
 10
440.750000000
 20
437.400000000
 30
0.000000000
 40
2.000000000
100
AcDbArc
 50
90.000000000
 51
180.000000000
  0
LINE
  5
BA3
330
A02
100
AcDbEntity
  8
SheetCutProfiles
100
AcDbLine
 10
440.750000000
 20
439.400000000
 30
0.000000000
 11
449.250000000
 21
439.400000000
 31
0.000000000
  0
ARC
  5
BA4
330
A02
100
AcDbEntity
  8
SheetCutProfiles
100
AcDbCircle
 10
449.250000000
 20
437.400000000
 30
0.000000000
 40
2.000000000
100
AcDbArc
 50
0.000000000
 51
90.000000000
  0
LINE
  5
BA5
330
A02
100
AcDbEntity
  8
SheetCutProfiles
100
AcDbLine
 10
451.250000000
 20
425.800000000
 30
0.000000000
 11
451.250000000
 21
437.400000000
 31
0.000000000
  0
LINE
  5
BA6
330
A02
100
AcDbEntity
  8
SheetCutProfiles
100
AcDbLine
 10
463.750000000
 20
425.800000000
 30
0.000000000
 11
451.250000000
 21
425.800000000
 31
0.000000000
  0
LINE
  5
BA7
330
A02
100
AcDbEntity
  8
SheetCutProfiles
100
AcDbLine
 10
463.750000000
 20
437.400000000
 30
0.000000000
 11
463.750000000
 21
425.800000000
 31
0.000000000
  0
ARC
  5
BA8
330
A02
100
AcDbEntity
  8
SheetCutProfiles
100
AcDbCircle
 10
465.750000000
 20
437.400000000
 30
0.000000000
 40
2.000000000
100
AcDbArc
 50
90.000000000
 51
180.000000000
  0
LINE
  5
BA9
330
A02
100
AcDbEntity
  8
SheetCutProfiles
100
AcDbLine
 10
465.750000000
 20
439.400000000
 30
0.000000000
 11
474.250000000
 21
439.400000000
 31
0.000000000
  0
ARC
  5
BAA
330
A02
100
AcDbEntity
  8
SheetCutProfiles
100
AcDbCircle
 10
474.250000000
 20
437.400000000
 30
0.000000000
 40
2.000000000
100
AcDbArc
 50
0.000000000
 51
90.000000000
  0
LINE
  5
BAB
330
A02
100
AcDbEntity
  8
SheetCutProfiles
100
AcDbLine
 10
476.250000000
 20
425.800000000
 30
0.000000000
 11
476.250000000
 21
437.400000000
 31
0.000000000
  0
LINE
  5
BAC
330
A02
100
AcDbEntity
  8
SheetCutProfiles
100
AcDbLine
 10
488.750000000
 20
425.800000000
 30
0.000000000
 11
476.250000000
 21
425.800000000
 31
0.000000000
  0
LINE
  5
BAD
330
A02
100
AcDbEntity
  8
SheetCutProfiles
100
AcDbLine
 10
488.750000000
 20
437.400000000
 30
0.000000000
 11
488.750000000
 21
425.800000000
 31
0.000000000
  0
ARC
  5
BAE
330
A02
100
AcDbEntity
  8
SheetCutProfiles
100
AcDbCircle
 10
490.750000000
 20
437.400000000
 30
0.000000000
 40
2.000000000
100
AcDbArc
 50
90.000000000
 51
180.000000000
  0
LINE
  5
BAF
330
A02
100
AcDbEntity
  8
SheetCutProfiles
100
AcDbLine
 10
490.750000000
 20
439.400000000
 30
0.000000000
 11
493.000000000
 21
439.400000000
 31
0.000000000
  0
ARC
  5
BB0
330
A02
100
AcDbEntity
  8
SheetCutProfiles
100
AcDbCircle
 10
493.000000000
 20
437.400000000
 30
0.000000000
 40
2.000000000
100
AcDbArc
 50
0.000000000
 51
90.000000000
  0
LINE
  5
BB1
330
A02
100
AcDbEntity
  8
SheetCutProfiles
100
AcDbLine
 10
495.000000000
 20
437.400000000
 30
0.000000000
 11
495.000000000
 21
2.000000000
 31
0.000000000
  0
ARC
  5
BB2
330
A02
100
AcDbEntity
  8
SheetCutProfiles
100
AcDbCircle
 10
493.000000000
 20
2.000000000
 30
0.000000000
 40
2.000000000
100
AcDbArc
 50
-90.000000000
 51
0.000000000
  0
LINE
  5
BB3
330
A02
100
AcDbEntity
  8
SheetCutProfiles
100
AcDbLine
 10
476.500000000
 20
39.362500000
 30
0.000000000
 11
476.500000000
 21
90.887500000
 31
0.000000000
  0
LINE
  5
BB4
330
A02
100
AcDbEntity
  8
SheetCutProfiles
100
AcDbLine
 10
482.300000000
 20
39.362500000
 30
0.000000000
 11
476.500000000
 21
39.362500000
 31
0.000000000
  0
LINE
  5
BB5
330
A02
100
AcDbEntity
  8
SheetCutProfiles
100
AcDbLine
 10
482.300000000
 20
90.887500000
 30
0.000000000
 11
482.300000000
 21
39.362500000
 31
0.000000000
  0
LINE
  5
BB6
330
A02
100
AcDbEntity
  8
SheetCutProfiles
100
AcDbLine
 10
476.500000000
 20
90.887500000
 30
0.000000000
 11
482.300000000
 21
90.887500000
 31
0.000000000
  0
LINE
  5
BB7
330
A02
100
AcDbEntity
  8
SheetCutProfiles
100
AcDbLine
 10
476.500000000
 20
142.412500000
 30
0.000000000
 11
476.500000000
 21
193.937500000
 31
0.000000000
  0
LINE
  5
BB8
330
A02
100
AcDbEntity
  8
SheetCutProfiles
100
AcDbLine
 10
482.300000000
 20
142.412500000
 30
0.000000000
 11
476.500000000
 21
142.412500000
 31
0.000000000
  0
LINE
  5
BB9
330
A02
100
AcDbEntity
  8
SheetCutProfiles
100
AcDbLine
 10
482.300000000
 20
193.937500000
 30
0.000000000
 11
482.300000000
 21
142.412500000
 31
0.000000000
  0
LINE
  5
BBA
330
A02
100
AcDbEntity
  8
SheetCutProfiles
100
AcDbLine
 10
476.500000000
 20
193.937500000
 30
0.000000000
 11
482.300000000
 21
193.937500000
 31
0.000000000
  0
CIRCLE
  5
BBB
330
A02
100
AcDbEntity
  8
SheetCutProfiles
100
AcDbCircle
 10
445.000000000
 20
74.566666667
 30
0.000000000
 40
3.000000000
  0
LINE
  5
BBC
330
A02
100
AcDbEntity
  8
SheetCutProfiles
100
AcDbLine
 10
476.500000000
 20
245.462500000
 30
0.000000000
 11
476.500000000
 21
296.987500000
 31
0.000000000
  0
LINE
  5
BBD
330
A02
100
AcDbEntity
  8
SheetCutProfiles
100
AcDbLine
 10
482.300000000
 20
245.462500000
 30
0.000000000
 11
476.500000000
 21
245.462500000
 31
0.000000000
  0
LINE
  5
BBE
330
A02
100
AcDbEntity
  8
SheetCutProfiles
100
AcDbLine
 10
482.300000000
 20
296.987500000
 30
0.000000000
 11
482.300000000
 21
245.462500000
 31
0.000000000
  0
LINE
  5
BBF
330
A02
100
AcDbEntity
  8
SheetCutProfiles
100
AcDbLine
 10
476.500000000
 20
296.987500000
 30
0.000000000
 11
482.300000000
 21
296.987500000
 31
0.000000000
  0
LINE
  5
BC0
330
A02
100
AcDbEntity
  8
SheetCutProfiles
100
AcDbLine
 10
476.500000000
 20
348.512500000
 30
0.000000000
 11
476.500000000
 21
400.037500000
 31
0.000000000
  0
LINE
  5
BC1
330
A02
100
AcDbEntity
  8
SheetCutProfiles
100
AcDbLine
 10
482.300000000
 20
348.512500000
 30
0.000000000
 11
476.500000000
 21
348.512500000
 31
0.000000000
  0
LINE
  5
BC2
330
A02
100
AcDbEntity
  8
SheetCutProfiles
100
AcDbLine
 10
482.300000000
 20
400.037500000
 30
0.000000000
 11
482.300000000
 21
348.512500000
 31
0.000000000
  0
LINE
  5
BC3
330
A02
100
AcDbEntity
  8
SheetCutProfiles
100
AcDbLine
 10
476.500000000
 20
400.037500000
 30
0.000000000
 11
482.300000000
 21
400.037500000
 31
0.000000000
  0
CIRCLE
  5
BC4
330
A02
100
AcDbEntity
  8
SheetCutProfiles
100
AcDbCircle
 10
445.000000000
 20
364.833333333
 30
0.000000000
 40
3.000000000
  0
LINE
  5
BC5
330
A02
100
AcDbEntity
  8
SheetCutProfiles
100
AcDbLine
 10
805.750000000
 20
439.400000000
 30
0.000000000
 11
808.000000000
 21
439.400000000
 31
0.000000000
  0
ARC
  5
BC6
330
A02
100
AcDbEntity
  8
SheetCutProfiles
100
AcDbCircle
 10
805.750000000
 20
437.400000000
 30
0.000000000
 40
2.000000000
100
AcDbArc
 50
90.000000000
 51
180.000000000
  0
LINE
  5
BC7
330
A02
100
AcDbEntity
  8
SheetCutProfiles
100
AcDbLine
 10
803.750000000
 20
425.800000000
 30
0.000000000
 11
803.750000000
 21
437.400000000
 31
0.000000000
  0
LINE
  5
BC8
330
A02
100
AcDbEntity
  8
SheetCutProfiles
100
AcDbLine
 10
791.250000000
 20
425.800000000
 30
0.000000000
 11
803.750000000
 21
425.800000000
 31
0.000000000
  0
LINE
  5
BC9
330
A02
100
AcDbEntity
  8
SheetCutProfiles
100
AcDbLine
 10
791.250000000
 20
437.400000000
 30
0.000000000
 11
791.250000000
 21
425.800000000
 31
0.000000000
  0
ARC
  5
BCA
330
A02
100
AcDbEntity
  8
SheetCutProfiles
100
AcDbCircle
 10
789.250000000
 20
437.400000000
 30
0.000000000
 40
2.000000000
100
AcDbArc
 50
0.000000000
 51
90.000000000
  0
LINE
  5
BCB
330
A02
100
AcDbEntity
  8
SheetCutProfiles
100
AcDbLine
 10
780.750000000
 20
439.400000000
 30
0.000000000
 11
789.250000000
 21
439.400000000
 31
0.000000000
  0
ARC
  5
BCC
330
A02
100
AcDbEntity
  8
SheetCutProfiles
100
AcDbCircle
 10
780.750000000
 20
437.400000000
 30
0.000000000
 40
2.000000000
100
AcDbArc
 50
90.000000000
 51
180.000000000
  0
LINE
  5
BCD
330
A02
100
AcDbEntity
  8
SheetCutProfiles
100
AcDbLine
 10
778.750000000
 20
425.800000000
 30
0.000000000
 11
778.750000000
 21
437.400000000
 31
0.000000000
  0
LINE
  5
BCE
330
A02
100
AcDbEntity
  8
SheetCutProfiles
100
AcDbLine
 10
766.250000000
 20
425.800000000
 30
0.000000000
 11
778.750000000
 21
425.800000000
 31
0.000000000
  0
LINE
  5
BCF
330
A02
100
AcDbEntity
  8
SheetCutProfiles
100
AcDbLine
 10
766.250000000
 20
437.400000000
 30
0.000000000
 11
766.250000000
 21
425.800000000
 31
0.000000000
  0
ARC
  5
BD0
330
A02
100
AcDbEntity
  8
SheetCutProfiles
100
AcDbCircle
 10
764.250000000
 20
437.400000000
 30
0.000000000
 40
2.000000000
100
AcDbArc
 50
0.000000000
 51
90.000000000
  0
LINE
  5
BD1
330
A02
100
AcDbEntity
  8
SheetCutProfiles
100
AcDbLine
 10
755.750000000
 20
439.400000000
 30
0.000000000
 11
764.250000000
 21
439.400000000
 31
0.000000000
  0
ARC
  5
BD2
330
A02
100
AcDbEntity
  8
SheetCutProfiles
100
AcDbCircle
 10
755.750000000
 20
437.400000000
 30
0.000000000
 40
2.000000000
100
AcDbArc
 50
90.000000000
 51
180.000000000
  0
LINE
  5
BD3
330
A02
100
AcDbEntity
  8
SheetCutProfiles
100
AcDbLine
 10
753.750000000
 20
425.800000000
 30
0.000000000
 11
753.750000000
 21
437.400000000
 31
0.000000000
  0
LINE
  5
BD4
330
A02
100
AcDbEntity
  8
SheetCutProfiles
100
AcDbLine
 10
741.250000000
 20
425.800000000
 30
0.000000000
 11
753.750000000
 21
425.800000000
 31
0.000000000
  0
LINE
  5
BD5
330
A02
100
AcDbEntity
  8
SheetCutProfiles
100
AcDbLine
 10
741.250000000
 20
437.400000000
 30
0.000000000
 11
741.250000000
 21
425.800000000
 31
0.000000000
  0
ARC
  5
BD6
330
A02
100
AcDbEntity
  8
SheetCutProfiles
100
AcDbCircle
 10
739.250000000
 20
437.400000000
 30
0.000000000
 40
2.000000000
100
AcDbArc
 50
0.000000000
 51
90.000000000
  0
LINE
  5
BD7
330
A02
100
AcDbEntity
  8
SheetCutProfiles
100
AcDbLine
 10
730.750000000
 20
439.400000000
 30
0.000000000
 11
739.250000000
 21
439.400000000
 31
0.000000000
  0
ARC
  5
BD8
330
A02
100
AcDbEntity
  8
SheetCutProfiles
100
AcDbCircle
 10
730.750000000
 20
437.400000000
 30
0.000000000
 40
2.000000000
100
AcDbArc
 50
90.000000000
 51
180.000000000
  0
LINE
  5
BD9
330
A02
100
AcDbEntity
  8
SheetCutProfiles
100
AcDbLine
 10
728.750000000
 20
425.800000000
 30
0.000000000
 11
728.750000000
 21
437.400000000
 31
0.000000000
  0
LINE
  5
BDA
330
A02
100
AcDbEntity
  8
SheetCutProfiles
100
AcDbLine
 10
716.250000000
 20
425.800000000
 30
0.000000000
 11
728.750000000
 21
425.800000000
 31
0.000000000
  0
LINE
  5
BDB
330
A02
100
AcDbEntity
  8
SheetCutProfiles
100
AcDbLine
 10
716.250000000
 20
437.400000000
 30
0.000000000
 11
716.250000000
 21
425.800000000
 31
0.000000000
  0
ARC
  5
BDC
330
A02
100
AcDbEntity
  8
SheetCutProfiles
100
AcDbCircle
 10
714.250000000
 20
437.400000000
 30
0.000000000
 40
2.000000000
100
AcDbArc
 50
0.000000000
 51
90.000000000
  0
LINE
  5
BDD
330
A02
100
AcDbEntity
  8
SheetCutProfiles
100
AcDbLine
 10
712.000000000
 20
439.400000000
 30
0.000000000
 11
714.250000000
 21
439.400000000
 31
0.000000000
  0
ARC
  5
BDE
330
A02
100
AcDbEntity
  8
SheetCutProfiles
100
AcDbCircle
 10
712.000000000
 20
437.400000000
 30
0.000000000
 40
2.000000000
100
AcDbArc
 50
90.000000000
 51
180.000000000
  0
LINE
  5
BDF
330
A02
100
AcDbEntity
  8
SheetCutProfiles
100
AcDbLine
 10
710.000000000
 20
2.000000000
 30
0.000000000
 11
710.000000000
 21
437.400000000
 31
0.000000000
  0
ARC
  5
BE0
330
A02
100
AcDbEntity
  8
SheetCutProfiles
100
AcDbCircle
 10
712.000000000
 20
2.000000000
 30
0.000000000
 40
2.000000000
100
AcDbArc
 50
180.000000000
 51
-90.000000000
  0
LINE
  5
BE1
330
A02
100
AcDbEntity
  8
SheetCutProfiles
100
AcDbLine
 10
712.000000000
 20
0.000000000
 30
0.000000000
 11
714.250000000
 21
0.000000000
 31
0.000000000
  0
ARC
  5
BE2
330
A02
100
AcDbEntity
  8
SheetCutProfiles
100
AcDbCircle
 10
714.250000000
 20
2.000000000
 30
0.000000000
 40
2.000000000
100
AcDbArc
 50
-90.000000000
 51
0.000000000
  0
LINE
  5
BE3
330
A02
100
AcDbEntity
  8
SheetCutProfiles
100
AcDbLine
 10
716.250000000
 20
13.600000000
 30
0.000000000
 11
716.250000000
 21
2.000000000
 31
0.000000000
  0
LINE
  5
BE4
330
A02
100
AcDbEntity
  8
SheetCutProfiles
100
AcDbLine
 10
728.750000000
 20
13.600000000
 30
0.000000000
 11
716.250000000
 21
13.600000000
 31
0.000000000
  0
LINE
  5
BE5
330
A02
100
AcDbEntity
  8
SheetCutProfiles
100
AcDbLine
 10
728.750000000
 20
2.000000000
 30
0.000000000
 11
728.750000000
 21
13.600000000
 31
0.000000000
  0
ARC
  5
BE6
330
A02
100
AcDbEntity
  8
SheetCutProfiles
100
AcDbCircle
 10
730.750000000
 20
2.000000000
 30
0.000000000
 40
2.000000000
100
AcDbArc
 50
180.000000000
 51
-90.000000000
  0
LINE
  5
BE7
330
A02
100
AcDbEntity
  8
SheetCutProfiles
100
AcDbLine
 10
730.750000000
 20
0.000000000
 30
0.000000000
 11
739.250000000
 21
0.000000000
 31
0.000000000
  0
ARC
  5
BE8
330
A02
100
AcDbEntity
  8
SheetCutProfiles
100
AcDbCircle
 10
739.250000000
 20
2.000000000
 30
0.000000000
 40
2.000000000
100
AcDbArc
 50
-90.000000000
 51
0.000000000
  0
LINE
  5
BE9
330
A02
100
AcDbEntity
  8
SheetCutProfiles
100
AcDbLine
 10
741.250000000
 20
13.600000000
 30
0.000000000
 11
741.250000000
 21
2.000000000
 31
0.000000000
  0
LINE
  5
BEA
330
A02
100
AcDbEntity
  8
SheetCutProfiles
100
AcDbLine
 10
753.750000000
 20
13.600000000
 30
0.000000000
 11
741.250000000
 21
13.600000000
 31
0.000000000
  0
LINE
  5
BEB
330
A02
100
AcDbEntity
  8
SheetCutProfiles
100
AcDbLine
 10
753.750000000
 20
2.000000000
 30
0.000000000
 11
753.750000000
 21
13.600000000
 31
0.000000000
  0
ARC
  5
BEC
330
A02
100
AcDbEntity
  8
SheetCutProfiles
100
AcDbCircle
 10
755.750000000
 20
2.000000000
 30
0.000000000
 40
2.000000000
100
AcDbArc
 50
180.000000000
 51
-90.000000000
  0
LINE
  5
BED
330
A02
100
AcDbEntity
  8
SheetCutProfiles
100
AcDbLine
 10
755.750000000
 20
0.000000000
 30
0.000000000
 11
764.250000000
 21
0.000000000
 31
0.000000000
  0
ARC
  5
BEE
330
A02
100
AcDbEntity
  8
SheetCutProfiles
100
AcDbCircle
 10
764.250000000
 20
2.000000000
 30
0.000000000
 40
2.000000000
100
AcDbArc
 50
-90.000000000
 51
0.000000000
  0
LINE
  5
BEF
330
A02
100
AcDbEntity
  8
SheetCutProfiles
100
AcDbLine
 10
766.250000000
 20
13.600000000
 30
0.000000000
 11
766.250000000
 21
2.000000000
 31
0.000000000
  0
LINE
  5
BF0
330
A02
100
AcDbEntity
  8
SheetCutProfiles
100
AcDbLine
 10
778.750000000
 20
13.600000000
 30
0.000000000
 11
766.250000000
 21
13.600000000
 31
0.000000000
  0
LINE
  5
BF1
330
A02
100
AcDbEntity
  8
SheetCutProfiles
100
AcDbLine
 10
778.750000000
 20
2.000000000
 30
0.000000000
 11
778.750000000
 21
13.600000000
 31
0.000000000
  0
ARC
  5
BF2
330
A02
100
AcDbEntity
  8
SheetCutProfiles
100
AcDbCircle
 10
780.750000000
 20
2.000000000
 30
0.000000000
 40
2.000000000
100
AcDbArc
 50
180.000000000
 51
-90.000000000
  0
LINE
  5
BF3
330
A02
100
AcDbEntity
  8
SheetCutProfiles
100
AcDbLine
 10
780.750000000
 20
0.000000000
 30
0.000000000
 11
789.250000000
 21
0.000000000
 31
0.000000000
  0
ARC
  5
BF4
330
A02
100
AcDbEntity
  8
SheetCutProfiles
100
AcDbCircle
 10
789.250000000
 20
2.000000000
 30
0.000000000
 40
2.000000000
100
AcDbArc
 50
-90.000000000
 51
0.000000000
  0
LINE
  5
BF5
330
A02
100
AcDbEntity
  8
SheetCutProfiles
100
AcDbLine
 10
791.250000000
 20
13.600000000
 30
0.000000000
 11
791.250000000
 21
2.000000000
 31
0.000000000
  0
LINE
  5
BF6
330
A02
100
AcDbEntity
  8
SheetCutProfiles
100
AcDbLine
 10
803.750000000
 20
13.600000000
 30
0.000000000
 11
791.250000000
 21
13.600000000
 31
0.000000000
  0
LINE
  5
BF7
330
A02
100
AcDbEntity
  8
SheetCutProfiles
100
AcDbLine
 10
803.750000000
 20
2.000000000
 30
0.000000000
 11
803.750000000
 21
13.600000000
 31
0.000000000
  0
ARC
  5
BF8
330
A02
100
AcDbEntity
  8
SheetCutProfiles
100
AcDbCircle
 10
805.750000000
 20
2.000000000
 30
0.000000000
 40
2.000000000
100
AcDbArc
 50
180.000000000
 51
-90.000000000
  0
LINE
  5
BF9
330
A02
100
AcDbEntity
  8
SheetCutProfiles
100
AcDbLine
 10
805.750000000
 20
0.000000000
 30
0.000000000
 11
808.000000000
 21
0.000000000
 31
0.000000000
  0
ARC
  5
BFA
330
A02
100
AcDbEntity
  8
SheetCutProfiles
100
AcDbCircle
 10
808.000000000
 20
2.000000000
 30
0.000000000
 40
2.000000000
100
AcDbArc
 50
-90.000000000
 51
0.000000000
  0
LINE
  5
BFB
330
A02
100
AcDbEntity
  8
SheetCutProfiles
100
AcDbLine
 10
810.000000000
 20
2.000000000
 30
0.000000000
 11
810.000000000
 21
437.400000000
 31
0.000000000
  0
ARC
  5
BFC
330
A02
100
AcDbEntity
  8
SheetCutProfiles
100
AcDbCircle
 10
808.000000000
 20
437.400000000
 30
0.000000000
 40
2.000000000
100
AcDbArc
 50
0.000000000
 51
90.000000000
  0
LINE
  5
BFD
330
A02
100
AcDbEntity
  8
SheetCutProfiles
100
AcDbLine
 10
791.500000000
 20
400.037500000
 30
0.000000000
 11
791.500000000
 21
348.512500000
 31
0.000000000
  0
LINE
  5
BFE
330
A02
100
AcDbEntity
  8
SheetCutProfiles
100
AcDbLine
 10
797.300000000
 20
400.037500000
 30
0.000000000
 11
791.500000000
 21
400.037500000
 31
0.000000000
  0
LINE
  5
BFF
330
A02
100
AcDbEntity
  8
SheetCutProfiles
100
AcDbLine
 10
797.300000000
 20
348.512500000
 30
0.000000000
 11
797.300000000
 21
400.037500000
 31
0.000000000
  0
LINE
  5
C00
330
A02
100
AcDbEntity
  8
SheetCutProfiles
100
AcDbLine
 10
791.500000000
 20
348.512500000
 30
0.000000000
 11
797.300000000
 21
348.512500000
 31
0.000000000
  0
LINE
  5
C01
330
A02
100
AcDbEntity
  8
SheetCutProfiles
100
AcDbLine
 10
791.500000000
 20
296.987500000
 30
0.000000000
 11
791.500000000
 21
245.462500000
 31
0.000000000
  0
LINE
  5
C02
330
A02
100
AcDbEntity
  8
SheetCutProfiles
100
AcDbLine
 10
797.300000000
 20
296.987500000
 30
0.000000000
 11
791.500000000
 21
296.987500000
 31
0.000000000
  0
LINE
  5
C03
330
A02
100
AcDbEntity
  8
SheetCutProfiles
100
AcDbLine
 10
797.300000000
 20
245.462500000
 30
0.000000000
 11
797.300000000
 21
296.987500000
 31
0.000000000
  0
LINE
  5
C04
330
A02
100
AcDbEntity
  8
SheetCutProfiles
100
AcDbLine
 10
791.500000000
 20
245.462500000
 30
0.000000000
 11
797.300000000
 21
245.462500000
 31
0.000000000
  0
CIRCLE
  5
C05
330
A02
100
AcDbEntity
  8
SheetCutProfiles
100
AcDbCircle
 10
760.000000000
 20
364.833333333
 30
0.000000000
 40
3.000000000
  0
LINE
  5
C06
330
A02
100
AcDbEntity
  8
SheetCutProfiles
100
AcDbLine
 10
791.500000000
 20
193.937500000
 30
0.000000000
 11
791.500000000
 21
142.412500000
 31
0.000000000
  0
LINE
  5
C07
330
A02
100
AcDbEntity
  8
SheetCutProfiles
100
AcDbLine
 10
797.300000000
 20
193.937500000
 30
0.000000000
 11
791.500000000
 21
193.937500000
 31
0.000000000
  0
LINE
  5
C08
330
A02
100
AcDbEntity
  8
SheetCutProfiles
100
AcDbLine
 10
797.300000000
 20
142.412500000
 30
0.000000000
 11
797.300000000
 21
193.937500000
 31
0.000000000
  0
LINE
  5
C09
330
A02
100
AcDbEntity
  8
SheetCutProfiles
100
AcDbLine
 10
791.500000000
 20
142.412500000
 30
0.000000000
 11
797.300000000
 21
142.412500000
 31
0.000000000
  0
LINE
  5
C0A
330
A02
100
AcDbEntity
  8
SheetCutProfiles
100
AcDbLine
 10
791.500000000
 20
90.887500000
 30
0.000000000
 11
791.500000000
 21
39.362500000
 31
0.000000000
  0
LINE
  5
C0B
330
A02
100
AcDbEntity
  8
SheetCutProfiles
100
AcDbLine
 10
797.300000000
 20
90.887500000
 30
0.000000000
 11
791.500000000
 21
90.887500000
 31
0.000000000
  0
LINE
  5
C0C
330
A02
100
AcDbEntity
  8
SheetCutProfiles
100
AcDbLine
 10
797.300000000
 20
39.362500000
 30
0.000000000
 11
797.300000000
 21
90.887500000
 31
0.000000000
  0
LINE
  5
C0D
330
A02
100
AcDbEntity
  8
SheetCutProfiles
100
AcDbLine
 10
791.500000000
 20
39.362500000
 30
0.000000000
 11
797.300000000
 21
39.362500000
 31
0.000000000
  0
CIRCLE
  5
C0E
330
A02
100
AcDbEntity
  8
SheetCutProfiles
100
AcDbCircle
 10
760.000000000
 20
74.566666667
 30
0.000000000
 40
3.000000000
  0
LINE
  5
C0F
330
A02
100
AcDbEntity
  8
SheetCutProfiles
100
AcDbLine
 10
595.750000000
 20
439.400000000
 30
0.000000000
 11
598.000000000
 21
439.400000000
 31
0.000000000
  0
ARC
  5
C10
330
A02
100
AcDbEntity
  8
SheetCutProfiles
100
AcDbCircle
 10
595.750000000
 20
437.400000000
 30
0.000000000
 40
2.000000000
100
AcDbArc
 50
90.000000000
 51
180.000000000
  0
LINE
  5
C11
330
A02
100
AcDbEntity
  8
SheetCutProfiles
100
AcDbLine
 10
593.750000000
 20
425.800000000
 30
0.000000000
 11
593.750000000
 21
437.400000000
 31
0.000000000
  0
LINE
  5
C12
330
A02
100
AcDbEntity
  8
SheetCutProfiles
100
AcDbLine
 10
581.250000000
 20
425.800000000
 30
0.000000000
 11
593.750000000
 21
425.800000000
 31
0.000000000
  0
LINE
  5
C13
330
A02
100
AcDbEntity
  8
SheetCutProfiles
100
AcDbLine
 10
581.250000000
 20
437.400000000
 30
0.000000000
 11
581.250000000
 21
425.800000000
 31
0.000000000
  0
ARC
  5
C14
330
A02
100
AcDbEntity
  8
SheetCutProfiles
100
AcDbCircle
 10
579.250000000
 20
437.400000000
 30
0.000000000
 40
2.000000000
100
AcDbArc
 50
0.000000000
 51
90.000000000
  0
LINE
  5
C15
330
A02
100
AcDbEntity
  8
SheetCutProfiles
100
AcDbLine
 10
570.750000000
 20
439.400000000
 30
0.000000000
 11
579.250000000
 21
439.400000000
 31
0.000000000
  0
ARC
  5
C16
330
A02
100
AcDbEntity
  8
SheetCutProfiles
100
AcDbCircle
 10
570.750000000
 20
437.400000000
 30
0.000000000
 40
2.000000000
100
AcDbArc
 50
90.000000000
 51
180.000000000
  0
LINE
  5
C17
330
A02
100
AcDbEntity
  8
SheetCutProfiles
100
AcDbLine
 10
568.750000000
 20
425.800000000
 30
0.000000000
 11
568.750000000
 21
437.400000000
 31
0.000000000
  0
LINE
  5
C18
330
A02
100
AcDbEntity
  8
SheetCutProfiles
100
AcDbLine
 10
556.250000000
 20
425.800000000
 30
0.000000000
 11
568.750000000
 21
425.800000000
 31
0.000000000
  0
LINE
  5
C19
330
A02
100
AcDbEntity
  8
SheetCutProfiles
100
AcDbLine
 10
556.250000000
 20
437.400000000
 30
0.000000000
 11
556.250000000
 21
425.800000000
 31
0.000000000
  0
ARC
  5
C1A
330
A02
100
AcDbEntity
  8
SheetCutProfiles
100
AcDbCircle
 10
554.250000000
 20
437.400000000
 30
0.000000000
 40
2.000000000
100
AcDbArc
 50
0.000000000
 51
90.000000000
  0
LINE
  5
C1B
330
A02
100
AcDbEntity
  8
SheetCutProfiles
100
AcDbLine
 10
545.750000000
 20
439.400000000
 30
0.000000000
 11
554.250000000
 21
439.400000000
 31
0.000000000
  0
ARC
  5
C1C
330
A02
100
AcDbEntity
  8
SheetCutProfiles
100
AcDbCircle
 10
545.750000000
 20
437.400000000
 30
0.000000000
 40
2.000000000
100
AcDbArc
 50
90.000000000
 51
180.000000000
  0
LINE
  5
C1D
330
A02
100
AcDbEntity
  8
SheetCutProfiles
100
AcDbLine
 10
543.750000000
 20
425.800000000
 30
0.000000000
 11
543.750000000
 21
437.400000000
 31
0.000000000
  0
LINE
  5
C1E
330
A02
100
AcDbEntity
  8
SheetCutProfiles
100
AcDbLine
 10
531.250000000
 20
425.800000000
 30
0.000000000
 11
543.750000000
 21
425.800000000
 31
0.000000000
  0
LINE
  5
C1F
330
A02
100
AcDbEntity
  8
SheetCutProfiles
100
AcDbLine
 10
531.250000000
 20
437.400000000
 30
0.000000000
 11
531.250000000
 21
425.800000000
 31
0.000000000
  0
ARC
  5
C20
330
A02
100
AcDbEntity
  8
SheetCutProfiles
100
AcDbCircle
 10
529.250000000
 20
437.400000000
 30
0.000000000
 40
2.000000000
100
AcDbArc
 50
0.000000000
 51
90.000000000
  0
LINE
  5
C21
330
A02
100
AcDbEntity
  8
SheetCutProfiles
100
AcDbLine
 10
520.750000000
 20
439.400000000
 30
0.000000000
 11
529.250000000
 21
439.400000000
 31
0.000000000
  0
ARC
  5
C22
330
A02
100
AcDbEntity
  8
SheetCutProfiles
100
AcDbCircle
 10
520.750000000
 20
437.400000000
 30
0.000000000
 40
2.000000000
100
AcDbArc
 50
90.000000000
 51
180.000000000
  0
LINE
  5
C23
330
A02
100
AcDbEntity
  8
SheetCutProfiles
100
AcDbLine
 10
518.750000000
 20
425.800000000
 30
0.000000000
 11
518.750000000
 21
437.400000000
 31
0.000000000
  0
LINE
  5
C24
330
A02
100
AcDbEntity
  8
SheetCutProfiles
100
AcDbLine
 10
506.250000000
 20
425.800000000
 30
0.000000000
 11
518.750000000
 21
425.800000000
 31
0.000000000
  0
LINE
  5
C25
330
A02
100
AcDbEntity
  8
SheetCutProfiles
100
AcDbLine
 10
506.250000000
 20
437.400000000
 30
0.000000000
 11
506.250000000
 21
425.800000000
 31
0.000000000
  0
ARC
  5
C26
330
A02
100
AcDbEntity
  8
SheetCutProfiles
100
AcDbCircle
 10
504.250000000
 20
437.400000000
 30
0.000000000
 40
2.000000000
100
AcDbArc
 50
0.000000000
 51
90.000000000
  0
LINE
  5
C27
330
A02
100
AcDbEntity
  8
SheetCutProfiles
100
AcDbLine
 10
502.000000000
 20
439.400000000
 30
0.000000000
 11
504.250000000
 21
439.400000000
 31
0.000000000
  0
ARC
  5
C28
330
A02
100
AcDbEntity
  8
SheetCutProfiles
100
AcDbCircle
 10
502.000000000
 20
437.400000000
 30
0.000000000
 40
2.000000000
100
AcDbArc
 50
90.000000000
 51
180.000000000
  0
LINE
  5
C29
330
A02
100
AcDbEntity
  8
SheetCutProfiles
100
AcDbLine
 10
500.000000000
 20
2.000000000
 30
0.000000000
 11
500.000000000
 21
437.400000000
 31
0.000000000
  0
ARC
  5
C2A
330
A02
100
AcDbEntity
  8
SheetCutProfiles
100
AcDbCircle
 10
502.000000000
 20
2.000000000
 30
0.000000000
 40
2.000000000
100
AcDbArc
 50
180.000000000
 51
-90.000000000
  0
LINE
  5
C2B
330
A02
100
AcDbEntity
  8
SheetCutProfiles
100
AcDbLine
 10
502.000000000
 20
0.000000000
 30
0.000000000
 11
504.250000000
 21
0.000000000
 31
0.000000000
  0
ARC
  5
C2C
330
A02
100
AcDbEntity
  8
SheetCutProfiles
100
AcDbCircle
 10
504.250000000
 20
2.000000000
 30
0.000000000
 40
2.000000000
100
AcDbArc
 50
-90.000000000
 51
0.000000000
  0
LINE
  5
C2D
330
A02
100
AcDbEntity
  8
SheetCutProfiles
100
AcDbLine
 10
506.250000000
 20
13.600000000
 30
0.000000000
 11
506.250000000
 21
2.000000000
 31
0.000000000
  0
LINE
  5
C2E
330
A02
100
AcDbEntity
  8
SheetCutProfiles
100
AcDbLine
 10
518.750000000
 20
13.600000000
 30
0.000000000
 11
506.250000000
 21
13.600000000
 31
0.000000000
  0
LINE
  5
C2F
330
A02
100
AcDbEntity
  8
SheetCutProfiles
100
AcDbLine
 10
518.750000000
 20
2.000000000
 30
0.000000000
 11
518.750000000
 21
13.600000000
 31
0.000000000
  0
ARC
  5
C30
330
A02
100
AcDbEntity
  8
SheetCutProfiles
100
AcDbCircle
 10
520.750000000
 20
2.000000000
 30
0.000000000
 40
2.000000000
100
AcDbArc
 50
180.000000000
 51
-90.000000000
  0
LINE
  5
C31
330
A02
100
AcDbEntity
  8
SheetCutProfiles
100
AcDbLine
 10
520.750000000
 20
0.000000000
 30
0.000000000
 11
529.250000000
 21
0.000000000
 31
0.000000000
  0
ARC
  5
C32
330
A02
100
AcDbEntity
  8
SheetCutProfiles
100
AcDbCircle
 10
529.250000000
 20
2.000000000
 30
0.000000000
 40
2.000000000
100
AcDbArc
 50
-90.000000000
 51
0.000000000
  0
LINE
  5
C33
330
A02
100
AcDbEntity
  8
SheetCutProfiles
100
AcDbLine
 10
531.250000000
 20
13.600000000
 30
0.000000000
 11
531.250000000
 21
2.000000000
 31
0.000000000
  0
LINE
  5
C34
330
A02
100
AcDbEntity
  8
SheetCutProfiles
100
AcDbLine
 10
543.750000000
 20
13.600000000
 30
0.000000000
 11
531.250000000
 21
13.600000000
 31
0.000000000
  0
LINE
  5
C35
330
A02
100
AcDbEntity
  8
SheetCutProfiles
100
AcDbLine
 10
543.750000000
 20
2.000000000
 30
0.000000000
 11
543.750000000
 21
13.600000000
 31
0.000000000
  0
ARC
  5
C36
330
A02
100
AcDbEntity
  8
SheetCutProfiles
100
AcDbCircle
 10
545.750000000
 20
2.000000000
 30
0.000000000
 40
2.000000000
100
AcDbArc
 50
180.000000000
 51
-90.000000000
  0
LINE
  5
C37
330
A02
100
AcDbEntity
  8
SheetCutProfiles
100
AcDbLine
 10
545.750000000
 20
0.000000000
 30
0.000000000
 11
554.250000000
 21
0.000000000
 31
0.000000000
  0
ARC
  5
C38
330
A02
100
AcDbEntity
  8
SheetCutProfiles
100
AcDbCircle
 10
554.250000000
 20
2.000000000
 30
0.000000000
 40
2.000000000
100
AcDbArc
 50
-90.000000000
 51
0.000000000
  0
LINE
  5
C39
330
A02
100
AcDbEntity
  8
SheetCutProfiles
100
AcDbLine
 10
556.250000000
 20
13.600000000
 30
0.000000000
 11
556.250000000
 21
2.000000000
 31
0.000000000
  0
LINE
  5
C3A
330
A02
100
AcDbEntity
  8
SheetCutProfiles
100
AcDbLine
 10
568.750000000
 20
13.600000000
 30
0.000000000
 11
556.250000000
 21
13.600000000
 31
0.000000000
  0
LINE
  5
C3B
330
A02
100
AcDbEntity
  8
SheetCutProfiles
100
AcDbLine
 10
568.750000000
 20
2.000000000
 30
0.000000000
 11
568.750000000
 21
13.600000000
 31
0.000000000
  0
ARC
  5
C3C
330
A02
100
AcDbEntity
  8
SheetCutProfiles
100
AcDbCircle
 10
570.750000000
 20
2.000000000
 30
0.000000000
 40
2.000000000
100
AcDbArc
 50
180.000000000
 51
-90.000000000
  0
LINE
  5
C3D
330
A02
100
AcDbEntity
  8
SheetCutProfiles
100
AcDbLine
 10
570.750000000
 20
0.000000000
 30
0.000000000
 11
579.250000000
 21
0.000000000
 31
0.000000000
  0
ARC
  5
C3E
330
A02
100
AcDbEntity
  8
SheetCutProfiles
100
AcDbCircle
 10
579.250000000
 20
2.000000000
 30
0.000000000
 40
2.000000000
100
AcDbArc
 50
-90.000000000
 51
0.000000000
  0
LINE
  5
C3F
330
A02
100
AcDbEntity
  8
SheetCutProfiles
100
AcDbLine
 10
581.250000000
 20
13.600000000
 30
0.000000000
 11
581.250000000
 21
2.000000000
 31
0.000000000
  0
LINE
  5
C40
330
A02
100
AcDbEntity
  8
SheetCutProfiles
100
AcDbLine
 10
593.750000000
 20
13.600000000
 30
0.000000000
 11
581.250000000
 21
13.600000000
 31
0.000000000
  0
LINE
  5
C41
330
A02
100
AcDbEntity
  8
SheetCutProfiles
100
AcDbLine
 10
593.750000000
 20
2.000000000
 30
0.000000000
 11
593.750000000
 21
13.600000000
 31
0.000000000
  0
ARC
  5
C42
330
A02
100
AcDbEntity
  8
SheetCutProfiles
100
AcDbCircle
 10
595.750000000
 20
2.000000000
 30
0.000000000
 40
2.000000000
100
AcDbArc
 50
180.000000000
 51
-90.000000000
  0
LINE
  5
C43
330
A02
100
AcDbEntity
  8
SheetCutProfiles
100
AcDbLine
 10
595.750000000
 20
0.000000000
 30
0.000000000
 11
598.000000000
 21
0.000000000
 31
0.000000000
  0
ARC
  5
C44
330
A02
100
AcDbEntity
  8
SheetCutProfiles
100
AcDbCircle
 10
598.000000000
 20
2.000000000
 30
0.000000000
 40
2.000000000
100
AcDbArc
 50
-90.000000000
 51
0.000000000
  0
LINE
  5
C45
330
A02
100
AcDbEntity
  8
SheetCutProfiles
100
AcDbLine
 10
600.000000000
 20
2.000000000
 30
0.000000000
 11
600.000000000
 21
437.400000000
 31
0.000000000
  0
ARC
  5
C46
330
A02
100
AcDbEntity
  8
SheetCutProfiles
100
AcDbCircle
 10
598.000000000
 20
437.400000000
 30
0.000000000
 40
2.000000000
100
AcDbArc
 50
0.000000000
 51
90.000000000
  0
LINE
  5
C47
330
A02
100
AcDbEntity
  8
SheetCutProfiles
100
AcDbLine
 10
581.500000000
 20
400.037500000
 30
0.000000000
 11
581.500000000
 21
348.512500000
 31
0.000000000
  0
LINE
  5
C48
330
A02
100
AcDbEntity
  8
SheetCutProfiles
100
AcDbLine
 10
587.300000000
 20
400.037500000
 30
0.000000000
 11
581.500000000
 21
400.037500000
 31
0.000000000
  0
LINE
  5
C49
330
A02
100
AcDbEntity
  8
SheetCutProfiles
100
AcDbLine
 10
587.300000000
 20
348.512500000
 30
0.000000000
 11
587.300000000
 21
400.037500000
 31
0.000000000
  0
LINE
  5
C4A
330
A02
100
AcDbEntity
  8
SheetCutProfiles
100
AcDbLine
 10
581.500000000
 20
348.512500000
 30
0.000000000
 11
587.300000000
 21
348.512500000
 31
0.000000000
  0
LINE
  5
C4B
330
A02
100
AcDbEntity
  8
SheetCutProfiles
100
AcDbLine
 10
581.500000000
 20
296.987500000
 30
0.000000000
 11
581.500000000
 21
245.462500000
 31
0.000000000
  0
LINE
  5
C4C
330
A02
100
AcDbEntity
  8
SheetCutProfiles
100
AcDbLine
 10
587.300000000
 20
296.987500000
 30
0.000000000
 11
581.500000000
 21
296.987500000
 31
0.000000000
  0
LINE
  5
C4D
330
A02
100
AcDbEntity
  8
SheetCutProfiles
100
AcDbLine
 10
587.300000000
 20
245.462500000
 30
0.000000000
 11
587.300000000
 21
296.987500000
 31
0.000000000
  0
LINE
  5
C4E
330
A02
100
AcDbEntity
  8
SheetCutProfiles
100
AcDbLine
 10
581.500000000
 20
245.462500000
 30
0.000000000
 11
587.300000000
 21
245.462500000
 31
0.000000000
  0
CIRCLE
  5
C4F
330
A02
100
AcDbEntity
  8
SheetCutProfiles
100
AcDbCircle
 10
550.000000000
 20
364.833333333
 30
0.000000000
 40
3.000000000
  0
LINE
  5
C50
330
A02
100
AcDbEntity
  8
SheetCutProfiles
100
AcDbLine
 10
581.500000000
 20
193.937500000
 30
0.000000000
 11
581.500000000
 21
142.412500000
 31
0.000000000
  0
LINE
  5
C51
330
A02
100
AcDbEntity
  8
SheetCutProfiles
100
AcDbLine
 10
587.300000000
 20
193.937500000
 30
0.000000000
 11
581.500000000
 21
193.937500000
 31
0.000000000
  0
LINE
  5
C52
330
A02
100
AcDbEntity
  8
SheetCutProfiles
100
AcDbLine
 10
587.300000000
 20
142.412500000
 30
0.000000000
 11
587.300000000
 21
193.937500000
 31
0.000000000
  0
LINE
  5
C53
330
A02
100
AcDbEntity
  8
SheetCutProfiles
100
AcDbLine
 10
581.500000000
 20
142.412500000
 30
0.000000000
 11
587.300000000
 21
142.412500000
 31
0.000000000
  0
LINE
  5
C54
330
A02
100
AcDbEntity
  8
SheetCutProfiles
100
AcDbLine
 10
581.500000000
 20
90.887500000
 30
0.000000000
 11
581.500000000
 21
39.362500000
 31
0.000000000
  0
LINE
  5
C55
330
A02
100
AcDbEntity
  8
SheetCutProfiles
100
AcDbLine
 10
587.300000000
 20
90.887500000
 30
0.000000000
 11
581.500000000
 21
90.887500000
 31
0.000000000
  0
LINE
  5
C56
330
A02
100
AcDbEntity
  8
SheetCutProfiles
100
AcDbLine
 10
587.300000000
 20
39.362500000
 30
0.000000000
 11
587.300000000
 21
90.887500000
 31
0.000000000
  0
LINE
  5
C57
330
A02
100
AcDbEntity
  8
SheetCutProfiles
100
AcDbLine
 10
581.500000000
 20
39.362500000
 30
0.000000000
 11
587.300000000
 21
39.362500000
 31
0.000000000
  0
CIRCLE
  5
C58
330
A02
100
AcDbEntity
  8
SheetCutProfiles
100
AcDbCircle
 10
550.000000000
 20
74.566666667
 30
0.000000000
 40
3.000000000
  0
LINE
  5
C59
330
A02
100
AcDbEntity
  8
SheetCutProfiles
100
AcDbLine
 10
12.700000000
 20
517.000000000
 30
0.000000000
 11
444.900000000
 21
517.000000000
 31
0.000000000
  0
ARC
  5
C5A
330
A02
100
AcDbEntity
  8
SheetCutProfiles
100
AcDbCircle
 10
12.700000000
 20
529.700000000
 30
0.000000000
 40
12.700000000
100
AcDbArc
 50
90.000000000
 51
-90.000000000
  0
LINE
  5
C5B
330
A02
100
AcDbEntity
  8
SheetCutProfiles
100
AcDbLine
 10
12.700000000
 20
542.400000000
 30
0.000000000
 11
444.900000000
 21
542.400000000
 31
0.000000000
  0
ARC
  5
C5C
330
A02
100
AcDbEntity
  8
SheetCutProfiles
100
AcDbCircle
 10
444.900000000
 20
529.700000000
 30
0.000000000
 40
12.700000000
100
AcDbArc
 50
-90.000000000
 51
90.000000000
  0
CIRCLE
  5
C5D
330
A02
100
AcDbEntity
  8
SheetCutProfiles
100
AcDbCircle
 10
76.266666667
 20
529.700000000
 30
0.000000000
 40
3.000000000
  0
CIRCLE
  5
C5E
330
A02
100
AcDbEntity
  8
SheetCutProfiles
100
AcDbCircle
 10
381.333333333
 20
529.700000000
 30
0.000000000
 40
3.000000000
  0
LINE
  5
C5F
330
A02
100
AcDbEntity
  8
SheetCutProfiles
100
AcDbLine
 10
377.300000000
 20
462.600000000
 30
0.000000000
 11
809.500000000
 21
462.600000000
 31
0.000000000
  0
ARC
  5
C60
330
A02
100
AcDbEntity
  8
SheetCutProfiles
100
AcDbCircle
 10
377.300000000
 20
475.300000000
 30
0.000000000
 40
12.700000000
100
AcDbArc
 50
90.000000000
 51
-90.000000000
  0
LINE
  5
C61
330
A02
100
AcDbEntity
  8
SheetCutProfiles
100
AcDbLine
 10
377.300000000
 20
488.000000000
 30
0.000000000
 11
809.500000000
 21
488.000000000
 31
0.000000000
  0
ARC
  5
C62
330
A02
100
AcDbEntity
  8
SheetCutProfiles
100
AcDbCircle
 10
809.500000000
 20
475.300000000
 30
0.000000000
 40
12.700000000
100
AcDbArc
 50
-90.000000000
 51
90.000000000
  0
CIRCLE
  5
C63
330
A02
100
AcDbEntity
  8
SheetCutProfiles
100
AcDbCircle
 10
440.866666667
 20
475.300000000
 30
0.000000000
 40
3.000000000
  0
CIRCLE
  5
C64
330
A02
100
AcDbEntity
  8
SheetCutProfiles
100
AcDbCircle
 10
745.933333333
 20
475.300000000
 30
0.000000000
 40
3.000000000
  0
LINE
  5
C65
330
A02
100
AcDbEntity
  8
SheetCutProfiles
100
AcDbLine
 10
390.000000000
 20
444.900000000
 30
0.000000000
 11
390.000000000
 21
12.700000000
 31
0.000000000
  0
ARC
  5
C66
330
A02
100
AcDbEntity
  8
SheetCutProfiles
100
AcDbCircle
 10
377.300000000
 20
444.900000000
 30
0.000000000
 40
12.700000000
100
AcDbArc
 50
0.000000000
 51
180.000000000
  0
LINE
  5
C67
330
A02
100
AcDbEntity
  8
SheetCutProfiles
100
AcDbLine
 10
364.600000000
 20
444.900000000
 30
0.000000000
 11
364.600000000
 21
12.700000000
 31
0.000000000
  0
ARC
  5
C68
330
A02
100
AcDbEntity
  8
SheetCutProfiles
100
AcDbCircle
 10
377.300000000
 20
12.700000000
 30
0.000000000
 40
12.700000000
100
AcDbArc
 50
180.000000000
 51
0.000000000
  0
CIRCLE
  5
C69
330
A02
100
AcDbEntity
  8
SheetCutProfiles
100
AcDbCircle
 10
377.300000000
 20
381.333333333
 30
0.000000000
 40
3.000000000
  0
CIRCLE
  5
C6A
330
A02
100
AcDbEntity
  8
SheetCutProfiles
100
AcDbCircle
 10
377.300000000
 20
76.266666667
 30
0.000000000
 40
3.000000000
  0
ENDSEC
  0
SECTION
  2
OBJECTS
  0
DICTIONARY
  5
F000
330
0
100
AcDbDictionary
  3
ACAD_GROUP
350
F001
  0
DICTIONARY
  5
F001
330
F000
100
AcDbDictionary
  0
ENDSEC
  0
EOF