<svg xmlns="http://www.w3.org/2000/svg" width="1193.8mm" height="787.4mm" viewBox="0 0 1193.8 787.4"><rect width="1193.8" height="787.4" fill="white" stroke="#111827" stroke-width="2"/><g transform="translate(0 787.4) scale(1 -1)"><path d="M 182.800 0.000 L 298.000 0.000 L 299.506 0.684 L 300.000 2.000 L 300.000 13.600 L 419.200 13.600 L 419.200 2.000 L 419.884 0.494 L 421.200 0.000 L 536.400 0.000 L 537.906 0.684 L 538.400 2.000 L 538.400 13.600 L 657.600 13.600 L 657.600 2.000 L 658.284 0.494 L 659.600 0.000 L 774.800 0.000 L 776.306 0.684 L 776.800 2.000 L 776.800 13.600 L 896.000 13.600 L 896.000 2.000 L 896.684 0.494 L 898.000 0.000 L 953.600 0.000 L 955.106 0.684 L 955.600 2.000 L 967.200 2.000 L 968.706 2.684 L 969.200 4.000 L 969.200 47.625 L 968.516 49.131 L 967.200 49.625 L 955.600 49.625 L 955.600 144.875 L 967.200 144.875 L 968.706 145.559 L 969.200 146.875 L 969.200 238.125 L 968.516 239.631 L 967.200 240.125 L 955.600 240.125 L 955.600 335.375 L 967.200 335.375 L 968.706 336.059 L 969.200 337.375 L 969.200 428.625 L 968.516 430.131 L 967.200 430.625 L 955.600 430.625 L 955.600 525.875 L 967.200 525.875 L 968.706 526.559 L 969.200 527.875 L 969.200 619.125 L 968.516 620.631 L 967.200 621.125 L 955.600 621.125 L 955.600 716.375 L 967.200 716.375 L 968.706 717.059 L 969.200 718.375 L 969.200 762.000 L 968.516 763.506 L 967.200 764.000 L 955.600 764.000 L 954.916 765.506 L 953.600 766.000 L 898.000 766.000 L 896.494 765.316 L 896.000 764.000 L 896.000 752.400 L 776.800 752.400 L 776.800 764.000 L 776.116 765.506 L 774.800 766.000 L 659.600 766.000 L 658.094 765.316 L 657.600 764.000 L 657.600 752.400 L 538.400 752.400 L 538.400 764.000 L 537.716 765.506 L 536.400 766.000 L 421.200 766.000 L 419.694 765.316 L 419.200 764.000 L 419.200 752.400 L 300.000 752.400 L 300.000 764.000 L 299.316 765.506 L 298.000 766.000 L 182.800 766.000 L 181.294 765.316 L 180.800 764.000 L 180.800 752.400 L 61.600 752.400 L 61.600 764.000 L 60.916 765.506 L 59.600 766.000 L 4.000 766.000 L 2.494 765.316 L 2.000 764.000 L 2.000 752.400 L 0.494 751.716 L 0.000 750.400 L 0.000 708.225 L 0.684 706.719 L 2.000 706.225 L 13.600 706.225 L 13.600 613.875 L 2.000 613.875 L 0.494 613.191 L 0.000 611.875 L 0.000 523.525 L 0.684 522.019 L 2.000 521.525 L 13.600 521.525 L 13.600 429.175 L 2.000 429.175 L 0.494 428.491 L 0.000 427.175 L 0.000 338.825 L 0.684 337.319 L 2.000 336.825 L 13.600 336.825 L 13.600 244.475 L 2.000 244.475 L 0.494 243.791 L 0.000 242.475 L 0.000 154.125 L 0.684 152.619 L 2.000 152.125 L 13.600 152.125 L 13.600 59.775 L 2.000 59.775 L 0.494 59.091 L 0.000 57.775 L 0.000 15.600 L 0.684 14.094 L 2.000 13.600 L 2.000 2.000 L 2.684 0.494 L 4.000 0.000 L 59.600 0.000 L 61.106 0.684 L 61.600 2.000 L 61.600 13.600 L 180.800 13.600 L 180.800 2.000 L 181.484 0.494 L 182.800 0.000 Z M 487.600 127.667 L 486.902 125.742 L 485.132 124.714 L 483.114 125.060 L 481.788 126.620 L 481.772 128.667 L 483.072 130.248 L 485.083 130.627 L 486.870 129.628 L 487.412 128.713 L 487.600 127.667 Z M 190.225 388.800 L 190.225 377.200 L 101.912 377.200 L 72.475 377.200 L 72.475 388.800 L 190.225 388.800 Z M 425.725 388.800 L 425.725 377.200 L 337.412 377.200 L 307.975 377.200 L 307.975 388.800 L 425.725 388.800 Z M 661.225 388.800 L 661.225 377.200 L 572.912 377.200 L 543.475 377.200 L 543.475 388.800 L 661.225 388.800 Z M 896.725 388.800 L 896.725 377.200 L 808.412 377.200 L 778.975 377.200 L 778.975 388.800 L 896.725 388.800 Z M 487.600 638.333 L 486.902 636.409 L 485.132 635.381 L 483.114 635.727 L 481.788 637.287 L 481.772 639.334 L 483.072 640.915 L 485.083 641.294 L 486.870 640.295 L 487.412 639.380 L 487.600 638.333 Z" fill="#fd8d3c" fill-opacity="0.45" fill-rule="evenodd" stroke="#1f2937" stroke-width="0.8"/><path d="M 976.200 13.600 L 974.694 14.284 L 974.200 15.600 L 974.200 57.775 L 974.884 59.281 L 976.200 59.775 L 987.800 59.775 L 987.800 152.125 L 976.200 152.125 L 974.694 152.809 L 974.200 154.125 L 974.200 242.475 L 974.884 243.981 L 976.200 244.475 L 987.800 244.475 L 987.800 336.825 L 976.200 336.825 L 974.694 337.509 L 974.200 338.825 L 974.200 427.175 L 974.884 428.681 L 976.200 429.175 L 987.800 429.175 L 987.800 521.525 L 976.200 521.525 L 974.694 522.209 L 974.200 523.525 L 974.200 611.875 L 974.884 613.381 L 976.200 613.875 L 987.800 613.875 L 987.800 706.225 L 976.200 706.225 L 974.694 706.909 L 974.200 708.225 L 974.200 750.400 L 974.884 751.906 L 976.200 752.400 L 985.725 752.400 L 985.725 764.000 L 986.409 765.506 L 987.725 766.000 L 1002.775 766.000 L 1004.281 765.316 L 1004.775 764.000 L 1004.775 752.400 L 1023.825 752.400 L 1023.825 764.000 L 1024.509 765.506 L 1025.825 766.000 L 1040.875 766.000 L 1042.381 765.316 L 1042.875 764.000 L 1042.875 752.400 L 1061.925 752.400 L 1061.925 764.000 L 1062.609 765.506 L 1063.925 766.000 L 1078.975 766.000 L 1080.481 765.316 L 1080.975 764.000 L 1080.975 752.400 L 1100.025 752.400 L 1100.025 764.000 L 1100.709 765.506 L 1102.025 766.000 L 1117.075 766.000 L 1118.581 765.316 L 1119.075 764.000 L 1119.075 752.400 L 1128.600 752.400 L 1128.600 13.600 L 1119.075 13.600 L 1119.075 2.000 L 1118.391 0.494 L 1117.075 0.000 L 1102.025 0.000 L 1100.519 0.684 L 1100.025 2.000 L 1100.025 13.600 L 1080.975 13.600 L 1080.975 2.000 L 1080.291 0.494 L 1078.975 0.000 L 1063.925 0.000 L 1062.419 0.684 L 1061.925 2.000 L 1061.925 13.600 L 1042.875 13.600 L 1042.875 2.000 L 1042.191 0.494 L 1040.875 0.000 L 1025.825 0.000 L 1024.319 0.684 L 1023.825 2.000 L 1023.825 13.600 L 1004.775 13.600 L 1004.775 2.000 L 1004.091 0.494 L 1002.775 0.000 L 987.725 0.000 L 986.219 0.684 L 985.725 2.000 L 985.725 13.600 L 976.200 13.600 Z M 1048.400 127.667 L 1049.098 125.742 L 1050.868 124.714 L 1052.886 125.060 L 1054.212 126.620 L 1054.228 128.667 L 1052.928 130.248 L 1050.917 130.627 L 1049.130 129.628 L 1048.588 128.713 L 1048.400 127.667 Z M 1048.400 638.333 L 1049.098 636.409 L 1050.868 635.381 L 1052.886 635.727 L 1054.212 637.287 L 1054.228 639.334 L 1052.928 640.915 L 1050.917 641.294 L 1049.130 640.295 L 1048.588 639.380 L 1048.400 638.333 Z" fill="#fd8d3c" fill-opacity="0.45" fill-rule="evenodd" stroke="#1f2937" stroke-width="0.8"/><path d="M 1159.000 458.500 L 1159.000 12.700 L 1158.111 8.033 L 1155.892 4.376 L 1152.584 1.664 L 1148.564 0.203 L 1144.286 0.161 L 1140.237 1.540 L 1136.876 4.186 L 1134.584 7.798 L 1133.621 11.966 L 1133.600 12.700 L 1133.600 458.500 L 1134.320 462.716 L 1136.400 466.455 L 1139.602 469.290 L 1143.564 470.902 L 1147.837 471.107 L 1151.935 469.881 L 1155.394 467.365 L 1157.822 463.843 L 1158.702 461.236 L 1159.000 458.500 Z M 1143.300 78.533 L 1143.998 76.609 L 1145.768 75.581 L 1147.786 75.927 L 1149.112 77.487 L 1149.128 79.534 L 1147.828 81.115 L 1145.817 81.494 L 1144.030 80.495 L 1143.488 79.580 L 1143.300 78.533 Z M 1143.300 392.667 L 1143.998 390.742 L 1145.768 389.714 L 1147.786 390.060 L 1149.112 391.620 L 1149.128 393.667 L 1147.828 395.248 L 1145.817 395.627 L 1144.030 394.628 L 1143.488 393.713 L 1143.300 392.667 Z" fill="#fdae6b" fill-opacity="0.45" fill-rule="evenodd" stroke="#1f2937" stroke-width="0.8"/><path d="M 1189.400 12.700 L 1189.400 458.500 L 1188.511 463.167 L 1186.292 466.824 L 1182.984 469.536 L 1178.964 470.997 L 1174.686 471.039 L 1170.637 469.660 L 1167.276 467.014 L 1164.984 463.402 L 1164.021 459.234 L 1164.000 458.500 L 1164.000 12.700 L 1164.720 8.484 L 1166.800 4.745 L 1170.002 1.910 L 1173.964 0.298 L 1178.237 0.093 L 1182.335 1.319 L 1185.794 3.835 L 1188.222 7.357 L 1189.102 9.964 L 1189.400 12.700 Z M 1173.700 392.667 L 1174.398 394.591 L 1176.168 395.619 L 1178.186 395.273 L 1179.512 393.713 L 1179.528 391.666 L 1178.228 390.085 L 1176.217 389.706 L 1174.430 390.705 L 1173.888 391.620 L 1173.700 392.667 Z M 1173.700 78.533 L 1174.398 80.458 L 1176.168 81.486 L 1178.186 81.140 L 1179.512 79.580 L 1179.528 77.533 L 1178.228 75.952 L 1176.217 75.573 L 1174.430 76.572 L 1173.888 77.487 L 1173.700 78.533 Z" fill="#fdae6b" fill-opacity="0.45" fill-rule="evenodd" stroke="#1f2937" stroke-width="0.8"/></g><text x="484.600" y="404.400" text-anchor="middle" dominant-baseline="central" font-size="11" fill="#111827">P001</text><text x="1051.400" y="404.400" text-anchor="middle" dominant-baseline="central" font-size="11" fill="#111827">P021</text><text x="1146.300" y="551.800" text-anchor="middle" dominant-baseline="central" font-size="11" fill="#111827">P282</text><text x="1176.700" y="551.800" text-anchor="middle" dominant-baseline="central" font-size="11" fill="#111827">P283</text></svg>