999
FreeCAD v1.1 20260725 (Git shallow)
  0
SECTION
  2
HEADER
  9
$ACADVER
  1
AC1014
  9
$ACADMAINTVER
 70
     9
  9
$DWGCODEPAGE
  3
ANSI_1252
  9
$TEXTSTYLE
  7
STANDARD
  9
$DIMSTYLE
  2
STANDARD
  9
$DIMTXSTY
  7
STANDARD
  9
$CMLSTYLE
  2
STANDARD
  9
$LUNITS
 70
2
  9
$INSUNITS
 70
4
  9
$PEXTMAX
 10
50
 20
50
 30
50
  9
$PEXTMIN
 10
0
 20
0
 30
0
  9
$HANDSEED
  5
FFFF
  0
ENDSEC
  0
SECTION
  2
CLASSES
  0
CLASS
  1
ACDBDICTIONARYWDFLT
  2
AcDbDictionaryWithDefault
  3
ObjectDBX Classes
 90
        0
280
     0
281
     0
  0
CLASS
  1
XRECORD
  2
AcDbXrecord
  3
ObjectDBX Classes
 90
        0
280
     0
281
     0
  0
CLASS
  1
LWPOLYLINE
  2
AcDbPolyline
  3
ObjectDBX Classes
 90
        0
280
     0
281
     1
  0
ENDSEC
  0
SECTION
  2
TABLES
  0
TABLE
  2
VPORT
  5
20
330
0
100
AcDbSymbolTable
 70
     1
  0
VPORT
  5
21
330
20
100
AcDbSymbolTableRecord
100
AcDbViewportTableRecord
  2
*ACTIVE
 70
     0
  0
ENDTAB
  0
TABLE
  2
LTYPE
  5
22
330
0
100
AcDbSymbolTable
 70
     1
  0
LTYPE
  5
23
330
21
100
AcDbSymbolTableRecord
100
AcDbLinetypeTableRecord
  2
BYBLOCK
 70
     0
  3

 72
    65
 73
     0
 40
0.0
  0
LTYPE
  5
24
330
21
100
AcDbSymbolTableRecord
100
AcDbLinetypeTableRecord
  2
BYLAYER
 70
     0
  3

 72
    65
 73
     0
 40
0.0
  0
LTYPE
  5
25
330
21
100
AcDbSymbolTableRecord
100
AcDbLinetypeTableRecord
  2
CONTINUOUS
 70
     0
  3
Solid line
 72
    65
 73
     0
 40
0.0
  0
ENDTAB
  0
TABLE
  2
LAYER
  5
BF2
330
0
100
AcDbSymbolTable
 70
3
  0
LAYER
  5
BF3
330
BF2
100
AcDbSymbolTableRecord
100
AcDbLayerTableRecord
  2
0
 70
   0
 62
   7
  6
CONTINUOUS
  0
LAYER
  5
BF4
330
BF2
100
AcDbSymbolTableRecord
100
AcDbLayerTableRecord
  2
none
 70
    0
 62
    7
  6
CONTINUOUS
  0
LAYER
  5
BF5
330
BF2
100
AcDbSymbolTableRecord
100
AcDbLayerTableRecord
  2
SheetCutProfiles
 70
    0
 62
    7
  6
CONTINUOUS
  0
ENDTAB
  0
TABLE
  2
STYLE
  5
70
330
0
100
AcDbSymbolTable
 70
     2
  0
STYLE
  5
71
330
70
100
AcDbSymbolTableRecord
100
AcDbTextStyleTableRecord
  2
STANDARD
 70
     0
 40
0.0
 41
1.0
 50
0.0
 71
     0
 42
2.5
  3
arial.ttf
  4

  0
STYLE
  5
72
330
70
100
AcDbSymbolTableRecord
100
AcDbTextStyleTableRecord
  2
ANNOTATIVE
 70
     0
 40
0.0
 41
1.0
 50
0.0
 71
     0
 42
2.5
  3
arial.ttf
  4

  0
ENDTAB
  0
TABLE
  2
VIEW
  5
73
330
0
100
AcDbSymbolTable
 70
     0
  0
ENDTAB
  0
TABLE
  2
UCS
  5
74
330
0
100
AcDbSymbolTable
 70
     0
  0
ENDTAB
  0
TABLE
  2
APPID
  5
75
330
0
100
AcDbSymbolTable
 70
     2
  0
APPID
  5
76
330
75
100
AcDbSymbolTableRecord
100
AcDbRegAppTableRecord
  2
ACAD
 70
     0
  0
APPID
  5
77
330
75
100
AcDbSymbolTableRecord
100
AcDbRegAppTableRecord
  2
ACADANNOTATIVE
 70
     0
  0
ENDTAB
  0
TABLE
  2
DIMSTYLE
  5
78
330
0
100
AcDbSymbolTable
 70
     2
  0
DIMSTYLE
105
79
330
78
100
AcDbSymbolTableRecord
100
AcDbDimStyleTableRecord
  2
STANDARD
 70
     0
  3

  4

  5

  6

  7

 40
0.0
 41
2.5
 42
0.625
 43
3.75
 44
1.25
 45
0.0
 46
0.0
 47
0.0
 48
0.0
140
2.5
141
2.5
142
0.0
143
0.03937007874016
144
1.0
145
0.0
146
1.0
147
0.625
 71
     0
 72
     0
 73
     0
 74
     0
 75
     0
 76
     0
 77
     1
 78
     8
170
     0
171
     3
172
     1
173
     0
174
     0
175
     0
176
     0
177
     0
178
     0
270
     2
271
     2
272
     2
273
     2
274
     3
340
71
275
     0
280
     0
281
     0
282
     0
283
     0
284
     8
285
     0
286
     0
287
     3
288
     0
  0
ENDTAB
  0
TABLE
  2
BLOCK_RECORD
  5
A01
330
0
100
AcDbSymbolTable
  70
5
  0
BLOCK_RECORD
  5
A02
330
A01
100
AcDbSymbolTableRecord
100
AcDbBlockTableRecord
  2
*MODEL_SPACE
  0
BLOCK_RECORD
  5
A03
330
A01
100
AcDbSymbolTableRecord
100
AcDbBlockTableRecord
  2
*PAPER_SPACE
  0
ENDTAB
  0
ENDSEC
  0
SECTION
  2
BLOCKS
  0
BLOCK
  5
A04
330
A02
100
AcDbEntity
  8
0
100
AcDbBlockBegin
  2
*MODEL_SPACE
 70
   0
 10
0
 20
0
 30
0
  3
*MODEL_SPACE
  1
 
  0
ENDBLK
  5
A05
330
A02
100
AcDbEntity
  8
0
100
AcDbBlockEnd
  0
BLOCK
  5
A06
330
A03
100
AcDbEntity
 67
1
  8
0
100
AcDbBlockBegin
  2
*PAPER_SPACE
 70
   0
 10
0
 20
0
 30
0
  3
*PAPER_SPACE
  1
 
  0
ENDBLK
  5
A07
330
A03
100
AcDbEntity
 67
    1
  8
0
100
AcDbBlockEnd
  0
ENDSEC
  0
SECTION
  2
ENTITIES
  0
LINE
  5
A08
330
A02
100
AcDbEntity
  8
SheetCutProfiles
100
AcDbLine
 10
1088.800000000
 20
502.475000000
 30
0.000000000
 11
1088.800000000
 21
508.000000000
 31
0.000000000
  0
ARC
  5
A09
330
A02
100
AcDbEntity
  8
SheetCutProfiles
100
AcDbCircle
 10
1086.800000000
 20
502.475000000
 30
0.000000000
 40
2.000000000
100
AcDbArc
 50
-90.000000000
 51
0.000000000
  0
LINE
  5
A0A
330
A02
100
AcDbEntity
  8
SheetCutProfiles
100
AcDbLine
 10
1075.200000000
 20
500.475000000
 30
0.000000000
 11
1086.800000000
 21
500.475000000
 31
0.000000000
  0
LINE
  5
A0B
330
A02
100
AcDbEntity
  8
SheetCutProfiles
100
AcDbLine
 10
1075.200000000
 20
481.425000000
 30
0.000000000
 11
1075.200000000
 21
500.475000000
 31
0.000000000
  0
LINE
  5
A0C
330
A02
100
AcDbEntity
  8
SheetCutProfiles
100
AcDbLine
 10
1086.800000000
 20
481.425000000
 30
0.000000000
 11
1075.200000000
 21
481.425000000
 31
0.000000000
  0
ARC
  5
A0D
330
A02
100
AcDbEntity
  8
SheetCutProfiles
100
AcDbCircle
 10
1086.800000000
 20
479.425000000
 30
0.000000000
 40
2.000000000
100
AcDbArc
 50
0.000000000
 51
90.000000000
  0
LINE
  5
A0E
330
A02
100
AcDbEntity
  8
SheetCutProfiles
100
AcDbLine
 10
1088.800000000
 20
464.375000000
 30
0.000000000
 11
1088.800000000
 21
479.425000000
 31
0.000000000
  0
ARC
  5
A0F
330
A02
100
AcDbEntity
  8
SheetCutProfiles
100
AcDbCircle
 10
1086.800000000
 20
464.375000000
 30
0.000000000
 40
2.000000000
100
AcDbArc
 50
-90.000000000
 51
0.000000000
  0
LINE
  5
A10
330
A02
100
AcDbEntity
  8
SheetCutProfiles
100
AcDbLine
 10
1075.200000000
 20
462.375000000
 30
0.000000000
 11
1086.800000000
 21
462.375000000
 31
0.000000000
  0
LINE
  5
A11
330
A02
100
AcDbEntity
  8
SheetCutProfiles
100
AcDbLine
 10
1075.200000000
 20
443.325000000
 30
0.000000000
 11
1075.200000000
 21
462.375000000
 31
0.000000000
  0
LINE
  5
A12
330
A02
100
AcDbEntity
  8
SheetCutProfiles
100
AcDbLine
 10
1086.800000000
 20
443.325000000
 30
0.000000000
 11
1075.200000000
 21
443.325000000
 31
0.000000000
  0
ARC
  5
A13
330
A02
100
AcDbEntity
  8
SheetCutProfiles
100
AcDbCircle
 10
1086.800000000
 20
441.325000000
 30
0.000000000
 40
2.000000000
100
AcDbArc
 50
0.000000000
 51
90.000000000
  0
LINE
  5
A14
330
A02
100
AcDbEntity
  8
SheetCutProfiles
100
AcDbLine
 10
1088.800000000
 20
426.275000000
 30
0.000000000
 11
1088.800000000
 21
441.325000000
 31
0.000000000
  0
ARC
  5
A15
330
A02
100
AcDbEntity
  8
SheetCutProfiles
100
AcDbCircle
 10
1086.800000000
 20
426.275000000
 30
0.000000000
 40
2.000000000
100
AcDbArc
 50
-90.000000000
 51
0.000000000
  0
LINE
  5
A16
330
A02
100
AcDbEntity
  8
SheetCutProfiles
100
AcDbLine
 10
1075.200000000
 20
424.275000000
 30
0.000000000
 11
1086.800000000
 21
424.275000000
 31
0.000000000
  0
LINE
  5
A17
330
A02
100
AcDbEntity
  8
SheetCutProfiles
100
AcDbLine
 10
1075.200000000
 20
405.225000000
 30
0.000000000
 11
1075.200000000
 21
424.275000000
 31
0.000000000
  0
LINE
  5
A18
330
A02
100
AcDbEntity
  8
SheetCutProfiles
100
AcDbLine
 10
1086.800000000
 20
405.225000000
 30
0.000000000
 11
1075.200000000
 21
405.225000000
 31
0.000000000
  0
ARC
  5
A19
330
A02
100
AcDbEntity
  8
SheetCutProfiles
100
AcDbCircle
 10
1086.800000000
 20
403.225000000
 30
0.000000000
 40
2.000000000
100
AcDbArc
 50
0.000000000
 51
90.000000000
  0
LINE
  5
A1A
330
A02
100
AcDbEntity
  8
SheetCutProfiles
100
AcDbLine
 10
1088.800000000
 20
388.175000000
 30
0.000000000
 11
1088.800000000
 21
403.225000000
 31
0.000000000
  0
ARC
  5
A1B
330
A02
100
AcDbEntity
  8
SheetCutProfiles
100
AcDbCircle
 10
1086.800000000
 20
388.175000000
 30
0.000000000
 40
2.000000000
100
AcDbArc
 50
-90.000000000
 51
0.000000000
  0
LINE
  5
A1C
330
A02
100
AcDbEntity
  8
SheetCutProfiles
100
AcDbLine
 10
1075.200000000
 20
386.175000000
 30
0.000000000
 11
1086.800000000
 21
386.175000000
 31
0.000000000
  0
LINE
  5
A1D
330
A02
100
AcDbEntity
  8
SheetCutProfiles
100
AcDbLine
 10
1075.200000000
 20
367.125000000
 30
0.000000000
 11
1075.200000000
 21
386.175000000
 31
0.000000000
  0
LINE
  5
A1E
330
A02
100
AcDbEntity
  8
SheetCutProfiles
100
AcDbLine
 10
1086.800000000
 20
367.125000000
 30
0.000000000
 11
1075.200000000
 21
367.125000000
 31
0.000000000
  0
ARC
  5
A1F
330
A02
100
AcDbEntity
  8
SheetCutProfiles
100
AcDbCircle
 10
1086.800000000
 20
365.125000000
 30
0.000000000
 40
2.000000000
100
AcDbArc
 50
0.000000000
 51
90.000000000
  0
LINE
  5
A20
330
A02
100
AcDbEntity
  8
SheetCutProfiles
100
AcDbLine
 10
1088.800000000
 20
359.600000000
 30
0.000000000
 11
1088.800000000
 21
365.125000000
 31
0.000000000
  0
ARC
  5
A21
330
A02
100
AcDbEntity
  8
SheetCutProfiles
100
AcDbCircle
 10
1086.800000000
 20
359.600000000
 30
0.000000000
 40
2.000000000
100
AcDbArc
 50
-90.000000000
 51
0.000000000
  0
LINE
  5
A22
330
A02
100
AcDbEntity
  8
SheetCutProfiles
100
AcDbLine
 10
1086.800000000
 20
357.600000000
 30
0.000000000
 11
1086.800000000
 21
154.400000000
 31
0.000000000
  0
ARC
  5
A23
330
A02
100
AcDbEntity
  8
SheetCutProfiles
100
AcDbCircle
 10
1086.800000000
 20
152.400000000
 30
0.000000000
 40
2.000000000
100
AcDbArc
 50
0.000000000
 51
90.000000000
  0
LINE
  5
A24
330
A02
100
AcDbEntity
  8
SheetCutProfiles
100
AcDbLine
 10
1088.800000000
 20
146.875000000
 30
0.000000000
 11
1088.800000000
 21
152.400000000
 31
0.000000000
  0
ARC
  5
A25
330
A02
100
AcDbEntity
  8
SheetCutProfiles
100
AcDbCircle
 10
1086.800000000
 20
146.875000000
 30
0.000000000
 40
2.000000000
100
AcDbArc
 50
-90.000000000
 51
0.000000000
  0
LINE
  5
A26
330
A02
100
AcDbEntity
  8
SheetCutProfiles
100
AcDbLine
 10
1075.200000000
 20
144.875000000
 30
0.000000000
 11
1086.800000000
 21
144.875000000
 31
0.000000000
  0
LINE
  5
A27
330
A02
100
AcDbEntity
  8
SheetCutProfiles
100
AcDbLine
 10
1075.200000000
 20
125.825000000
 30
0.000000000
 11
1075.200000000
 21
144.875000000
 31
0.000000000
  0
LINE
  5
A28
330
A02
100
AcDbEntity
  8
SheetCutProfiles
100
AcDbLine
 10
1086.800000000
 20
125.825000000
 30
0.000000000
 11
1075.200000000
 21
125.825000000
 31
0.000000000
  0
ARC
  5
A29
330
A02
100
AcDbEntity
  8
SheetCutProfiles
100
AcDbCircle
 10
1086.800000000
 20
123.825000000
 30
0.000000000
 40
2.000000000
100
AcDbArc
 50
0.000000000
 51
90.000000000
  0
LINE
  5
A2A
330
A02
100
AcDbEntity
  8
SheetCutProfiles
100
AcDbLine
 10
1088.800000000
 20
108.775000000
 30
0.000000000
 11
1088.800000000
 21
123.825000000
 31
0.000000000
  0
ARC
  5
A2B
330
A02
100
AcDbEntity
  8
SheetCutProfiles
100
AcDbCircle
 10
1086.800000000
 20
108.775000000
 30
0.000000000
 40
2.000000000
100
AcDbArc
 50
-90.000000000
 51
0.000000000
  0
LINE
  5
A2C
330
A02
100
AcDbEntity
  8
SheetCutProfiles
100
AcDbLine
 10
1075.200000000
 20
106.775000000
 30
0.000000000
 11
1086.800000000
 21
106.775000000
 31
0.000000000
  0
LINE
  5
A2D
330
A02
100
AcDbEntity
  8
SheetCutProfiles
100
AcDbLine
 10
1075.200000000
 20
87.725000000
 30
0.000000000
 11
1075.200000000
 21
106.775000000
 31
0.000000000
  0
LINE
  5
A2E
330
A02
100
AcDbEntity
  8
SheetCutProfiles
100
AcDbLine
 10
1086.800000000
 20
87.725000000
 30
0.000000000
 11
1075.200000000
 21
87.725000000
 31
0.000000000
  0
ARC
  5
A2F
330
A02
100
AcDbEntity
  8
SheetCutProfiles
100
AcDbCircle
 10
1086.800000000
 20
85.725000000
 30
0.000000000
 40
2.000000000
100
AcDbArc
 50
0.000000000
 51
90.000000000
  0
LINE
  5
A30
330
A02
100
AcDbEntity
  8
SheetCutProfiles
100
AcDbLine
 10
1088.800000000
 20
70.675000000
 30
0.000000000
 11
1088.800000000
 21
85.725000000
 31
0.000000000
  0
ARC
  5
A31
330
A02
100
AcDbEntity
  8
SheetCutProfiles
100
AcDbCircle
 10
1086.800000000
 20
70.675000000
 30
0.000000000
 40
2.000000000
100
AcDbArc
 50
-90.000000000
 51
0.000000000
  0
LINE
  5
A32
330
A02
100
AcDbEntity
  8
SheetCutProfiles
100
AcDbLine
 10
1075.200000000
 20
68.675000000
 30
0.000000000
 11
1086.800000000
 21
68.675000000
 31
0.000000000
  0
LINE
  5
A33
330
A02
100
AcDbEntity
  8
SheetCutProfiles
100
AcDbLine
 10
1075.200000000
 20
49.625000000
 30
0.000000000
 11
1075.200000000
 21
68.675000000
 31
0.000000000
  0
LINE
  5
A34
330
A02
100
AcDbEntity
  8
SheetCutProfiles
100
AcDbLine
 10
1086.800000000
 20
49.625000000
 30
0.000000000
 11
1075.200000000
 21
49.625000000
 31
0.000000000
  0
ARC
  5
A35
330
A02
100
AcDbEntity
  8
SheetCutProfiles
100
AcDbCircle
 10
1086.800000000
 20
47.625000000
 30
0.000000000
 40
2.000000000
100
AcDbArc
 50
0.000000000
 51
90.000000000
  0
LINE
  5
A36
330
A02
100
AcDbEntity
  8
SheetCutProfiles
100
AcDbLine
 10
1088.800000000
 20
32.575000000
 30
0.000000000
 11
1088.800000000
 21
47.625000000
 31
0.000000000
  0
ARC
  5
A37
330
A02
100
AcDbEntity
  8
SheetCutProfiles
100
AcDbCircle
 10
1086.800000000
 20
32.575000000
 30
0.000000000
 40
2.000000000
100
AcDbArc
 50
-90.000000000
 51
0.000000000
  0
LINE
  5
A38
330
A02
100
AcDbEntity
  8
SheetCutProfiles
100
AcDbLine
 10
1075.200000000
 20
30.575000000
 30
0.000000000
 11
1086.800000000
 21
30.575000000
 31
0.000000000
  0
LINE
  5
A39
330
A02
100
AcDbEntity
  8
SheetCutProfiles
100
AcDbLine
 10
1075.200000000
 20
11.525000000
 30
0.000000000
 11
1075.200000000
 21
30.575000000
 31
0.000000000
  0
LINE
  5
A3A
330
A02
100
AcDbEntity
  8
SheetCutProfiles
100
AcDbLine
 10
1086.800000000
 20
11.525000000
 30
0.000000000
 11
1075.200000000
 21
11.525000000
 31
0.000000000
  0
ARC
  5
A3B
330
A02
100
AcDbEntity
  8
SheetCutProfiles
100
AcDbCircle
 10
1086.800000000
 20
9.525000000
 30
0.000000000
 40
2.000000000
100
AcDbArc
 50
0.000000000
 51
90.000000000
  0
LINE
  5
A3C
330
A02
100
AcDbEntity
  8
SheetCutProfiles
100
AcDbLine
 10
1088.800000000
 20
4.000000000
 30
0.000000000
 11
1088.800000000
 21
9.525000000
 31
0.000000000
  0
ARC
  5
A3D
330
A02
100
AcDbEntity
  8
SheetCutProfiles
100
AcDbCircle
 10
1086.800000000
 20
4.000000000
 30
0.000000000
 40
2.000000000
100
AcDbArc
 50
-90.000000000
 51
0.000000000
  0
LINE
  5
A3E
330
A02
100
AcDbEntity
  8
SheetCutProfiles
100
AcDbLine
 10
842.800000000
 20
2.000000000
 30
0.000000000
 11
1086.800000000
 21
2.000000000
 31
0.000000000
  0
ARC
  5
A3F
330
A02
100
AcDbEntity
  8
SheetCutProfiles
100
AcDbCircle
 10
840.800000000
 20
2.000000000
 30
0.000000000
 40
2.000000000
100
AcDbArc
 50
-90.000000000
 51
0.000000000
  0
LINE
  5
A40
330
A02
100
AcDbEntity
  8
SheetCutProfiles
100
AcDbLine
 10
840.800000000
 20
0.000000000
 30
0.000000000
 11
838.550000000
 21
0.000000000
 31
0.000000000
  0
ARC
  5
A41
330
A02
100
AcDbEntity
  8
SheetCutProfiles
100
AcDbCircle
 10
838.550000000
 20
2.000000000
 30
0.000000000
 40
2.000000000
100
AcDbArc
 50
180.000000000
 51
-90.000000000
  0
LINE
  5
A42
330
A02
100
AcDbEntity
  8
SheetCutProfiles
100
AcDbLine
 10
836.550000000
 20
13.600000000
 30
0.000000000
 11
836.550000000
 21
2.000000000
 31
0.000000000
  0
LINE
  5
A43
330
A02
100
AcDbEntity
  8
SheetCutProfiles
100
AcDbLine
 10
824.050000000
 20
13.600000000
 30
0.000000000
 11
836.550000000
 21
13.600000000
 31
0.000000000
  0
LINE
  5
A44
330
A02
100
AcDbEntity
  8
SheetCutProfiles
100
AcDbLine
 10
824.050000000
 20
2.000000000
 30
0.000000000
 11
824.050000000
 21
13.600000000
 31
0.000000000
  0
ARC
  5
A45
330
A02
100
AcDbEntity
  8
SheetCutProfiles
100
AcDbCircle
 10
822.050000000
 20
2.000000000
 30
0.000000000
 40
2.000000000
100
AcDbArc
 50
-90.000000000
 51
0.000000000
  0
LINE
  5
A46
330
A02
100
AcDbEntity
  8
SheetCutProfiles
100
AcDbLine
 10
822.050000000
 20
0.000000000
 30
0.000000000
 11
813.550000000
 21
0.000000000
 31
0.000000000
  0
ARC
  5
A47
330
A02
100
AcDbEntity
  8
SheetCutProfiles
100
AcDbCircle
 10
813.550000000
 20
2.000000000
 30
0.000000000
 40
2.000000000
100
AcDbArc
 50
180.000000000
 51
-90.000000000
  0
LINE
  5
A48
330
A02
100
AcDbEntity
  8
SheetCutProfiles
100
AcDbLine
 10
811.550000000
 20
13.600000000
 30
0.000000000
 11
811.550000000
 21
2.000000000
 31
0.000000000
  0
LINE
  5
A49
330
A02
100
AcDbEntity
  8
SheetCutProfiles
100
AcDbLine
 10
799.050000000
 20
13.600000000
 30
0.000000000
 11
811.550000000
 21
13.600000000
 31
0.000000000
  0
LINE
  5
A4A
330
A02
100
AcDbEntity
  8
SheetCutProfiles
100
AcDbLine
 10
799.050000000
 20
2.000000000
 30
0.000000000
 11
799.050000000
 21
13.600000000
 31
0.000000000
  0
ARC
  5
A4B
330
A02
100
AcDbEntity
  8
SheetCutProfiles
100
AcDbCircle
 10
797.050000000
 20
2.000000000
 30
0.000000000
 40
2.000000000
100
AcDbArc
 50
-90.000000000
 51
0.000000000
  0
LINE
  5
A4C
330
A02
100
AcDbEntity
  8
SheetCutProfiles
100
AcDbLine
 10
797.050000000
 20
0.000000000
 30
0.000000000
 11
788.550000000
 21
0.000000000
 31
0.000000000
  0
ARC
  5
A4D
330
A02
100
AcDbEntity
  8
SheetCutProfiles
100
AcDbCircle
 10
788.550000000
 20
2.000000000
 30
0.000000000
 40
2.000000000
100
AcDbArc
 50
180.000000000
 51
-90.000000000
  0
LINE
  5
A4E
330
A02
100
AcDbEntity
  8
SheetCutProfiles
100
AcDbLine
 10
786.550000000
 20
13.600000000
 30
0.000000000
 11
786.550000000
 21
2.000000000
 31
0.000000000
  0
LINE
  5
A4F
330
A02
100
AcDbEntity
  8
SheetCutProfiles
100
AcDbLine
 10
774.050000000
 20
13.600000000
 30
0.000000000
 11
786.550000000
 21
13.600000000
 31
0.000000000
  0
LINE
  5
A50
330
A02
100
AcDbEntity
  8
SheetCutProfiles
100
AcDbLine
 10
774.050000000
 20
2.000000000
 30
0.000000000
 11
774.050000000
 21
13.600000000
 31
0.000000000
  0
ARC
  5
A51
330
A02
100
AcDbEntity
  8
SheetCutProfiles
100
AcDbCircle
 10
772.050000000
 20
2.000000000
 30
0.000000000
 40
2.000000000
100
AcDbArc
 50
-90.000000000
 51
0.000000000
  0
LINE
  5
A52
330
A02
100
AcDbEntity
  8
SheetCutProfiles
100
AcDbLine
 10
772.050000000
 20
0.000000000
 30
0.000000000
 11
763.550000000
 21
0.000000000
 31
0.000000000
  0
ARC
  5
A53
330
A02
100
AcDbEntity
  8
SheetCutProfiles
100
AcDbCircle
 10
763.550000000
 20
2.000000000
 30
0.000000000
 40
2.000000000
100
AcDbArc
 50
180.000000000
 51
-90.000000000
  0
LINE
  5
A54
330
A02
100
AcDbEntity
  8
SheetCutProfiles
100
AcDbLine
 10
761.550000000
 20
13.600000000
 30
0.000000000
 11
761.550000000
 21
2.000000000
 31
0.000000000
  0
LINE
  5
A55
330
A02
100
AcDbEntity
  8
SheetCutProfiles
100
AcDbLine
 10
749.050000000
 20
13.600000000
 30
0.000000000
 11
761.550000000
 21
13.600000000
 31
0.000000000
  0
LINE
  5
A56
330
A02
100
AcDbEntity
  8
SheetCutProfiles
100
AcDbLine
 10
749.050000000
 20
2.000000000
 30
0.000000000
 11
749.050000000
 21
13.600000000
 31
0.000000000
  0
ARC
  5
A57
330
A02
100
AcDbEntity
  8
SheetCutProfiles
100
AcDbCircle
 10
747.050000000
 20
2.000000000
 30
0.000000000
 40
2.000000000
100
AcDbArc
 50
-90.000000000
 51
0.000000000
  0
LINE
  5
A58
330
A02
100
AcDbEntity
  8
SheetCutProfiles
100
AcDbLine
 10
747.050000000
 20
0.000000000
 30
0.000000000
 11
744.800000000
 21
0.000000000
 31
0.000000000
  0
ARC
  5
A59
330
A02
100
AcDbEntity
  8
SheetCutProfiles
100
AcDbCircle
 10
744.800000000
 20
2.000000000
 30
0.000000000
 40
2.000000000
100
AcDbArc
 50
180.000000000
 51
-90.000000000
  0
LINE
  5
A5A
330
A02
100
AcDbEntity
  8
SheetCutProfiles
100
AcDbLine
 10
742.800000000
 20
33.750000000
 30
0.000000000
 11
742.800000000
 21
2.000000000
 31
0.000000000
  0
LINE
  5
A5B
330
A02
100
AcDbEntity
  8
SheetCutProfiles
100
AcDbLine
 10
742.800000000
 20
33.750000000
 30
0.000000000
 11
731.200000000
 21
33.750000000
 31
0.000000000
  0
ARC
  5
A5C
330
A02
100
AcDbEntity
  8
SheetCutProfiles
100
AcDbCircle
 10
731.200000000
 20
35.750000000
 30
0.000000000
 40
2.000000000
100
AcDbArc
 50
180.000000000
 51
-90.000000000
  0
LINE
  5
A5D
330
A02
100
AcDbEntity
  8
SheetCutProfiles
100
AcDbLine
 10
729.200000000
 20
95.250000000
 30
0.000000000
 11
729.200000000
 21
35.750000000
 31
0.000000000
  0
ARC
  5
A5E
330
A02
100
AcDbEntity
  8
SheetCutProfiles
100
AcDbCircle
 10
731.200000000
 20
95.250000000
 30
0.000000000
 40
2.000000000
100
AcDbArc
 50
90.000000000
 51
180.000000000
  0
LINE
  5
A5F
330
A02
100
AcDbEntity
  8
SheetCutProfiles
100
AcDbLine
 10
731.200000000
 20
97.250000000
 30
0.000000000
 11
742.800000000
 21
97.250000000
 31
0.000000000
  0
LINE
  5
A60
330
A02
100
AcDbEntity
  8
SheetCutProfiles
100
AcDbLine
 10
742.800000000
 20
160.750000000
 30
0.000000000
 11
742.800000000
 21
97.250000000
 31
0.000000000
  0
LINE
  5
A61
330
A02
100
AcDbEntity
  8
SheetCutProfiles
100
AcDbLine
 10
742.800000000
 20
160.750000000
 30
0.000000000
 11
731.200000000
 21
160.750000000
 31
0.000000000
  0
ARC
  5
A62
330
A02
100
AcDbEntity
  8
SheetCutProfiles
100
AcDbCircle
 10
731.200000000
 20
162.750000000
 30
0.000000000
 40
2.000000000
100
AcDbArc
 50
180.000000000
 51
-90.000000000
  0
LINE
  5
A63
330
A02
100
AcDbEntity
  8
SheetCutProfiles
100
AcDbLine
 10
729.200000000
 20
222.250000000
 30
0.000000000
 11
729.200000000
 21
162.750000000
 31
0.000000000
  0
ARC
  5
A64
330
A02
100
AcDbEntity
  8
SheetCutProfiles
100
AcDbCircle
 10
731.200000000
 20
222.250000000
 30
0.000000000
 40
2.000000000
100
AcDbArc
 50
90.000000000
 51
180.000000000
  0
LINE
  5
A65
330
A02
100
AcDbEntity
  8
SheetCutProfiles
100
AcDbLine
 10
731.200000000
 20
224.250000000
 30
0.000000000
 11
742.800000000
 21
224.250000000
 31
0.000000000
  0
LINE
  5
A66
330
A02
100
AcDbEntity
  8
SheetCutProfiles
100
AcDbLine
 10
742.800000000
 20
287.750000000
 30
0.000000000
 11
742.800000000
 21
224.250000000
 31
0.000000000
  0
LINE
  5
A67
330
A02
100
AcDbEntity
  8
SheetCutProfiles
100
AcDbLine
 10
742.800000000
 20
287.750000000
 30
0.000000000
 11
731.200000000
 21
287.750000000
 31
0.000000000
  0
ARC
  5
A68
330
A02
100
AcDbEntity
  8
SheetCutProfiles
100
AcDbCircle
 10
731.200000000
 20
289.750000000
 30
0.000000000
 40
2.000000000
100
AcDbArc
 50
180.000000000
 51
-90.000000000
  0
LINE
  5
A69
330
A02
100
AcDbEntity
  8
SheetCutProfiles
100
AcDbLine
 10
729.200000000
 20
349.250000000
 30
0.000000000
 11
729.200000000
 21
289.750000000
 31
0.000000000
  0
ARC
  5
A6A
330
A02
100
AcDbEntity
  8
SheetCutProfiles
100
AcDbCircle
 10
731.200000000
 20
349.250000000
 30
0.000000000
 40
2.000000000
100
AcDbArc
 50
90.000000000
 51
180.000000000
  0
LINE
  5
A6B
330
A02
100
AcDbEntity
  8
SheetCutProfiles
100
AcDbLine
 10
731.200000000
 20
351.250000000
 30
0.000000000
 11
742.800000000
 21
351.250000000
 31
0.000000000
  0
LINE
  5
A6C
330
A02
100
AcDbEntity
  8
SheetCutProfiles
100
AcDbLine
 10
742.800000000
 20
414.750000000
 30
0.000000000
 11
742.800000000
 21
351.250000000
 31
0.000000000
  0
LINE
  5
A6D
330
A02
100
AcDbEntity
  8
SheetCutProfiles
100
AcDbLine
 10
742.800000000
 20
414.750000000
 30
0.000000000
 11
731.200000000
 21
414.750000000
 31
0.000000000
  0
ARC
  5
A6E
330
A02
100
AcDbEntity
  8
SheetCutProfiles
100
AcDbCircle
 10
731.200000000
 20
416.750000000
 30
0.000000000
 40
2.000000000
100
AcDbArc
 50
180.000000000
 51
-90.000000000
  0
LINE
  5
A6F
330
A02
100
AcDbEntity
  8
SheetCutProfiles
100
AcDbLine
 10
729.200000000
 20
476.250000000
 30
0.000000000
 11
729.200000000
 21
416.750000000
 31
0.000000000
  0
ARC
  5
A70
330
A02
100
AcDbEntity
  8
SheetCutProfiles
100
AcDbCircle
 10
731.200000000
 20
476.250000000
 30
0.000000000
 40
2.000000000
100
AcDbArc
 50
90.000000000
 51
180.000000000
  0
LINE
  5
A71
330
A02
100
AcDbEntity
  8
SheetCutProfiles
100
AcDbLine
 10
731.200000000
 20
478.250000000
 30
0.000000000
 11
742.800000000
 21
478.250000000
 31
0.000000000
  0
LINE
  5
A72
330
A02
100
AcDbEntity
  8
SheetCutProfiles
100
AcDbLine
 10
742.800000000
 20
510.000000000
 30
0.000000000
 11
742.800000000
 21
478.250000000
 31
0.000000000
  0
ARC
  5
A73
330
A02
100
AcDbEntity
  8
SheetCutProfiles
100
AcDbCircle
 10
744.800000000
 20
510.000000000
 30
0.000000000
 40
2.000000000
100
AcDbArc
 50
90.000000000
 51
180.000000000
  0
LINE
  5
A74
330
A02
100
AcDbEntity
  8
SheetCutProfiles
100
AcDbLine
 10
761.575000000
 20
512.000000000
 30
0.000000000
 11
744.800000000
 21
512.000000000
 31
0.000000000
  0
ARC
  5
A75
330
A02
100
AcDbEntity
  8
SheetCutProfiles
100
AcDbCircle
 10
761.575000000
 20
510.000000000
 30
0.000000000
 40
2.000000000
100
AcDbArc
 50
0.000000000
 51
90.000000000
  0
LINE
  5
A76
330
A02
100
AcDbEntity
  8
SheetCutProfiles
100
AcDbLine
 10
763.575000000
 20
498.400000000
 30
0.000000000
 11
763.575000000
 21
510.000000000
 31
0.000000000
  0
LINE
  5
A77
330
A02
100
AcDbEntity
  8
SheetCutProfiles
100
AcDbLine
 10
805.125000000
 20
498.400000000
 30
0.000000000
 11
763.575000000
 21
498.400000000
 31
0.000000000
  0
LINE
  5
A78
330
A02
100
AcDbEntity
  8
SheetCutProfiles
100
AcDbLine
 10
805.125000000
 20
510.000000000
 30
0.000000000
 11
805.125000000
 21
498.400000000
 31
0.000000000
  0
ARC
  5
A79
330
A02
100
AcDbEntity
  8
SheetCutProfiles
100
AcDbCircle
 10
807.125000000
 20
510.000000000
 30
0.000000000
 40
2.000000000
100
AcDbArc
 50
90.000000000
 51
180.000000000
  0
LINE
  5
A7A
330
A02
100
AcDbEntity
  8
SheetCutProfiles
100
AcDbLine
 10
844.675000000
 20
512.000000000
 30
0.000000000
 11
807.125000000
 21
512.000000000
 31
0.000000000
  0
ARC
  5
A7B
330
A02
100
AcDbEntity
  8
SheetCutProfiles
100
AcDbCircle
 10
844.675000000
 20
510.000000000
 30
0.000000000
 40
2.000000000
100
AcDbArc
 50
0.000000000
 51
90.000000000
  0
LINE
  5
A7C
330
A02
100
AcDbEntity
  8
SheetCutProfiles
100
AcDbLine
 10
846.675000000
 20
498.400000000
 30
0.000000000
 11
846.675000000
 21
510.000000000
 31
0.000000000
  0
LINE
  5
A7D
330
A02
100
AcDbEntity
  8
SheetCutProfiles
100
AcDbLine
 10
888.225000000
 20
498.400000000
 30
0.000000000
 11
846.675000000
 21
498.400000000
 31
0.000000000
  0
LINE
  5
A7E
330
A02
100
AcDbEntity
  8
SheetCutProfiles
100
AcDbLine
 10
888.225000000
 20
510.000000000
 30
0.000000000
 11
888.225000000
 21
498.400000000
 31
0.000000000
  0
ARC
  5
A7F
330
A02
100
AcDbEntity
  8
SheetCutProfiles
100
AcDbCircle
 10
890.225000000
 20
510.000000000
 30
0.000000000
 40
2.000000000
100
AcDbArc
 50
90.000000000
 51
180.000000000
  0
LINE
  5
A80
330
A02
100
AcDbEntity
  8
SheetCutProfiles
100
AcDbLine
 10
927.775000000
 20
512.000000000
 30
0.000000000
 11
890.225000000
 21
512.000000000
 31
0.000000000
  0
ARC
  5
A81
330
A02
100
AcDbEntity
  8
SheetCutProfiles
100
AcDbCircle
 10
927.775000000
 20
510.000000000
 30
0.000000000
 40
2.000000000
100
AcDbArc
 50
0.000000000
 51
90.000000000
  0
LINE
  5
A82
330
A02
100
AcDbEntity
  8
SheetCutProfiles
100
AcDbLine
 10
929.775000000
 20
498.400000000
 30
0.000000000
 11
929.775000000
 21
510.000000000
 31
0.000000000
  0
LINE
  5
A83
330
A02
100
AcDbEntity
  8
SheetCutProfiles
100
AcDbLine
 10
971.325000000
 20
498.400000000
 30
0.000000000
 11
929.775000000
 21
498.400000000
 31
0.000000000
  0
LINE
  5
A84
330
A02
100
AcDbEntity
  8
SheetCutProfiles
100
AcDbLine
 10
971.325000000
 20
510.000000000
 30
0.000000000
 11
971.325000000
 21
498.400000000
 31
0.000000000
  0
ARC
  5
A85
330
A02
100
AcDbEntity
  8
SheetCutProfiles
100
AcDbCircle
 10
973.325000000
 20
510.000000000
 30
0.000000000
 40
2.000000000
100
AcDbArc
 50
90.000000000
 51
180.000000000
  0
LINE
  5
A86
330
A02
100
AcDbEntity
  8
SheetCutProfiles
100
AcDbLine
 10
1010.875000000
 20
512.000000000
 30
0.000000000
 11
973.325000000
 21
512.000000000
 31
0.000000000
  0
ARC
  5
A87
330
A02
100
AcDbEntity
  8
SheetCutProfiles
100
AcDbCircle
 10
1010.875000000
 20
510.000000000
 30
0.000000000
 40
2.000000000
100
AcDbArc
 50
0.000000000
 51
90.000000000
  0
LINE
  5
A88
330
A02
100
AcDbEntity
  8
SheetCutProfiles
100
AcDbLine
 10
1012.875000000
 20
498.400000000
 30
0.000000000
 11
1012.875000000
 21
510.000000000
 31
0.000000000
  0
LINE
  5
A89
330
A02
100
AcDbEntity
  8
SheetCutProfiles
100
AcDbLine
 10
1054.425000000
 20
498.400000000
 30
0.000000000
 11
1012.875000000
 21
498.400000000
 31
0.000000000
  0
LINE
  5
A8A
330
A02
100
AcDbEntity
  8
SheetCutProfiles
100
AcDbLine
 10
1054.425000000
 20
510.000000000
 30
0.000000000
 11
1054.425000000
 21
498.400000000
 31
0.000000000
  0
ARC
  5
A8B
330
A02
100
AcDbEntity
  8
SheetCutProfiles
100
AcDbCircle
 10
1056.425000000
 20
510.000000000
 30
0.000000000
 40
2.000000000
100
AcDbArc
 50
90.000000000
 51
180.000000000
  0
LINE
  5
A8C
330
A02
100
AcDbEntity
  8
SheetCutProfiles
100
AcDbLine
 10
1073.200000000
 20
512.000000000
 30
0.000000000
 11
1056.425000000
 21
512.000000000
 31
0.000000000
  0
ARC
  5
A8D
330
A02
100
AcDbEntity
  8
SheetCutProfiles
100
AcDbCircle
 10
1073.200000000
 20
510.000000000
 30
0.000000000
 40
2.000000000
100
AcDbArc
 50
0.000000000
 51
90.000000000
  0
LINE
  5
A8E
330
A02
100
AcDbEntity
  8
SheetCutProfiles
100
AcDbLine
 10
1086.800000000
 20
510.000000000
 30
0.000000000
 11
1075.200000000
 21
510.000000000
 31
0.000000000
  0
ARC
  5
A8F
330
A02
100
AcDbEntity
  8
SheetCutProfiles
100
AcDbCircle
 10
1086.800000000
 20
508.000000000
 30
0.000000000
 40
2.000000000
100
AcDbArc
 50
0.000000000
 51
90.000000000
  0
CIRCLE
  5
A90
330
A02
100
AcDbEntity
  8
SheetCutProfiles
100
AcDbCircle
 10
909.000000000
 20
85.333333333
 30
0.000000000
 40
3.000000000
  0
CIRCLE
  5
A91
330
A02
100
AcDbEntity
  8
SheetCutProfiles
100
AcDbCircle
 10
909.000000000
 20
171.333333333
 30
0.000000000
 40
3.750000000
  0
CIRCLE
  5
A92
330
A02
100
AcDbEntity
  8
SheetCutProfiles
100
AcDbCircle
 10
909.000000000
 20
340.666666667
 30
0.000000000
 40
3.750000000
  0
CIRCLE
  5
A93
330
A02
100
AcDbEntity
  8
SheetCutProfiles
100
AcDbCircle
 10
909.000000000
 20
426.666666667
 30
0.000000000
 40
3.000000000
  0
ARC
  5
A94
330
A02
100
AcDbEntity
  8
SheetCutProfiles
100
AcDbCircle
 10
357.600000000
 20
9.525000000
 30
0.000000000
 40
2.000000000
100
AcDbArc
 50
0.000000000
 51
90.000000000
  0
LINE
  5
A95
330
A02
100
AcDbEntity
  8
SheetCutProfiles
100
AcDbLine
 10
346.000000000
 20
11.525000000
 30
0.000000000
 11
357.600000000
 21
11.525000000
 31
0.000000000
  0
LINE
  5
A96
330
A02
100
AcDbEntity
  8
SheetCutProfiles
100
AcDbLine
 10
346.000000000
 20
11.525000000
 30
0.000000000
 11
346.000000000
 21
30.575000000
 31
0.000000000
  0
LINE
  5
A97
330
A02
100
AcDbEntity
  8
SheetCutProfiles
100
AcDbLine
 10
357.600000000
 20
30.575000000
 30
0.000000000
 11
346.000000000
 21
30.575000000
 31
0.000000000
  0
ARC
  5
A98
330
A02
100
AcDbEntity
  8
SheetCutProfiles
100
AcDbCircle
 10
357.600000000
 20
32.575000000
 30
0.000000000
 40
2.000000000
100
AcDbArc
 50
-90.000000000
 51
0.000000000
  0
LINE
  5
A99
330
A02
100
AcDbEntity
  8
SheetCutProfiles
100
AcDbLine
 10
359.600000000
 20
32.575000000
 30
0.000000000
 11
359.600000000
 21
47.625000000
 31
0.000000000
  0
ARC
  5
A9A
330
A02
100
AcDbEntity
  8
SheetCutProfiles
100
AcDbCircle
 10
357.600000000
 20
47.625000000
 30
0.000000000
 40
2.000000000
100
AcDbArc
 50
0.000000000
 51
90.000000000
  0
LINE
  5
A9B
330
A02
100
AcDbEntity
  8
SheetCutProfiles
100
AcDbLine
 10
346.000000000
 20
49.625000000
 30
0.000000000
 11
357.600000000
 21
49.625000000
 31
0.000000000
  0
LINE
  5
A9C
330
A02
100
AcDbEntity
  8
SheetCutProfiles
100
AcDbLine
 10
346.000000000
 20
49.625000000
 30
0.000000000
 11
346.000000000
 21
68.675000000
 31
0.000000000
  0
LINE
  5
A9D
330
A02
100
AcDbEntity
  8
SheetCutProfiles
100
AcDbLine
 10
357.600000000
 20
68.675000000
 30
0.000000000
 11
346.000000000
 21
68.675000000
 31
0.000000000
  0
ARC
  5
A9E
330
A02
100
AcDbEntity
  8
SheetCutProfiles
100
AcDbCircle
 10
357.600000000
 20
70.675000000
 30
0.000000000
 40
2.000000000
100
AcDbArc
 50
-90.000000000
 51
0.000000000
  0
LINE
  5
A9F
330
A02
100
AcDbEntity
  8
SheetCutProfiles
100
AcDbLine
 10
359.600000000
 20
70.675000000
 30
0.000000000
 11
359.600000000
 21
85.725000000
 31
0.000000000
  0
ARC
  5
AA0
330
A02
100
AcDbEntity
  8
SheetCutProfiles
100
AcDbCircle
 10
357.600000000
 20
85.725000000
 30
0.000000000
 40
2.000000000
100
AcDbArc
 50
0.000000000
 51
90.000000000
  0
LINE
  5
AA1
330
A02
100
AcDbEntity
  8
SheetCutProfiles
100
AcDbLine
 10
346.000000000
 20
87.725000000
 30
0.000000000
 11
357.600000000
 21
87.725000000
 31
0.000000000
  0
LINE
  5
AA2
330
A02
100
AcDbEntity
  8
SheetCutProfiles
100
AcDbLine
 10
346.000000000
 20
87.725000000
 30
0.000000000
 11
346.000000000
 21
106.775000000
 31
0.000000000
  0
LINE
  5
AA3
330
A02
100
AcDbEntity
  8
SheetCutProfiles
100
AcDbLine
 10
357.600000000
 20
106.775000000
 30
0.000000000
 11
346.000000000
 21
106.775000000
 31
0.000000000
  0
ARC
  5
AA4
330
A02
100
AcDbEntity
  8
SheetCutProfiles
100
AcDbCircle
 10
357.600000000
 20
108.775000000
 30
0.000000000
 40
2.000000000
100
AcDbArc
 50
-90.000000000
 51
0.000000000
  0
LINE
  5
AA5
330
A02
100
AcDbEntity
  8
SheetCutProfiles
100
AcDbLine
 10
359.600000000
 20
108.775000000
 30
0.000000000
 11
359.600000000
 21
123.825000000
 31
0.000000000
  0
ARC
  5
AA6
330
A02
100
AcDbEntity
  8
SheetCutProfiles
100
AcDbCircle
 10
357.600000000
 20
123.825000000
 30
0.000000000
 40
2.000000000
100
AcDbArc
 50
0.000000000
 51
90.000000000
  0
LINE
  5
AA7
330
A02
100
AcDbEntity
  8
SheetCutProfiles
100
AcDbLine
 10
346.000000000
 20
125.825000000
 30
0.000000000
 11
357.600000000
 21
125.825000000
 31
0.000000000
  0
LINE
  5
AA8
330
A02
100
AcDbEntity
  8
SheetCutProfiles
100
AcDbLine
 10
346.000000000
 20
125.825000000
 30
0.000000000
 11
346.000000000
 21
144.875000000
 31
0.000000000
  0
LINE
  5
AA9
330
A02
100
AcDbEntity
  8
SheetCutProfiles
100
AcDbLine
 10
357.600000000
 20
144.875000000
 30
0.000000000
 11
346.000000000
 21
144.875000000
 31
0.000000000
  0
ARC
  5
AAA
330
A02
100
AcDbEntity
  8
SheetCutProfiles
100
AcDbCircle
 10
357.600000000
 20
146.875000000
 30
0.000000000
 40
2.000000000
100
AcDbArc
 50
-90.000000000
 51
0.000000000
  0
LINE
  5
AAB
330
A02
100
AcDbEntity
  8
SheetCutProfiles
100
AcDbLine
 10
359.600000000
 20
146.875000000
 30
0.000000000
 11
359.600000000
 21
152.400000000
 31
0.000000000
  0
ARC
  5
AAC
330
A02
100
AcDbEntity
  8
SheetCutProfiles
100
AcDbCircle
 10
357.600000000
 20
152.400000000
 30
0.000000000
 40
2.000000000
100
AcDbArc
 50
0.000000000
 51
90.000000000
  0
LINE
  5
AAD
330
A02
100
AcDbEntity
  8
SheetCutProfiles
100
AcDbLine
 10
357.600000000
 20
154.400000000
 30
0.000000000
 11
357.600000000
 21
357.600000000
 31
0.000000000
  0
ARC
  5
AAE
330
A02
100
AcDbEntity
  8
SheetCutProfiles
100
AcDbCircle
 10
357.600000000
 20
359.600000000
 30
0.000000000
 40
2.000000000
100
AcDbArc
 50
-90.000000000
 51
0.000000000
  0
LINE
  5
AAF
330
A02
100
AcDbEntity
  8
SheetCutProfiles
100
AcDbLine
 10
359.600000000
 20
359.600000000
 30
0.000000000
 11
359.600000000
 21
365.125000000
 31
0.000000000
  0
ARC
  5
AB0
330
A02
100
AcDbEntity
  8
SheetCutProfiles
100
AcDbCircle
 10
357.600000000
 20
365.125000000
 30
0.000000000
 40
2.000000000
100
AcDbArc
 50
0.000000000
 51
90.000000000
  0
LINE
  5
AB1
330
A02
100
AcDbEntity
  8
SheetCutProfiles
100
AcDbLine
 10
346.000000000
 20
367.125000000
 30
0.000000000
 11
357.600000000
 21
367.125000000
 31
0.000000000
  0
LINE
  5
AB2
330
A02
100
AcDbEntity
  8
SheetCutProfiles
100
AcDbLine
 10
346.000000000
 20
367.125000000
 30
0.000000000
 11
346.000000000
 21
386.175000000
 31
0.000000000
  0
LINE
  5
AB3
330
A02
100
AcDbEntity
  8
SheetCutProfiles
100
AcDbLine
 10
357.600000000
 20
386.175000000
 30
0.000000000
 11
346.000000000
 21
386.175000000
 31
0.000000000
  0
ARC
  5
AB4
330
A02
100
AcDbEntity
  8
SheetCutProfiles
100
AcDbCircle
 10
357.600000000
 20
388.175000000
 30
0.000000000
 40
2.000000000
100
AcDbArc
 50
-90.000000000
 51
0.000000000
  0
LINE
  5
AB5
330
A02
100
AcDbEntity
  8
SheetCutProfiles
100
AcDbLine
 10
359.600000000
 20
388.175000000
 30
0.000000000
 11
359.600000000
 21
403.225000000
 31
0.000000000
  0
ARC
  5
AB6
330
A02
100
AcDbEntity
  8
SheetCutProfiles
100
AcDbCircle
 10
357.600000000
 20
403.225000000
 30
0.000000000
 40
2.000000000
100
AcDbArc
 50
0.000000000
 51
90.000000000
  0
LINE
  5
AB7
330
A02
100
AcDbEntity
  8
SheetCutProfiles
100
AcDbLine
 10
346.000000000
 20
405.225000000
 30
0.000000000
 11
357.600000000
 21
405.225000000
 31
0.000000000
  0
LINE
  5
AB8
330
A02
100
AcDbEntity
  8
SheetCutProfiles
100
AcDbLine
 10
346.000000000
 20
405.225000000
 30
0.000000000
 11
346.000000000
 21
424.275000000
 31
0.000000000
  0
LINE
  5
AB9
330
A02
100
AcDbEntity
  8
SheetCutProfiles
100
AcDbLine
 10
357.600000000
 20
424.275000000
 30
0.000000000
 11
346.000000000
 21
424.275000000
 31
0.000000000
  0
ARC
  5
ABA
330
A02
100
AcDbEntity
  8
SheetCutProfiles
100
AcDbCircle
 10
357.600000000
 20
426.275000000
 30
0.000000000
 40
2.000000000
100
AcDbArc
 50
-90.000000000
 51
0.000000000
  0
LINE
  5
ABB
330
A02
100
AcDbEntity
  8
SheetCutProfiles
100
AcDbLine
 10
359.600000000
 20
426.275000000
 30
0.000000000
 11
359.600000000
 21
441.325000000
 31
0.000000000
  0
ARC
  5
ABC
330
A02
100
AcDbEntity
  8
SheetCutProfiles
100
AcDbCircle
 10
357.600000000
 20
441.325000000
 30
0.000000000
 40
2.000000000
100
AcDbArc
 50
0.000000000
 51
90.000000000
  0
LINE
  5
ABD
330
A02
100
AcDbEntity
  8
SheetCutProfiles
100
AcDbLine
 10
346.000000000
 20
443.325000000
 30
0.000000000
 11
357.600000000
 21
443.325000000
 31
0.000000000
  0
LINE
  5
ABE
330
A02
100
AcDbEntity
  8
SheetCutProfiles
100
AcDbLine
 10
346.000000000
 20
443.325000000
 30
0.000000000
 11
346.000000000
 21
462.375000000
 31
0.000000000
  0
LINE
  5
ABF
330
A02
100
AcDbEntity
  8
SheetCutProfiles
100
AcDbLine
 10
357.600000000
 20
462.375000000
 30
0.000000000
 11
346.000000000
 21
462.375000000
 31
0.000000000
  0
ARC
  5
AC0
330
A02
100
AcDbEntity
  8
SheetCutProfiles
100
AcDbCircle
 10
357.600000000
 20
464.375000000
 30
0.000000000
 40
2.000000000
100
AcDbArc
 50
-90.000000000
 51
0.000000000
  0
LINE
  5
AC1
330
A02
100
AcDbEntity
  8
SheetCutProfiles
100
AcDbLine
 10
359.600000000
 20
464.375000000
 30
0.000000000
 11
359.600000000
 21
479.425000000
 31
0.000000000
  0
ARC
  5
AC2
330
A02
100
AcDbEntity
  8
SheetCutProfiles
100
AcDbCircle
 10
357.600000000
 20
479.425000000
 30
0.000000000
 40
2.000000000
100
AcDbArc
 50
0.000000000
 51
90.000000000
  0
LINE
  5
AC3
330
A02
100
AcDbEntity
  8
SheetCutProfiles
100
AcDbLine
 10
346.000000000
 20
481.425000000
 30
0.000000000
 11
357.600000000
 21
481.425000000
 31
0.000000000
  0
LINE
  5
AC4
330
A02
100
AcDbEntity
  8
SheetCutProfiles
100
AcDbLine
 10
346.000000000
 20
481.425000000
 30
0.000000000
 11
346.000000000
 21
500.475000000
 31
0.000000000
  0
LINE
  5
AC5
330
A02
100
AcDbEntity
  8
SheetCutProfiles
100
AcDbLine
 10
357.600000000
 20
500.475000000
 30
0.000000000
 11
346.000000000
 21
500.475000000
 31
0.000000000
  0
ARC
  5
AC6
330
A02
100
AcDbEntity
  8
SheetCutProfiles
100
AcDbCircle
 10
357.600000000
 20
502.475000000
 30
0.000000000
 40
2.000000000
100
AcDbArc
 50
-90.000000000
 51
0.000000000
  0
LINE
  5
AC7
330
A02
100
AcDbEntity
  8
SheetCutProfiles
100
AcDbLine
 10
359.600000000
 20
502.475000000
 30
0.000000000
 11
359.600000000
 21
508.000000000
 31
0.000000000
  0
ARC
  5
AC8
330
A02
100
AcDbEntity
  8
SheetCutProfiles
100
AcDbCircle
 10
357.600000000
 20
508.000000000
 30
0.000000000
 40
2.000000000
100
AcDbArc
 50
0.000000000
 51
90.000000000
  0
LINE
  5
AC9
330
A02
100
AcDbEntity
  8
SheetCutProfiles
100
AcDbLine
 10
113.600000000
 20
510.000000000
 30
0.000000000
 11
357.600000000
 21
510.000000000
 31
0.000000000
  0
ARC
  5
ACA
330
A02
100
AcDbEntity
  8
SheetCutProfiles
100
AcDbCircle
 10
111.600000000
 20
510.000000000
 30
0.000000000
 40
2.000000000
100
AcDbArc
 50
0.000000000
 51
90.000000000
  0
LINE
  5
ACB
330
A02
100
AcDbEntity
  8
SheetCutProfiles
100
AcDbLine
 10
109.350000000
 20
512.000000000
 30
0.000000000
 11
111.600000000
 21
512.000000000
 31
0.000000000
  0
ARC
  5
ACC
330
A02
100
AcDbEntity
  8
SheetCutProfiles
100
AcDbCircle
 10
109.350000000
 20
510.000000000
 30
0.000000000
 40
2.000000000
100
AcDbArc
 50
90.000000000
 51
180.000000000
  0
LINE
  5
ACD
330
A02
100
AcDbEntity
  8
SheetCutProfiles
100
AcDbLine
 10
107.350000000
 20
498.400000000
 30
0.000000000
 11
107.350000000
 21
510.000000000
 31
0.000000000
  0
LINE
  5
ACE
330
A02
100
AcDbEntity
  8
SheetCutProfiles
100
AcDbLine
 10
107.350000000
 20
498.400000000
 30
0.000000000
 11
94.850000000
 21
498.400000000
 31
0.000000000
  0
LINE
  5
ACF
330
A02
100
AcDbEntity
  8
SheetCutProfiles
100
AcDbLine
 10
94.850000000
 20
510.000000000
 30
0.000000000
 11
94.850000000
 21
498.400000000
 31
0.000000000
  0
ARC
  5
AD0
330
A02
100
AcDbEntity
  8
SheetCutProfiles
100
AcDbCircle
 10
92.850000000
 20
510.000000000
 30
0.000000000
 40
2.000000000
100
AcDbArc
 50
0.000000000
 51
90.000000000
  0
LINE
  5
AD1
330
A02
100
AcDbEntity
  8
SheetCutProfiles
100
AcDbLine
 10
84.350000000
 20
512.000000000
 30
0.000000000
 11
92.850000000
 21
512.000000000
 31
0.000000000
  0
ARC
  5
AD2
330
A02
100
AcDbEntity
  8
SheetCutProfiles
100
AcDbCircle
 10
84.350000000
 20
510.000000000
 30
0.000000000
 40
2.000000000
100
AcDbArc
 50
90.000000000
 51
180.000000000
  0
LINE
  5
AD3
330
A02
100
AcDbEntity
  8
SheetCutProfiles
100
AcDbLine
 10
82.350000000
 20
498.400000000
 30
0.000000000
 11
82.350000000
 21
510.000000000
 31
0.000000000
  0
LINE
  5
AD4
330
A02
100
AcDbEntity
  8
SheetCutProfiles
100
AcDbLine
 10
82.350000000
 20
498.400000000
 30
0.000000000
 11
69.850000000
 21
498.400000000
 31
0.000000000
  0
LINE
  5
AD5
330
A02
100
AcDbEntity
  8
SheetCutProfiles
100
AcDbLine
 10
69.850000000
 20
510.000000000
 30
0.000000000
 11
69.850000000
 21
498.400000000
 31
0.000000000
  0
ARC
  5
AD6
330
A02
100
AcDbEntity
  8
SheetCutProfiles
100
AcDbCircle
 10
67.850000000
 20
510.000000000
 30
0.000000000
 40
2.000000000
100
AcDbArc
 50
0.000000000
 51
90.000000000
  0
LINE
  5
AD7
330
A02
100
AcDbEntity
  8
SheetCutProfiles
100
AcDbLine
 10
59.350000000
 20
512.000000000
 30
0.000000000
 11
67.850000000
 21
512.000000000
 31
0.000000000
  0
ARC
  5
AD8
330
A02
100
AcDbEntity
  8
SheetCutProfiles
100
AcDbCircle
 10
59.350000000
 20
510.000000000
 30
0.000000000
 40
2.000000000
100
AcDbArc
 50
90.000000000
 51
180.000000000
  0
LINE
  5
AD9
330
A02
100
AcDbEntity
  8
SheetCutProfiles
100
AcDbLine
 10
57.350000000
 20
498.400000000
 30
0.000000000
 11
57.350000000
 21
510.000000000
 31
0.000000000
  0
LINE
  5
ADA
330
A02
100
AcDbEntity
  8
SheetCutProfiles
100
AcDbLine
 10
57.350000000
 20
498.400000000
 30
0.000000000
 11
44.850000000
 21
498.400000000
 31
0.000000000
  0
LINE
  5
ADB
330
A02
100
AcDbEntity
  8
SheetCutProfiles
100
AcDbLine
 10
44.850000000
 20
510.000000000
 30
0.000000000
 11
44.850000000
 21
498.400000000
 31
0.000000000
  0
ARC
  5
ADC
330
A02
100
AcDbEntity
  8
SheetCutProfiles
100
AcDbCircle
 10
42.850000000
 20
510.000000000
 30
0.000000000
 40
2.000000000
100
AcDbArc
 50
0.000000000
 51
90.000000000
  0
LINE
  5
ADD
330
A02
100
AcDbEntity
  8
SheetCutProfiles
100
AcDbLine
 10
34.350000000
 20
512.000000000
 30
0.000000000
 11
42.850000000
 21
512.000000000
 31
0.000000000
  0
ARC
  5
ADE
330
A02
100
AcDbEntity
  8
SheetCutProfiles
100
AcDbCircle
 10
34.350000000
 20
510.000000000
 30
0.000000000
 40
2.000000000
100
AcDbArc
 50
90.000000000
 51
180.000000000
  0
LINE
  5
ADF
330
A02
100
AcDbEntity
  8
SheetCutProfiles
100
AcDbLine
 10
32.350000000
 20
498.400000000
 30
0.000000000
 11
32.350000000
 21
510.000000000
 31
0.000000000
  0
LINE
  5
AE0
330
A02
100
AcDbEntity
  8
SheetCutProfiles
100
AcDbLine
 10
32.350000000
 20
498.400000000
 30
0.000000000
 11
19.850000000
 21
498.400000000
 31
0.000000000
  0
LINE
  5
AE1
330
A02
100
AcDbEntity
  8
SheetCutProfiles
100
AcDbLine
 10
19.850000000
 20
510.000000000
 30
0.000000000
 11
19.850000000
 21
498.400000000
 31
0.000000000
  0
ARC
  5
AE2
330
A02
100
AcDbEntity
  8
SheetCutProfiles
100
AcDbCircle
 10
17.850000000
 20
510.000000000
 30
0.000000000
 40
2.000000000
100
AcDbArc
 50
0.000000000
 51
90.000000000
  0
LINE
  5
AE3
330
A02
100
AcDbEntity
  8
SheetCutProfiles
100
AcDbLine
 10
15.600000000
 20
512.000000000
 30
0.000000000
 11
17.850000000
 21
512.000000000
 31
0.000000000
  0
ARC
  5
AE4
330
A02
100
AcDbEntity
  8
SheetCutProfiles
100
AcDbCircle
 10
15.600000000
 20
510.000000000
 30
0.000000000
 40
2.000000000
100
AcDbArc
 50
90.000000000
 51
180.000000000
  0
LINE
  5
AE5
330
A02
100
AcDbEntity
  8
SheetCutProfiles
100
AcDbLine
 10
13.600000000
 20
478.250000000
 30
0.000000000
 11
13.600000000
 21
510.000000000
 31
0.000000000
  0
LINE
  5
AE6
330
A02
100
AcDbEntity
  8
SheetCutProfiles
100
AcDbLine
 10
13.600000000
 20
478.250000000
 30
0.000000000
 11
2.000000000
 21
478.250000000
 31
0.000000000
  0
ARC
  5
AE7
330
A02
100
AcDbEntity
  8
SheetCutProfiles
100
AcDbCircle
 10
2.000000000
 20
476.250000000
 30
0.000000000
 40
2.000000000
100
AcDbArc
 50
90.000000000
 51
180.000000000
  0
LINE
  5
AE8
330
A02
100
AcDbEntity
  8
SheetCutProfiles
100
AcDbLine
 10
0.000000000
 20
416.750000000
 30
0.000000000
 11
0.000000000
 21
476.250000000
 31
0.000000000
  0
ARC
  5
AE9
330
A02
100
AcDbEntity
  8
SheetCutProfiles
100
AcDbCircle
 10
2.000000000
 20
416.750000000
 30
0.000000000
 40
2.000000000
100
AcDbArc
 50
180.000000000
 51
-90.000000000
  0
LINE
  5
AEA
330
A02
100
AcDbEntity
  8
SheetCutProfiles
100
AcDbLine
 10
2.000000000
 20
414.750000000
 30
0.000000000
 11
13.600000000
 21
414.750000000
 31
0.000000000
  0
LINE
  5
AEB
330
A02
100
AcDbEntity
  8
SheetCutProfiles
100
AcDbLine
 10
13.600000000
 20
351.250000000
 30
0.000000000
 11
13.600000000
 21
414.750000000
 31
0.000000000
  0
LINE
  5
AEC
330
A02
100
AcDbEntity
  8
SheetCutProfiles
100
AcDbLine
 10
13.600000000
 20
351.250000000
 30
0.000000000
 11
2.000000000
 21
351.250000000
 31
0.000000000
  0
ARC
  5
AED
330
A02
100
AcDbEntity
  8
SheetCutProfiles
100
AcDbCircle
 10
2.000000000
 20
349.250000000
 30
0.000000000
 40
2.000000000
100
AcDbArc
 50
90.000000000
 51
180.000000000
  0
LINE
  5
AEE
330
A02
100
AcDbEntity
  8
SheetCutProfiles
100
AcDbLine
 10
0.000000000
 20
289.750000000
 30
0.000000000
 11
0.000000000
 21
349.250000000
 31
0.000000000
  0
ARC
  5
AEF
330
A02
100
AcDbEntity
  8
SheetCutProfiles
100
AcDbCircle
 10
2.000000000
 20
289.750000000
 30
0.000000000
 40
2.000000000
100
AcDbArc
 50
180.000000000
 51
-90.000000000
  0
LINE
  5
AF0
330
A02
100
AcDbEntity
  8
SheetCutProfiles
100
AcDbLine
 10
2.000000000
 20
287.750000000
 30
0.000000000
 11
13.600000000
 21
287.750000000
 31
0.000000000
  0
LINE
  5
AF1
330
A02
100
AcDbEntity
  8
SheetCutProfiles
100
AcDbLine
 10
13.600000000
 20
224.250000000
 30
0.000000000
 11
13.600000000
 21
287.750000000
 31
0.000000000
  0
LINE
  5
AF2
330
A02
100
AcDbEntity
  8
SheetCutProfiles
100
AcDbLine
 10
13.600000000
 20
224.250000000
 30
0.000000000
 11
2.000000000
 21
224.250000000
 31
0.000000000
  0
ARC
  5
AF3
330
A02
100
AcDbEntity
  8
SheetCutProfiles
100
AcDbCircle
 10
2.000000000
 20
222.250000000
 30
0.000000000
 40
2.000000000
100
AcDbArc
 50
90.000000000
 51
180.000000000
  0
LINE
  5
AF4
330
A02
100
AcDbEntity
  8
SheetCutProfiles
100
AcDbLine
 10
0.000000000
 20
162.750000000
 30
0.000000000
 11
0.000000000
 21
222.250000000
 31
0.000000000
  0
ARC
  5
AF5
330
A02
100
AcDbEntity
  8
SheetCutProfiles
100
AcDbCircle
 10
2.000000000
 20
162.750000000
 30
0.000000000
 40
2.000000000
100
AcDbArc
 50
180.000000000
 51
-90.000000000
  0
LINE
  5
AF6
330
A02
100
AcDbEntity
  8
SheetCutProfiles
100
AcDbLine
 10
2.000000000
 20
160.750000000
 30
0.000000000
 11
13.600000000
 21
160.750000000
 31
0.000000000
  0
LINE
  5
AF7
330
A02
100
AcDbEntity
  8
SheetCutProfiles
100
AcDbLine
 10
13.600000000
 20
97.250000000
 30
0.000000000
 11
13.600000000
 21
160.750000000
 31
0.000000000
  0
LINE
  5
AF8
330
A02
100
AcDbEntity
  8
SheetCutProfiles
100
AcDbLine
 10
13.600000000
 20
97.250000000
 30
0.000000000
 11
2.000000000
 21
97.250000000
 31
0.000000000
  0
ARC
  5
AF9
330
A02
100
AcDbEntity
  8
SheetCutProfiles
100
AcDbCircle
 10
2.000000000
 20
95.250000000
 30
0.000000000
 40
2.000000000
100
AcDbArc
 50
90.000000000
 51
180.000000000
  0
LINE
  5
AFA
330
A02
100
AcDbEntity
  8
SheetCutProfiles
100
AcDbLine
 10
0.000000000
 20
35.750000000
 30
0.000000000
 11
0.000000000
 21
95.250000000
 31
0.000000000
  0
ARC
  5
AFB
330
A02
100
AcDbEntity
  8
SheetCutProfiles
100
AcDbCircle
 10
2.000000000
 20
35.750000000
 30
0.000000000
 40
2.000000000
100
AcDbArc
 50
180.000000000
 51
-90.000000000
  0
LINE
  5
AFC
330
A02
100
AcDbEntity
  8
SheetCutProfiles
100
AcDbLine
 10
2.000000000
 20
33.750000000
 30
0.000000000
 11
13.600000000
 21
33.750000000
 31
0.000000000
  0
LINE
  5
AFD
330
A02
100
AcDbEntity
  8
SheetCutProfiles
100
AcDbLine
 10
13.600000000
 20
2.000000000
 30
0.000000000
 11
13.600000000
 21
33.750000000
 31
0.000000000
  0
ARC
  5
AFE
330
A02
100
AcDbEntity
  8
SheetCutProfiles
100
AcDbCircle
 10
15.600000000
 20
2.000000000
 30
0.000000000
 40
2.000000000
100
AcDbArc
 50
180.000000000
 51
-90.000000000
  0
LINE
  5
AFF
330
A02
100
AcDbEntity
  8
SheetCutProfiles
100
AcDbLine
 10
15.600000000
 20
0.000000000
 30
0.000000000
 11
32.375000000
 21
0.000000000
 31
0.000000000
  0
ARC
  5
B00
330
A02
100
AcDbEntity
  8
SheetCutProfiles
100
AcDbCircle
 10
32.375000000
 20
2.000000000
 30
0.000000000
 40
2.000000000
100
AcDbArc
 50
-90.000000000
 51
0.000000000
  0
LINE
  5
B01
330
A02
100
AcDbEntity
  8
SheetCutProfiles
100
AcDbLine
 10
34.375000000
 20
13.600000000
 30
0.000000000
 11
34.375000000
 21
2.000000000
 31
0.000000000
  0
LINE
  5
B02
330
A02
100
AcDbEntity
  8
SheetCutProfiles
100
AcDbLine
 10
34.375000000
 20
13.600000000
 30
0.000000000
 11
75.925000000
 21
13.600000000
 31
0.000000000
  0
LINE
  5
B03
330
A02
100
AcDbEntity
  8
SheetCutProfiles
100
AcDbLine
 10
75.925000000
 20
2.000000000
 30
0.000000000
 11
75.925000000
 21
13.600000000
 31
0.000000000
  0
ARC
  5
B04
330
A02
100
AcDbEntity
  8
SheetCutProfiles
100
AcDbCircle
 10
77.925000000
 20
2.000000000
 30
0.000000000
 40
2.000000000
100
AcDbArc
 50
180.000000000
 51
-90.000000000
  0
LINE
  5
B05
330
A02
100
AcDbEntity
  8
SheetCutProfiles
100
AcDbLine
 10
77.925000000
 20
0.000000000
 30
0.000000000
 11
115.475000000
 21
0.000000000
 31
0.000000000
  0
ARC
  5
B06
330
A02
100
AcDbEntity
  8
SheetCutProfiles
100
AcDbCircle
 10
115.475000000
 20
2.000000000
 30
0.000000000
 40
2.000000000
100
AcDbArc
 50
-90.000000000
 51
0.000000000
  0
LINE
  5
B07
330
A02
100
AcDbEntity
  8
SheetCutProfiles
100
AcDbLine
 10
117.475000000
 20
13.600000000
 30
0.000000000
 11
117.475000000
 21
2.000000000
 31
0.000000000
  0
LINE
  5
B08
330
A02
100
AcDbEntity
  8
SheetCutProfiles
100
AcDbLine
 10
117.475000000
 20
13.600000000
 30
0.000000000
 11
159.025000000
 21
13.600000000
 31
0.000000000
  0
LINE
  5
B09
330
A02
100
AcDbEntity
  8
SheetCutProfiles
100
AcDbLine
 10
159.025000000
 20
2.000000000
 30
0.000000000
 11
159.025000000
 21
13.600000000
 31
0.000000000
  0
ARC
  5
B0A
330
A02
100
AcDbEntity
  8
SheetCutProfiles
100
AcDbCircle
 10
161.025000000
 20
2.000000000
 30
0.000000000
 40
2.000000000
100
AcDbArc
 50
180.000000000
 51
-90.000000000
  0
LINE
  5
B0B
330
A02
100
AcDbEntity
  8
SheetCutProfiles
100
AcDbLine
 10
161.025000000
 20
0.000000000
 30
0.000000000
 11
198.575000000
 21
0.000000000
 31
0.000000000
  0
ARC
  5
B0C
330
A02
100
AcDbEntity
  8
SheetCutProfiles
100
AcDbCircle
 10
198.575000000
 20
2.000000000
 30
0.000000000
 40
2.000000000
100
AcDbArc
 50
-90.000000000
 51
0.000000000
  0
LINE
  5
B0D
330
A02
100
AcDbEntity
  8
SheetCutProfiles
100
AcDbLine
 10
200.575000000
 20
13.600000000
 30
0.000000000
 11
200.575000000
 21
2.000000000
 31
0.000000000
  0
LINE
  5
B0E
330
A02
100
AcDbEntity
  8
SheetCutProfiles
100
AcDbLine
 10
200.575000000
 20
13.600000000
 30
0.000000000
 11
242.125000000
 21
13.600000000
 31
0.000000000
  0
LINE
  5
B0F
330
A02
100
AcDbEntity
  8
SheetCutProfiles
100
AcDbLine
 10
242.125000000
 20
2.000000000
 30
0.000000000
 11
242.125000000
 21
13.600000000
 31
0.000000000
  0
ARC
  5
B10
330
A02
100
AcDbEntity
  8
SheetCutProfiles
100
AcDbCircle
 10
244.125000000
 20
2.000000000
 30
0.000000000
 40
2.000000000
100
AcDbArc
 50
180.000000000
 51
-90.000000000
  0
LINE
  5
B11
330
A02
100
AcDbEntity
  8
SheetCutProfiles
100
AcDbLine
 10
244.125000000
 20
0.000000000
 30
0.000000000
 11
281.675000000
 21
0.000000000
 31
0.000000000
  0
ARC
  5
B12
330
A02
100
AcDbEntity
  8
SheetCutProfiles
100
AcDbCircle
 10
281.675000000
 20
2.000000000
 30
0.000000000
 40
2.000000000
100
AcDbArc
 50
-90.000000000
 51
0.000000000
  0
LINE
  5
B13
330
A02
100
AcDbEntity
  8
SheetCutProfiles
100
AcDbLine
 10
283.675000000
 20
13.600000000
 30
0.000000000
 11
283.675000000
 21
2.000000000
 31
0.000000000
  0
LINE
  5
B14
330
A02
100
AcDbEntity
  8
SheetCutProfiles
100
AcDbLine
 10
283.675000000
 20
13.600000000
 30
0.000000000
 11
325.225000000
 21
13.600000000
 31
0.000000000
  0
LINE
  5
B15
330
A02
100
AcDbEntity
  8
SheetCutProfiles
100
AcDbLine
 10
325.225000000
 20
2.000000000
 30
0.000000000
 11
325.225000000
 21
13.600000000
 31
0.000000000
  0
ARC
  5
B16
330
A02
100
AcDbEntity
  8
SheetCutProfiles
100
AcDbCircle
 10
327.225000000
 20
2.000000000
 30
0.000000000
 40
2.000000000
100
AcDbArc
 50
180.000000000
 51
-90.000000000
  0
LINE
  5
B17
330
A02
100
AcDbEntity
  8
SheetCutProfiles
100
AcDbLine
 10
327.225000000
 20
0.000000000
 30
0.000000000
 11
344.000000000
 21
0.000000000
 31
0.000000000
  0
ARC
  5
B18
330
A02
100
AcDbEntity
  8
SheetCutProfiles
100
AcDbCircle
 10
344.000000000
 20
2.000000000
 30
0.000000000
 40
2.000000000
100
AcDbArc
 50
-90.000000000
 51
0.000000000
  0
LINE
  5
B19
330
A02
100
AcDbEntity
  8
SheetCutProfiles
100
AcDbLine
 10
357.600000000
 20
2.000000000
 30
0.000000000
 11
346.000000000
 21
2.000000000
 31
0.000000000
  0
ARC
  5
B1A
330
A02
100
AcDbEntity
  8
SheetCutProfiles
100
AcDbCircle
 10
357.600000000
 20
4.000000000
 30
0.000000000
 40
2.000000000
100
AcDbArc
 50
-90.000000000
 51
0.000000000
  0
LINE
  5
B1B
330
A02
100
AcDbEntity
  8
SheetCutProfiles
100
AcDbLine
 10
359.600000000
 20
4.000000000
 30
0.000000000
 11
359.600000000
 21
9.525000000
 31
0.000000000
  0
CIRCLE
  5
B1C
330
A02
100
AcDbEntity
  8
SheetCutProfiles
100
AcDbCircle
 10
179.800000000
 20
340.666666667
 30
0.000000000
 40
3.750000000
  0
CIRCLE
  5
B1D
330
A02
100
AcDbEntity
  8
SheetCutProfiles
100
AcDbCircle
 10
179.800000000
 20
426.666666667
 30
0.000000000
 40
3.000000000
  0
CIRCLE
  5
B1E
330
A02
100
AcDbEntity
  8
SheetCutProfiles
100
AcDbCircle
 10
179.800000000
 20
171.333333333
 30
0.000000000
 40
3.750000000
  0
CIRCLE
  5
B1F
330
A02
100
AcDbEntity
  8
SheetCutProfiles
100
AcDbCircle
 10
179.800000000
 20
85.333333333
 30
0.000000000
 40
3.000000000
  0
LINE
  5
B20
330
A02
100
AcDbEntity
  8
SheetCutProfiles
100
AcDbLine
 10
724.200000000
 20
9.525000000
 30
0.000000000
 11
724.200000000
 21
4.000000000
 31
0.000000000
  0
ARC
  5
B21
330
A02
100
AcDbEntity
  8
SheetCutProfiles
100
AcDbCircle
 10
722.200000000
 20
9.525000000
 30
0.000000000
 40
2.000000000
100
AcDbArc
 50
0.000000000
 51
90.000000000
  0
LINE
  5
B22
330
A02
100
AcDbEntity
  8
SheetCutProfiles
100
AcDbLine
 10
710.600000000
 20
11.525000000
 30
0.000000000
 11
722.200000000
 21
11.525000000
 31
0.000000000
  0
LINE
  5
B23
330
A02
100
AcDbEntity
  8
SheetCutProfiles
100
AcDbLine
 10
710.600000000
 20
30.575000000
 30
0.000000000
 11
710.600000000
 21
11.525000000
 31
0.000000000
  0
LINE
  5
B24
330
A02
100
AcDbEntity
  8
SheetCutProfiles
100
AcDbLine
 10
722.200000000
 20
30.575000000
 30
0.000000000
 11
710.600000000
 21
30.575000000
 31
0.000000000
  0
ARC
  5
B25
330
A02
100
AcDbEntity
  8
SheetCutProfiles
100
AcDbCircle
 10
722.200000000
 20
32.575000000
 30
0.000000000
 40
2.000000000
100
AcDbArc
 50
-90.000000000
 51
0.000000000
  0
LINE
  5
B26
330
A02
100
AcDbEntity
  8
SheetCutProfiles
100
AcDbLine
 10
724.200000000
 20
47.625000000
 30
0.000000000
 11
724.200000000
 21
32.575000000
 31
0.000000000
  0
ARC
  5
B27
330
A02
100
AcDbEntity
  8
SheetCutProfiles
100
AcDbCircle
 10
722.200000000
 20
47.625000000
 30
0.000000000
 40
2.000000000
100
AcDbArc
 50
0.000000000
 51
90.000000000
  0
LINE
  5
B28
330
A02
100
AcDbEntity
  8
SheetCutProfiles
100
AcDbLine
 10
710.600000000
 20
49.625000000
 30
0.000000000
 11
722.200000000
 21
49.625000000
 31
0.000000000
  0
LINE
  5
B29
330
A02
100
AcDbEntity
  8
SheetCutProfiles
100
AcDbLine
 10
710.600000000
 20
68.675000000
 30
0.000000000
 11
710.600000000
 21
49.625000000
 31
0.000000000
  0
LINE
  5
B2A
330
A02
100
AcDbEntity
  8
SheetCutProfiles
100
AcDbLine
 10
722.200000000
 20
68.675000000
 30
0.000000000
 11
710.600000000
 21
68.675000000
 31
0.000000000
  0
ARC
  5
B2B
330
A02
100
AcDbEntity
  8
SheetCutProfiles
100
AcDbCircle
 10
722.200000000
 20
70.675000000
 30
0.000000000
 40
2.000000000
100
AcDbArc
 50
-90.000000000
 51
0.000000000
  0
LINE
  5
B2C
330
A02
100
AcDbEntity
  8
SheetCutProfiles
100
AcDbLine
 10
724.200000000
 20
85.725000000
 30
0.000000000
 11
724.200000000
 21
70.675000000
 31
0.000000000
  0
ARC
  5
B2D
330
A02
100
AcDbEntity
  8
SheetCutProfiles
100
AcDbCircle
 10
722.200000000
 20
85.725000000
 30
0.000000000
 40
2.000000000
100
AcDbArc
 50
0.000000000
 51
90.000000000
  0
LINE
  5
B2E
330
A02
100
AcDbEntity
  8
SheetCutProfiles
100
AcDbLine
 10
710.600000000
 20
87.725000000
 30
0.000000000
 11
722.200000000
 21
87.725000000
 31
0.000000000
  0
LINE
  5
B2F
330
A02
100
AcDbEntity
  8
SheetCutProfiles
100
AcDbLine
 10
710.600000000
 20
106.775000000
 30
0.000000000
 11
710.600000000
 21
87.725000000
 31
0.000000000
  0
LINE
  5
B30
330
A02
100
AcDbEntity
  8
SheetCutProfiles
100
AcDbLine
 10
722.200000000
 20
106.775000000
 30
0.000000000
 11
710.600000000
 21
106.775000000
 31
0.000000000
  0
ARC
  5
B31
330
A02
100
AcDbEntity
  8
SheetCutProfiles
100
AcDbCircle
 10
722.200000000
 20
108.775000000
 30
0.000000000
 40
2.000000000
100
AcDbArc
 50
-90.000000000
 51
0.000000000
  0
LINE
  5
B32
330
A02
100
AcDbEntity
  8
SheetCutProfiles
100
AcDbLine
 10
724.200000000
 20
123.825000000
 30
0.000000000
 11
724.200000000
 21
108.775000000
 31
0.000000000
  0
ARC
  5
B33
330
A02
100
AcDbEntity
  8
SheetCutProfiles
100
AcDbCircle
 10
722.200000000
 20
123.825000000
 30
0.000000000
 40
2.000000000
100
AcDbArc
 50
0.000000000
 51
90.000000000
  0
LINE
  5
B34
330
A02
100
AcDbEntity
  8
SheetCutProfiles
100
AcDbLine
 10
710.600000000
 20
125.825000000
 30
0.000000000
 11
722.200000000
 21
125.825000000
 31
0.000000000
  0
LINE
  5
B35
330
A02
100
AcDbEntity
  8
SheetCutProfiles
100
AcDbLine
 10
710.600000000
 20
144.875000000
 30
0.000000000
 11
710.600000000
 21
125.825000000
 31
0.000000000
  0
LINE
  5
B36
330
A02
100
AcDbEntity
  8
SheetCutProfiles
100
AcDbLine
 10
722.200000000
 20
144.875000000
 30
0.000000000
 11
710.600000000
 21
144.875000000
 31
0.000000000
  0
ARC
  5
B37
330
A02
100
AcDbEntity
  8
SheetCutProfiles
100
AcDbCircle
 10
722.200000000
 20
146.875000000
 30
0.000000000
 40
2.000000000
100
AcDbArc
 50
-90.000000000
 51
0.000000000
  0
LINE
  5
B38
330
A02
100
AcDbEntity
  8
SheetCutProfiles
100
AcDbLine
 10
724.200000000
 20
152.400000000
 30
0.000000000
 11
724.200000000
 21
146.875000000
 31
0.000000000
  0
ARC
  5
B39
330
A02
100
AcDbEntity
  8
SheetCutProfiles
100
AcDbCircle
 10
722.200000000
 20
152.400000000
 30
0.000000000
 40
2.000000000
100
AcDbArc
 50
0.000000000
 51
90.000000000
  0
LINE
  5
B3A
330
A02
100
AcDbEntity
  8
SheetCutProfiles
100
AcDbLine
 10
722.200000000
 20
154.400000000
 30
0.000000000
 11
722.200000000
 21
357.600000000
 31
0.000000000
  0
ARC
  5
B3B
330
A02
100
AcDbEntity
  8
SheetCutProfiles
100
AcDbCircle
 10
722.200000000
 20
359.600000000
 30
0.000000000
 40
2.000000000
100
AcDbArc
 50
-90.000000000
 51
0.000000000
  0
LINE
  5
B3C
330
A02
100
AcDbEntity
  8
SheetCutProfiles
100
AcDbLine
 10
724.200000000
 20
365.125000000
 30
0.000000000
 11
724.200000000
 21
359.600000000
 31
0.000000000
  0
ARC
  5
B3D
330
A02
100
AcDbEntity
  8
SheetCutProfiles
100
AcDbCircle
 10
722.200000000
 20
365.125000000
 30
0.000000000
 40
2.000000000
100
AcDbArc
 50
0.000000000
 51
90.000000000
  0
LINE
  5
B3E
330
A02
100
AcDbEntity
  8
SheetCutProfiles
100
AcDbLine
 10
710.600000000
 20
367.125000000
 30
0.000000000
 11
722.200000000
 21
367.125000000
 31
0.000000000
  0
LINE
  5
B3F
330
A02
100
AcDbEntity
  8
SheetCutProfiles
100
AcDbLine
 10
710.600000000
 20
386.175000000
 30
0.000000000
 11
710.600000000
 21
367.125000000
 31
0.000000000
  0
LINE
  5
B40
330
A02
100
AcDbEntity
  8
SheetCutProfiles
100
AcDbLine
 10
722.200000000
 20
386.175000000
 30
0.000000000
 11
710.600000000
 21
386.175000000
 31
0.000000000
  0
ARC
  5
B41
330
A02
100
AcDbEntity
  8
SheetCutProfiles
100
AcDbCircle
 10
722.200000000
 20
388.175000000
 30
0.000000000
 40
2.000000000
100
AcDbArc
 50
-90.000000000
 51
0.000000000
  0
LINE
  5
B42
330
A02
100
AcDbEntity
  8
SheetCutProfiles
100
AcDbLine
 10
724.200000000
 20
403.225000000
 30
0.000000000
 11
724.200000000
 21
388.175000000
 31
0.000000000
  0
ARC
  5
B43
330
A02
100
AcDbEntity
  8
SheetCutProfiles
100
AcDbCircle
 10
722.200000000
 20
403.225000000
 30
0.000000000
 40
2.000000000
100
AcDbArc
 50
0.000000000
 51
90.000000000
  0
LINE
  5
B44
330
A02
100
AcDbEntity
  8
SheetCutProfiles
100
AcDbLine
 10
710.600000000
 20
405.225000000
 30
0.000000000
 11
722.200000000
 21
405.225000000
 31
0.000000000
  0
LINE
  5
B45
330
A02
100
AcDbEntity
  8
SheetCutProfiles
100
AcDbLine
 10
710.600000000
 20
424.275000000
 30
0.000000000
 11
710.600000000
 21
405.225000000
 31
0.000000000
  0
LINE
  5
B46
330
A02
100
AcDbEntity
  8
SheetCutProfiles
100
AcDbLine
 10
722.200000000
 20
424.275000000
 30
0.000000000
 11
710.600000000
 21
424.275000000
 31
0.000000000
  0
ARC
  5
B47
330
A02
100
AcDbEntity
  8
SheetCutProfiles
100
AcDbCircle
 10
722.200000000
 20
426.275000000
 30
0.000000000
 40
2.000000000
100
AcDbArc
 50
-90.000000000
 51
0.000000000
  0
LINE
  5
B48
330
A02
100
AcDbEntity
  8
SheetCutProfiles
100
AcDbLine
 10
724.200000000
 20
441.325000000
 30
0.000000000
 11
724.200000000
 21
426.275000000
 31
0.000000000
  0
ARC
  5
B49
330
A02
100
AcDbEntity
  8
SheetCutProfiles
100
AcDbCircle
 10
722.200000000
 20
441.325000000
 30
0.000000000
 40
2.000000000
100
AcDbArc
 50
0.000000000
 51
90.000000000
  0
LINE
  5
B4A
330
A02
100
AcDbEntity
  8
SheetCutProfiles
100
AcDbLine
 10
710.600000000
 20
443.325000000
 30
0.000000000
 11
722.200000000
 21
443.325000000
 31
0.000000000
  0
LINE
  5
B4B
330
A02
100
AcDbEntity
  8
SheetCutProfiles
100
AcDbLine
 10
710.600000000
 20
462.375000000
 30
0.000000000
 11
710.600000000
 21
443.325000000
 31
0.000000000
  0
LINE
  5
B4C
330
A02
100
AcDbEntity
  8
SheetCutProfiles
100
AcDbLine
 10
722.200000000
 20
462.375000000
 30
0.000000000
 11
710.600000000
 21
462.375000000
 31
0.000000000
  0
ARC
  5
B4D
330
A02
100
AcDbEntity
  8
SheetCutProfiles
100
AcDbCircle
 10
722.200000000
 20
464.375000000
 30
0.000000000
 40
2.000000000
100
AcDbArc
 50
-90.000000000
 51
0.000000000
  0
LINE
  5
B4E
330
A02
100
AcDbEntity
  8
SheetCutProfiles
100
AcDbLine
 10
724.200000000
 20
479.425000000
 30
0.000000000
 11
724.200000000
 21
464.375000000
 31
0.000000000
  0
ARC
  5
B4F
330
A02
100
AcDbEntity
  8
SheetCutProfiles
100
AcDbCircle
 10
722.200000000
 20
479.425000000
 30
0.000000000
 40
2.000000000
100
AcDbArc
 50
0.000000000
 51
90.000000000
  0
LINE
  5
B50
330
A02
100
AcDbEntity
  8
SheetCutProfiles
100
AcDbLine
 10
710.600000000
 20
481.425000000
 30
0.000000000
 11
722.200000000
 21
481.425000000
 31
0.000000000
  0
LINE
  5
B51
330
A02
100
AcDbEntity
  8
SheetCutProfiles
100
AcDbLine
 10
710.600000000
 20
500.475000000
 30
0.000000000
 11
710.600000000
 21
481.425000000
 31
0.000000000
  0
LINE
  5
B52
330
A02
100
AcDbEntity
  8
SheetCutProfiles
100
AcDbLine
 10
722.200000000
 20
500.475000000
 30
0.000000000
 11
710.600000000
 21
500.475000000
 31
0.000000000
  0
ARC
  5
B53
330
A02
100
AcDbEntity
  8
SheetCutProfiles
100
AcDbCircle
 10
722.200000000
 20
502.475000000
 30
0.000000000
 40
2.000000000
100
AcDbArc
 50
-90.000000000
 51
0.000000000
  0
LINE
  5
B54
330
A02
100
AcDbEntity
  8
SheetCutProfiles
100
AcDbLine
 10
724.200000000
 20
508.000000000
 30
0.000000000
 11
724.200000000
 21
502.475000000
 31
0.000000000
  0
ARC
  5
B55
330
A02
100
AcDbEntity
  8
SheetCutProfiles
100
AcDbCircle
 10
722.200000000
 20
508.000000000
 30
0.000000000
 40
2.000000000
100
AcDbArc
 50
0.000000000
 51
90.000000000
  0
LINE
  5
B56
330
A02
100
AcDbEntity
  8
SheetCutProfiles
100
AcDbLine
 10
478.200000000
 20
510.000000000
 30
0.000000000
 11
722.200000000
 21
510.000000000
 31
0.000000000
  0
ARC
  5
B57
330
A02
100
AcDbEntity
  8
SheetCutProfiles
100
AcDbCircle
 10
476.200000000
 20
510.000000000
 30
0.000000000
 40
2.000000000
100
AcDbArc
 50
0.000000000
 51
90.000000000
  0
LINE
  5
B58
330
A02
100
AcDbEntity
  8
SheetCutProfiles
100
AcDbLine
 10
476.200000000
 20
512.000000000
 30
0.000000000
 11
473.950000000
 21
512.000000000
 31
0.000000000
  0
ARC
  5
B59
330
A02
100
AcDbEntity
  8
SheetCutProfiles
100
AcDbCircle
 10
473.950000000
 20
510.000000000
 30
0.000000000
 40
2.000000000
100
AcDbArc
 50
90.000000000
 51
180.000000000
  0
LINE
  5
B5A
330
A02
100
AcDbEntity
  8
SheetCutProfiles
100
AcDbLine
 10
471.950000000
 20
498.400000000
 30
0.000000000
 11
471.950000000
 21
510.000000000
 31
0.000000000
  0
LINE
  5
B5B
330
A02
100
AcDbEntity
  8
SheetCutProfiles
100
AcDbLine
 10
459.450000000
 20
498.400000000
 30
0.000000000
 11
471.950000000
 21
498.400000000
 31
0.000000000
  0
LINE
  5
B5C
330
A02
100
AcDbEntity
  8
SheetCutProfiles
100
AcDbLine
 10
459.450000000
 20
510.000000000
 30
0.000000000
 11
459.450000000
 21
498.400000000
 31
0.000000000
  0
ARC
  5
B5D
330
A02
100
AcDbEntity
  8
SheetCutProfiles
100
AcDbCircle
 10
457.450000000
 20
510.000000000
 30
0.000000000
 40
2.000000000
100
AcDbArc
 50
0.000000000
 51
90.000000000
  0
LINE
  5
B5E
330
A02
100
AcDbEntity
  8
SheetCutProfiles
100
AcDbLine
 10
457.450000000
 20
512.000000000
 30
0.000000000
 11
448.950000000
 21
512.000000000
 31
0.000000000
  0
ARC
  5
B5F
330
A02
100
AcDbEntity
  8
SheetCutProfiles
100
AcDbCircle
 10
448.950000000
 20
510.000000000
 30
0.000000000
 40
2.000000000
100
AcDbArc
 50
90.000000000
 51
180.000000000
  0
LINE
  5
B60
330
A02
100
AcDbEntity
  8
SheetCutProfiles
100
AcDbLine
 10
446.950000000
 20
498.400000000
 30
0.000000000
 11
446.950000000
 21
510.000000000
 31
0.000000000
  0
LINE
  5
B61
330
A02
100
AcDbEntity
  8
SheetCutProfiles
100
AcDbLine
 10
434.450000000
 20
498.400000000
 30
0.000000000
 11
446.950000000
 21
498.400000000
 31
0.000000000
  0
LINE
  5
B62
330
A02
100
AcDbEntity
  8
SheetCutProfiles
100
AcDbLine
 10
434.450000000
 20
510.000000000
 30
0.000000000
 11
434.450000000
 21
498.400000000
 31
0.000000000
  0
ARC
  5
B63
330
A02
100
AcDbEntity
  8
SheetCutProfiles
100
AcDbCircle
 10
432.450000000
 20
510.000000000
 30
0.000000000
 40
2.000000000
100
AcDbArc
 50
0.000000000
 51
90.000000000
  0
LINE
  5
B64
330
A02
100
AcDbEntity
  8
SheetCutProfiles
100
AcDbLine
 10
432.450000000
 20
512.000000000
 30
0.000000000
 11
423.950000000
 21
512.000000000
 31
0.000000000
  0
ARC
  5
B65
330
A02
100
AcDbEntity
  8
SheetCutProfiles
100
AcDbCircle
 10
423.950000000
 20
510.000000000
 30
0.000000000
 40
2.000000000
100
AcDbArc
 50
90.000000000
 51
180.000000000
  0
LINE
  5
B66
330
A02
100
AcDbEntity
  8
SheetCutProfiles
100
AcDbLine
 10
421.950000000
 20
498.400000000
 30
0.000000000
 11
421.950000000
 21
510.000000000
 31
0.000000000
  0
LINE
  5
B67
330
A02
100
AcDbEntity
  8
SheetCutProfiles
100
AcDbLine
 10
409.450000000
 20
498.400000000
 30
0.000000000
 11
421.950000000
 21
498.400000000
 31
0.000000000
  0
LINE
  5
B68
330
A02
100
AcDbEntity
  8
SheetCutProfiles
100
AcDbLine
 10
409.450000000
 20
510.000000000
 30
0.000000000
 11
409.450000000
 21
498.400000000
 31
0.000000000
  0
ARC
  5
B69
330
A02
100
AcDbEntity
  8
SheetCutProfiles
100
AcDbCircle
 10
407.450000000
 20
510.000000000
 30
0.000000000
 40
2.000000000
100
AcDbArc
 50
0.000000000
 51
90.000000000
  0
LINE
  5
B6A
330
A02
100
AcDbEntity
  8
SheetCutProfiles
100
AcDbLine
 10
407.450000000
 20
512.000000000
 30
0.000000000
 11
398.950000000
 21
512.000000000
 31
0.000000000
  0
ARC
  5
B6B
330
A02
100
AcDbEntity
  8
SheetCutProfiles
100
AcDbCircle
 10
398.950000000
 20
510.000000000
 30
0.000000000
 40
2.000000000
100
AcDbArc
 50
90.000000000
 51
180.000000000
  0
LINE
  5
B6C
330
A02
100
AcDbEntity
  8
SheetCutProfiles
100
AcDbLine
 10
396.950000000
 20
498.400000000
 30
0.000000000
 11
396.950000000
 21
510.000000000
 31
0.000000000
  0
LINE
  5
B6D
330
A02
100
AcDbEntity
  8
SheetCutProfiles
100
AcDbLine
 10
384.450000000
 20
498.400000000
 30
0.000000000
 11
396.950000000
 21
498.400000000
 31
0.000000000
  0
LINE
  5
B6E
330
A02
100
AcDbEntity
  8
SheetCutProfiles
100
AcDbLine
 10
384.450000000
 20
510.000000000
 30
0.000000000
 11
384.450000000
 21
498.400000000
 31
0.000000000
  0
ARC
  5
B6F
330
A02
100
AcDbEntity
  8
SheetCutProfiles
100
AcDbCircle
 10
382.450000000
 20
510.000000000
 30
0.000000000
 40
2.000000000
100
AcDbArc
 50
0.000000000
 51
90.000000000
  0
LINE
  5
B70
330
A02
100
AcDbEntity
  8
SheetCutProfiles
100
AcDbLine
 10
382.450000000
 20
512.000000000
 30
0.000000000
 11
380.200000000
 21
512.000000000
 31
0.000000000
  0
ARC
  5
B71
330
A02
100
AcDbEntity
  8
SheetCutProfiles
100
AcDbCircle
 10
380.200000000
 20
510.000000000
 30
0.000000000
 40
2.000000000
100
AcDbArc
 50
90.000000000
 51
180.000000000
  0
LINE
  5
B72
330
A02
100
AcDbEntity
  8
SheetCutProfiles
100
AcDbLine
 10
378.200000000
 20
478.250000000
 30
0.000000000
 11
378.200000000
 21
510.000000000
 31
0.000000000
  0
LINE
  5
B73
330
A02
100
AcDbEntity
  8
SheetCutProfiles
100
AcDbLine
 10
378.200000000
 20
478.250000000
 30
0.000000000
 11
366.600000000
 21
478.250000000
 31
0.000000000
  0
ARC
  5
B74
330
A02
100
AcDbEntity
  8
SheetCutProfiles
100
AcDbCircle
 10
366.600000000
 20
476.250000000
 30
0.000000000
 40
2.000000000
100
AcDbArc
 50
90.000000000
 51
180.000000000
  0
LINE
  5
B75
330
A02
100
AcDbEntity
  8
SheetCutProfiles
100
AcDbLine
 10
364.600000000
 20
416.750000000
 30
0.000000000
 11
364.600000000
 21
476.250000000
 31
0.000000000
  0
ARC
  5
B76
330
A02
100
AcDbEntity
  8
SheetCutProfiles
100
AcDbCircle
 10
366.600000000
 20
416.750000000
 30
0.000000000
 40
2.000000000
100
AcDbArc
 50
180.000000000
 51
-90.000000000
  0
LINE
  5
B77
330
A02
100
AcDbEntity
  8
SheetCutProfiles
100
AcDbLine
 10
366.600000000
 20
414.750000000
 30
0.000000000
 11
378.200000000
 21
414.750000000
 31
0.000000000
  0
LINE
  5
B78
330
A02
100
AcDbEntity
  8
SheetCutProfiles
100
AcDbLine
 10
378.200000000
 20
351.250000000
 30
0.000000000
 11
378.200000000
 21
414.750000000
 31
0.000000000
  0
LINE
  5
B79
330
A02
100
AcDbEntity
  8
SheetCutProfiles
100
AcDbLine
 10
378.200000000
 20
351.250000000
 30
0.000000000
 11
366.600000000
 21
351.250000000
 31
0.000000000
  0
ARC
  5
B7A
330
A02
100
AcDbEntity
  8
SheetCutProfiles
100
AcDbCircle
 10
366.600000000
 20
349.250000000
 30
0.000000000
 40
2.000000000
100
AcDbArc
 50
90.000000000
 51
180.000000000
  0
LINE
  5
B7B
330
A02
100
AcDbEntity
  8
SheetCutProfiles
100
AcDbLine
 10
364.600000000
 20
289.750000000
 30
0.000000000
 11
364.600000000
 21
349.250000000
 31
0.000000000
  0
ARC
  5
B7C
330
A02
100
AcDbEntity
  8
SheetCutProfiles
100
AcDbCircle
 10
366.600000000
 20
289.750000000
 30
0.000000000
 40
2.000000000
100
AcDbArc
 50
180.000000000
 51
-90.000000000
  0
LINE
  5
B7D
330
A02
100
AcDbEntity
  8
SheetCutProfiles
100
AcDbLine
 10
366.600000000
 20
287.750000000
 30
0.000000000
 11
378.200000000
 21
287.750000000
 31
0.000000000
  0
LINE
  5
B7E
330
A02
100
AcDbEntity
  8
SheetCutProfiles
100
AcDbLine
 10
378.200000000
 20
224.250000000
 30
0.000000000
 11
378.200000000
 21
287.750000000
 31
0.000000000
  0
LINE
  5
B7F
330
A02
100
AcDbEntity
  8
SheetCutProfiles
100
AcDbLine
 10
378.200000000
 20
224.250000000
 30
0.000000000
 11
366.600000000
 21
224.250000000
 31
0.000000000
  0
ARC
  5
B80
330
A02
100
AcDbEntity
  8
SheetCutProfiles
100
AcDbCircle
 10
366.600000000
 20
222.250000000
 30
0.000000000
 40
2.000000000
100
AcDbArc
 50
90.000000000
 51
180.000000000
  0
LINE
  5
B81
330
A02
100
AcDbEntity
  8
SheetCutProfiles
100
AcDbLine
 10
364.600000000
 20
162.750000000
 30
0.000000000
 11
364.600000000
 21
222.250000000
 31
0.000000000
  0
ARC
  5
B82
330
A02
100
AcDbEntity
  8
SheetCutProfiles
100
AcDbCircle
 10
366.600000000
 20
162.750000000
 30
0.000000000
 40
2.000000000
100
AcDbArc
 50
180.000000000
 51
-90.000000000
  0
LINE
  5
B83
330
A02
100
AcDbEntity
  8
SheetCutProfiles
100
AcDbLine
 10
366.600000000
 20
160.750000000
 30
0.000000000
 11
378.200000000
 21
160.750000000
 31
0.000000000
  0
LINE
  5
B84
330
A02
100
AcDbEntity
  8
SheetCutProfiles
100
AcDbLine
 10
378.200000000
 20
97.250000000
 30
0.000000000
 11
378.200000000
 21
160.750000000
 31
0.000000000
  0
LINE
  5
B85
330
A02
100
AcDbEntity
  8
SheetCutProfiles
100
AcDbLine
 10
378.200000000
 20
97.250000000
 30
0.000000000
 11
366.600000000
 21
97.250000000
 31
0.000000000
  0
ARC
  5
B86
330
A02
100
AcDbEntity
  8
SheetCutProfiles
100
AcDbCircle
 10
366.600000000
 20
95.250000000
 30
0.000000000
 40
2.000000000
100
AcDbArc
 50
90.000000000
 51
180.000000000
  0
LINE
  5
B87
330
A02
100
AcDbEntity
  8
SheetCutProfiles
100
AcDbLine
 10
364.600000000
 20
35.750000000
 30
0.000000000
 11
364.600000000
 21
95.250000000
 31
0.000000000
  0
ARC
  5
B88
330
A02
100
AcDbEntity
  8
SheetCutProfiles
100
AcDbCircle
 10
366.600000000
 20
35.750000000
 30
0.000000000
 40
2.000000000
100
AcDbArc
 50
180.000000000
 51
-90.000000000
  0
LINE
  5
B89
330
A02
100
AcDbEntity
  8
SheetCutProfiles
100
AcDbLine
 10
366.600000000
 20
33.750000000
 30
0.000000000
 11
378.200000000
 21
33.750000000
 31
0.000000000
  0
LINE
  5
B8A
330
A02
100
AcDbEntity
  8
SheetCutProfiles
100
AcDbLine
 10
378.200000000
 20
2.000000000
 30
0.000000000
 11
378.200000000
 21
33.750000000
 31
0.000000000
  0
ARC
  5
B8B
330
A02
100
AcDbEntity
  8
SheetCutProfiles
100
AcDbCircle
 10
380.200000000
 20
2.000000000
 30
0.000000000
 40
2.000000000
100
AcDbArc
 50
180.000000000
 51
-90.000000000
  0
LINE
  5
B8C
330
A02
100
AcDbEntity
  8
SheetCutProfiles
100
AcDbLine
 10
396.975000000
 20
0.000000000
 30
0.000000000
 11
380.200000000
 21
0.000000000
 31
0.000000000
  0
ARC
  5
B8D
330
A02
100
AcDbEntity
  8
SheetCutProfiles
100
AcDbCircle
 10
396.975000000
 20
2.000000000
 30
0.000000000
 40
2.000000000
100
AcDbArc
 50
-90.000000000
 51
0.000000000
  0
LINE
  5
B8E
330
A02
100
AcDbEntity
  8
SheetCutProfiles
100
AcDbLine
 10
398.975000000
 20
13.600000000
 30
0.000000000
 11
398.975000000
 21
2.000000000
 31
0.000000000
  0
LINE
  5
B8F
330
A02
100
AcDbEntity
  8
SheetCutProfiles
100
AcDbLine
 10
440.525000000
 20
13.600000000
 30
0.000000000
 11
398.975000000
 21
13.600000000
 31
0.000000000
  0
LINE
  5
B90
330
A02
100
AcDbEntity
  8
SheetCutProfiles
100
AcDbLine
 10
440.525000000
 20
2.000000000
 30
0.000000000
 11
440.525000000
 21
13.600000000
 31
0.000000000
  0
ARC
  5
B91
330
A02
100
AcDbEntity
  8
SheetCutProfiles
100
AcDbCircle
 10
442.525000000
 20
2.000000000
 30
0.000000000
 40
2.000000000
100
AcDbArc
 50
180.000000000
 51
-90.000000000
  0
LINE
  5
B92
330
A02
100
AcDbEntity
  8
SheetCutProfiles
100
AcDbLine
 10
480.075000000
 20
0.000000000
 30
0.000000000
 11
442.525000000
 21
0.000000000
 31
0.000000000
  0
ARC
  5
B93
330
A02
100
AcDbEntity
  8
SheetCutProfiles
100
AcDbCircle
 10
480.075000000
 20
2.000000000
 30
0.000000000
 40
2.000000000
100
AcDbArc
 50
-90.000000000
 51
0.000000000
  0
LINE
  5
B94
330
A02
100
AcDbEntity
  8
SheetCutProfiles
100
AcDbLine
 10
482.075000000
 20
13.600000000
 30
0.000000000
 11
482.075000000
 21
2.000000000
 31
0.000000000
  0
LINE
  5
B95
330
A02
100
AcDbEntity
  8
SheetCutProfiles
100
AcDbLine
 10
523.625000000
 20
13.600000000
 30
0.000000000
 11
482.075000000
 21
13.600000000
 31
0.000000000
  0
LINE
  5
B96
330
A02
100
AcDbEntity
  8
SheetCutProfiles
100
AcDbLine
 10
523.625000000
 20
2.000000000
 30
0.000000000
 11
523.625000000
 21
13.600000000
 31
0.000000000
  0
ARC
  5
B97
330
A02
100
AcDbEntity
  8
SheetCutProfiles
100
AcDbCircle
 10
525.625000000
 20
2.000000000
 30
0.000000000
 40
2.000000000
100
AcDbArc
 50
180.000000000
 51
-90.000000000
  0
LINE
  5
B98
330
A02
100
AcDbEntity
  8
SheetCutProfiles
100
AcDbLine
 10
563.175000000
 20
0.000000000
 30
0.000000000
 11
525.625000000
 21
0.000000000
 31
0.000000000
  0
ARC
  5
B99
330
A02
100
AcDbEntity
  8
SheetCutProfiles
100
AcDbCircle
 10
563.175000000
 20
2.000000000
 30
0.000000000
 40
2.000000000
100
AcDbArc
 50
-90.000000000
 51
0.000000000
  0
LINE
  5
B9A
330
A02
100
AcDbEntity
  8
SheetCutProfiles
100
AcDbLine
 10
565.175000000
 20
13.600000000
 30
0.000000000
 11
565.175000000
 21
2.000000000
 31
0.000000000
  0
LINE
  5
B9B
330
A02
100
AcDbEntity
  8
SheetCutProfiles
100
AcDbLine
 10
606.725000000
 20
13.600000000
 30
0.000000000
 11
565.175000000
 21
13.600000000
 31
0.000000000
  0
LINE
  5
B9C
330
A02
100
AcDbEntity
  8
SheetCutProfiles
100
AcDbLine
 10
606.725000000
 20
2.000000000
 30
0.000000000
 11
606.725000000
 21
13.600000000
 31
0.000000000
  0
ARC
  5
B9D
330
A02
100
AcDbEntity
  8
SheetCutProfiles
100
AcDbCircle
 10
608.725000000
 20
2.000000000
 30
0.000000000
 40
2.000000000
100
AcDbArc
 50
180.000000000
 51
-90.000000000
  0
LINE
  5
B9E
330
A02
100
AcDbEntity
  8
SheetCutProfiles
100
AcDbLine
 10
646.275000000
 20
0.000000000
 30
0.000000000
 11
608.725000000
 21
0.000000000
 31
0.000000000
  0
ARC
  5
B9F
330
A02
100
AcDbEntity
  8
SheetCutProfiles
100
AcDbCircle
 10
646.275000000
 20
2.000000000
 30
0.000000000
 40
2.000000000
100
AcDbArc
 50
-90.000000000
 51
0.000000000
  0
LINE
  5
BA0
330
A02
100
AcDbEntity
  8
SheetCutProfiles
100
AcDbLine
 10
648.275000000
 20
13.600000000
 30
0.000000000
 11
648.275000000
 21
2.000000000
 31
0.000000000
  0
LINE
  5
BA1
330
A02
100
AcDbEntity
  8
SheetCutProfiles
100
AcDbLine
 10
689.825000000
 20
13.600000000
 30
0.000000000
 11
648.275000000
 21
13.600000000
 31
0.000000000
  0
LINE
  5
BA2
330
A02
100
AcDbEntity
  8
SheetCutProfiles
100
AcDbLine
 10
689.825000000
 20
2.000000000
 30
0.000000000
 11
689.825000000
 21
13.600000000
 31
0.000000000
  0
ARC
  5
BA3
330
A02
100
AcDbEntity
  8
SheetCutProfiles
100
AcDbCircle
 10
691.825000000
 20
2.000000000
 30
0.000000000
 40
2.000000000
100
AcDbArc
 50
180.000000000
 51
-90.000000000
  0
LINE
  5
BA4
330
A02
100
AcDbEntity
  8
SheetCutProfiles
100
AcDbLine
 10
708.600000000
 20
0.000000000
 30
0.000000000
 11
691.825000000
 21
0.000000000
 31
0.000000000
  0
ARC
  5
BA5
330
A02
100
AcDbEntity
  8
SheetCutProfiles
100
AcDbCircle
 10
708.600000000
 20
2.000000000
 30
0.000000000
 40
2.000000000
100
AcDbArc
 50
-90.000000000
 51
0.000000000
  0
LINE
  5
BA6
330
A02
100
AcDbEntity
  8
SheetCutProfiles
100
AcDbLine
 10
722.200000000
 20
2.000000000
 30
0.000000000
 11
710.600000000
 21
2.000000000
 31
0.000000000
  0
ARC
  5
BA7
330
A02
100
AcDbEntity
  8
SheetCutProfiles
100
AcDbCircle
 10
722.200000000
 20
4.000000000
 30
0.000000000
 40
2.000000000
100
AcDbArc
 50
-90.000000000
 51
0.000000000
  0
CIRCLE
  5
BA8
330
A02
100
AcDbEntity
  8
SheetCutProfiles
100
AcDbCircle
 10
544.400000000
 20
340.666666667
 30
0.000000000
 40
3.750000000
  0
CIRCLE
  5
BA9
330
A02
100
AcDbEntity
  8
SheetCutProfiles
100
AcDbCircle
 10
544.400000000
 20
426.666666667
 30
0.000000000
 40
3.000000000
  0
CIRCLE
  5
BAA
330
A02
100
AcDbEntity
  8
SheetCutProfiles
100
AcDbCircle
 10
544.400000000
 20
171.333333333
 30
0.000000000
 40
3.750000000
  0
CIRCLE
  5
BAB
330
A02
100
AcDbEntity
  8
SheetCutProfiles
100
AcDbCircle
 10
544.400000000
 20
85.333333333
 30
0.000000000
 40
3.000000000
  0
LINE
  5
BAC
330
A02
100
AcDbEntity
  8
SheetCutProfiles
100
AcDbLine
 10
934.200000000
 20
550.337500000
 30
0.000000000
 11
945.800000000
 21
550.337500000
 31
0.000000000
  0
LINE
  5
BAD
330
A02
100
AcDbEntity
  8
SheetCutProfiles
100
AcDbLine
 10
934.200000000
 20
550.337500000
 30
0.000000000
 11
934.200000000
 21
572.562500000
 31
0.000000000
  0
LINE
  5
BAE
330
A02
100
AcDbEntity
  8
SheetCutProfiles
100
AcDbLine
 10
945.800000000
 20
572.562500000
 30
0.000000000
 11
934.200000000
 21
572.562500000
 31
0.000000000
  0
ARC
  5
BAF
330
A02
100
AcDbEntity
  8
SheetCutProfiles
100
AcDbCircle
 10
945.800000000
 20
574.562500000
 30
0.000000000
 40
2.000000000
100
AcDbArc
 50
-90.000000000
 51
0.000000000
  0
LINE
  5
BB0
330
A02
100
AcDbEntity
  8
SheetCutProfiles
100
AcDbLine
 10
947.800000000
 20
574.562500000
 30
0.000000000
 11
947.800000000
 21
592.787500000
 31
0.000000000
  0
ARC
  5
BB1
330
A02
100
AcDbEntity
  8
SheetCutProfiles
100
AcDbCircle
 10
945.800000000
 20
592.787500000
 30
0.000000000
 40
2.000000000
100
AcDbArc
 50
0.000000000
 51
90.000000000
  0
LINE
  5
BB2
330
A02
100
AcDbEntity
  8
SheetCutProfiles
100
AcDbLine
 10
934.200000000
 20
594.787500000
 30
0.000000000
 11
945.800000000
 21
594.787500000
 31
0.000000000
  0
LINE
  5
BB3
330
A02
100
AcDbEntity
  8
SheetCutProfiles
100
AcDbLine
 10
934.200000000
 20
594.787500000
 30
0.000000000
 11
934.200000000
 21
617.012500000
 31
0.000000000
  0
LINE
  5
BB4
330
A02
100
AcDbEntity
  8
SheetCutProfiles
100
AcDbLine
 10
945.800000000
 20
617.012500000
 30
0.000000000
 11
934.200000000
 21
617.012500000
 31
0.000000000
  0
ARC
  5
BB5
330
A02
100
AcDbEntity
  8
SheetCutProfiles
100
AcDbCircle
 10
945.800000000
 20
619.012500000
 30
0.000000000
 40
2.000000000
100
AcDbArc
 50
-90.000000000
 51
0.000000000
  0
LINE
  5
BB6
330
A02
100
AcDbEntity
  8
SheetCutProfiles
100
AcDbLine
 10
947.800000000
 20
619.012500000
 30
0.000000000
 11
947.800000000
 21
637.237500000
 31
0.000000000
  0
ARC
  5
BB7
330
A02
100
AcDbEntity
  8
SheetCutProfiles
100
AcDbCircle
 10
945.800000000
 20
637.237500000
 30
0.000000000
 40
2.000000000
100
AcDbArc
 50
0.000000000
 51
90.000000000
  0
LINE
  5
BB8
330
A02
100
AcDbEntity
  8
SheetCutProfiles
100
AcDbLine
 10
934.200000000
 20
639.237500000
 30
0.000000000
 11
945.800000000
 21
639.237500000
 31
0.000000000
  0
LINE
  5
BB9
330
A02
100
AcDbEntity
  8
SheetCutProfiles
100
AcDbLine
 10
934.200000000
 20
639.237500000
 30
0.000000000
 11
934.200000000
 21
661.462500000
 31
0.000000000
  0
LINE
  5
BBA
330
A02
100
AcDbEntity
  8
SheetCutProfiles
100
AcDbLine
 10
945.800000000
 20
661.462500000
 30
0.000000000
 11
934.200000000
 21
661.462500000
 31
0.000000000
  0
ARC
  5
BBB
330
A02
100
AcDbEntity
  8
SheetCutProfiles
100
AcDbCircle
 10
945.800000000
 20
663.462500000
 30
0.000000000
 40
2.000000000
100
AcDbArc
 50
-90.000000000
 51
0.000000000
  0
LINE
  5
BBC
330
A02
100
AcDbEntity
  8
SheetCutProfiles
100
AcDbLine
 10
947.800000000
 20
663.462500000
 30
0.000000000
 11
947.800000000
 21
681.687500000
 31
0.000000000
  0
ARC
  5
BBD
330
A02
100
AcDbEntity
  8
SheetCutProfiles
100
AcDbCircle
 10
945.800000000
 20
681.687500000
 30
0.000000000
 40
2.000000000
100
AcDbArc
 50
0.000000000
 51
90.000000000
  0
LINE
  5
BBE
330
A02
100
AcDbEntity
  8
SheetCutProfiles
100
AcDbLine
 10
934.200000000
 20
683.687500000
 30
0.000000000
 11
945.800000000
 21
683.687500000
 31
0.000000000
  0
LINE
  5
BBF
330
A02
100
AcDbEntity
  8
SheetCutProfiles
100
AcDbLine
 10
934.200000000
 20
683.687500000
 30
0.000000000
 11
934.200000000
 21
694.800000000
 31
0.000000000
  0
LINE
  5
BC0
330
A02
100
AcDbEntity
  8
SheetCutProfiles
100
AcDbLine
 10
5.800000000
 20
694.800000000
 30
0.000000000
 11
934.200000000
 21
694.800000000
 31
0.000000000
  0
LINE
  5
BC1
330
A02
100
AcDbEntity
  8
SheetCutProfiles
100
AcDbLine
 10
5.800000000
 20
683.687500000
 30
0.000000000
 11
5.800000000
 21
694.800000000
 31
0.000000000
  0
LINE
  5
BC2
330
A02
100
AcDbEntity
  8
SheetCutProfiles
100
AcDbLine
 10
5.800000000
 20
683.687500000
 30
0.000000000
 11
2.000000000
 21
683.687500000
 31
0.000000000
  0
ARC
  5
BC3
330
A02
100
AcDbEntity
  8
SheetCutProfiles
100
AcDbCircle
 10
2.000000000
 20
681.687500000
 30
0.000000000
 40
2.000000000
100
AcDbArc
 50
90.000000000
 51
180.000000000
  0
LINE
  5
BC4
330
A02
100
AcDbEntity
  8
SheetCutProfiles
100
AcDbLine
 10
0.000000000
 20
663.462500000
 30
0.000000000
 11
0.000000000
 21
681.687500000
 31
0.000000000
  0
ARC
  5
BC5
330
A02
100
AcDbEntity
  8
SheetCutProfiles
100
AcDbCircle
 10
2.000000000
 20
663.462500000
 30
0.000000000
 40
2.000000000
100
AcDbArc
 50
180.000000000
 51
-90.000000000
  0
LINE
  5
BC6
330
A02
100
AcDbEntity
  8
SheetCutProfiles
100
AcDbLine
 10
2.000000000
 20
661.462500000
 30
0.000000000
 11
5.800000000
 21
661.462500000
 31
0.000000000
  0
LINE
  5
BC7
330
A02
100
AcDbEntity
  8
SheetCutProfiles
100
AcDbLine
 10
5.800000000
 20
639.237500000
 30
0.000000000
 11
5.800000000
 21
661.462500000
 31
0.000000000
  0
LINE
  5
BC8
330
A02
100
AcDbEntity
  8
SheetCutProfiles
100
AcDbLine
 10
5.800000000
 20
639.237500000
 30
0.000000000
 11
2.000000000
 21
639.237500000
 31
0.000000000
  0
ARC
  5
BC9
330
A02
100
AcDbEntity
  8
SheetCutProfiles
100
AcDbCircle
 10
2.000000000
 20
637.237500000
 30
0.000000000
 40
2.000000000
100
AcDbArc
 50
90.000000000
 51
180.000000000
  0
LINE
  5
BCA
330
A02
100
AcDbEntity
  8
SheetCutProfiles
100
AcDbLine
 10
0.000000000
 20
619.012500000
 30
0.000000000
 11
0.000000000
 21
637.237500000
 31
0.000000000
  0
ARC
  5
BCB
330
A02
100
AcDbEntity
  8
SheetCutProfiles
100
AcDbCircle
 10
2.000000000
 20
619.012500000
 30
0.000000000
 40
2.000000000
100
AcDbArc
 50
180.000000000
 51
-90.000000000
  0
LINE
  5
BCC
330
A02
100
AcDbEntity
  8
SheetCutProfiles
100
AcDbLine
 10
2.000000000
 20
617.012500000
 30
0.000000000
 11
5.800000000
 21
617.012500000
 31
0.000000000
  0
LINE
  5
BCD
330
A02
100
AcDbEntity
  8
SheetCutProfiles
100
AcDbLine
 10
5.800000000
 20
594.787500000
 30
0.000000000
 11
5.800000000
 21
617.012500000
 31
0.000000000
  0
LINE
  5
BCE
330
A02
100
AcDbEntity
  8
SheetCutProfiles
100
AcDbLine
 10
5.800000000
 20
594.787500000
 30
0.000000000
 11
2.000000000
 21
594.787500000
 31
0.000000000
  0
ARC
  5
BCF
330
A02
100
AcDbEntity
  8
SheetCutProfiles
100
AcDbCircle
 10
2.000000000
 20
592.787500000
 30
0.000000000
 40
2.000000000
100
AcDbArc
 50
90.000000000
 51
180.000000000
  0
LINE
  5
BD0
330
A02
100
AcDbEntity
  8
SheetCutProfiles
100
AcDbLine
 10
0.000000000
 20
574.562500000
 30
0.000000000
 11
0.000000000
 21
592.787500000
 31
0.000000000
  0
ARC
  5
BD1
330
A02
100
AcDbEntity
  8
SheetCutProfiles
100
AcDbCircle
 10
2.000000000
 20
574.562500000
 30
0.000000000
 40
2.000000000
100
AcDbArc
 50
180.000000000
 51
-90.000000000
  0
LINE
  5
BD2
330
A02
100
AcDbEntity
  8
SheetCutProfiles
100
AcDbLine
 10
2.000000000
 20
572.562500000
 30
0.000000000
 11
5.800000000
 21
572.562500000
 31
0.000000000
  0
LINE
  5
BD3
330
A02
100
AcDbEntity
  8
SheetCutProfiles
100
AcDbLine
 10
5.800000000
 20
550.337500000
 30
0.000000000
 11
5.800000000
 21
572.562500000
 31
0.000000000
  0
LINE
  5
BD4
330
A02
100
AcDbEntity
  8
SheetCutProfiles
100
AcDbLine
 10
5.800000000
 20
550.337500000
 30
0.000000000
 11
2.000000000
 21
550.337500000
 31
0.000000000
  0
ARC
  5
BD5
330
A02
100
AcDbEntity
  8
SheetCutProfiles
100
AcDbCircle
 10
2.000000000
 20
548.337500000
 30
0.000000000
 40
2.000000000
100
AcDbArc
 50
90.000000000
 51
180.000000000
  0
LINE
  5
BD6
330
A02
100
AcDbEntity
  8
SheetCutProfiles
100
AcDbLine
 10
0.000000000
 20
530.112500000
 30
0.000000000
 11
0.000000000
 21
548.337500000
 31
0.000000000
  0
ARC
  5
BD7
330
A02
100
AcDbEntity
  8
SheetCutProfiles
100
AcDbCircle
 10
2.000000000
 20
530.112500000
 30
0.000000000
 40
2.000000000
100
AcDbArc
 50
180.000000000
 51
-90.000000000
  0
LINE
  5
BD8
330
A02
100
AcDbEntity
  8
SheetCutProfiles
100
AcDbLine
 10
2.000000000
 20
528.112500000
 30
0.000000000
 11
5.800000000
 21
528.112500000
 31
0.000000000
  0
LINE
  5
BD9
330
A02
100
AcDbEntity
  8
SheetCutProfiles
100
AcDbLine
 10
5.800000000
 20
517.000000000
 30
0.000000000
 11
5.800000000
 21
528.112500000
 31
0.000000000
  0
LINE
  5
BDA
330
A02
100
AcDbEntity
  8
SheetCutProfiles
100
AcDbLine
 10
5.800000000
 20
517.000000000
 30
0.000000000
 11
934.200000000
 21
517.000000000
 31
0.000000000
  0
LINE
  5
BDB
330
A02
100
AcDbEntity
  8
SheetCutProfiles
100
AcDbLine
 10
934.200000000
 20
517.000000000
 30
0.000000000
 11
934.200000000
 21
528.112500000
 31
0.000000000
  0
LINE
  5
BDC
330
A02
100
AcDbEntity
  8
SheetCutProfiles
100
AcDbLine
 10
945.800000000
 20
528.112500000
 30
0.000000000
 11
934.200000000
 21
528.112500000
 31
0.000000000
  0
ARC
  5
BDD
330
A02
100
AcDbEntity
  8
SheetCutProfiles
100
AcDbCircle
 10
945.800000000
 20
530.112500000
 30
0.000000000
 40
2.000000000
100
AcDbArc
 50
-90.000000000
 51
0.000000000
  0
LINE
  5
BDE
330
A02
100
AcDbEntity
  8
SheetCutProfiles
100
AcDbLine
 10
947.800000000
 20
530.112500000
 30
0.000000000
 11
947.800000000
 21
548.337500000
 31
0.000000000
  0
ARC
  5
BDF
330
A02
100
AcDbEntity
  8
SheetCutProfiles
100
AcDbCircle
 10
945.800000000
 20
548.337500000
 30
0.000000000
 40
2.000000000
100
AcDbArc
 50
0.000000000
 51
90.000000000
  0
LINE
  5
BE0
330
A02
100
AcDbEntity
  8
SheetCutProfiles
100
AcDbLine
 10
876.175000000
 20
529.700000000
 30
0.000000000
 11
760.125000000
 21
529.700000000
 31
0.000000000
  0
LINE
  5
BE1
330
A02
100
AcDbEntity
  8
SheetCutProfiles
100
AcDbLine
 10
760.125000000
 20
529.700000000
 30
0.000000000
 11
760.125000000
 21
535.500000000
 31
0.000000000
  0
LINE
  5
BE2
330
A02
100
AcDbEntity
  8
SheetCutProfiles
100
AcDbLine
 10
760.125000000
 20
535.500000000
 30
0.000000000
 11
876.175000000
 21
535.500000000
 31
0.000000000
  0
LINE
  5
BE3
330
A02
100
AcDbEntity
  8
SheetCutProfiles
100
AcDbLine
 10
876.175000000
 20
535.500000000
 30
0.000000000
 11
876.175000000
 21
529.700000000
 31
0.000000000
  0
LINE
  5
BE4
330
A02
100
AcDbEntity
  8
SheetCutProfiles
100
AcDbLine
 10
644.075000000
 20
529.700000000
 30
0.000000000
 11
528.025000000
 21
529.700000000
 31
0.000000000
  0
LINE
  5
BE5
330
A02
100
AcDbEntity
  8
SheetCutProfiles
100
AcDbLine
 10
528.025000000
 20
529.700000000
 30
0.000000000
 11
528.025000000
 21
535.500000000
 31
0.000000000
  0
LINE
  5
BE6
330
A02
100
AcDbEntity
  8
SheetCutProfiles
100
AcDbLine
 10
528.025000000
 20
535.500000000
 30
0.000000000
 11
644.075000000
 21
535.500000000
 31
0.000000000
  0
LINE
  5
BE7
330
A02
100
AcDbEntity
  8
SheetCutProfiles
100
AcDbLine
 10
644.075000000
 20
535.500000000
 30
0.000000000
 11
644.075000000
 21
529.700000000
 31
0.000000000
  0
CIRCLE
  5
BE8
330
A02
100
AcDbEntity
  8
SheetCutProfiles
100
AcDbCircle
 10
779.466666667
 20
659.600000000
 30
0.000000000
 40
3.000000000
  0
LINE
  5
BE9
330
A02
100
AcDbEntity
  8
SheetCutProfiles
100
AcDbLine
 10
411.975000000
 20
529.700000000
 30
0.000000000
 11
295.925000000
 21
529.700000000
 31
0.000000000
  0
LINE
  5
BEA
330
A02
100
AcDbEntity
  8
SheetCutProfiles
100
AcDbLine
 10
295.925000000
 20
529.700000000
 30
0.000000000
 11
295.925000000
 21
535.500000000
 31
0.000000000
  0
LINE
  5
BEB
330
A02
100
AcDbEntity
  8
SheetCutProfiles
100
AcDbLine
 10
295.925000000
 20
535.500000000
 30
0.000000000
 11
411.975000000
 21
535.500000000
 31
0.000000000
  0
LINE
  5
BEC
330
A02
100
AcDbEntity
  8
SheetCutProfiles
100
AcDbLine
 10
411.975000000
 20
535.500000000
 30
0.000000000
 11
411.975000000
 21
529.700000000
 31
0.000000000
  0
LINE
  5
BED
330
A02
100
AcDbEntity
  8
SheetCutProfiles
100
AcDbLine
 10
179.875000000
 20
529.700000000
 30
0.000000000
 11
63.825000000
 21
529.700000000
 31
0.000000000
  0
LINE
  5
BEE
330
A02
100
AcDbEntity
  8
SheetCutProfiles
100
AcDbLine
 10
63.825000000
 20
529.700000000
 30
0.000000000
 11
63.825000000
 21
535.500000000
 31
0.000000000
  0
LINE
  5
BEF
330
A02
100
AcDbEntity
  8
SheetCutProfiles
100
AcDbLine
 10
63.825000000
 20
535.500000000
 30
0.000000000
 11
179.875000000
 21
535.500000000
 31
0.000000000
  0
LINE
  5
BF0
330
A02
100
AcDbEntity
  8
SheetCutProfiles
100
AcDbLine
 10
179.875000000
 20
535.500000000
 30
0.000000000
 11
179.875000000
 21
529.700000000
 31
0.000000000
  0
CIRCLE
  5
BF1
330
A02
100
AcDbEntity
  8
SheetCutProfiles
100
AcDbCircle
 10
160.533333333
 20
659.600000000
 30
0.000000000
 40
3.000000000
  0
ENDSEC
  0
SECTION
  2
OBJECTS
  0
DICTIONARY
  5
F000
330
0
100
AcDbDictionary
  3
ACAD_GROUP
350
F001
  0
DICTIONARY
  5
F001
330
F000
100
AcDbDictionary
  0
ENDSEC
  0
EOF