999
FreeCAD v1.1 20260725 (Git shallow)
  0
SECTION
  2
HEADER
  9
$ACADVER
  1
AC1014
  9
$ACADMAINTVER
 70
     9
  9
$DWGCODEPAGE
  3
ANSI_1252
  9
$TEXTSTYLE
  7
STANDARD
  9
$DIMSTYLE
  2
STANDARD
  9
$DIMTXSTY
  7
STANDARD
  9
$CMLSTYLE
  2
STANDARD
  9
$LUNITS
 70
2
  9
$INSUNITS
 70
4
  9
$PEXTMAX
 10
50
 20
50
 30
50
  9
$PEXTMIN
 10
0
 20
0
 30
0
  9
$HANDSEED
  5
FFFF
  0
ENDSEC
  0
SECTION
  2
CLASSES
  0
CLASS
  1
ACDBDICTIONARYWDFLT
  2
AcDbDictionaryWithDefault
  3
ObjectDBX Classes
 90
        0
280
     0
281
     0
  0
CLASS
  1
XRECORD
  2
AcDbXrecord
  3
ObjectDBX Classes
 90
        0
280
     0
281
     0
  0
CLASS
  1
LWPOLYLINE
  2
AcDbPolyline
  3
ObjectDBX Classes
 90
        0
280
     0
281
     1
  0
ENDSEC
  0
SECTION
  2
TABLES
  0
TABLE
  2
VPORT
  5
20
330
0
100
AcDbSymbolTable
 70
     1
  0
VPORT
  5
21
330
20
100
AcDbSymbolTableRecord
100
AcDbViewportTableRecord
  2
*ACTIVE
 70
     0
  0
ENDTAB
  0
TABLE
  2
LTYPE
  5
22
330
0
100
AcDbSymbolTable
 70
     1
  0
LTYPE
  5
23
330
21
100
AcDbSymbolTableRecord
100
AcDbLinetypeTableRecord
  2
BYBLOCK
 70
     0
  3

 72
    65
 73
     0
 40
0.0
  0
LTYPE
  5
24
330
21
100
AcDbSymbolTableRecord
100
AcDbLinetypeTableRecord
  2
BYLAYER
 70
     0
  3

 72
    65
 73
     0
 40
0.0
  0
LTYPE
  5
25
330
21
100
AcDbSymbolTableRecord
100
AcDbLinetypeTableRecord
  2
CONTINUOUS
 70
     0
  3
Solid line
 72
    65
 73
     0
 40
0.0
  0
ENDTAB
  0
TABLE
  2
LAYER
  5
C18
330
0
100
AcDbSymbolTable
 70
3
  0
LAYER
  5
C19
330
C18
100
AcDbSymbolTableRecord
100
AcDbLayerTableRecord
  2
0
 70
   0
 62
   7
  6
CONTINUOUS
  0
LAYER
  5
C1A
330
C18
100
AcDbSymbolTableRecord
100
AcDbLayerTableRecord
  2
none
 70
    0
 62
    7
  6
CONTINUOUS
  0
LAYER
  5
C1B
330
C18
100
AcDbSymbolTableRecord
100
AcDbLayerTableRecord
  2
SheetCutProfiles
 70
    0
 62
    7
  6
CONTINUOUS
  0
ENDTAB
  0
TABLE
  2
STYLE
  5
70
330
0
100
AcDbSymbolTable
 70
     2
  0
STYLE
  5
71
330
70
100
AcDbSymbolTableRecord
100
AcDbTextStyleTableRecord
  2
STANDARD
 70
     0
 40
0.0
 41
1.0
 50
0.0
 71
     0
 42
2.5
  3
arial.ttf
  4

  0
STYLE
  5
72
330
70
100
AcDbSymbolTableRecord
100
AcDbTextStyleTableRecord
  2
ANNOTATIVE
 70
     0
 40
0.0
 41
1.0
 50
0.0
 71
     0
 42
2.5
  3
arial.ttf
  4

  0
ENDTAB
  0
TABLE
  2
VIEW
  5
73
330
0
100
AcDbSymbolTable
 70
     0
  0
ENDTAB
  0
TABLE
  2
UCS
  5
74
330
0
100
AcDbSymbolTable
 70
     0
  0
ENDTAB
  0
TABLE
  2
APPID
  5
75
330
0
100
AcDbSymbolTable
 70
     2
  0
APPID
  5
76
330
75
100
AcDbSymbolTableRecord
100
AcDbRegAppTableRecord
  2
ACAD
 70
     0
  0
APPID
  5
77
330
75
100
AcDbSymbolTableRecord
100
AcDbRegAppTableRecord
  2
ACADANNOTATIVE
 70
     0
  0
ENDTAB
  0
TABLE
  2
DIMSTYLE
  5
78
330
0
100
AcDbSymbolTable
 70
     2
  0
DIMSTYLE
105
79
330
78
100
AcDbSymbolTableRecord
100
AcDbDimStyleTableRecord
  2
STANDARD
 70
     0
  3

  4

  5

  6

  7

 40
0.0
 41
2.5
 42
0.625
 43
3.75
 44
1.25
 45
0.0
 46
0.0
 47
0.0
 48
0.0
140
2.5
141
2.5
142
0.0
143
0.03937007874016
144
1.0
145
0.0
146
1.0
147
0.625
 71
     0
 72
     0
 73
     0
 74
     0
 75
     0
 76
     0
 77
     1
 78
     8
170
     0
171
     3
172
     1
173
     0
174
     0
175
     0
176
     0
177
     0
178
     0
270
     2
271
     2
272
     2
273
     2
274
     3
340
71
275
     0
280
     0
281
     0
282
     0
283
     0
284
     8
285
     0
286
     0
287
     3
288
     0
  0
ENDTAB
  0
TABLE
  2
BLOCK_RECORD
  5
A01
330
0
100
AcDbSymbolTable
  70
5
  0
BLOCK_RECORD
  5
A02
330
A01
100
AcDbSymbolTableRecord
100
AcDbBlockTableRecord
  2
*MODEL_SPACE
  0
BLOCK_RECORD
  5
A03
330
A01
100
AcDbSymbolTableRecord
100
AcDbBlockTableRecord
  2
*PAPER_SPACE
  0
ENDTAB
  0
ENDSEC
  0
SECTION
  2
BLOCKS
  0
BLOCK
  5
A04
330
A02
100
AcDbEntity
  8
0
100
AcDbBlockBegin
  2
*MODEL_SPACE
 70
   0
 10
0
 20
0
 30
0
  3
*MODEL_SPACE
  1
 
  0
ENDBLK
  5
A05
330
A02
100
AcDbEntity
  8
0
100
AcDbBlockEnd
  0
BLOCK
  5
A06
330
A03
100
AcDbEntity
 67
1
  8
0
100
AcDbBlockBegin
  2
*PAPER_SPACE
 70
   0
 10
0
 20
0
 30
0
  3
*PAPER_SPACE
  1
 
  0
ENDBLK
  5
A07
330
A03
100
AcDbEntity
 67
    1
  8
0
100
AcDbBlockEnd
  0
ENDSEC
  0
SECTION
  2
ENTITIES
  0
LINE
  5
A08
330
A02
100
AcDbEntity
  8
SheetCutProfiles
100
AcDbLine
 10
43.900000000
 20
2.000000000
 30
0.000000000
 11
43.900000000
 21
13.600000000
 31
0.000000000
  0
ARC
  5
A09
330
A02
100
AcDbEntity
  8
SheetCutProfiles
100
AcDbCircle
 10
41.900000000
 20
2.000000000
 30
0.000000000
 40
2.000000000
100
AcDbArc
 50
-90.000000000
 51
0.000000000
  0
LINE
  5
A0A
330
A02
100
AcDbEntity
  8
SheetCutProfiles
100
AcDbLine
 10
41.900000000
 20
0.000000000
 30
0.000000000
 11
15.600000000
 21
0.000000000
 31
0.000000000
  0
ARC
  5
A0B
330
A02
100
AcDbEntity
  8
SheetCutProfiles
100
AcDbCircle
 10
15.600000000
 20
2.000000000
 30
0.000000000
 40
2.000000000
100
AcDbArc
 50
180.000000000
 51
-90.000000000
  0
LINE
  5
A0C
330
A02
100
AcDbEntity
  8
SheetCutProfiles
100
AcDbLine
 10
13.600000000
 20
2.000000000
 30
0.000000000
 11
2.000000000
 21
2.000000000
 31
0.000000000
  0
ARC
  5
A0D
330
A02
100
AcDbEntity
  8
SheetCutProfiles
100
AcDbCircle
 10
2.000000000
 20
4.000000000
 30
0.000000000
 40
2.000000000
100
AcDbArc
 50
180.000000000
 51
-90.000000000
  0
LINE
  5
A0E
330
A02
100
AcDbEntity
  8
SheetCutProfiles
100
AcDbLine
 10
0.000000000
 20
4.000000000
 30
0.000000000
 11
0.000000000
 21
31.025000000
 31
0.000000000
  0
ARC
  5
A0F
330
A02
100
AcDbEntity
  8
SheetCutProfiles
100
AcDbCircle
 10
2.000000000
 20
31.025000000
 30
0.000000000
 40
2.000000000
100
AcDbArc
 50
90.000000000
 51
180.000000000
  0
LINE
  5
A10
330
A02
100
AcDbEntity
  8
SheetCutProfiles
100
AcDbLine
 10
13.600000000
 20
33.025000000
 30
0.000000000
 11
2.000000000
 21
33.025000000
 31
0.000000000
  0
LINE
  5
A11
330
A02
100
AcDbEntity
  8
SheetCutProfiles
100
AcDbLine
 10
13.600000000
 20
95.075000000
 30
0.000000000
 11
13.600000000
 21
33.025000000
 31
0.000000000
  0
LINE
  5
A12
330
A02
100
AcDbEntity
  8
SheetCutProfiles
100
AcDbLine
 10
2.000000000
 20
95.075000000
 30
0.000000000
 11
13.600000000
 21
95.075000000
 31
0.000000000
  0
ARC
  5
A13
330
A02
100
AcDbEntity
  8
SheetCutProfiles
100
AcDbCircle
 10
2.000000000
 20
97.075000000
 30
0.000000000
 40
2.000000000
100
AcDbArc
 50
180.000000000
 51
-90.000000000
  0
LINE
  5
A14
330
A02
100
AcDbEntity
  8
SheetCutProfiles
100
AcDbLine
 10
0.000000000
 20
97.075000000
 30
0.000000000
 11
0.000000000
 21
155.125000000
 31
0.000000000
  0
ARC
  5
A15
330
A02
100
AcDbEntity
  8
SheetCutProfiles
100
AcDbCircle
 10
2.000000000
 20
155.125000000
 30
0.000000000
 40
2.000000000
100
AcDbArc
 50
90.000000000
 51
180.000000000
  0
LINE
  5
A16
330
A02
100
AcDbEntity
  8
SheetCutProfiles
100
AcDbLine
 10
13.600000000
 20
157.125000000
 30
0.000000000
 11
2.000000000
 21
157.125000000
 31
0.000000000
  0
LINE
  5
A17
330
A02
100
AcDbEntity
  8
SheetCutProfiles
100
AcDbLine
 10
13.600000000
 20
219.175000000
 30
0.000000000
 11
13.600000000
 21
157.125000000
 31
0.000000000
  0
LINE
  5
A18
330
A02
100
AcDbEntity
  8
SheetCutProfiles
100
AcDbLine
 10
2.000000000
 20
219.175000000
 30
0.000000000
 11
13.600000000
 21
219.175000000
 31
0.000000000
  0
ARC
  5
A19
330
A02
100
AcDbEntity
  8
SheetCutProfiles
100
AcDbCircle
 10
2.000000000
 20
221.175000000
 30
0.000000000
 40
2.000000000
100
AcDbArc
 50
180.000000000
 51
-90.000000000
  0
LINE
  5
A1A
330
A02
100
AcDbEntity
  8
SheetCutProfiles
100
AcDbLine
 10
0.000000000
 20
221.175000000
 30
0.000000000
 11
0.000000000
 21
279.225000000
 31
0.000000000
  0
ARC
  5
A1B
330
A02
100
AcDbEntity
  8
SheetCutProfiles
100
AcDbCircle
 10
2.000000000
 20
279.225000000
 30
0.000000000
 40
2.000000000
100
AcDbArc
 50
90.000000000
 51
180.000000000
  0
LINE
  5
A1C
330
A02
100
AcDbEntity
  8
SheetCutProfiles
100
AcDbLine
 10
13.600000000
 20
281.225000000
 30
0.000000000
 11
2.000000000
 21
281.225000000
 31
0.000000000
  0
LINE
  5
A1D
330
A02
100
AcDbEntity
  8
SheetCutProfiles
100
AcDbLine
 10
13.600000000
 20
343.275000000
 30
0.000000000
 11
13.600000000
 21
281.225000000
 31
0.000000000
  0
LINE
  5
A1E
330
A02
100
AcDbEntity
  8
SheetCutProfiles
100
AcDbLine
 10
2.000000000
 20
343.275000000
 30
0.000000000
 11
13.600000000
 21
343.275000000
 31
0.000000000
  0
ARC
  5
A1F
330
A02
100
AcDbEntity
  8
SheetCutProfiles
100
AcDbCircle
 10
2.000000000
 20
345.275000000
 30
0.000000000
 40
2.000000000
100
AcDbArc
 50
180.000000000
 51
-90.000000000
  0
LINE
  5
A20
330
A02
100
AcDbEntity
  8
SheetCutProfiles
100
AcDbLine
 10
0.000000000
 20
345.275000000
 30
0.000000000
 11
0.000000000
 21
403.325000000
 31
0.000000000
  0
ARC
  5
A21
330
A02
100
AcDbEntity
  8
SheetCutProfiles
100
AcDbCircle
 10
2.000000000
 20
403.325000000
 30
0.000000000
 40
2.000000000
100
AcDbArc
 50
90.000000000
 51
180.000000000
  0
LINE
  5
A22
330
A02
100
AcDbEntity
  8
SheetCutProfiles
100
AcDbLine
 10
13.600000000
 20
405.325000000
 30
0.000000000
 11
2.000000000
 21
405.325000000
 31
0.000000000
  0
LINE
  5
A23
330
A02
100
AcDbEntity
  8
SheetCutProfiles
100
AcDbLine
 10
13.600000000
 20
467.375000000
 30
0.000000000
 11
13.600000000
 21
405.325000000
 31
0.000000000
  0
LINE
  5
A24
330
A02
100
AcDbEntity
  8
SheetCutProfiles
100
AcDbLine
 10
2.000000000
 20
467.375000000
 30
0.000000000
 11
13.600000000
 21
467.375000000
 31
0.000000000
  0
ARC
  5
A25
330
A02
100
AcDbEntity
  8
SheetCutProfiles
100
AcDbCircle
 10
2.000000000
 20
469.375000000
 30
0.000000000
 40
2.000000000
100
AcDbArc
 50
180.000000000
 51
-90.000000000
  0
LINE
  5
A26
330
A02
100
AcDbEntity
  8
SheetCutProfiles
100
AcDbLine
 10
0.000000000
 20
469.375000000
 30
0.000000000
 11
0.000000000
 21
496.400000000
 31
0.000000000
  0
ARC
  5
A27
330
A02
100
AcDbEntity
  8
SheetCutProfiles
100
AcDbCircle
 10
2.000000000
 20
496.400000000
 30
0.000000000
 40
2.000000000
100
AcDbArc
 50
90.000000000
 51
180.000000000
  0
LINE
  5
A28
330
A02
100
AcDbEntity
  8
SheetCutProfiles
100
AcDbLine
 10
2.000000000
 20
510.000000000
 30
0.000000000
 11
2.000000000
 21
498.400000000
 31
0.000000000
  0
ARC
  5
A29
330
A02
100
AcDbEntity
  8
SheetCutProfiles
100
AcDbCircle
 10
4.000000000
 20
510.000000000
 30
0.000000000
 40
2.000000000
100
AcDbArc
 50
90.000000000
 51
180.000000000
  0
LINE
  5
A2A
330
A02
100
AcDbEntity
  8
SheetCutProfiles
100
AcDbLine
 10
4.000000000
 20
512.000000000
 30
0.000000000
 11
31.750000000
 21
512.000000000
 31
0.000000000
  0
ARC
  5
A2B
330
A02
100
AcDbEntity
  8
SheetCutProfiles
100
AcDbCircle
 10
31.750000000
 20
510.000000000
 30
0.000000000
 40
2.000000000
100
AcDbArc
 50
0.000000000
 51
90.000000000
  0
LINE
  5
A2C
330
A02
100
AcDbEntity
  8
SheetCutProfiles
100
AcDbLine
 10
33.750000000
 20
498.400000000
 30
0.000000000
 11
33.750000000
 21
510.000000000
 31
0.000000000
  0
LINE
  5
A2D
330
A02
100
AcDbEntity
  8
SheetCutProfiles
100
AcDbLine
 10
97.250000000
 20
498.400000000
 30
0.000000000
 11
33.750000000
 21
498.400000000
 31
0.000000000
  0
LINE
  5
A2E
330
A02
100
AcDbEntity
  8
SheetCutProfiles
100
AcDbLine
 10
97.250000000
 20
510.000000000
 30
0.000000000
 11
97.250000000
 21
498.400000000
 31
0.000000000
  0
ARC
  5
A2F
330
A02
100
AcDbEntity
  8
SheetCutProfiles
100
AcDbCircle
 10
99.250000000
 20
510.000000000
 30
0.000000000
 40
2.000000000
100
AcDbArc
 50
90.000000000
 51
180.000000000
  0
LINE
  5
A30
330
A02
100
AcDbEntity
  8
SheetCutProfiles
100
AcDbLine
 10
99.250000000
 20
512.000000000
 30
0.000000000
 11
158.750000000
 21
512.000000000
 31
0.000000000
  0
ARC
  5
A31
330
A02
100
AcDbEntity
  8
SheetCutProfiles
100
AcDbCircle
 10
158.750000000
 20
510.000000000
 30
0.000000000
 40
2.000000000
100
AcDbArc
 50
0.000000000
 51
90.000000000
  0
LINE
  5
A32
330
A02
100
AcDbEntity
  8
SheetCutProfiles
100
AcDbLine
 10
160.750000000
 20
498.400000000
 30
0.000000000
 11
160.750000000
 21
510.000000000
 31
0.000000000
  0
LINE
  5
A33
330
A02
100
AcDbEntity
  8
SheetCutProfiles
100
AcDbLine
 10
224.250000000
 20
498.400000000
 30
0.000000000
 11
160.750000000
 21
498.400000000
 31
0.000000000
  0
LINE
  5
A34
330
A02
100
AcDbEntity
  8
SheetCutProfiles
100
AcDbLine
 10
224.250000000
 20
510.000000000
 30
0.000000000
 11
224.250000000
 21
498.400000000
 31
0.000000000
  0
ARC
  5
A35
330
A02
100
AcDbEntity
  8
SheetCutProfiles
100
AcDbCircle
 10
226.250000000
 20
510.000000000
 30
0.000000000
 40
2.000000000
100
AcDbArc
 50
90.000000000
 51
180.000000000
  0
LINE
  5
A36
330
A02
100
AcDbEntity
  8
SheetCutProfiles
100
AcDbLine
 10
226.250000000
 20
512.000000000
 30
0.000000000
 11
285.750000000
 21
512.000000000
 31
0.000000000
  0
ARC
  5
A37
330
A02
100
AcDbEntity
  8
SheetCutProfiles
100
AcDbCircle
 10
285.750000000
 20
510.000000000
 30
0.000000000
 40
2.000000000
100
AcDbArc
 50
0.000000000
 51
90.000000000
  0
LINE
  5
A38
330
A02
100
AcDbEntity
  8
SheetCutProfiles
100
AcDbLine
 10
287.750000000
 20
498.400000000
 30
0.000000000
 11
287.750000000
 21
510.000000000
 31
0.000000000
  0
LINE
  5
A39
330
A02
100
AcDbEntity
  8
SheetCutProfiles
100
AcDbLine
 10
351.250000000
 20
498.400000000
 30
0.000000000
 11
287.750000000
 21
498.400000000
 31
0.000000000
  0
LINE
  5
A3A
330
A02
100
AcDbEntity
  8
SheetCutProfiles
100
AcDbLine
 10
351.250000000
 20
510.000000000
 30
0.000000000
 11
351.250000000
 21
498.400000000
 31
0.000000000
  0
ARC
  5
A3B
330
A02
100
AcDbEntity
  8
SheetCutProfiles
100
AcDbCircle
 10
353.250000000
 20
510.000000000
 30
0.000000000
 40
2.000000000
100
AcDbArc
 50
90.000000000
 51
180.000000000
  0
LINE
  5
A3C
330
A02
100
AcDbEntity
  8
SheetCutProfiles
100
AcDbLine
 10
353.250000000
 20
512.000000000
 30
0.000000000
 11
412.750000000
 21
512.000000000
 31
0.000000000
  0
ARC
  5
A3D
330
A02
100
AcDbEntity
  8
SheetCutProfiles
100
AcDbCircle
 10
412.750000000
 20
510.000000000
 30
0.000000000
 40
2.000000000
100
AcDbArc
 50
0.000000000
 51
90.000000000
  0
LINE
  5
A3E
330
A02
100
AcDbEntity
  8
SheetCutProfiles
100
AcDbLine
 10
414.750000000
 20
498.400000000
 30
0.000000000
 11
414.750000000
 21
510.000000000
 31
0.000000000
  0
LINE
  5
A3F
330
A02
100
AcDbEntity
  8
SheetCutProfiles
100
AcDbLine
 10
478.250000000
 20
498.400000000
 30
0.000000000
 11
414.750000000
 21
498.400000000
 31
0.000000000
  0
LINE
  5
A40
330
A02
100
AcDbEntity
  8
SheetCutProfiles
100
AcDbLine
 10
478.250000000
 20
510.000000000
 30
0.000000000
 11
478.250000000
 21
498.400000000
 31
0.000000000
  0
ARC
  5
A41
330
A02
100
AcDbEntity
  8
SheetCutProfiles
100
AcDbCircle
 10
480.250000000
 20
510.000000000
 30
0.000000000
 40
2.000000000
100
AcDbArc
 50
90.000000000
 51
180.000000000
  0
LINE
  5
A42
330
A02
100
AcDbEntity
  8
SheetCutProfiles
100
AcDbLine
 10
480.250000000
 20
512.000000000
 30
0.000000000
 11
508.000000000
 21
512.000000000
 31
0.000000000
  0
ARC
  5
A43
330
A02
100
AcDbEntity
  8
SheetCutProfiles
100
AcDbCircle
 10
508.000000000
 20
510.000000000
 30
0.000000000
 40
2.000000000
100
AcDbArc
 50
0.000000000
 51
90.000000000
  0
LINE
  5
A44
330
A02
100
AcDbEntity
  8
SheetCutProfiles
100
AcDbLine
 10
510.000000000
 20
510.000000000
 30
0.000000000
 11
510.000000000
 21
498.400000000
 31
0.000000000
  0
ARC
  5
A45
330
A02
100
AcDbEntity
  8
SheetCutProfiles
100
AcDbCircle
 10
510.000000000
 20
496.400000000
 30
0.000000000
 40
2.000000000
100
AcDbArc
 50
0.000000000
 51
90.000000000
  0
LINE
  5
A46
330
A02
100
AcDbEntity
  8
SheetCutProfiles
100
AcDbLine
 10
512.000000000
 20
469.375000000
 30
0.000000000
 11
512.000000000
 21
496.400000000
 31
0.000000000
  0
ARC
  5
A47
330
A02
100
AcDbEntity
  8
SheetCutProfiles
100
AcDbCircle
 10
510.000000000
 20
469.375000000
 30
0.000000000
 40
2.000000000
100
AcDbArc
 50
-90.000000000
 51
0.000000000
  0
LINE
  5
A48
330
A02
100
AcDbEntity
  8
SheetCutProfiles
100
AcDbLine
 10
498.400000000
 20
467.375000000
 30
0.000000000
 11
510.000000000
 21
467.375000000
 31
0.000000000
  0
LINE
  5
A49
330
A02
100
AcDbEntity
  8
SheetCutProfiles
100
AcDbLine
 10
498.400000000
 20
405.325000000
 30
0.000000000
 11
498.400000000
 21
467.375000000
 31
0.000000000
  0
LINE
  5
A4A
330
A02
100
AcDbEntity
  8
SheetCutProfiles
100
AcDbLine
 10
510.000000000
 20
405.325000000
 30
0.000000000
 11
498.400000000
 21
405.325000000
 31
0.000000000
  0
ARC
  5
A4B
330
A02
100
AcDbEntity
  8
SheetCutProfiles
100
AcDbCircle
 10
510.000000000
 20
403.325000000
 30
0.000000000
 40
2.000000000
100
AcDbArc
 50
0.000000000
 51
90.000000000
  0
LINE
  5
A4C
330
A02
100
AcDbEntity
  8
SheetCutProfiles
100
AcDbLine
 10
512.000000000
 20
345.275000000
 30
0.000000000
 11
512.000000000
 21
403.325000000
 31
0.000000000
  0
ARC
  5
A4D
330
A02
100
AcDbEntity
  8
SheetCutProfiles
100
AcDbCircle
 10
510.000000000
 20
345.275000000
 30
0.000000000
 40
2.000000000
100
AcDbArc
 50
-90.000000000
 51
0.000000000
  0
LINE
  5
A4E
330
A02
100
AcDbEntity
  8
SheetCutProfiles
100
AcDbLine
 10
498.400000000
 20
343.275000000
 30
0.000000000
 11
510.000000000
 21
343.275000000
 31
0.000000000
  0
LINE
  5
A4F
330
A02
100
AcDbEntity
  8
SheetCutProfiles
100
AcDbLine
 10
498.400000000
 20
281.225000000
 30
0.000000000
 11
498.400000000
 21
343.275000000
 31
0.000000000
  0
LINE
  5
A50
330
A02
100
AcDbEntity
  8
SheetCutProfiles
100
AcDbLine
 10
510.000000000
 20
281.225000000
 30
0.000000000
 11
498.400000000
 21
281.225000000
 31
0.000000000
  0
ARC
  5
A51
330
A02
100
AcDbEntity
  8
SheetCutProfiles
100
AcDbCircle
 10
510.000000000
 20
279.225000000
 30
0.000000000
 40
2.000000000
100
AcDbArc
 50
0.000000000
 51
90.000000000
  0
LINE
  5
A52
330
A02
100
AcDbEntity
  8
SheetCutProfiles
100
AcDbLine
 10
512.000000000
 20
221.175000000
 30
0.000000000
 11
512.000000000
 21
279.225000000
 31
0.000000000
  0
ARC
  5
A53
330
A02
100
AcDbEntity
  8
SheetCutProfiles
100
AcDbCircle
 10
510.000000000
 20
221.175000000
 30
0.000000000
 40
2.000000000
100
AcDbArc
 50
-90.000000000
 51
0.000000000
  0
LINE
  5
A54
330
A02
100
AcDbEntity
  8
SheetCutProfiles
100
AcDbLine
 10
498.400000000
 20
219.175000000
 30
0.000000000
 11
510.000000000
 21
219.175000000
 31
0.000000000
  0
LINE
  5
A55
330
A02
100
AcDbEntity
  8
SheetCutProfiles
100
AcDbLine
 10
498.400000000
 20
157.125000000
 30
0.000000000
 11
498.400000000
 21
219.175000000
 31
0.000000000
  0
LINE
  5
A56
330
A02
100
AcDbEntity
  8
SheetCutProfiles
100
AcDbLine
 10
510.000000000
 20
157.125000000
 30
0.000000000
 11
498.400000000
 21
157.125000000
 31
0.000000000
  0
ARC
  5
A57
330
A02
100
AcDbEntity
  8
SheetCutProfiles
100
AcDbCircle
 10
510.000000000
 20
155.125000000
 30
0.000000000
 40
2.000000000
100
AcDbArc
 50
0.000000000
 51
90.000000000
  0
LINE
  5
A58
330
A02
100
AcDbEntity
  8
SheetCutProfiles
100
AcDbLine
 10
512.000000000
 20
97.075000000
 30
0.000000000
 11
512.000000000
 21
155.125000000
 31
0.000000000
  0
ARC
  5
A59
330
A02
100
AcDbEntity
  8
SheetCutProfiles
100
AcDbCircle
 10
510.000000000
 20
97.075000000
 30
0.000000000
 40
2.000000000
100
AcDbArc
 50
-90.000000000
 51
0.000000000
  0
LINE
  5
A5A
330
A02
100
AcDbEntity
  8
SheetCutProfiles
100
AcDbLine
 10
498.400000000
 20
95.075000000
 30
0.000000000
 11
510.000000000
 21
95.075000000
 31
0.000000000
  0
LINE
  5
A5B
330
A02
100
AcDbEntity
  8
SheetCutProfiles
100
AcDbLine
 10
498.400000000
 20
33.025000000
 30
0.000000000
 11
498.400000000
 21
95.075000000
 31
0.000000000
  0
LINE
  5
A5C
330
A02
100
AcDbEntity
  8
SheetCutProfiles
100
AcDbLine
 10
510.000000000
 20
33.025000000
 30
0.000000000
 11
498.400000000
 21
33.025000000
 31
0.000000000
  0
ARC
  5
A5D
330
A02
100
AcDbEntity
  8
SheetCutProfiles
100
AcDbCircle
 10
510.000000000
 20
31.025000000
 30
0.000000000
 40
2.000000000
100
AcDbArc
 50
0.000000000
 51
90.000000000
  0
LINE
  5
A5E
330
A02
100
AcDbEntity
  8
SheetCutProfiles
100
AcDbLine
 10
512.000000000
 20
4.000000000
 30
0.000000000
 11
512.000000000
 21
31.025000000
 31
0.000000000
  0
ARC
  5
A5F
330
A02
100
AcDbEntity
  8
SheetCutProfiles
100
AcDbCircle
 10
510.000000000
 20
4.000000000
 30
0.000000000
 40
2.000000000
100
AcDbArc
 50
-90.000000000
 51
0.000000000
  0
LINE
  5
A60
330
A02
100
AcDbEntity
  8
SheetCutProfiles
100
AcDbLine
 10
510.000000000
 20
2.000000000
 30
0.000000000
 11
498.400000000
 21
2.000000000
 31
0.000000000
  0
ARC
  5
A61
330
A02
100
AcDbEntity
  8
SheetCutProfiles
100
AcDbCircle
 10
496.400000000
 20
2.000000000
 30
0.000000000
 40
2.000000000
100
AcDbArc
 50
-90.000000000
 51
0.000000000
  0
LINE
  5
A62
330
A02
100
AcDbEntity
  8
SheetCutProfiles
100
AcDbLine
 10
496.400000000
 20
0.000000000
 30
0.000000000
 11
470.100000000
 21
0.000000000
 31
0.000000000
  0
ARC
  5
A63
330
A02
100
AcDbEntity
  8
SheetCutProfiles
100
AcDbCircle
 10
470.100000000
 20
2.000000000
 30
0.000000000
 40
2.000000000
100
AcDbArc
 50
180.000000000
 51
-90.000000000
  0
LINE
  5
A64
330
A02
100
AcDbEntity
  8
SheetCutProfiles
100
AcDbLine
 10
468.100000000
 20
13.600000000
 30
0.000000000
 11
468.100000000
 21
2.000000000
 31
0.000000000
  0
LINE
  5
A65
330
A02
100
AcDbEntity
  8
SheetCutProfiles
100
AcDbLine
 10
407.500000000
 20
13.600000000
 30
0.000000000
 11
468.100000000
 21
13.600000000
 31
0.000000000
  0
LINE
  5
A66
330
A02
100
AcDbEntity
  8
SheetCutProfiles
100
AcDbLine
 10
407.500000000
 20
2.000000000
 30
0.000000000
 11
407.500000000
 21
13.600000000
 31
0.000000000
  0
ARC
  5
A67
330
A02
100
AcDbEntity
  8
SheetCutProfiles
100
AcDbCircle
 10
405.500000000
 20
2.000000000
 30
0.000000000
 40
2.000000000
100
AcDbArc
 50
-90.000000000
 51
0.000000000
  0
LINE
  5
A68
330
A02
100
AcDbEntity
  8
SheetCutProfiles
100
AcDbLine
 10
405.500000000
 20
0.000000000
 30
0.000000000
 11
348.900000000
 21
0.000000000
 31
0.000000000
  0
ARC
  5
A69
330
A02
100
AcDbEntity
  8
SheetCutProfiles
100
AcDbCircle
 10
348.900000000
 20
2.000000000
 30
0.000000000
 40
2.000000000
100
AcDbArc
 50
180.000000000
 51
-90.000000000
  0
LINE
  5
A6A
330
A02
100
AcDbEntity
  8
SheetCutProfiles
100
AcDbLine
 10
346.900000000
 20
13.600000000
 30
0.000000000
 11
346.900000000
 21
2.000000000
 31
0.000000000
  0
LINE
  5
A6B
330
A02
100
AcDbEntity
  8
SheetCutProfiles
100
AcDbLine
 10
286.300000000
 20
13.600000000
 30
0.000000000
 11
346.900000000
 21
13.600000000
 31
0.000000000
  0
LINE
  5
A6C
330
A02
100
AcDbEntity
  8
SheetCutProfiles
100
AcDbLine
 10
286.300000000
 20
2.000000000
 30
0.000000000
 11
286.300000000
 21
13.600000000
 31
0.000000000
  0
ARC
  5
A6D
330
A02
100
AcDbEntity
  8
SheetCutProfiles
100
AcDbCircle
 10
284.300000000
 20
2.000000000
 30
0.000000000
 40
2.000000000
100
AcDbArc
 50
-90.000000000
 51
0.000000000
  0
LINE
  5
A6E
330
A02
100
AcDbEntity
  8
SheetCutProfiles
100
AcDbLine
 10
284.300000000
 20
0.000000000
 30
0.000000000
 11
227.700000000
 21
0.000000000
 31
0.000000000
  0
ARC
  5
A6F
330
A02
100
AcDbEntity
  8
SheetCutProfiles
100
AcDbCircle
 10
227.700000000
 20
2.000000000
 30
0.000000000
 40
2.000000000
100
AcDbArc
 50
180.000000000
 51
-90.000000000
  0
LINE
  5
A70
330
A02
100
AcDbEntity
  8
SheetCutProfiles
100
AcDbLine
 10
225.700000000
 20
13.600000000
 30
0.000000000
 11
225.700000000
 21
2.000000000
 31
0.000000000
  0
LINE
  5
A71
330
A02
100
AcDbEntity
  8
SheetCutProfiles
100
AcDbLine
 10
165.100000000
 20
13.600000000
 30
0.000000000
 11
225.700000000
 21
13.600000000
 31
0.000000000
  0
LINE
  5
A72
330
A02
100
AcDbEntity
  8
SheetCutProfiles
100
AcDbLine
 10
165.100000000
 20
2.000000000
 30
0.000000000
 11
165.100000000
 21
13.600000000
 31
0.000000000
  0
ARC
  5
A73
330
A02
100
AcDbEntity
  8
SheetCutProfiles
100
AcDbCircle
 10
163.100000000
 20
2.000000000
 30
0.000000000
 40
2.000000000
100
AcDbArc
 50
-90.000000000
 51
0.000000000
  0
LINE
  5
A74
330
A02
100
AcDbEntity
  8
SheetCutProfiles
100
AcDbLine
 10
163.100000000
 20
0.000000000
 30
0.000000000
 11
106.500000000
 21
0.000000000
 31
0.000000000
  0
ARC
  5
A75
330
A02
100
AcDbEntity
  8
SheetCutProfiles
100
AcDbCircle
 10
106.500000000
 20
2.000000000
 30
0.000000000
 40
2.000000000
100
AcDbArc
 50
180.000000000
 51
-90.000000000
  0
LINE
  5
A76
330
A02
100
AcDbEntity
  8
SheetCutProfiles
100
AcDbLine
 10
104.500000000
 20
13.600000000
 30
0.000000000
 11
104.500000000
 21
2.000000000
 31
0.000000000
  0
LINE
  5
A77
330
A02
100
AcDbEntity
  8
SheetCutProfiles
100
AcDbLine
 10
43.900000000
 20
13.600000000
 30
0.000000000
 11
104.500000000
 21
13.600000000
 31
0.000000000
  0
CIRCLE
  5
A78
330
A02
100
AcDbEntity
  8
SheetCutProfiles
100
AcDbCircle
 10
426.666666667
 20
256.000000000
 30
0.000000000
 40
3.000000000
  0
CIRCLE
  5
A79
330
A02
100
AcDbEntity
  8
SheetCutProfiles
100
AcDbCircle
 10
85.333333333
 20
256.000000000
 30
0.000000000
 40
3.000000000
  0
LINE
  5
A7A
330
A02
100
AcDbEntity
  8
SheetCutProfiles
100
AcDbLine
 10
985.100000000
 20
2.000000000
 30
0.000000000
 11
985.100000000
 21
13.600000000
 31
0.000000000
  0
ARC
  5
A7B
330
A02
100
AcDbEntity
  8
SheetCutProfiles
100
AcDbCircle
 10
987.100000000
 20
2.000000000
 30
0.000000000
 40
2.000000000
100
AcDbArc
 50
180.000000000
 51
-90.000000000
  0
LINE
  5
A7C
330
A02
100
AcDbEntity
  8
SheetCutProfiles
100
AcDbLine
 10
987.100000000
 20
0.000000000
 30
0.000000000
 11
1013.400000000
 21
0.000000000
 31
0.000000000
  0
ARC
  5
A7D
330
A02
100
AcDbEntity
  8
SheetCutProfiles
100
AcDbCircle
 10
1013.400000000
 20
2.000000000
 30
0.000000000
 40
2.000000000
100
AcDbArc
 50
-90.000000000
 51
0.000000000
  0
LINE
  5
A7E
330
A02
100
AcDbEntity
  8
SheetCutProfiles
100
AcDbLine
 10
1015.400000000
 20
2.000000000
 30
0.000000000
 11
1027.000000000
 21
2.000000000
 31
0.000000000
  0
ARC
  5
A7F
330
A02
100
AcDbEntity
  8
SheetCutProfiles
100
AcDbCircle
 10
1027.000000000
 20
4.000000000
 30
0.000000000
 40
2.000000000
100
AcDbArc
 50
-90.000000000
 51
0.000000000
  0
LINE
  5
A80
330
A02
100
AcDbEntity
  8
SheetCutProfiles
100
AcDbLine
 10
1029.000000000
 20
4.000000000
 30
0.000000000
 11
1029.000000000
 21
31.025000000
 31
0.000000000
  0
ARC
  5
A81
330
A02
100
AcDbEntity
  8
SheetCutProfiles
100
AcDbCircle
 10
1027.000000000
 20
31.025000000
 30
0.000000000
 40
2.000000000
100
AcDbArc
 50
0.000000000
 51
90.000000000
  0
LINE
  5
A82
330
A02
100
AcDbEntity
  8
SheetCutProfiles
100
AcDbLine
 10
1015.400000000
 20
33.025000000
 30
0.000000000
 11
1027.000000000
 21
33.025000000
 31
0.000000000
  0
LINE
  5
A83
330
A02
100
AcDbEntity
  8
SheetCutProfiles
100
AcDbLine
 10
1015.400000000
 20
95.075000000
 30
0.000000000
 11
1015.400000000
 21
33.025000000
 31
0.000000000
  0
LINE
  5
A84
330
A02
100
AcDbEntity
  8
SheetCutProfiles
100
AcDbLine
 10
1027.000000000
 20
95.075000000
 30
0.000000000
 11
1015.400000000
 21
95.075000000
 31
0.000000000
  0
ARC
  5
A85
330
A02
100
AcDbEntity
  8
SheetCutProfiles
100
AcDbCircle
 10
1027.000000000
 20
97.075000000
 30
0.000000000
 40
2.000000000
100
AcDbArc
 50
-90.000000000
 51
0.000000000
  0
LINE
  5
A86
330
A02
100
AcDbEntity
  8
SheetCutProfiles
100
AcDbLine
 10
1029.000000000
 20
97.075000000
 30
0.000000000
 11
1029.000000000
 21
155.125000000
 31
0.000000000
  0
ARC
  5
A87
330
A02
100
AcDbEntity
  8
SheetCutProfiles
100
AcDbCircle
 10
1027.000000000
 20
155.125000000
 30
0.000000000
 40
2.000000000
100
AcDbArc
 50
0.000000000
 51
90.000000000
  0
LINE
  5
A88
330
A02
100
AcDbEntity
  8
SheetCutProfiles
100
AcDbLine
 10
1015.400000000
 20
157.125000000
 30
0.000000000
 11
1027.000000000
 21
157.125000000
 31
0.000000000
  0
LINE
  5
A89
330
A02
100
AcDbEntity
  8
SheetCutProfiles
100
AcDbLine
 10
1015.400000000
 20
219.175000000
 30
0.000000000
 11
1015.400000000
 21
157.125000000
 31
0.000000000
  0
LINE
  5
A8A
330
A02
100
AcDbEntity
  8
SheetCutProfiles
100
AcDbLine
 10
1027.000000000
 20
219.175000000
 30
0.000000000
 11
1015.400000000
 21
219.175000000
 31
0.000000000
  0
ARC
  5
A8B
330
A02
100
AcDbEntity
  8
SheetCutProfiles
100
AcDbCircle
 10
1027.000000000
 20
221.175000000
 30
0.000000000
 40
2.000000000
100
AcDbArc
 50
-90.000000000
 51
0.000000000
  0
LINE
  5
A8C
330
A02
100
AcDbEntity
  8
SheetCutProfiles
100
AcDbLine
 10
1029.000000000
 20
221.175000000
 30
0.000000000
 11
1029.000000000
 21
279.225000000
 31
0.000000000
  0
ARC
  5
A8D
330
A02
100
AcDbEntity
  8
SheetCutProfiles
100
AcDbCircle
 10
1027.000000000
 20
279.225000000
 30
0.000000000
 40
2.000000000
100
AcDbArc
 50
0.000000000
 51
90.000000000
  0
LINE
  5
A8E
330
A02
100
AcDbEntity
  8
SheetCutProfiles
100
AcDbLine
 10
1015.400000000
 20
281.225000000
 30
0.000000000
 11
1027.000000000
 21
281.225000000
 31
0.000000000
  0
LINE
  5
A8F
330
A02
100
AcDbEntity
  8
SheetCutProfiles
100
AcDbLine
 10
1015.400000000
 20
343.275000000
 30
0.000000000
 11
1015.400000000
 21
281.225000000
 31
0.000000000
  0
LINE
  5
A90
330
A02
100
AcDbEntity
  8
SheetCutProfiles
100
AcDbLine
 10
1027.000000000
 20
343.275000000
 30
0.000000000
 11
1015.400000000
 21
343.275000000
 31
0.000000000
  0
ARC
  5
A91
330
A02
100
AcDbEntity
  8
SheetCutProfiles
100
AcDbCircle
 10
1027.000000000
 20
345.275000000
 30
0.000000000
 40
2.000000000
100
AcDbArc
 50
-90.000000000
 51
0.000000000
  0
LINE
  5
A92
330
A02
100
AcDbEntity
  8
SheetCutProfiles
100
AcDbLine
 10
1029.000000000
 20
345.275000000
 30
0.000000000
 11
1029.000000000
 21
403.325000000
 31
0.000000000
  0
ARC
  5
A93
330
A02
100
AcDbEntity
  8
SheetCutProfiles
100
AcDbCircle
 10
1027.000000000
 20
403.325000000
 30
0.000000000
 40
2.000000000
100
AcDbArc
 50
0.000000000
 51
90.000000000
  0
LINE
  5
A94
330
A02
100
AcDbEntity
  8
SheetCutProfiles
100
AcDbLine
 10
1015.400000000
 20
405.325000000
 30
0.000000000
 11
1027.000000000
 21
405.325000000
 31
0.000000000
  0
LINE
  5
A95
330
A02
100
AcDbEntity
  8
SheetCutProfiles
100
AcDbLine
 10
1015.400000000
 20
467.375000000
 30
0.000000000
 11
1015.400000000
 21
405.325000000
 31
0.000000000
  0
LINE
  5
A96
330
A02
100
AcDbEntity
  8
SheetCutProfiles
100
AcDbLine
 10
1027.000000000
 20
467.375000000
 30
0.000000000
 11
1015.400000000
 21
467.375000000
 31
0.000000000
  0
ARC
  5
A97
330
A02
100
AcDbEntity
  8
SheetCutProfiles
100
AcDbCircle
 10
1027.000000000
 20
469.375000000
 30
0.000000000
 40
2.000000000
100
AcDbArc
 50
-90.000000000
 51
0.000000000
  0
LINE
  5
A98
330
A02
100
AcDbEntity
  8
SheetCutProfiles
100
AcDbLine
 10
1029.000000000
 20
469.375000000
 30
0.000000000
 11
1029.000000000
 21
496.400000000
 31
0.000000000
  0
ARC
  5
A99
330
A02
100
AcDbEntity
  8
SheetCutProfiles
100
AcDbCircle
 10
1027.000000000
 20
496.400000000
 30
0.000000000
 40
2.000000000
100
AcDbArc
 50
0.000000000
 51
90.000000000
  0
LINE
  5
A9A
330
A02
100
AcDbEntity
  8
SheetCutProfiles
100
AcDbLine
 10
1027.000000000
 20
510.000000000
 30
0.000000000
 11
1027.000000000
 21
498.400000000
 31
0.000000000
  0
ARC
  5
A9B
330
A02
100
AcDbEntity
  8
SheetCutProfiles
100
AcDbCircle
 10
1025.000000000
 20
510.000000000
 30
0.000000000
 40
2.000000000
100
AcDbArc
 50
0.000000000
 51
90.000000000
  0
LINE
  5
A9C
330
A02
100
AcDbEntity
  8
SheetCutProfiles
100
AcDbLine
 10
1025.000000000
 20
512.000000000
 30
0.000000000
 11
997.250000000
 21
512.000000000
 31
0.000000000
  0
ARC
  5
A9D
330
A02
100
AcDbEntity
  8
SheetCutProfiles
100
AcDbCircle
 10
997.250000000
 20
510.000000000
 30
0.000000000
 40
2.000000000
100
AcDbArc
 50
90.000000000
 51
180.000000000
  0
LINE
  5
A9E
330
A02
100
AcDbEntity
  8
SheetCutProfiles
100
AcDbLine
 10
995.250000000
 20
498.400000000
 30
0.000000000
 11
995.250000000
 21
510.000000000
 31
0.000000000
  0
LINE
  5
A9F
330
A02
100
AcDbEntity
  8
SheetCutProfiles
100
AcDbLine
 10
931.750000000
 20
498.400000000
 30
0.000000000
 11
995.250000000
 21
498.400000000
 31
0.000000000
  0
LINE
  5
AA0
330
A02
100
AcDbEntity
  8
SheetCutProfiles
100
AcDbLine
 10
931.750000000
 20
510.000000000
 30
0.000000000
 11
931.750000000
 21
498.400000000
 31
0.000000000
  0
ARC
  5
AA1
330
A02
100
AcDbEntity
  8
SheetCutProfiles
100
AcDbCircle
 10
929.750000000
 20
510.000000000
 30
0.000000000
 40
2.000000000
100
AcDbArc
 50
0.000000000
 51
90.000000000
  0
LINE
  5
AA2
330
A02
100
AcDbEntity
  8
SheetCutProfiles
100
AcDbLine
 10
929.750000000
 20
512.000000000
 30
0.000000000
 11
870.250000000
 21
512.000000000
 31
0.000000000
  0
ARC
  5
AA3
330
A02
100
AcDbEntity
  8
SheetCutProfiles
100
AcDbCircle
 10
870.250000000
 20
510.000000000
 30
0.000000000
 40
2.000000000
100
AcDbArc
 50
90.000000000
 51
180.000000000
  0
LINE
  5
AA4
330
A02
100
AcDbEntity
  8
SheetCutProfiles
100
AcDbLine
 10
868.250000000
 20
498.400000000
 30
0.000000000
 11
868.250000000
 21
510.000000000
 31
0.000000000
  0
LINE
  5
AA5
330
A02
100
AcDbEntity
  8
SheetCutProfiles
100
AcDbLine
 10
804.750000000
 20
498.400000000
 30
0.000000000
 11
868.250000000
 21
498.400000000
 31
0.000000000
  0
LINE
  5
AA6
330
A02
100
AcDbEntity
  8
SheetCutProfiles
100
AcDbLine
 10
804.750000000
 20
510.000000000
 30
0.000000000
 11
804.750000000
 21
498.400000000
 31
0.000000000
  0
ARC
  5
AA7
330
A02
100
AcDbEntity
  8
SheetCutProfiles
100
AcDbCircle
 10
802.750000000
 20
510.000000000
 30
0.000000000
 40
2.000000000
100
AcDbArc
 50
0.000000000
 51
90.000000000
  0
LINE
  5
AA8
330
A02
100
AcDbEntity
  8
SheetCutProfiles
100
AcDbLine
 10
802.750000000
 20
512.000000000
 30
0.000000000
 11
743.250000000
 21
512.000000000
 31
0.000000000
  0
ARC
  5
AA9
330
A02
100
AcDbEntity
  8
SheetCutProfiles
100
AcDbCircle
 10
743.250000000
 20
510.000000000
 30
0.000000000
 40
2.000000000
100
AcDbArc
 50
90.000000000
 51
180.000000000
  0
LINE
  5
AAA
330
A02
100
AcDbEntity
  8
SheetCutProfiles
100
AcDbLine
 10
741.250000000
 20
498.400000000
 30
0.000000000
 11
741.250000000
 21
510.000000000
 31
0.000000000
  0
LINE
  5
AAB
330
A02
100
AcDbEntity
  8
SheetCutProfiles
100
AcDbLine
 10
677.750000000
 20
498.400000000
 30
0.000000000
 11
741.250000000
 21
498.400000000
 31
0.000000000
  0
LINE
  5
AAC
330
A02
100
AcDbEntity
  8
SheetCutProfiles
100
AcDbLine
 10
677.750000000
 20
510.000000000
 30
0.000000000
 11
677.750000000
 21
498.400000000
 31
0.000000000
  0
ARC
  5
AAD
330
A02
100
AcDbEntity
  8
SheetCutProfiles
100
AcDbCircle
 10
675.750000000
 20
510.000000000
 30
0.000000000
 40
2.000000000
100
AcDbArc
 50
0.000000000
 51
90.000000000
  0
LINE
  5
AAE
330
A02
100
AcDbEntity
  8
SheetCutProfiles
100
AcDbLine
 10
675.750000000
 20
512.000000000
 30
0.000000000
 11
616.250000000
 21
512.000000000
 31
0.000000000
  0
ARC
  5
AAF
330
A02
100
AcDbEntity
  8
SheetCutProfiles
100
AcDbCircle
 10
616.250000000
 20
510.000000000
 30
0.000000000
 40
2.000000000
100
AcDbArc
 50
90.000000000
 51
180.000000000
  0
LINE
  5
AB0
330
A02
100
AcDbEntity
  8
SheetCutProfiles
100
AcDbLine
 10
614.250000000
 20
498.400000000
 30
0.000000000
 11
614.250000000
 21
510.000000000
 31
0.000000000
  0
LINE
  5
AB1
330
A02
100
AcDbEntity
  8
SheetCutProfiles
100
AcDbLine
 10
550.750000000
 20
498.400000000
 30
0.000000000
 11
614.250000000
 21
498.400000000
 31
0.000000000
  0
LINE
  5
AB2
330
A02
100
AcDbEntity
  8
SheetCutProfiles
100
AcDbLine
 10
550.750000000
 20
510.000000000
 30
0.000000000
 11
550.750000000
 21
498.400000000
 31
0.000000000
  0
ARC
  5
AB3
330
A02
100
AcDbEntity
  8
SheetCutProfiles
100
AcDbCircle
 10
548.750000000
 20
510.000000000
 30
0.000000000
 40
2.000000000
100
AcDbArc
 50
0.000000000
 51
90.000000000
  0
LINE
  5
AB4
330
A02
100
AcDbEntity
  8
SheetCutProfiles
100
AcDbLine
 10
548.750000000
 20
512.000000000
 30
0.000000000
 11
521.000000000
 21
512.000000000
 31
0.000000000
  0
ARC
  5
AB5
330
A02
100
AcDbEntity
  8
SheetCutProfiles
100
AcDbCircle
 10
521.000000000
 20
510.000000000
 30
0.000000000
 40
2.000000000
100
AcDbArc
 50
90.000000000
 51
180.000000000
  0
LINE
  5
AB6
330
A02
100
AcDbEntity
  8
SheetCutProfiles
100
AcDbLine
 10
519.000000000
 20
510.000000000
 30
0.000000000
 11
519.000000000
 21
498.400000000
 31
0.000000000
  0
ARC
  5
AB7
330
A02
100
AcDbEntity
  8
SheetCutProfiles
100
AcDbCircle
 10
519.000000000
 20
496.400000000
 30
0.000000000
 40
2.000000000
100
AcDbArc
 50
90.000000000
 51
180.000000000
  0
LINE
  5
AB8
330
A02
100
AcDbEntity
  8
SheetCutProfiles
100
AcDbLine
 10
517.000000000
 20
469.375000000
 30
0.000000000
 11
517.000000000
 21
496.400000000
 31
0.000000000
  0
ARC
  5
AB9
330
A02
100
AcDbEntity
  8
SheetCutProfiles
100
AcDbCircle
 10
519.000000000
 20
469.375000000
 30
0.000000000
 40
2.000000000
100
AcDbArc
 50
180.000000000
 51
-90.000000000
  0
LINE
  5
ABA
330
A02
100
AcDbEntity
  8
SheetCutProfiles
100
AcDbLine
 10
530.600000000
 20
467.375000000
 30
0.000000000
 11
519.000000000
 21
467.375000000
 31
0.000000000
  0
LINE
  5
ABB
330
A02
100
AcDbEntity
  8
SheetCutProfiles
100
AcDbLine
 10
530.600000000
 20
405.325000000
 30
0.000000000
 11
530.600000000
 21
467.375000000
 31
0.000000000
  0
LINE
  5
ABC
330
A02
100
AcDbEntity
  8
SheetCutProfiles
100
AcDbLine
 10
519.000000000
 20
405.325000000
 30
0.000000000
 11
530.600000000
 21
405.325000000
 31
0.000000000
  0
ARC
  5
ABD
330
A02
100
AcDbEntity
  8
SheetCutProfiles
100
AcDbCircle
 10
519.000000000
 20
403.325000000
 30
0.000000000
 40
2.000000000
100
AcDbArc
 50
90.000000000
 51
180.000000000
  0
LINE
  5
ABE
330
A02
100
AcDbEntity
  8
SheetCutProfiles
100
AcDbLine
 10
517.000000000
 20
345.275000000
 30
0.000000000
 11
517.000000000
 21
403.325000000
 31
0.000000000
  0
ARC
  5
ABF
330
A02
100
AcDbEntity
  8
SheetCutProfiles
100
AcDbCircle
 10
519.000000000
 20
345.275000000
 30
0.000000000
 40
2.000000000
100
AcDbArc
 50
180.000000000
 51
-90.000000000
  0
LINE
  5
AC0
330
A02
100
AcDbEntity
  8
SheetCutProfiles
100
AcDbLine
 10
530.600000000
 20
343.275000000
 30
0.000000000
 11
519.000000000
 21
343.275000000
 31
0.000000000
  0
LINE
  5
AC1
330
A02
100
AcDbEntity
  8
SheetCutProfiles
100
AcDbLine
 10
530.600000000
 20
281.225000000
 30
0.000000000
 11
530.600000000
 21
343.275000000
 31
0.000000000
  0
LINE
  5
AC2
330
A02
100
AcDbEntity
  8
SheetCutProfiles
100
AcDbLine
 10
519.000000000
 20
281.225000000
 30
0.000000000
 11
530.600000000
 21
281.225000000
 31
0.000000000
  0
ARC
  5
AC3
330
A02
100
AcDbEntity
  8
SheetCutProfiles
100
AcDbCircle
 10
519.000000000
 20
279.225000000
 30
0.000000000
 40
2.000000000
100
AcDbArc
 50
90.000000000
 51
180.000000000
  0
LINE
  5
AC4
330
A02
100
AcDbEntity
  8
SheetCutProfiles
100
AcDbLine
 10
517.000000000
 20
221.175000000
 30
0.000000000
 11
517.000000000
 21
279.225000000
 31
0.000000000
  0
ARC
  5
AC5
330
A02
100
AcDbEntity
  8
SheetCutProfiles
100
AcDbCircle
 10
519.000000000
 20
221.175000000
 30
0.000000000
 40
2.000000000
100
AcDbArc
 50
180.000000000
 51
-90.000000000
  0
LINE
  5
AC6
330
A02
100
AcDbEntity
  8
SheetCutProfiles
100
AcDbLine
 10
530.600000000
 20
219.175000000
 30
0.000000000
 11
519.000000000
 21
219.175000000
 31
0.000000000
  0
LINE
  5
AC7
330
A02
100
AcDbEntity
  8
SheetCutProfiles
100
AcDbLine
 10
530.600000000
 20
157.125000000
 30
0.000000000
 11
530.600000000
 21
219.175000000
 31
0.000000000
  0
LINE
  5
AC8
330
A02
100
AcDbEntity
  8
SheetCutProfiles
100
AcDbLine
 10
519.000000000
 20
157.125000000
 30
0.000000000
 11
530.600000000
 21
157.125000000
 31
0.000000000
  0
ARC
  5
AC9
330
A02
100
AcDbEntity
  8
SheetCutProfiles
100
AcDbCircle
 10
519.000000000
 20
155.125000000
 30
0.000000000
 40
2.000000000
100
AcDbArc
 50
90.000000000
 51
180.000000000
  0
LINE
  5
ACA
330
A02
100
AcDbEntity
  8
SheetCutProfiles
100
AcDbLine
 10
517.000000000
 20
97.075000000
 30
0.000000000
 11
517.000000000
 21
155.125000000
 31
0.000000000
  0
ARC
  5
ACB
330
A02
100
AcDbEntity
  8
SheetCutProfiles
100
AcDbCircle
 10
519.000000000
 20
97.075000000
 30
0.000000000
 40
2.000000000
100
AcDbArc
 50
180.000000000
 51
-90.000000000
  0
LINE
  5
ACC
330
A02
100
AcDbEntity
  8
SheetCutProfiles
100
AcDbLine
 10
530.600000000
 20
95.075000000
 30
0.000000000
 11
519.000000000
 21
95.075000000
 31
0.000000000
  0
LINE
  5
ACD
330
A02
100
AcDbEntity
  8
SheetCutProfiles
100
AcDbLine
 10
530.600000000
 20
33.025000000
 30
0.000000000
 11
530.600000000
 21
95.075000000
 31
0.000000000
  0
LINE
  5
ACE
330
A02
100
AcDbEntity
  8
SheetCutProfiles
100
AcDbLine
 10
519.000000000
 20
33.025000000
 30
0.000000000
 11
530.600000000
 21
33.025000000
 31
0.000000000
  0
ARC
  5
ACF
330
A02
100
AcDbEntity
  8
SheetCutProfiles
100
AcDbCircle
 10
519.000000000
 20
31.025000000
 30
0.000000000
 40
2.000000000
100
AcDbArc
 50
90.000000000
 51
180.000000000
  0
LINE
  5
AD0
330
A02
100
AcDbEntity
  8
SheetCutProfiles
100
AcDbLine
 10
517.000000000
 20
4.000000000
 30
0.000000000
 11
517.000000000
 21
31.025000000
 31
0.000000000
  0
ARC
  5
AD1
330
A02
100
AcDbEntity
  8
SheetCutProfiles
100
AcDbCircle
 10
519.000000000
 20
4.000000000
 30
0.000000000
 40
2.000000000
100
AcDbArc
 50
180.000000000
 51
-90.000000000
  0
LINE
  5
AD2
330
A02
100
AcDbEntity
  8
SheetCutProfiles
100
AcDbLine
 10
519.000000000
 20
2.000000000
 30
0.000000000
 11
530.600000000
 21
2.000000000
 31
0.000000000
  0
ARC
  5
AD3
330
A02
100
AcDbEntity
  8
SheetCutProfiles
100
AcDbCircle
 10
532.600000000
 20
2.000000000
 30
0.000000000
 40
2.000000000
100
AcDbArc
 50
180.000000000
 51
-90.000000000
  0
LINE
  5
AD4
330
A02
100
AcDbEntity
  8
SheetCutProfiles
100
AcDbLine
 10
532.600000000
 20
0.000000000
 30
0.000000000
 11
558.900000000
 21
0.000000000
 31
0.000000000
  0
ARC
  5
AD5
330
A02
100
AcDbEntity
  8
SheetCutProfiles
100
AcDbCircle
 10
558.900000000
 20
2.000000000
 30
0.000000000
 40
2.000000000
100
AcDbArc
 50
-90.000000000
 51
0.000000000
  0
LINE
  5
AD6
330
A02
100
AcDbEntity
  8
SheetCutProfiles
100
AcDbLine
 10
560.900000000
 20
13.600000000
 30
0.000000000
 11
560.900000000
 21
2.000000000
 31
0.000000000
  0
LINE
  5
AD7
330
A02
100
AcDbEntity
  8
SheetCutProfiles
100
AcDbLine
 10
621.500000000
 20
13.600000000
 30
0.000000000
 11
560.900000000
 21
13.600000000
 31
0.000000000
  0
LINE
  5
AD8
330
A02
100
AcDbEntity
  8
SheetCutProfiles
100
AcDbLine
 10
621.500000000
 20
2.000000000
 30
0.000000000
 11
621.500000000
 21
13.600000000
 31
0.000000000
  0
ARC
  5
AD9
330
A02
100
AcDbEntity
  8
SheetCutProfiles
100
AcDbCircle
 10
623.500000000
 20
2.000000000
 30
0.000000000
 40
2.000000000
100
AcDbArc
 50
180.000000000
 51
-90.000000000
  0
LINE
  5
ADA
330
A02
100
AcDbEntity
  8
SheetCutProfiles
100
AcDbLine
 10
623.500000000
 20
0.000000000
 30
0.000000000
 11
680.100000000
 21
0.000000000
 31
0.000000000
  0
ARC
  5
ADB
330
A02
100
AcDbEntity
  8
SheetCutProfiles
100
AcDbCircle
 10
680.100000000
 20
2.000000000
 30
0.000000000
 40
2.000000000
100
AcDbArc
 50
-90.000000000
 51
0.000000000
  0
LINE
  5
ADC
330
A02
100
AcDbEntity
  8
SheetCutProfiles
100
AcDbLine
 10
682.100000000
 20
13.600000000
 30
0.000000000
 11
682.100000000
 21
2.000000000
 31
0.000000000
  0
LINE
  5
ADD
330
A02
100
AcDbEntity
  8
SheetCutProfiles
100
AcDbLine
 10
742.700000000
 20
13.600000000
 30
0.000000000
 11
682.100000000
 21
13.600000000
 31
0.000000000
  0
LINE
  5
ADE
330
A02
100
AcDbEntity
  8
SheetCutProfiles
100
AcDbLine
 10
742.700000000
 20
2.000000000
 30
0.000000000
 11
742.700000000
 21
13.600000000
 31
0.000000000
  0
ARC
  5
ADF
330
A02
100
AcDbEntity
  8
SheetCutProfiles
100
AcDbCircle
 10
744.700000000
 20
2.000000000
 30
0.000000000
 40
2.000000000
100
AcDbArc
 50
180.000000000
 51
-90.000000000
  0
LINE
  5
AE0
330
A02
100
AcDbEntity
  8
SheetCutProfiles
100
AcDbLine
 10
744.700000000
 20
0.000000000
 30
0.000000000
 11
801.300000000
 21
0.000000000
 31
0.000000000
  0
ARC
  5
AE1
330
A02
100
AcDbEntity
  8
SheetCutProfiles
100
AcDbCircle
 10
801.300000000
 20
2.000000000
 30
0.000000000
 40
2.000000000
100
AcDbArc
 50
-90.000000000
 51
0.000000000
  0
LINE
  5
AE2
330
A02
100
AcDbEntity
  8
SheetCutProfiles
100
AcDbLine
 10
803.300000000
 20
13.600000000
 30
0.000000000
 11
803.300000000
 21
2.000000000
 31
0.000000000
  0
LINE
  5
AE3
330
A02
100
AcDbEntity
  8
SheetCutProfiles
100
AcDbLine
 10
863.900000000
 20
13.600000000
 30
0.000000000
 11
803.300000000
 21
13.600000000
 31
0.000000000
  0
LINE
  5
AE4
330
A02
100
AcDbEntity
  8
SheetCutProfiles
100
AcDbLine
 10
863.900000000
 20
2.000000000
 30
0.000000000
 11
863.900000000
 21
13.600000000
 31
0.000000000
  0
ARC
  5
AE5
330
A02
100
AcDbEntity
  8
SheetCutProfiles
100
AcDbCircle
 10
865.900000000
 20
2.000000000
 30
0.000000000
 40
2.000000000
100
AcDbArc
 50
180.000000000
 51
-90.000000000
  0
LINE
  5
AE6
330
A02
100
AcDbEntity
  8
SheetCutProfiles
100
AcDbLine
 10
865.900000000
 20
0.000000000
 30
0.000000000
 11
922.500000000
 21
0.000000000
 31
0.000000000
  0
ARC
  5
AE7
330
A02
100
AcDbEntity
  8
SheetCutProfiles
100
AcDbCircle
 10
922.500000000
 20
2.000000000
 30
0.000000000
 40
2.000000000
100
AcDbArc
 50
-90.000000000
 51
0.000000000
  0
LINE
  5
AE8
330
A02
100
AcDbEntity
  8
SheetCutProfiles
100
AcDbLine
 10
924.500000000
 20
13.600000000
 30
0.000000000
 11
924.500000000
 21
2.000000000
 31
0.000000000
  0
LINE
  5
AE9
330
A02
100
AcDbEntity
  8
SheetCutProfiles
100
AcDbLine
 10
985.100000000
 20
13.600000000
 30
0.000000000
 11
924.500000000
 21
13.600000000
 31
0.000000000
  0
CIRCLE
  5
AEA
330
A02
100
AcDbEntity
  8
SheetCutProfiles
100
AcDbCircle
 10
602.333333333
 20
256.000000000
 30
0.000000000
 40
3.000000000
  0
CIRCLE
  5
AEB
330
A02
100
AcDbEntity
  8
SheetCutProfiles
100
AcDbCircle
 10
943.666666667
 20
256.000000000
 30
0.000000000
 40
3.000000000
  0
LINE
  5
AEC
330
A02
100
AcDbEntity
  8
SheetCutProfiles
100
AcDbLine
 10
1081.625000000
 20
13.600000000
 30
0.000000000
 11
1081.625000000
 21
2.000000000
 31
0.000000000
  0
LINE
  5
AED
330
A02
100
AcDbEntity
  8
SheetCutProfiles
100
AcDbLine
 10
1081.625000000
 20
13.600000000
 30
0.000000000
 11
1062.575000000
 21
13.600000000
 31
0.000000000
  0
LINE
  5
AEE
330
A02
100
AcDbEntity
  8
SheetCutProfiles
100
AcDbLine
 10
1062.575000000
 20
2.000000000
 30
0.000000000
 11
1062.575000000
 21
13.600000000
 31
0.000000000
  0
ARC
  5
AEF
330
A02
100
AcDbEntity
  8
SheetCutProfiles
100
AcDbCircle
 10
1060.575000000
 20
2.000000000
 30
0.000000000
 40
2.000000000
100
AcDbArc
 50
-90.000000000
 51
0.000000000
  0
LINE
  5
AF0
330
A02
100
AcDbEntity
  8
SheetCutProfiles
100
AcDbLine
 10
1060.575000000
 20
0.000000000
 30
0.000000000
 11
1045.525000000
 21
0.000000000
 31
0.000000000
  0
ARC
  5
AF1
330
A02
100
AcDbEntity
  8
SheetCutProfiles
100
AcDbCircle
 10
1045.525000000
 20
2.000000000
 30
0.000000000
 40
2.000000000
100
AcDbArc
 50
180.000000000
 51
-90.000000000
  0
LINE
  5
AF2
330
A02
100
AcDbEntity
  8
SheetCutProfiles
100
AcDbLine
 10
1043.525000000
 20
13.600000000
 30
0.000000000
 11
1043.525000000
 21
2.000000000
 31
0.000000000
  0
LINE
  5
AF3
330
A02
100
AcDbEntity
  8
SheetCutProfiles
100
AcDbLine
 10
1043.525000000
 20
13.600000000
 30
0.000000000
 11
1034.000000000
 21
13.600000000
 31
0.000000000
  0
LINE
  5
AF4
330
A02
100
AcDbEntity
  8
SheetCutProfiles
100
AcDbLine
 10
1034.000000000
 20
752.400000000
 30
0.000000000
 11
1034.000000000
 21
13.600000000
 31
0.000000000
  0
LINE
  5
AF5
330
A02
100
AcDbEntity
  8
SheetCutProfiles
100
AcDbLine
 10
1043.525000000
 20
752.400000000
 30
0.000000000
 11
1034.000000000
 21
752.400000000
 31
0.000000000
  0
LINE
  5
AF6
330
A02
100
AcDbEntity
  8
SheetCutProfiles
100
AcDbLine
 10
1043.525000000
 20
752.400000000
 30
0.000000000
 11
1043.525000000
 21
764.000000000
 31
0.000000000
  0
ARC
  5
AF7
330
A02
100
AcDbEntity
  8
SheetCutProfiles
100
AcDbCircle
 10
1045.525000000
 20
764.000000000
 30
0.000000000
 40
2.000000000
100
AcDbArc
 50
90.000000000
 51
180.000000000
  0
LINE
  5
AF8
330
A02
100
AcDbEntity
  8
SheetCutProfiles
100
AcDbLine
 10
1060.575000000
 20
766.000000000
 30
0.000000000
 11
1045.525000000
 21
766.000000000
 31
0.000000000
  0
ARC
  5
AF9
330
A02
100
AcDbEntity
  8
SheetCutProfiles
100
AcDbCircle
 10
1060.575000000
 20
764.000000000
 30
0.000000000
 40
2.000000000
100
AcDbArc
 50
0.000000000
 51
90.000000000
  0
LINE
  5
AFA
330
A02
100
AcDbEntity
  8
SheetCutProfiles
100
AcDbLine
 10
1062.575000000
 20
764.000000000
 30
0.000000000
 11
1062.575000000
 21
752.400000000
 31
0.000000000
  0
LINE
  5
AFB
330
A02
100
AcDbEntity
  8
SheetCutProfiles
100
AcDbLine
 10
1081.625000000
 20
752.400000000
 30
0.000000000
 11
1062.575000000
 21
752.400000000
 31
0.000000000
  0
LINE
  5
AFC
330
A02
100
AcDbEntity
  8
SheetCutProfiles
100
AcDbLine
 10
1081.625000000
 20
752.400000000
 30
0.000000000
 11
1081.625000000
 21
764.000000000
 31
0.000000000
  0
ARC
  5
AFD
330
A02
100
AcDbEntity
  8
SheetCutProfiles
100
AcDbCircle
 10
1083.625000000
 20
764.000000000
 30
0.000000000
 40
2.000000000
100
AcDbArc
 50
90.000000000
 51
180.000000000
  0
LINE
  5
AFE
330
A02
100
AcDbEntity
  8
SheetCutProfiles
100
AcDbLine
 10
1098.675000000
 20
766.000000000
 30
0.000000000
 11
1083.625000000
 21
766.000000000
 31
0.000000000
  0
ARC
  5
AFF
330
A02
100
AcDbEntity
  8
SheetCutProfiles
100
AcDbCircle
 10
1098.675000000
 20
764.000000000
 30
0.000000000
 40
2.000000000
100
AcDbArc
 50
0.000000000
 51
90.000000000
  0
LINE
  5
B00
330
A02
100
AcDbEntity
  8
SheetCutProfiles
100
AcDbLine
 10
1100.675000000
 20
764.000000000
 30
0.000000000
 11
1100.675000000
 21
752.400000000
 31
0.000000000
  0
LINE
  5
B01
330
A02
100
AcDbEntity
  8
SheetCutProfiles
100
AcDbLine
 10
1119.725000000
 20
752.400000000
 30
0.000000000
 11
1100.675000000
 21
752.400000000
 31
0.000000000
  0
LINE
  5
B02
330
A02
100
AcDbEntity
  8
SheetCutProfiles
100
AcDbLine
 10
1119.725000000
 20
752.400000000
 30
0.000000000
 11
1119.725000000
 21
764.000000000
 31
0.000000000
  0
ARC
  5
B03
330
A02
100
AcDbEntity
  8
SheetCutProfiles
100
AcDbCircle
 10
1121.725000000
 20
764.000000000
 30
0.000000000
 40
2.000000000
100
AcDbArc
 50
90.000000000
 51
180.000000000
  0
LINE
  5
B04
330
A02
100
AcDbEntity
  8
SheetCutProfiles
100
AcDbLine
 10
1136.775000000
 20
766.000000000
 30
0.000000000
 11
1121.725000000
 21
766.000000000
 31
0.000000000
  0
ARC
  5
B05
330
A02
100
AcDbEntity
  8
SheetCutProfiles
100
AcDbCircle
 10
1136.775000000
 20
764.000000000
 30
0.000000000
 40
2.000000000
100
AcDbArc
 50
0.000000000
 51
90.000000000
  0
LINE
  5
B06
330
A02
100
AcDbEntity
  8
SheetCutProfiles
100
AcDbLine
 10
1138.775000000
 20
764.000000000
 30
0.000000000
 11
1138.775000000
 21
752.400000000
 31
0.000000000
  0
LINE
  5
B07
330
A02
100
AcDbEntity
  8
SheetCutProfiles
100
AcDbLine
 10
1157.825000000
 20
752.400000000
 30
0.000000000
 11
1138.775000000
 21
752.400000000
 31
0.000000000
  0
LINE
  5
B08
330
A02
100
AcDbEntity
  8
SheetCutProfiles
100
AcDbLine
 10
1157.825000000
 20
752.400000000
 30
0.000000000
 11
1157.825000000
 21
764.000000000
 31
0.000000000
  0
ARC
  5
B09
330
A02
100
AcDbEntity
  8
SheetCutProfiles
100
AcDbCircle
 10
1159.825000000
 20
764.000000000
 30
0.000000000
 40
2.000000000
100
AcDbArc
 50
90.000000000
 51
180.000000000
  0
LINE
  5
B0A
330
A02
100
AcDbEntity
  8
SheetCutProfiles
100
AcDbLine
 10
1174.875000000
 20
766.000000000
 30
0.000000000
 11
1159.825000000
 21
766.000000000
 31
0.000000000
  0
ARC
  5
B0B
330
A02
100
AcDbEntity
  8
SheetCutProfiles
100
AcDbCircle
 10
1174.875000000
 20
764.000000000
 30
0.000000000
 40
2.000000000
100
AcDbArc
 50
0.000000000
 51
90.000000000
  0
LINE
  5
B0C
330
A02
100
AcDbEntity
  8
SheetCutProfiles
100
AcDbLine
 10
1176.875000000
 20
764.000000000
 30
0.000000000
 11
1176.875000000
 21
752.400000000
 31
0.000000000
  0
LINE
  5
B0D
330
A02
100
AcDbEntity
  8
SheetCutProfiles
100
AcDbLine
 10
1186.400000000
 20
752.400000000
 30
0.000000000
 11
1176.875000000
 21
752.400000000
 31
0.000000000
  0
ARC
  5
B0E
330
A02
100
AcDbEntity
  8
SheetCutProfiles
100
AcDbCircle
 10
1186.400000000
 20
750.400000000
 30
0.000000000
 40
2.000000000
100
AcDbArc
 50
0.000000000
 51
90.000000000
  0
LINE
  5
B0F
330
A02
100
AcDbEntity
  8
SheetCutProfiles
100
AcDbLine
 10
1188.400000000
 20
708.225000000
 30
0.000000000
 11
1188.400000000
 21
750.400000000
 31
0.000000000
  0
ARC
  5
B10
330
A02
100
AcDbEntity
  8
SheetCutProfiles
100
AcDbCircle
 10
1186.400000000
 20
708.225000000
 30
0.000000000
 40
2.000000000
100
AcDbArc
 50
-90.000000000
 51
0.000000000
  0
LINE
  5
B11
330
A02
100
AcDbEntity
  8
SheetCutProfiles
100
AcDbLine
 10
1174.800000000
 20
706.225000000
 30
0.000000000
 11
1186.400000000
 21
706.225000000
 31
0.000000000
  0
LINE
  5
B12
330
A02
100
AcDbEntity
  8
SheetCutProfiles
100
AcDbLine
 10
1174.800000000
 20
706.225000000
 30
0.000000000
 11
1174.800000000
 21
613.875000000
 31
0.000000000
  0
LINE
  5
B13
330
A02
100
AcDbEntity
  8
SheetCutProfiles
100
AcDbLine
 10
1186.400000000
 20
613.875000000
 30
0.000000000
 11
1174.800000000
 21
613.875000000
 31
0.000000000
  0
ARC
  5
B14
330
A02
100
AcDbEntity
  8
SheetCutProfiles
100
AcDbCircle
 10
1186.400000000
 20
611.875000000
 30
0.000000000
 40
2.000000000
100
AcDbArc
 50
0.000000000
 51
90.000000000
  0
LINE
  5
B15
330
A02
100
AcDbEntity
  8
SheetCutProfiles
100
AcDbLine
 10
1188.400000000
 20
523.525000000
 30
0.000000000
 11
1188.400000000
 21
611.875000000
 31
0.000000000
  0
ARC
  5
B16
330
A02
100
AcDbEntity
  8
SheetCutProfiles
100
AcDbCircle
 10
1186.400000000
 20
523.525000000
 30
0.000000000
 40
2.000000000
100
AcDbArc
 50
-90.000000000
 51
0.000000000
  0
LINE
  5
B17
330
A02
100
AcDbEntity
  8
SheetCutProfiles
100
AcDbLine
 10
1174.800000000
 20
521.525000000
 30
0.000000000
 11
1186.400000000
 21
521.525000000
 31
0.000000000
  0
LINE
  5
B18
330
A02
100
AcDbEntity
  8
SheetCutProfiles
100
AcDbLine
 10
1174.800000000
 20
521.525000000
 30
0.000000000
 11
1174.800000000
 21
429.175000000
 31
0.000000000
  0
LINE
  5
B19
330
A02
100
AcDbEntity
  8
SheetCutProfiles
100
AcDbLine
 10
1186.400000000
 20
429.175000000
 30
0.000000000
 11
1174.800000000
 21
429.175000000
 31
0.000000000
  0
ARC
  5
B1A
330
A02
100
AcDbEntity
  8
SheetCutProfiles
100
AcDbCircle
 10
1186.400000000
 20
427.175000000
 30
0.000000000
 40
2.000000000
100
AcDbArc
 50
0.000000000
 51
90.000000000
  0
LINE
  5
B1B
330
A02
100
AcDbEntity
  8
SheetCutProfiles
100
AcDbLine
 10
1188.400000000
 20
338.825000000
 30
0.000000000
 11
1188.400000000
 21
427.175000000
 31
0.000000000
  0
ARC
  5
B1C
330
A02
100
AcDbEntity
  8
SheetCutProfiles
100
AcDbCircle
 10
1186.400000000
 20
338.825000000
 30
0.000000000
 40
2.000000000
100
AcDbArc
 50
-90.000000000
 51
0.000000000
  0
LINE
  5
B1D
330
A02
100
AcDbEntity
  8
SheetCutProfiles
100
AcDbLine
 10
1174.800000000
 20
336.825000000
 30
0.000000000
 11
1186.400000000
 21
336.825000000
 31
0.000000000
  0
LINE
  5
B1E
330
A02
100
AcDbEntity
  8
SheetCutProfiles
100
AcDbLine
 10
1174.800000000
 20
336.825000000
 30
0.000000000
 11
1174.800000000
 21
244.475000000
 31
0.000000000
  0
LINE
  5
B1F
330
A02
100
AcDbEntity
  8
SheetCutProfiles
100
AcDbLine
 10
1186.400000000
 20
244.475000000
 30
0.000000000
 11
1174.800000000
 21
244.475000000
 31
0.000000000
  0
ARC
  5
B20
330
A02
100
AcDbEntity
  8
SheetCutProfiles
100
AcDbCircle
 10
1186.400000000
 20
242.475000000
 30
0.000000000
 40
2.000000000
100
AcDbArc
 50
0.000000000
 51
90.000000000
  0
LINE
  5
B21
330
A02
100
AcDbEntity
  8
SheetCutProfiles
100
AcDbLine
 10
1188.400000000
 20
154.125000000
 30
0.000000000
 11
1188.400000000
 21
242.475000000
 31
0.000000000
  0
ARC
  5
B22
330
A02
100
AcDbEntity
  8
SheetCutProfiles
100
AcDbCircle
 10
1186.400000000
 20
154.125000000
 30
0.000000000
 40
2.000000000
100
AcDbArc
 50
-90.000000000
 51
0.000000000
  0
LINE
  5
B23
330
A02
100
AcDbEntity
  8
SheetCutProfiles
100
AcDbLine
 10
1174.800000000
 20
152.125000000
 30
0.000000000
 11
1186.400000000
 21
152.125000000
 31
0.000000000
  0
LINE
  5
B24
330
A02
100
AcDbEntity
  8
SheetCutProfiles
100
AcDbLine
 10
1174.800000000
 20
152.125000000
 30
0.000000000
 11
1174.800000000
 21
59.775000000
 31
0.000000000
  0
LINE
  5
B25
330
A02
100
AcDbEntity
  8
SheetCutProfiles
100
AcDbLine
 10
1186.400000000
 20
59.775000000
 30
0.000000000
 11
1174.800000000
 21
59.775000000
 31
0.000000000
  0
ARC
  5
B26
330
A02
100
AcDbEntity
  8
SheetCutProfiles
100
AcDbCircle
 10
1186.400000000
 20
57.775000000
 30
0.000000000
 40
2.000000000
100
AcDbArc
 50
0.000000000
 51
90.000000000
  0
LINE
  5
B27
330
A02
100
AcDbEntity
  8
SheetCutProfiles
100
AcDbLine
 10
1188.400000000
 20
15.600000000
 30
0.000000000
 11
1188.400000000
 21
57.775000000
 31
0.000000000
  0
ARC
  5
B28
330
A02
100
AcDbEntity
  8
SheetCutProfiles
100
AcDbCircle
 10
1186.400000000
 20
15.600000000
 30
0.000000000
 40
2.000000000
100
AcDbArc
 50
-90.000000000
 51
0.000000000
  0
LINE
  5
B29
330
A02
100
AcDbEntity
  8
SheetCutProfiles
100
AcDbLine
 10
1176.875000000
 20
13.600000000
 30
0.000000000
 11
1186.400000000
 21
13.600000000
 31
0.000000000
  0
LINE
  5
B2A
330
A02
100
AcDbEntity
  8
SheetCutProfiles
100
AcDbLine
 10
1176.875000000
 20
2.000000000
 30
0.000000000
 11
1176.875000000
 21
13.600000000
 31
0.000000000
  0
ARC
  5
B2B
330
A02
100
AcDbEntity
  8
SheetCutProfiles
100
AcDbCircle
 10
1174.875000000
 20
2.000000000
 30
0.000000000
 40
2.000000000
100
AcDbArc
 50
-90.000000000
 51
0.000000000
  0
LINE
  5
B2C
330
A02
100
AcDbEntity
  8
SheetCutProfiles
100
AcDbLine
 10
1174.875000000
 20
0.000000000
 30
0.000000000
 11
1159.825000000
 21
0.000000000
 31
0.000000000
  0
ARC
  5
B2D
330
A02
100
AcDbEntity
  8
SheetCutProfiles
100
AcDbCircle
 10
1159.825000000
 20
2.000000000
 30
0.000000000
 40
2.000000000
100
AcDbArc
 50
180.000000000
 51
-90.000000000
  0
LINE
  5
B2E
330
A02
100
AcDbEntity
  8
SheetCutProfiles
100
AcDbLine
 10
1157.825000000
 20
13.600000000
 30
0.000000000
 11
1157.825000000
 21
2.000000000
 31
0.000000000
  0
LINE
  5
B2F
330
A02
100
AcDbEntity
  8
SheetCutProfiles
100
AcDbLine
 10
1157.825000000
 20
13.600000000
 30
0.000000000
 11
1138.775000000
 21
13.600000000
 31
0.000000000
  0
LINE
  5
B30
330
A02
100
AcDbEntity
  8
SheetCutProfiles
100
AcDbLine
 10
1138.775000000
 20
2.000000000
 30
0.000000000
 11
1138.775000000
 21
13.600000000
 31
0.000000000
  0
ARC
  5
B31
330
A02
100
AcDbEntity
  8
SheetCutProfiles
100
AcDbCircle
 10
1136.775000000
 20
2.000000000
 30
0.000000000
 40
2.000000000
100
AcDbArc
 50
-90.000000000
 51
0.000000000
  0
LINE
  5
B32
330
A02
100
AcDbEntity
  8
SheetCutProfiles
100
AcDbLine
 10
1136.775000000
 20
0.000000000
 30
0.000000000
 11
1121.725000000
 21
0.000000000
 31
0.000000000
  0
ARC
  5
B33
330
A02
100
AcDbEntity
  8
SheetCutProfiles
100
AcDbCircle
 10
1121.725000000
 20
2.000000000
 30
0.000000000
 40
2.000000000
100
AcDbArc
 50
180.000000000
 51
-90.000000000
  0
LINE
  5
B34
330
A02
100
AcDbEntity
  8
SheetCutProfiles
100
AcDbLine
 10
1119.725000000
 20
13.600000000
 30
0.000000000
 11
1119.725000000
 21
2.000000000
 31
0.000000000
  0
LINE
  5
B35
330
A02
100
AcDbEntity
  8
SheetCutProfiles
100
AcDbLine
 10
1119.725000000
 20
13.600000000
 30
0.000000000
 11
1100.675000000
 21
13.600000000
 31
0.000000000
  0
LINE
  5
B36
330
A02
100
AcDbEntity
  8
SheetCutProfiles
100
AcDbLine
 10
1100.675000000
 20
2.000000000
 30
0.000000000
 11
1100.675000000
 21
13.600000000
 31
0.000000000
  0
ARC
  5
B37
330
A02
100
AcDbEntity
  8
SheetCutProfiles
100
AcDbCircle
 10
1098.675000000
 20
2.000000000
 30
0.000000000
 40
2.000000000
100
AcDbArc
 50
-90.000000000
 51
0.000000000
  0
LINE
  5
B38
330
A02
100
AcDbEntity
  8
SheetCutProfiles
100
AcDbLine
 10
1098.675000000
 20
0.000000000
 30
0.000000000
 11
1083.625000000
 21
0.000000000
 31
0.000000000
  0
ARC
  5
B39
330
A02
100
AcDbEntity
  8
SheetCutProfiles
100
AcDbCircle
 10
1083.625000000
 20
2.000000000
 30
0.000000000
 40
2.000000000
100
AcDbArc
 50
180.000000000
 51
-90.000000000
  0
CIRCLE
  5
B3A
330
A02
100
AcDbEntity
  8
SheetCutProfiles
100
AcDbCircle
 10
1111.200000000
 20
127.666666667
 30
0.000000000
 40
3.000000000
  0
CIRCLE
  5
B3B
330
A02
100
AcDbEntity
  8
SheetCutProfiles
100
AcDbCircle
 10
1111.200000000
 20
638.333333333
 30
0.000000000
 40
3.000000000
  0
LINE
  5
B3C
330
A02
100
AcDbEntity
  8
SheetCutProfiles
100
AcDbLine
 10
752.400000000
 20
623.775000000
 30
0.000000000
 11
764.000000000
 21
623.775000000
 31
0.000000000
  0
LINE
  5
B3D
330
A02
100
AcDbEntity
  8
SheetCutProfiles
100
AcDbLine
 10
752.400000000
 20
623.775000000
 30
0.000000000
 11
752.400000000
 21
642.825000000
 31
0.000000000
  0
LINE
  5
B3E
330
A02
100
AcDbEntity
  8
SheetCutProfiles
100
AcDbLine
 10
764.000000000
 20
642.825000000
 30
0.000000000
 11
752.400000000
 21
642.825000000
 31
0.000000000
  0
ARC
  5
B3F
330
A02
100
AcDbEntity
  8
SheetCutProfiles
100
AcDbCircle
 10
764.000000000
 20
644.825000000
 30
0.000000000
 40
2.000000000
100
AcDbArc
 50
-90.000000000
 51
0.000000000
  0
LINE
  5
B40
330
A02
100
AcDbEntity
  8
SheetCutProfiles
100
AcDbLine
 10
766.000000000
 20
644.825000000
 30
0.000000000
 11
766.000000000
 21
659.875000000
 31
0.000000000
  0
ARC
  5
B41
330
A02
100
AcDbEntity
  8
SheetCutProfiles
100
AcDbCircle
 10
764.000000000
 20
659.875000000
 30
0.000000000
 40
2.000000000
100
AcDbArc
 50
0.000000000
 51
90.000000000
  0
LINE
  5
B42
330
A02
100
AcDbEntity
  8
SheetCutProfiles
100
AcDbLine
 10
752.400000000
 20
661.875000000
 30
0.000000000
 11
764.000000000
 21
661.875000000
 31
0.000000000
  0
LINE
  5
B43
330
A02
100
AcDbEntity
  8
SheetCutProfiles
100
AcDbLine
 10
752.400000000
 20
661.875000000
 30
0.000000000
 11
752.400000000
 21
671.400000000
 31
0.000000000
  0
LINE
  5
B44
330
A02
100
AcDbEntity
  8
SheetCutProfiles
100
AcDbLine
 10
13.600000000
 20
671.400000000
 30
0.000000000
 11
752.400000000
 21
671.400000000
 31
0.000000000
  0
LINE
  5
B45
330
A02
100
AcDbEntity
  8
SheetCutProfiles
100
AcDbLine
 10
13.600000000
 20
661.875000000
 30
0.000000000
 11
13.600000000
 21
671.400000000
 31
0.000000000
  0
LINE
  5
B46
330
A02
100
AcDbEntity
  8
SheetCutProfiles
100
AcDbLine
 10
13.600000000
 20
661.875000000
 30
0.000000000
 11
2.000000000
 21
661.875000000
 31
0.000000000
  0
ARC
  5
B47
330
A02
100
AcDbEntity
  8
SheetCutProfiles
100
AcDbCircle
 10
2.000000000
 20
659.875000000
 30
0.000000000
 40
2.000000000
100
AcDbArc
 50
90.000000000
 51
180.000000000
  0
LINE
  5
B48
330
A02
100
AcDbEntity
  8
SheetCutProfiles
100
AcDbLine
 10
0.000000000
 20
644.825000000
 30
0.000000000
 11
0.000000000
 21
659.875000000
 31
0.000000000
  0
ARC
  5
B49
330
A02
100
AcDbEntity
  8
SheetCutProfiles
100
AcDbCircle
 10
2.000000000
 20
644.825000000
 30
0.000000000
 40
2.000000000
100
AcDbArc
 50
180.000000000
 51
-90.000000000
  0
LINE
  5
B4A
330
A02
100
AcDbEntity
  8
SheetCutProfiles
100
AcDbLine
 10
2.000000000
 20
642.825000000
 30
0.000000000
 11
13.600000000
 21
642.825000000
 31
0.000000000
  0
LINE
  5
B4B
330
A02
100
AcDbEntity
  8
SheetCutProfiles
100
AcDbLine
 10
13.600000000
 20
623.775000000
 30
0.000000000
 11
13.600000000
 21
642.825000000
 31
0.000000000
  0
LINE
  5
B4C
330
A02
100
AcDbEntity
  8
SheetCutProfiles
100
AcDbLine
 10
13.600000000
 20
623.775000000
 30
0.000000000
 11
2.000000000
 21
623.775000000
 31
0.000000000
  0
ARC
  5
B4D
330
A02
100
AcDbEntity
  8
SheetCutProfiles
100
AcDbCircle
 10
2.000000000
 20
621.775000000
 30
0.000000000
 40
2.000000000
100
AcDbArc
 50
90.000000000
 51
180.000000000
  0
LINE
  5
B4E
330
A02
100
AcDbEntity
  8
SheetCutProfiles
100
AcDbLine
 10
0.000000000
 20
606.725000000
 30
0.000000000
 11
0.000000000
 21
621.775000000
 31
0.000000000
  0
ARC
  5
B4F
330
A02
100
AcDbEntity
  8
SheetCutProfiles
100
AcDbCircle
 10
2.000000000
 20
606.725000000
 30
0.000000000
 40
2.000000000
100
AcDbArc
 50
180.000000000
 51
-90.000000000
  0
LINE
  5
B50
330
A02
100
AcDbEntity
  8
SheetCutProfiles
100
AcDbLine
 10
2.000000000
 20
604.725000000
 30
0.000000000
 11
13.600000000
 21
604.725000000
 31
0.000000000
  0
LINE
  5
B51
330
A02
100
AcDbEntity
  8
SheetCutProfiles
100
AcDbLine
 10
13.600000000
 20
585.675000000
 30
0.000000000
 11
13.600000000
 21
604.725000000
 31
0.000000000
  0
LINE
  5
B52
330
A02
100
AcDbEntity
  8
SheetCutProfiles
100
AcDbLine
 10
13.600000000
 20
585.675000000
 30
0.000000000
 11
2.000000000
 21
585.675000000
 31
0.000000000
  0
ARC
  5
B53
330
A02
100
AcDbEntity
  8
SheetCutProfiles
100
AcDbCircle
 10
2.000000000
 20
583.675000000
 30
0.000000000
 40
2.000000000
100
AcDbArc
 50
90.000000000
 51
180.000000000
  0
LINE
  5
B54
330
A02
100
AcDbEntity
  8
SheetCutProfiles
100
AcDbLine
 10
0.000000000
 20
568.625000000
 30
0.000000000
 11
0.000000000
 21
583.675000000
 31
0.000000000
  0
ARC
  5
B55
330
A02
100
AcDbEntity
  8
SheetCutProfiles
100
AcDbCircle
 10
2.000000000
 20
568.625000000
 30
0.000000000
 40
2.000000000
100
AcDbArc
 50
180.000000000
 51
-90.000000000
  0
LINE
  5
B56
330
A02
100
AcDbEntity
  8
SheetCutProfiles
100
AcDbLine
 10
2.000000000
 20
566.625000000
 30
0.000000000
 11
13.600000000
 21
566.625000000
 31
0.000000000
  0
LINE
  5
B57
330
A02
100
AcDbEntity
  8
SheetCutProfiles
100
AcDbLine
 10
13.600000000
 20
547.575000000
 30
0.000000000
 11
13.600000000
 21
566.625000000
 31
0.000000000
  0
LINE
  5
B58
330
A02
100
AcDbEntity
  8
SheetCutProfiles
100
AcDbLine
 10
13.600000000
 20
547.575000000
 30
0.000000000
 11
2.000000000
 21
547.575000000
 31
0.000000000
  0
ARC
  5
B59
330
A02
100
AcDbEntity
  8
SheetCutProfiles
100
AcDbCircle
 10
2.000000000
 20
545.575000000
 30
0.000000000
 40
2.000000000
100
AcDbArc
 50
90.000000000
 51
180.000000000
  0
LINE
  5
B5A
330
A02
100
AcDbEntity
  8
SheetCutProfiles
100
AcDbLine
 10
0.000000000
 20
530.525000000
 30
0.000000000
 11
0.000000000
 21
545.575000000
 31
0.000000000
  0
ARC
  5
B5B
330
A02
100
AcDbEntity
  8
SheetCutProfiles
100
AcDbCircle
 10
2.000000000
 20
530.525000000
 30
0.000000000
 40
2.000000000
100
AcDbArc
 50
180.000000000
 51
-90.000000000
  0
LINE
  5
B5C
330
A02
100
AcDbEntity
  8
SheetCutProfiles
100
AcDbLine
 10
2.000000000
 20
528.525000000
 30
0.000000000
 11
13.600000000
 21
528.525000000
 31
0.000000000
  0
LINE
  5
B5D
330
A02
100
AcDbEntity
  8
SheetCutProfiles
100
AcDbLine
 10
13.600000000
 20
519.000000000
 30
0.000000000
 11
13.600000000
 21
528.525000000
 31
0.000000000
  0
ARC
  5
B5E
330
A02
100
AcDbEntity
  8
SheetCutProfiles
100
AcDbCircle
 10
15.600000000
 20
519.000000000
 30
0.000000000
 40
2.000000000
100
AcDbArc
 50
180.000000000
 51
-90.000000000
  0
LINE
  5
B5F
330
A02
100
AcDbEntity
  8
SheetCutProfiles
100
AcDbLine
 10
57.775000000
 20
517.000000000
 30
0.000000000
 11
15.600000000
 21
517.000000000
 31
0.000000000
  0
ARC
  5
B60
330
A02
100
AcDbEntity
  8
SheetCutProfiles
100
AcDbCircle
 10
57.775000000
 20
519.000000000
 30
0.000000000
 40
2.000000000
100
AcDbArc
 50
-90.000000000
 51
0.000000000
  0
LINE
  5
B61
330
A02
100
AcDbEntity
  8
SheetCutProfiles
100
AcDbLine
 10
59.775000000
 20
530.600000000
 30
0.000000000
 11
59.775000000
 21
519.000000000
 31
0.000000000
  0
LINE
  5
B62
330
A02
100
AcDbEntity
  8
SheetCutProfiles
100
AcDbLine
 10
59.775000000
 20
530.600000000
 30
0.000000000
 11
152.125000000
 21
530.600000000
 31
0.000000000
  0
LINE
  5
B63
330
A02
100
AcDbEntity
  8
SheetCutProfiles
100
AcDbLine
 10
152.125000000
 20
519.000000000
 30
0.000000000
 11
152.125000000
 21
530.600000000
 31
0.000000000
  0
ARC
  5
B64
330
A02
100
AcDbEntity
  8
SheetCutProfiles
100
AcDbCircle
 10
154.125000000
 20
519.000000000
 30
0.000000000
 40
2.000000000
100
AcDbArc
 50
180.000000000
 51
-90.000000000
  0
LINE
  5
B65
330
A02
100
AcDbEntity
  8
SheetCutProfiles
100
AcDbLine
 10
242.475000000
 20
517.000000000
 30
0.000000000
 11
154.125000000
 21
517.000000000
 31
0.000000000
  0
ARC
  5
B66
330
A02
100
AcDbEntity
  8
SheetCutProfiles
100
AcDbCircle
 10
242.475000000
 20
519.000000000
 30
0.000000000
 40
2.000000000
100
AcDbArc
 50
-90.000000000
 51
0.000000000
  0
LINE
  5
B67
330
A02
100
AcDbEntity
  8
SheetCutProfiles
100
AcDbLine
 10
244.475000000
 20
530.600000000
 30
0.000000000
 11
244.475000000
 21
519.000000000
 31
0.000000000
  0
LINE
  5
B68
330
A02
100
AcDbEntity
  8
SheetCutProfiles
100
AcDbLine
 10
244.475000000
 20
530.600000000
 30
0.000000000
 11
336.825000000
 21
530.600000000
 31
0.000000000
  0
LINE
  5
B69
330
A02
100
AcDbEntity
  8
SheetCutProfiles
100
AcDbLine
 10
336.825000000
 20
519.000000000
 30
0.000000000
 11
336.825000000
 21
530.600000000
 31
0.000000000
  0
ARC
  5
B6A
330
A02
100
AcDbEntity
  8
SheetCutProfiles
100
AcDbCircle
 10
338.825000000
 20
519.000000000
 30
0.000000000
 40
2.000000000
100
AcDbArc
 50
180.000000000
 51
-90.000000000
  0
LINE
  5
B6B
330
A02
100
AcDbEntity
  8
SheetCutProfiles
100
AcDbLine
 10
427.175000000
 20
517.000000000
 30
0.000000000
 11
338.825000000
 21
517.000000000
 31
0.000000000
  0
ARC
  5
B6C
330
A02
100
AcDbEntity
  8
SheetCutProfiles
100
AcDbCircle
 10
427.175000000
 20
519.000000000
 30
0.000000000
 40
2.000000000
100
AcDbArc
 50
-90.000000000
 51
0.000000000
  0
LINE
  5
B6D
330
A02
100
AcDbEntity
  8
SheetCutProfiles
100
AcDbLine
 10
429.175000000
 20
530.600000000
 30
0.000000000
 11
429.175000000
 21
519.000000000
 31
0.000000000
  0
LINE
  5
B6E
330
A02
100
AcDbEntity
  8
SheetCutProfiles
100
AcDbLine
 10
429.175000000
 20
530.600000000
 30
0.000000000
 11
521.525000000
 21
530.600000000
 31
0.000000000
  0
LINE
  5
B6F
330
A02
100
AcDbEntity
  8
SheetCutProfiles
100
AcDbLine
 10
521.525000000
 20
519.000000000
 30
0.000000000
 11
521.525000000
 21
530.600000000
 31
0.000000000
  0
ARC
  5
B70
330
A02
100
AcDbEntity
  8
SheetCutProfiles
100
AcDbCircle
 10
523.525000000
 20
519.000000000
 30
0.000000000
 40
2.000000000
100
AcDbArc
 50
180.000000000
 51
-90.000000000
  0
LINE
  5
B71
330
A02
100
AcDbEntity
  8
SheetCutProfiles
100
AcDbLine
 10
611.875000000
 20
517.000000000
 30
0.000000000
 11
523.525000000
 21
517.000000000
 31
0.000000000
  0
ARC
  5
B72
330
A02
100
AcDbEntity
  8
SheetCutProfiles
100
AcDbCircle
 10
611.875000000
 20
519.000000000
 30
0.000000000
 40
2.000000000
100
AcDbArc
 50
-90.000000000
 51
0.000000000
  0
LINE
  5
B73
330
A02
100
AcDbEntity
  8
SheetCutProfiles
100
AcDbLine
 10
613.875000000
 20
530.600000000
 30
0.000000000
 11
613.875000000
 21
519.000000000
 31
0.000000000
  0
LINE
  5
B74
330
A02
100
AcDbEntity
  8
SheetCutProfiles
100
AcDbLine
 10
613.875000000
 20
530.600000000
 30
0.000000000
 11
706.225000000
 21
530.600000000
 31
0.000000000
  0
LINE
  5
B75
330
A02
100
AcDbEntity
  8
SheetCutProfiles
100
AcDbLine
 10
706.225000000
 20
519.000000000
 30
0.000000000
 11
706.225000000
 21
530.600000000
 31
0.000000000
  0
ARC
  5
B76
330
A02
100
AcDbEntity
  8
SheetCutProfiles
100
AcDbCircle
 10
708.225000000
 20
519.000000000
 30
0.000000000
 40
2.000000000
100
AcDbArc
 50
180.000000000
 51
-90.000000000
  0
LINE
  5
B77
330
A02
100
AcDbEntity
  8
SheetCutProfiles
100
AcDbLine
 10
750.400000000
 20
517.000000000
 30
0.000000000
 11
708.225000000
 21
517.000000000
 31
0.000000000
  0
ARC
  5
B78
330
A02
100
AcDbEntity
  8
SheetCutProfiles
100
AcDbCircle
 10
750.400000000
 20
519.000000000
 30
0.000000000
 40
2.000000000
100
AcDbArc
 50
-90.000000000
 51
0.000000000
  0
LINE
  5
B79
330
A02
100
AcDbEntity
  8
SheetCutProfiles
100
AcDbLine
 10
752.400000000
 20
528.525000000
 30
0.000000000
 11
752.400000000
 21
519.000000000
 31
0.000000000
  0
LINE
  5
B7A
330
A02
100
AcDbEntity
  8
SheetCutProfiles
100
AcDbLine
 10
764.000000000
 20
528.525000000
 30
0.000000000
 11
752.400000000
 21
528.525000000
 31
0.000000000
  0
ARC
  5
B7B
330
A02
100
AcDbEntity
  8
SheetCutProfiles
100
AcDbCircle
 10
764.000000000
 20
530.525000000
 30
0.000000000
 40
2.000000000
100
AcDbArc
 50
-90.000000000
 51
0.000000000
  0
LINE
  5
B7C
330
A02
100
AcDbEntity
  8
SheetCutProfiles
100
AcDbLine
 10
766.000000000
 20
530.525000000
 30
0.000000000
 11
766.000000000
 21
545.575000000
 31
0.000000000
  0
ARC
  5
B7D
330
A02
100
AcDbEntity
  8
SheetCutProfiles
100
AcDbCircle
 10
764.000000000
 20
545.575000000
 30
0.000000000
 40
2.000000000
100
AcDbArc
 50
0.000000000
 51
90.000000000
  0
LINE
  5
B7E
330
A02
100
AcDbEntity
  8
SheetCutProfiles
100
AcDbLine
 10
752.400000000
 20
547.575000000
 30
0.000000000
 11
764.000000000
 21
547.575000000
 31
0.000000000
  0
LINE
  5
B7F
330
A02
100
AcDbEntity
  8
SheetCutProfiles
100
AcDbLine
 10
752.400000000
 20
547.575000000
 30
0.000000000
 11
752.400000000
 21
566.625000000
 31
0.000000000
  0
LINE
  5
B80
330
A02
100
AcDbEntity
  8
SheetCutProfiles
100
AcDbLine
 10
764.000000000
 20
566.625000000
 30
0.000000000
 11
752.400000000
 21
566.625000000
 31
0.000000000
  0
ARC
  5
B81
330
A02
100
AcDbEntity
  8
SheetCutProfiles
100
AcDbCircle
 10
764.000000000
 20
568.625000000
 30
0.000000000
 40
2.000000000
100
AcDbArc
 50
-90.000000000
 51
0.000000000
  0
LINE
  5
B82
330
A02
100
AcDbEntity
  8
SheetCutProfiles
100
AcDbLine
 10
766.000000000
 20
568.625000000
 30
0.000000000
 11
766.000000000
 21
583.675000000
 31
0.000000000
  0
ARC
  5
B83
330
A02
100
AcDbEntity
  8
SheetCutProfiles
100
AcDbCircle
 10
764.000000000
 20
583.675000000
 30
0.000000000
 40
2.000000000
100
AcDbArc
 50
0.000000000
 51
90.000000000
  0
LINE
  5
B84
330
A02
100
AcDbEntity
  8
SheetCutProfiles
100
AcDbLine
 10
752.400000000
 20
585.675000000
 30
0.000000000
 11
764.000000000
 21
585.675000000
 31
0.000000000
  0
LINE
  5
B85
330
A02
100
AcDbEntity
  8
SheetCutProfiles
100
AcDbLine
 10
752.400000000
 20
585.675000000
 30
0.000000000
 11
752.400000000
 21
604.725000000
 31
0.000000000
  0
LINE
  5
B86
330
A02
100
AcDbEntity
  8
SheetCutProfiles
100
AcDbLine
 10
764.000000000
 20
604.725000000
 30
0.000000000
 11
752.400000000
 21
604.725000000
 31
0.000000000
  0
ARC
  5
B87
330
A02
100
AcDbEntity
  8
SheetCutProfiles
100
AcDbCircle
 10
764.000000000
 20
606.725000000
 30
0.000000000
 40
2.000000000
100
AcDbArc
 50
-90.000000000
 51
0.000000000
  0
LINE
  5
B88
330
A02
100
AcDbEntity
  8
SheetCutProfiles
100
AcDbLine
 10
766.000000000
 20
606.725000000
 30
0.000000000
 11
766.000000000
 21
621.775000000
 31
0.000000000
  0
ARC
  5
B89
330
A02
100
AcDbEntity
  8
SheetCutProfiles
100
AcDbCircle
 10
764.000000000
 20
621.775000000
 30
0.000000000
 40
2.000000000
100
AcDbArc
 50
0.000000000
 51
90.000000000
  0
CIRCLE
  5
B8A
330
A02
100
AcDbEntity
  8
SheetCutProfiles
100
AcDbCircle
 10
638.333333333
 20
594.200000000
 30
0.000000000
 40
3.000000000
  0
CIRCLE
  5
B8B
330
A02
100
AcDbEntity
  8
SheetCutProfiles
100
AcDbCircle
 10
127.666666667
 20
594.200000000
 30
0.000000000
 40
3.000000000
  0
LINE
  5
B8C
330
A02
100
AcDbEntity
  8
SheetCutProfiles
100
AcDbLine
 10
484.800000000
 20
757.650000000
 30
0.000000000
 11
488.600000000
 21
757.650000000
 31
0.000000000
  0
LINE
  5
B8D
330
A02
100
AcDbEntity
  8
SheetCutProfiles
100
AcDbLine
 10
484.800000000
 20
757.650000000
 30
0.000000000
 11
484.800000000
 21
745.150000000
 31
0.000000000
  0
LINE
  5
B8E
330
A02
100
AcDbEntity
  8
SheetCutProfiles
100
AcDbLine
 10
488.600000000
 20
745.150000000
 30
0.000000000
 11
484.800000000
 21
745.150000000
 31
0.000000000
  0
ARC
  5
B8F
330
A02
100
AcDbEntity
  8
SheetCutProfiles
100
AcDbCircle
 10
488.600000000
 20
743.150000000
 30
0.000000000
 40
2.000000000
100
AcDbArc
 50
0.000000000
 51
90.000000000
  0
LINE
  5
B90
330
A02
100
AcDbEntity
  8
SheetCutProfiles
100
AcDbLine
 10
490.600000000
 20
743.150000000
 30
0.000000000
 11
490.600000000
 21
734.650000000
 31
0.000000000
  0
ARC
  5
B91
330
A02
100
AcDbEntity
  8
SheetCutProfiles
100
AcDbCircle
 10
488.600000000
 20
734.650000000
 30
0.000000000
 40
2.000000000
100
AcDbArc
 50
-90.000000000
 51
0.000000000
  0
LINE
  5
B92
330
A02
100
AcDbEntity
  8
SheetCutProfiles
100
AcDbLine
 10
484.800000000
 20
732.650000000
 30
0.000000000
 11
488.600000000
 21
732.650000000
 31
0.000000000
  0
LINE
  5
B93
330
A02
100
AcDbEntity
  8
SheetCutProfiles
100
AcDbLine
 10
484.800000000
 20
732.650000000
 30
0.000000000
 11
484.800000000
 21
720.150000000
 31
0.000000000
  0
LINE
  5
B94
330
A02
100
AcDbEntity
  8
SheetCutProfiles
100
AcDbLine
 10
488.600000000
 20
720.150000000
 30
0.000000000
 11
484.800000000
 21
720.150000000
 31
0.000000000
  0
ARC
  5
B95
330
A02
100
AcDbEntity
  8
SheetCutProfiles
100
AcDbCircle
 10
488.600000000
 20
718.150000000
 30
0.000000000
 40
2.000000000
100
AcDbArc
 50
0.000000000
 51
90.000000000
  0
LINE
  5
B96
330
A02
100
AcDbEntity
  8
SheetCutProfiles
100
AcDbLine
 10
490.600000000
 20
718.150000000
 30
0.000000000
 11
490.600000000
 21
709.650000000
 31
0.000000000
  0
ARC
  5
B97
330
A02
100
AcDbEntity
  8
SheetCutProfiles
100
AcDbCircle
 10
488.600000000
 20
709.650000000
 30
0.000000000
 40
2.000000000
100
AcDbArc
 50
-90.000000000
 51
0.000000000
  0
LINE
  5
B98
330
A02
100
AcDbEntity
  8
SheetCutProfiles
100
AcDbLine
 10
484.800000000
 20
707.650000000
 30
0.000000000
 11
488.600000000
 21
707.650000000
 31
0.000000000
  0
LINE
  5
B99
330
A02
100
AcDbEntity
  8
SheetCutProfiles
100
AcDbLine
 10
484.800000000
 20
707.650000000
 30
0.000000000
 11
484.800000000
 21
695.150000000
 31
0.000000000
  0
LINE
  5
B9A
330
A02
100
AcDbEntity
  8
SheetCutProfiles
100
AcDbLine
 10
488.600000000
 20
695.150000000
 30
0.000000000
 11
484.800000000
 21
695.150000000
 31
0.000000000
  0
ARC
  5
B9B
330
A02
100
AcDbEntity
  8
SheetCutProfiles
100
AcDbCircle
 10
488.600000000
 20
693.150000000
 30
0.000000000
 40
2.000000000
100
AcDbArc
 50
0.000000000
 51
90.000000000
  0
LINE
  5
B9C
330
A02
100
AcDbEntity
  8
SheetCutProfiles
100
AcDbLine
 10
490.600000000
 20
693.150000000
 30
0.000000000
 11
490.600000000
 21
684.650000000
 31
0.000000000
  0
ARC
  5
B9D
330
A02
100
AcDbEntity
  8
SheetCutProfiles
100
AcDbCircle
 10
488.600000000
 20
684.650000000
 30
0.000000000
 40
2.000000000
100
AcDbArc
 50
-90.000000000
 51
0.000000000
  0
LINE
  5
B9E
330
A02
100
AcDbEntity
  8
SheetCutProfiles
100
AcDbLine
 10
484.800000000
 20
682.650000000
 30
0.000000000
 11
488.600000000
 21
682.650000000
 31
0.000000000
  0
LINE
  5
B9F
330
A02
100
AcDbEntity
  8
SheetCutProfiles
100
AcDbLine
 10
484.800000000
 20
682.650000000
 30
0.000000000
 11
484.800000000
 21
676.400000000
 31
0.000000000
  0
LINE
  5
BA0
330
A02
100
AcDbEntity
  8
SheetCutProfiles
100
AcDbLine
 10
484.800000000
 20
676.400000000
 30
0.000000000
 11
13.600000000
 21
676.400000000
 31
0.000000000
  0
LINE
  5
BA1
330
A02
100
AcDbEntity
  8
SheetCutProfiles
100
AcDbLine
 10
13.600000000
 20
682.650000000
 30
0.000000000
 11
13.600000000
 21
676.400000000
 31
0.000000000
  0
LINE
  5
BA2
330
A02
100
AcDbEntity
  8
SheetCutProfiles
100
AcDbLine
 10
13.600000000
 20
682.650000000
 30
0.000000000
 11
2.000000000
 21
682.650000000
 31
0.000000000
  0
ARC
  5
BA3
330
A02
100
AcDbEntity
  8
SheetCutProfiles
100
AcDbCircle
 10
2.000000000
 20
684.650000000
 30
0.000000000
 40
2.000000000
100
AcDbArc
 50
180.000000000
 51
-90.000000000
  0
LINE
  5
BA4
330
A02
100
AcDbEntity
  8
SheetCutProfiles
100
AcDbLine
 10
0.000000000
 20
693.150000000
 30
0.000000000
 11
0.000000000
 21
684.650000000
 31
0.000000000
  0
ARC
  5
BA5
330
A02
100
AcDbEntity
  8
SheetCutProfiles
100
AcDbCircle
 10
2.000000000
 20
693.150000000
 30
0.000000000
 40
2.000000000
100
AcDbArc
 50
90.000000000
 51
180.000000000
  0
LINE
  5
BA6
330
A02
100
AcDbEntity
  8
SheetCutProfiles
100
AcDbLine
 10
2.000000000
 20
695.150000000
 30
0.000000000
 11
13.600000000
 21
695.150000000
 31
0.000000000
  0
LINE
  5
BA7
330
A02
100
AcDbEntity
  8
SheetCutProfiles
100
AcDbLine
 10
13.600000000
 20
707.650000000
 30
0.000000000
 11
13.600000000
 21
695.150000000
 31
0.000000000
  0
LINE
  5
BA8
330
A02
100
AcDbEntity
  8
SheetCutProfiles
100
AcDbLine
 10
13.600000000
 20
707.650000000
 30
0.000000000
 11
2.000000000
 21
707.650000000
 31
0.000000000
  0
ARC
  5
BA9
330
A02
100
AcDbEntity
  8
SheetCutProfiles
100
AcDbCircle
 10
2.000000000
 20
709.650000000
 30
0.000000000
 40
2.000000000
100
AcDbArc
 50
180.000000000
 51
-90.000000000
  0
LINE
  5
BAA
330
A02
100
AcDbEntity
  8
SheetCutProfiles
100
AcDbLine
 10
0.000000000
 20
718.150000000
 30
0.000000000
 11
0.000000000
 21
709.650000000
 31
0.000000000
  0
ARC
  5
BAB
330
A02
100
AcDbEntity
  8
SheetCutProfiles
100
AcDbCircle
 10
2.000000000
 20
718.150000000
 30
0.000000000
 40
2.000000000
100
AcDbArc
 50
90.000000000
 51
180.000000000
  0
LINE
  5
BAC
330
A02
100
AcDbEntity
  8
SheetCutProfiles
100
AcDbLine
 10
2.000000000
 20
720.150000000
 30
0.000000000
 11
13.600000000
 21
720.150000000
 31
0.000000000
  0
LINE
  5
BAD
330
A02
100
AcDbEntity
  8
SheetCutProfiles
100
AcDbLine
 10
13.600000000
 20
732.650000000
 30
0.000000000
 11
13.600000000
 21
720.150000000
 31
0.000000000
  0
LINE
  5
BAE
330
A02
100
AcDbEntity
  8
SheetCutProfiles
100
AcDbLine
 10
13.600000000
 20
732.650000000
 30
0.000000000
 11
2.000000000
 21
732.650000000
 31
0.000000000
  0
ARC
  5
BAF
330
A02
100
AcDbEntity
  8
SheetCutProfiles
100
AcDbCircle
 10
2.000000000
 20
734.650000000
 30
0.000000000
 40
2.000000000
100
AcDbArc
 50
180.000000000
 51
-90.000000000
  0
LINE
  5
BB0
330
A02
100
AcDbEntity
  8
SheetCutProfiles
100
AcDbLine
 10
0.000000000
 20
743.150000000
 30
0.000000000
 11
0.000000000
 21
734.650000000
 31
0.000000000
  0
ARC
  5
BB1
330
A02
100
AcDbEntity
  8
SheetCutProfiles
100
AcDbCircle
 10
2.000000000
 20
743.150000000
 30
0.000000000
 40
2.000000000
100
AcDbArc
 50
90.000000000
 51
180.000000000
  0
LINE
  5
BB2
330
A02
100
AcDbEntity
  8
SheetCutProfiles
100
AcDbLine
 10
2.000000000
 20
745.150000000
 30
0.000000000
 11
13.600000000
 21
745.150000000
 31
0.000000000
  0
LINE
  5
BB3
330
A02
100
AcDbEntity
  8
SheetCutProfiles
100
AcDbLine
 10
13.600000000
 20
757.650000000
 30
0.000000000
 11
13.600000000
 21
745.150000000
 31
0.000000000
  0
LINE
  5
BB4
330
A02
100
AcDbEntity
  8
SheetCutProfiles
100
AcDbLine
 10
13.600000000
 20
757.650000000
 30
0.000000000
 11
2.000000000
 21
757.650000000
 31
0.000000000
  0
ARC
  5
BB5
330
A02
100
AcDbEntity
  8
SheetCutProfiles
100
AcDbCircle
 10
2.000000000
 20
759.650000000
 30
0.000000000
 40
2.000000000
100
AcDbArc
 50
180.000000000
 51
-90.000000000
  0
LINE
  5
BB6
330
A02
100
AcDbEntity
  8
SheetCutProfiles
100
AcDbLine
 10
0.000000000
 20
768.150000000
 30
0.000000000
 11
0.000000000
 21
759.650000000
 31
0.000000000
  0
ARC
  5
BB7
330
A02
100
AcDbEntity
  8
SheetCutProfiles
100
AcDbCircle
 10
2.000000000
 20
768.150000000
 30
0.000000000
 40
2.000000000
100
AcDbArc
 50
90.000000000
 51
180.000000000
  0
LINE
  5
BB8
330
A02
100
AcDbEntity
  8
SheetCutProfiles
100
AcDbLine
 10
2.000000000
 20
770.150000000
 30
0.000000000
 11
13.600000000
 21
770.150000000
 31
0.000000000
  0
LINE
  5
BB9
330
A02
100
AcDbEntity
  8
SheetCutProfiles
100
AcDbLine
 10
13.600000000
 20
776.400000000
 30
0.000000000
 11
13.600000000
 21
770.150000000
 31
0.000000000
  0
LINE
  5
BBA
330
A02
100
AcDbEntity
  8
SheetCutProfiles
100
AcDbLine
 10
484.800000000
 20
776.400000000
 30
0.000000000
 11
13.600000000
 21
776.400000000
 31
0.000000000
  0
LINE
  5
BBB
330
A02
100
AcDbEntity
  8
SheetCutProfiles
100
AcDbLine
 10
484.800000000
 20
776.400000000
 30
0.000000000
 11
484.800000000
 21
770.150000000
 31
0.000000000
  0
LINE
  5
BBC
330
A02
100
AcDbEntity
  8
SheetCutProfiles
100
AcDbLine
 10
488.600000000
 20
770.150000000
 30
0.000000000
 11
484.800000000
 21
770.150000000
 31
0.000000000
  0
ARC
  5
BBD
330
A02
100
AcDbEntity
  8
SheetCutProfiles
100
AcDbCircle
 10
488.600000000
 20
768.150000000
 30
0.000000000
 40
2.000000000
100
AcDbArc
 50
0.000000000
 51
90.000000000
  0
LINE
  5
BBE
330
A02
100
AcDbEntity
  8
SheetCutProfiles
100
AcDbLine
 10
490.600000000
 20
768.150000000
 30
0.000000000
 11
490.600000000
 21
759.650000000
 31
0.000000000
  0
ARC
  5
BBF
330
A02
100
AcDbEntity
  8
SheetCutProfiles
100
AcDbCircle
 10
488.600000000
 20
759.650000000
 30
0.000000000
 40
2.000000000
100
AcDbArc
 50
-90.000000000
 51
0.000000000
  0
LINE
  5
BC0
330
A02
100
AcDbEntity
  8
SheetCutProfiles
100
AcDbLine
 10
43.050000000
 20
689.100000000
 30
0.000000000
 11
101.950000000
 21
689.100000000
 31
0.000000000
  0
LINE
  5
BC1
330
A02
100
AcDbEntity
  8
SheetCutProfiles
100
AcDbLine
 10
101.950000000
 20
689.100000000
 30
0.000000000
 11
101.950000000
 21
694.900000000
 31
0.000000000
  0
LINE
  5
BC2
330
A02
100
AcDbEntity
  8
SheetCutProfiles
100
AcDbLine
 10
101.950000000
 20
694.900000000
 30
0.000000000
 11
43.050000000
 21
694.900000000
 31
0.000000000
  0
LINE
  5
BC3
330
A02
100
AcDbEntity
  8
SheetCutProfiles
100
AcDbLine
 10
43.050000000
 20
694.900000000
 30
0.000000000
 11
43.050000000
 21
689.100000000
 31
0.000000000
  0
LINE
  5
BC4
330
A02
100
AcDbEntity
  8
SheetCutProfiles
100
AcDbLine
 10
160.850000000
 20
689.100000000
 30
0.000000000
 11
219.750000000
 21
689.100000000
 31
0.000000000
  0
LINE
  5
BC5
330
A02
100
AcDbEntity
  8
SheetCutProfiles
100
AcDbLine
 10
219.750000000
 20
689.100000000
 30
0.000000000
 11
219.750000000
 21
694.900000000
 31
0.000000000
  0
LINE
  5
BC6
330
A02
100
AcDbEntity
  8
SheetCutProfiles
100
AcDbLine
 10
219.750000000
 20
694.900000000
 30
0.000000000
 11
160.850000000
 21
694.900000000
 31
0.000000000
  0
LINE
  5
BC7
330
A02
100
AcDbEntity
  8
SheetCutProfiles
100
AcDbLine
 10
160.850000000
 20
694.900000000
 30
0.000000000
 11
160.850000000
 21
689.100000000
 31
0.000000000
  0
CIRCLE
  5
BC8
330
A02
100
AcDbEntity
  8
SheetCutProfiles
100
AcDbCircle
 10
92.133333333
 20
735.900000000
 30
0.000000000
 40
3.000000000
  0
LINE
  5
BC9
330
A02
100
AcDbEntity
  8
SheetCutProfiles
100
AcDbLine
 10
278.650000000
 20
689.100000000
 30
0.000000000
 11
337.550000000
 21
689.100000000
 31
0.000000000
  0
LINE
  5
BCA
330
A02
100
AcDbEntity
  8
SheetCutProfiles
100
AcDbLine
 10
337.550000000
 20
689.100000000
 30
0.000000000
 11
337.550000000
 21
694.900000000
 31
0.000000000
  0
LINE
  5
BCB
330
A02
100
AcDbEntity
  8
SheetCutProfiles
100
AcDbLine
 10
337.550000000
 20
694.900000000
 30
0.000000000
 11
278.650000000
 21
694.900000000
 31
0.000000000
  0
LINE
  5
BCC
330
A02
100
AcDbEntity
  8
SheetCutProfiles
100
AcDbLine
 10
278.650000000
 20
694.900000000
 30
0.000000000
 11
278.650000000
 21
689.100000000
 31
0.000000000
  0
LINE
  5
BCD
330
A02
100
AcDbEntity
  8
SheetCutProfiles
100
AcDbLine
 10
396.450000000
 20
689.100000000
 30
0.000000000
 11
455.350000000
 21
689.100000000
 31
0.000000000
  0
LINE
  5
BCE
330
A02
100
AcDbEntity
  8
SheetCutProfiles
100
AcDbLine
 10
455.350000000
 20
689.100000000
 30
0.000000000
 11
455.350000000
 21
694.900000000
 31
0.000000000
  0
LINE
  5
BCF
330
A02
100
AcDbEntity
  8
SheetCutProfiles
100
AcDbLine
 10
455.350000000
 20
694.900000000
 30
0.000000000
 11
396.450000000
 21
694.900000000
 31
0.000000000
  0
LINE
  5
BD0
330
A02
100
AcDbEntity
  8
SheetCutProfiles
100
AcDbLine
 10
396.450000000
 20
694.900000000
 30
0.000000000
 11
396.450000000
 21
689.100000000
 31
0.000000000
  0
CIRCLE
  5
BD1
330
A02
100
AcDbEntity
  8
SheetCutProfiles
100
AcDbCircle
 10
406.266666667
 20
735.900000000
 30
0.000000000
 40
3.000000000
  0
LINE
  5
BD2
330
A02
100
AcDbEntity
  8
SheetCutProfiles
100
AcDbLine
 10
501.400000000
 20
757.650000000
 30
0.000000000
 11
497.600000000
 21
757.650000000
 31
0.000000000
  0
LINE
  5
BD3
330
A02
100
AcDbEntity
  8
SheetCutProfiles
100
AcDbLine
 10
501.400000000
 20
757.650000000
 30
0.000000000
 11
501.400000000
 21
745.150000000
 31
0.000000000
  0
LINE
  5
BD4
330
A02
100
AcDbEntity
  8
SheetCutProfiles
100
AcDbLine
 10
497.600000000
 20
745.150000000
 30
0.000000000
 11
501.400000000
 21
745.150000000
 31
0.000000000
  0
ARC
  5
BD5
330
A02
100
AcDbEntity
  8
SheetCutProfiles
100
AcDbCircle
 10
497.600000000
 20
743.150000000
 30
0.000000000
 40
2.000000000
100
AcDbArc
 50
90.000000000
 51
180.000000000
  0
LINE
  5
BD6
330
A02
100
AcDbEntity
  8
SheetCutProfiles
100
AcDbLine
 10
495.600000000
 20
743.150000000
 30
0.000000000
 11
495.600000000
 21
734.650000000
 31
0.000000000
  0
ARC
  5
BD7
330
A02
100
AcDbEntity
  8
SheetCutProfiles
100
AcDbCircle
 10
497.600000000
 20
734.650000000
 30
0.000000000
 40
2.000000000
100
AcDbArc
 50
180.000000000
 51
-90.000000000
  0
LINE
  5
BD8
330
A02
100
AcDbEntity
  8
SheetCutProfiles
100
AcDbLine
 10
501.400000000
 20
732.650000000
 30
0.000000000
 11
497.600000000
 21
732.650000000
 31
0.000000000
  0
LINE
  5
BD9
330
A02
100
AcDbEntity
  8
SheetCutProfiles
100
AcDbLine
 10
501.400000000
 20
732.650000000
 30
0.000000000
 11
501.400000000
 21
720.150000000
 31
0.000000000
  0
LINE
  5
BDA
330
A02
100
AcDbEntity
  8
SheetCutProfiles
100
AcDbLine
 10
497.600000000
 20
720.150000000
 30
0.000000000
 11
501.400000000
 21
720.150000000
 31
0.000000000
  0
ARC
  5
BDB
330
A02
100
AcDbEntity
  8
SheetCutProfiles
100
AcDbCircle
 10
497.600000000
 20
718.150000000
 30
0.000000000
 40
2.000000000
100
AcDbArc
 50
90.000000000
 51
180.000000000
  0
LINE
  5
BDC
330
A02
100
AcDbEntity
  8
SheetCutProfiles
100
AcDbLine
 10
495.600000000
 20
718.150000000
 30
0.000000000
 11
495.600000000
 21
709.650000000
 31
0.000000000
  0
ARC
  5
BDD
330
A02
100
AcDbEntity
  8
SheetCutProfiles
100
AcDbCircle
 10
497.600000000
 20
709.650000000
 30
0.000000000
 40
2.000000000
100
AcDbArc
 50
180.000000000
 51
-90.000000000
  0
LINE
  5
BDE
330
A02
100
AcDbEntity
  8
SheetCutProfiles
100
AcDbLine
 10
501.400000000
 20
707.650000000
 30
0.000000000
 11
497.600000000
 21
707.650000000
 31
0.000000000
  0
LINE
  5
BDF
330
A02
100
AcDbEntity
  8
SheetCutProfiles
100
AcDbLine
 10
501.400000000
 20
707.650000000
 30
0.000000000
 11
501.400000000
 21
695.150000000
 31
0.000000000
  0
LINE
  5
BE0
330
A02
100
AcDbEntity
  8
SheetCutProfiles
100
AcDbLine
 10
497.600000000
 20
695.150000000
 30
0.000000000
 11
501.400000000
 21
695.150000000
 31
0.000000000
  0
ARC
  5
BE1
330
A02
100
AcDbEntity
  8
SheetCutProfiles
100
AcDbCircle
 10
497.600000000
 20
693.150000000
 30
0.000000000
 40
2.000000000
100
AcDbArc
 50
90.000000000
 51
180.000000000
  0
LINE
  5
BE2
330
A02
100
AcDbEntity
  8
SheetCutProfiles
100
AcDbLine
 10
495.600000000
 20
693.150000000
 30
0.000000000
 11
495.600000000
 21
684.650000000
 31
0.000000000
  0
ARC
  5
BE3
330
A02
100
AcDbEntity
  8
SheetCutProfiles
100
AcDbCircle
 10
497.600000000
 20
684.650000000
 30
0.000000000
 40
2.000000000
100
AcDbArc
 50
180.000000000
 51
-90.000000000
  0
LINE
  5
BE4
330
A02
100
AcDbEntity
  8
SheetCutProfiles
100
AcDbLine
 10
501.400000000
 20
682.650000000
 30
0.000000000
 11
497.600000000
 21
682.650000000
 31
0.000000000
  0
LINE
  5
BE5
330
A02
100
AcDbEntity
  8
SheetCutProfiles
100
AcDbLine
 10
501.400000000
 20
682.650000000
 30
0.000000000
 11
501.400000000
 21
676.400000000
 31
0.000000000
  0
LINE
  5
BE6
330
A02
100
AcDbEntity
  8
SheetCutProfiles
100
AcDbLine
 10
501.400000000
 20
676.400000000
 30
0.000000000
 11
972.600000000
 21
676.400000000
 31
0.000000000
  0
LINE
  5
BE7
330
A02
100
AcDbEntity
  8
SheetCutProfiles
100
AcDbLine
 10
972.600000000
 20
682.650000000
 30
0.000000000
 11
972.600000000
 21
676.400000000
 31
0.000000000
  0
LINE
  5
BE8
330
A02
100
AcDbEntity
  8
SheetCutProfiles
100
AcDbLine
 10
972.600000000
 20
682.650000000
 30
0.000000000
 11
984.200000000
 21
682.650000000
 31
0.000000000
  0
ARC
  5
BE9
330
A02
100
AcDbEntity
  8
SheetCutProfiles
100
AcDbCircle
 10
984.200000000
 20
684.650000000
 30
0.000000000
 40
2.000000000
100
AcDbArc
 50
-90.000000000
 51
0.000000000
  0
LINE
  5
BEA
330
A02
100
AcDbEntity
  8
SheetCutProfiles
100
AcDbLine
 10
986.200000000
 20
693.150000000
 30
0.000000000
 11
986.200000000
 21
684.650000000
 31
0.000000000
  0
ARC
  5
BEB
330
A02
100
AcDbEntity
  8
SheetCutProfiles
100
AcDbCircle
 10
984.200000000
 20
693.150000000
 30
0.000000000
 40
2.000000000
100
AcDbArc
 50
0.000000000
 51
90.000000000
  0
LINE
  5
BEC
330
A02
100
AcDbEntity
  8
SheetCutProfiles
100
AcDbLine
 10
984.200000000
 20
695.150000000
 30
0.000000000
 11
972.600000000
 21
695.150000000
 31
0.000000000
  0
LINE
  5
BED
330
A02
100
AcDbEntity
  8
SheetCutProfiles
100
AcDbLine
 10
972.600000000
 20
707.650000000
 30
0.000000000
 11
972.600000000
 21
695.150000000
 31
0.000000000
  0
LINE
  5
BEE
330
A02
100
AcDbEntity
  8
SheetCutProfiles
100
AcDbLine
 10
972.600000000
 20
707.650000000
 30
0.000000000
 11
984.200000000
 21
707.650000000
 31
0.000000000
  0
ARC
  5
BEF
330
A02
100
AcDbEntity
  8
SheetCutProfiles
100
AcDbCircle
 10
984.200000000
 20
709.650000000
 30
0.000000000
 40
2.000000000
100
AcDbArc
 50
-90.000000000
 51
0.000000000
  0
LINE
  5
BF0
330
A02
100
AcDbEntity
  8
SheetCutProfiles
100
AcDbLine
 10
986.200000000
 20
718.150000000
 30
0.000000000
 11
986.200000000
 21
709.650000000
 31
0.000000000
  0
ARC
  5
BF1
330
A02
100
AcDbEntity
  8
SheetCutProfiles
100
AcDbCircle
 10
984.200000000
 20
718.150000000
 30
0.000000000
 40
2.000000000
100
AcDbArc
 50
0.000000000
 51
90.000000000
  0
LINE
  5
BF2
330
A02
100
AcDbEntity
  8
SheetCutProfiles
100
AcDbLine
 10
984.200000000
 20
720.150000000
 30
0.000000000
 11
972.600000000
 21
720.150000000
 31
0.000000000
  0
LINE
  5
BF3
330
A02
100
AcDbEntity
  8
SheetCutProfiles
100
AcDbLine
 10
972.600000000
 20
732.650000000
 30
0.000000000
 11
972.600000000
 21
720.150000000
 31
0.000000000
  0
LINE
  5
BF4
330
A02
100
AcDbEntity
  8
SheetCutProfiles
100
AcDbLine
 10
972.600000000
 20
732.650000000
 30
0.000000000
 11
984.200000000
 21
732.650000000
 31
0.000000000
  0
ARC
  5
BF5
330
A02
100
AcDbEntity
  8
SheetCutProfiles
100
AcDbCircle
 10
984.200000000
 20
734.650000000
 30
0.000000000
 40
2.000000000
100
AcDbArc
 50
-90.000000000
 51
0.000000000
  0
LINE
  5
BF6
330
A02
100
AcDbEntity
  8
SheetCutProfiles
100
AcDbLine
 10
986.200000000
 20
743.150000000
 30
0.000000000
 11
986.200000000
 21
734.650000000
 31
0.000000000
  0
ARC
  5
BF7
330
A02
100
AcDbEntity
  8
SheetCutProfiles
100
AcDbCircle
 10
984.200000000
 20
743.150000000
 30
0.000000000
 40
2.000000000
100
AcDbArc
 50
0.000000000
 51
90.000000000
  0
LINE
  5
BF8
330
A02
100
AcDbEntity
  8
SheetCutProfiles
100
AcDbLine
 10
984.200000000
 20
745.150000000
 30
0.000000000
 11
972.600000000
 21
745.150000000
 31
0.000000000
  0
LINE
  5
BF9
330
A02
100
AcDbEntity
  8
SheetCutProfiles
100
AcDbLine
 10
972.600000000
 20
757.650000000
 30
0.000000000
 11
972.600000000
 21
745.150000000
 31
0.000000000
  0
LINE
  5
BFA
330
A02
100
AcDbEntity
  8
SheetCutProfiles
100
AcDbLine
 10
972.600000000
 20
757.650000000
 30
0.000000000
 11
984.200000000
 21
757.650000000
 31
0.000000000
  0
ARC
  5
BFB
330
A02
100
AcDbEntity
  8
SheetCutProfiles
100
AcDbCircle
 10
984.200000000
 20
759.650000000
 30
0.000000000
 40
2.000000000
100
AcDbArc
 50
-90.000000000
 51
0.000000000
  0
LINE
  5
BFC
330
A02
100
AcDbEntity
  8
SheetCutProfiles
100
AcDbLine
 10
986.200000000
 20
768.150000000
 30
0.000000000
 11
986.200000000
 21
759.650000000
 31
0.000000000
  0
ARC
  5
BFD
330
A02
100
AcDbEntity
  8
SheetCutProfiles
100
AcDbCircle
 10
984.200000000
 20
768.150000000
 30
0.000000000
 40
2.000000000
100
AcDbArc
 50
0.000000000
 51
90.000000000
  0
LINE
  5
BFE
330
A02
100
AcDbEntity
  8
SheetCutProfiles
100
AcDbLine
 10
984.200000000
 20
770.150000000
 30
0.000000000
 11
972.600000000
 21
770.150000000
 31
0.000000000
  0
LINE
  5
BFF
330
A02
100
AcDbEntity
  8
SheetCutProfiles
100
AcDbLine
 10
972.600000000
 20
776.400000000
 30
0.000000000
 11
972.600000000
 21
770.150000000
 31
0.000000000
  0
LINE
  5
C00
330
A02
100
AcDbEntity
  8
SheetCutProfiles
100
AcDbLine
 10
501.400000000
 20
776.400000000
 30
0.000000000
 11
972.600000000
 21
776.400000000
 31
0.000000000
  0
LINE
  5
C01
330
A02
100
AcDbEntity
  8
SheetCutProfiles
100
AcDbLine
 10
501.400000000
 20
776.400000000
 30
0.000000000
 11
501.400000000
 21
770.150000000
 31
0.000000000
  0
LINE
  5
C02
330
A02
100
AcDbEntity
  8
SheetCutProfiles
100
AcDbLine
 10
497.600000000
 20
770.150000000
 30
0.000000000
 11
501.400000000
 21
770.150000000
 31
0.000000000
  0
ARC
  5
C03
330
A02
100
AcDbEntity
  8
SheetCutProfiles
100
AcDbCircle
 10
497.600000000
 20
768.150000000
 30
0.000000000
 40
2.000000000
100
AcDbArc
 50
90.000000000
 51
180.000000000
  0
LINE
  5
C04
330
A02
100
AcDbEntity
  8
SheetCutProfiles
100
AcDbLine
 10
495.600000000
 20
768.150000000
 30
0.000000000
 11
495.600000000
 21
759.650000000
 31
0.000000000
  0
ARC
  5
C05
330
A02
100
AcDbEntity
  8
SheetCutProfiles
100
AcDbCircle
 10
497.600000000
 20
759.650000000
 30
0.000000000
 40
2.000000000
100
AcDbArc
 50
180.000000000
 51
-90.000000000
  0
LINE
  5
C06
330
A02
100
AcDbEntity
  8
SheetCutProfiles
100
AcDbLine
 10
943.150000000
 20
689.100000000
 30
0.000000000
 11
884.250000000
 21
689.100000000
 31
0.000000000
  0
LINE
  5
C07
330
A02
100
AcDbEntity
  8
SheetCutProfiles
100
AcDbLine
 10
884.250000000
 20
689.100000000
 30
0.000000000
 11
884.250000000
 21
694.900000000
 31
0.000000000
  0
LINE
  5
C08
330
A02
100
AcDbEntity
  8
SheetCutProfiles
100
AcDbLine
 10
884.250000000
 20
694.900000000
 30
0.000000000
 11
943.150000000
 21
694.900000000
 31
0.000000000
  0
LINE
  5
C09
330
A02
100
AcDbEntity
  8
SheetCutProfiles
100
AcDbLine
 10
943.150000000
 20
694.900000000
 30
0.000000000
 11
943.150000000
 21
689.100000000
 31
0.000000000
  0
LINE
  5
C0A
330
A02
100
AcDbEntity
  8
SheetCutProfiles
100
AcDbLine
 10
825.350000000
 20
689.100000000
 30
0.000000000
 11
766.450000000
 21
689.100000000
 31
0.000000000
  0
LINE
  5
C0B
330
A02
100
AcDbEntity
  8
SheetCutProfiles
100
AcDbLine
 10
766.450000000
 20
689.100000000
 30
0.000000000
 11
766.450000000
 21
694.900000000
 31
0.000000000
  0
LINE
  5
C0C
330
A02
100
AcDbEntity
  8
SheetCutProfiles
100
AcDbLine
 10
766.450000000
 20
694.900000000
 30
0.000000000
 11
825.350000000
 21
694.900000000
 31
0.000000000
  0
LINE
  5
C0D
330
A02
100
AcDbEntity
  8
SheetCutProfiles
100
AcDbLine
 10
825.350000000
 20
694.900000000
 30
0.000000000
 11
825.350000000
 21
689.100000000
 31
0.000000000
  0
CIRCLE
  5
C0E
330
A02
100
AcDbEntity
  8
SheetCutProfiles
100
AcDbCircle
 10
894.066666667
 20
735.900000000
 30
0.000000000
 40
3.000000000
  0
LINE
  5
C0F
330
A02
100
AcDbEntity
  8
SheetCutProfiles
100
AcDbLine
 10
707.550000000
 20
689.100000000
 30
0.000000000
 11
648.650000000
 21
689.100000000
 31
0.000000000
  0
LINE
  5
C10
330
A02
100
AcDbEntity
  8
SheetCutProfiles
100
AcDbLine
 10
648.650000000
 20
689.100000000
 30
0.000000000
 11
648.650000000
 21
694.900000000
 31
0.000000000
  0
LINE
  5
C11
330
A02
100
AcDbEntity
  8
SheetCutProfiles
100
AcDbLine
 10
648.650000000
 20
694.900000000
 30
0.000000000
 11
707.550000000
 21
694.900000000
 31
0.000000000
  0
LINE
  5
C12
330
A02
100
AcDbEntity
  8
SheetCutProfiles
100
AcDbLine
 10
707.550000000
 20
694.900000000
 30
0.000000000
 11
707.550000000
 21
689.100000000
 31
0.000000000
  0
LINE
  5
C13
330
A02
100
AcDbEntity
  8
SheetCutProfiles
100
AcDbLine
 10
589.750000000
 20
689.100000000
 30
0.000000000
 11
530.850000000
 21
689.100000000
 31
0.000000000
  0
LINE
  5
C14
330
A02
100
AcDbEntity
  8
SheetCutProfiles
100
AcDbLine
 10
530.850000000
 20
689.100000000
 30
0.000000000
 11
530.850000000
 21
694.900000000
 31
0.000000000
  0
LINE
  5
C15
330
A02
100
AcDbEntity
  8
SheetCutProfiles
100
AcDbLine
 10
530.850000000
 20
694.900000000
 30
0.000000000
 11
589.750000000
 21
694.900000000
 31
0.000000000
  0
LINE
  5
C16
330
A02
100
AcDbEntity
  8
SheetCutProfiles
100
AcDbLine
 10
589.750000000
 20
694.900000000
 30
0.000000000
 11
589.750000000
 21
689.100000000
 31
0.000000000
  0
CIRCLE
  5
C17
330
A02
100
AcDbEntity
  8
SheetCutProfiles
100
AcDbCircle
 10
579.933333333
 20
735.900000000
 30
0.000000000
 40
3.000000000
  0
ENDSEC
  0
SECTION
  2
OBJECTS
  0
DICTIONARY
  5
F000
330
0
100
AcDbDictionary
  3
ACAD_GROUP
350
F001
  0
DICTIONARY
  5
F001
330
F000
100
AcDbDictionary
  0
ENDSEC
  0
EOF