999
FreeCAD v1.1 20260725 (Git shallow)
  0
SECTION
  2
HEADER
  9
$ACADVER
  1
AC1014
  9
$ACADMAINTVER
 70
     9
  9
$DWGCODEPAGE
  3
ANSI_1252
  9
$TEXTSTYLE
  7
STANDARD
  9
$DIMSTYLE
  2
STANDARD
  9
$DIMTXSTY
  7
STANDARD
  9
$CMLSTYLE
  2
STANDARD
  9
$LUNITS
 70
2
  9
$INSUNITS
 70
4
  9
$PEXTMAX
 10
50
 20
50
 30
50
  9
$PEXTMIN
 10
0
 20
0
 30
0
  9
$HANDSEED
  5
FFFF
  0
ENDSEC
  0
SECTION
  2
CLASSES
  0
CLASS
  1
ACDBDICTIONARYWDFLT
  2
AcDbDictionaryWithDefault
  3
ObjectDBX Classes
 90
        0
280
     0
281
     0
  0
CLASS
  1
XRECORD
  2
AcDbXrecord
  3
ObjectDBX Classes
 90
        0
280
     0
281
     0
  0
CLASS
  1
LWPOLYLINE
  2
AcDbPolyline
  3
ObjectDBX Classes
 90
        0
280
     0
281
     1
  0
ENDSEC
  0
SECTION
  2
TABLES
  0
TABLE
  2
VPORT
  5
20
330
0
100
AcDbSymbolTable
 70
     1
  0
VPORT
  5
21
330
20
100
AcDbSymbolTableRecord
100
AcDbViewportTableRecord
  2
*ACTIVE
 70
     0
  0
ENDTAB
  0
TABLE
  2
LTYPE
  5
22
330
0
100
AcDbSymbolTable
 70
     1
  0
LTYPE
  5
23
330
21
100
AcDbSymbolTableRecord
100
AcDbLinetypeTableRecord
  2
BYBLOCK
 70
     0
  3

 72
    65
 73
     0
 40
0.0
  0
LTYPE
  5
24
330
21
100
AcDbSymbolTableRecord
100
AcDbLinetypeTableRecord
  2
BYLAYER
 70
     0
  3

 72
    65
 73
     0
 40
0.0
  0
LTYPE
  5
25
330
21
100
AcDbSymbolTableRecord
100
AcDbLinetypeTableRecord
  2
CONTINUOUS
 70
     0
  3
Solid line
 72
    65
 73
     0
 40
0.0
  0
ENDTAB
  0
TABLE
  2
LAYER
  5
C6A
330
0
100
AcDbSymbolTable
 70
3
  0
LAYER
  5
C6B
330
C6A
100
AcDbSymbolTableRecord
100
AcDbLayerTableRecord
  2
0
 70
   0
 62
   7
  6
CONTINUOUS
  0
LAYER
  5
C6C
330
C6A
100
AcDbSymbolTableRecord
100
AcDbLayerTableRecord
  2
none
 70
    0
 62
    7
  6
CONTINUOUS
  0
LAYER
  5
C6D
330
C6A
100
AcDbSymbolTableRecord
100
AcDbLayerTableRecord
  2
SheetCutProfiles
 70
    0
 62
    7
  6
CONTINUOUS
  0
ENDTAB
  0
TABLE
  2
STYLE
  5
70
330
0
100
AcDbSymbolTable
 70
     2
  0
STYLE
  5
71
330
70
100
AcDbSymbolTableRecord
100
AcDbTextStyleTableRecord
  2
STANDARD
 70
     0
 40
0.0
 41
1.0
 50
0.0
 71
     0
 42
2.5
  3
arial.ttf
  4

  0
STYLE
  5
72
330
70
100
AcDbSymbolTableRecord
100
AcDbTextStyleTableRecord
  2
ANNOTATIVE
 70
     0
 40
0.0
 41
1.0
 50
0.0
 71
     0
 42
2.5
  3
arial.ttf
  4

  0
ENDTAB
  0
TABLE
  2
VIEW
  5
73
330
0
100
AcDbSymbolTable
 70
     0
  0
ENDTAB
  0
TABLE
  2
UCS
  5
74
330
0
100
AcDbSymbolTable
 70
     0
  0
ENDTAB
  0
TABLE
  2
APPID
  5
75
330
0
100
AcDbSymbolTable
 70
     2
  0
APPID
  5
76
330
75
100
AcDbSymbolTableRecord
100
AcDbRegAppTableRecord
  2
ACAD
 70
     0
  0
APPID
  5
77
330
75
100
AcDbSymbolTableRecord
100
AcDbRegAppTableRecord
  2
ACADANNOTATIVE
 70
     0
  0
ENDTAB
  0
TABLE
  2
DIMSTYLE
  5
78
330
0
100
AcDbSymbolTable
 70
     2
  0
DIMSTYLE
105
79
330
78
100
AcDbSymbolTableRecord
100
AcDbDimStyleTableRecord
  2
STANDARD
 70
     0
  3

  4

  5

  6

  7

 40
0.0
 41
2.5
 42
0.625
 43
3.75
 44
1.25
 45
0.0
 46
0.0
 47
0.0
 48
0.0
140
2.5
141
2.5
142
0.0
143
0.03937007874016
144
1.0
145
0.0
146
1.0
147
0.625
 71
     0
 72
     0
 73
     0
 74
     0
 75
     0
 76
     0
 77
     1
 78
     8
170
     0
171
     3
172
     1
173
     0
174
     0
175
     0
176
     0
177
     0
178
     0
270
     2
271
     2
272
     2
273
     2
274
     3
340
71
275
     0
280
     0
281
     0
282
     0
283
     0
284
     8
285
     0
286
     0
287
     3
288
     0
  0
ENDTAB
  0
TABLE
  2
BLOCK_RECORD
  5
A01
330
0
100
AcDbSymbolTable
  70
5
  0
BLOCK_RECORD
  5
A02
330
A01
100
AcDbSymbolTableRecord
100
AcDbBlockTableRecord
  2
*MODEL_SPACE
  0
BLOCK_RECORD
  5
A03
330
A01
100
AcDbSymbolTableRecord
100
AcDbBlockTableRecord
  2
*PAPER_SPACE
  0
ENDTAB
  0
ENDSEC
  0
SECTION
  2
BLOCKS
  0
BLOCK
  5
A04
330
A02
100
AcDbEntity
  8
0
100
AcDbBlockBegin
  2
*MODEL_SPACE
 70
   0
 10
0
 20
0
 30
0
  3
*MODEL_SPACE
  1
 
  0
ENDBLK
  5
A05
330
A02
100
AcDbEntity
  8
0
100
AcDbBlockEnd
  0
BLOCK
  5
A06
330
A03
100
AcDbEntity
 67
1
  8
0
100
AcDbBlockBegin
  2
*PAPER_SPACE
 70
   0
 10
0
 20
0
 30
0
  3
*PAPER_SPACE
  1
 
  0
ENDBLK
  5
A07
330
A03
100
AcDbEntity
 67
    1
  8
0
100
AcDbBlockEnd
  0
ENDSEC
  0
SECTION
  2
ENTITIES
  0
LINE
  5
A08
330
A02
100
AcDbEntity
  8
SheetCutProfiles
100
AcDbLine
 10
325.225000000
 20
510.000000000
 30
0.000000000
 11
325.225000000
 21
498.400000000
 31
0.000000000
  0
ARC
  5
A09
330
A02
100
AcDbEntity
  8
SheetCutProfiles
100
AcDbCircle
 10
327.225000000
 20
510.000000000
 30
0.000000000
 40
2.000000000
100
AcDbArc
 50
90.000000000
 51
180.000000000
  0
LINE
  5
A0A
330
A02
100
AcDbEntity
  8
SheetCutProfiles
100
AcDbLine
 10
327.225000000
 20
512.000000000
 30
0.000000000
 11
344.000000000
 21
512.000000000
 31
0.000000000
  0
ARC
  5
A0B
330
A02
100
AcDbEntity
  8
SheetCutProfiles
100
AcDbCircle
 10
344.000000000
 20
510.000000000
 30
0.000000000
 40
2.000000000
100
AcDbArc
 50
0.000000000
 51
90.000000000
  0
LINE
  5
A0C
330
A02
100
AcDbEntity
  8
SheetCutProfiles
100
AcDbLine
 10
346.000000000
 20
510.000000000
 30
0.000000000
 11
357.600000000
 21
510.000000000
 31
0.000000000
  0
ARC
  5
A0D
330
A02
100
AcDbEntity
  8
SheetCutProfiles
100
AcDbCircle
 10
357.600000000
 20
508.000000000
 30
0.000000000
 40
2.000000000
100
AcDbArc
 50
0.000000000
 51
90.000000000
  0
LINE
  5
A0E
330
A02
100
AcDbEntity
  8
SheetCutProfiles
100
AcDbLine
 10
359.600000000
 20
502.475000000
 30
0.000000000
 11
359.600000000
 21
508.000000000
 31
0.000000000
  0
ARC
  5
A0F
330
A02
100
AcDbEntity
  8
SheetCutProfiles
100
AcDbCircle
 10
357.600000000
 20
502.475000000
 30
0.000000000
 40
2.000000000
100
AcDbArc
 50
-90.000000000
 51
0.000000000
  0
LINE
  5
A10
330
A02
100
AcDbEntity
  8
SheetCutProfiles
100
AcDbLine
 10
346.000000000
 20
500.475000000
 30
0.000000000
 11
357.600000000
 21
500.475000000
 31
0.000000000
  0
LINE
  5
A11
330
A02
100
AcDbEntity
  8
SheetCutProfiles
100
AcDbLine
 10
346.000000000
 20
481.425000000
 30
0.000000000
 11
346.000000000
 21
500.475000000
 31
0.000000000
  0
LINE
  5
A12
330
A02
100
AcDbEntity
  8
SheetCutProfiles
100
AcDbLine
 10
357.600000000
 20
481.425000000
 30
0.000000000
 11
346.000000000
 21
481.425000000
 31
0.000000000
  0
ARC
  5
A13
330
A02
100
AcDbEntity
  8
SheetCutProfiles
100
AcDbCircle
 10
357.600000000
 20
479.425000000
 30
0.000000000
 40
2.000000000
100
AcDbArc
 50
0.000000000
 51
90.000000000
  0
LINE
  5
A14
330
A02
100
AcDbEntity
  8
SheetCutProfiles
100
AcDbLine
 10
359.600000000
 20
464.375000000
 30
0.000000000
 11
359.600000000
 21
479.425000000
 31
0.000000000
  0
ARC
  5
A15
330
A02
100
AcDbEntity
  8
SheetCutProfiles
100
AcDbCircle
 10
357.600000000
 20
464.375000000
 30
0.000000000
 40
2.000000000
100
AcDbArc
 50
-90.000000000
 51
0.000000000
  0
LINE
  5
A16
330
A02
100
AcDbEntity
  8
SheetCutProfiles
100
AcDbLine
 10
346.000000000
 20
462.375000000
 30
0.000000000
 11
357.600000000
 21
462.375000000
 31
0.000000000
  0
LINE
  5
A17
330
A02
100
AcDbEntity
  8
SheetCutProfiles
100
AcDbLine
 10
346.000000000
 20
443.325000000
 30
0.000000000
 11
346.000000000
 21
462.375000000
 31
0.000000000
  0
LINE
  5
A18
330
A02
100
AcDbEntity
  8
SheetCutProfiles
100
AcDbLine
 10
357.600000000
 20
443.325000000
 30
0.000000000
 11
346.000000000
 21
443.325000000
 31
0.000000000
  0
ARC
  5
A19
330
A02
100
AcDbEntity
  8
SheetCutProfiles
100
AcDbCircle
 10
357.600000000
 20
441.325000000
 30
0.000000000
 40
2.000000000
100
AcDbArc
 50
0.000000000
 51
90.000000000
  0
LINE
  5
A1A
330
A02
100
AcDbEntity
  8
SheetCutProfiles
100
AcDbLine
 10
359.600000000
 20
426.275000000
 30
0.000000000
 11
359.600000000
 21
441.325000000
 31
0.000000000
  0
ARC
  5
A1B
330
A02
100
AcDbEntity
  8
SheetCutProfiles
100
AcDbCircle
 10
357.600000000
 20
426.275000000
 30
0.000000000
 40
2.000000000
100
AcDbArc
 50
-90.000000000
 51
0.000000000
  0
LINE
  5
A1C
330
A02
100
AcDbEntity
  8
SheetCutProfiles
100
AcDbLine
 10
346.000000000
 20
424.275000000
 30
0.000000000
 11
357.600000000
 21
424.275000000
 31
0.000000000
  0
LINE
  5
A1D
330
A02
100
AcDbEntity
  8
SheetCutProfiles
100
AcDbLine
 10
346.000000000
 20
405.225000000
 30
0.000000000
 11
346.000000000
 21
424.275000000
 31
0.000000000
  0
LINE
  5
A1E
330
A02
100
AcDbEntity
  8
SheetCutProfiles
100
AcDbLine
 10
357.600000000
 20
405.225000000
 30
0.000000000
 11
346.000000000
 21
405.225000000
 31
0.000000000
  0
ARC
  5
A1F
330
A02
100
AcDbEntity
  8
SheetCutProfiles
100
AcDbCircle
 10
357.600000000
 20
403.225000000
 30
0.000000000
 40
2.000000000
100
AcDbArc
 50
0.000000000
 51
90.000000000
  0
LINE
  5
A20
330
A02
100
AcDbEntity
  8
SheetCutProfiles
100
AcDbLine
 10
359.600000000
 20
388.175000000
 30
0.000000000
 11
359.600000000
 21
403.225000000
 31
0.000000000
  0
ARC
  5
A21
330
A02
100
AcDbEntity
  8
SheetCutProfiles
100
AcDbCircle
 10
357.600000000
 20
388.175000000
 30
0.000000000
 40
2.000000000
100
AcDbArc
 50
-90.000000000
 51
0.000000000
  0
LINE
  5
A22
330
A02
100
AcDbEntity
  8
SheetCutProfiles
100
AcDbLine
 10
346.000000000
 20
386.175000000
 30
0.000000000
 11
357.600000000
 21
386.175000000
 31
0.000000000
  0
LINE
  5
A23
330
A02
100
AcDbEntity
  8
SheetCutProfiles
100
AcDbLine
 10
346.000000000
 20
367.125000000
 30
0.000000000
 11
346.000000000
 21
386.175000000
 31
0.000000000
  0
LINE
  5
A24
330
A02
100
AcDbEntity
  8
SheetCutProfiles
100
AcDbLine
 10
357.600000000
 20
367.125000000
 30
0.000000000
 11
346.000000000
 21
367.125000000
 31
0.000000000
  0
ARC
  5
A25
330
A02
100
AcDbEntity
  8
SheetCutProfiles
100
AcDbCircle
 10
357.600000000
 20
365.125000000
 30
0.000000000
 40
2.000000000
100
AcDbArc
 50
0.000000000
 51
90.000000000
  0
LINE
  5
A26
330
A02
100
AcDbEntity
  8
SheetCutProfiles
100
AcDbLine
 10
359.600000000
 20
359.600000000
 30
0.000000000
 11
359.600000000
 21
365.125000000
 31
0.000000000
  0
ARC
  5
A27
330
A02
100
AcDbEntity
  8
SheetCutProfiles
100
AcDbCircle
 10
357.600000000
 20
359.600000000
 30
0.000000000
 40
2.000000000
100
AcDbArc
 50
-90.000000000
 51
0.000000000
  0
LINE
  5
A28
330
A02
100
AcDbEntity
  8
SheetCutProfiles
100
AcDbLine
 10
357.600000000
 20
357.600000000
 30
0.000000000
 11
357.600000000
 21
154.400000000
 31
0.000000000
  0
ARC
  5
A29
330
A02
100
AcDbEntity
  8
SheetCutProfiles
100
AcDbCircle
 10
357.600000000
 20
152.400000000
 30
0.000000000
 40
2.000000000
100
AcDbArc
 50
0.000000000
 51
90.000000000
  0
LINE
  5
A2A
330
A02
100
AcDbEntity
  8
SheetCutProfiles
100
AcDbLine
 10
359.600000000
 20
146.875000000
 30
0.000000000
 11
359.600000000
 21
152.400000000
 31
0.000000000
  0
ARC
  5
A2B
330
A02
100
AcDbEntity
  8
SheetCutProfiles
100
AcDbCircle
 10
357.600000000
 20
146.875000000
 30
0.000000000
 40
2.000000000
100
AcDbArc
 50
-90.000000000
 51
0.000000000
  0
LINE
  5
A2C
330
A02
100
AcDbEntity
  8
SheetCutProfiles
100
AcDbLine
 10
346.000000000
 20
144.875000000
 30
0.000000000
 11
357.600000000
 21
144.875000000
 31
0.000000000
  0
LINE
  5
A2D
330
A02
100
AcDbEntity
  8
SheetCutProfiles
100
AcDbLine
 10
346.000000000
 20
125.825000000
 30
0.000000000
 11
346.000000000
 21
144.875000000
 31
0.000000000
  0
LINE
  5
A2E
330
A02
100
AcDbEntity
  8
SheetCutProfiles
100
AcDbLine
 10
357.600000000
 20
125.825000000
 30
0.000000000
 11
346.000000000
 21
125.825000000
 31
0.000000000
  0
ARC
  5
A2F
330
A02
100
AcDbEntity
  8
SheetCutProfiles
100
AcDbCircle
 10
357.600000000
 20
123.825000000
 30
0.000000000
 40
2.000000000
100
AcDbArc
 50
0.000000000
 51
90.000000000
  0
LINE
  5
A30
330
A02
100
AcDbEntity
  8
SheetCutProfiles
100
AcDbLine
 10
359.600000000
 20
108.775000000
 30
0.000000000
 11
359.600000000
 21
123.825000000
 31
0.000000000
  0
ARC
  5
A31
330
A02
100
AcDbEntity
  8
SheetCutProfiles
100
AcDbCircle
 10
357.600000000
 20
108.775000000
 30
0.000000000
 40
2.000000000
100
AcDbArc
 50
-90.000000000
 51
0.000000000
  0
LINE
  5
A32
330
A02
100
AcDbEntity
  8
SheetCutProfiles
100
AcDbLine
 10
346.000000000
 20
106.775000000
 30
0.000000000
 11
357.600000000
 21
106.775000000
 31
0.000000000
  0
LINE
  5
A33
330
A02
100
AcDbEntity
  8
SheetCutProfiles
100
AcDbLine
 10
346.000000000
 20
87.725000000
 30
0.000000000
 11
346.000000000
 21
106.775000000
 31
0.000000000
  0
LINE
  5
A34
330
A02
100
AcDbEntity
  8
SheetCutProfiles
100
AcDbLine
 10
357.600000000
 20
87.725000000
 30
0.000000000
 11
346.000000000
 21
87.725000000
 31
0.000000000
  0
ARC
  5
A35
330
A02
100
AcDbEntity
  8
SheetCutProfiles
100
AcDbCircle
 10
357.600000000
 20
85.725000000
 30
0.000000000
 40
2.000000000
100
AcDbArc
 50
0.000000000
 51
90.000000000
  0
LINE
  5
A36
330
A02
100
AcDbEntity
  8
SheetCutProfiles
100
AcDbLine
 10
359.600000000
 20
70.675000000
 30
0.000000000
 11
359.600000000
 21
85.725000000
 31
0.000000000
  0
ARC
  5
A37
330
A02
100
AcDbEntity
  8
SheetCutProfiles
100
AcDbCircle
 10
357.600000000
 20
70.675000000
 30
0.000000000
 40
2.000000000
100
AcDbArc
 50
-90.000000000
 51
0.000000000
  0
LINE
  5
A38
330
A02
100
AcDbEntity
  8
SheetCutProfiles
100
AcDbLine
 10
346.000000000
 20
68.675000000
 30
0.000000000
 11
357.600000000
 21
68.675000000
 31
0.000000000
  0
LINE
  5
A39
330
A02
100
AcDbEntity
  8
SheetCutProfiles
100
AcDbLine
 10
346.000000000
 20
49.625000000
 30
0.000000000
 11
346.000000000
 21
68.675000000
 31
0.000000000
  0
LINE
  5
A3A
330
A02
100
AcDbEntity
  8
SheetCutProfiles
100
AcDbLine
 10
357.600000000
 20
49.625000000
 30
0.000000000
 11
346.000000000
 21
49.625000000
 31
0.000000000
  0
ARC
  5
A3B
330
A02
100
AcDbEntity
  8
SheetCutProfiles
100
AcDbCircle
 10
357.600000000
 20
47.625000000
 30
0.000000000
 40
2.000000000
100
AcDbArc
 50
0.000000000
 51
90.000000000
  0
LINE
  5
A3C
330
A02
100
AcDbEntity
  8
SheetCutProfiles
100
AcDbLine
 10
359.600000000
 20
32.575000000
 30
0.000000000
 11
359.600000000
 21
47.625000000
 31
0.000000000
  0
ARC
  5
A3D
330
A02
100
AcDbEntity
  8
SheetCutProfiles
100
AcDbCircle
 10
357.600000000
 20
32.575000000
 30
0.000000000
 40
2.000000000
100
AcDbArc
 50
-90.000000000
 51
0.000000000
  0
LINE
  5
A3E
330
A02
100
AcDbEntity
  8
SheetCutProfiles
100
AcDbLine
 10
346.000000000
 20
30.575000000
 30
0.000000000
 11
357.600000000
 21
30.575000000
 31
0.000000000
  0
LINE
  5
A3F
330
A02
100
AcDbEntity
  8
SheetCutProfiles
100
AcDbLine
 10
346.000000000
 20
11.525000000
 30
0.000000000
 11
346.000000000
 21
30.575000000
 31
0.000000000
  0
LINE
  5
A40
330
A02
100
AcDbEntity
  8
SheetCutProfiles
100
AcDbLine
 10
357.600000000
 20
11.525000000
 30
0.000000000
 11
346.000000000
 21
11.525000000
 31
0.000000000
  0
ARC
  5
A41
330
A02
100
AcDbEntity
  8
SheetCutProfiles
100
AcDbCircle
 10
357.600000000
 20
9.525000000
 30
0.000000000
 40
2.000000000
100
AcDbArc
 50
0.000000000
 51
90.000000000
  0
LINE
  5
A42
330
A02
100
AcDbEntity
  8
SheetCutProfiles
100
AcDbLine
 10
359.600000000
 20
4.000000000
 30
0.000000000
 11
359.600000000
 21
9.525000000
 31
0.000000000
  0
ARC
  5
A43
330
A02
100
AcDbEntity
  8
SheetCutProfiles
100
AcDbCircle
 10
357.600000000
 20
4.000000000
 30
0.000000000
 40
2.000000000
100
AcDbArc
 50
-90.000000000
 51
0.000000000
  0
LINE
  5
A44
330
A02
100
AcDbEntity
  8
SheetCutProfiles
100
AcDbLine
 10
346.000000000
 20
2.000000000
 30
0.000000000
 11
357.600000000
 21
2.000000000
 31
0.000000000
  0
ARC
  5
A45
330
A02
100
AcDbEntity
  8
SheetCutProfiles
100
AcDbCircle
 10
344.000000000
 20
2.000000000
 30
0.000000000
 40
2.000000000
100
AcDbArc
 50
-90.000000000
 51
0.000000000
  0
LINE
  5
A46
330
A02
100
AcDbEntity
  8
SheetCutProfiles
100
AcDbLine
 10
344.000000000
 20
0.000000000
 30
0.000000000
 11
327.225000000
 21
0.000000000
 31
0.000000000
  0
ARC
  5
A47
330
A02
100
AcDbEntity
  8
SheetCutProfiles
100
AcDbCircle
 10
327.225000000
 20
2.000000000
 30
0.000000000
 40
2.000000000
100
AcDbArc
 50
180.000000000
 51
-90.000000000
  0
LINE
  5
A48
330
A02
100
AcDbEntity
  8
SheetCutProfiles
100
AcDbLine
 10
325.225000000
 20
13.600000000
 30
0.000000000
 11
325.225000000
 21
2.000000000
 31
0.000000000
  0
LINE
  5
A49
330
A02
100
AcDbEntity
  8
SheetCutProfiles
100
AcDbLine
 10
283.675000000
 20
13.600000000
 30
0.000000000
 11
325.225000000
 21
13.600000000
 31
0.000000000
  0
LINE
  5
A4A
330
A02
100
AcDbEntity
  8
SheetCutProfiles
100
AcDbLine
 10
283.675000000
 20
2.000000000
 30
0.000000000
 11
283.675000000
 21
13.600000000
 31
0.000000000
  0
ARC
  5
A4B
330
A02
100
AcDbEntity
  8
SheetCutProfiles
100
AcDbCircle
 10
281.675000000
 20
2.000000000
 30
0.000000000
 40
2.000000000
100
AcDbArc
 50
-90.000000000
 51
0.000000000
  0
LINE
  5
A4C
330
A02
100
AcDbEntity
  8
SheetCutProfiles
100
AcDbLine
 10
281.675000000
 20
0.000000000
 30
0.000000000
 11
244.125000000
 21
0.000000000
 31
0.000000000
  0
ARC
  5
A4D
330
A02
100
AcDbEntity
  8
SheetCutProfiles
100
AcDbCircle
 10
244.125000000
 20
2.000000000
 30
0.000000000
 40
2.000000000
100
AcDbArc
 50
180.000000000
 51
-90.000000000
  0
LINE
  5
A4E
330
A02
100
AcDbEntity
  8
SheetCutProfiles
100
AcDbLine
 10
242.125000000
 20
13.600000000
 30
0.000000000
 11
242.125000000
 21
2.000000000
 31
0.000000000
  0
LINE
  5
A4F
330
A02
100
AcDbEntity
  8
SheetCutProfiles
100
AcDbLine
 10
200.575000000
 20
13.600000000
 30
0.000000000
 11
242.125000000
 21
13.600000000
 31
0.000000000
  0
LINE
  5
A50
330
A02
100
AcDbEntity
  8
SheetCutProfiles
100
AcDbLine
 10
200.575000000
 20
2.000000000
 30
0.000000000
 11
200.575000000
 21
13.600000000
 31
0.000000000
  0
ARC
  5
A51
330
A02
100
AcDbEntity
  8
SheetCutProfiles
100
AcDbCircle
 10
198.575000000
 20
2.000000000
 30
0.000000000
 40
2.000000000
100
AcDbArc
 50
-90.000000000
 51
0.000000000
  0
LINE
  5
A52
330
A02
100
AcDbEntity
  8
SheetCutProfiles
100
AcDbLine
 10
198.575000000
 20
0.000000000
 30
0.000000000
 11
161.025000000
 21
0.000000000
 31
0.000000000
  0
ARC
  5
A53
330
A02
100
AcDbEntity
  8
SheetCutProfiles
100
AcDbCircle
 10
161.025000000
 20
2.000000000
 30
0.000000000
 40
2.000000000
100
AcDbArc
 50
180.000000000
 51
-90.000000000
  0
LINE
  5
A54
330
A02
100
AcDbEntity
  8
SheetCutProfiles
100
AcDbLine
 10
159.025000000
 20
13.600000000
 30
0.000000000
 11
159.025000000
 21
2.000000000
 31
0.000000000
  0
LINE
  5
A55
330
A02
100
AcDbEntity
  8
SheetCutProfiles
100
AcDbLine
 10
117.475000000
 20
13.600000000
 30
0.000000000
 11
159.025000000
 21
13.600000000
 31
0.000000000
  0
LINE
  5
A56
330
A02
100
AcDbEntity
  8
SheetCutProfiles
100
AcDbLine
 10
117.475000000
 20
2.000000000
 30
0.000000000
 11
117.475000000
 21
13.600000000
 31
0.000000000
  0
ARC
  5
A57
330
A02
100
AcDbEntity
  8
SheetCutProfiles
100
AcDbCircle
 10
115.475000000
 20
2.000000000
 30
0.000000000
 40
2.000000000
100
AcDbArc
 50
-90.000000000
 51
0.000000000
  0
LINE
  5
A58
330
A02
100
AcDbEntity
  8
SheetCutProfiles
100
AcDbLine
 10
115.475000000
 20
0.000000000
 30
0.000000000
 11
77.925000000
 21
0.000000000
 31
0.000000000
  0
ARC
  5
A59
330
A02
100
AcDbEntity
  8
SheetCutProfiles
100
AcDbCircle
 10
77.925000000
 20
2.000000000
 30
0.000000000
 40
2.000000000
100
AcDbArc
 50
180.000000000
 51
-90.000000000
  0
LINE
  5
A5A
330
A02
100
AcDbEntity
  8
SheetCutProfiles
100
AcDbLine
 10
75.925000000
 20
13.600000000
 30
0.000000000
 11
75.925000000
 21
2.000000000
 31
0.000000000
  0
LINE
  5
A5B
330
A02
100
AcDbEntity
  8
SheetCutProfiles
100
AcDbLine
 10
34.375000000
 20
13.600000000
 30
0.000000000
 11
75.925000000
 21
13.600000000
 31
0.000000000
  0
LINE
  5
A5C
330
A02
100
AcDbEntity
  8
SheetCutProfiles
100
AcDbLine
 10
34.375000000
 20
2.000000000
 30
0.000000000
 11
34.375000000
 21
13.600000000
 31
0.000000000
  0
ARC
  5
A5D
330
A02
100
AcDbEntity
  8
SheetCutProfiles
100
AcDbCircle
 10
32.375000000
 20
2.000000000
 30
0.000000000
 40
2.000000000
100
AcDbArc
 50
-90.000000000
 51
0.000000000
  0
LINE
  5
A5E
330
A02
100
AcDbEntity
  8
SheetCutProfiles
100
AcDbLine
 10
32.375000000
 20
0.000000000
 30
0.000000000
 11
15.600000000
 21
0.000000000
 31
0.000000000
  0
ARC
  5
A5F
330
A02
100
AcDbEntity
  8
SheetCutProfiles
100
AcDbCircle
 10
15.600000000
 20
2.000000000
 30
0.000000000
 40
2.000000000
100
AcDbArc
 50
180.000000000
 51
-90.000000000
  0
LINE
  5
A60
330
A02
100
AcDbEntity
  8
SheetCutProfiles
100
AcDbLine
 10
13.600000000
 20
33.750000000
 30
0.000000000
 11
13.600000000
 21
2.000000000
 31
0.000000000
  0
LINE
  5
A61
330
A02
100
AcDbEntity
  8
SheetCutProfiles
100
AcDbLine
 10
13.600000000
 20
33.750000000
 30
0.000000000
 11
2.000000000
 21
33.750000000
 31
0.000000000
  0
ARC
  5
A62
330
A02
100
AcDbEntity
  8
SheetCutProfiles
100
AcDbCircle
 10
2.000000000
 20
35.750000000
 30
0.000000000
 40
2.000000000
100
AcDbArc
 50
180.000000000
 51
-90.000000000
  0
LINE
  5
A63
330
A02
100
AcDbEntity
  8
SheetCutProfiles
100
AcDbLine
 10
0.000000000
 20
95.250000000
 30
0.000000000
 11
0.000000000
 21
35.750000000
 31
0.000000000
  0
ARC
  5
A64
330
A02
100
AcDbEntity
  8
SheetCutProfiles
100
AcDbCircle
 10
2.000000000
 20
95.250000000
 30
0.000000000
 40
2.000000000
100
AcDbArc
 50
90.000000000
 51
180.000000000
  0
LINE
  5
A65
330
A02
100
AcDbEntity
  8
SheetCutProfiles
100
AcDbLine
 10
2.000000000
 20
97.250000000
 30
0.000000000
 11
13.600000000
 21
97.250000000
 31
0.000000000
  0
LINE
  5
A66
330
A02
100
AcDbEntity
  8
SheetCutProfiles
100
AcDbLine
 10
13.600000000
 20
160.750000000
 30
0.000000000
 11
13.600000000
 21
97.250000000
 31
0.000000000
  0
LINE
  5
A67
330
A02
100
AcDbEntity
  8
SheetCutProfiles
100
AcDbLine
 10
13.600000000
 20
160.750000000
 30
0.000000000
 11
2.000000000
 21
160.750000000
 31
0.000000000
  0
ARC
  5
A68
330
A02
100
AcDbEntity
  8
SheetCutProfiles
100
AcDbCircle
 10
2.000000000
 20
162.750000000
 30
0.000000000
 40
2.000000000
100
AcDbArc
 50
180.000000000
 51
-90.000000000
  0
LINE
  5
A69
330
A02
100
AcDbEntity
  8
SheetCutProfiles
100
AcDbLine
 10
0.000000000
 20
222.250000000
 30
0.000000000
 11
0.000000000
 21
162.750000000
 31
0.000000000
  0
ARC
  5
A6A
330
A02
100
AcDbEntity
  8
SheetCutProfiles
100
AcDbCircle
 10
2.000000000
 20
222.250000000
 30
0.000000000
 40
2.000000000
100
AcDbArc
 50
90.000000000
 51
180.000000000
  0
LINE
  5
A6B
330
A02
100
AcDbEntity
  8
SheetCutProfiles
100
AcDbLine
 10
2.000000000
 20
224.250000000
 30
0.000000000
 11
13.600000000
 21
224.250000000
 31
0.000000000
  0
LINE
  5
A6C
330
A02
100
AcDbEntity
  8
SheetCutProfiles
100
AcDbLine
 10
13.600000000
 20
287.750000000
 30
0.000000000
 11
13.600000000
 21
224.250000000
 31
0.000000000
  0
LINE
  5
A6D
330
A02
100
AcDbEntity
  8
SheetCutProfiles
100
AcDbLine
 10
13.600000000
 20
287.750000000
 30
0.000000000
 11
2.000000000
 21
287.750000000
 31
0.000000000
  0
ARC
  5
A6E
330
A02
100
AcDbEntity
  8
SheetCutProfiles
100
AcDbCircle
 10
2.000000000
 20
289.750000000
 30
0.000000000
 40
2.000000000
100
AcDbArc
 50
180.000000000
 51
-90.000000000
  0
LINE
  5
A6F
330
A02
100
AcDbEntity
  8
SheetCutProfiles
100
AcDbLine
 10
0.000000000
 20
349.250000000
 30
0.000000000
 11
0.000000000
 21
289.750000000
 31
0.000000000
  0
ARC
  5
A70
330
A02
100
AcDbEntity
  8
SheetCutProfiles
100
AcDbCircle
 10
2.000000000
 20
349.250000000
 30
0.000000000
 40
2.000000000
100
AcDbArc
 50
90.000000000
 51
180.000000000
  0
LINE
  5
A71
330
A02
100
AcDbEntity
  8
SheetCutProfiles
100
AcDbLine
 10
2.000000000
 20
351.250000000
 30
0.000000000
 11
13.600000000
 21
351.250000000
 31
0.000000000
  0
LINE
  5
A72
330
A02
100
AcDbEntity
  8
SheetCutProfiles
100
AcDbLine
 10
13.600000000
 20
414.750000000
 30
0.000000000
 11
13.600000000
 21
351.250000000
 31
0.000000000
  0
LINE
  5
A73
330
A02
100
AcDbEntity
  8
SheetCutProfiles
100
AcDbLine
 10
13.600000000
 20
414.750000000
 30
0.000000000
 11
2.000000000
 21
414.750000000
 31
0.000000000
  0
ARC
  5
A74
330
A02
100
AcDbEntity
  8
SheetCutProfiles
100
AcDbCircle
 10
2.000000000
 20
416.750000000
 30
0.000000000
 40
2.000000000
100
AcDbArc
 50
180.000000000
 51
-90.000000000
  0
LINE
  5
A75
330
A02
100
AcDbEntity
  8
SheetCutProfiles
100
AcDbLine
 10
0.000000000
 20
476.250000000
 30
0.000000000
 11
0.000000000
 21
416.750000000
 31
0.000000000
  0
ARC
  5
A76
330
A02
100
AcDbEntity
  8
SheetCutProfiles
100
AcDbCircle
 10
2.000000000
 20
476.250000000
 30
0.000000000
 40
2.000000000
100
AcDbArc
 50
90.000000000
 51
180.000000000
  0
LINE
  5
A77
330
A02
100
AcDbEntity
  8
SheetCutProfiles
100
AcDbLine
 10
2.000000000
 20
478.250000000
 30
0.000000000
 11
13.600000000
 21
478.250000000
 31
0.000000000
  0
LINE
  5
A78
330
A02
100
AcDbEntity
  8
SheetCutProfiles
100
AcDbLine
 10
13.600000000
 20
510.000000000
 30
0.000000000
 11
13.600000000
 21
478.250000000
 31
0.000000000
  0
ARC
  5
A79
330
A02
100
AcDbEntity
  8
SheetCutProfiles
100
AcDbCircle
 10
15.600000000
 20
510.000000000
 30
0.000000000
 40
2.000000000
100
AcDbArc
 50
90.000000000
 51
180.000000000
  0
LINE
  5
A7A
330
A02
100
AcDbEntity
  8
SheetCutProfiles
100
AcDbLine
 10
15.600000000
 20
512.000000000
 30
0.000000000
 11
32.375000000
 21
512.000000000
 31
0.000000000
  0
ARC
  5
A7B
330
A02
100
AcDbEntity
  8
SheetCutProfiles
100
AcDbCircle
 10
32.375000000
 20
510.000000000
 30
0.000000000
 40
2.000000000
100
AcDbArc
 50
0.000000000
 51
90.000000000
  0
LINE
  5
A7C
330
A02
100
AcDbEntity
  8
SheetCutProfiles
100
AcDbLine
 10
34.375000000
 20
498.400000000
 30
0.000000000
 11
34.375000000
 21
510.000000000
 31
0.000000000
  0
LINE
  5
A7D
330
A02
100
AcDbEntity
  8
SheetCutProfiles
100
AcDbLine
 10
75.925000000
 20
498.400000000
 30
0.000000000
 11
34.375000000
 21
498.400000000
 31
0.000000000
  0
LINE
  5
A7E
330
A02
100
AcDbEntity
  8
SheetCutProfiles
100
AcDbLine
 10
75.925000000
 20
510.000000000
 30
0.000000000
 11
75.925000000
 21
498.400000000
 31
0.000000000
  0
ARC
  5
A7F
330
A02
100
AcDbEntity
  8
SheetCutProfiles
100
AcDbCircle
 10
77.925000000
 20
510.000000000
 30
0.000000000
 40
2.000000000
100
AcDbArc
 50
90.000000000
 51
180.000000000
  0
LINE
  5
A80
330
A02
100
AcDbEntity
  8
SheetCutProfiles
100
AcDbLine
 10
77.925000000
 20
512.000000000
 30
0.000000000
 11
115.475000000
 21
512.000000000
 31
0.000000000
  0
ARC
  5
A81
330
A02
100
AcDbEntity
  8
SheetCutProfiles
100
AcDbCircle
 10
115.475000000
 20
510.000000000
 30
0.000000000
 40
2.000000000
100
AcDbArc
 50
0.000000000
 51
90.000000000
  0
LINE
  5
A82
330
A02
100
AcDbEntity
  8
SheetCutProfiles
100
AcDbLine
 10
117.475000000
 20
498.400000000
 30
0.000000000
 11
117.475000000
 21
510.000000000
 31
0.000000000
  0
LINE
  5
A83
330
A02
100
AcDbEntity
  8
SheetCutProfiles
100
AcDbLine
 10
159.025000000
 20
498.400000000
 30
0.000000000
 11
117.475000000
 21
498.400000000
 31
0.000000000
  0
LINE
  5
A84
330
A02
100
AcDbEntity
  8
SheetCutProfiles
100
AcDbLine
 10
159.025000000
 20
510.000000000
 30
0.000000000
 11
159.025000000
 21
498.400000000
 31
0.000000000
  0
ARC
  5
A85
330
A02
100
AcDbEntity
  8
SheetCutProfiles
100
AcDbCircle
 10
161.025000000
 20
510.000000000
 30
0.000000000
 40
2.000000000
100
AcDbArc
 50
90.000000000
 51
180.000000000
  0
LINE
  5
A86
330
A02
100
AcDbEntity
  8
SheetCutProfiles
100
AcDbLine
 10
161.025000000
 20
512.000000000
 30
0.000000000
 11
198.575000000
 21
512.000000000
 31
0.000000000
  0
ARC
  5
A87
330
A02
100
AcDbEntity
  8
SheetCutProfiles
100
AcDbCircle
 10
198.575000000
 20
510.000000000
 30
0.000000000
 40
2.000000000
100
AcDbArc
 50
0.000000000
 51
90.000000000
  0
LINE
  5
A88
330
A02
100
AcDbEntity
  8
SheetCutProfiles
100
AcDbLine
 10
200.575000000
 20
498.400000000
 30
0.000000000
 11
200.575000000
 21
510.000000000
 31
0.000000000
  0
LINE
  5
A89
330
A02
100
AcDbEntity
  8
SheetCutProfiles
100
AcDbLine
 10
242.125000000
 20
498.400000000
 30
0.000000000
 11
200.575000000
 21
498.400000000
 31
0.000000000
  0
LINE
  5
A8A
330
A02
100
AcDbEntity
  8
SheetCutProfiles
100
AcDbLine
 10
242.125000000
 20
510.000000000
 30
0.000000000
 11
242.125000000
 21
498.400000000
 31
0.000000000
  0
ARC
  5
A8B
330
A02
100
AcDbEntity
  8
SheetCutProfiles
100
AcDbCircle
 10
244.125000000
 20
510.000000000
 30
0.000000000
 40
2.000000000
100
AcDbArc
 50
90.000000000
 51
180.000000000
  0
LINE
  5
A8C
330
A02
100
AcDbEntity
  8
SheetCutProfiles
100
AcDbLine
 10
244.125000000
 20
512.000000000
 30
0.000000000
 11
281.675000000
 21
512.000000000
 31
0.000000000
  0
ARC
  5
A8D
330
A02
100
AcDbEntity
  8
SheetCutProfiles
100
AcDbCircle
 10
281.675000000
 20
510.000000000
 30
0.000000000
 40
2.000000000
100
AcDbArc
 50
0.000000000
 51
90.000000000
  0
LINE
  5
A8E
330
A02
100
AcDbEntity
  8
SheetCutProfiles
100
AcDbLine
 10
283.675000000
 20
498.400000000
 30
0.000000000
 11
283.675000000
 21
510.000000000
 31
0.000000000
  0
LINE
  5
A8F
330
A02
100
AcDbEntity
  8
SheetCutProfiles
100
AcDbLine
 10
325.225000000
 20
498.400000000
 30
0.000000000
 11
283.675000000
 21
498.400000000
 31
0.000000000
  0
CIRCLE
  5
A90
330
A02
100
AcDbEntity
  8
SheetCutProfiles
100
AcDbCircle
 10
288.300000000
 20
103.466666667
 30
0.000000000
 40
3.000000000
  0
CIRCLE
  5
A91
330
A02
100
AcDbEntity
  8
SheetCutProfiles
100
AcDbCircle
 10
234.500000000
 20
103.466666667
 30
0.000000000
 40
3.000000000
  0
CIRCLE
  5
A92
330
A02
100
AcDbEntity
  8
SheetCutProfiles
100
AcDbCircle
 10
122.100000000
 20
103.466666667
 30
0.000000000
 40
3.000000000
  0
CIRCLE
  5
A93
330
A02
100
AcDbEntity
  8
SheetCutProfiles
100
AcDbCircle
 10
68.300000000
 20
103.466666667
 30
0.000000000
 40
3.000000000
  0
CIRCLE
  5
A94
330
A02
100
AcDbEntity
  8
SheetCutProfiles
100
AcDbCircle
 10
288.300000000
 20
408.533333333
 30
0.000000000
 40
3.000000000
  0
CIRCLE
  5
A95
330
A02
100
AcDbEntity
  8
SheetCutProfiles
100
AcDbCircle
 10
234.500000000
 20
408.533333333
 30
0.000000000
 40
3.000000000
  0
CIRCLE
  5
A96
330
A02
100
AcDbEntity
  8
SheetCutProfiles
100
AcDbCircle
 10
122.100000000
 20
408.533333333
 30
0.000000000
 40
3.000000000
  0
CIRCLE
  5
A97
330
A02
100
AcDbEntity
  8
SheetCutProfiles
100
AcDbCircle
 10
68.300000000
 20
408.533333333
 30
0.000000000
 40
3.000000000
  0
LINE
  5
A98
330
A02
100
AcDbEntity
  8
SheetCutProfiles
100
AcDbLine
 10
509.062500000
 20
13.600000000
 30
0.000000000
 11
509.062500000
 21
2.000000000
 31
0.000000000
  0
LINE
  5
A99
330
A02
100
AcDbEntity
  8
SheetCutProfiles
100
AcDbLine
 10
531.287500000
 20
13.600000000
 30
0.000000000
 11
509.062500000
 21
13.600000000
 31
0.000000000
  0
LINE
  5
A9A
330
A02
100
AcDbEntity
  8
SheetCutProfiles
100
AcDbLine
 10
531.287500000
 20
2.000000000
 30
0.000000000
 11
531.287500000
 21
13.600000000
 31
0.000000000
  0
ARC
  5
A9B
330
A02
100
AcDbEntity
  8
SheetCutProfiles
100
AcDbCircle
 10
533.287500000
 20
2.000000000
 30
0.000000000
 40
2.000000000
100
AcDbArc
 50
180.000000000
 51
-90.000000000
  0
LINE
  5
A9C
330
A02
100
AcDbEntity
  8
SheetCutProfiles
100
AcDbLine
 10
540.400000000
 20
0.000000000
 30
0.000000000
 11
533.287500000
 21
0.000000000
 31
0.000000000
  0
ARC
  5
A9D
330
A02
100
AcDbEntity
  8
SheetCutProfiles
100
AcDbCircle
 10
540.400000000
 20
2.000000000
 30
0.000000000
 40
2.000000000
100
AcDbArc
 50
-90.000000000
 51
0.000000000
  0
LINE
  5
A9E
330
A02
100
AcDbEntity
  8
SheetCutProfiles
100
AcDbLine
 10
542.400000000
 20
2.000000000
 30
0.000000000
 11
542.400000000
 21
691.400000000
 31
0.000000000
  0
ARC
  5
A9F
330
A02
100
AcDbEntity
  8
SheetCutProfiles
100
AcDbCircle
 10
540.400000000
 20
691.400000000
 30
0.000000000
 40
2.000000000
100
AcDbArc
 50
0.000000000
 51
90.000000000
  0
LINE
  5
AA0
330
A02
100
AcDbEntity
  8
SheetCutProfiles
100
AcDbLine
 10
540.400000000
 20
693.400000000
 30
0.000000000
 11
533.287500000
 21
693.400000000
 31
0.000000000
  0
ARC
  5
AA1
330
A02
100
AcDbEntity
  8
SheetCutProfiles
100
AcDbCircle
 10
533.287500000
 20
691.400000000
 30
0.000000000
 40
2.000000000
100
AcDbArc
 50
90.000000000
 51
180.000000000
  0
LINE
  5
AA2
330
A02
100
AcDbEntity
  8
SheetCutProfiles
100
AcDbLine
 10
531.287500000
 20
679.800000000
 30
0.000000000
 11
531.287500000
 21
691.400000000
 31
0.000000000
  0
LINE
  5
AA3
330
A02
100
AcDbEntity
  8
SheetCutProfiles
100
AcDbLine
 10
509.062500000
 20
679.800000000
 30
0.000000000
 11
531.287500000
 21
679.800000000
 31
0.000000000
  0
LINE
  5
AA4
330
A02
100
AcDbEntity
  8
SheetCutProfiles
100
AcDbLine
 10
509.062500000
 20
691.400000000
 30
0.000000000
 11
509.062500000
 21
679.800000000
 31
0.000000000
  0
ARC
  5
AA5
330
A02
100
AcDbEntity
  8
SheetCutProfiles
100
AcDbCircle
 10
507.062500000
 20
691.400000000
 30
0.000000000
 40
2.000000000
100
AcDbArc
 50
0.000000000
 51
90.000000000
  0
LINE
  5
AA6
330
A02
100
AcDbEntity
  8
SheetCutProfiles
100
AcDbLine
 10
507.062500000
 20
693.400000000
 30
0.000000000
 11
488.837500000
 21
693.400000000
 31
0.000000000
  0
ARC
  5
AA7
330
A02
100
AcDbEntity
  8
SheetCutProfiles
100
AcDbCircle
 10
488.837500000
 20
691.400000000
 30
0.000000000
 40
2.000000000
100
AcDbArc
 50
90.000000000
 51
180.000000000
  0
LINE
  5
AA8
330
A02
100
AcDbEntity
  8
SheetCutProfiles
100
AcDbLine
 10
486.837500000
 20
679.800000000
 30
0.000000000
 11
486.837500000
 21
691.400000000
 31
0.000000000
  0
LINE
  5
AA9
330
A02
100
AcDbEntity
  8
SheetCutProfiles
100
AcDbLine
 10
464.612500000
 20
679.800000000
 30
0.000000000
 11
486.837500000
 21
679.800000000
 31
0.000000000
  0
LINE
  5
AAA
330
A02
100
AcDbEntity
  8
SheetCutProfiles
100
AcDbLine
 10
464.612500000
 20
691.400000000
 30
0.000000000
 11
464.612500000
 21
679.800000000
 31
0.000000000
  0
ARC
  5
AAB
330
A02
100
AcDbEntity
  8
SheetCutProfiles
100
AcDbCircle
 10
462.612500000
 20
691.400000000
 30
0.000000000
 40
2.000000000
100
AcDbArc
 50
0.000000000
 51
90.000000000
  0
LINE
  5
AAC
330
A02
100
AcDbEntity
  8
SheetCutProfiles
100
AcDbLine
 10
462.612500000
 20
693.400000000
 30
0.000000000
 11
444.387500000
 21
693.400000000
 31
0.000000000
  0
ARC
  5
AAD
330
A02
100
AcDbEntity
  8
SheetCutProfiles
100
AcDbCircle
 10
444.387500000
 20
691.400000000
 30
0.000000000
 40
2.000000000
100
AcDbArc
 50
90.000000000
 51
180.000000000
  0
LINE
  5
AAE
330
A02
100
AcDbEntity
  8
SheetCutProfiles
100
AcDbLine
 10
442.387500000
 20
679.800000000
 30
0.000000000
 11
442.387500000
 21
691.400000000
 31
0.000000000
  0
LINE
  5
AAF
330
A02
100
AcDbEntity
  8
SheetCutProfiles
100
AcDbLine
 10
420.162500000
 20
679.800000000
 30
0.000000000
 11
442.387500000
 21
679.800000000
 31
0.000000000
  0
LINE
  5
AB0
330
A02
100
AcDbEntity
  8
SheetCutProfiles
100
AcDbLine
 10
420.162500000
 20
691.400000000
 30
0.000000000
 11
420.162500000
 21
679.800000000
 31
0.000000000
  0
ARC
  5
AB1
330
A02
100
AcDbEntity
  8
SheetCutProfiles
100
AcDbCircle
 10
418.162500000
 20
691.400000000
 30
0.000000000
 40
2.000000000
100
AcDbArc
 50
0.000000000
 51
90.000000000
  0
LINE
  5
AB2
330
A02
100
AcDbEntity
  8
SheetCutProfiles
100
AcDbLine
 10
418.162500000
 20
693.400000000
 30
0.000000000
 11
399.937500000
 21
693.400000000
 31
0.000000000
  0
ARC
  5
AB3
330
A02
100
AcDbEntity
  8
SheetCutProfiles
100
AcDbCircle
 10
399.937500000
 20
691.400000000
 30
0.000000000
 40
2.000000000
100
AcDbArc
 50
90.000000000
 51
180.000000000
  0
LINE
  5
AB4
330
A02
100
AcDbEntity
  8
SheetCutProfiles
100
AcDbLine
 10
397.937500000
 20
679.800000000
 30
0.000000000
 11
397.937500000
 21
691.400000000
 31
0.000000000
  0
LINE
  5
AB5
330
A02
100
AcDbEntity
  8
SheetCutProfiles
100
AcDbLine
 10
375.712500000
 20
679.800000000
 30
0.000000000
 11
397.937500000
 21
679.800000000
 31
0.000000000
  0
LINE
  5
AB6
330
A02
100
AcDbEntity
  8
SheetCutProfiles
100
AcDbLine
 10
375.712500000
 20
691.400000000
 30
0.000000000
 11
375.712500000
 21
679.800000000
 31
0.000000000
  0
ARC
  5
AB7
330
A02
100
AcDbEntity
  8
SheetCutProfiles
100
AcDbCircle
 10
373.712500000
 20
691.400000000
 30
0.000000000
 40
2.000000000
100
AcDbArc
 50
0.000000000
 51
90.000000000
  0
LINE
  5
AB8
330
A02
100
AcDbEntity
  8
SheetCutProfiles
100
AcDbLine
 10
373.712500000
 20
693.400000000
 30
0.000000000
 11
366.600000000
 21
693.400000000
 31
0.000000000
  0
ARC
  5
AB9
330
A02
100
AcDbEntity
  8
SheetCutProfiles
100
AcDbCircle
 10
366.600000000
 20
691.400000000
 30
0.000000000
 40
2.000000000
100
AcDbArc
 50
90.000000000
 51
180.000000000
  0
LINE
  5
ABA
330
A02
100
AcDbEntity
  8
SheetCutProfiles
100
AcDbLine
 10
364.600000000
 20
2.000000000
 30
0.000000000
 11
364.600000000
 21
691.400000000
 31
0.000000000
  0
ARC
  5
ABB
330
A02
100
AcDbEntity
  8
SheetCutProfiles
100
AcDbCircle
 10
366.600000000
 20
2.000000000
 30
0.000000000
 40
2.000000000
100
AcDbArc
 50
180.000000000
 51
-90.000000000
  0
LINE
  5
ABC
330
A02
100
AcDbEntity
  8
SheetCutProfiles
100
AcDbLine
 10
373.712500000
 20
0.000000000
 30
0.000000000
 11
366.600000000
 21
0.000000000
 31
0.000000000
  0
ARC
  5
ABD
330
A02
100
AcDbEntity
  8
SheetCutProfiles
100
AcDbCircle
 10
373.712500000
 20
2.000000000
 30
0.000000000
 40
2.000000000
100
AcDbArc
 50
-90.000000000
 51
0.000000000
  0
LINE
  5
ABE
330
A02
100
AcDbEntity
  8
SheetCutProfiles
100
AcDbLine
 10
375.712500000
 20
13.600000000
 30
0.000000000
 11
375.712500000
 21
2.000000000
 31
0.000000000
  0
LINE
  5
ABF
330
A02
100
AcDbEntity
  8
SheetCutProfiles
100
AcDbLine
 10
397.937500000
 20
13.600000000
 30
0.000000000
 11
375.712500000
 21
13.600000000
 31
0.000000000
  0
LINE
  5
AC0
330
A02
100
AcDbEntity
  8
SheetCutProfiles
100
AcDbLine
 10
397.937500000
 20
2.000000000
 30
0.000000000
 11
397.937500000
 21
13.600000000
 31
0.000000000
  0
ARC
  5
AC1
330
A02
100
AcDbEntity
  8
SheetCutProfiles
100
AcDbCircle
 10
399.937500000
 20
2.000000000
 30
0.000000000
 40
2.000000000
100
AcDbArc
 50
180.000000000
 51
-90.000000000
  0
LINE
  5
AC2
330
A02
100
AcDbEntity
  8
SheetCutProfiles
100
AcDbLine
 10
418.162500000
 20
0.000000000
 30
0.000000000
 11
399.937500000
 21
0.000000000
 31
0.000000000
  0
ARC
  5
AC3
330
A02
100
AcDbEntity
  8
SheetCutProfiles
100
AcDbCircle
 10
418.162500000
 20
2.000000000
 30
0.000000000
 40
2.000000000
100
AcDbArc
 50
-90.000000000
 51
0.000000000
  0
LINE
  5
AC4
330
A02
100
AcDbEntity
  8
SheetCutProfiles
100
AcDbLine
 10
420.162500000
 20
13.600000000
 30
0.000000000
 11
420.162500000
 21
2.000000000
 31
0.000000000
  0
LINE
  5
AC5
330
A02
100
AcDbEntity
  8
SheetCutProfiles
100
AcDbLine
 10
442.387500000
 20
13.600000000
 30
0.000000000
 11
420.162500000
 21
13.600000000
 31
0.000000000
  0
LINE
  5
AC6
330
A02
100
AcDbEntity
  8
SheetCutProfiles
100
AcDbLine
 10
442.387500000
 20
2.000000000
 30
0.000000000
 11
442.387500000
 21
13.600000000
 31
0.000000000
  0
ARC
  5
AC7
330
A02
100
AcDbEntity
  8
SheetCutProfiles
100
AcDbCircle
 10
444.387500000
 20
2.000000000
 30
0.000000000
 40
2.000000000
100
AcDbArc
 50
180.000000000
 51
-90.000000000
  0
LINE
  5
AC8
330
A02
100
AcDbEntity
  8
SheetCutProfiles
100
AcDbLine
 10
462.612500000
 20
0.000000000
 30
0.000000000
 11
444.387500000
 21
0.000000000
 31
0.000000000
  0
ARC
  5
AC9
330
A02
100
AcDbEntity
  8
SheetCutProfiles
100
AcDbCircle
 10
462.612500000
 20
2.000000000
 30
0.000000000
 40
2.000000000
100
AcDbArc
 50
-90.000000000
 51
0.000000000
  0
LINE
  5
ACA
330
A02
100
AcDbEntity
  8
SheetCutProfiles
100
AcDbLine
 10
464.612500000
 20
13.600000000
 30
0.000000000
 11
464.612500000
 21
2.000000000
 31
0.000000000
  0
LINE
  5
ACB
330
A02
100
AcDbEntity
  8
SheetCutProfiles
100
AcDbLine
 10
486.837500000
 20
13.600000000
 30
0.000000000
 11
464.612500000
 21
13.600000000
 31
0.000000000
  0
LINE
  5
ACC
330
A02
100
AcDbEntity
  8
SheetCutProfiles
100
AcDbLine
 10
486.837500000
 20
2.000000000
 30
0.000000000
 11
486.837500000
 21
13.600000000
 31
0.000000000
  0
ARC
  5
ACD
330
A02
100
AcDbEntity
  8
SheetCutProfiles
100
AcDbCircle
 10
488.837500000
 20
2.000000000
 30
0.000000000
 40
2.000000000
100
AcDbArc
 50
180.000000000
 51
-90.000000000
  0
LINE
  5
ACE
330
A02
100
AcDbEntity
  8
SheetCutProfiles
100
AcDbLine
 10
507.062500000
 20
0.000000000
 30
0.000000000
 11
488.837500000
 21
0.000000000
 31
0.000000000
  0
ARC
  5
ACF
330
A02
100
AcDbEntity
  8
SheetCutProfiles
100
AcDbCircle
 10
507.062500000
 20
2.000000000
 30
0.000000000
 40
2.000000000
100
AcDbArc
 50
-90.000000000
 51
0.000000000
  0
LINE
  5
AD0
330
A02
100
AcDbEntity
  8
SheetCutProfiles
100
AcDbLine
 10
529.700000000
 20
554.887500000
 30
0.000000000
 11
529.700000000
 21
638.162500000
 31
0.000000000
  0
LINE
  5
AD1
330
A02
100
AcDbEntity
  8
SheetCutProfiles
100
AcDbLine
 10
523.900000000
 20
554.887500000
 30
0.000000000
 11
529.700000000
 21
554.887500000
 31
0.000000000
  0
LINE
  5
AD2
330
A02
100
AcDbEntity
  8
SheetCutProfiles
100
AcDbLine
 10
523.900000000
 20
638.162500000
 30
0.000000000
 11
523.900000000
 21
554.887500000
 31
0.000000000
  0
LINE
  5
AD3
330
A02
100
AcDbEntity
  8
SheetCutProfiles
100
AcDbLine
 10
529.700000000
 20
638.162500000
 30
0.000000000
 11
523.900000000
 21
638.162500000
 31
0.000000000
  0
LINE
  5
AD4
330
A02
100
AcDbEntity
  8
SheetCutProfiles
100
AcDbLine
 10
529.700000000
 20
388.337500000
 30
0.000000000
 11
529.700000000
 21
471.612500000
 31
0.000000000
  0
LINE
  5
AD5
330
A02
100
AcDbEntity
  8
SheetCutProfiles
100
AcDbLine
 10
523.900000000
 20
388.337500000
 30
0.000000000
 11
529.700000000
 21
388.337500000
 31
0.000000000
  0
LINE
  5
AD6
330
A02
100
AcDbEntity
  8
SheetCutProfiles
100
AcDbLine
 10
523.900000000
 20
471.612500000
 30
0.000000000
 11
523.900000000
 21
388.337500000
 31
0.000000000
  0
LINE
  5
AD7
330
A02
100
AcDbEntity
  8
SheetCutProfiles
100
AcDbLine
 10
529.700000000
 20
471.612500000
 30
0.000000000
 11
523.900000000
 21
471.612500000
 31
0.000000000
  0
CIRCLE
  5
AD8
330
A02
100
AcDbEntity
  8
SheetCutProfiles
100
AcDbCircle
 10
453.500000000
 20
576.500000000
 30
0.000000000
 40
3.000000000
  0
LINE
  5
AD9
330
A02
100
AcDbEntity
  8
SheetCutProfiles
100
AcDbLine
 10
529.700000000
 20
221.787500000
 30
0.000000000
 11
529.700000000
 21
305.062500000
 31
0.000000000
  0
LINE
  5
ADA
330
A02
100
AcDbEntity
  8
SheetCutProfiles
100
AcDbLine
 10
523.900000000
 20
221.787500000
 30
0.000000000
 11
529.700000000
 21
221.787500000
 31
0.000000000
  0
LINE
  5
ADB
330
A02
100
AcDbEntity
  8
SheetCutProfiles
100
AcDbLine
 10
523.900000000
 20
305.062500000
 30
0.000000000
 11
523.900000000
 21
221.787500000
 31
0.000000000
  0
LINE
  5
ADC
330
A02
100
AcDbEntity
  8
SheetCutProfiles
100
AcDbLine
 10
529.700000000
 20
305.062500000
 30
0.000000000
 11
523.900000000
 21
305.062500000
 31
0.000000000
  0
LINE
  5
ADD
330
A02
100
AcDbEntity
  8
SheetCutProfiles
100
AcDbLine
 10
529.700000000
 20
55.237500000
 30
0.000000000
 11
529.700000000
 21
138.512500000
 31
0.000000000
  0
LINE
  5
ADE
330
A02
100
AcDbEntity
  8
SheetCutProfiles
100
AcDbLine
 10
523.900000000
 20
55.237500000
 30
0.000000000
 11
529.700000000
 21
55.237500000
 31
0.000000000
  0
LINE
  5
ADF
330
A02
100
AcDbEntity
  8
SheetCutProfiles
100
AcDbLine
 10
523.900000000
 20
138.512500000
 30
0.000000000
 11
523.900000000
 21
55.237500000
 31
0.000000000
  0
LINE
  5
AE0
330
A02
100
AcDbEntity
  8
SheetCutProfiles
100
AcDbLine
 10
529.700000000
 20
138.512500000
 30
0.000000000
 11
523.900000000
 21
138.512500000
 31
0.000000000
  0
CIRCLE
  5
AE1
330
A02
100
AcDbEntity
  8
SheetCutProfiles
100
AcDbCircle
 10
453.500000000
 20
116.900000000
 30
0.000000000
 40
3.000000000
  0
LINE
  5
AE2
330
A02
100
AcDbEntity
  8
SheetCutProfiles
100
AcDbLine
 10
723.200000000
 20
693.400000000
 30
0.000000000
 11
716.087500000
 21
693.400000000
 31
0.000000000
  0
ARC
  5
AE3
330
A02
100
AcDbEntity
  8
SheetCutProfiles
100
AcDbCircle
 10
723.200000000
 20
691.400000000
 30
0.000000000
 40
2.000000000
100
AcDbArc
 50
0.000000000
 51
90.000000000
  0
LINE
  5
AE4
330
A02
100
AcDbEntity
  8
SheetCutProfiles
100
AcDbLine
 10
725.200000000
 20
691.400000000
 30
0.000000000
 11
725.200000000
 21
2.000000000
 31
0.000000000
  0
ARC
  5
AE5
330
A02
100
AcDbEntity
  8
SheetCutProfiles
100
AcDbCircle
 10
723.200000000
 20
2.000000000
 30
0.000000000
 40
2.000000000
100
AcDbArc
 50
-90.000000000
 51
0.000000000
  0
LINE
  5
AE6
330
A02
100
AcDbEntity
  8
SheetCutProfiles
100
AcDbLine
 10
723.200000000
 20
0.000000000
 30
0.000000000
 11
716.087500000
 21
0.000000000
 31
0.000000000
  0
ARC
  5
AE7
330
A02
100
AcDbEntity
  8
SheetCutProfiles
100
AcDbCircle
 10
716.087500000
 20
2.000000000
 30
0.000000000
 40
2.000000000
100
AcDbArc
 50
180.000000000
 51
-90.000000000
  0
LINE
  5
AE8
330
A02
100
AcDbEntity
  8
SheetCutProfiles
100
AcDbLine
 10
714.087500000
 20
13.600000000
 30
0.000000000
 11
714.087500000
 21
2.000000000
 31
0.000000000
  0
LINE
  5
AE9
330
A02
100
AcDbEntity
  8
SheetCutProfiles
100
AcDbLine
 10
691.862500000
 20
13.600000000
 30
0.000000000
 11
714.087500000
 21
13.600000000
 31
0.000000000
  0
LINE
  5
AEA
330
A02
100
AcDbEntity
  8
SheetCutProfiles
100
AcDbLine
 10
691.862500000
 20
2.000000000
 30
0.000000000
 11
691.862500000
 21
13.600000000
 31
0.000000000
  0
ARC
  5
AEB
330
A02
100
AcDbEntity
  8
SheetCutProfiles
100
AcDbCircle
 10
689.862500000
 20
2.000000000
 30
0.000000000
 40
2.000000000
100
AcDbArc
 50
-90.000000000
 51
0.000000000
  0
LINE
  5
AEC
330
A02
100
AcDbEntity
  8
SheetCutProfiles
100
AcDbLine
 10
689.862500000
 20
0.000000000
 30
0.000000000
 11
671.637500000
 21
0.000000000
 31
0.000000000
  0
ARC
  5
AED
330
A02
100
AcDbEntity
  8
SheetCutProfiles
100
AcDbCircle
 10
671.637500000
 20
2.000000000
 30
0.000000000
 40
2.000000000
100
AcDbArc
 50
180.000000000
 51
-90.000000000
  0
LINE
  5
AEE
330
A02
100
AcDbEntity
  8
SheetCutProfiles
100
AcDbLine
 10
669.637500000
 20
13.600000000
 30
0.000000000
 11
669.637500000
 21
2.000000000
 31
0.000000000
  0
LINE
  5
AEF
330
A02
100
AcDbEntity
  8
SheetCutProfiles
100
AcDbLine
 10
647.412500000
 20
13.600000000
 30
0.000000000
 11
669.637500000
 21
13.600000000
 31
0.000000000
  0
LINE
  5
AF0
330
A02
100
AcDbEntity
  8
SheetCutProfiles
100
AcDbLine
 10
647.412500000
 20
2.000000000
 30
0.000000000
 11
647.412500000
 21
13.600000000
 31
0.000000000
  0
ARC
  5
AF1
330
A02
100
AcDbEntity
  8
SheetCutProfiles
100
AcDbCircle
 10
645.412500000
 20
2.000000000
 30
0.000000000
 40
2.000000000
100
AcDbArc
 50
-90.000000000
 51
0.000000000
  0
LINE
  5
AF2
330
A02
100
AcDbEntity
  8
SheetCutProfiles
100
AcDbLine
 10
645.412500000
 20
0.000000000
 30
0.000000000
 11
627.187500000
 21
0.000000000
 31
0.000000000
  0
ARC
  5
AF3
330
A02
100
AcDbEntity
  8
SheetCutProfiles
100
AcDbCircle
 10
627.187500000
 20
2.000000000
 30
0.000000000
 40
2.000000000
100
AcDbArc
 50
180.000000000
 51
-90.000000000
  0
LINE
  5
AF4
330
A02
100
AcDbEntity
  8
SheetCutProfiles
100
AcDbLine
 10
625.187500000
 20
13.600000000
 30
0.000000000
 11
625.187500000
 21
2.000000000
 31
0.000000000
  0
LINE
  5
AF5
330
A02
100
AcDbEntity
  8
SheetCutProfiles
100
AcDbLine
 10
602.962500000
 20
13.600000000
 30
0.000000000
 11
625.187500000
 21
13.600000000
 31
0.000000000
  0
LINE
  5
AF6
330
A02
100
AcDbEntity
  8
SheetCutProfiles
100
AcDbLine
 10
602.962500000
 20
2.000000000
 30
0.000000000
 11
602.962500000
 21
13.600000000
 31
0.000000000
  0
ARC
  5
AF7
330
A02
100
AcDbEntity
  8
SheetCutProfiles
100
AcDbCircle
 10
600.962500000
 20
2.000000000
 30
0.000000000
 40
2.000000000
100
AcDbArc
 50
-90.000000000
 51
0.000000000
  0
LINE
  5
AF8
330
A02
100
AcDbEntity
  8
SheetCutProfiles
100
AcDbLine
 10
600.962500000
 20
0.000000000
 30
0.000000000
 11
582.737500000
 21
0.000000000
 31
0.000000000
  0
ARC
  5
AF9
330
A02
100
AcDbEntity
  8
SheetCutProfiles
100
AcDbCircle
 10
582.737500000
 20
2.000000000
 30
0.000000000
 40
2.000000000
100
AcDbArc
 50
180.000000000
 51
-90.000000000
  0
LINE
  5
AFA
330
A02
100
AcDbEntity
  8
SheetCutProfiles
100
AcDbLine
 10
580.737500000
 20
13.600000000
 30
0.000000000
 11
580.737500000
 21
2.000000000
 31
0.000000000
  0
LINE
  5
AFB
330
A02
100
AcDbEntity
  8
SheetCutProfiles
100
AcDbLine
 10
558.512500000
 20
13.600000000
 30
0.000000000
 11
580.737500000
 21
13.600000000
 31
0.000000000
  0
LINE
  5
AFC
330
A02
100
AcDbEntity
  8
SheetCutProfiles
100
AcDbLine
 10
558.512500000
 20
2.000000000
 30
0.000000000
 11
558.512500000
 21
13.600000000
 31
0.000000000
  0
ARC
  5
AFD
330
A02
100
AcDbEntity
  8
SheetCutProfiles
100
AcDbCircle
 10
556.512500000
 20
2.000000000
 30
0.000000000
 40
2.000000000
100
AcDbArc
 50
-90.000000000
 51
0.000000000
  0
LINE
  5
AFE
330
A02
100
AcDbEntity
  8
SheetCutProfiles
100
AcDbLine
 10
556.512500000
 20
0.000000000
 30
0.000000000
 11
549.400000000
 21
0.000000000
 31
0.000000000
  0
ARC
  5
AFF
330
A02
100
AcDbEntity
  8
SheetCutProfiles
100
AcDbCircle
 10
549.400000000
 20
2.000000000
 30
0.000000000
 40
2.000000000
100
AcDbArc
 50
180.000000000
 51
-90.000000000
  0
LINE
  5
B00
330
A02
100
AcDbEntity
  8
SheetCutProfiles
100
AcDbLine
 10
547.400000000
 20
691.400000000
 30
0.000000000
 11
547.400000000
 21
2.000000000
 31
0.000000000
  0
ARC
  5
B01
330
A02
100
AcDbEntity
  8
SheetCutProfiles
100
AcDbCircle
 10
549.400000000
 20
691.400000000
 30
0.000000000
 40
2.000000000
100
AcDbArc
 50
90.000000000
 51
180.000000000
  0
LINE
  5
B02
330
A02
100
AcDbEntity
  8
SheetCutProfiles
100
AcDbLine
 10
556.512500000
 20
693.400000000
 30
0.000000000
 11
549.400000000
 21
693.400000000
 31
0.000000000
  0
ARC
  5
B03
330
A02
100
AcDbEntity
  8
SheetCutProfiles
100
AcDbCircle
 10
556.512500000
 20
691.400000000
 30
0.000000000
 40
2.000000000
100
AcDbArc
 50
0.000000000
 51
90.000000000
  0
LINE
  5
B04
330
A02
100
AcDbEntity
  8
SheetCutProfiles
100
AcDbLine
 10
558.512500000
 20
679.800000000
 30
0.000000000
 11
558.512500000
 21
691.400000000
 31
0.000000000
  0
LINE
  5
B05
330
A02
100
AcDbEntity
  8
SheetCutProfiles
100
AcDbLine
 10
580.737500000
 20
679.800000000
 30
0.000000000
 11
558.512500000
 21
679.800000000
 31
0.000000000
  0
LINE
  5
B06
330
A02
100
AcDbEntity
  8
SheetCutProfiles
100
AcDbLine
 10
580.737500000
 20
691.400000000
 30
0.000000000
 11
580.737500000
 21
679.800000000
 31
0.000000000
  0
ARC
  5
B07
330
A02
100
AcDbEntity
  8
SheetCutProfiles
100
AcDbCircle
 10
582.737500000
 20
691.400000000
 30
0.000000000
 40
2.000000000
100
AcDbArc
 50
90.000000000
 51
180.000000000
  0
LINE
  5
B08
330
A02
100
AcDbEntity
  8
SheetCutProfiles
100
AcDbLine
 10
600.962500000
 20
693.400000000
 30
0.000000000
 11
582.737500000
 21
693.400000000
 31
0.000000000
  0
ARC
  5
B09
330
A02
100
AcDbEntity
  8
SheetCutProfiles
100
AcDbCircle
 10
600.962500000
 20
691.400000000
 30
0.000000000
 40
2.000000000
100
AcDbArc
 50
0.000000000
 51
90.000000000
  0
LINE
  5
B0A
330
A02
100
AcDbEntity
  8
SheetCutProfiles
100
AcDbLine
 10
602.962500000
 20
679.800000000
 30
0.000000000
 11
602.962500000
 21
691.400000000
 31
0.000000000
  0
LINE
  5
B0B
330
A02
100
AcDbEntity
  8
SheetCutProfiles
100
AcDbLine
 10
625.187500000
 20
679.800000000
 30
0.000000000
 11
602.962500000
 21
679.800000000
 31
0.000000000
  0
LINE
  5
B0C
330
A02
100
AcDbEntity
  8
SheetCutProfiles
100
AcDbLine
 10
625.187500000
 20
691.400000000
 30
0.000000000
 11
625.187500000
 21
679.800000000
 31
0.000000000
  0
ARC
  5
B0D
330
A02
100
AcDbEntity
  8
SheetCutProfiles
100
AcDbCircle
 10
627.187500000
 20
691.400000000
 30
0.000000000
 40
2.000000000
100
AcDbArc
 50
90.000000000
 51
180.000000000
  0
LINE
  5
B0E
330
A02
100
AcDbEntity
  8
SheetCutProfiles
100
AcDbLine
 10
645.412500000
 20
693.400000000
 30
0.000000000
 11
627.187500000
 21
693.400000000
 31
0.000000000
  0
ARC
  5
B0F
330
A02
100
AcDbEntity
  8
SheetCutProfiles
100
AcDbCircle
 10
645.412500000
 20
691.400000000
 30
0.000000000
 40
2.000000000
100
AcDbArc
 50
0.000000000
 51
90.000000000
  0
LINE
  5
B10
330
A02
100
AcDbEntity
  8
SheetCutProfiles
100
AcDbLine
 10
647.412500000
 20
679.800000000
 30
0.000000000
 11
647.412500000
 21
691.400000000
 31
0.000000000
  0
LINE
  5
B11
330
A02
100
AcDbEntity
  8
SheetCutProfiles
100
AcDbLine
 10
669.637500000
 20
679.800000000
 30
0.000000000
 11
647.412500000
 21
679.800000000
 31
0.000000000
  0
LINE
  5
B12
330
A02
100
AcDbEntity
  8
SheetCutProfiles
100
AcDbLine
 10
669.637500000
 20
691.400000000
 30
0.000000000
 11
669.637500000
 21
679.800000000
 31
0.000000000
  0
ARC
  5
B13
330
A02
100
AcDbEntity
  8
SheetCutProfiles
100
AcDbCircle
 10
671.637500000
 20
691.400000000
 30
0.000000000
 40
2.000000000
100
AcDbArc
 50
90.000000000
 51
180.000000000
  0
LINE
  5
B14
330
A02
100
AcDbEntity
  8
SheetCutProfiles
100
AcDbLine
 10
689.862500000
 20
693.400000000
 30
0.000000000
 11
671.637500000
 21
693.400000000
 31
0.000000000
  0
ARC
  5
B15
330
A02
100
AcDbEntity
  8
SheetCutProfiles
100
AcDbCircle
 10
689.862500000
 20
691.400000000
 30
0.000000000
 40
2.000000000
100
AcDbArc
 50
0.000000000
 51
90.000000000
  0
LINE
  5
B16
330
A02
100
AcDbEntity
  8
SheetCutProfiles
100
AcDbLine
 10
691.862500000
 20
679.800000000
 30
0.000000000
 11
691.862500000
 21
691.400000000
 31
0.000000000
  0
LINE
  5
B17
330
A02
100
AcDbEntity
  8
SheetCutProfiles
100
AcDbLine
 10
714.087500000
 20
679.800000000
 30
0.000000000
 11
691.862500000
 21
679.800000000
 31
0.000000000
  0
LINE
  5
B18
330
A02
100
AcDbEntity
  8
SheetCutProfiles
100
AcDbLine
 10
714.087500000
 20
691.400000000
 30
0.000000000
 11
714.087500000
 21
679.800000000
 31
0.000000000
  0
ARC
  5
B19
330
A02
100
AcDbEntity
  8
SheetCutProfiles
100
AcDbCircle
 10
716.087500000
 20
691.400000000
 30
0.000000000
 40
2.000000000
100
AcDbArc
 50
90.000000000
 51
180.000000000
  0
LINE
  5
B1A
330
A02
100
AcDbEntity
  8
SheetCutProfiles
100
AcDbLine
 10
706.700000000
 20
55.237500000
 30
0.000000000
 11
706.700000000
 21
138.512500000
 31
0.000000000
  0
LINE
  5
B1B
330
A02
100
AcDbEntity
  8
SheetCutProfiles
100
AcDbLine
 10
712.500000000
 20
55.237500000
 30
0.000000000
 11
706.700000000
 21
55.237500000
 31
0.000000000
  0
LINE
  5
B1C
330
A02
100
AcDbEntity
  8
SheetCutProfiles
100
AcDbLine
 10
712.500000000
 20
138.512500000
 30
0.000000000
 11
712.500000000
 21
55.237500000
 31
0.000000000
  0
LINE
  5
B1D
330
A02
100
AcDbEntity
  8
SheetCutProfiles
100
AcDbLine
 10
706.700000000
 20
138.512500000
 30
0.000000000
 11
712.500000000
 21
138.512500000
 31
0.000000000
  0
LINE
  5
B1E
330
A02
100
AcDbEntity
  8
SheetCutProfiles
100
AcDbLine
 10
706.700000000
 20
221.787500000
 30
0.000000000
 11
706.700000000
 21
305.062500000
 31
0.000000000
  0
LINE
  5
B1F
330
A02
100
AcDbEntity
  8
SheetCutProfiles
100
AcDbLine
 10
712.500000000
 20
221.787500000
 30
0.000000000
 11
706.700000000
 21
221.787500000
 31
0.000000000
  0
LINE
  5
B20
330
A02
100
AcDbEntity
  8
SheetCutProfiles
100
AcDbLine
 10
712.500000000
 20
305.062500000
 30
0.000000000
 11
712.500000000
 21
221.787500000
 31
0.000000000
  0
LINE
  5
B21
330
A02
100
AcDbEntity
  8
SheetCutProfiles
100
AcDbLine
 10
706.700000000
 20
305.062500000
 30
0.000000000
 11
712.500000000
 21
305.062500000
 31
0.000000000
  0
CIRCLE
  5
B22
330
A02
100
AcDbEntity
  8
SheetCutProfiles
100
AcDbCircle
 10
636.300000000
 20
116.900000000
 30
0.000000000
 40
3.000000000
  0
LINE
  5
B23
330
A02
100
AcDbEntity
  8
SheetCutProfiles
100
AcDbLine
 10
706.700000000
 20
388.337500000
 30
0.000000000
 11
706.700000000
 21
471.612500000
 31
0.000000000
  0
LINE
  5
B24
330
A02
100
AcDbEntity
  8
SheetCutProfiles
100
AcDbLine
 10
712.500000000
 20
388.337500000
 30
0.000000000
 11
706.700000000
 21
388.337500000
 31
0.000000000
  0
LINE
  5
B25
330
A02
100
AcDbEntity
  8
SheetCutProfiles
100
AcDbLine
 10
712.500000000
 20
471.612500000
 30
0.000000000
 11
712.500000000
 21
388.337500000
 31
0.000000000
  0
LINE
  5
B26
330
A02
100
AcDbEntity
  8
SheetCutProfiles
100
AcDbLine
 10
706.700000000
 20
471.612500000
 30
0.000000000
 11
712.500000000
 21
471.612500000
 31
0.000000000
  0
LINE
  5
B27
330
A02
100
AcDbEntity
  8
SheetCutProfiles
100
AcDbLine
 10
706.700000000
 20
554.887500000
 30
0.000000000
 11
706.700000000
 21
638.162500000
 31
0.000000000
  0
LINE
  5
B28
330
A02
100
AcDbEntity
  8
SheetCutProfiles
100
AcDbLine
 10
712.500000000
 20
554.887500000
 30
0.000000000
 11
706.700000000
 21
554.887500000
 31
0.000000000
  0
LINE
  5
B29
330
A02
100
AcDbEntity
  8
SheetCutProfiles
100
AcDbLine
 10
712.500000000
 20
638.162500000
 30
0.000000000
 11
712.500000000
 21
554.887500000
 31
0.000000000
  0
LINE
  5
B2A
330
A02
100
AcDbEntity
  8
SheetCutProfiles
100
AcDbLine
 10
706.700000000
 20
638.162500000
 30
0.000000000
 11
712.500000000
 21
638.162500000
 31
0.000000000
  0
CIRCLE
  5
B2B
330
A02
100
AcDbEntity
  8
SheetCutProfiles
100
AcDbCircle
 10
636.300000000
 20
576.500000000
 30
0.000000000
 40
3.000000000
  0
LINE
  5
B2C
330
A02
100
AcDbEntity
  8
SheetCutProfiles
100
AcDbLine
 10
748.950000000
 20
484.800000000
 30
0.000000000
 11
748.950000000
 21
488.600000000
 31
0.000000000
  0
LINE
  5
B2D
330
A02
100
AcDbEntity
  8
SheetCutProfiles
100
AcDbLine
 10
748.950000000
 20
484.800000000
 30
0.000000000
 11
761.450000000
 21
484.800000000
 31
0.000000000
  0
LINE
  5
B2E
330
A02
100
AcDbEntity
  8
SheetCutProfiles
100
AcDbLine
 10
761.450000000
 20
488.600000000
 30
0.000000000
 11
761.450000000
 21
484.800000000
 31
0.000000000
  0
ARC
  5
B2F
330
A02
100
AcDbEntity
  8
SheetCutProfiles
100
AcDbCircle
 10
763.450000000
 20
488.600000000
 30
0.000000000
 40
2.000000000
100
AcDbArc
 50
90.000000000
 51
180.000000000
  0
LINE
  5
B30
330
A02
100
AcDbEntity
  8
SheetCutProfiles
100
AcDbLine
 10
763.450000000
 20
490.600000000
 30
0.000000000
 11
771.950000000
 21
490.600000000
 31
0.000000000
  0
ARC
  5
B31
330
A02
100
AcDbEntity
  8
SheetCutProfiles
100
AcDbCircle
 10
771.950000000
 20
488.600000000
 30
0.000000000
 40
2.000000000
100
AcDbArc
 50
0.000000000
 51
90.000000000
  0
LINE
  5
B32
330
A02
100
AcDbEntity
  8
SheetCutProfiles
100
AcDbLine
 10
773.950000000
 20
484.800000000
 30
0.000000000
 11
773.950000000
 21
488.600000000
 31
0.000000000
  0
LINE
  5
B33
330
A02
100
AcDbEntity
  8
SheetCutProfiles
100
AcDbLine
 10
773.950000000
 20
484.800000000
 30
0.000000000
 11
786.450000000
 21
484.800000000
 31
0.000000000
  0
LINE
  5
B34
330
A02
100
AcDbEntity
  8
SheetCutProfiles
100
AcDbLine
 10
786.450000000
 20
488.600000000
 30
0.000000000
 11
786.450000000
 21
484.800000000
 31
0.000000000
  0
ARC
  5
B35
330
A02
100
AcDbEntity
  8
SheetCutProfiles
100
AcDbCircle
 10
788.450000000
 20
488.600000000
 30
0.000000000
 40
2.000000000
100
AcDbArc
 50
90.000000000
 51
180.000000000
  0
LINE
  5
B36
330
A02
100
AcDbEntity
  8
SheetCutProfiles
100
AcDbLine
 10
788.450000000
 20
490.600000000
 30
0.000000000
 11
796.950000000
 21
490.600000000
 31
0.000000000
  0
ARC
  5
B37
330
A02
100
AcDbEntity
  8
SheetCutProfiles
100
AcDbCircle
 10
796.950000000
 20
488.600000000
 30
0.000000000
 40
2.000000000
100
AcDbArc
 50
0.000000000
 51
90.000000000
  0
LINE
  5
B38
330
A02
100
AcDbEntity
  8
SheetCutProfiles
100
AcDbLine
 10
798.950000000
 20
484.800000000
 30
0.000000000
 11
798.950000000
 21
488.600000000
 31
0.000000000
  0
LINE
  5
B39
330
A02
100
AcDbEntity
  8
SheetCutProfiles
100
AcDbLine
 10
798.950000000
 20
484.800000000
 30
0.000000000
 11
811.450000000
 21
484.800000000
 31
0.000000000
  0
LINE
  5
B3A
330
A02
100
AcDbEntity
  8
SheetCutProfiles
100
AcDbLine
 10
811.450000000
 20
488.600000000
 30
0.000000000
 11
811.450000000
 21
484.800000000
 31
0.000000000
  0
ARC
  5
B3B
330
A02
100
AcDbEntity
  8
SheetCutProfiles
100
AcDbCircle
 10
813.450000000
 20
488.600000000
 30
0.000000000
 40
2.000000000
100
AcDbArc
 50
90.000000000
 51
180.000000000
  0
LINE
  5
B3C
330
A02
100
AcDbEntity
  8
SheetCutProfiles
100
AcDbLine
 10
813.450000000
 20
490.600000000
 30
0.000000000
 11
821.950000000
 21
490.600000000
 31
0.000000000
  0
ARC
  5
B3D
330
A02
100
AcDbEntity
  8
SheetCutProfiles
100
AcDbCircle
 10
821.950000000
 20
488.600000000
 30
0.000000000
 40
2.000000000
100
AcDbArc
 50
0.000000000
 51
90.000000000
  0
LINE
  5
B3E
330
A02
100
AcDbEntity
  8
SheetCutProfiles
100
AcDbLine
 10
823.950000000
 20
484.800000000
 30
0.000000000
 11
823.950000000
 21
488.600000000
 31
0.000000000
  0
LINE
  5
B3F
330
A02
100
AcDbEntity
  8
SheetCutProfiles
100
AcDbLine
 10
823.950000000
 20
484.800000000
 30
0.000000000
 11
830.200000000
 21
484.800000000
 31
0.000000000
  0
LINE
  5
B40
330
A02
100
AcDbEntity
  8
SheetCutProfiles
100
AcDbLine
 10
830.200000000
 20
484.800000000
 30
0.000000000
 11
830.200000000
 21
13.600000000
 31
0.000000000
  0
LINE
  5
B41
330
A02
100
AcDbEntity
  8
SheetCutProfiles
100
AcDbLine
 10
823.950000000
 20
13.600000000
 30
0.000000000
 11
830.200000000
 21
13.600000000
 31
0.000000000
  0
LINE
  5
B42
330
A02
100
AcDbEntity
  8
SheetCutProfiles
100
AcDbLine
 10
823.950000000
 20
13.600000000
 30
0.000000000
 11
823.950000000
 21
2.000000000
 31
0.000000000
  0
ARC
  5
B43
330
A02
100
AcDbEntity
  8
SheetCutProfiles
100
AcDbCircle
 10
821.950000000
 20
2.000000000
 30
0.000000000
 40
2.000000000
100
AcDbArc
 50
-90.000000000
 51
0.000000000
  0
LINE
  5
B44
330
A02
100
AcDbEntity
  8
SheetCutProfiles
100
AcDbLine
 10
813.450000000
 20
0.000000000
 30
0.000000000
 11
821.950000000
 21
0.000000000
 31
0.000000000
  0
ARC
  5
B45
330
A02
100
AcDbEntity
  8
SheetCutProfiles
100
AcDbCircle
 10
813.450000000
 20
2.000000000
 30
0.000000000
 40
2.000000000
100
AcDbArc
 50
180.000000000
 51
-90.000000000
  0
LINE
  5
B46
330
A02
100
AcDbEntity
  8
SheetCutProfiles
100
AcDbLine
 10
811.450000000
 20
2.000000000
 30
0.000000000
 11
811.450000000
 21
13.600000000
 31
0.000000000
  0
LINE
  5
B47
330
A02
100
AcDbEntity
  8
SheetCutProfiles
100
AcDbLine
 10
798.950000000
 20
13.600000000
 30
0.000000000
 11
811.450000000
 21
13.600000000
 31
0.000000000
  0
LINE
  5
B48
330
A02
100
AcDbEntity
  8
SheetCutProfiles
100
AcDbLine
 10
798.950000000
 20
13.600000000
 30
0.000000000
 11
798.950000000
 21
2.000000000
 31
0.000000000
  0
ARC
  5
B49
330
A02
100
AcDbEntity
  8
SheetCutProfiles
100
AcDbCircle
 10
796.950000000
 20
2.000000000
 30
0.000000000
 40
2.000000000
100
AcDbArc
 50
-90.000000000
 51
0.000000000
  0
LINE
  5
B4A
330
A02
100
AcDbEntity
  8
SheetCutProfiles
100
AcDbLine
 10
788.450000000
 20
0.000000000
 30
0.000000000
 11
796.950000000
 21
0.000000000
 31
0.000000000
  0
ARC
  5
B4B
330
A02
100
AcDbEntity
  8
SheetCutProfiles
100
AcDbCircle
 10
788.450000000
 20
2.000000000
 30
0.000000000
 40
2.000000000
100
AcDbArc
 50
180.000000000
 51
-90.000000000
  0
LINE
  5
B4C
330
A02
100
AcDbEntity
  8
SheetCutProfiles
100
AcDbLine
 10
786.450000000
 20
2.000000000
 30
0.000000000
 11
786.450000000
 21
13.600000000
 31
0.000000000
  0
LINE
  5
B4D
330
A02
100
AcDbEntity
  8
SheetCutProfiles
100
AcDbLine
 10
773.950000000
 20
13.600000000
 30
0.000000000
 11
786.450000000
 21
13.600000000
 31
0.000000000
  0
LINE
  5
B4E
330
A02
100
AcDbEntity
  8
SheetCutProfiles
100
AcDbLine
 10
773.950000000
 20
13.600000000
 30
0.000000000
 11
773.950000000
 21
2.000000000
 31
0.000000000
  0
ARC
  5
B4F
330
A02
100
AcDbEntity
  8
SheetCutProfiles
100
AcDbCircle
 10
771.950000000
 20
2.000000000
 30
0.000000000
 40
2.000000000
100
AcDbArc
 50
-90.000000000
 51
0.000000000
  0
LINE
  5
B50
330
A02
100
AcDbEntity
  8
SheetCutProfiles
100
AcDbLine
 10
763.450000000
 20
0.000000000
 30
0.000000000
 11
771.950000000
 21
0.000000000
 31
0.000000000
  0
ARC
  5
B51
330
A02
100
AcDbEntity
  8
SheetCutProfiles
100
AcDbCircle
 10
763.450000000
 20
2.000000000
 30
0.000000000
 40
2.000000000
100
AcDbArc
 50
180.000000000
 51
-90.000000000
  0
LINE
  5
B52
330
A02
100
AcDbEntity
  8
SheetCutProfiles
100
AcDbLine
 10
761.450000000
 20
2.000000000
 30
0.000000000
 11
761.450000000
 21
13.600000000
 31
0.000000000
  0
LINE
  5
B53
330
A02
100
AcDbEntity
  8
SheetCutProfiles
100
AcDbLine
 10
748.950000000
 20
13.600000000
 30
0.000000000
 11
761.450000000
 21
13.600000000
 31
0.000000000
  0
LINE
  5
B54
330
A02
100
AcDbEntity
  8
SheetCutProfiles
100
AcDbLine
 10
748.950000000
 20
13.600000000
 30
0.000000000
 11
748.950000000
 21
2.000000000
 31
0.000000000
  0
ARC
  5
B55
330
A02
100
AcDbEntity
  8
SheetCutProfiles
100
AcDbCircle
 10
746.950000000
 20
2.000000000
 30
0.000000000
 40
2.000000000
100
AcDbArc
 50
-90.000000000
 51
0.000000000
  0
LINE
  5
B56
330
A02
100
AcDbEntity
  8
SheetCutProfiles
100
AcDbLine
 10
738.450000000
 20
0.000000000
 30
0.000000000
 11
746.950000000
 21
0.000000000
 31
0.000000000
  0
ARC
  5
B57
330
A02
100
AcDbEntity
  8
SheetCutProfiles
100
AcDbCircle
 10
738.450000000
 20
2.000000000
 30
0.000000000
 40
2.000000000
100
AcDbArc
 50
180.000000000
 51
-90.000000000
  0
LINE
  5
B58
330
A02
100
AcDbEntity
  8
SheetCutProfiles
100
AcDbLine
 10
736.450000000
 20
2.000000000
 30
0.000000000
 11
736.450000000
 21
13.600000000
 31
0.000000000
  0
LINE
  5
B59
330
A02
100
AcDbEntity
  8
SheetCutProfiles
100
AcDbLine
 10
730.200000000
 20
13.600000000
 30
0.000000000
 11
736.450000000
 21
13.600000000
 31
0.000000000
  0
LINE
  5
B5A
330
A02
100
AcDbEntity
  8
SheetCutProfiles
100
AcDbLine
 10
730.200000000
 20
484.800000000
 30
0.000000000
 11
730.200000000
 21
13.600000000
 31
0.000000000
  0
LINE
  5
B5B
330
A02
100
AcDbEntity
  8
SheetCutProfiles
100
AcDbLine
 10
730.200000000
 20
484.800000000
 30
0.000000000
 11
736.450000000
 21
484.800000000
 31
0.000000000
  0
LINE
  5
B5C
330
A02
100
AcDbEntity
  8
SheetCutProfiles
100
AcDbLine
 10
736.450000000
 20
488.600000000
 30
0.000000000
 11
736.450000000
 21
484.800000000
 31
0.000000000
  0
ARC
  5
B5D
330
A02
100
AcDbEntity
  8
SheetCutProfiles
100
AcDbCircle
 10
738.450000000
 20
488.600000000
 30
0.000000000
 40
2.000000000
100
AcDbArc
 50
90.000000000
 51
180.000000000
  0
LINE
  5
B5E
330
A02
100
AcDbEntity
  8
SheetCutProfiles
100
AcDbLine
 10
738.450000000
 20
490.600000000
 30
0.000000000
 11
746.950000000
 21
490.600000000
 31
0.000000000
  0
ARC
  5
B5F
330
A02
100
AcDbEntity
  8
SheetCutProfiles
100
AcDbCircle
 10
746.950000000
 20
488.600000000
 30
0.000000000
 40
2.000000000
100
AcDbArc
 50
0.000000000
 51
90.000000000
  0
LINE
  5
B60
330
A02
100
AcDbEntity
  8
SheetCutProfiles
100
AcDbLine
 10
817.500000000
 20
101.950000000
 30
0.000000000
 11
817.500000000
 21
43.050000000
 31
0.000000000
  0
LINE
  5
B61
330
A02
100
AcDbEntity
  8
SheetCutProfiles
100
AcDbLine
 10
811.700000000
 20
101.950000000
 30
0.000000000
 11
817.500000000
 21
101.950000000
 31
0.000000000
  0
LINE
  5
B62
330
A02
100
AcDbEntity
  8
SheetCutProfiles
100
AcDbLine
 10
811.700000000
 20
43.050000000
 30
0.000000000
 11
811.700000000
 21
101.950000000
 31
0.000000000
  0
LINE
  5
B63
330
A02
100
AcDbEntity
  8
SheetCutProfiles
100
AcDbLine
 10
817.500000000
 20
43.050000000
 30
0.000000000
 11
811.700000000
 21
43.050000000
 31
0.000000000
  0
LINE
  5
B64
330
A02
100
AcDbEntity
  8
SheetCutProfiles
100
AcDbLine
 10
817.500000000
 20
219.750000000
 30
0.000000000
 11
817.500000000
 21
160.850000000
 31
0.000000000
  0
LINE
  5
B65
330
A02
100
AcDbEntity
  8
SheetCutProfiles
100
AcDbLine
 10
811.700000000
 20
219.750000000
 30
0.000000000
 11
817.500000000
 21
219.750000000
 31
0.000000000
  0
LINE
  5
B66
330
A02
100
AcDbEntity
  8
SheetCutProfiles
100
AcDbLine
 10
811.700000000
 20
160.850000000
 30
0.000000000
 11
811.700000000
 21
219.750000000
 31
0.000000000
  0
LINE
  5
B67
330
A02
100
AcDbEntity
  8
SheetCutProfiles
100
AcDbLine
 10
817.500000000
 20
160.850000000
 30
0.000000000
 11
811.700000000
 21
160.850000000
 31
0.000000000
  0
CIRCLE
  5
B68
330
A02
100
AcDbEntity
  8
SheetCutProfiles
100
AcDbCircle
 10
770.700000000
 20
92.133333333
 30
0.000000000
 40
3.000000000
  0
LINE
  5
B69
330
A02
100
AcDbEntity
  8
SheetCutProfiles
100
AcDbLine
 10
817.500000000
 20
337.550000000
 30
0.000000000
 11
817.500000000
 21
278.650000000
 31
0.000000000
  0
LINE
  5
B6A
330
A02
100
AcDbEntity
  8
SheetCutProfiles
100
AcDbLine
 10
811.700000000
 20
337.550000000
 30
0.000000000
 11
817.500000000
 21
337.550000000
 31
0.000000000
  0
LINE
  5
B6B
330
A02
100
AcDbEntity
  8
SheetCutProfiles
100
AcDbLine
 10
811.700000000
 20
278.650000000
 30
0.000000000
 11
811.700000000
 21
337.550000000
 31
0.000000000
  0
LINE
  5
B6C
330
A02
100
AcDbEntity
  8
SheetCutProfiles
100
AcDbLine
 10
817.500000000
 20
278.650000000
 30
0.000000000
 11
811.700000000
 21
278.650000000
 31
0.000000000
  0
LINE
  5
B6D
330
A02
100
AcDbEntity
  8
SheetCutProfiles
100
AcDbLine
 10
817.500000000
 20
455.350000000
 30
0.000000000
 11
817.500000000
 21
396.450000000
 31
0.000000000
  0
LINE
  5
B6E
330
A02
100
AcDbEntity
  8
SheetCutProfiles
100
AcDbLine
 10
811.700000000
 20
455.350000000
 30
0.000000000
 11
817.500000000
 21
455.350000000
 31
0.000000000
  0
LINE
  5
B6F
330
A02
100
AcDbEntity
  8
SheetCutProfiles
100
AcDbLine
 10
811.700000000
 20
396.450000000
 30
0.000000000
 11
811.700000000
 21
455.350000000
 31
0.000000000
  0
LINE
  5
B70
330
A02
100
AcDbEntity
  8
SheetCutProfiles
100
AcDbLine
 10
817.500000000
 20
396.450000000
 30
0.000000000
 11
811.700000000
 21
396.450000000
 31
0.000000000
  0
CIRCLE
  5
B71
330
A02
100
AcDbEntity
  8
SheetCutProfiles
100
AcDbCircle
 10
770.700000000
 20
406.266666667
 30
0.000000000
 40
3.000000000
  0
LINE
  5
B72
330
A02
100
AcDbEntity
  8
SheetCutProfiles
100
AcDbLine
 10
853.950000000
 20
5.800000000
 30
0.000000000
 11
853.950000000
 21
2.000000000
 31
0.000000000
  0
LINE
  5
B73
330
A02
100
AcDbEntity
  8
SheetCutProfiles
100
AcDbLine
 10
853.950000000
 20
5.800000000
 30
0.000000000
 11
866.450000000
 21
5.800000000
 31
0.000000000
  0
LINE
  5
B74
330
A02
100
AcDbEntity
  8
SheetCutProfiles
100
AcDbLine
 10
866.450000000
 20
2.000000000
 30
0.000000000
 11
866.450000000
 21
5.800000000
 31
0.000000000
  0
ARC
  5
B75
330
A02
100
AcDbEntity
  8
SheetCutProfiles
100
AcDbCircle
 10
868.450000000
 20
2.000000000
 30
0.000000000
 40
2.000000000
100
AcDbArc
 50
180.000000000
 51
-90.000000000
  0
LINE
  5
B76
330
A02
100
AcDbEntity
  8
SheetCutProfiles
100
AcDbLine
 10
868.450000000
 20
0.000000000
 30
0.000000000
 11
876.950000000
 21
0.000000000
 31
0.000000000
  0
ARC
  5
B77
330
A02
100
AcDbEntity
  8
SheetCutProfiles
100
AcDbCircle
 10
876.950000000
 20
2.000000000
 30
0.000000000
 40
2.000000000
100
AcDbArc
 50
-90.000000000
 51
0.000000000
  0
LINE
  5
B78
330
A02
100
AcDbEntity
  8
SheetCutProfiles
100
AcDbLine
 10
878.950000000
 20
5.800000000
 30
0.000000000
 11
878.950000000
 21
2.000000000
 31
0.000000000
  0
LINE
  5
B79
330
A02
100
AcDbEntity
  8
SheetCutProfiles
100
AcDbLine
 10
878.950000000
 20
5.800000000
 30
0.000000000
 11
891.450000000
 21
5.800000000
 31
0.000000000
  0
LINE
  5
B7A
330
A02
100
AcDbEntity
  8
SheetCutProfiles
100
AcDbLine
 10
891.450000000
 20
2.000000000
 30
0.000000000
 11
891.450000000
 21
5.800000000
 31
0.000000000
  0
ARC
  5
B7B
330
A02
100
AcDbEntity
  8
SheetCutProfiles
100
AcDbCircle
 10
893.450000000
 20
2.000000000
 30
0.000000000
 40
2.000000000
100
AcDbArc
 50
180.000000000
 51
-90.000000000
  0
LINE
  5
B7C
330
A02
100
AcDbEntity
  8
SheetCutProfiles
100
AcDbLine
 10
893.450000000
 20
0.000000000
 30
0.000000000
 11
901.950000000
 21
0.000000000
 31
0.000000000
  0
ARC
  5
B7D
330
A02
100
AcDbEntity
  8
SheetCutProfiles
100
AcDbCircle
 10
901.950000000
 20
2.000000000
 30
0.000000000
 40
2.000000000
100
AcDbArc
 50
-90.000000000
 51
0.000000000
  0
LINE
  5
B7E
330
A02
100
AcDbEntity
  8
SheetCutProfiles
100
AcDbLine
 10
903.950000000
 20
5.800000000
 30
0.000000000
 11
903.950000000
 21
2.000000000
 31
0.000000000
  0
LINE
  5
B7F
330
A02
100
AcDbEntity
  8
SheetCutProfiles
100
AcDbLine
 10
903.950000000
 20
5.800000000
 30
0.000000000
 11
916.450000000
 21
5.800000000
 31
0.000000000
  0
LINE
  5
B80
330
A02
100
AcDbEntity
  8
SheetCutProfiles
100
AcDbLine
 10
916.450000000
 20
2.000000000
 30
0.000000000
 11
916.450000000
 21
5.800000000
 31
0.000000000
  0
ARC
  5
B81
330
A02
100
AcDbEntity
  8
SheetCutProfiles
100
AcDbCircle
 10
918.450000000
 20
2.000000000
 30
0.000000000
 40
2.000000000
100
AcDbArc
 50
180.000000000
 51
-90.000000000
  0
LINE
  5
B82
330
A02
100
AcDbEntity
  8
SheetCutProfiles
100
AcDbLine
 10
918.450000000
 20
0.000000000
 30
0.000000000
 11
926.950000000
 21
0.000000000
 31
0.000000000
  0
ARC
  5
B83
330
A02
100
AcDbEntity
  8
SheetCutProfiles
100
AcDbCircle
 10
926.950000000
 20
2.000000000
 30
0.000000000
 40
2.000000000
100
AcDbArc
 50
-90.000000000
 51
0.000000000
  0
LINE
  5
B84
330
A02
100
AcDbEntity
  8
SheetCutProfiles
100
AcDbLine
 10
928.950000000
 20
5.800000000
 30
0.000000000
 11
928.950000000
 21
2.000000000
 31
0.000000000
  0
LINE
  5
B85
330
A02
100
AcDbEntity
  8
SheetCutProfiles
100
AcDbLine
 10
928.950000000
 20
5.800000000
 30
0.000000000
 11
935.200000000
 21
5.800000000
 31
0.000000000
  0
LINE
  5
B86
330
A02
100
AcDbEntity
  8
SheetCutProfiles
100
AcDbLine
 10
935.200000000
 20
5.800000000
 30
0.000000000
 11
935.200000000
 21
477.000000000
 31
0.000000000
  0
LINE
  5
B87
330
A02
100
AcDbEntity
  8
SheetCutProfiles
100
AcDbLine
 10
928.950000000
 20
477.000000000
 30
0.000000000
 11
935.200000000
 21
477.000000000
 31
0.000000000
  0
LINE
  5
B88
330
A02
100
AcDbEntity
  8
SheetCutProfiles
100
AcDbLine
 10
928.950000000
 20
477.000000000
 30
0.000000000
 11
928.950000000
 21
488.600000000
 31
0.000000000
  0
ARC
  5
B89
330
A02
100
AcDbEntity
  8
SheetCutProfiles
100
AcDbCircle
 10
926.950000000
 20
488.600000000
 30
0.000000000
 40
2.000000000
100
AcDbArc
 50
0.000000000
 51
90.000000000
  0
LINE
  5
B8A
330
A02
100
AcDbEntity
  8
SheetCutProfiles
100
AcDbLine
 10
918.450000000
 20
490.600000000
 30
0.000000000
 11
926.950000000
 21
490.600000000
 31
0.000000000
  0
ARC
  5
B8B
330
A02
100
AcDbEntity
  8
SheetCutProfiles
100
AcDbCircle
 10
918.450000000
 20
488.600000000
 30
0.000000000
 40
2.000000000
100
AcDbArc
 50
90.000000000
 51
180.000000000
  0
LINE
  5
B8C
330
A02
100
AcDbEntity
  8
SheetCutProfiles
100
AcDbLine
 10
916.450000000
 20
488.600000000
 30
0.000000000
 11
916.450000000
 21
477.000000000
 31
0.000000000
  0
LINE
  5
B8D
330
A02
100
AcDbEntity
  8
SheetCutProfiles
100
AcDbLine
 10
903.950000000
 20
477.000000000
 30
0.000000000
 11
916.450000000
 21
477.000000000
 31
0.000000000
  0
LINE
  5
B8E
330
A02
100
AcDbEntity
  8
SheetCutProfiles
100
AcDbLine
 10
903.950000000
 20
477.000000000
 30
0.000000000
 11
903.950000000
 21
488.600000000
 31
0.000000000
  0
ARC
  5
B8F
330
A02
100
AcDbEntity
  8
SheetCutProfiles
100
AcDbCircle
 10
901.950000000
 20
488.600000000
 30
0.000000000
 40
2.000000000
100
AcDbArc
 50
0.000000000
 51
90.000000000
  0
LINE
  5
B90
330
A02
100
AcDbEntity
  8
SheetCutProfiles
100
AcDbLine
 10
893.450000000
 20
490.600000000
 30
0.000000000
 11
901.950000000
 21
490.600000000
 31
0.000000000
  0
ARC
  5
B91
330
A02
100
AcDbEntity
  8
SheetCutProfiles
100
AcDbCircle
 10
893.450000000
 20
488.600000000
 30
0.000000000
 40
2.000000000
100
AcDbArc
 50
90.000000000
 51
180.000000000
  0
LINE
  5
B92
330
A02
100
AcDbEntity
  8
SheetCutProfiles
100
AcDbLine
 10
891.450000000
 20
488.600000000
 30
0.000000000
 11
891.450000000
 21
477.000000000
 31
0.000000000
  0
LINE
  5
B93
330
A02
100
AcDbEntity
  8
SheetCutProfiles
100
AcDbLine
 10
878.950000000
 20
477.000000000
 30
0.000000000
 11
891.450000000
 21
477.000000000
 31
0.000000000
  0
LINE
  5
B94
330
A02
100
AcDbEntity
  8
SheetCutProfiles
100
AcDbLine
 10
878.950000000
 20
477.000000000
 30
0.000000000
 11
878.950000000
 21
488.600000000
 31
0.000000000
  0
ARC
  5
B95
330
A02
100
AcDbEntity
  8
SheetCutProfiles
100
AcDbCircle
 10
876.950000000
 20
488.600000000
 30
0.000000000
 40
2.000000000
100
AcDbArc
 50
0.000000000
 51
90.000000000
  0
LINE
  5
B96
330
A02
100
AcDbEntity
  8
SheetCutProfiles
100
AcDbLine
 10
868.450000000
 20
490.600000000
 30
0.000000000
 11
876.950000000
 21
490.600000000
 31
0.000000000
  0
ARC
  5
B97
330
A02
100
AcDbEntity
  8
SheetCutProfiles
100
AcDbCircle
 10
868.450000000
 20
488.600000000
 30
0.000000000
 40
2.000000000
100
AcDbArc
 50
90.000000000
 51
180.000000000
  0
LINE
  5
B98
330
A02
100
AcDbEntity
  8
SheetCutProfiles
100
AcDbLine
 10
866.450000000
 20
488.600000000
 30
0.000000000
 11
866.450000000
 21
477.000000000
 31
0.000000000
  0
LINE
  5
B99
330
A02
100
AcDbEntity
  8
SheetCutProfiles
100
AcDbLine
 10
853.950000000
 20
477.000000000
 30
0.000000000
 11
866.450000000
 21
477.000000000
 31
0.000000000
  0
LINE
  5
B9A
330
A02
100
AcDbEntity
  8
SheetCutProfiles
100
AcDbLine
 10
853.950000000
 20
477.000000000
 30
0.000000000
 11
853.950000000
 21
488.600000000
 31
0.000000000
  0
ARC
  5
B9B
330
A02
100
AcDbEntity
  8
SheetCutProfiles
100
AcDbCircle
 10
851.950000000
 20
488.600000000
 30
0.000000000
 40
2.000000000
100
AcDbArc
 50
0.000000000
 51
90.000000000
  0
LINE
  5
B9C
330
A02
100
AcDbEntity
  8
SheetCutProfiles
100
AcDbLine
 10
843.450000000
 20
490.600000000
 30
0.000000000
 11
851.950000000
 21
490.600000000
 31
0.000000000
  0
ARC
  5
B9D
330
A02
100
AcDbEntity
  8
SheetCutProfiles
100
AcDbCircle
 10
843.450000000
 20
488.600000000
 30
0.000000000
 40
2.000000000
100
AcDbArc
 50
90.000000000
 51
180.000000000
  0
LINE
  5
B9E
330
A02
100
AcDbEntity
  8
SheetCutProfiles
100
AcDbLine
 10
841.450000000
 20
488.600000000
 30
0.000000000
 11
841.450000000
 21
477.000000000
 31
0.000000000
  0
LINE
  5
B9F
330
A02
100
AcDbEntity
  8
SheetCutProfiles
100
AcDbLine
 10
835.200000000
 20
477.000000000
 30
0.000000000
 11
841.450000000
 21
477.000000000
 31
0.000000000
  0
LINE
  5
BA0
330
A02
100
AcDbEntity
  8
SheetCutProfiles
100
AcDbLine
 10
835.200000000
 20
5.800000000
 30
0.000000000
 11
835.200000000
 21
477.000000000
 31
0.000000000
  0
LINE
  5
BA1
330
A02
100
AcDbEntity
  8
SheetCutProfiles
100
AcDbLine
 10
835.200000000
 20
5.800000000
 30
0.000000000
 11
841.450000000
 21
5.800000000
 31
0.000000000
  0
LINE
  5
BA2
330
A02
100
AcDbEntity
  8
SheetCutProfiles
100
AcDbLine
 10
841.450000000
 20
2.000000000
 30
0.000000000
 11
841.450000000
 21
5.800000000
 31
0.000000000
  0
ARC
  5
BA3
330
A02
100
AcDbEntity
  8
SheetCutProfiles
100
AcDbCircle
 10
843.450000000
 20
2.000000000
 30
0.000000000
 40
2.000000000
100
AcDbArc
 50
180.000000000
 51
-90.000000000
  0
LINE
  5
BA4
330
A02
100
AcDbEntity
  8
SheetCutProfiles
100
AcDbLine
 10
843.450000000
 20
0.000000000
 30
0.000000000
 11
851.950000000
 21
0.000000000
 31
0.000000000
  0
ARC
  5
BA5
330
A02
100
AcDbEntity
  8
SheetCutProfiles
100
AcDbCircle
 10
851.950000000
 20
2.000000000
 30
0.000000000
 40
2.000000000
100
AcDbArc
 50
-90.000000000
 51
0.000000000
  0
LINE
  5
BA6
330
A02
100
AcDbEntity
  8
SheetCutProfiles
100
AcDbLine
 10
922.500000000
 20
388.650000000
 30
0.000000000
 11
922.500000000
 21
447.550000000
 31
0.000000000
  0
LINE
  5
BA7
330
A02
100
AcDbEntity
  8
SheetCutProfiles
100
AcDbLine
 10
916.700000000
 20
388.650000000
 30
0.000000000
 11
922.500000000
 21
388.650000000
 31
0.000000000
  0
LINE
  5
BA8
330
A02
100
AcDbEntity
  8
SheetCutProfiles
100
AcDbLine
 10
916.700000000
 20
447.550000000
 30
0.000000000
 11
916.700000000
 21
388.650000000
 31
0.000000000
  0
LINE
  5
BA9
330
A02
100
AcDbEntity
  8
SheetCutProfiles
100
AcDbLine
 10
922.500000000
 20
447.550000000
 30
0.000000000
 11
916.700000000
 21
447.550000000
 31
0.000000000
  0
LINE
  5
BAA
330
A02
100
AcDbEntity
  8
SheetCutProfiles
100
AcDbLine
 10
922.500000000
 20
270.850000000
 30
0.000000000
 11
922.500000000
 21
329.750000000
 31
0.000000000
  0
LINE
  5
BAB
330
A02
100
AcDbEntity
  8
SheetCutProfiles
100
AcDbLine
 10
916.700000000
 20
270.850000000
 30
0.000000000
 11
922.500000000
 21
270.850000000
 31
0.000000000
  0
LINE
  5
BAC
330
A02
100
AcDbEntity
  8
SheetCutProfiles
100
AcDbLine
 10
916.700000000
 20
329.750000000
 30
0.000000000
 11
916.700000000
 21
270.850000000
 31
0.000000000
  0
LINE
  5
BAD
330
A02
100
AcDbEntity
  8
SheetCutProfiles
100
AcDbLine
 10
922.500000000
 20
329.750000000
 30
0.000000000
 11
916.700000000
 21
329.750000000
 31
0.000000000
  0
CIRCLE
  5
BAE
330
A02
100
AcDbEntity
  8
SheetCutProfiles
100
AcDbCircle
 10
875.700000000
 20
398.466666667
 30
0.000000000
 40
3.000000000
  0
LINE
  5
BAF
330
A02
100
AcDbEntity
  8
SheetCutProfiles
100
AcDbLine
 10
922.500000000
 20
153.050000000
 30
0.000000000
 11
922.500000000
 21
211.950000000
 31
0.000000000
  0
LINE
  5
BB0
330
A02
100
AcDbEntity
  8
SheetCutProfiles
100
AcDbLine
 10
916.700000000
 20
153.050000000
 30
0.000000000
 11
922.500000000
 21
153.050000000
 31
0.000000000
  0
LINE
  5
BB1
330
A02
100
AcDbEntity
  8
SheetCutProfiles
100
AcDbLine
 10
916.700000000
 20
211.950000000
 30
0.000000000
 11
916.700000000
 21
153.050000000
 31
0.000000000
  0
LINE
  5
BB2
330
A02
100
AcDbEntity
  8
SheetCutProfiles
100
AcDbLine
 10
922.500000000
 20
211.950000000
 30
0.000000000
 11
916.700000000
 21
211.950000000
 31
0.000000000
  0
LINE
  5
BB3
330
A02
100
AcDbEntity
  8
SheetCutProfiles
100
AcDbLine
 10
922.500000000
 20
35.250000000
 30
0.000000000
 11
922.500000000
 21
94.150000000
 31
0.000000000
  0
LINE
  5
BB4
330
A02
100
AcDbEntity
  8
SheetCutProfiles
100
AcDbLine
 10
916.700000000
 20
35.250000000
 30
0.000000000
 11
922.500000000
 21
35.250000000
 31
0.000000000
  0
LINE
  5
BB5
330
A02
100
AcDbEntity
  8
SheetCutProfiles
100
AcDbLine
 10
916.700000000
 20
94.150000000
 30
0.000000000
 11
916.700000000
 21
35.250000000
 31
0.000000000
  0
LINE
  5
BB6
330
A02
100
AcDbEntity
  8
SheetCutProfiles
100
AcDbLine
 10
922.500000000
 20
94.150000000
 30
0.000000000
 11
916.700000000
 21
94.150000000
 31
0.000000000
  0
CIRCLE
  5
BB7
330
A02
100
AcDbEntity
  8
SheetCutProfiles
100
AcDbCircle
 10
875.700000000
 20
84.333333333
 30
0.000000000
 40
3.000000000
  0
LINE
  5
BB8
330
A02
100
AcDbEntity
  8
SheetCutProfiles
100
AcDbLine
 10
730.200000000
 20
691.650000000
 30
0.000000000
 11
730.200000000
 21
689.400000000
 31
0.000000000
  0
ARC
  5
BB9
330
A02
100
AcDbEntity
  8
SheetCutProfiles
100
AcDbCircle
 10
732.200000000
 20
691.650000000
 30
0.000000000
 40
2.000000000
100
AcDbArc
 50
90.000000000
 51
180.000000000
  0
LINE
  5
BBA
330
A02
100
AcDbEntity
  8
SheetCutProfiles
100
AcDbLine
 10
743.800000000
 20
693.650000000
 30
0.000000000
 11
732.200000000
 21
693.650000000
 31
0.000000000
  0
LINE
  5
BBB
330
A02
100
AcDbEntity
  8
SheetCutProfiles
100
AcDbLine
 10
743.800000000
 20
706.150000000
 30
0.000000000
 11
743.800000000
 21
693.650000000
 31
0.000000000
  0
LINE
  5
BBC
330
A02
100
AcDbEntity
  8
SheetCutProfiles
100
AcDbLine
 10
732.200000000
 20
706.150000000
 30
0.000000000
 11
743.800000000
 21
706.150000000
 31
0.000000000
  0
ARC
  5
BBD
330
A02
100
AcDbEntity
  8
SheetCutProfiles
100
AcDbCircle
 10
732.200000000
 20
708.150000000
 30
0.000000000
 40
2.000000000
100
AcDbArc
 50
180.000000000
 51
-90.000000000
  0
LINE
  5
BBE
330
A02
100
AcDbEntity
  8
SheetCutProfiles
100
AcDbLine
 10
730.200000000
 20
716.650000000
 30
0.000000000
 11
730.200000000
 21
708.150000000
 31
0.000000000
  0
ARC
  5
BBF
330
A02
100
AcDbEntity
  8
SheetCutProfiles
100
AcDbCircle
 10
732.200000000
 20
716.650000000
 30
0.000000000
 40
2.000000000
100
AcDbArc
 50
90.000000000
 51
180.000000000
  0
LINE
  5
BC0
330
A02
100
AcDbEntity
  8
SheetCutProfiles
100
AcDbLine
 10
743.800000000
 20
718.650000000
 30
0.000000000
 11
732.200000000
 21
718.650000000
 31
0.000000000
  0
LINE
  5
BC1
330
A02
100
AcDbEntity
  8
SheetCutProfiles
100
AcDbLine
 10
743.800000000
 20
731.150000000
 30
0.000000000
 11
743.800000000
 21
718.650000000
 31
0.000000000
  0
LINE
  5
BC2
330
A02
100
AcDbEntity
  8
SheetCutProfiles
100
AcDbLine
 10
732.200000000
 20
731.150000000
 30
0.000000000
 11
743.800000000
 21
731.150000000
 31
0.000000000
  0
ARC
  5
BC3
330
A02
100
AcDbEntity
  8
SheetCutProfiles
100
AcDbCircle
 10
732.200000000
 20
733.150000000
 30
0.000000000
 40
2.000000000
100
AcDbArc
 50
180.000000000
 51
-90.000000000
  0
LINE
  5
BC4
330
A02
100
AcDbEntity
  8
SheetCutProfiles
100
AcDbLine
 10
730.200000000
 20
741.650000000
 30
0.000000000
 11
730.200000000
 21
733.150000000
 31
0.000000000
  0
ARC
  5
BC5
330
A02
100
AcDbEntity
  8
SheetCutProfiles
100
AcDbCircle
 10
732.200000000
 20
741.650000000
 30
0.000000000
 40
2.000000000
100
AcDbArc
 50
90.000000000
 51
180.000000000
  0
LINE
  5
BC6
330
A02
100
AcDbEntity
  8
SheetCutProfiles
100
AcDbLine
 10
743.800000000
 20
743.650000000
 30
0.000000000
 11
732.200000000
 21
743.650000000
 31
0.000000000
  0
LINE
  5
BC7
330
A02
100
AcDbEntity
  8
SheetCutProfiles
100
AcDbLine
 10
743.800000000
 20
756.150000000
 30
0.000000000
 11
743.800000000
 21
743.650000000
 31
0.000000000
  0
LINE
  5
BC8
330
A02
100
AcDbEntity
  8
SheetCutProfiles
100
AcDbLine
 10
732.200000000
 20
756.150000000
 30
0.000000000
 11
743.800000000
 21
756.150000000
 31
0.000000000
  0
ARC
  5
BC9
330
A02
100
AcDbEntity
  8
SheetCutProfiles
100
AcDbCircle
 10
732.200000000
 20
758.150000000
 30
0.000000000
 40
2.000000000
100
AcDbArc
 50
180.000000000
 51
-90.000000000
  0
LINE
  5
BCA
330
A02
100
AcDbEntity
  8
SheetCutProfiles
100
AcDbLine
 10
730.200000000
 20
766.650000000
 30
0.000000000
 11
730.200000000
 21
758.150000000
 31
0.000000000
  0
ARC
  5
BCB
330
A02
100
AcDbEntity
  8
SheetCutProfiles
100
AcDbCircle
 10
732.200000000
 20
766.650000000
 30
0.000000000
 40
2.000000000
100
AcDbArc
 50
90.000000000
 51
180.000000000
  0
LINE
  5
BCC
330
A02
100
AcDbEntity
  8
SheetCutProfiles
100
AcDbLine
 10
743.800000000
 20
768.650000000
 30
0.000000000
 11
732.200000000
 21
768.650000000
 31
0.000000000
  0
LINE
  5
BCD
330
A02
100
AcDbEntity
  8
SheetCutProfiles
100
AcDbLine
 10
743.800000000
 20
781.150000000
 30
0.000000000
 11
743.800000000
 21
768.650000000
 31
0.000000000
  0
LINE
  5
BCE
330
A02
100
AcDbEntity
  8
SheetCutProfiles
100
AcDbLine
 10
732.200000000
 20
781.150000000
 30
0.000000000
 11
743.800000000
 21
781.150000000
 31
0.000000000
  0
ARC
  5
BCF
330
A02
100
AcDbEntity
  8
SheetCutProfiles
100
AcDbCircle
 10
732.200000000
 20
783.150000000
 30
0.000000000
 40
2.000000000
100
AcDbArc
 50
180.000000000
 51
-90.000000000
  0
LINE
  5
BD0
330
A02
100
AcDbEntity
  8
SheetCutProfiles
100
AcDbLine
 10
730.200000000
 20
785.400000000
 30
0.000000000
 11
730.200000000
 21
783.150000000
 31
0.000000000
  0
ARC
  5
BD1
330
A02
100
AcDbEntity
  8
SheetCutProfiles
100
AcDbCircle
 10
732.200000000
 20
785.400000000
 30
0.000000000
 40
2.000000000
100
AcDbArc
 50
90.000000000
 51
180.000000000
  0
LINE
  5
BD2
330
A02
100
AcDbEntity
  8
SheetCutProfiles
100
AcDbLine
 10
1167.600000000
 20
787.400000000
 30
0.000000000
 11
732.200000000
 21
787.400000000
 31
0.000000000
  0
ARC
  5
BD3
330
A02
100
AcDbEntity
  8
SheetCutProfiles
100
AcDbCircle
 10
1167.600000000
 20
785.400000000
 30
0.000000000
 40
2.000000000
100
AcDbArc
 50
0.000000000
 51
90.000000000
  0
LINE
  5
BD4
330
A02
100
AcDbEntity
  8
SheetCutProfiles
100
AcDbLine
 10
1169.600000000
 20
785.400000000
 30
0.000000000
 11
1169.600000000
 21
783.150000000
 31
0.000000000
  0
ARC
  5
BD5
330
A02
100
AcDbEntity
  8
SheetCutProfiles
100
AcDbCircle
 10
1167.600000000
 20
783.150000000
 30
0.000000000
 40
2.000000000
100
AcDbArc
 50
-90.000000000
 51
0.000000000
  0
LINE
  5
BD6
330
A02
100
AcDbEntity
  8
SheetCutProfiles
100
AcDbLine
 10
1156.000000000
 20
781.150000000
 30
0.000000000
 11
1167.600000000
 21
781.150000000
 31
0.000000000
  0
LINE
  5
BD7
330
A02
100
AcDbEntity
  8
SheetCutProfiles
100
AcDbLine
 10
1156.000000000
 20
768.650000000
 30
0.000000000
 11
1156.000000000
 21
781.150000000
 31
0.000000000
  0
LINE
  5
BD8
330
A02
100
AcDbEntity
  8
SheetCutProfiles
100
AcDbLine
 10
1167.600000000
 20
768.650000000
 30
0.000000000
 11
1156.000000000
 21
768.650000000
 31
0.000000000
  0
ARC
  5
BD9
330
A02
100
AcDbEntity
  8
SheetCutProfiles
100
AcDbCircle
 10
1167.600000000
 20
766.650000000
 30
0.000000000
 40
2.000000000
100
AcDbArc
 50
0.000000000
 51
90.000000000
  0
LINE
  5
BDA
330
A02
100
AcDbEntity
  8
SheetCutProfiles
100
AcDbLine
 10
1169.600000000
 20
766.650000000
 30
0.000000000
 11
1169.600000000
 21
758.150000000
 31
0.000000000
  0
ARC
  5
BDB
330
A02
100
AcDbEntity
  8
SheetCutProfiles
100
AcDbCircle
 10
1167.600000000
 20
758.150000000
 30
0.000000000
 40
2.000000000
100
AcDbArc
 50
-90.000000000
 51
0.000000000
  0
LINE
  5
BDC
330
A02
100
AcDbEntity
  8
SheetCutProfiles
100
AcDbLine
 10
1156.000000000
 20
756.150000000
 30
0.000000000
 11
1167.600000000
 21
756.150000000
 31
0.000000000
  0
LINE
  5
BDD
330
A02
100
AcDbEntity
  8
SheetCutProfiles
100
AcDbLine
 10
1156.000000000
 20
743.650000000
 30
0.000000000
 11
1156.000000000
 21
756.150000000
 31
0.000000000
  0
LINE
  5
BDE
330
A02
100
AcDbEntity
  8
SheetCutProfiles
100
AcDbLine
 10
1167.600000000
 20
743.650000000
 30
0.000000000
 11
1156.000000000
 21
743.650000000
 31
0.000000000
  0
ARC
  5
BDF
330
A02
100
AcDbEntity
  8
SheetCutProfiles
100
AcDbCircle
 10
1167.600000000
 20
741.650000000
 30
0.000000000
 40
2.000000000
100
AcDbArc
 50
0.000000000
 51
90.000000000
  0
LINE
  5
BE0
330
A02
100
AcDbEntity
  8
SheetCutProfiles
100
AcDbLine
 10
1169.600000000
 20
741.650000000
 30
0.000000000
 11
1169.600000000
 21
733.150000000
 31
0.000000000
  0
ARC
  5
BE1
330
A02
100
AcDbEntity
  8
SheetCutProfiles
100
AcDbCircle
 10
1167.600000000
 20
733.150000000
 30
0.000000000
 40
2.000000000
100
AcDbArc
 50
-90.000000000
 51
0.000000000
  0
LINE
  5
BE2
330
A02
100
AcDbEntity
  8
SheetCutProfiles
100
AcDbLine
 10
1156.000000000
 20
731.150000000
 30
0.000000000
 11
1167.600000000
 21
731.150000000
 31
0.000000000
  0
LINE
  5
BE3
330
A02
100
AcDbEntity
  8
SheetCutProfiles
100
AcDbLine
 10
1156.000000000
 20
718.650000000
 30
0.000000000
 11
1156.000000000
 21
731.150000000
 31
0.000000000
  0
LINE
  5
BE4
330
A02
100
AcDbEntity
  8
SheetCutProfiles
100
AcDbLine
 10
1167.600000000
 20
718.650000000
 30
0.000000000
 11
1156.000000000
 21
718.650000000
 31
0.000000000
  0
ARC
  5
BE5
330
A02
100
AcDbEntity
  8
SheetCutProfiles
100
AcDbCircle
 10
1167.600000000
 20
716.650000000
 30
0.000000000
 40
2.000000000
100
AcDbArc
 50
0.000000000
 51
90.000000000
  0
LINE
  5
BE6
330
A02
100
AcDbEntity
  8
SheetCutProfiles
100
AcDbLine
 10
1169.600000000
 20
716.650000000
 30
0.000000000
 11
1169.600000000
 21
708.150000000
 31
0.000000000
  0
ARC
  5
BE7
330
A02
100
AcDbEntity
  8
SheetCutProfiles
100
AcDbCircle
 10
1167.600000000
 20
708.150000000
 30
0.000000000
 40
2.000000000
100
AcDbArc
 50
-90.000000000
 51
0.000000000
  0
LINE
  5
BE8
330
A02
100
AcDbEntity
  8
SheetCutProfiles
100
AcDbLine
 10
1156.000000000
 20
706.150000000
 30
0.000000000
 11
1167.600000000
 21
706.150000000
 31
0.000000000
  0
LINE
  5
BE9
330
A02
100
AcDbEntity
  8
SheetCutProfiles
100
AcDbLine
 10
1156.000000000
 20
693.650000000
 30
0.000000000
 11
1156.000000000
 21
706.150000000
 31
0.000000000
  0
LINE
  5
BEA
330
A02
100
AcDbEntity
  8
SheetCutProfiles
100
AcDbLine
 10
1167.600000000
 20
693.650000000
 30
0.000000000
 11
1156.000000000
 21
693.650000000
 31
0.000000000
  0
ARC
  5
BEB
330
A02
100
AcDbEntity
  8
SheetCutProfiles
100
AcDbCircle
 10
1167.600000000
 20
691.650000000
 30
0.000000000
 40
2.000000000
100
AcDbArc
 50
0.000000000
 51
90.000000000
  0
LINE
  5
BEC
330
A02
100
AcDbEntity
  8
SheetCutProfiles
100
AcDbLine
 10
1169.600000000
 20
691.650000000
 30
0.000000000
 11
1169.600000000
 21
689.400000000
 31
0.000000000
  0
ARC
  5
BED
330
A02
100
AcDbEntity
  8
SheetCutProfiles
100
AcDbCircle
 10
1167.600000000
 20
689.400000000
 30
0.000000000
 40
2.000000000
100
AcDbArc
 50
-90.000000000
 51
0.000000000
  0
LINE
  5
BEE
330
A02
100
AcDbEntity
  8
SheetCutProfiles
100
AcDbLine
 10
1167.600000000
 20
687.400000000
 30
0.000000000
 11
732.200000000
 21
687.400000000
 31
0.000000000
  0
ARC
  5
BEF
330
A02
100
AcDbEntity
  8
SheetCutProfiles
100
AcDbCircle
 10
732.200000000
 20
689.400000000
 30
0.000000000
 40
2.000000000
100
AcDbArc
 50
180.000000000
 51
-90.000000000
  0
LINE
  5
BF0
330
A02
100
AcDbEntity
  8
SheetCutProfiles
100
AcDbLine
 10
769.562500000
 20
705.900000000
 30
0.000000000
 11
821.087500000
 21
705.900000000
 31
0.000000000
  0
LINE
  5
BF1
330
A02
100
AcDbEntity
  8
SheetCutProfiles
100
AcDbLine
 10
769.562500000
 20
700.100000000
 30
0.000000000
 11
769.562500000
 21
705.900000000
 31
0.000000000
  0
LINE
  5
BF2
330
A02
100
AcDbEntity
  8
SheetCutProfiles
100
AcDbLine
 10
821.087500000
 20
700.100000000
 30
0.000000000
 11
769.562500000
 21
700.100000000
 31
0.000000000
  0
LINE
  5
BF3
330
A02
100
AcDbEntity
  8
SheetCutProfiles
100
AcDbLine
 10
821.087500000
 20
705.900000000
 30
0.000000000
 11
821.087500000
 21
700.100000000
 31
0.000000000
  0
LINE
  5
BF4
330
A02
100
AcDbEntity
  8
SheetCutProfiles
100
AcDbLine
 10
872.612500000
 20
705.900000000
 30
0.000000000
 11
924.137500000
 21
705.900000000
 31
0.000000000
  0
LINE
  5
BF5
330
A02
100
AcDbEntity
  8
SheetCutProfiles
100
AcDbLine
 10
872.612500000
 20
700.100000000
 30
0.000000000
 11
872.612500000
 21
705.900000000
 31
0.000000000
  0
LINE
  5
BF6
330
A02
100
AcDbEntity
  8
SheetCutProfiles
100
AcDbLine
 10
924.137500000
 20
700.100000000
 30
0.000000000
 11
872.612500000
 21
700.100000000
 31
0.000000000
  0
LINE
  5
BF7
330
A02
100
AcDbEntity
  8
SheetCutProfiles
100
AcDbLine
 10
924.137500000
 20
705.900000000
 30
0.000000000
 11
924.137500000
 21
700.100000000
 31
0.000000000
  0
CIRCLE
  5
BF8
330
A02
100
AcDbEntity
  8
SheetCutProfiles
100
AcDbCircle
 10
804.766666667
 20
737.400000000
 30
0.000000000
 40
3.000000000
  0
LINE
  5
BF9
330
A02
100
AcDbEntity
  8
SheetCutProfiles
100
AcDbLine
 10
975.662500000
 20
705.900000000
 30
0.000000000
 11
1027.187500000
 21
705.900000000
 31
0.000000000
  0
LINE
  5
BFA
330
A02
100
AcDbEntity
  8
SheetCutProfiles
100
AcDbLine
 10
975.662500000
 20
700.100000000
 30
0.000000000
 11
975.662500000
 21
705.900000000
 31
0.000000000
  0
LINE
  5
BFB
330
A02
100
AcDbEntity
  8
SheetCutProfiles
100
AcDbLine
 10
1027.187500000
 20
700.100000000
 30
0.000000000
 11
975.662500000
 21
700.100000000
 31
0.000000000
  0
LINE
  5
BFC
330
A02
100
AcDbEntity
  8
SheetCutProfiles
100
AcDbLine
 10
1027.187500000
 20
705.900000000
 30
0.000000000
 11
1027.187500000
 21
700.100000000
 31
0.000000000
  0
LINE
  5
BFD
330
A02
100
AcDbEntity
  8
SheetCutProfiles
100
AcDbLine
 10
1078.712500000
 20
705.900000000
 30
0.000000000
 11
1130.237500000
 21
705.900000000
 31
0.000000000
  0
LINE
  5
BFE
330
A02
100
AcDbEntity
  8
SheetCutProfiles
100
AcDbLine
 10
1078.712500000
 20
700.100000000
 30
0.000000000
 11
1078.712500000
 21
705.900000000
 31
0.000000000
  0
LINE
  5
BFF
330
A02
100
AcDbEntity
  8
SheetCutProfiles
100
AcDbLine
 10
1130.237500000
 20
700.100000000
 30
0.000000000
 11
1078.712500000
 21
700.100000000
 31
0.000000000
  0
LINE
  5
C00
330
A02
100
AcDbEntity
  8
SheetCutProfiles
100
AcDbLine
 10
1130.237500000
 20
705.900000000
 30
0.000000000
 11
1130.237500000
 21
700.100000000
 31
0.000000000
  0
CIRCLE
  5
C01
330
A02
100
AcDbEntity
  8
SheetCutProfiles
100
AcDbCircle
 10
1095.033333333
 20
737.400000000
 30
0.000000000
 40
3.000000000
  0
LINE
  5
C02
330
A02
100
AcDbEntity
  8
SheetCutProfiles
100
AcDbLine
 10
1169.600000000
 20
586.650000000
 30
0.000000000
 11
1169.600000000
 21
584.400000000
 31
0.000000000
  0
ARC
  5
C03
330
A02
100
AcDbEntity
  8
SheetCutProfiles
100
AcDbCircle
 10
1167.600000000
 20
586.650000000
 30
0.000000000
 40
2.000000000
100
AcDbArc
 50
0.000000000
 51
90.000000000
  0
LINE
  5
C04
330
A02
100
AcDbEntity
  8
SheetCutProfiles
100
AcDbLine
 10
1156.000000000
 20
588.650000000
 30
0.000000000
 11
1167.600000000
 21
588.650000000
 31
0.000000000
  0
LINE
  5
C05
330
A02
100
AcDbEntity
  8
SheetCutProfiles
100
AcDbLine
 10
1156.000000000
 20
601.150000000
 30
0.000000000
 11
1156.000000000
 21
588.650000000
 31
0.000000000
  0
LINE
  5
C06
330
A02
100
AcDbEntity
  8
SheetCutProfiles
100
AcDbLine
 10
1167.600000000
 20
601.150000000
 30
0.000000000
 11
1156.000000000
 21
601.150000000
 31
0.000000000
  0
ARC
  5
C07
330
A02
100
AcDbEntity
  8
SheetCutProfiles
100
AcDbCircle
 10
1167.600000000
 20
603.150000000
 30
0.000000000
 40
2.000000000
100
AcDbArc
 50
-90.000000000
 51
0.000000000
  0
LINE
  5
C08
330
A02
100
AcDbEntity
  8
SheetCutProfiles
100
AcDbLine
 10
1169.600000000
 20
611.650000000
 30
0.000000000
 11
1169.600000000
 21
603.150000000
 31
0.000000000
  0
ARC
  5
C09
330
A02
100
AcDbEntity
  8
SheetCutProfiles
100
AcDbCircle
 10
1167.600000000
 20
611.650000000
 30
0.000000000
 40
2.000000000
100
AcDbArc
 50
0.000000000
 51
90.000000000
  0
LINE
  5
C0A
330
A02
100
AcDbEntity
  8
SheetCutProfiles
100
AcDbLine
 10
1156.000000000
 20
613.650000000
 30
0.000000000
 11
1167.600000000
 21
613.650000000
 31
0.000000000
  0
LINE
  5
C0B
330
A02
100
AcDbEntity
  8
SheetCutProfiles
100
AcDbLine
 10
1156.000000000
 20
626.150000000
 30
0.000000000
 11
1156.000000000
 21
613.650000000
 31
0.000000000
  0
LINE
  5
C0C
330
A02
100
AcDbEntity
  8
SheetCutProfiles
100
AcDbLine
 10
1167.600000000
 20
626.150000000
 30
0.000000000
 11
1156.000000000
 21
626.150000000
 31
0.000000000
  0
ARC
  5
C0D
330
A02
100
AcDbEntity
  8
SheetCutProfiles
100
AcDbCircle
 10
1167.600000000
 20
628.150000000
 30
0.000000000
 40
2.000000000
100
AcDbArc
 50
-90.000000000
 51
0.000000000
  0
LINE
  5
C0E
330
A02
100
AcDbEntity
  8
SheetCutProfiles
100
AcDbLine
 10
1169.600000000
 20
636.650000000
 30
0.000000000
 11
1169.600000000
 21
628.150000000
 31
0.000000000
  0
ARC
  5
C0F
330
A02
100
AcDbEntity
  8
SheetCutProfiles
100
AcDbCircle
 10
1167.600000000
 20
636.650000000
 30
0.000000000
 40
2.000000000
100
AcDbArc
 50
0.000000000
 51
90.000000000
  0
LINE
  5
C10
330
A02
100
AcDbEntity
  8
SheetCutProfiles
100
AcDbLine
 10
1156.000000000
 20
638.650000000
 30
0.000000000
 11
1167.600000000
 21
638.650000000
 31
0.000000000
  0
LINE
  5
C11
330
A02
100
AcDbEntity
  8
SheetCutProfiles
100
AcDbLine
 10
1156.000000000
 20
651.150000000
 30
0.000000000
 11
1156.000000000
 21
638.650000000
 31
0.000000000
  0
LINE
  5
C12
330
A02
100
AcDbEntity
  8
SheetCutProfiles
100
AcDbLine
 10
1167.600000000
 20
651.150000000
 30
0.000000000
 11
1156.000000000
 21
651.150000000
 31
0.000000000
  0
ARC
  5
C13
330
A02
100
AcDbEntity
  8
SheetCutProfiles
100
AcDbCircle
 10
1167.600000000
 20
653.150000000
 30
0.000000000
 40
2.000000000
100
AcDbArc
 50
-90.000000000
 51
0.000000000
  0
LINE
  5
C14
330
A02
100
AcDbEntity
  8
SheetCutProfiles
100
AcDbLine
 10
1169.600000000
 20
661.650000000
 30
0.000000000
 11
1169.600000000
 21
653.150000000
 31
0.000000000
  0
ARC
  5
C15
330
A02
100
AcDbEntity
  8
SheetCutProfiles
100
AcDbCircle
 10
1167.600000000
 20
661.650000000
 30
0.000000000
 40
2.000000000
100
AcDbArc
 50
0.000000000
 51
90.000000000
  0
LINE
  5
C16
330
A02
100
AcDbEntity
  8
SheetCutProfiles
100
AcDbLine
 10
1156.000000000
 20
663.650000000
 30
0.000000000
 11
1167.600000000
 21
663.650000000
 31
0.000000000
  0
LINE
  5
C17
330
A02
100
AcDbEntity
  8
SheetCutProfiles
100
AcDbLine
 10
1156.000000000
 20
676.150000000
 30
0.000000000
 11
1156.000000000
 21
663.650000000
 31
0.000000000
  0
LINE
  5
C18
330
A02
100
AcDbEntity
  8
SheetCutProfiles
100
AcDbLine
 10
1167.600000000
 20
676.150000000
 30
0.000000000
 11
1156.000000000
 21
676.150000000
 31
0.000000000
  0
ARC
  5
C19
330
A02
100
AcDbEntity
  8
SheetCutProfiles
100
AcDbCircle
 10
1167.600000000
 20
678.150000000
 30
0.000000000
 40
2.000000000
100
AcDbArc
 50
-90.000000000
 51
0.000000000
  0
LINE
  5
C1A
330
A02
100
AcDbEntity
  8
SheetCutProfiles
100
AcDbLine
 10
1169.600000000
 20
680.400000000
 30
0.000000000
 11
1169.600000000
 21
678.150000000
 31
0.000000000
  0
ARC
  5
C1B
330
A02
100
AcDbEntity
  8
SheetCutProfiles
100
AcDbCircle
 10
1167.600000000
 20
680.400000000
 30
0.000000000
 40
2.000000000
100
AcDbArc
 50
0.000000000
 51
90.000000000
  0
LINE
  5
C1C
330
A02
100
AcDbEntity
  8
SheetCutProfiles
100
AcDbLine
 10
732.200000000
 20
682.400000000
 30
0.000000000
 11
1167.600000000
 21
682.400000000
 31
0.000000000
  0
ARC
  5
C1D
330
A02
100
AcDbEntity
  8
SheetCutProfiles
100
AcDbCircle
 10
732.200000000
 20
680.400000000
 30
0.000000000
 40
2.000000000
100
AcDbArc
 50
90.000000000
 51
180.000000000
  0
LINE
  5
C1E
330
A02
100
AcDbEntity
  8
SheetCutProfiles
100
AcDbLine
 10
730.200000000
 20
680.400000000
 30
0.000000000
 11
730.200000000
 21
678.150000000
 31
0.000000000
  0
ARC
  5
C1F
330
A02
100
AcDbEntity
  8
SheetCutProfiles
100
AcDbCircle
 10
732.200000000
 20
678.150000000
 30
0.000000000
 40
2.000000000
100
AcDbArc
 50
180.000000000
 51
-90.000000000
  0
LINE
  5
C20
330
A02
100
AcDbEntity
  8
SheetCutProfiles
100
AcDbLine
 10
743.800000000
 20
676.150000000
 30
0.000000000
 11
732.200000000
 21
676.150000000
 31
0.000000000
  0
LINE
  5
C21
330
A02
100
AcDbEntity
  8
SheetCutProfiles
100
AcDbLine
 10
743.800000000
 20
663.650000000
 30
0.000000000
 11
743.800000000
 21
676.150000000
 31
0.000000000
  0
LINE
  5
C22
330
A02
100
AcDbEntity
  8
SheetCutProfiles
100
AcDbLine
 10
732.200000000
 20
663.650000000
 30
0.000000000
 11
743.800000000
 21
663.650000000
 31
0.000000000
  0
ARC
  5
C23
330
A02
100
AcDbEntity
  8
SheetCutProfiles
100
AcDbCircle
 10
732.200000000
 20
661.650000000
 30
0.000000000
 40
2.000000000
100
AcDbArc
 50
90.000000000
 51
180.000000000
  0
LINE
  5
C24
330
A02
100
AcDbEntity
  8
SheetCutProfiles
100
AcDbLine
 10
730.200000000
 20
661.650000000
 30
0.000000000
 11
730.200000000
 21
653.150000000
 31
0.000000000
  0
ARC
  5
C25
330
A02
100
AcDbEntity
  8
SheetCutProfiles
100
AcDbCircle
 10
732.200000000
 20
653.150000000
 30
0.000000000
 40
2.000000000
100
AcDbArc
 50
180.000000000
 51
-90.000000000
  0
LINE
  5
C26
330
A02
100
AcDbEntity
  8
SheetCutProfiles
100
AcDbLine
 10
743.800000000
 20
651.150000000
 30
0.000000000
 11
732.200000000
 21
651.150000000
 31
0.000000000
  0
LINE
  5
C27
330
A02
100
AcDbEntity
  8
SheetCutProfiles
100
AcDbLine
 10
743.800000000
 20
638.650000000
 30
0.000000000
 11
743.800000000
 21
651.150000000
 31
0.000000000
  0
LINE
  5
C28
330
A02
100
AcDbEntity
  8
SheetCutProfiles
100
AcDbLine
 10
732.200000000
 20
638.650000000
 30
0.000000000
 11
743.800000000
 21
638.650000000
 31
0.000000000
  0
ARC
  5
C29
330
A02
100
AcDbEntity
  8
SheetCutProfiles
100
AcDbCircle
 10
732.200000000
 20
636.650000000
 30
0.000000000
 40
2.000000000
100
AcDbArc
 50
90.000000000
 51
180.000000000
  0
LINE
  5
C2A
330
A02
100
AcDbEntity
  8
SheetCutProfiles
100
AcDbLine
 10
730.200000000
 20
636.650000000
 30
0.000000000
 11
730.200000000
 21
628.150000000
 31
0.000000000
  0
ARC
  5
C2B
330
A02
100
AcDbEntity
  8
SheetCutProfiles
100
AcDbCircle
 10
732.200000000
 20
628.150000000
 30
0.000000000
 40
2.000000000
100
AcDbArc
 50
180.000000000
 51
-90.000000000
  0
LINE
  5
C2C
330
A02
100
AcDbEntity
  8
SheetCutProfiles
100
AcDbLine
 10
743.800000000
 20
626.150000000
 30
0.000000000
 11
732.200000000
 21
626.150000000
 31
0.000000000
  0
LINE
  5
C2D
330
A02
100
AcDbEntity
  8
SheetCutProfiles
100
AcDbLine
 10
743.800000000
 20
613.650000000
 30
0.000000000
 11
743.800000000
 21
626.150000000
 31
0.000000000
  0
LINE
  5
C2E
330
A02
100
AcDbEntity
  8
SheetCutProfiles
100
AcDbLine
 10
732.200000000
 20
613.650000000
 30
0.000000000
 11
743.800000000
 21
613.650000000
 31
0.000000000
  0
ARC
  5
C2F
330
A02
100
AcDbEntity
  8
SheetCutProfiles
100
AcDbCircle
 10
732.200000000
 20
611.650000000
 30
0.000000000
 40
2.000000000
100
AcDbArc
 50
90.000000000
 51
180.000000000
  0
LINE
  5
C30
330
A02
100
AcDbEntity
  8
SheetCutProfiles
100
AcDbLine
 10
730.200000000
 20
611.650000000
 30
0.000000000
 11
730.200000000
 21
603.150000000
 31
0.000000000
  0
ARC
  5
C31
330
A02
100
AcDbEntity
  8
SheetCutProfiles
100
AcDbCircle
 10
732.200000000
 20
603.150000000
 30
0.000000000
 40
2.000000000
100
AcDbArc
 50
180.000000000
 51
-90.000000000
  0
LINE
  5
C32
330
A02
100
AcDbEntity
  8
SheetCutProfiles
100
AcDbLine
 10
743.800000000
 20
601.150000000
 30
0.000000000
 11
732.200000000
 21
601.150000000
 31
0.000000000
  0
LINE
  5
C33
330
A02
100
AcDbEntity
  8
SheetCutProfiles
100
AcDbLine
 10
743.800000000
 20
588.650000000
 30
0.000000000
 11
743.800000000
 21
601.150000000
 31
0.000000000
  0
LINE
  5
C34
330
A02
100
AcDbEntity
  8
SheetCutProfiles
100
AcDbLine
 10
732.200000000
 20
588.650000000
 30
0.000000000
 11
743.800000000
 21
588.650000000
 31
0.000000000
  0
ARC
  5
C35
330
A02
100
AcDbEntity
  8
SheetCutProfiles
100
AcDbCircle
 10
732.200000000
 20
586.650000000
 30
0.000000000
 40
2.000000000
100
AcDbArc
 50
90.000000000
 51
180.000000000
  0
LINE
  5
C36
330
A02
100
AcDbEntity
  8
SheetCutProfiles
100
AcDbLine
 10
730.200000000
 20
586.650000000
 30
0.000000000
 11
730.200000000
 21
584.400000000
 31
0.000000000
  0
ARC
  5
C37
330
A02
100
AcDbEntity
  8
SheetCutProfiles
100
AcDbCircle
 10
732.200000000
 20
584.400000000
 30
0.000000000
 40
2.000000000
100
AcDbArc
 50
180.000000000
 51
-90.000000000
  0
LINE
  5
C38
330
A02
100
AcDbEntity
  8
SheetCutProfiles
100
AcDbLine
 10
732.200000000
 20
582.400000000
 30
0.000000000
 11
1167.600000000
 21
582.400000000
 31
0.000000000
  0
ARC
  5
C39
330
A02
100
AcDbEntity
  8
SheetCutProfiles
100
AcDbCircle
 10
1167.600000000
 20
584.400000000
 30
0.000000000
 40
2.000000000
100
AcDbArc
 50
-90.000000000
 51
0.000000000
  0
LINE
  5
C3A
330
A02
100
AcDbEntity
  8
SheetCutProfiles
100
AcDbLine
 10
1130.237500000
 20
600.900000000
 30
0.000000000
 11
1078.712500000
 21
600.900000000
 31
0.000000000
  0
LINE
  5
C3B
330
A02
100
AcDbEntity
  8
SheetCutProfiles
100
AcDbLine
 10
1130.237500000
 20
595.100000000
 30
0.000000000
 11
1130.237500000
 21
600.900000000
 31
0.000000000
  0
LINE
  5
C3C
330
A02
100
AcDbEntity
  8
SheetCutProfiles
100
AcDbLine
 10
1078.712500000
 20
595.100000000
 30
0.000000000
 11
1130.237500000
 21
595.100000000
 31
0.000000000
  0
LINE
  5
C3D
330
A02
100
AcDbEntity
  8
SheetCutProfiles
100
AcDbLine
 10
1078.712500000
 20
600.900000000
 30
0.000000000
 11
1078.712500000
 21
595.100000000
 31
0.000000000
  0
LINE
  5
C3E
330
A02
100
AcDbEntity
  8
SheetCutProfiles
100
AcDbLine
 10
1027.187500000
 20
600.900000000
 30
0.000000000
 11
975.662500000
 21
600.900000000
 31
0.000000000
  0
LINE
  5
C3F
330
A02
100
AcDbEntity
  8
SheetCutProfiles
100
AcDbLine
 10
1027.187500000
 20
595.100000000
 30
0.000000000
 11
1027.187500000
 21
600.900000000
 31
0.000000000
  0
LINE
  5
C40
330
A02
100
AcDbEntity
  8
SheetCutProfiles
100
AcDbLine
 10
975.662500000
 20
595.100000000
 30
0.000000000
 11
1027.187500000
 21
595.100000000
 31
0.000000000
  0
LINE
  5
C41
330
A02
100
AcDbEntity
  8
SheetCutProfiles
100
AcDbLine
 10
975.662500000
 20
600.900000000
 30
0.000000000
 11
975.662500000
 21
595.100000000
 31
0.000000000
  0
CIRCLE
  5
C42
330
A02
100
AcDbEntity
  8
SheetCutProfiles
100
AcDbCircle
 10
1095.033333333
 20
632.400000000
 30
0.000000000
 40
3.000000000
  0
LINE
  5
C43
330
A02
100
AcDbEntity
  8
SheetCutProfiles
100
AcDbLine
 10
924.137500000
 20
600.900000000
 30
0.000000000
 11
872.612500000
 21
600.900000000
 31
0.000000000
  0
LINE
  5
C44
330
A02
100
AcDbEntity
  8
SheetCutProfiles
100
AcDbLine
 10
924.137500000
 20
595.100000000
 30
0.000000000
 11
924.137500000
 21
600.900000000
 31
0.000000000
  0
LINE
  5
C45
330
A02
100
AcDbEntity
  8
SheetCutProfiles
100
AcDbLine
 10
872.612500000
 20
595.100000000
 30
0.000000000
 11
924.137500000
 21
595.100000000
 31
0.000000000
  0
LINE
  5
C46
330
A02
100
AcDbEntity
  8
SheetCutProfiles
100
AcDbLine
 10
872.612500000
 20
600.900000000
 30
0.000000000
 11
872.612500000
 21
595.100000000
 31
0.000000000
  0
LINE
  5
C47
330
A02
100
AcDbEntity
  8
SheetCutProfiles
100
AcDbLine
 10
821.087500000
 20
600.900000000
 30
0.000000000
 11
769.562500000
 21
600.900000000
 31
0.000000000
  0
LINE
  5
C48
330
A02
100
AcDbEntity
  8
SheetCutProfiles
100
AcDbLine
 10
821.087500000
 20
595.100000000
 30
0.000000000
 11
821.087500000
 21
600.900000000
 31
0.000000000
  0
LINE
  5
C49
330
A02
100
AcDbEntity
  8
SheetCutProfiles
100
AcDbLine
 10
769.562500000
 20
595.100000000
 30
0.000000000
 11
821.087500000
 21
595.100000000
 31
0.000000000
  0
LINE
  5
C4A
330
A02
100
AcDbEntity
  8
SheetCutProfiles
100
AcDbLine
 10
769.562500000
 20
600.900000000
 30
0.000000000
 11
769.562500000
 21
595.100000000
 31
0.000000000
  0
CIRCLE
  5
C4B
330
A02
100
AcDbEntity
  8
SheetCutProfiles
100
AcDbCircle
 10
804.766666667
 20
632.400000000
 30
0.000000000
 40
3.000000000
  0
LINE
  5
C4C
330
A02
100
AcDbEntity
  8
SheetCutProfiles
100
AcDbLine
 10
12.700000000
 20
698.400000000
 30
0.000000000
 11
458.500000000
 21
698.400000000
 31
0.000000000
  0
ARC
  5
C4D
330
A02
100
AcDbEntity
  8
SheetCutProfiles
100
AcDbCircle
 10
12.700000000
 20
711.100000000
 30
0.000000000
 40
12.700000000
100
AcDbArc
 50
90.000000000
 51
-90.000000000
  0
LINE
  5
C4E
330
A02
100
AcDbEntity
  8
SheetCutProfiles
100
AcDbLine
 10
12.700000000
 20
723.800000000
 30
0.000000000
 11
458.500000000
 21
723.800000000
 31
0.000000000
  0
ARC
  5
C4F
330
A02
100
AcDbEntity
  8
SheetCutProfiles
100
AcDbCircle
 10
458.500000000
 20
711.100000000
 30
0.000000000
 40
12.700000000
100
AcDbArc
 50
-90.000000000
 51
90.000000000
  0
CIRCLE
  5
C50
330
A02
100
AcDbEntity
  8
SheetCutProfiles
100
AcDbCircle
 10
78.533333333
 20
711.100000000
 30
0.000000000
 40
3.000000000
  0
CIRCLE
  5
C51
330
A02
100
AcDbEntity
  8
SheetCutProfiles
100
AcDbCircle
 10
392.666666667
 20
711.100000000
 30
0.000000000
 40
3.000000000
  0
LINE
  5
C52
330
A02
100
AcDbEntity
  8
SheetCutProfiles
100
AcDbLine
 10
458.500000000
 20
728.800000000
 30
0.000000000
 11
12.700000000
 21
728.800000000
 31
0.000000000
  0
ARC
  5
C53
330
A02
100
AcDbEntity
  8
SheetCutProfiles
100
AcDbCircle
 10
458.500000000
 20
741.500000000
 30
0.000000000
 40
12.700000000
100
AcDbArc
 50
-90.000000000
 51
90.000000000
  0
LINE
  5
C54
330
A02
100
AcDbEntity
  8
SheetCutProfiles
100
AcDbLine
 10
458.500000000
 20
754.200000000
 30
0.000000000
 11
12.700000000
 21
754.200000000
 31
0.000000000
  0
ARC
  5
C55
330
A02
100
AcDbEntity
  8
SheetCutProfiles
100
AcDbCircle
 10
12.700000000
 20
741.500000000
 30
0.000000000
 40
12.700000000
100
AcDbArc
 50
90.000000000
 51
-90.000000000
  0
CIRCLE
  5
C56
330
A02
100
AcDbEntity
  8
SheetCutProfiles
100
AcDbCircle
 10
392.666666667
 20
741.500000000
 30
0.000000000
 40
3.000000000
  0
CIRCLE
  5
C57
330
A02
100
AcDbEntity
  8
SheetCutProfiles
100
AcDbCircle
 10
78.533333333
 20
741.500000000
 30
0.000000000
 40
3.000000000
  0
LINE
  5
C58
330
A02
100
AcDbEntity
  8
SheetCutProfiles
100
AcDbLine
 10
12.700000000
 20
759.200000000
 30
0.000000000
 11
444.900000000
 21
759.200000000
 31
0.000000000
  0
ARC
  5
C59
330
A02
100
AcDbEntity
  8
SheetCutProfiles
100
AcDbCircle
 10
12.700000000
 20
771.900000000
 30
0.000000000
 40
12.700000000
100
AcDbArc
 50
90.000000000
 51
-90.000000000
  0
LINE
  5
C5A
330
A02
100
AcDbEntity
  8
SheetCutProfiles
100
AcDbLine
 10
12.700000000
 20
784.600000000
 30
0.000000000
 11
444.900000000
 21
784.600000000
 31
0.000000000
  0
ARC
  5
C5B
330
A02
100
AcDbEntity
  8
SheetCutProfiles
100
AcDbCircle
 10
444.900000000
 20
771.900000000
 30
0.000000000
 40
12.700000000
100
AcDbArc
 50
-90.000000000
 51
90.000000000
  0
CIRCLE
  5
C5C
330
A02
100
AcDbEntity
  8
SheetCutProfiles
100
AcDbCircle
 10
76.266666667
 20
771.900000000
 30
0.000000000
 40
3.000000000
  0
CIRCLE
  5
C5D
330
A02
100
AcDbEntity
  8
SheetCutProfiles
100
AcDbCircle
 10
381.333333333
 20
771.900000000
 30
0.000000000
 40
3.000000000
  0
LINE
  5
C5E
330
A02
100
AcDbEntity
  8
SheetCutProfiles
100
AcDbLine
 10
742.900000000
 20
552.000000000
 30
0.000000000
 11
1175.100000000
 21
552.000000000
 31
0.000000000
  0
ARC
  5
C5F
330
A02
100
AcDbEntity
  8
SheetCutProfiles
100
AcDbCircle
 10
742.900000000
 20
564.700000000
 30
0.000000000
 40
12.700000000
100
AcDbArc
 50
90.000000000
 51
-90.000000000
  0
LINE
  5
C60
330
A02
100
AcDbEntity
  8
SheetCutProfiles
100
AcDbLine
 10
742.900000000
 20
577.400000000
 30
0.000000000
 11
1175.100000000
 21
577.400000000
 31
0.000000000
  0
ARC
  5
C61
330
A02
100
AcDbEntity
  8
SheetCutProfiles
100
AcDbCircle
 10
1175.100000000
 20
564.700000000
 30
0.000000000
 40
12.700000000
100
AcDbArc
 50
-90.000000000
 51
90.000000000
  0
CIRCLE
  5
C62
330
A02
100
AcDbEntity
  8
SheetCutProfiles
100
AcDbCircle
 10
806.466666667
 20
564.700000000
 30
0.000000000
 40
3.000000000
  0
CIRCLE
  5
C63
330
A02
100
AcDbEntity
  8
SheetCutProfiles
100
AcDbCircle
 10
1111.533333333
 20
564.700000000
 30
0.000000000
 40
3.000000000
  0
LINE
  5
C64
330
A02
100
AcDbEntity
  8
SheetCutProfiles
100
AcDbLine
 10
1175.100000000
 20
521.600000000
 30
0.000000000
 11
742.900000000
 21
521.600000000
 31
0.000000000
  0
ARC
  5
C65
330
A02
100
AcDbEntity
  8
SheetCutProfiles
100
AcDbCircle
 10
1175.100000000
 20
534.300000000
 30
0.000000000
 40
12.700000000
100
AcDbArc
 50
-90.000000000
 51
90.000000000
  0
LINE
  5
C66
330
A02
100
AcDbEntity
  8
SheetCutProfiles
100
AcDbLine
 10
1175.100000000
 20
547.000000000
 30
0.000000000
 11
742.900000000
 21
547.000000000
 31
0.000000000
  0
ARC
  5
C67
330
A02
100
AcDbEntity
  8
SheetCutProfiles
100
AcDbCircle
 10
742.900000000
 20
534.300000000
 30
0.000000000
 40
12.700000000
100
AcDbArc
 50
90.000000000
 51
-90.000000000
  0
CIRCLE
  5
C68
330
A02
100
AcDbEntity
  8
SheetCutProfiles
100
AcDbCircle
 10
1111.533333333
 20
534.300000000
 30
0.000000000
 40
3.000000000
  0
CIRCLE
  5
C69
330
A02
100
AcDbEntity
  8
SheetCutProfiles
100
AcDbCircle
 10
806.466666667
 20
534.300000000
 30
0.000000000
 40
3.000000000
  0
ENDSEC
  0
SECTION
  2
OBJECTS
  0
DICTIONARY
  5
F000
330
0
100
AcDbDictionary
  3
ACAD_GROUP
350
F001
  0
DICTIONARY
  5
F001
330
F000
100
AcDbDictionary
  0
ENDSEC
  0
EOF