999
FreeCAD v1.1 20260725 (Git shallow)
  0
SECTION
  2
HEADER
  9
$ACADVER
  1
AC1014
  9
$ACADMAINTVER
 70
     9
  9
$DWGCODEPAGE
  3
ANSI_1252
  9
$TEXTSTYLE
  7
STANDARD
  9
$DIMSTYLE
  2
STANDARD
  9
$DIMTXSTY
  7
STANDARD
  9
$CMLSTYLE
  2
STANDARD
  9
$LUNITS
 70
2
  9
$INSUNITS
 70
4
  9
$PEXTMAX
 10
50
 20
50
 30
50
  9
$PEXTMIN
 10
0
 20
0
 30
0
  9
$HANDSEED
  5
FFFF
  0
ENDSEC
  0
SECTION
  2
CLASSES
  0
CLASS
  1
ACDBDICTIONARYWDFLT
  2
AcDbDictionaryWithDefault
  3
ObjectDBX Classes
 90
        0
280
     0
281
     0
  0
CLASS
  1
XRECORD
  2
AcDbXrecord
  3
ObjectDBX Classes
 90
        0
280
     0
281
     0
  0
CLASS
  1
LWPOLYLINE
  2
AcDbPolyline
  3
ObjectDBX Classes
 90
        0
280
     0
281
     1
  0
ENDSEC
  0
SECTION
  2
TABLES
  0
TABLE
  2
VPORT
  5
20
330
0
100
AcDbSymbolTable
 70
     1
  0
VPORT
  5
21
330
20
100
AcDbSymbolTableRecord
100
AcDbViewportTableRecord
  2
*ACTIVE
 70
     0
  0
ENDTAB
  0
TABLE
  2
LTYPE
  5
22
330
0
100
AcDbSymbolTable
 70
     1
  0
LTYPE
  5
23
330
21
100
AcDbSymbolTableRecord
100
AcDbLinetypeTableRecord
  2
BYBLOCK
 70
     0
  3

 72
    65
 73
     0
 40
0.0
  0
LTYPE
  5
24
330
21
100
AcDbSymbolTableRecord
100
AcDbLinetypeTableRecord
  2
BYLAYER
 70
     0
  3

 72
    65
 73
     0
 40
0.0
  0
LTYPE
  5
25
330
21
100
AcDbSymbolTableRecord
100
AcDbLinetypeTableRecord
  2
CONTINUOUS
 70
     0
  3
Solid line
 72
    65
 73
     0
 40
0.0
  0
ENDTAB
  0
TABLE
  2
LAYER
  5
D60
330
0
100
AcDbSymbolTable
 70
3
  0
LAYER
  5
D61
330
D60
100
AcDbSymbolTableRecord
100
AcDbLayerTableRecord
  2
0
 70
   0
 62
   7
  6
CONTINUOUS
  0
LAYER
  5
D62
330
D60
100
AcDbSymbolTableRecord
100
AcDbLayerTableRecord
  2
none
 70
    0
 62
    7
  6
CONTINUOUS
  0
LAYER
  5
D63
330
D60
100
AcDbSymbolTableRecord
100
AcDbLayerTableRecord
  2
SheetCutProfiles
 70
    0
 62
    7
  6
CONTINUOUS
  0
ENDTAB
  0
TABLE
  2
STYLE
  5
70
330
0
100
AcDbSymbolTable
 70
     2
  0
STYLE
  5
71
330
70
100
AcDbSymbolTableRecord
100
AcDbTextStyleTableRecord
  2
STANDARD
 70
     0
 40
0.0
 41
1.0
 50
0.0
 71
     0
 42
2.5
  3
arial.ttf
  4

  0
STYLE
  5
72
330
70
100
AcDbSymbolTableRecord
100
AcDbTextStyleTableRecord
  2
ANNOTATIVE
 70
     0
 40
0.0
 41
1.0
 50
0.0
 71
     0
 42
2.5
  3
arial.ttf
  4

  0
ENDTAB
  0
TABLE
  2
VIEW
  5
73
330
0
100
AcDbSymbolTable
 70
     0
  0
ENDTAB
  0
TABLE
  2
UCS
  5
74
330
0
100
AcDbSymbolTable
 70
     0
  0
ENDTAB
  0
TABLE
  2
APPID
  5
75
330
0
100
AcDbSymbolTable
 70
     2
  0
APPID
  5
76
330
75
100
AcDbSymbolTableRecord
100
AcDbRegAppTableRecord
  2
ACAD
 70
     0
  0
APPID
  5
77
330
75
100
AcDbSymbolTableRecord
100
AcDbRegAppTableRecord
  2
ACADANNOTATIVE
 70
     0
  0
ENDTAB
  0
TABLE
  2
DIMSTYLE
  5
78
330
0
100
AcDbSymbolTable
 70
     2
  0
DIMSTYLE
105
79
330
78
100
AcDbSymbolTableRecord
100
AcDbDimStyleTableRecord
  2
STANDARD
 70
     0
  3

  4

  5

  6

  7

 40
0.0
 41
2.5
 42
0.625
 43
3.75
 44
1.25
 45
0.0
 46
0.0
 47
0.0
 48
0.0
140
2.5
141
2.5
142
0.0
143
0.03937007874016
144
1.0
145
0.0
146
1.0
147
0.625
 71
     0
 72
     0
 73
     0
 74
     0
 75
     0
 76
     0
 77
     1
 78
     8
170
     0
171
     3
172
     1
173
     0
174
     0
175
     0
176
     0
177
     0
178
     0
270
     2
271
     2
272
     2
273
     2
274
     3
340
71
275
     0
280
     0
281
     0
282
     0
283
     0
284
     8
285
     0
286
     0
287
     3
288
     0
  0
ENDTAB
  0
TABLE
  2
BLOCK_RECORD
  5
A01
330
0
100
AcDbSymbolTable
  70
5
  0
BLOCK_RECORD
  5
A02
330
A01
100
AcDbSymbolTableRecord
100
AcDbBlockTableRecord
  2
*MODEL_SPACE
  0
BLOCK_RECORD
  5
A03
330
A01
100
AcDbSymbolTableRecord
100
AcDbBlockTableRecord
  2
*PAPER_SPACE
  0
ENDTAB
  0
ENDSEC
  0
SECTION
  2
BLOCKS
  0
BLOCK
  5
A04
330
A02
100
AcDbEntity
  8
0
100
AcDbBlockBegin
  2
*MODEL_SPACE
 70
   0
 10
0
 20
0
 30
0
  3
*MODEL_SPACE
  1
 
  0
ENDBLK
  5
A05
330
A02
100
AcDbEntity
  8
0
100
AcDbBlockEnd
  0
BLOCK
  5
A06
330
A03
100
AcDbEntity
 67
1
  8
0
100
AcDbBlockBegin
  2
*PAPER_SPACE
 70
   0
 10
0
 20
0
 30
0
  3
*PAPER_SPACE
  1
 
  0
ENDBLK
  5
A07
330
A03
100
AcDbEntity
 67
    1
  8
0
100
AcDbBlockEnd
  0
ENDSEC
  0
SECTION
  2
ENTITIES
  0
LINE
  5
A08
330
A02
100
AcDbEntity
  8
SheetCutProfiles
100
AcDbLine
 10
13.600000000
 20
706.225000000
 30
0.000000000
 11
13.600000000
 21
752.400000000
 31
0.000000000
  0
LINE
  5
A09
330
A02
100
AcDbEntity
  8
SheetCutProfiles
100
AcDbLine
 10
13.600000000
 20
752.400000000
 30
0.000000000
 11
34.375000000
 21
752.400000000
 31
0.000000000
  0
LINE
  5
A0A
330
A02
100
AcDbEntity
  8
SheetCutProfiles
100
AcDbLine
 10
34.375000000
 20
764.000000000
 30
0.000000000
 11
34.375000000
 21
752.400000000
 31
0.000000000
  0
ARC
  5
A0B
330
A02
100
AcDbEntity
  8
SheetCutProfiles
100
AcDbCircle
 10
36.375000000
 20
764.000000000
 30
0.000000000
 40
2.000000000
100
AcDbArc
 50
90.000000000
 51
180.000000000
  0
LINE
  5
A0C
330
A02
100
AcDbEntity
  8
SheetCutProfiles
100
AcDbLine
 10
36.375000000
 20
766.000000000
 30
0.000000000
 11
73.925000000
 21
766.000000000
 31
0.000000000
  0
ARC
  5
A0D
330
A02
100
AcDbEntity
  8
SheetCutProfiles
100
AcDbCircle
 10
73.925000000
 20
764.000000000
 30
0.000000000
 40
2.000000000
100
AcDbArc
 50
0.000000000
 51
90.000000000
  0
LINE
  5
A0E
330
A02
100
AcDbEntity
  8
SheetCutProfiles
100
AcDbLine
 10
75.925000000
 20
752.400000000
 30
0.000000000
 11
75.925000000
 21
764.000000000
 31
0.000000000
  0
LINE
  5
A0F
330
A02
100
AcDbEntity
  8
SheetCutProfiles
100
AcDbLine
 10
75.925000000
 20
752.400000000
 30
0.000000000
 11
117.475000000
 21
752.400000000
 31
0.000000000
  0
LINE
  5
A10
330
A02
100
AcDbEntity
  8
SheetCutProfiles
100
AcDbLine
 10
117.475000000
 20
764.000000000
 30
0.000000000
 11
117.475000000
 21
752.400000000
 31
0.000000000
  0
ARC
  5
A11
330
A02
100
AcDbEntity
  8
SheetCutProfiles
100
AcDbCircle
 10
119.475000000
 20
764.000000000
 30
0.000000000
 40
2.000000000
100
AcDbArc
 50
90.000000000
 51
180.000000000
  0
LINE
  5
A12
330
A02
100
AcDbEntity
  8
SheetCutProfiles
100
AcDbLine
 10
119.475000000
 20
766.000000000
 30
0.000000000
 11
157.025000000
 21
766.000000000
 31
0.000000000
  0
ARC
  5
A13
330
A02
100
AcDbEntity
  8
SheetCutProfiles
100
AcDbCircle
 10
157.025000000
 20
764.000000000
 30
0.000000000
 40
2.000000000
100
AcDbArc
 50
0.000000000
 51
90.000000000
  0
LINE
  5
A14
330
A02
100
AcDbEntity
  8
SheetCutProfiles
100
AcDbLine
 10
159.025000000
 20
752.400000000
 30
0.000000000
 11
159.025000000
 21
764.000000000
 31
0.000000000
  0
LINE
  5
A15
330
A02
100
AcDbEntity
  8
SheetCutProfiles
100
AcDbLine
 10
159.025000000
 20
752.400000000
 30
0.000000000
 11
200.575000000
 21
752.400000000
 31
0.000000000
  0
LINE
  5
A16
330
A02
100
AcDbEntity
  8
SheetCutProfiles
100
AcDbLine
 10
200.575000000
 20
764.000000000
 30
0.000000000
 11
200.575000000
 21
752.400000000
 31
0.000000000
  0
ARC
  5
A17
330
A02
100
AcDbEntity
  8
SheetCutProfiles
100
AcDbCircle
 10
202.575000000
 20
764.000000000
 30
0.000000000
 40
2.000000000
100
AcDbArc
 50
90.000000000
 51
180.000000000
  0
LINE
  5
A18
330
A02
100
AcDbEntity
  8
SheetCutProfiles
100
AcDbLine
 10
202.575000000
 20
766.000000000
 30
0.000000000
 11
240.125000000
 21
766.000000000
 31
0.000000000
  0
ARC
  5
A19
330
A02
100
AcDbEntity
  8
SheetCutProfiles
100
AcDbCircle
 10
240.125000000
 20
764.000000000
 30
0.000000000
 40
2.000000000
100
AcDbArc
 50
0.000000000
 51
90.000000000
  0
LINE
  5
A1A
330
A02
100
AcDbEntity
  8
SheetCutProfiles
100
AcDbLine
 10
242.125000000
 20
752.400000000
 30
0.000000000
 11
242.125000000
 21
764.000000000
 31
0.000000000
  0
LINE
  5
A1B
330
A02
100
AcDbEntity
  8
SheetCutProfiles
100
AcDbLine
 10
242.125000000
 20
752.400000000
 30
0.000000000
 11
283.675000000
 21
752.400000000
 31
0.000000000
  0
LINE
  5
A1C
330
A02
100
AcDbEntity
  8
SheetCutProfiles
100
AcDbLine
 10
283.675000000
 20
764.000000000
 30
0.000000000
 11
283.675000000
 21
752.400000000
 31
0.000000000
  0
ARC
  5
A1D
330
A02
100
AcDbEntity
  8
SheetCutProfiles
100
AcDbCircle
 10
285.675000000
 20
764.000000000
 30
0.000000000
 40
2.000000000
100
AcDbArc
 50
90.000000000
 51
180.000000000
  0
LINE
  5
A1E
330
A02
100
AcDbEntity
  8
SheetCutProfiles
100
AcDbLine
 10
285.675000000
 20
766.000000000
 30
0.000000000
 11
323.225000000
 21
766.000000000
 31
0.000000000
  0
ARC
  5
A1F
330
A02
100
AcDbEntity
  8
SheetCutProfiles
100
AcDbCircle
 10
323.225000000
 20
764.000000000
 30
0.000000000
 40
2.000000000
100
AcDbArc
 50
0.000000000
 51
90.000000000
  0
LINE
  5
A20
330
A02
100
AcDbEntity
  8
SheetCutProfiles
100
AcDbLine
 10
325.225000000
 20
752.400000000
 30
0.000000000
 11
325.225000000
 21
764.000000000
 31
0.000000000
  0
LINE
  5
A21
330
A02
100
AcDbEntity
  8
SheetCutProfiles
100
AcDbLine
 10
325.225000000
 20
752.400000000
 30
0.000000000
 11
346.000000000
 21
752.400000000
 31
0.000000000
  0
LINE
  5
A22
330
A02
100
AcDbEntity
  8
SheetCutProfiles
100
AcDbLine
 10
346.000000000
 20
752.400000000
 30
0.000000000
 11
346.000000000
 21
706.225000000
 31
0.000000000
  0
LINE
  5
A23
330
A02
100
AcDbEntity
  8
SheetCutProfiles
100
AcDbLine
 10
357.600000000
 20
706.225000000
 30
0.000000000
 11
346.000000000
 21
706.225000000
 31
0.000000000
  0
ARC
  5
A24
330
A02
100
AcDbEntity
  8
SheetCutProfiles
100
AcDbCircle
 10
357.600000000
 20
704.225000000
 30
0.000000000
 40
2.000000000
100
AcDbArc
 50
0.000000000
 51
90.000000000
  0
LINE
  5
A25
330
A02
100
AcDbEntity
  8
SheetCutProfiles
100
AcDbLine
 10
359.600000000
 20
704.225000000
 30
0.000000000
 11
359.600000000
 21
615.875000000
 31
0.000000000
  0
ARC
  5
A26
330
A02
100
AcDbEntity
  8
SheetCutProfiles
100
AcDbCircle
 10
357.600000000
 20
615.875000000
 30
0.000000000
 40
2.000000000
100
AcDbArc
 50
-90.000000000
 51
0.000000000
  0
LINE
  5
A27
330
A02
100
AcDbEntity
  8
SheetCutProfiles
100
AcDbLine
 10
346.000000000
 20
613.875000000
 30
0.000000000
 11
357.600000000
 21
613.875000000
 31
0.000000000
  0
LINE
  5
A28
330
A02
100
AcDbEntity
  8
SheetCutProfiles
100
AcDbLine
 10
346.000000000
 20
613.875000000
 30
0.000000000
 11
346.000000000
 21
521.525000000
 31
0.000000000
  0
LINE
  5
A29
330
A02
100
AcDbEntity
  8
SheetCutProfiles
100
AcDbLine
 10
357.600000000
 20
521.525000000
 30
0.000000000
 11
346.000000000
 21
521.525000000
 31
0.000000000
  0
ARC
  5
A2A
330
A02
100
AcDbEntity
  8
SheetCutProfiles
100
AcDbCircle
 10
357.600000000
 20
519.525000000
 30
0.000000000
 40
2.000000000
100
AcDbArc
 50
0.000000000
 51
90.000000000
  0
LINE
  5
A2B
330
A02
100
AcDbEntity
  8
SheetCutProfiles
100
AcDbLine
 10
359.600000000
 20
519.525000000
 30
0.000000000
 11
359.600000000
 21
431.175000000
 31
0.000000000
  0
ARC
  5
A2C
330
A02
100
AcDbEntity
  8
SheetCutProfiles
100
AcDbCircle
 10
357.600000000
 20
431.175000000
 30
0.000000000
 40
2.000000000
100
AcDbArc
 50
-90.000000000
 51
0.000000000
  0
LINE
  5
A2D
330
A02
100
AcDbEntity
  8
SheetCutProfiles
100
AcDbLine
 10
346.000000000
 20
429.175000000
 30
0.000000000
 11
357.600000000
 21
429.175000000
 31
0.000000000
  0
LINE
  5
A2E
330
A02
100
AcDbEntity
  8
SheetCutProfiles
100
AcDbLine
 10
346.000000000
 20
429.175000000
 30
0.000000000
 11
346.000000000
 21
336.825000000
 31
0.000000000
  0
LINE
  5
A2F
330
A02
100
AcDbEntity
  8
SheetCutProfiles
100
AcDbLine
 10
357.600000000
 20
336.825000000
 30
0.000000000
 11
346.000000000
 21
336.825000000
 31
0.000000000
  0
ARC
  5
A30
330
A02
100
AcDbEntity
  8
SheetCutProfiles
100
AcDbCircle
 10
357.600000000
 20
334.825000000
 30
0.000000000
 40
2.000000000
100
AcDbArc
 50
0.000000000
 51
90.000000000
  0
LINE
  5
A31
330
A02
100
AcDbEntity
  8
SheetCutProfiles
100
AcDbLine
 10
359.600000000
 20
334.825000000
 30
0.000000000
 11
359.600000000
 21
246.475000000
 31
0.000000000
  0
ARC
  5
A32
330
A02
100
AcDbEntity
  8
SheetCutProfiles
100
AcDbCircle
 10
357.600000000
 20
246.475000000
 30
0.000000000
 40
2.000000000
100
AcDbArc
 50
-90.000000000
 51
0.000000000
  0
LINE
  5
A33
330
A02
100
AcDbEntity
  8
SheetCutProfiles
100
AcDbLine
 10
346.000000000
 20
244.475000000
 30
0.000000000
 11
357.600000000
 21
244.475000000
 31
0.000000000
  0
LINE
  5
A34
330
A02
100
AcDbEntity
  8
SheetCutProfiles
100
AcDbLine
 10
346.000000000
 20
244.475000000
 30
0.000000000
 11
346.000000000
 21
152.125000000
 31
0.000000000
  0
LINE
  5
A35
330
A02
100
AcDbEntity
  8
SheetCutProfiles
100
AcDbLine
 10
357.600000000
 20
152.125000000
 30
0.000000000
 11
346.000000000
 21
152.125000000
 31
0.000000000
  0
ARC
  5
A36
330
A02
100
AcDbEntity
  8
SheetCutProfiles
100
AcDbCircle
 10
357.600000000
 20
150.125000000
 30
0.000000000
 40
2.000000000
100
AcDbArc
 50
0.000000000
 51
90.000000000
  0
LINE
  5
A37
330
A02
100
AcDbEntity
  8
SheetCutProfiles
100
AcDbLine
 10
359.600000000
 20
150.125000000
 30
0.000000000
 11
359.600000000
 21
61.775000000
 31
0.000000000
  0
ARC
  5
A38
330
A02
100
AcDbEntity
  8
SheetCutProfiles
100
AcDbCircle
 10
357.600000000
 20
61.775000000
 30
0.000000000
 40
2.000000000
100
AcDbArc
 50
-90.000000000
 51
0.000000000
  0
LINE
  5
A39
330
A02
100
AcDbEntity
  8
SheetCutProfiles
100
AcDbLine
 10
346.000000000
 20
59.775000000
 30
0.000000000
 11
357.600000000
 21
59.775000000
 31
0.000000000
  0
LINE
  5
A3A
330
A02
100
AcDbEntity
  8
SheetCutProfiles
100
AcDbLine
 10
346.000000000
 20
59.775000000
 30
0.000000000
 11
346.000000000
 21
13.600000000
 31
0.000000000
  0
LINE
  5
A3B
330
A02
100
AcDbEntity
  8
SheetCutProfiles
100
AcDbLine
 10
346.000000000
 20
13.600000000
 30
0.000000000
 11
325.225000000
 21
13.600000000
 31
0.000000000
  0
LINE
  5
A3C
330
A02
100
AcDbEntity
  8
SheetCutProfiles
100
AcDbLine
 10
325.225000000
 20
2.000000000
 30
0.000000000
 11
325.225000000
 21
13.600000000
 31
0.000000000
  0
ARC
  5
A3D
330
A02
100
AcDbEntity
  8
SheetCutProfiles
100
AcDbCircle
 10
323.225000000
 20
2.000000000
 30
0.000000000
 40
2.000000000
100
AcDbArc
 50
-90.000000000
 51
0.000000000
  0
LINE
  5
A3E
330
A02
100
AcDbEntity
  8
SheetCutProfiles
100
AcDbLine
 10
323.225000000
 20
0.000000000
 30
0.000000000
 11
285.675000000
 21
0.000000000
 31
0.000000000
  0
ARC
  5
A3F
330
A02
100
AcDbEntity
  8
SheetCutProfiles
100
AcDbCircle
 10
285.675000000
 20
2.000000000
 30
0.000000000
 40
2.000000000
100
AcDbArc
 50
180.000000000
 51
-90.000000000
  0
LINE
  5
A40
330
A02
100
AcDbEntity
  8
SheetCutProfiles
100
AcDbLine
 10
283.675000000
 20
13.600000000
 30
0.000000000
 11
283.675000000
 21
2.000000000
 31
0.000000000
  0
LINE
  5
A41
330
A02
100
AcDbEntity
  8
SheetCutProfiles
100
AcDbLine
 10
283.675000000
 20
13.600000000
 30
0.000000000
 11
242.125000000
 21
13.600000000
 31
0.000000000
  0
LINE
  5
A42
330
A02
100
AcDbEntity
  8
SheetCutProfiles
100
AcDbLine
 10
242.125000000
 20
2.000000000
 30
0.000000000
 11
242.125000000
 21
13.600000000
 31
0.000000000
  0
ARC
  5
A43
330
A02
100
AcDbEntity
  8
SheetCutProfiles
100
AcDbCircle
 10
240.125000000
 20
2.000000000
 30
0.000000000
 40
2.000000000
100
AcDbArc
 50
-90.000000000
 51
0.000000000
  0
LINE
  5
A44
330
A02
100
AcDbEntity
  8
SheetCutProfiles
100
AcDbLine
 10
240.125000000
 20
0.000000000
 30
0.000000000
 11
202.575000000
 21
0.000000000
 31
0.000000000
  0
ARC
  5
A45
330
A02
100
AcDbEntity
  8
SheetCutProfiles
100
AcDbCircle
 10
202.575000000
 20
2.000000000
 30
0.000000000
 40
2.000000000
100
AcDbArc
 50
180.000000000
 51
-90.000000000
  0
LINE
  5
A46
330
A02
100
AcDbEntity
  8
SheetCutProfiles
100
AcDbLine
 10
200.575000000
 20
13.600000000
 30
0.000000000
 11
200.575000000
 21
2.000000000
 31
0.000000000
  0
LINE
  5
A47
330
A02
100
AcDbEntity
  8
SheetCutProfiles
100
AcDbLine
 10
200.575000000
 20
13.600000000
 30
0.000000000
 11
159.025000000
 21
13.600000000
 31
0.000000000
  0
LINE
  5
A48
330
A02
100
AcDbEntity
  8
SheetCutProfiles
100
AcDbLine
 10
159.025000000
 20
2.000000000
 30
0.000000000
 11
159.025000000
 21
13.600000000
 31
0.000000000
  0
ARC
  5
A49
330
A02
100
AcDbEntity
  8
SheetCutProfiles
100
AcDbCircle
 10
157.025000000
 20
2.000000000
 30
0.000000000
 40
2.000000000
100
AcDbArc
 50
-90.000000000
 51
0.000000000
  0
LINE
  5
A4A
330
A02
100
AcDbEntity
  8
SheetCutProfiles
100
AcDbLine
 10
157.025000000
 20
0.000000000
 30
0.000000000
 11
119.475000000
 21
0.000000000
 31
0.000000000
  0
ARC
  5
A4B
330
A02
100
AcDbEntity
  8
SheetCutProfiles
100
AcDbCircle
 10
119.475000000
 20
2.000000000
 30
0.000000000
 40
2.000000000
100
AcDbArc
 50
180.000000000
 51
-90.000000000
  0
LINE
  5
A4C
330
A02
100
AcDbEntity
  8
SheetCutProfiles
100
AcDbLine
 10
117.475000000
 20
13.600000000
 30
0.000000000
 11
117.475000000
 21
2.000000000
 31
0.000000000
  0
LINE
  5
A4D
330
A02
100
AcDbEntity
  8
SheetCutProfiles
100
AcDbLine
 10
117.475000000
 20
13.600000000
 30
0.000000000
 11
75.925000000
 21
13.600000000
 31
0.000000000
  0
LINE
  5
A4E
330
A02
100
AcDbEntity
  8
SheetCutProfiles
100
AcDbLine
 10
75.925000000
 20
2.000000000
 30
0.000000000
 11
75.925000000
 21
13.600000000
 31
0.000000000
  0
ARC
  5
A4F
330
A02
100
AcDbEntity
  8
SheetCutProfiles
100
AcDbCircle
 10
73.925000000
 20
2.000000000
 30
0.000000000
 40
2.000000000
100
AcDbArc
 50
-90.000000000
 51
0.000000000
  0
LINE
  5
A50
330
A02
100
AcDbEntity
  8
SheetCutProfiles
100
AcDbLine
 10
73.925000000
 20
0.000000000
 30
0.000000000
 11
36.375000000
 21
0.000000000
 31
0.000000000
  0
ARC
  5
A51
330
A02
100
AcDbEntity
  8
SheetCutProfiles
100
AcDbCircle
 10
36.375000000
 20
2.000000000
 30
0.000000000
 40
2.000000000
100
AcDbArc
 50
180.000000000
 51
-90.000000000
  0
LINE
  5
A52
330
A02
100
AcDbEntity
  8
SheetCutProfiles
100
AcDbLine
 10
34.375000000
 20
13.600000000
 30
0.000000000
 11
34.375000000
 21
2.000000000
 31
0.000000000
  0
LINE
  5
A53
330
A02
100
AcDbEntity
  8
SheetCutProfiles
100
AcDbLine
 10
34.375000000
 20
13.600000000
 30
0.000000000
 11
13.600000000
 21
13.600000000
 31
0.000000000
  0
LINE
  5
A54
330
A02
100
AcDbEntity
  8
SheetCutProfiles
100
AcDbLine
 10
13.600000000
 20
13.600000000
 30
0.000000000
 11
13.600000000
 21
59.775000000
 31
0.000000000
  0
LINE
  5
A55
330
A02
100
AcDbEntity
  8
SheetCutProfiles
100
AcDbLine
 10
2.000000000
 20
59.775000000
 30
0.000000000
 11
13.600000000
 21
59.775000000
 31
0.000000000
  0
ARC
  5
A56
330
A02
100
AcDbEntity
  8
SheetCutProfiles
100
AcDbCircle
 10
2.000000000
 20
61.775000000
 30
0.000000000
 40
2.000000000
100
AcDbArc
 50
180.000000000
 51
-90.000000000
  0
LINE
  5
A57
330
A02
100
AcDbEntity
  8
SheetCutProfiles
100
AcDbLine
 10
0.000000000
 20
61.775000000
 30
0.000000000
 11
0.000000000
 21
150.125000000
 31
0.000000000
  0
ARC
  5
A58
330
A02
100
AcDbEntity
  8
SheetCutProfiles
100
AcDbCircle
 10
2.000000000
 20
150.125000000
 30
0.000000000
 40
2.000000000
100
AcDbArc
 50
90.000000000
 51
180.000000000
  0
LINE
  5
A59
330
A02
100
AcDbEntity
  8
SheetCutProfiles
100
AcDbLine
 10
13.600000000
 20
152.125000000
 30
0.000000000
 11
2.000000000
 21
152.125000000
 31
0.000000000
  0
LINE
  5
A5A
330
A02
100
AcDbEntity
  8
SheetCutProfiles
100
AcDbLine
 10
13.600000000
 20
152.125000000
 30
0.000000000
 11
13.600000000
 21
244.475000000
 31
0.000000000
  0
LINE
  5
A5B
330
A02
100
AcDbEntity
  8
SheetCutProfiles
100
AcDbLine
 10
2.000000000
 20
244.475000000
 30
0.000000000
 11
13.600000000
 21
244.475000000
 31
0.000000000
  0
ARC
  5
A5C
330
A02
100
AcDbEntity
  8
SheetCutProfiles
100
AcDbCircle
 10
2.000000000
 20
246.475000000
 30
0.000000000
 40
2.000000000
100
AcDbArc
 50
180.000000000
 51
-90.000000000
  0
LINE
  5
A5D
330
A02
100
AcDbEntity
  8
SheetCutProfiles
100
AcDbLine
 10
0.000000000
 20
246.475000000
 30
0.000000000
 11
0.000000000
 21
334.825000000
 31
0.000000000
  0
ARC
  5
A5E
330
A02
100
AcDbEntity
  8
SheetCutProfiles
100
AcDbCircle
 10
2.000000000
 20
334.825000000
 30
0.000000000
 40
2.000000000
100
AcDbArc
 50
90.000000000
 51
180.000000000
  0
LINE
  5
A5F
330
A02
100
AcDbEntity
  8
SheetCutProfiles
100
AcDbLine
 10
13.600000000
 20
336.825000000
 30
0.000000000
 11
2.000000000
 21
336.825000000
 31
0.000000000
  0
LINE
  5
A60
330
A02
100
AcDbEntity
  8
SheetCutProfiles
100
AcDbLine
 10
13.600000000
 20
336.825000000
 30
0.000000000
 11
13.600000000
 21
429.175000000
 31
0.000000000
  0
LINE
  5
A61
330
A02
100
AcDbEntity
  8
SheetCutProfiles
100
AcDbLine
 10
2.000000000
 20
429.175000000
 30
0.000000000
 11
13.600000000
 21
429.175000000
 31
0.000000000
  0
ARC
  5
A62
330
A02
100
AcDbEntity
  8
SheetCutProfiles
100
AcDbCircle
 10
2.000000000
 20
431.175000000
 30
0.000000000
 40
2.000000000
100
AcDbArc
 50
180.000000000
 51
-90.000000000
  0
LINE
  5
A63
330
A02
100
AcDbEntity
  8
SheetCutProfiles
100
AcDbLine
 10
0.000000000
 20
431.175000000
 30
0.000000000
 11
0.000000000
 21
519.525000000
 31
0.000000000
  0
ARC
  5
A64
330
A02
100
AcDbEntity
  8
SheetCutProfiles
100
AcDbCircle
 10
2.000000000
 20
519.525000000
 30
0.000000000
 40
2.000000000
100
AcDbArc
 50
90.000000000
 51
180.000000000
  0
LINE
  5
A65
330
A02
100
AcDbEntity
  8
SheetCutProfiles
100
AcDbLine
 10
13.600000000
 20
521.525000000
 30
0.000000000
 11
2.000000000
 21
521.525000000
 31
0.000000000
  0
LINE
  5
A66
330
A02
100
AcDbEntity
  8
SheetCutProfiles
100
AcDbLine
 10
13.600000000
 20
521.525000000
 30
0.000000000
 11
13.600000000
 21
613.875000000
 31
0.000000000
  0
LINE
  5
A67
330
A02
100
AcDbEntity
  8
SheetCutProfiles
100
AcDbLine
 10
2.000000000
 20
613.875000000
 30
0.000000000
 11
13.600000000
 21
613.875000000
 31
0.000000000
  0
ARC
  5
A68
330
A02
100
AcDbEntity
  8
SheetCutProfiles
100
AcDbCircle
 10
2.000000000
 20
615.875000000
 30
0.000000000
 40
2.000000000
100
AcDbArc
 50
180.000000000
 51
-90.000000000
  0
LINE
  5
A69
330
A02
100
AcDbEntity
  8
SheetCutProfiles
100
AcDbLine
 10
0.000000000
 20
615.875000000
 30
0.000000000
 11
0.000000000
 21
704.225000000
 31
0.000000000
  0
ARC
  5
A6A
330
A02
100
AcDbEntity
  8
SheetCutProfiles
100
AcDbCircle
 10
2.000000000
 20
704.225000000
 30
0.000000000
 40
2.000000000
100
AcDbArc
 50
90.000000000
 51
180.000000000
  0
LINE
  5
A6B
330
A02
100
AcDbEntity
  8
SheetCutProfiles
100
AcDbLine
 10
13.600000000
 20
706.225000000
 30
0.000000000
 11
2.000000000
 21
706.225000000
 31
0.000000000
  0
LINE
  5
A6C
330
A02
100
AcDbEntity
  8
SheetCutProfiles
100
AcDbLine
 10
337.389678412
 20
740.551357696
 30
0.000000000
 11
336.149798453
 21
725.643024363
 31
0.000000000
  0
ARC
  5
A6D
330
A02
100
AcDbEntity
  8
SheetCutProfiles
100
AcDbCircle
 10
334.400000000
 20
740.800000000
 30
0.000000000
 40
3.000000000
100
AcDbArc
 50
-4.754171744
 51
94.425905217
  0
LINE
  5
A6E
330
A02
100
AcDbEntity
  8
SheetCutProfiles
100
AcDbLine
 10
327.726823876
 20
743.292464828
 30
0.000000000
 11
334.168490543
 21
743.791053890
 31
0.000000000
  0
ARC
  5
A6F
330
A02
100
AcDbEntity
  8
SheetCutProfiles
100
AcDbCircle
 10
327.958333333
 20
740.301410938
 30
0.000000000
 40
3.000000000
100
AcDbArc
 50
94.425905217
 51
102.430279492
  0
LINE
  5
A70
330
A02
100
AcDbEntity
  8
SheetCutProfiles
100
AcDbLine
 10
320.870912329
 20
741.811225395
 30
0.000000000
 11
327.312578996
 21
743.231086916
 31
0.000000000
  0
ARC
  5
A71
330
A02
100
AcDbEntity
  8
SheetCutProfiles
100
AcDbCircle
 10
321.516666667
 20
738.881549417
 30
0.000000000
 40
3.000000000
100
AcDbArc
 50
102.430279492
 51
108.256656828
  0
LINE
  5
A72
330
A02
100
AcDbEntity
  8
SheetCutProfiles
100
AcDbLine
 10
314.135177569
 20
739.605564688
 30
0.000000000
 11
320.576844235
 21
741.730537623
 31
0.000000000
  0
ARC
  5
A73
330
A02
100
AcDbEntity
  8
SheetCutProfiles
100
AcDbCircle
 10
315.075000000
 20
736.756576482
 30
0.000000000
 40
3.000000000
100
AcDbArc
 50
108.256656828
 51
111.261969299
  0
LINE
  5
A74
330
A02
100
AcDbEntity
  8
SheetCutProfiles
100
AcDbLine
 10
301.177108684
 20
734.567758007
 30
0.000000000
 11
313.987101809
 21
739.552372885
 31
0.000000000
  0
LINE
  5
A75
330
A02
100
AcDbEntity
  8
SheetCutProfiles
100
AcDbLine
 10
294.955158572
 20
732.515265031
 30
0.000000000
 11
301.177108684
 21
734.567758007
 31
0.000000000
  0
LINE
  5
A76
330
A02
100
AcDbEntity
  8
SheetCutProfiles
100
AcDbLine
 10
288.867554278
 20
731.173445353
 30
0.000000000
 11
294.955158572
 21
732.515265031
 31
0.000000000
  0
LINE
  5
A77
330
A02
100
AcDbEntity
  8
SheetCutProfiles
100
AcDbLine
 10
282.866666667
 20
730.708972868
 30
0.000000000
 11
288.867554278
 21
731.173445353
 31
0.000000000
  0
LINE
  5
A78
330
A02
100
AcDbEntity
  8
SheetCutProfiles
100
AcDbLine
 10
276.865779055
 20
731.173445353
 30
0.000000000
 11
282.866666667
 21
730.708972868
 31
0.000000000
  0
LINE
  5
A79
330
A02
100
AcDbEntity
  8
SheetCutProfiles
100
AcDbLine
 10
270.778174761
 20
732.515265031
 30
0.000000000
 11
276.865779055
 21
731.173445353
 31
0.000000000
  0
LINE
  5
A7A
330
A02
100
AcDbEntity
  8
SheetCutProfiles
100
AcDbLine
 10
264.556224650
 20
734.567758007
 30
0.000000000
 11
270.778174761
 21
732.515265031
 31
0.000000000
  0
LINE
  5
A7B
330
A02
100
AcDbEntity
  8
SheetCutProfiles
100
AcDbLine
 10
251.746231524
 20
739.552372885
 30
0.000000000
 11
264.556224650
 21
734.567758007
 31
0.000000000
  0
ARC
  5
A7C
330
A02
100
AcDbEntity
  8
SheetCutProfiles
100
AcDbCircle
 10
250.658333333
 20
736.756576482
 30
0.000000000
 40
3.000000000
100
AcDbArc
 50
68.738030701
 51
71.743343172
  0
LINE
  5
A7D
330
A02
100
AcDbEntity
  8
SheetCutProfiles
100
AcDbLine
 10
245.156489098
 20
741.730537623
 30
0.000000000
 11
251.598155765
 21
739.605564688
 31
0.000000000
  0
ARC
  5
A7E
330
A02
100
AcDbEntity
  8
SheetCutProfiles
100
AcDbCircle
 10
244.216666667
 20
738.881549417
 30
0.000000000
 40
3.000000000
100
AcDbArc
 50
71.743343172
 51
77.569720508
  0
LINE
  5
A7F
330
A02
100
AcDbEntity
  8
SheetCutProfiles
100
AcDbLine
 10
238.420754337
 20
743.231086916
 30
0.000000000
 11
244.862421004
 21
741.811225395
 31
0.000000000
  0
ARC
  5
A80
330
A02
100
AcDbEntity
  8
SheetCutProfiles
100
AcDbCircle
 10
237.775000000
 20
740.301410938
 30
0.000000000
 40
3.000000000
100
AcDbArc
 50
77.569720508
 51
85.574094783
  0
LINE
  5
A81
330
A02
100
AcDbEntity
  8
SheetCutProfiles
100
AcDbLine
 10
231.564842791
 20
743.791053890
 30
0.000000000
 11
238.006509457
 21
743.292464828
 31
0.000000000
  0
ARC
  5
A82
330
A02
100
AcDbEntity
  8
SheetCutProfiles
100
AcDbCircle
 10
231.333333333
 20
740.800000000
 30
0.000000000
 40
3.000000000
100
AcDbArc
 50
85.574094783
 51
94.425905217
  0
LINE
  5
A83
330
A02
100
AcDbEntity
  8
SheetCutProfiles
100
AcDbLine
 10
224.660157209
 20
743.292464828
 30
0.000000000
 11
231.101823876
 21
743.791053890
 31
0.000000000
  0
ARC
  5
A84
330
A02
100
AcDbEntity
  8
SheetCutProfiles
100
AcDbCircle
 10
224.891666667
 20
740.301410938
 30
0.000000000
 40
3.000000000
100
AcDbArc
 50
94.425905217
 51
102.430279492
  0
LINE
  5
A85
330
A02
100
AcDbEntity
  8
SheetCutProfiles
100
AcDbLine
 10
217.804245663
 20
741.811225395
 30
0.000000000
 11
224.245912329
 21
743.231086916
 31
0.000000000
  0
ARC
  5
A86
330
A02
100
AcDbEntity
  8
SheetCutProfiles
100
AcDbCircle
 10
218.450000000
 20
738.881549417
 30
0.000000000
 40
3.000000000
100
AcDbArc
 50
102.430279492
 51
108.256656828
  0
LINE
  5
A87
330
A02
100
AcDbEntity
  8
SheetCutProfiles
100
AcDbLine
 10
211.068510902
 20
739.605564688
 30
0.000000000
 11
217.510177569
 21
741.730537623
 31
0.000000000
  0
ARC
  5
A88
330
A02
100
AcDbEntity
  8
SheetCutProfiles
100
AcDbCircle
 10
212.008333333
 20
736.756576482
 30
0.000000000
 40
3.000000000
100
AcDbArc
 50
108.256656828
 51
111.261969299
  0
LINE
  5
A89
330
A02
100
AcDbEntity
  8
SheetCutProfiles
100
AcDbLine
 10
205.892438651
 20
737.595882677
 30
0.000000000
 11
210.920435143
 21
739.552372885
 31
0.000000000
  0
LINE
  5
A8A
330
A02
100
AcDbEntity
  8
SheetCutProfiles
100
AcDbLine
 10
200.731778421
 20
740.868931617
 30
0.000000000
 11
205.892438651
 21
737.595882677
 31
0.000000000
  0
ARC
  5
A8B
330
A02
100
AcDbEntity
  8
SheetCutProfiles
100
AcDbCircle
 10
199.125000000
 20
738.335502498
 30
0.000000000
 40
3.000000000
100
AcDbArc
 50
57.615876937
 51
69.081883593
  0
LINE
  5
A8C
330
A02
100
AcDbEntity
  8
SheetCutProfiles
100
AcDbLine
 10
193.754433439
 20
743.599944776
 30
0.000000000
 11
200.196100105
 21
741.137777389
 31
0.000000000
  0
ARC
  5
A8D
330
A02
100
AcDbEntity
  8
SheetCutProfiles
100
AcDbCircle
 10
192.683333333
 20
740.797669885
 30
0.000000000
 40
3.000000000
100
AcDbArc
 50
69.081883593
 51
89.979274654
  0
LINE
  5
A8E
330
A02
100
AcDbEntity
  8
SheetCutProfiles
100
AcDbLine
 10
186.242751843
 20
743.799999804
 30
0.000000000
 11
192.684418510
 21
743.797669688
 31
0.000000000
  0
LINE
  5
A8F
330
A02
100
AcDbEntity
  8
SheetCutProfiles
100
AcDbLine
 10
173.358333333
 20
743.800000000
 30
0.000000000
 11
186.241666667
 21
743.800000000
 31
0.000000000
  0
LINE
  5
A90
330
A02
100
AcDbEntity
  8
SheetCutProfiles
100
AcDbLine
 10
166.915581490
 20
743.797669688
 30
0.000000000
 11
173.357248157
 21
743.799999804
 31
0.000000000
  0
ARC
  5
A91
330
A02
100
AcDbEntity
  8
SheetCutProfiles
100
AcDbCircle
 10
166.916666667
 20
740.797669885
 30
0.000000000
 40
3.000000000
100
AcDbArc
 50
90.020725346
 51
110.918116407
  0
LINE
  5
A92
330
A02
100
AcDbEntity
  8
SheetCutProfiles
100
AcDbLine
 10
159.403899895
 20
741.137777389
 30
0.000000000
 11
165.845566561
 21
743.599944776
 31
0.000000000
  0
ARC
  5
A93
330
A02
100
AcDbEntity
  8
SheetCutProfiles
100
AcDbCircle
 10
160.475000000
 20
738.335502498
 30
0.000000000
 40
3.000000000
100
AcDbArc
 50
110.918116407
 51
122.384123063
  0
LINE
  5
A94
330
A02
100
AcDbEntity
  8
SheetCutProfiles
100
AcDbLine
 10
153.707561349
 20
737.595882677
 30
0.000000000
 11
158.868221579
 21
740.868931617
 31
0.000000000
  0
LINE
  5
A95
330
A02
100
AcDbEntity
  8
SheetCutProfiles
100
AcDbLine
 10
148.679564857
 20
739.552372885
 30
0.000000000
 11
153.707561349
 21
737.595882677
 31
0.000000000
  0
ARC
  5
A96
330
A02
100
AcDbEntity
  8
SheetCutProfiles
100
AcDbCircle
 10
147.591666667
 20
736.756576482
 30
0.000000000
 40
3.000000000
100
AcDbArc
 50
68.738030701
 51
71.743343172
  0
LINE
  5
A97
330
A02
100
AcDbEntity
  8
SheetCutProfiles
100
AcDbLine
 10
142.089822431
 20
741.730537623
 30
0.000000000
 11
148.531489098
 21
739.605564688
 31
0.000000000
  0
ARC
  5
A98
330
A02
100
AcDbEntity
  8
SheetCutProfiles
100
AcDbCircle
 10
141.150000000
 20
738.881549417
 30
0.000000000
 40
3.000000000
100
AcDbArc
 50
71.743343172
 51
77.569720508
  0
LINE
  5
A99
330
A02
100
AcDbEntity
  8
SheetCutProfiles
100
AcDbLine
 10
135.354087671
 20
743.231086916
 30
0.000000000
 11
141.795754337
 21
741.811225395
 31
0.000000000
  0
ARC
  5
A9A
330
A02
100
AcDbEntity
  8
SheetCutProfiles
100
AcDbCircle
 10
134.708333333
 20
740.301410938
 30
0.000000000
 40
3.000000000
100
AcDbArc
 50
77.569720508
 51
85.574094783
  0
LINE
  5
A9B
330
A02
100
AcDbEntity
  8
SheetCutProfiles
100
AcDbLine
 10
128.498176124
 20
743.791053890
 30
0.000000000
 11
134.939842791
 21
743.292464828
 31
0.000000000
  0
ARC
  5
A9C
330
A02
100
AcDbEntity
  8
SheetCutProfiles
100
AcDbCircle
 10
128.266666667
 20
740.800000000
 30
0.000000000
 40
3.000000000
100
AcDbArc
 50
85.574094783
 51
94.425905217
  0
LINE
  5
A9D
330
A02
100
AcDbEntity
  8
SheetCutProfiles
100
AcDbLine
 10
121.593490543
 20
743.292464828
 30
0.000000000
 11
128.035157209
 21
743.791053890
 31
0.000000000
  0
ARC
  5
A9E
330
A02
100
AcDbEntity
  8
SheetCutProfiles
100
AcDbCircle
 10
121.825000000
 20
740.301410938
 30
0.000000000
 40
3.000000000
100
AcDbArc
 50
94.425905217
 51
102.430279492
  0
LINE
  5
A9F
330
A02
100
AcDbEntity
  8
SheetCutProfiles
100
AcDbLine
 10
114.737578996
 20
741.811225395
 30
0.000000000
 11
121.179245663
 21
743.231086916
 31
0.000000000
  0
ARC
  5
AA0
330
A02
100
AcDbEntity
  8
SheetCutProfiles
100
AcDbCircle
 10
115.383333333
 20
738.881549417
 30
0.000000000
 40
3.000000000
100
AcDbArc
 50
102.430279492
 51
108.256656828
  0
LINE
  5
AA1
330
A02
100
AcDbEntity
  8
SheetCutProfiles
100
AcDbLine
 10
108.001844235
 20
739.605564688
 30
0.000000000
 11
114.443510902
 21
741.730537623
 31
0.000000000
  0
ARC
  5
AA2
330
A02
100
AcDbEntity
  8
SheetCutProfiles
100
AcDbCircle
 10
108.941666667
 20
736.756576482
 30
0.000000000
 40
3.000000000
100
AcDbArc
 50
108.256656828
 51
111.261969299
  0
LINE
  5
AA3
330
A02
100
AcDbEntity
  8
SheetCutProfiles
100
AcDbLine
 10
95.043775350
 20
734.567758007
 30
0.000000000
 11
107.853768476
 21
739.552372885
 31
0.000000000
  0
LINE
  5
AA4
330
A02
100
AcDbEntity
  8
SheetCutProfiles
100
AcDbLine
 10
88.821825239
 20
732.515265031
 30
0.000000000
 11
95.043775350
 21
734.567758007
 31
0.000000000
  0
LINE
  5
AA5
330
A02
100
AcDbEntity
  8
SheetCutProfiles
100
AcDbLine
 10
82.734220945
 20
731.173445353
 30
0.000000000
 11
88.821825239
 21
732.515265031
 31
0.000000000
  0
LINE
  5
AA6
330
A02
100
AcDbEntity
  8
SheetCutProfiles
100
AcDbLine
 10
76.733333333
 20
730.708972868
 30
0.000000000
 11
82.734220945
 21
731.173445353
 31
0.000000000
  0
LINE
  5
AA7
330
A02
100
AcDbEntity
  8
SheetCutProfiles
100
AcDbLine
 10
70.732445722
 20
731.173445353
 30
0.000000000
 11
76.733333333
 21
730.708972868
 31
0.000000000
  0
LINE
  5
AA8
330
A02
100
AcDbEntity
  8
SheetCutProfiles
100
AcDbLine
 10
64.644841428
 20
732.515265031
 30
0.000000000
 11
70.732445722
 21
731.173445353
 31
0.000000000
  0
LINE
  5
AA9
330
A02
100
AcDbEntity
  8
SheetCutProfiles
100
AcDbLine
 10
58.422891316
 20
734.567758007
 30
0.000000000
 11
64.644841428
 21
732.515265031
 31
0.000000000
  0
LINE
  5
AAA
330
A02
100
AcDbEntity
  8
SheetCutProfiles
100
AcDbLine
 10
45.612898191
 20
739.552372885
 30
0.000000000
 11
58.422891316
 21
734.567758007
 31
0.000000000
  0
ARC
  5
AAB
330
A02
100
AcDbEntity
  8
SheetCutProfiles
100
AcDbCircle
 10
44.525000000
 20
736.756576482
 30
0.000000000
 40
3.000000000
100
AcDbArc
 50
68.738030701
 51
71.743343172
  0
LINE
  5
AAC
330
A02
100
AcDbEntity
  8
SheetCutProfiles
100
AcDbLine
 10
39.023155765
 20
741.730537623
 30
0.000000000
 11
45.464822431
 21
739.605564688
 31
0.000000000
  0
ARC
  5
AAD
330
A02
100
AcDbEntity
  8
SheetCutProfiles
100
AcDbCircle
 10
38.083333333
 20
738.881549417
 30
0.000000000
 40
3.000000000
100
AcDbArc
 50
71.743343172
 51
77.569720508
  0
LINE
  5
AAE
330
A02
100
AcDbEntity
  8
SheetCutProfiles
100
AcDbLine
 10
32.287421004
 20
743.231086916
 30
0.000000000
 11
38.729087671
 21
741.811225395
 31
0.000000000
  0
ARC
  5
AAF
330
A02
100
AcDbEntity
  8
SheetCutProfiles
100
AcDbCircle
 10
31.641666667
 20
740.301410938
 30
0.000000000
 40
3.000000000
100
AcDbArc
 50
77.569720508
 51
85.574094783
  0
LINE
  5
AB0
330
A02
100
AcDbEntity
  8
SheetCutProfiles
100
AcDbLine
 10
25.431509457
 20
743.791053890
 30
0.000000000
 11
31.873176124
 21
743.292464828
 31
0.000000000
  0
ARC
  5
AB1
330
A02
100
AcDbEntity
  8
SheetCutProfiles
100
AcDbCircle
 10
25.200000000
 20
740.800000000
 30
0.000000000
 40
3.000000000
100
AcDbArc
 50
85.574094783
 51
-175.245828256
  0
LINE
  5
AB2
330
A02
100
AcDbEntity
  8
SheetCutProfiles
100
AcDbLine
 10
23.450201547
 20
725.643024363
 30
0.000000000
 11
22.210321588
 21
740.551357696
 31
0.000000000
  0
ARC
  5
AB3
330
A02
100
AcDbEntity
  8
SheetCutProfiles
100
AcDbCircle
 10
26.439879958
 20
725.891666667
 30
0.000000000
 40
3.000000000
100
AcDbArc
 50
-175.245828256
 51
-167.859088740
  0
LINE
  5
AB4
330
A02
100
AcDbEntity
  8
SheetCutProfiles
100
AcDbLine
 10
26.714185793
 20
710.352383287
 30
0.000000000
 11
23.506980021
 21
725.260716621
 31
0.000000000
  0
ARC
  5
AB5
330
A02
100
AcDbEntity
  8
SheetCutProfiles
100
AcDbCircle
 10
29.647085729
 20
710.983333333
 30
0.000000000
 40
3.000000000
100
AcDbArc
 50
-167.859088740
 51
-165.523569621
  0
LINE
  5
AB6
330
A02
100
AcDbEntity
  8
SheetCutProfiles
100
AcDbLine
 10
30.568642949
 20
695.413001567
 30
0.000000000
 11
26.742334059
 21
710.233388178
 31
0.000000000
  0
LINE
  5
AB7
330
A02
100
AcDbEntity
  8
SheetCutProfiles
100
AcDbLine
 10
33.410699410
 20
680.802805759
 30
0.000000000
 11
30.568642949
 21
695.413001567
 31
0.000000000
  0
LINE
  5
AB8
330
A02
100
AcDbEntity
  8
SheetCutProfiles
100
AcDbLine
 10
34.140026070
 20
666.353898115
 30
0.000000000
 11
33.410699410
 21
680.802805759
 31
0.000000000
  0
LINE
  5
AB9
330
A02
100
AcDbEntity
  8
SheetCutProfiles
100
AcDbLine
 10
32.481568243
 20
651.861266614
 30
0.000000000
 11
34.140026070
 21
666.353898115
 31
0.000000000
  0
LINE
  5
ABA
330
A02
100
AcDbEntity
  8
SheetCutProfiles
100
AcDbLine
 10
29.067757332
 20
637.149755342
 30
0.000000000
 11
32.481568243
 21
651.861266614
 31
0.000000000
  0
LINE
  5
ABB
330
A02
100
AcDbEntity
  8
SheetCutProfiles
100
AcDbLine
 10
25.292164131
 20
622.271229369
 30
0.000000000
 11
29.067757332
 21
637.149755342
 31
0.000000000
  0
ARC
  5
ABC
330
A02
100
AcDbEntity
  8
SheetCutProfiles
100
AcDbCircle
 10
28.200000000
 20
621.533333333
 30
0.000000000
 40
3.000000000
100
AcDbArc
 50
165.761110198
 51
170.318861596
  0
LINE
  5
ABD
330
A02
100
AcDbEntity
  8
SheetCutProfiles
100
AcDbLine
 10
22.699446159
 20
607.129494640
 30
0.000000000
 11
25.242723354
 21
622.037827973
 31
0.000000000
  0
ARC
  5
ABE
330
A02
100
AcDbEntity
  8
SheetCutProfiles
100
AcDbCircle
 10
25.656722805
 20
606.625000000
 30
0.000000000
 40
3.000000000
100
AcDbArc
 50
170.318861596
 51
179.030537399
  0
LINE
  5
ABF
330
A02
100
AcDbEntity
  8
SheetCutProfiles
100
AcDbLine
 10
22.404874478
 20
591.767425188
 30
0.000000000
 11
22.657152240
 21
606.675758521
 31
0.000000000
  0
ARC
  5
AC0
330
A02
100
AcDbEntity
  8
SheetCutProfiles
100
AcDbCircle
 10
25.404445042
 20
591.716666667
 30
0.000000000
 40
3.000000000
100
AcDbArc
 50
179.030537399
 51
-171.820095949
  0
LINE
  5
AC1
330
A02
100
AcDbEntity
  8
SheetCutProfiles
100
AcDbLine
 10
24.577952839
 20
576.381488022
 30
0.000000000
 11
22.434966455
 21
591.289821356
 31
0.000000000
  0
ARC
  5
AC2
330
A02
100
AcDbEntity
  8
SheetCutProfiles
100
AcDbCircle
 10
27.547431426
 20
576.808333333
 30
0.000000000
 40
3.000000000
100
AcDbArc
 50
-171.820095949
 51
-166.233601760
  0
LINE
  5
AC3
330
A02
100
AcDbEntity
  8
SheetCutProfiles
100
AcDbLine
 10
31.903915777
 20
546.419940443
 30
0.000000000
 11
24.633609415
 21
576.094441682
 31
0.000000000
  0
LINE
  5
AC4
330
A02
100
AcDbEntity
  8
SheetCutProfiles
100
AcDbLine
 10
33.991923032
 20
531.894086058
 30
0.000000000
 11
31.903915777
 21
546.419940443
 31
0.000000000
  0
LINE
  5
AC5
330
A02
100
AcDbEntity
  8
SheetCutProfiles
100
AcDbLine
 10
33.747572933
 20
517.454237355
 30
0.000000000
 11
33.991923032
 21
531.894086058
 31
0.000000000
  0
LINE
  5
AC6
330
A02
100
AcDbEntity
  8
SheetCutProfiles
100
AcDbLine
 10
31.262799654
 20
502.888845749
 30
0.000000000
 11
33.747572933
 21
517.454237355
 31
0.000000000
  0
LINE
  5
AC7
330
A02
100
AcDbEntity
  8
SheetCutProfiles
100
AcDbLine
 10
27.509006978
 20
488.096229369
 30
0.000000000
 11
31.262799654
 21
502.888845749
 31
0.000000000
  0
ARC
  5
AC8
330
A02
100
AcDbEntity
  8
SheetCutProfiles
100
AcDbCircle
 10
30.416842847
 20
487.358333333
 30
0.000000000
 40
3.000000000
100
AcDbArc
 50
165.761110198
 51
166.935713031
  0
LINE
  5
AC9
330
A02
100
AcDbEntity
  8
SheetCutProfiles
100
AcDbLine
 10
24.035008157
 20
473.128132524
 30
0.000000000
 11
27.494491690
 21
488.036465857
 31
0.000000000
  0
ARC
  5
ACA
330
A02
100
AcDbEntity
  8
SheetCutProfiles
100
AcDbCircle
 10
26.957359313
 20
472.450000000
 30
0.000000000
 40
3.000000000
100
AcDbArc
 50
166.935713031
 51
173.471780431
  0
LINE
  5
ACB
330
A02
100
AcDbEntity
  8
SheetCutProfiles
100
AcDbLine
 10
22.270782892
 20
457.882744342
 30
0.000000000
 11
23.976811373
 21
472.791077675
 31
0.000000000
  0
ARC
  5
ACC
330
A02
100
AcDbEntity
  8
SheetCutProfiles
100
AcDbCircle
 10
25.251330832
 20
457.541666667
 30
0.000000000
 40
3.000000000
100
AcDbArc
 50
173.471780431
 51
-177.110376412
  0
LINE
  5
ACD
330
A02
100
AcDbEntity
  8
SheetCutProfiles
100
AcDbLine
 10
23.007662067
 20
442.482097127
 30
0.000000000
 11
22.255145322
 21
457.390430461
 31
0.000000000
  0
ARC
  5
ACE
330
A02
100
AcDbEntity
  8
SheetCutProfiles
100
AcDbCircle
 10
26.003847577
 20
442.633333333
 30
0.000000000
 40
3.000000000
100
AcDbArc
 50
-177.110376412
 51
-168.991981183
  0
LINE
  5
ACF
330
A02
100
AcDbEntity
  8
SheetCutProfiles
100
AcDbLine
 10
25.959097998
 20
427.152160869
 30
0.000000000
 11
23.059046170
 21
442.060494203
 31
0.000000000
  0
ARC
  5
AD0
330
A02
100
AcDbEntity
  8
SheetCutProfiles
100
AcDbCircle
 10
28.903899406
 20
427.725000000
 30
0.000000000
 40
3.000000000
100
AcDbArc
 50
-168.991981183
 51
-165.523569621
  0
LINE
  5
AD1
330
A02
100
AcDbEntity
  8
SheetCutProfiles
100
AcDbLine
 10
29.832875665
 20
412.125932178
 30
0.000000000
 11
25.999147736
 21
426.975054845
 31
0.000000000
  0
LINE
  5
AD2
330
A02
100
AcDbEntity
  8
SheetCutProfiles
100
AcDbLine
 10
32.986491714
 20
397.466704608
 30
0.000000000
 11
29.832875665
 21
412.125932178
 31
0.000000000
  0
LINE
  5
AD3
330
A02
100
AcDbEntity
  8
SheetCutProfiles
100
AcDbLine
 10
34.189642777
 20
383.000000000
 30
0.000000000
 11
32.986491714
 21
397.466704608
 31
0.000000000
  0
LINE
  5
AD4
330
A02
100
AcDbEntity
  8
SheetCutProfiles
100
AcDbLine
 10
32.986491714
 20
368.533295392
 30
0.000000000
 11
34.189642777
 21
383.000000000
 31
0.000000000
  0
LINE
  5
AD5
330
A02
100
AcDbEntity
  8
SheetCutProfiles
100
AcDbLine
 10
29.832875665
 20
353.874067822
 30
0.000000000
 11
32.986491714
 21
368.533295392
 31
0.000000000
  0
LINE
  5
AD6
330
A02
100
AcDbEntity
  8
SheetCutProfiles
100
AcDbLine
 10
25.999147736
 20
339.024945155
 30
0.000000000
 11
29.832875665
 21
353.874067822
 31
0.000000000
  0
ARC
  5
AD7
330
A02
100
AcDbEntity
  8
SheetCutProfiles
100
AcDbCircle
 10
28.903899406
 20
338.275000000
 30
0.000000000
 40
3.000000000
100
AcDbArc
 50
165.523569621
 51
168.991981183
  0
LINE
  5
AD8
330
A02
100
AcDbEntity
  8
SheetCutProfiles
100
AcDbLine
 10
23.059046170
 20
323.939505797
 30
0.000000000
 11
25.959097998
 21
338.847839131
 31
0.000000000
  0
ARC
  5
AD9
330
A02
100
AcDbEntity
  8
SheetCutProfiles
100
AcDbCircle
 10
26.003847577
 20
323.366666667
 30
0.000000000
 40
3.000000000
100
AcDbArc
 50
168.991981183
 51
177.110376412
  0
LINE
  5
ADA
330
A02
100
AcDbEntity
  8
SheetCutProfiles
100
AcDbLine
 10
22.255145322
 20
308.609569539
 30
0.000000000
 11
23.007662067
 21
323.517902873
 31
0.000000000
  0
ARC
  5
ADB
330
A02
100
AcDbEntity
  8
SheetCutProfiles
100
AcDbCircle
 10
25.251330832
 20
308.458333333
 30
0.000000000
 40
3.000000000
100
AcDbArc
 50
177.110376412
 51
-173.471780431
  0
LINE
  5
ADC
330
A02
100
AcDbEntity
  8
SheetCutProfiles
100
AcDbLine
 10
23.976811373
 20
293.208922325
 30
0.000000000
 11
22.270782892
 21
308.117255658
 31
0.000000000
  0
ARC
  5
ADD
330
A02
100
AcDbEntity
  8
SheetCutProfiles
100
AcDbCircle
 10
26.957359313
 20
293.550000000
 30
0.000000000
 40
3.000000000
100
AcDbArc
 50
-173.471780431
 51
-166.935713031
  0
LINE
  5
ADE
330
A02
100
AcDbEntity
  8
SheetCutProfiles
100
AcDbLine
 10
27.494491690
 20
277.963534143
 30
0.000000000
 11
24.035008157
 21
292.871867476
 31
0.000000000
  0
ARC
  5
ADF
330
A02
100
AcDbEntity
  8
SheetCutProfiles
100
AcDbCircle
 10
30.416842847
 20
278.641666667
 30
0.000000000
 40
3.000000000
100
AcDbArc
 50
-166.935713031
 51
-165.761110198
  0
LINE
  5
AE0
330
A02
100
AcDbEntity
  8
SheetCutProfiles
100
AcDbLine
 10
31.262799654
 20
263.111154251
 30
0.000000000
 11
27.509006978
 21
277.903770631
 31
0.000000000
  0
LINE
  5
AE1
330
A02
100
AcDbEntity
  8
SheetCutProfiles
100
AcDbLine
 10
33.747572933
 20
248.545762645
 30
0.000000000
 11
31.262799654
 21
263.111154251
 31
0.000000000
  0
LINE
  5
AE2
330
A02
100
AcDbEntity
  8
SheetCutProfiles
100
AcDbLine
 10
33.991923032
 20
234.105913942
 30
0.000000000
 11
33.747572933
 21
248.545762645
 31
0.000000000
  0
LINE
  5
AE3
330
A02
100
AcDbEntity
  8
SheetCutProfiles
100
AcDbLine
 10
31.903915777
 20
219.580059557
 30
0.000000000
 11
33.991923032
 21
234.105913942
 31
0.000000000
  0
LINE
  5
AE4
330
A02
100
AcDbEntity
  8
SheetCutProfiles
100
AcDbLine
 10
24.633609415
 20
189.905558318
 30
0.000000000
 11
31.903915777
 21
219.580059557
 31
0.000000000
  0
ARC
  5
AE5
330
A02
100
AcDbEntity
  8
SheetCutProfiles
100
AcDbCircle
 10
27.547431426
 20
189.191666667
 30
0.000000000
 40
3.000000000
100
AcDbArc
 50
166.233601760
 51
171.820095949
  0
LINE
  5
AE6
330
A02
100
AcDbEntity
  8
SheetCutProfiles
100
AcDbLine
 10
22.434966455
 20
174.710178644
 30
0.000000000
 11
24.577952839
 21
189.618511978
 31
0.000000000
  0
ARC
  5
AE7
330
A02
100
AcDbEntity
  8
SheetCutProfiles
100
AcDbCircle
 10
25.404445042
 20
174.283333333
 30
0.000000000
 40
3.000000000
100
AcDbArc
 50
171.820095949
 51
-179.030537399
  0
LINE
  5
AE8
330
A02
100
AcDbEntity
  8
SheetCutProfiles
100
AcDbLine
 10
22.657152240
 20
159.324241479
 30
0.000000000
 11
22.404874478
 21
174.232574812
 31
0.000000000
  0
ARC
  5
AE9
330
A02
100
AcDbEntity
  8
SheetCutProfiles
100
AcDbCircle
 10
25.656722805
 20
159.375000000
 30
0.000000000
 40
3.000000000
100
AcDbArc
 50
-179.030537399
 51
-170.318861596
  0
LINE
  5
AEA
330
A02
100
AcDbEntity
  8
SheetCutProfiles
100
AcDbLine
 10
25.242723354
 20
143.962172027
 30
0.000000000
 11
22.699446159
 21
158.870505360
 31
0.000000000
  0
ARC
  5
AEB
330
A02
100
AcDbEntity
  8
SheetCutProfiles
100
AcDbCircle
 10
28.200000000
 20
144.466666667
 30
0.000000000
 40
3.000000000
100
AcDbArc
 50
-170.318861596
 51
-165.761110198
  0
LINE
  5
AEC
330
A02
100
AcDbEntity
  8
SheetCutProfiles
100
AcDbLine
 10
29.067757332
 20
128.850244658
 30
0.000000000
 11
25.292164131
 21
143.728770631
 31
0.000000000
  0
LINE
  5
AED
330
A02
100
AcDbEntity
  8
SheetCutProfiles
100
AcDbLine
 10
32.481568243
 20
114.138733386
 30
0.000000000
 11
29.067757332
 21
128.850244658
 31
0.000000000
  0
LINE
  5
AEE
330
A02
100
AcDbEntity
  8
SheetCutProfiles
100
AcDbLine
 10
34.140026070
 20
99.646101885
 30
0.000000000
 11
32.481568243
 21
114.138733386
 31
0.000000000
  0
LINE
  5
AEF
330
A02
100
AcDbEntity
  8
SheetCutProfiles
100
AcDbLine
 10
33.410699410
 20
85.197194241
 30
0.000000000
 11
34.140026070
 21
99.646101885
 31
0.000000000
  0
LINE
  5
AF0
330
A02
100
AcDbEntity
  8
SheetCutProfiles
100
AcDbLine
 10
30.568642949
 20
70.586998433
 30
0.000000000
 11
33.410699410
 21
85.197194241
 31
0.000000000
  0
LINE
  5
AF1
330
A02
100
AcDbEntity
  8
SheetCutProfiles
100
AcDbLine
 10
26.742334059
 20
55.766611822
 30
0.000000000
 11
30.568642949
 21
70.586998433
 31
0.000000000
  0
ARC
  5
AF2
330
A02
100
AcDbEntity
  8
SheetCutProfiles
100
AcDbCircle
 10
29.647085729
 20
55.016666667
 30
0.000000000
 40
3.000000000
100
AcDbArc
 50
165.523569621
 51
167.859088740
  0
LINE
  5
AF3
330
A02
100
AcDbEntity
  8
SheetCutProfiles
100
AcDbLine
 10
23.506980021
 20
40.739283379
 30
0.000000000
 11
26.714185793
 21
55.647616713
 31
0.000000000
  0
ARC
  5
AF4
330
A02
100
AcDbEntity
  8
SheetCutProfiles
100
AcDbCircle
 10
26.439879958
 20
40.108333333
 30
0.000000000
 40
3.000000000
100
AcDbArc
 50
167.859088740
 51
175.245828256
  0
LINE
  5
AF5
330
A02
100
AcDbEntity
  8
SheetCutProfiles
100
AcDbLine
 10
22.210321588
 20
25.448642304
 30
0.000000000
 11
23.450201547
 21
40.356975637
 31
0.000000000
  0
ARC
  5
AF6
330
A02
100
AcDbEntity
  8
SheetCutProfiles
100
AcDbCircle
 10
25.200000000
 20
25.200000000
 30
0.000000000
 40
3.000000000
100
AcDbArc
 50
175.245828256
 51
-85.574094783
  0
LINE
  5
AF7
330
A02
100
AcDbEntity
  8
SheetCutProfiles
100
AcDbLine
 10
31.873176124
 20
22.707535172
 30
0.000000000
 11
25.431509457
 21
22.208946110
 31
0.000000000
  0
ARC
  5
AF8
330
A02
100
AcDbEntity
  8
SheetCutProfiles
100
AcDbCircle
 10
31.641666667
 20
25.698589062
 30
0.000000000
 40
3.000000000
100
AcDbArc
 50
-85.574094783
 51
-77.569720508
  0
LINE
  5
AF9
330
A02
100
AcDbEntity
  8
SheetCutProfiles
100
AcDbLine
 10
38.729087671
 20
24.188774605
 30
0.000000000
 11
32.287421004
 21
22.768913084
 31
0.000000000
  0
ARC
  5
AFA
330
A02
100
AcDbEntity
  8
SheetCutProfiles
100
AcDbCircle
 10
38.083333333
 20
27.118450583
 30
0.000000000
 40
3.000000000
100
AcDbArc
 50
-77.569720508
 51
-71.743343172
  0
LINE
  5
AFB
330
A02
100
AcDbEntity
  8
SheetCutProfiles
100
AcDbLine
 10
45.464822431
 20
26.394435312
 30
0.000000000
 11
39.023155765
 21
24.269462377
 31
0.000000000
  0
ARC
  5
AFC
330
A02
100
AcDbEntity
  8
SheetCutProfiles
100
AcDbCircle
 10
44.525000000
 20
29.243423518
 30
0.000000000
 40
3.000000000
100
AcDbArc
 50
-71.743343172
 51
-68.738030701
  0
LINE
  5
AFD
330
A02
100
AcDbEntity
  8
SheetCutProfiles
100
AcDbLine
 10
58.422891316
 20
31.432241993
 30
0.000000000
 11
45.612898191
 21
26.447627115
 31
0.000000000
  0
LINE
  5
AFE
330
A02
100
AcDbEntity
  8
SheetCutProfiles
100
AcDbLine
 10
64.644841428
 20
33.484734969
 30
0.000000000
 11
58.422891316
 21
31.432241993
 31
0.000000000
  0
LINE
  5
AFF
330
A02
100
AcDbEntity
  8
SheetCutProfiles
100
AcDbLine
 10
70.732445722
 20
34.826554647
 30
0.000000000
 11
64.644841428
 21
33.484734969
 31
0.000000000
  0
LINE
  5
B00
330
A02
100
AcDbEntity
  8
SheetCutProfiles
100
AcDbLine
 10
76.733333333
 20
35.291027132
 30
0.000000000
 11
70.732445722
 21
34.826554647
 31
0.000000000
  0
LINE
  5
B01
330
A02
100
AcDbEntity
  8
SheetCutProfiles
100
AcDbLine
 10
82.734220945
 20
34.826554647
 30
0.000000000
 11
76.733333333
 21
35.291027132
 31
0.000000000
  0
LINE
  5
B02
330
A02
100
AcDbEntity
  8
SheetCutProfiles
100
AcDbLine
 10
88.821825239
 20
33.484734969
 30
0.000000000
 11
82.734220945
 21
34.826554647
 31
0.000000000
  0
LINE
  5
B03
330
A02
100
AcDbEntity
  8
SheetCutProfiles
100
AcDbLine
 10
95.043775350
 20
31.432241993
 30
0.000000000
 11
88.821825239
 21
33.484734969
 31
0.000000000
  0
LINE
  5
B04
330
A02
100
AcDbEntity
  8
SheetCutProfiles
100
AcDbLine
 10
107.853768476
 20
26.447627115
 30
0.000000000
 11
95.043775350
 21
31.432241993
 31
0.000000000
  0
ARC
  5
B05
330
A02
100
AcDbEntity
  8
SheetCutProfiles
100
AcDbCircle
 10
108.941666667
 20
29.243423518
 30
0.000000000
 40
3.000000000
100
AcDbArc
 50
-111.261969299
 51
-108.256656828
  0
LINE
  5
B06
330
A02
100
AcDbEntity
  8
SheetCutProfiles
100
AcDbLine
 10
114.443510902
 20
24.269462377
 30
0.000000000
 11
108.001844235
 21
26.394435312
 31
0.000000000
  0
ARC
  5
B07
330
A02
100
AcDbEntity
  8
SheetCutProfiles
100
AcDbCircle
 10
115.383333333
 20
27.118450583
 30
0.000000000
 40
3.000000000
100
AcDbArc
 50
-108.256656828
 51
-102.430279492
  0
LINE
  5
B08
330
A02
100
AcDbEntity
  8
SheetCutProfiles
100
AcDbLine
 10
121.179245663
 20
22.768913084
 30
0.000000000
 11
114.737578996
 21
24.188774605
 31
0.000000000
  0
ARC
  5
B09
330
A02
100
AcDbEntity
  8
SheetCutProfiles
100
AcDbCircle
 10
121.825000000
 20
25.698589062
 30
0.000000000
 40
3.000000000
100
AcDbArc
 50
-102.430279492
 51
-94.425905217
  0
LINE
  5
B0A
330
A02
100
AcDbEntity
  8
SheetCutProfiles
100
AcDbLine
 10
128.035157209
 20
22.208946110
 30
0.000000000
 11
121.593490543
 21
22.707535172
 31
0.000000000
  0
ARC
  5
B0B
330
A02
100
AcDbEntity
  8
SheetCutProfiles
100
AcDbCircle
 10
128.266666667
 20
25.200000000
 30
0.000000000
 40
3.000000000
100
AcDbArc
 50
-94.425905217
 51
-85.574094783
  0
LINE
  5
B0C
330
A02
100
AcDbEntity
  8
SheetCutProfiles
100
AcDbLine
 10
134.939842791
 20
22.707535172
 30
0.000000000
 11
128.498176124
 21
22.208946110
 31
0.000000000
  0
ARC
  5
B0D
330
A02
100
AcDbEntity
  8
SheetCutProfiles
100
AcDbCircle
 10
134.708333333
 20
25.698589062
 30
0.000000000
 40
3.000000000
100
AcDbArc
 50
-85.574094783
 51
-77.569720508
  0
LINE
  5
B0E
330
A02
100
AcDbEntity
  8
SheetCutProfiles
100
AcDbLine
 10
141.795754337
 20
24.188774605
 30
0.000000000
 11
135.354087671
 21
22.768913084
 31
0.000000000
  0
ARC
  5
B0F
330
A02
100
AcDbEntity
  8
SheetCutProfiles
100
AcDbCircle
 10
141.150000000
 20
27.118450583
 30
0.000000000
 40
3.000000000
100
AcDbArc
 50
-77.569720508
 51
-71.743343172
  0
LINE
  5
B10
330
A02
100
AcDbEntity
  8
SheetCutProfiles
100
AcDbLine
 10
148.531489098
 20
26.394435312
 30
0.000000000
 11
142.089822431
 21
24.269462377
 31
0.000000000
  0
ARC
  5
B11
330
A02
100
AcDbEntity
  8
SheetCutProfiles
100
AcDbCircle
 10
147.591666667
 20
29.243423518
 30
0.000000000
 40
3.000000000
100
AcDbArc
 50
-71.743343172
 51
-68.738030701
  0
LINE
  5
B12
330
A02
100
AcDbEntity
  8
SheetCutProfiles
100
AcDbLine
 10
153.707561349
 20
28.404117323
 30
0.000000000
 11
148.679564857
 21
26.447627115
 31
0.000000000
  0
LINE
  5
B13
330
A02
100
AcDbEntity
  8
SheetCutProfiles
100
AcDbLine
 10
158.868221579
 20
25.131068383
 30
0.000000000
 11
153.707561349
 21
28.404117323
 31
0.000000000
  0
ARC
  5
B14
330
A02
100
AcDbEntity
  8
SheetCutProfiles
100
AcDbCircle
 10
160.475000000
 20
27.664497502
 30
0.000000000
 40
3.000000000
100
AcDbArc
 50
-122.384123063
 51
-110.918116407
  0
LINE
  5
B15
330
A02
100
AcDbEntity
  8
SheetCutProfiles
100
AcDbLine
 10
165.845566561
 20
22.400055224
 30
0.000000000
 11
159.403899895
 21
24.862222611
 31
0.000000000
  0
ARC
  5
B16
330
A02
100
AcDbEntity
  8
SheetCutProfiles
100
AcDbCircle
 10
166.916666667
 20
25.202330115
 30
0.000000000
 40
3.000000000
100
AcDbArc
 50
-110.918116407
 51
-90.020725346
  0
LINE
  5
B17
330
A02
100
AcDbEntity
  8
SheetCutProfiles
100
AcDbLine
 10
173.357248157
 20
22.200000196
 30
0.000000000
 11
166.915581490
 21
22.202330312
 31
0.000000000
  0
LINE
  5
B18
330
A02
100
AcDbEntity
  8
SheetCutProfiles
100
AcDbLine
 10
186.241666667
 20
22.200000000
 30
0.000000000
 11
173.358333333
 21
22.200000000
 31
0.000000000
  0
LINE
  5
B19
330
A02
100
AcDbEntity
  8
SheetCutProfiles
100
AcDbLine
 10
192.684418510
 20
22.202330312
 30
0.000000000
 11
186.242751843
 21
22.200000196
 31
0.000000000
  0
ARC
  5
B1A
330
A02
100
AcDbEntity
  8
SheetCutProfiles
100
AcDbCircle
 10
192.683333333
 20
25.202330115
 30
0.000000000
 40
3.000000000
100
AcDbArc
 50
-89.979274654
 51
-69.081883593
  0
LINE
  5
B1B
330
A02
100
AcDbEntity
  8
SheetCutProfiles
100
AcDbLine
 10
200.196100105
 20
24.862222611
 30
0.000000000
 11
193.754433439
 21
22.400055224
 31
0.000000000
  0
ARC
  5
B1C
330
A02
100
AcDbEntity
  8
SheetCutProfiles
100
AcDbCircle
 10
199.125000000
 20
27.664497502
 30
0.000000000
 40
3.000000000
100
AcDbArc
 50
-69.081883593
 51
-57.615876937
  0
LINE
  5
B1D
330
A02
100
AcDbEntity
  8
SheetCutProfiles
100
AcDbLine
 10
205.892438651
 20
28.404117323
 30
0.000000000
 11
200.731778421
 21
25.131068383
 31
0.000000000
  0
LINE
  5
B1E
330
A02
100
AcDbEntity
  8
SheetCutProfiles
100
AcDbLine
 10
210.920435143
 20
26.447627115
 30
0.000000000
 11
205.892438651
 21
28.404117323
 31
0.000000000
  0
ARC
  5
B1F
330
A02
100
AcDbEntity
  8
SheetCutProfiles
100
AcDbCircle
 10
212.008333333
 20
29.243423518
 30
0.000000000
 40
3.000000000
100
AcDbArc
 50
-111.261969299
 51
-108.256656828
  0
LINE
  5
B20
330
A02
100
AcDbEntity
  8
SheetCutProfiles
100
AcDbLine
 10
217.510177569
 20
24.269462377
 30
0.000000000
 11
211.068510902
 21
26.394435312
 31
0.000000000
  0
ARC
  5
B21
330
A02
100
AcDbEntity
  8
SheetCutProfiles
100
AcDbCircle
 10
218.450000000
 20
27.118450583
 30
0.000000000
 40
3.000000000
100
AcDbArc
 50
-108.256656828
 51
-102.430279492
  0
LINE
  5
B22
330
A02
100
AcDbEntity
  8
SheetCutProfiles
100
AcDbLine
 10
224.245912329
 20
22.768913084
 30
0.000000000
 11
217.804245663
 21
24.188774605
 31
0.000000000
  0
ARC
  5
B23
330
A02
100
AcDbEntity
  8
SheetCutProfiles
100
AcDbCircle
 10
224.891666667
 20
25.698589062
 30
0.000000000
 40
3.000000000
100
AcDbArc
 50
-102.430279492
 51
-94.425905217
  0
LINE
  5
B24
330
A02
100
AcDbEntity
  8
SheetCutProfiles
100
AcDbLine
 10
231.101823876
 20
22.208946110
 30
0.000000000
 11
224.660157209
 21
22.707535172
 31
0.000000000
  0
ARC
  5
B25
330
A02
100
AcDbEntity
  8
SheetCutProfiles
100
AcDbCircle
 10
231.333333333
 20
25.200000000
 30
0.000000000
 40
3.000000000
100
AcDbArc
 50
-94.425905217
 51
-85.574094783
  0
LINE
  5
B26
330
A02
100
AcDbEntity
  8
SheetCutProfiles
100
AcDbLine
 10
238.006509457
 20
22.707535172
 30
0.000000000
 11
231.564842791
 21
22.208946110
 31
0.000000000
  0
ARC
  5
B27
330
A02
100
AcDbEntity
  8
SheetCutProfiles
100
AcDbCircle
 10
237.775000000
 20
25.698589062
 30
0.000000000
 40
3.000000000
100
AcDbArc
 50
-85.574094783
 51
-77.569720508
  0
LINE
  5
B28
330
A02
100
AcDbEntity
  8
SheetCutProfiles
100
AcDbLine
 10
244.862421004
 20
24.188774605
 30
0.000000000
 11
238.420754337
 21
22.768913084
 31
0.000000000
  0
ARC
  5
B29
330
A02
100
AcDbEntity
  8
SheetCutProfiles
100
AcDbCircle
 10
244.216666667
 20
27.118450583
 30
0.000000000
 40
3.000000000
100
AcDbArc
 50
-77.569720508
 51
-71.743343172
  0
LINE
  5
B2A
330
A02
100
AcDbEntity
  8
SheetCutProfiles
100
AcDbLine
 10
251.598155765
 20
26.394435312
 30
0.000000000
 11
245.156489098
 21
24.269462377
 31
0.000000000
  0
ARC
  5
B2B
330
A02
100
AcDbEntity
  8
SheetCutProfiles
100
AcDbCircle
 10
250.658333333
 20
29.243423518
 30
0.000000000
 40
3.000000000
100
AcDbArc
 50
-71.743343172
 51
-68.738030701
  0
LINE
  5
B2C
330
A02
100
AcDbEntity
  8
SheetCutProfiles
100
AcDbLine
 10
264.556224650
 20
31.432241993
 30
0.000000000
 11
251.746231524
 21
26.447627115
 31
0.000000000
  0
LINE
  5
B2D
330
A02
100
AcDbEntity
  8
SheetCutProfiles
100
AcDbLine
 10
270.778174761
 20
33.484734969
 30
0.000000000
 11
264.556224650
 21
31.432241993
 31
0.000000000
  0
LINE
  5
B2E
330
A02
100
AcDbEntity
  8
SheetCutProfiles
100
AcDbLine
 10
276.865779055
 20
34.826554647
 30
0.000000000
 11
270.778174761
 21
33.484734969
 31
0.000000000
  0
LINE
  5
B2F
330
A02
100
AcDbEntity
  8
SheetCutProfiles
100
AcDbLine
 10
282.866666667
 20
35.291027132
 30
0.000000000
 11
276.865779055
 21
34.826554647
 31
0.000000000
  0
LINE
  5
B30
330
A02
100
AcDbEntity
  8
SheetCutProfiles
100
AcDbLine
 10
288.867554278
 20
34.826554647
 30
0.000000000
 11
282.866666667
 21
35.291027132
 31
0.000000000
  0
LINE
  5
B31
330
A02
100
AcDbEntity
  8
SheetCutProfiles
100
AcDbLine
 10
294.955158572
 20
33.484734969
 30
0.000000000
 11
288.867554278
 21
34.826554647
 31
0.000000000
  0
LINE
  5
B32
330
A02
100
AcDbEntity
  8
SheetCutProfiles
100
AcDbLine
 10
301.177108684
 20
31.432241993
 30
0.000000000
 11
294.955158572
 21
33.484734969
 31
0.000000000
  0
LINE
  5
B33
330
A02
100
AcDbEntity
  8
SheetCutProfiles
100
AcDbLine
 10
313.987101809
 20
26.447627115
 30
0.000000000
 11
301.177108684
 21
31.432241993
 31
0.000000000
  0
ARC
  5
B34
330
A02
100
AcDbEntity
  8
SheetCutProfiles
100
AcDbCircle
 10
315.075000000
 20
29.243423518
 30
0.000000000
 40
3.000000000
100
AcDbArc
 50
-111.261969299
 51
-108.256656828
  0
LINE
  5
B35
330
A02
100
AcDbEntity
  8
SheetCutProfiles
100
AcDbLine
 10
320.576844235
 20
24.269462377
 30
0.000000000
 11
314.135177569
 21
26.394435312
 31
0.000000000
  0
ARC
  5
B36
330
A02
100
AcDbEntity
  8
SheetCutProfiles
100
AcDbCircle
 10
321.516666667
 20
27.118450583
 30
0.000000000
 40
3.000000000
100
AcDbArc
 50
-108.256656828
 51
-102.430279492
  0
LINE
  5
B37
330
A02
100
AcDbEntity
  8
SheetCutProfiles
100
AcDbLine
 10
327.312578996
 20
22.768913084
 30
0.000000000
 11
320.870912329
 21
24.188774605
 31
0.000000000
  0
ARC
  5
B38
330
A02
100
AcDbEntity
  8
SheetCutProfiles
100
AcDbCircle
 10
327.958333333
 20
25.698589062
 30
0.000000000
 40
3.000000000
100
AcDbArc
 50
-102.430279492
 51
-94.425905217
  0
LINE
  5
B39
330
A02
100
AcDbEntity
  8
SheetCutProfiles
100
AcDbLine
 10
334.168490543
 20
22.208946110
 30
0.000000000
 11
327.726823876
 21
22.707535172
 31
0.000000000
  0
ARC
  5
B3A
330
A02
100
AcDbEntity
  8
SheetCutProfiles
100
AcDbCircle
 10
334.400000000
 20
25.200000000
 30
0.000000000
 40
3.000000000
100
AcDbArc
 50
-94.425905217
 51
4.754171744
  0
LINE
  5
B3B
330
A02
100
AcDbEntity
  8
SheetCutProfiles
100
AcDbLine
 10
336.149798453
 20
40.356975637
 30
0.000000000
 11
337.389678412
 21
25.448642304
 31
0.000000000
  0
ARC
  5
B3C
330
A02
100
AcDbEntity
  8
SheetCutProfiles
100
AcDbCircle
 10
333.160120042
 20
40.108333333
 30
0.000000000
 40
3.000000000
100
AcDbArc
 50
4.754171744
 51
12.140911260
  0
LINE
  5
B3D
330
A02
100
AcDbEntity
  8
SheetCutProfiles
100
AcDbLine
 10
332.885814207
 20
55.647616713
 30
0.000000000
 11
336.093019979
 21
40.739283379
 31
0.000000000
  0
ARC
  5
B3E
330
A02
100
AcDbEntity
  8
SheetCutProfiles
100
AcDbCircle
 10
329.952914271
 20
55.016666667
 30
0.000000000
 40
3.000000000
100
AcDbArc
 50
12.140911260
 51
14.476430379
  0
LINE
  5
B3F
330
A02
100
AcDbEntity
  8
SheetCutProfiles
100
AcDbLine
 10
329.031357051
 20
70.586998433
 30
0.000000000
 11
332.857665941
 21
55.766611822
 31
0.000000000
  0
LINE
  5
B40
330
A02
100
AcDbEntity
  8
SheetCutProfiles
100
AcDbLine
 10
326.189300590
 20
85.197194241
 30
0.000000000
 11
329.031357051
 21
70.586998433
 31
0.000000000
  0
LINE
  5
B41
330
A02
100
AcDbEntity
  8
SheetCutProfiles
100
AcDbLine
 10
325.459973930
 20
99.646101885
 30
0.000000000
 11
326.189300590
 21
85.197194241
 31
0.000000000
  0
LINE
  5
B42
330
A02
100
AcDbEntity
  8
SheetCutProfiles
100
AcDbLine
 10
327.118431757
 20
114.138733386
 30
0.000000000
 11
325.459973930
 21
99.646101885
 31
0.000000000
  0
LINE
  5
B43
330
A02
100
AcDbEntity
  8
SheetCutProfiles
100
AcDbLine
 10
330.532242668
 20
128.850244658
 30
0.000000000
 11
327.118431757
 21
114.138733386
 31
0.000000000
  0
LINE
  5
B44
330
A02
100
AcDbEntity
  8
SheetCutProfiles
100
AcDbLine
 10
334.307835869
 20
143.728770631
 30
0.000000000
 11
330.532242668
 21
128.850244658
 31
0.000000000
  0
ARC
  5
B45
330
A02
100
AcDbEntity
  8
SheetCutProfiles
100
AcDbCircle
 10
331.400000000
 20
144.466666667
 30
0.000000000
 40
3.000000000
100
AcDbArc
 50
-14.238889802
 51
-9.681138404
  0
LINE
  5
B46
330
A02
100
AcDbEntity
  8
SheetCutProfiles
100
AcDbLine
 10
336.900553841
 20
158.870505360
 30
0.000000000
 11
334.357276646
 21
143.962172027
 31
0.000000000
  0
ARC
  5
B47
330
A02
100
AcDbEntity
  8
SheetCutProfiles
100
AcDbCircle
 10
333.943277195
 20
159.375000000
 30
0.000000000
 40
3.000000000
100
AcDbArc
 50
-9.681138404
 51
-0.969462601
  0
LINE
  5
B48
330
A02
100
AcDbEntity
  8
SheetCutProfiles
100
AcDbLine
 10
337.195125522
 20
174.232574812
 30
0.000000000
 11
336.942847760
 21
159.324241479
 31
0.000000000
  0
ARC
  5
B49
330
A02
100
AcDbEntity
  8
SheetCutProfiles
100
AcDbCircle
 10
334.195554958
 20
174.283333333
 30
0.000000000
 40
3.000000000
100
AcDbArc
 50
-0.969462601
 51
8.179904051
  0
LINE
  5
B4A
330
A02
100
AcDbEntity
  8
SheetCutProfiles
100
AcDbLine
 10
335.022047161
 20
189.618511978
 30
0.000000000
 11
337.165033545
 21
174.710178644
 31
0.000000000
  0
ARC
  5
B4B
330
A02
100
AcDbEntity
  8
SheetCutProfiles
100
AcDbCircle
 10
332.052568574
 20
189.191666667
 30
0.000000000
 40
3.000000000
100
AcDbArc
 50
8.179904051
 51
13.766398240
  0
LINE
  5
B4C
330
A02
100
AcDbEntity
  8
SheetCutProfiles
100
AcDbLine
 10
327.696084223
 20
219.580059557
 30
0.000000000
 11
334.966390585
 21
189.905558318
 31
0.000000000
  0
LINE
  5
B4D
330
A02
100
AcDbEntity
  8
SheetCutProfiles
100
AcDbLine
 10
325.608076968
 20
234.105913942
 30
0.000000000
 11
327.696084223
 21
219.580059557
 31
0.000000000
  0
LINE
  5
B4E
330
A02
100
AcDbEntity
  8
SheetCutProfiles
100
AcDbLine
 10
325.852427067
 20
248.545762645
 30
0.000000000
 11
325.608076968
 21
234.105913942
 31
0.000000000
  0
LINE
  5
B4F
330
A02
100
AcDbEntity
  8
SheetCutProfiles
100
AcDbLine
 10
328.337200346
 20
263.111154251
 30
0.000000000
 11
325.852427067
 21
248.545762645
 31
0.000000000
  0
LINE
  5
B50
330
A02
100
AcDbEntity
  8
SheetCutProfiles
100
AcDbLine
 10
332.090993022
 20
277.903770631
 30
0.000000000
 11
328.337200346
 21
263.111154251
 31
0.000000000
  0
ARC
  5
B51
330
A02
100
AcDbEntity
  8
SheetCutProfiles
100
AcDbCircle
 10
329.183157153
 20
278.641666667
 30
0.000000000
 40
3.000000000
100
AcDbArc
 50
-14.238889802
 51
-13.064286969
  0
LINE
  5
B52
330
A02
100
AcDbEntity
  8
SheetCutProfiles
100
AcDbLine
 10
335.564991843
 20
292.871867476
 30
0.000000000
 11
332.105508310
 21
277.963534143
 31
0.000000000
  0
ARC
  5
B53
330
A02
100
AcDbEntity
  8
SheetCutProfiles
100
AcDbCircle
 10
332.642640687
 20
293.550000000
 30
0.000000000
 40
3.000000000
100
AcDbArc
 50
-13.064286969
 51
-6.528219569
  0
LINE
  5
B54
330
A02
100
AcDbEntity
  8
SheetCutProfiles
100
AcDbLine
 10
337.329217108
 20
308.117255658
 30
0.000000000
 11
335.623188627
 21
293.208922325
 31
0.000000000
  0
ARC
  5
B55
330
A02
100
AcDbEntity
  8
SheetCutProfiles
100
AcDbCircle
 10
334.348669168
 20
308.458333333
 30
0.000000000
 40
3.000000000
100
AcDbArc
 50
-6.528219569
 51
2.889623588
  0
LINE
  5
B56
330
A02
100
AcDbEntity
  8
SheetCutProfiles
100
AcDbLine
 10
336.592337933
 20
323.517902873
 30
0.000000000
 11
337.344854678
 21
308.609569539
 31
0.000000000
  0
ARC
  5
B57
330
A02
100
AcDbEntity
  8
SheetCutProfiles
100
AcDbCircle
 10
333.596152423
 20
323.366666667
 30
0.000000000
 40
3.000000000
100
AcDbArc
 50
2.889623588
 51
11.008018817
  0
LINE
  5
B58
330
A02
100
AcDbEntity
  8
SheetCutProfiles
100
AcDbLine
 10
333.640902002
 20
338.847839131
 30
0.000000000
 11
336.540953830
 21
323.939505797
 31
0.000000000
  0
ARC
  5
B59
330
A02
100
AcDbEntity
  8
SheetCutProfiles
100
AcDbCircle
 10
330.696100594
 20
338.275000000
 30
0.000000000
 40
3.000000000
100
AcDbArc
 50
11.008018817
 51
14.476430379
  0
LINE
  5
B5A
330
A02
100
AcDbEntity
  8
SheetCutProfiles
100
AcDbLine
 10
329.767124335
 20
353.874067822
 30
0.000000000
 11
333.600852264
 21
339.024945155
 31
0.000000000
  0
LINE
  5
B5B
330
A02
100
AcDbEntity
  8
SheetCutProfiles
100
AcDbLine
 10
326.613508286
 20
368.533295392
 30
0.000000000
 11
329.767124335
 21
353.874067822
 31
0.000000000
  0
LINE
  5
B5C
330
A02
100
AcDbEntity
  8
SheetCutProfiles
100
AcDbLine
 10
325.410357223
 20
383.000000000
 30
0.000000000
 11
326.613508286
 21
368.533295392
 31
0.000000000
  0
LINE
  5
B5D
330
A02
100
AcDbEntity
  8
SheetCutProfiles
100
AcDbLine
 10
326.613508286
 20
397.466704608
 30
0.000000000
 11
325.410357223
 21
383.000000000
 31
0.000000000
  0
LINE
  5
B5E
330
A02
100
AcDbEntity
  8
SheetCutProfiles
100
AcDbLine
 10
329.767124335
 20
412.125932178
 30
0.000000000
 11
326.613508286
 21
397.466704608
 31
0.000000000
  0
LINE
  5
B5F
330
A02
100
AcDbEntity
  8
SheetCutProfiles
100
AcDbLine
 10
333.600852264
 20
426.975054845
 30
0.000000000
 11
329.767124335
 21
412.125932178
 31
0.000000000
  0
ARC
  5
B60
330
A02
100
AcDbEntity
  8
SheetCutProfiles
100
AcDbCircle
 10
330.696100594
 20
427.725000000
 30
0.000000000
 40
3.000000000
100
AcDbArc
 50
-14.476430379
 51
-11.008018817
  0
LINE
  5
B61
330
A02
100
AcDbEntity
  8
SheetCutProfiles
100
AcDbLine
 10
336.540953830
 20
442.060494203
 30
0.000000000
 11
333.640902002
 21
427.152160869
 31
0.000000000
  0
ARC
  5
B62
330
A02
100
AcDbEntity
  8
SheetCutProfiles
100
AcDbCircle
 10
333.596152423
 20
442.633333333
 30
0.000000000
 40
3.000000000
100
AcDbArc
 50
-11.008018817
 51
-2.889623588
  0
LINE
  5
B63
330
A02
100
AcDbEntity
  8
SheetCutProfiles
100
AcDbLine
 10
337.344854678
 20
457.390430461
 30
0.000000000
 11
336.592337933
 21
442.482097127
 31
0.000000000
  0
ARC
  5
B64
330
A02
100
AcDbEntity
  8
SheetCutProfiles
100
AcDbCircle
 10
334.348669168
 20
457.541666667
 30
0.000000000
 40
3.000000000
100
AcDbArc
 50
-2.889623588
 51
6.528219569
  0
LINE
  5
B65
330
A02
100
AcDbEntity
  8
SheetCutProfiles
100
AcDbLine
 10
335.623188627
 20
472.791077675
 30
0.000000000
 11
337.329217108
 21
457.882744342
 31
0.000000000
  0
ARC
  5
B66
330
A02
100
AcDbEntity
  8
SheetCutProfiles
100
AcDbCircle
 10
332.642640687
 20
472.450000000
 30
0.000000000
 40
3.000000000
100
AcDbArc
 50
6.528219569
 51
13.064286969
  0
LINE
  5
B67
330
A02
100
AcDbEntity
  8
SheetCutProfiles
100
AcDbLine
 10
332.105508310
 20
488.036465857
 30
0.000000000
 11
335.564991843
 21
473.128132524
 31
0.000000000
  0
ARC
  5
B68
330
A02
100
AcDbEntity
  8
SheetCutProfiles
100
AcDbCircle
 10
329.183157153
 20
487.358333333
 30
0.000000000
 40
3.000000000
100
AcDbArc
 50
13.064286969
 51
14.238889802
  0
LINE
  5
B69
330
A02
100
AcDbEntity
  8
SheetCutProfiles
100
AcDbLine
 10
328.337200346
 20
502.888845749
 30
0.000000000
 11
332.090993022
 21
488.096229369
 31
0.000000000
  0
LINE
  5
B6A
330
A02
100
AcDbEntity
  8
SheetCutProfiles
100
AcDbLine
 10
325.852427067
 20
517.454237355
 30
0.000000000
 11
328.337200346
 21
502.888845749
 31
0.000000000
  0
LINE
  5
B6B
330
A02
100
AcDbEntity
  8
SheetCutProfiles
100
AcDbLine
 10
325.608076968
 20
531.894086058
 30
0.000000000
 11
325.852427067
 21
517.454237355
 31
0.000000000
  0
LINE
  5
B6C
330
A02
100
AcDbEntity
  8
SheetCutProfiles
100
AcDbLine
 10
327.696084223
 20
546.419940443
 30
0.000000000
 11
325.608076968
 21
531.894086058
 31
0.000000000
  0
LINE
  5
B6D
330
A02
100
AcDbEntity
  8
SheetCutProfiles
100
AcDbLine
 10
334.966390585
 20
576.094441682
 30
0.000000000
 11
327.696084223
 21
546.419940443
 31
0.000000000
  0
ARC
  5
B6E
330
A02
100
AcDbEntity
  8
SheetCutProfiles
100
AcDbCircle
 10
332.052568574
 20
576.808333333
 30
0.000000000
 40
3.000000000
100
AcDbArc
 50
-13.766398240
 51
-8.179904051
  0
LINE
  5
B6F
330
A02
100
AcDbEntity
  8
SheetCutProfiles
100
AcDbLine
 10
337.165033545
 20
591.289821356
 30
0.000000000
 11
335.022047161
 21
576.381488022
 31
0.000000000
  0
ARC
  5
B70
330
A02
100
AcDbEntity
  8
SheetCutProfiles
100
AcDbCircle
 10
334.195554958
 20
591.716666667
 30
0.000000000
 40
3.000000000
100
AcDbArc
 50
-8.179904051
 51
0.969462601
  0
LINE
  5
B71
330
A02
100
AcDbEntity
  8
SheetCutProfiles
100
AcDbLine
 10
336.942847760
 20
606.675758521
 30
0.000000000
 11
337.195125522
 21
591.767425188
 31
0.000000000
  0
ARC
  5
B72
330
A02
100
AcDbEntity
  8
SheetCutProfiles
100
AcDbCircle
 10
333.943277195
 20
606.625000000
 30
0.000000000
 40
3.000000000
100
AcDbArc
 50
0.969462601
 51
9.681138404
  0
LINE
  5
B73
330
A02
100
AcDbEntity
  8
SheetCutProfiles
100
AcDbLine
 10
334.357276646
 20
622.037827973
 30
0.000000000
 11
336.900553841
 21
607.129494640
 31
0.000000000
  0
ARC
  5
B74
330
A02
100
AcDbEntity
  8
SheetCutProfiles
100
AcDbCircle
 10
331.400000000
 20
621.533333333
 30
0.000000000
 40
3.000000000
100
AcDbArc
 50
9.681138404
 51
14.238889802
  0
LINE
  5
B75
330
A02
100
AcDbEntity
  8
SheetCutProfiles
100
AcDbLine
 10
330.532242668
 20
637.149755342
 30
0.000000000
 11
334.307835869
 21
622.271229369
 31
0.000000000
  0
LINE
  5
B76
330
A02
100
AcDbEntity
  8
SheetCutProfiles
100
AcDbLine
 10
327.118431757
 20
651.861266614
 30
0.000000000
 11
330.532242668
 21
637.149755342
 31
0.000000000
  0
LINE
  5
B77
330
A02
100
AcDbEntity
  8
SheetCutProfiles
100
AcDbLine
 10
325.459973930
 20
666.353898115
 30
0.000000000
 11
327.118431757
 21
651.861266614
 31
0.000000000
  0
LINE
  5
B78
330
A02
100
AcDbEntity
  8
SheetCutProfiles
100
AcDbLine
 10
326.189300590
 20
680.802805759
 30
0.000000000
 11
325.459973930
 21
666.353898115
 31
0.000000000
  0
LINE
  5
B79
330
A02
100
AcDbEntity
  8
SheetCutProfiles
100
AcDbLine
 10
329.031357051
 20
695.413001567
 30
0.000000000
 11
326.189300590
 21
680.802805759
 31
0.000000000
  0
LINE
  5
B7A
330
A02
100
AcDbEntity
  8
SheetCutProfiles
100
AcDbLine
 10
332.857665941
 20
710.233388178
 30
0.000000000
 11
329.031357051
 21
695.413001567
 31
0.000000000
  0
ARC
  5
B7B
330
A02
100
AcDbEntity
  8
SheetCutProfiles
100
AcDbCircle
 10
329.952914271
 20
710.983333333
 30
0.000000000
 40
3.000000000
100
AcDbArc
 50
-14.476430379
 51
-12.140911260
  0
LINE
  5
B7C
330
A02
100
AcDbEntity
  8
SheetCutProfiles
100
AcDbLine
 10
336.093019979
 20
725.260716621
 30
0.000000000
 11
332.885814207
 21
710.352383287
 31
0.000000000
  0
ARC
  5
B7D
330
A02
100
AcDbEntity
  8
SheetCutProfiles
100
AcDbCircle
 10
333.160120042
 20
725.891666667
 30
0.000000000
 40
3.000000000
100
AcDbArc
 50
-12.140911260
 51
-4.754171744
  0
LINE
  5
B7E
330
A02
100
AcDbEntity
  8
SheetCutProfiles
100
AcDbLine
 10
26.475000000
 20
388.800000000
 30
0.000000000
 11
31.625000000
 21
388.800000000
 31
0.000000000
  0
LINE
  5
B7F
330
A02
100
AcDbEntity
  8
SheetCutProfiles
100
AcDbLine
 10
26.475000000
 20
377.200000000
 30
0.000000000
 11
26.475000000
 21
388.800000000
 31
0.000000000
  0
LINE
  5
B80
330
A02
100
AcDbEntity
  8
SheetCutProfiles
100
AcDbLine
 10
31.625000000
 20
377.200000000
 30
0.000000000
 11
26.475000000
 21
377.200000000
 31
0.000000000
  0
LINE
  5
B81
330
A02
100
AcDbEntity
  8
SheetCutProfiles
100
AcDbLine
 10
31.625000000
 20
388.800000000
 30
0.000000000
 11
31.625000000
 21
377.200000000
 31
0.000000000
  0
LINE
  5
B82
330
A02
100
AcDbEntity
  8
SheetCutProfiles
100
AcDbLine
 10
16.175000000
 20
388.800000000
 30
0.000000000
 11
21.325000000
 21
388.800000000
 31
0.000000000
  0
LINE
  5
B83
330
A02
100
AcDbEntity
  8
SheetCutProfiles
100
AcDbLine
 10
16.175000000
 20
377.200000000
 30
0.000000000
 11
16.175000000
 21
388.800000000
 31
0.000000000
  0
LINE
  5
B84
330
A02
100
AcDbEntity
  8
SheetCutProfiles
100
AcDbLine
 10
21.325000000
 20
377.200000000
 30
0.000000000
 11
16.175000000
 21
377.200000000
 31
0.000000000
  0
LINE
  5
B85
330
A02
100
AcDbEntity
  8
SheetCutProfiles
100
AcDbLine
 10
21.325000000
 20
388.800000000
 30
0.000000000
 11
21.325000000
 21
377.200000000
 31
0.000000000
  0
LINE
  5
B86
330
A02
100
AcDbEntity
  8
SheetCutProfiles
100
AcDbLine
 10
321.516666667
 20
738.881549417
 30
0.000000000
 11
327.958333333
 21
740.301410938
 31
0.000000000
  0
LINE
  5
B87
330
A02
100
AcDbEntity
  8
SheetCutProfiles
100
AcDbLine
 10
327.958333333
 20
740.301410938
 30
0.000000000
 11
334.400000000
 21
740.800000000
 31
0.000000000
  0
LINE
  5
B88
330
A02
100
AcDbEntity
  8
SheetCutProfiles
100
AcDbLine
 10
334.400000000
 20
740.800000000
 30
0.000000000
 11
333.160120042
 21
725.891666667
 31
0.000000000
  0
LINE
  5
B89
330
A02
100
AcDbEntity
  8
SheetCutProfiles
100
AcDbLine
 10
333.160120042
 20
725.891666667
 30
0.000000000
 11
329.952914271
 21
710.983333333
 31
0.000000000
  0
LINE
  5
B8A
330
A02
100
AcDbEntity
  8
SheetCutProfiles
100
AcDbLine
 10
329.952914271
 20
710.983333333
 30
0.000000000
 11
326.103899406
 21
696.075000000
 31
0.000000000
  0
LINE
  5
B8B
330
A02
100
AcDbEntity
  8
SheetCutProfiles
100
AcDbLine
 10
326.103899406
 20
696.075000000
 30
0.000000000
 11
323.203847577
 21
681.166666667
 31
0.000000000
  0
LINE
  5
B8C
330
A02
100
AcDbEntity
  8
SheetCutProfiles
100
AcDbLine
 10
323.203847577
 20
681.166666667
 30
0.000000000
 11
322.451330832
 21
666.258333333
 31
0.000000000
  0
LINE
  5
B8D
330
A02
100
AcDbEntity
  8
SheetCutProfiles
100
AcDbLine
 10
322.451330832
 20
666.258333333
 30
0.000000000
 11
324.157359313
 21
651.350000000
 31
0.000000000
  0
LINE
  5
B8E
330
A02
100
AcDbEntity
  8
SheetCutProfiles
100
AcDbLine
 10
324.157359313
 20
651.350000000
 30
0.000000000
 11
327.616842847
 21
636.441666667
 31
0.000000000
  0
LINE
  5
B8F
330
A02
100
AcDbEntity
  8
SheetCutProfiles
100
AcDbLine
 10
327.616842847
 20
636.441666667
 30
0.000000000
 11
331.400000000
 21
621.533333333
 31
0.000000000
  0
LINE
  5
B90
330
A02
100
AcDbEntity
  8
SheetCutProfiles
100
AcDbLine
 10
331.400000000
 20
621.533333333
 30
0.000000000
 11
333.943277195
 21
606.625000000
 31
0.000000000
  0
LINE
  5
B91
330
A02
100
AcDbEntity
  8
SheetCutProfiles
100
AcDbLine
 10
333.943277195
 20
606.625000000
 30
0.000000000
 11
334.195554958
 21
591.716666667
 31
0.000000000
  0
LINE
  5
B92
330
A02
100
AcDbEntity
  8
SheetCutProfiles
100
AcDbLine
 10
334.195554958
 20
591.716666667
 30
0.000000000
 11
332.052568574
 21
576.808333333
 31
0.000000000
  0
LINE
  5
B93
330
A02
100
AcDbEntity
  8
SheetCutProfiles
100
AcDbLine
 10
324.747431426
 20
546.991666667
 30
0.000000000
 11
332.052568574
 21
576.808333333
 31
0.000000000
  0
LINE
  5
B94
330
A02
100
AcDbEntity
  8
SheetCutProfiles
100
AcDbLine
 10
324.747431426
 20
546.991666667
 30
0.000000000
 11
322.604445042
 21
532.083333333
 31
0.000000000
  0
LINE
  5
B95
330
A02
100
AcDbEntity
  8
SheetCutProfiles
100
AcDbLine
 10
322.604445042
 20
532.083333333
 30
0.000000000
 11
322.856722805
 21
517.175000000
 31
0.000000000
  0
LINE
  5
B96
330
A02
100
AcDbEntity
  8
SheetCutProfiles
100
AcDbLine
 10
322.856722805
 20
517.175000000
 30
0.000000000
 11
325.400000000
 21
502.266666667
 31
0.000000000
  0
LINE
  5
B97
330
A02
100
AcDbEntity
  8
SheetCutProfiles
100
AcDbLine
 10
325.400000000
 20
502.266666667
 30
0.000000000
 11
329.183157153
 21
487.358333333
 31
0.000000000
  0
LINE
  5
B98
330
A02
100
AcDbEntity
  8
SheetCutProfiles
100
AcDbLine
 10
329.183157153
 20
487.358333333
 30
0.000000000
 11
332.642640687
 21
472.450000000
 31
0.000000000
  0
LINE
  5
B99
330
A02
100
AcDbEntity
  8
SheetCutProfiles
100
AcDbLine
 10
332.642640687
 20
472.450000000
 30
0.000000000
 11
334.348669168
 21
457.541666667
 31
0.000000000
  0
LINE
  5
B9A
330
A02
100
AcDbEntity
  8
SheetCutProfiles
100
AcDbLine
 10
334.348669168
 20
457.541666667
 30
0.000000000
 11
333.596152423
 21
442.633333333
 31
0.000000000
  0
LINE
  5
B9B
330
A02
100
AcDbEntity
  8
SheetCutProfiles
100
AcDbLine
 10
333.596152423
 20
442.633333333
 30
0.000000000
 11
330.696100594
 21
427.725000000
 31
0.000000000
  0
LINE
  5
B9C
330
A02
100
AcDbEntity
  8
SheetCutProfiles
100
AcDbLine
 10
330.696100594
 20
427.725000000
 30
0.000000000
 11
326.847085729
 21
412.816666667
 31
0.000000000
  0
LINE
  5
B9D
330
A02
100
AcDbEntity
  8
SheetCutProfiles
100
AcDbLine
 10
326.847085729
 20
412.816666667
 30
0.000000000
 11
323.639879958
 21
397.908333333
 31
0.000000000
  0
LINE
  5
B9E
330
A02
100
AcDbEntity
  8
SheetCutProfiles
100
AcDbLine
 10
323.639879958
 20
397.908333333
 30
0.000000000
 11
322.400000000
 21
383.000000000
 31
0.000000000
  0
LINE
  5
B9F
330
A02
100
AcDbEntity
  8
SheetCutProfiles
100
AcDbLine
 10
322.400000000
 20
383.000000000
 30
0.000000000
 11
323.639879958
 21
368.091666667
 31
0.000000000
  0
LINE
  5
BA0
330
A02
100
AcDbEntity
  8
SheetCutProfiles
100
AcDbLine
 10
323.639879958
 20
368.091666667
 30
0.000000000
 11
326.847085729
 21
353.183333333
 31
0.000000000
  0
LINE
  5
BA1
330
A02
100
AcDbEntity
  8
SheetCutProfiles
100
AcDbLine
 10
326.847085729
 20
353.183333333
 30
0.000000000
 11
330.696100594
 21
338.275000000
 31
0.000000000
  0
LINE
  5
BA2
330
A02
100
AcDbEntity
  8
SheetCutProfiles
100
AcDbLine
 10
330.696100594
 20
338.275000000
 30
0.000000000
 11
333.596152423
 21
323.366666667
 31
0.000000000
  0
LINE
  5
BA3
330
A02
100
AcDbEntity
  8
SheetCutProfiles
100
AcDbLine
 10
333.596152423
 20
323.366666667
 30
0.000000000
 11
334.348669168
 21
308.458333333
 31
0.000000000
  0
LINE
  5
BA4
330
A02
100
AcDbEntity
  8
SheetCutProfiles
100
AcDbLine
 10
334.348669168
 20
308.458333333
 30
0.000000000
 11
332.642640687
 21
293.550000000
 31
0.000000000
  0
LINE
  5
BA5
330
A02
100
AcDbEntity
  8
SheetCutProfiles
100
AcDbLine
 10
332.642640687
 20
293.550000000
 30
0.000000000
 11
329.183157153
 21
278.641666667
 31
0.000000000
  0
LINE
  5
BA6
330
A02
100
AcDbEntity
  8
SheetCutProfiles
100
AcDbLine
 10
329.183157153
 20
278.641666667
 30
0.000000000
 11
325.400000000
 21
263.733333333
 31
0.000000000
  0
LINE
  5
BA7
330
A02
100
AcDbEntity
  8
SheetCutProfiles
100
AcDbLine
 10
325.400000000
 20
263.733333333
 30
0.000000000
 11
322.856722805
 21
248.825000000
 31
0.000000000
  0
LINE
  5
BA8
330
A02
100
AcDbEntity
  8
SheetCutProfiles
100
AcDbLine
 10
322.856722805
 20
248.825000000
 30
0.000000000
 11
322.604445042
 21
233.916666667
 31
0.000000000
  0
LINE
  5
BA9
330
A02
100
AcDbEntity
  8
SheetCutProfiles
100
AcDbLine
 10
322.604445042
 20
233.916666667
 30
0.000000000
 11
324.747431426
 21
219.008333333
 31
0.000000000
  0
LINE
  5
BAA
330
A02
100
AcDbEntity
  8
SheetCutProfiles
100
AcDbLine
 10
332.052568574
 20
189.191666667
 30
0.000000000
 11
324.747431426
 21
219.008333333
 31
0.000000000
  0
LINE
  5
BAB
330
A02
100
AcDbEntity
  8
SheetCutProfiles
100
AcDbLine
 10
332.052568574
 20
189.191666667
 30
0.000000000
 11
334.195554958
 21
174.283333333
 31
0.000000000
  0
LINE
  5
BAC
330
A02
100
AcDbEntity
  8
SheetCutProfiles
100
AcDbLine
 10
334.195554958
 20
174.283333333
 30
0.000000000
 11
333.943277195
 21
159.375000000
 31
0.000000000
  0
LINE
  5
BAD
330
A02
100
AcDbEntity
  8
SheetCutProfiles
100
AcDbLine
 10
333.943277195
 20
159.375000000
 30
0.000000000
 11
331.400000000
 21
144.466666667
 31
0.000000000
  0
LINE
  5
BAE
330
A02
100
AcDbEntity
  8
SheetCutProfiles
100
AcDbLine
 10
331.400000000
 20
144.466666667
 30
0.000000000
 11
327.616842847
 21
129.558333333
 31
0.000000000
  0
LINE
  5
BAF
330
A02
100
AcDbEntity
  8
SheetCutProfiles
100
AcDbLine
 10
327.616842847
 20
129.558333333
 30
0.000000000
 11
324.157359313
 21
114.650000000
 31
0.000000000
  0
LINE
  5
BB0
330
A02
100
AcDbEntity
  8
SheetCutProfiles
100
AcDbLine
 10
324.157359313
 20
114.650000000
 30
0.000000000
 11
322.451330832
 21
99.741666667
 31
0.000000000
  0
LINE
  5
BB1
330
A02
100
AcDbEntity
  8
SheetCutProfiles
100
AcDbLine
 10
322.451330832
 20
99.741666667
 30
0.000000000
 11
323.203847577
 21
84.833333333
 31
0.000000000
  0
LINE
  5
BB2
330
A02
100
AcDbEntity
  8
SheetCutProfiles
100
AcDbLine
 10
323.203847577
 20
84.833333333
 30
0.000000000
 11
326.103899406
 21
69.925000000
 31
0.000000000
  0
LINE
  5
BB3
330
A02
100
AcDbEntity
  8
SheetCutProfiles
100
AcDbLine
 10
326.103899406
 20
69.925000000
 30
0.000000000
 11
329.952914271
 21
55.016666667
 31
0.000000000
  0
LINE
  5
BB4
330
A02
100
AcDbEntity
  8
SheetCutProfiles
100
AcDbLine
 10
329.952914271
 20
55.016666667
 30
0.000000000
 11
333.160120042
 21
40.108333333
 31
0.000000000
  0
LINE
  5
BB5
330
A02
100
AcDbEntity
  8
SheetCutProfiles
100
AcDbLine
 10
333.160120042
 20
40.108333333
 30
0.000000000
 11
334.400000000
 21
25.200000000
 31
0.000000000
  0
LINE
  5
BB6
330
A02
100
AcDbEntity
  8
SheetCutProfiles
100
AcDbLine
 10
334.400000000
 20
25.200000000
 30
0.000000000
 11
327.958333333
 21
25.698589062
 31
0.000000000
  0
LINE
  5
BB7
330
A02
100
AcDbEntity
  8
SheetCutProfiles
100
AcDbLine
 10
327.958333333
 20
25.698589062
 30
0.000000000
 11
321.516666667
 21
27.118450583
 31
0.000000000
  0
LINE
  5
BB8
330
A02
100
AcDbEntity
  8
SheetCutProfiles
100
AcDbLine
 10
321.516666667
 20
27.118450583
 30
0.000000000
 11
315.075000000
 21
29.243423518
 31
0.000000000
  0
LINE
  5
BB9
330
A02
100
AcDbEntity
  8
SheetCutProfiles
100
AcDbLine
 10
302.191666667
 20
34.256576482
 30
0.000000000
 11
315.075000000
 21
29.243423518
 31
0.000000000
  0
LINE
  5
BBA
330
A02
100
AcDbEntity
  8
SheetCutProfiles
100
AcDbLine
 10
302.191666667
 20
34.256576482
 30
0.000000000
 11
295.750000000
 21
36.381549417
 31
0.000000000
  0
LINE
  5
BBB
330
A02
100
AcDbEntity
  8
SheetCutProfiles
100
AcDbLine
 10
295.750000000
 20
36.381549417
 30
0.000000000
 11
289.308333333
 21
37.801410938
 31
0.000000000
  0
LINE
  5
BBC
330
A02
100
AcDbEntity
  8
SheetCutProfiles
100
AcDbLine
 10
289.308333333
 20
37.801410938
 30
0.000000000
 11
282.866666667
 21
38.300000000
 31
0.000000000
  0
LINE
  5
BBD
330
A02
100
AcDbEntity
  8
SheetCutProfiles
100
AcDbLine
 10
282.866666667
 20
38.300000000
 30
0.000000000
 11
276.425000000
 21
37.801410938
 31
0.000000000
  0
LINE
  5
BBE
330
A02
100
AcDbEntity
  8
SheetCutProfiles
100
AcDbLine
 10
276.425000000
 20
37.801410938
 30
0.000000000
 11
269.983333333
 21
36.381549417
 31
0.000000000
  0
LINE
  5
BBF
330
A02
100
AcDbEntity
  8
SheetCutProfiles
100
AcDbLine
 10
269.983333333
 20
36.381549417
 30
0.000000000
 11
263.541666667
 21
34.256576482
 31
0.000000000
  0
LINE
  5
BC0
330
A02
100
AcDbEntity
  8
SheetCutProfiles
100
AcDbLine
 10
250.658333333
 20
29.243423518
 30
0.000000000
 11
263.541666667
 21
34.256576482
 31
0.000000000
  0
LINE
  5
BC1
330
A02
100
AcDbEntity
  8
SheetCutProfiles
100
AcDbLine
 10
250.658333333
 20
29.243423518
 30
0.000000000
 11
244.216666667
 21
27.118450583
 31
0.000000000
  0
LINE
  5
BC2
330
A02
100
AcDbEntity
  8
SheetCutProfiles
100
AcDbLine
 10
244.216666667
 20
27.118450583
 30
0.000000000
 11
237.775000000
 21
25.698589062
 31
0.000000000
  0
LINE
  5
BC3
330
A02
100
AcDbEntity
  8
SheetCutProfiles
100
AcDbLine
 10
237.775000000
 20
25.698589062
 30
0.000000000
 11
231.333333333
 21
25.200000000
 31
0.000000000
  0
LINE
  5
BC4
330
A02
100
AcDbEntity
  8
SheetCutProfiles
100
AcDbLine
 10
231.333333333
 20
25.200000000
 30
0.000000000
 11
224.891666667
 21
25.698589062
 31
0.000000000
  0
LINE
  5
BC5
330
A02
100
AcDbEntity
  8
SheetCutProfiles
100
AcDbLine
 10
224.891666667
 20
25.698589062
 30
0.000000000
 11
218.450000000
 21
27.118450583
 31
0.000000000
  0
LINE
  5
BC6
330
A02
100
AcDbEntity
  8
SheetCutProfiles
100
AcDbLine
 10
218.450000000
 20
27.118450583
 30
0.000000000
 11
212.008333333
 21
29.243423518
 31
0.000000000
  0
LINE
  5
BC7
330
A02
100
AcDbEntity
  8
SheetCutProfiles
100
AcDbLine
 10
212.008333333
 20
29.243423518
 30
0.000000000
 11
205.566666667
 21
31.750000000
 31
0.000000000
  0
LINE
  5
BC8
330
A02
100
AcDbEntity
  8
SheetCutProfiles
100
AcDbLine
 10
205.566666667
 20
31.750000000
 30
0.000000000
 11
199.125000000
 21
27.664497502
 31
0.000000000
  0
LINE
  5
BC9
330
A02
100
AcDbEntity
  8
SheetCutProfiles
100
AcDbLine
 10
199.125000000
 20
27.664497502
 30
0.000000000
 11
192.683333333
 21
25.202330115
 31
0.000000000
  0
LINE
  5
BCA
330
A02
100
AcDbEntity
  8
SheetCutProfiles
100
AcDbLine
 10
192.683333333
 20
25.202330115
 30
0.000000000
 11
186.241666667
 21
25.200000000
 31
0.000000000
  0
LINE
  5
BCB
330
A02
100
AcDbEntity
  8
SheetCutProfiles
100
AcDbLine
 10
173.358333333
 20
25.200000000
 30
0.000000000
 11
186.241666667
 21
25.200000000
 31
0.000000000
  0
LINE
  5
BCC
330
A02
100
AcDbEntity
  8
SheetCutProfiles
100
AcDbLine
 10
173.358333333
 20
25.200000000
 30
0.000000000
 11
166.916666667
 21
25.202330115
 31
0.000000000
  0
LINE
  5
BCD
330
A02
100
AcDbEntity
  8
SheetCutProfiles
100
AcDbLine
 10
166.916666667
 20
25.202330115
 30
0.000000000
 11
160.475000000
 21
27.664497502
 31
0.000000000
  0
LINE
  5
BCE
330
A02
100
AcDbEntity
  8
SheetCutProfiles
100
AcDbLine
 10
160.475000000
 20
27.664497502
 30
0.000000000
 11
154.033333333
 21
31.750000000
 31
0.000000000
  0
LINE
  5
BCF
330
A02
100
AcDbEntity
  8
SheetCutProfiles
100
AcDbLine
 10
154.033333333
 20
31.750000000
 30
0.000000000
 11
147.591666667
 21
29.243423518
 31
0.000000000
  0
LINE
  5
BD0
330
A02
100
AcDbEntity
  8
SheetCutProfiles
100
AcDbLine
 10
147.591666667
 20
29.243423518
 30
0.000000000
 11
141.150000000
 21
27.118450583
 31
0.000000000
  0
LINE
  5
BD1
330
A02
100
AcDbEntity
  8
SheetCutProfiles
100
AcDbLine
 10
141.150000000
 20
27.118450583
 30
0.000000000
 11
134.708333333
 21
25.698589062
 31
0.000000000
  0
LINE
  5
BD2
330
A02
100
AcDbEntity
  8
SheetCutProfiles
100
AcDbLine
 10
134.708333333
 20
25.698589062
 30
0.000000000
 11
128.266666667
 21
25.200000000
 31
0.000000000
  0
LINE
  5
BD3
330
A02
100
AcDbEntity
  8
SheetCutProfiles
100
AcDbLine
 10
128.266666667
 20
25.200000000
 30
0.000000000
 11
121.825000000
 21
25.698589062
 31
0.000000000
  0
LINE
  5
BD4
330
A02
100
AcDbEntity
  8
SheetCutProfiles
100
AcDbLine
 10
121.825000000
 20
25.698589062
 30
0.000000000
 11
115.383333333
 21
27.118450583
 31
0.000000000
  0
LINE
  5
BD5
330
A02
100
AcDbEntity
  8
SheetCutProfiles
100
AcDbLine
 10
115.383333333
 20
27.118450583
 30
0.000000000
 11
108.941666667
 21
29.243423518
 31
0.000000000
  0
LINE
  5
BD6
330
A02
100
AcDbEntity
  8
SheetCutProfiles
100
AcDbLine
 10
96.058333333
 20
34.256576482
 30
0.000000000
 11
108.941666667
 21
29.243423518
 31
0.000000000
  0
LINE
  5
BD7
330
A02
100
AcDbEntity
  8
SheetCutProfiles
100
AcDbLine
 10
96.058333333
 20
34.256576482
 30
0.000000000
 11
89.616666667
 21
36.381549417
 31
0.000000000
  0
LINE
  5
BD8
330
A02
100
AcDbEntity
  8
SheetCutProfiles
100
AcDbLine
 10
89.616666667
 20
36.381549417
 30
0.000000000
 11
83.175000000
 21
37.801410938
 31
0.000000000
  0
LINE
  5
BD9
330
A02
100
AcDbEntity
  8
SheetCutProfiles
100
AcDbLine
 10
83.175000000
 20
37.801410938
 30
0.000000000
 11
76.733333333
 21
38.300000000
 31
0.000000000
  0
LINE
  5
BDA
330
A02
100
AcDbEntity
  8
SheetCutProfiles
100
AcDbLine
 10
76.733333333
 20
38.300000000
 30
0.000000000
 11
70.291666667
 21
37.801410938
 31
0.000000000
  0
LINE
  5
BDB
330
A02
100
AcDbEntity
  8
SheetCutProfiles
100
AcDbLine
 10
70.291666667
 20
37.801410938
 30
0.000000000
 11
63.850000000
 21
36.381549417
 31
0.000000000
  0
LINE
  5
BDC
330
A02
100
AcDbEntity
  8
SheetCutProfiles
100
AcDbLine
 10
63.850000000
 20
36.381549417
 30
0.000000000
 11
57.408333333
 21
34.256576482
 31
0.000000000
  0
LINE
  5
BDD
330
A02
100
AcDbEntity
  8
SheetCutProfiles
100
AcDbLine
 10
44.525000000
 20
29.243423518
 30
0.000000000
 11
57.408333333
 21
34.256576482
 31
0.000000000
  0
LINE
  5
BDE
330
A02
100
AcDbEntity
  8
SheetCutProfiles
100
AcDbLine
 10
44.525000000
 20
29.243423518
 30
0.000000000
 11
38.083333333
 21
27.118450583
 31
0.000000000
  0
LINE
  5
BDF
330
A02
100
AcDbEntity
  8
SheetCutProfiles
100
AcDbLine
 10
38.083333333
 20
27.118450583
 30
0.000000000
 11
31.641666667
 21
25.698589062
 31
0.000000000
  0
LINE
  5
BE0
330
A02
100
AcDbEntity
  8
SheetCutProfiles
100
AcDbLine
 10
31.641666667
 20
25.698589062
 30
0.000000000
 11
25.200000000
 21
25.200000000
 31
0.000000000
  0
LINE
  5
BE1
330
A02
100
AcDbEntity
  8
SheetCutProfiles
100
AcDbLine
 10
25.200000000
 20
25.200000000
 30
0.000000000
 11
26.439879958
 21
40.108333333
 31
0.000000000
  0
LINE
  5
BE2
330
A02
100
AcDbEntity
  8
SheetCutProfiles
100
AcDbLine
 10
26.439879958
 20
40.108333333
 30
0.000000000
 11
29.647085729
 21
55.016666667
 31
0.000000000
  0
LINE
  5
BE3
330
A02
100
AcDbEntity
  8
SheetCutProfiles
100
AcDbLine
 10
29.647085729
 20
55.016666667
 30
0.000000000
 11
33.496100594
 21
69.925000000
 31
0.000000000
  0
LINE
  5
BE4
330
A02
100
AcDbEntity
  8
SheetCutProfiles
100
AcDbLine
 10
33.496100594
 20
69.925000000
 30
0.000000000
 11
36.396152423
 21
84.833333333
 31
0.000000000
  0
LINE
  5
BE5
330
A02
100
AcDbEntity
  8
SheetCutProfiles
100
AcDbLine
 10
36.396152423
 20
84.833333333
 30
0.000000000
 11
37.148669168
 21
99.741666667
 31
0.000000000
  0
LINE
  5
BE6
330
A02
100
AcDbEntity
  8
SheetCutProfiles
100
AcDbLine
 10
37.148669168
 20
99.741666667
 30
0.000000000
 11
35.442640687
 21
114.650000000
 31
0.000000000
  0
LINE
  5
BE7
330
A02
100
AcDbEntity
  8
SheetCutProfiles
100
AcDbLine
 10
35.442640687
 20
114.650000000
 30
0.000000000
 11
31.983157153
 21
129.558333333
 31
0.000000000
  0
LINE
  5
BE8
330
A02
100
AcDbEntity
  8
SheetCutProfiles
100
AcDbLine
 10
31.983157153
 20
129.558333333
 30
0.000000000
 11
28.200000000
 21
144.466666667
 31
0.000000000
  0
LINE
  5
BE9
330
A02
100
AcDbEntity
  8
SheetCutProfiles
100
AcDbLine
 10
28.200000000
 20
144.466666667
 30
0.000000000
 11
25.656722805
 21
159.375000000
 31
0.000000000
  0
LINE
  5
BEA
330
A02
100
AcDbEntity
  8
SheetCutProfiles
100
AcDbLine
 10
25.656722805
 20
159.375000000
 30
0.000000000
 11
25.404445042
 21
174.283333333
 31
0.000000000
  0
LINE
  5
BEB
330
A02
100
AcDbEntity
  8
SheetCutProfiles
100
AcDbLine
 10
25.404445042
 20
174.283333333
 30
0.000000000
 11
27.547431426
 21
189.191666667
 31
0.000000000
  0
LINE
  5
BEC
330
A02
100
AcDbEntity
  8
SheetCutProfiles
100
AcDbLine
 10
34.852568574
 20
219.008333333
 30
0.000000000
 11
27.547431426
 21
189.191666667
 31
0.000000000
  0
LINE
  5
BED
330
A02
100
AcDbEntity
  8
SheetCutProfiles
100
AcDbLine
 10
34.852568574
 20
219.008333333
 30
0.000000000
 11
36.995554958
 21
233.916666667
 31
0.000000000
  0
LINE
  5
BEE
330
A02
100
AcDbEntity
  8
SheetCutProfiles
100
AcDbLine
 10
36.995554958
 20
233.916666667
 30
0.000000000
 11
36.743277195
 21
248.825000000
 31
0.000000000
  0
LINE
  5
BEF
330
A02
100
AcDbEntity
  8
SheetCutProfiles
100
AcDbLine
 10
36.743277195
 20
248.825000000
 30
0.000000000
 11
34.200000000
 21
263.733333333
 31
0.000000000
  0
LINE
  5
BF0
330
A02
100
AcDbEntity
  8
SheetCutProfiles
100
AcDbLine
 10
34.200000000
 20
263.733333333
 30
0.000000000
 11
30.416842847
 21
278.641666667
 31
0.000000000
  0
LINE
  5
BF1
330
A02
100
AcDbEntity
  8
SheetCutProfiles
100
AcDbLine
 10
30.416842847
 20
278.641666667
 30
0.000000000
 11
26.957359313
 21
293.550000000
 31
0.000000000
  0
LINE
  5
BF2
330
A02
100
AcDbEntity
  8
SheetCutProfiles
100
AcDbLine
 10
26.957359313
 20
293.550000000
 30
0.000000000
 11
25.288740214
 21
308.131426985
 31
0.000000000
  0
LINE
  5
BF3
330
A02
100
AcDbEntity
  8
SheetCutProfiles
100
AcDbLine
 10
26.316666667
 20
309.376624995
 30
0.000000000
 11
25.288740214
 21
308.131426985
 31
0.000000000
  0
LINE
  5
BF4
330
A02
100
AcDbEntity
  8
SheetCutProfiles
100
AcDbLine
 10
27.375000000
 20
310.633708646
 30
0.000000000
 11
26.316666667
 21
309.376624995
 31
0.000000000
  0
LINE
  5
BF5
330
A02
100
AcDbEntity
  8
SheetCutProfiles
100
AcDbLine
 10
28.433333333
 20
311.853801686
 30
0.000000000
 11
27.375000000
 21
310.633708646
 31
0.000000000
  0
LINE
  5
BF6
330
A02
100
AcDbEntity
  8
SheetCutProfiles
100
AcDbLine
 10
29.491666667
 20
313.025372237
 30
0.000000000
 11
28.433333333
 21
311.853801686
 31
0.000000000
  0
LINE
  5
BF7
330
A02
100
AcDbEntity
  8
SheetCutProfiles
100
AcDbLine
 10
30.550000000
 20
314.137556152
 30
0.000000000
 11
29.491666667
 21
313.025372237
 31
0.000000000
  0
LINE
  5
BF8
330
A02
100
AcDbEntity
  8
SheetCutProfiles
100
AcDbLine
 10
31.608333333
 20
315.180303578
 30
0.000000000
 11
30.550000000
 21
314.137556152
 31
0.000000000
  0
LINE
  5
BF9
330
A02
100
AcDbEntity
  8
SheetCutProfiles
100
AcDbLine
 10
32.666666667
 20
316.144512467
 30
0.000000000
 11
31.608333333
 21
315.180303578
 31
0.000000000
  0
LINE
  5
BFA
330
A02
100
AcDbEntity
  8
SheetCutProfiles
100
AcDbLine
 10
33.725000000
 20
317.022146884
 30
0.000000000
 11
32.666666667
 21
316.144512467
 31
0.000000000
  0
LINE
  5
BFB
330
A02
100
AcDbEntity
  8
SheetCutProfiles
100
AcDbLine
 10
34.783333333
 20
317.806338272
 30
0.000000000
 11
33.725000000
 21
317.022146884
 31
0.000000000
  0
LINE
  5
BFC
330
A02
100
AcDbEntity
  8
SheetCutProfiles
100
AcDbLine
 10
35.841666667
 20
318.491468081
 30
0.000000000
 11
34.783333333
 21
317.806338272
 31
0.000000000
  0
LINE
  5
BFD
330
A02
100
AcDbEntity
  8
SheetCutProfiles
100
AcDbLine
 10
36.900000000
 20
319.073230509
 30
0.000000000
 11
35.841666667
 21
318.491468081
 31
0.000000000
  0
LINE
  5
BFE
330
A02
100
AcDbEntity
  8
SheetCutProfiles
100
AcDbLine
 10
37.958333333
 20
319.548674414
 30
0.000000000
 11
36.900000000
 21
319.073230509
 31
0.000000000
  0
LINE
  5
BFF
330
A02
100
AcDbEntity
  8
SheetCutProfiles
100
AcDbLine
 10
39.016666667
 20
319.916223818
 30
0.000000000
 11
37.958333333
 21
319.548674414
 31
0.000000000
  0
LINE
  5
C00
330
A02
100
AcDbEntity
  8
SheetCutProfiles
100
AcDbLine
 10
40.075000000
 20
320.175676789
 30
0.000000000
 11
39.016666667
 21
319.916223818
 31
0.000000000
  0
LINE
  5
C01
330
A02
100
AcDbEntity
  8
SheetCutProfiles
100
AcDbLine
 10
41.133333333
 20
320.328182833
 30
0.000000000
 11
40.075000000
 21
320.175676789
 31
0.000000000
  0
LINE
  5
C02
330
A02
100
AcDbEntity
  8
SheetCutProfiles
100
AcDbLine
 10
42.191666667
 20
320.376199285
 30
0.000000000
 11
41.133333333
 21
320.328182833
 31
0.000000000
  0
LINE
  5
C03
330
A02
100
AcDbEntity
  8
SheetCutProfiles
100
AcDbLine
 10
43.250000000
 20
320.323427577
 30
0.000000000
 11
42.191666667
 21
320.376199285
 31
0.000000000
  0
LINE
  5
C04
330
A02
100
AcDbEntity
  8
SheetCutProfiles
100
AcDbLine
 10
44.308333333
 20
320.174730529
 30
0.000000000
 11
43.250000000
 21
320.323427577
 31
0.000000000
  0
LINE
  5
C05
330
A02
100
AcDbEntity
  8
SheetCutProfiles
100
AcDbLine
 10
45.366666667
 20
319.936032194
 30
0.000000000
 11
44.308333333
 21
320.174730529
 31
0.000000000
  0
LINE
  5
C06
330
A02
100
AcDbEntity
  8
SheetCutProfiles
100
AcDbLine
 10
46.425000000
 20
319.614202020
 30
0.000000000
 11
45.366666667
 21
319.936032194
 31
0.000000000
  0
LINE
  5
C07
330
A02
100
AcDbEntity
  8
SheetCutProfiles
100
AcDbLine
 10
47.483333333
 20
319.216925384
 30
0.000000000
 11
46.425000000
 21
319.614202020
 31
0.000000000
  0
LINE
  5
C08
330
A02
100
AcDbEntity
  8
SheetCutProfiles
100
AcDbLine
 10
48.541666667
 20
318.752562764
 30
0.000000000
 11
47.483333333
 21
319.216925384
 31
0.000000000
  0
LINE
  5
C09
330
A02
100
AcDbEntity
  8
SheetCutProfiles
100
AcDbLine
 10
49.600000000
 20
318.230000000
 30
0.000000000
 11
48.541666667
 21
318.752562764
 31
0.000000000
  0
LINE
  5
C0A
330
A02
100
AcDbEntity
  8
SheetCutProfiles
100
AcDbLine
 10
50.658333333
 20
317.658492221
 30
0.000000000
 11
49.600000000
 21
318.230000000
 31
0.000000000
  0
LINE
  5
C0B
330
A02
100
AcDbEntity
  8
SheetCutProfiles
100
AcDbLine
 10
51.716666667
 20
317.047504147
 30
0.000000000
 11
50.658333333
 21
317.658492221
 31
0.000000000
  0
LINE
  5
C0C
330
A02
100
AcDbEntity
  8
SheetCutProfiles
100
AcDbLine
 10
52.775000000
 20
316.406549490
 30
0.000000000
 11
51.716666667
 21
317.047504147
 31
0.000000000
  0
LINE
  5
C0D
330
A02
100
AcDbEntity
  8
SheetCutProfiles
100
AcDbLine
 10
53.833333333
 20
315.745032194
 30
0.000000000
 11
52.775000000
 21
316.406549490
 31
0.000000000
  0
LINE
  5
C0E
330
A02
100
AcDbEntity
  8
SheetCutProfiles
100
AcDbLine
 10
54.891666667
 20
315.072092231
 30
0.000000000
 11
53.833333333
 21
315.745032194
 31
0.000000000
  0
LINE
  5
C0F
330
A02
100
AcDbEntity
  8
SheetCutProfiles
100
AcDbLine
 10
55.950000000
 20
314.396458537
 30
0.000000000
 11
54.891666667
 21
315.072092231
 31
0.000000000
  0
LINE
  5
C10
330
A02
100
AcDbEntity
  8
SheetCutProfiles
100
AcDbLine
 10
57.008333333
 20
313.726311587
 30
0.000000000
 11
55.950000000
 21
314.396458537
 31
0.000000000
  0
LINE
  5
C11
330
A02
100
AcDbEntity
  8
SheetCutProfiles
100
AcDbLine
 10
58.066666667
 20
313.069157898
 30
0.000000000
 11
57.008333333
 21
313.726311587
 31
0.000000000
  0
LINE
  5
C12
330
A02
100
AcDbEntity
  8
SheetCutProfiles
100
AcDbLine
 10
59.125000000
 20
312.431718548
 30
0.000000000
 11
58.066666667
 21
313.069157898
 31
0.000000000
  0
LINE
  5
C13
330
A02
100
AcDbEntity
  8
SheetCutProfiles
100
AcDbLine
 10
60.183333333
 20
311.819833542
 30
0.000000000
 11
59.125000000
 21
312.431718548
 31
0.000000000
  0
LINE
  5
C14
330
A02
100
AcDbEntity
  8
SheetCutProfiles
100
AcDbLine
 10
61.241666667
 20
311.238383585
 30
0.000000000
 11
60.183333333
 21
311.819833542
 31
0.000000000
  0
LINE
  5
C15
330
A02
100
AcDbEntity
  8
SheetCutProfiles
100
AcDbLine
 10
62.300000000
 20
310.691230509
 30
0.000000000
 11
61.241666667
 21
311.238383585
 31
0.000000000
  0
LINE
  5
C16
330
A02
100
AcDbEntity
  8
SheetCutProfiles
100
AcDbLine
 10
63.358333333
 20
310.181177253
 30
0.000000000
 11
62.300000000
 21
310.691230509
 31
0.000000000
  0
LINE
  5
C17
330
A02
100
AcDbEntity
  8
SheetCutProfiles
100
AcDbLine
 10
64.416666667
 20
309.709947996
 30
0.000000000
 11
63.358333333
 21
310.181177253
 31
0.000000000
  0
LINE
  5
C18
330
A02
100
AcDbEntity
  8
SheetCutProfiles
100
AcDbLine
 10
65.475000000
 20
309.278188643
 30
0.000000000
 11
64.416666667
 21
309.709947996
 31
0.000000000
  0
LINE
  5
C19
330
A02
100
AcDbEntity
  8
SheetCutProfiles
100
AcDbLine
 10
66.533333333
 20
308.885487533
 30
0.000000000
 11
65.475000000
 21
309.278188643
 31
0.000000000
  0
LINE
  5
C1A
330
A02
100
AcDbEntity
  8
SheetCutProfiles
100
AcDbLine
 10
67.591666667
 20
308.530415880
 30
0.000000000
 11
66.533333333
 21
308.885487533
 31
0.000000000
  0
LINE
  5
C1B
330
A02
100
AcDbEntity
  8
SheetCutProfiles
100
AcDbLine
 10
68.650000000
 20
308.210587112
 30
0.000000000
 11
67.591666667
 21
308.530415880
 31
0.000000000
  0
LINE
  5
C1C
330
A02
100
AcDbEntity
  8
SheetCutProfiles
100
AcDbLine
 10
69.708333333
 20
307.922733939
 30
0.000000000
 11
68.650000000
 21
308.210587112
 31
0.000000000
  0
LINE
  5
C1D
330
A02
100
AcDbEntity
  8
SheetCutProfiles
100
AcDbLine
 10
70.766666667
 20
307.662801686
 30
0.000000000
 11
69.708333333
 21
307.922733939
 31
0.000000000
  0
LINE
  5
C1E
330
A02
100
AcDbEntity
  8
SheetCutProfiles
100
AcDbLine
 10
71.825000000
 20
307.426056116
 30
0.000000000
 11
70.766666667
 21
307.662801686
 31
0.000000000
  0
LINE
  5
C1F
330
A02
100
AcDbEntity
  8
SheetCutProfiles
100
AcDbLine
 10
72.883333333
 20
307.207203759
 30
0.000000000
 11
71.825000000
 21
307.426056116
 31
0.000000000
  0
LINE
  5
C20
330
A02
100
AcDbEntity
  8
SheetCutProfiles
100
AcDbLine
 10
73.941666667
 20
307.000522496
 30
0.000000000
 11
72.883333333
 21
307.207203759
 31
0.000000000
  0
LINE
  5
C21
330
A02
100
AcDbEntity
  8
SheetCutProfiles
100
AcDbLine
 10
75.000000000
 20
306.800000000
 30
0.000000000
 11
73.941666667
 21
307.000522496
 31
0.000000000
  0
LINE
  5
C22
330
A02
100
AcDbEntity
  8
SheetCutProfiles
100
AcDbLine
 10
75.693685587
 20
309.975000000
 30
0.000000000
 11
75.000000000
 21
306.800000000
 31
0.000000000
  0
LINE
  5
C23
330
A02
100
AcDbEntity
  8
SheetCutProfiles
100
AcDbLine
 10
76.102013635
 20
313.150000000
 30
0.000000000
 11
75.693685587
 21
309.975000000
 31
0.000000000
  0
LINE
  5
C24
330
A02
100
AcDbEntity
  8
SheetCutProfiles
100
AcDbLine
 10
76.283661143
 20
316.325000000
 30
0.000000000
 11
76.102013635
 21
313.150000000
 31
0.000000000
  0
LINE
  5
C25
330
A02
100
AcDbEntity
  8
SheetCutProfiles
100
AcDbLine
 10
76.326444444
 20
319.500000000
 30
0.000000000
 11
76.283661143
 21
316.325000000
 31
0.000000000
  0
LINE
  5
C26
330
A02
100
AcDbEntity
  8
SheetCutProfiles
100
AcDbLine
 10
76.333949968
 20
322.675000000
 30
0.000000000
 11
76.326444444
 21
319.500000000
 31
0.000000000
  0
LINE
  5
C27
330
A02
100
AcDbEntity
  8
SheetCutProfiles
100
AcDbLine
 10
76.409764143
 20
325.850000000
 30
0.000000000
 11
76.333949968
 21
322.675000000
 31
0.000000000
  0
LINE
  5
C28
330
A02
100
AcDbEntity
  8
SheetCutProfiles
100
AcDbLine
 10
76.641703302
 20
329.025000000
 30
0.000000000
 11
76.409764143
 21
325.850000000
 31
0.000000000
  0
LINE
  5
C29
330
A02
100
AcDbEntity
  8
SheetCutProfiles
100
AcDbLine
 10
77.088444444
 20
332.200000000
 30
0.000000000
 11
76.641703302
 21
329.025000000
 31
0.000000000
  0
LINE
  5
C2A
330
A02
100
AcDbEntity
  8
SheetCutProfiles
100
AcDbLine
 10
77.770592191
 20
335.375000000
 30
0.000000000
 11
77.088444444
 21
332.200000000
 31
0.000000000
  0
LINE
  5
C2B
330
A02
100
AcDbEntity
  8
SheetCutProfiles
100
AcDbLine
 10
78.667541921
 20
338.550000000
 30
0.000000000
 11
77.770592191
 21
335.375000000
 31
0.000000000
  0
LINE
  5
C2C
330
A02
100
AcDbEntity
  8
SheetCutProfiles
100
AcDbLine
 10
79.720616635
 20
341.725000000
 30
0.000000000
 11
78.667541921
 21
338.550000000
 31
0.000000000
  0
LINE
  5
C2D
330
A02
100
AcDbEntity
  8
SheetCutProfiles
100
AcDbLine
 10
80.842000000
 20
344.900000000
 30
0.000000000
 11
79.720616635
 21
341.725000000
 31
0.000000000
  0
LINE
  5
C2E
330
A02
100
AcDbEntity
  8
SheetCutProfiles
100
AcDbLine
 10
81.928105587
 20
348.075000000
 30
0.000000000
 11
80.842000000
 21
344.900000000
 31
0.000000000
  0
LINE
  5
C2F
330
A02
100
AcDbEntity
  8
SheetCutProfiles
100
AcDbLine
 10
82.875346968
 20
351.250000000
 30
0.000000000
 11
81.928105587
 21
348.075000000
 31
0.000000000
  0
LINE
  5
C30
330
A02
100
AcDbEntity
  8
SheetCutProfiles
100
AcDbLine
 10
83.595907809
 20
354.425000000
 30
0.000000000
 11
82.875346968
 21
351.250000000
 31
0.000000000
  0
LINE
  5
C31
330
A02
100
AcDbEntity
  8
SheetCutProfiles
100
AcDbLine
 10
84.031111111
 20
357.600000000
 30
0.000000000
 11
83.595907809
 21
354.425000000
 31
0.000000000
  0
LINE
  5
C32
330
A02
100
AcDbEntity
  8
SheetCutProfiles
100
AcDbLine
 10
84.160352253
 20
360.775000000
 30
0.000000000
 11
84.031111111
 21
357.600000000
 31
0.000000000
  0
LINE
  5
C33
330
A02
100
AcDbEntity
  8
SheetCutProfiles
100
AcDbLine
 10
84.004235857
 20
363.950000000
 30
0.000000000
 11
84.160352253
 21
360.775000000
 31
0.000000000
  0
LINE
  5
C34
330
A02
100
AcDbEntity
  8
SheetCutProfiles
100
AcDbLine
 10
83.621438921
 20
367.125000000
 30
0.000000000
 11
84.004235857
 21
363.950000000
 31
0.000000000
  0
LINE
  5
C35
330
A02
100
AcDbEntity
  8
SheetCutProfiles
100
AcDbLine
 10
83.099777778
 20
370.300000000
 30
0.000000000
 11
83.621438921
 21
367.125000000
 31
0.000000000
  0
LINE
  5
C36
330
A02
100
AcDbEntity
  8
SheetCutProfiles
100
AcDbLine
 10
82.542838857
 20
373.475000000
 30
0.000000000
 11
83.099777778
 21
370.300000000
 31
0.000000000
  0
LINE
  5
C37
330
A02
100
AcDbEntity
  8
SheetCutProfiles
100
AcDbLine
 10
82.054208587
 20
376.650000000
 30
0.000000000
 11
82.542838857
 21
373.475000000
 31
0.000000000
  0
LINE
  5
C38
330
A02
100
AcDbEntity
  8
SheetCutProfiles
100
AcDbLine
 10
81.721703302
 20
379.825000000
 30
0.000000000
 11
82.054208587
 21
376.650000000
 31
0.000000000
  0
LINE
  5
C39
330
A02
100
AcDbEntity
  8
SheetCutProfiles
100
AcDbLine
 10
81.604000000
 20
383.000000000
 30
0.000000000
 11
81.721703302
 21
379.825000000
 31
0.000000000
  0
LINE
  5
C3A
330
A02
100
AcDbEntity
  8
SheetCutProfiles
100
AcDbLine
 10
81.721703302
 20
386.175000000
 30
0.000000000
 11
81.604000000
 21
383.000000000
 31
0.000000000
  0
LINE
  5
C3B
330
A02
100
AcDbEntity
  8
SheetCutProfiles
100
AcDbLine
 10
82.054208587
 20
389.350000000
 30
0.000000000
 11
81.721703302
 21
386.175000000
 31
0.000000000
  0
LINE
  5
C3C
330
A02
100
AcDbEntity
  8
SheetCutProfiles
100
AcDbLine
 10
82.542838857
 20
392.525000000
 30
0.000000000
 11
82.054208587
 21
389.350000000
 31
0.000000000
  0
LINE
  5
C3D
330
A02
100
AcDbEntity
  8
SheetCutProfiles
100
AcDbLine
 10
83.099777778
 20
395.700000000
 30
0.000000000
 11
82.542838857
 21
392.525000000
 31
0.000000000
  0
LINE
  5
C3E
330
A02
100
AcDbEntity
  8
SheetCutProfiles
100
AcDbLine
 10
83.621438921
 20
398.875000000
 30
0.000000000
 11
83.099777778
 21
395.700000000
 31
0.000000000
  0
LINE
  5
C3F
330
A02
100
AcDbEntity
  8
SheetCutProfiles
100
AcDbLine
 10
84.004235857
 20
402.050000000
 30
0.000000000
 11
83.621438921
 21
398.875000000
 31
0.000000000
  0
LINE
  5
C40
330
A02
100
AcDbEntity
  8
SheetCutProfiles
100
AcDbLine
 10
84.160352253
 20
405.225000000
 30
0.000000000
 11
84.004235857
 21
402.050000000
 31
0.000000000
  0
LINE
  5
C41
330
A02
100
AcDbEntity
  8
SheetCutProfiles
100
AcDbLine
 10
84.031111111
 20
408.400000000
 30
0.000000000
 11
84.160352253
 21
405.225000000
 31
0.000000000
  0
LINE
  5
C42
330
A02
100
AcDbEntity
  8
SheetCutProfiles
100
AcDbLine
 10
83.595907809
 20
411.575000000
 30
0.000000000
 11
84.031111111
 21
408.400000000
 31
0.000000000
  0
LINE
  5
C43
330
A02
100
AcDbEntity
  8
SheetCutProfiles
100
AcDbLine
 10
82.875346968
 20
414.750000000
 30
0.000000000
 11
83.595907809
 21
411.575000000
 31
0.000000000
  0
LINE
  5
C44
330
A02
100
AcDbEntity
  8
SheetCutProfiles
100
AcDbLine
 10
81.928105587
 20
417.925000000
 30
0.000000000
 11
82.875346968
 21
414.750000000
 31
0.000000000
  0
LINE
  5
C45
330
A02
100
AcDbEntity
  8
SheetCutProfiles
100
AcDbLine
 10
80.842000000
 20
421.100000000
 30
0.000000000
 11
81.928105587
 21
417.925000000
 31
0.000000000
  0
LINE
  5
C46
330
A02
100
AcDbEntity
  8
SheetCutProfiles
100
AcDbLine
 10
79.720616635
 20
424.275000000
 30
0.000000000
 11
80.842000000
 21
421.100000000
 31
0.000000000
  0
LINE
  5
C47
330
A02
100
AcDbEntity
  8
SheetCutProfiles
100
AcDbLine
 10
78.667541921
 20
427.450000000
 30
0.000000000
 11
79.720616635
 21
424.275000000
 31
0.000000000
  0
LINE
  5
C48
330
A02
100
AcDbEntity
  8
SheetCutProfiles
100
AcDbLine
 10
77.770592191
 20
430.625000000
 30
0.000000000
 11
78.667541921
 21
427.450000000
 31
0.000000000
  0
LINE
  5
C49
330
A02
100
AcDbEntity
  8
SheetCutProfiles
100
AcDbLine
 10
77.088444444
 20
433.800000000
 30
0.000000000
 11
77.770592191
 21
430.625000000
 31
0.000000000
  0
LINE
  5
C4A
330
A02
100
AcDbEntity
  8
SheetCutProfiles
100
AcDbLine
 10
76.641703302
 20
436.975000000
 30
0.000000000
 11
77.088444444
 21
433.800000000
 31
0.000000000
  0
LINE
  5
C4B
330
A02
100
AcDbEntity
  8
SheetCutProfiles
100
AcDbLine
 10
76.409764143
 20
440.150000000
 30
0.000000000
 11
76.641703302
 21
436.975000000
 31
0.000000000
  0
LINE
  5
C4C
330
A02
100
AcDbEntity
  8
SheetCutProfiles
100
AcDbLine
 10
76.333949968
 20
443.325000000
 30
0.000000000
 11
76.409764143
 21
440.150000000
 31
0.000000000
  0
LINE
  5
C4D
330
A02
100
AcDbEntity
  8
SheetCutProfiles
100
AcDbLine
 10
76.326444444
 20
446.500000000
 30
0.000000000
 11
76.333949968
 21
443.325000000
 31
0.000000000
  0
LINE
  5
C4E
330
A02
100
AcDbEntity
  8
SheetCutProfiles
100
AcDbLine
 10
76.283661143
 20
449.675000000
 30
0.000000000
 11
76.326444444
 21
446.500000000
 31
0.000000000
  0
LINE
  5
C4F
330
A02
100
AcDbEntity
  8
SheetCutProfiles
100
AcDbLine
 10
76.102013635
 20
452.850000000
 30
0.000000000
 11
76.283661143
 21
449.675000000
 31
0.000000000
  0
LINE
  5
C50
330
A02
100
AcDbEntity
  8
SheetCutProfiles
100
AcDbLine
 10
75.693685587
 20
456.025000000
 30
0.000000000
 11
76.102013635
 21
452.850000000
 31
0.000000000
  0
LINE
  5
C51
330
A02
100
AcDbEntity
  8
SheetCutProfiles
100
AcDbLine
 10
75.000000000
 20
459.200000000
 30
0.000000000
 11
75.693685587
 21
456.025000000
 31
0.000000000
  0
LINE
  5
C52
330
A02
100
AcDbEntity
  8
SheetCutProfiles
100
AcDbLine
 10
73.941666667
 20
458.999477504
 30
0.000000000
 11
75.000000000
 21
459.200000000
 31
0.000000000
  0
LINE
  5
C53
330
A02
100
AcDbEntity
  8
SheetCutProfiles
100
AcDbLine
 10
72.883333333
 20
458.792796241
 30
0.000000000
 11
73.941666667
 21
458.999477504
 31
0.000000000
  0
LINE
  5
C54
330
A02
100
AcDbEntity
  8
SheetCutProfiles
100
AcDbLine
 10
71.825000000
 20
458.573943884
 30
0.000000000
 11
72.883333333
 21
458.792796241
 31
0.000000000
  0
LINE
  5
C55
330
A02
100
AcDbEntity
  8
SheetCutProfiles
100
AcDbLine
 10
70.766666667
 20
458.337198314
 30
0.000000000
 11
71.825000000
 21
458.573943884
 31
0.000000000
  0
LINE
  5
C56
330
A02
100
AcDbEntity
  8
SheetCutProfiles
100
AcDbLine
 10
69.708333333
 20
458.077266061
 30
0.000000000
 11
70.766666667
 21
458.337198314
 31
0.000000000
  0
LINE
  5
C57
330
A02
100
AcDbEntity
  8
SheetCutProfiles
100
AcDbLine
 10
68.650000000
 20
457.789412888
 30
0.000000000
 11
69.708333333
 21
458.077266061
 31
0.000000000
  0
LINE
  5
C58
330
A02
100
AcDbEntity
  8
SheetCutProfiles
100
AcDbLine
 10
67.591666667
 20
457.469584120
 30
0.000000000
 11
68.650000000
 21
457.789412888
 31
0.000000000
  0
LINE
  5
C59
330
A02
100
AcDbEntity
  8
SheetCutProfiles
100
AcDbLine
 10
66.533333333
 20
457.114512467
 30
0.000000000
 11
67.591666667
 21
457.469584120
 31
0.000000000
  0
LINE
  5
C5A
330
A02
100
AcDbEntity
  8
SheetCutProfiles
100
AcDbLine
 10
65.475000000
 20
456.721811357
 30
0.000000000
 11
66.533333333
 21
457.114512467
 31
0.000000000
  0
LINE
  5
C5B
330
A02
100
AcDbEntity
  8
SheetCutProfiles
100
AcDbLine
 10
64.416666667
 20
456.290052004
 30
0.000000000
 11
65.475000000
 21
456.721811357
 31
0.000000000
  0
LINE
  5
C5C
330
A02
100
AcDbEntity
  8
SheetCutProfiles
100
AcDbLine
 10
63.358333333
 20
455.818822747
 30
0.000000000
 11
64.416666667
 21
456.290052004
 31
0.000000000
  0
LINE
  5
C5D
330
A02
100
AcDbEntity
  8
SheetCutProfiles
100
AcDbLine
 10
62.300000000
 20
455.308769491
 30
0.000000000
 11
63.358333333
 21
455.818822747
 31
0.000000000
  0
LINE
  5
C5E
330
A02
100
AcDbEntity
  8
SheetCutProfiles
100
AcDbLine
 10
61.241666667
 20
454.761616415
 30
0.000000000
 11
62.300000000
 21
455.308769491
 31
0.000000000
  0
LINE
  5
C5F
330
A02
100
AcDbEntity
  8
SheetCutProfiles
100
AcDbLine
 10
60.183333333
 20
454.180166458
 30
0.000000000
 11
61.241666667
 21
454.761616415
 31
0.000000000
  0
LINE
  5
C60
330
A02
100
AcDbEntity
  8
SheetCutProfiles
100
AcDbLine
 10
59.125000000
 20
453.568281452
 30
0.000000000
 11
60.183333333
 21
454.180166458
 31
0.000000000
  0
LINE
  5
C61
330
A02
100
AcDbEntity
  8
SheetCutProfiles
100
AcDbLine
 10
58.066666667
 20
452.930842102
 30
0.000000000
 11
59.125000000
 21
453.568281452
 31
0.000000000
  0
LINE
  5
C62
330
A02
100
AcDbEntity
  8
SheetCutProfiles
100
AcDbLine
 10
57.008333333
 20
452.273688413
 30
0.000000000
 11
58.066666667
 21
452.930842102
 31
0.000000000
  0
LINE
  5
C63
330
A02
100
AcDbEntity
  8
SheetCutProfiles
100
AcDbLine
 10
55.950000000
 20
451.603541463
 30
0.000000000
 11
57.008333333
 21
452.273688413
 31
0.000000000
  0
LINE
  5
C64
330
A02
100
AcDbEntity
  8
SheetCutProfiles
100
AcDbLine
 10
54.891666667
 20
450.927907769
 30
0.000000000
 11
55.950000000
 21
451.603541463
 31
0.000000000
  0
LINE
  5
C65
330
A02
100
AcDbEntity
  8
SheetCutProfiles
100
AcDbLine
 10
53.833333333
 20
450.254967806
 30
0.000000000
 11
54.891666667
 21
450.927907769
 31
0.000000000
  0
LINE
  5
C66
330
A02
100
AcDbEntity
  8
SheetCutProfiles
100
AcDbLine
 10
52.775000000
 20
449.593450510
 30
0.000000000
 11
53.833333333
 21
450.254967806
 31
0.000000000
  0
LINE
  5
C67
330
A02
100
AcDbEntity
  8
SheetCutProfiles
100
AcDbLine
 10
51.716666667
 20
448.952495853
 30
0.000000000
 11
52.775000000
 21
449.593450510
 31
0.000000000
  0
LINE
  5
C68
330
A02
100
AcDbEntity
  8
SheetCutProfiles
100
AcDbLine
 10
50.658333333
 20
448.341507779
 30
0.000000000
 11
51.716666667
 21
448.952495853
 31
0.000000000
  0
LINE
  5
C69
330
A02
100
AcDbEntity
  8
SheetCutProfiles
100
AcDbLine
 10
49.600000000
 20
447.770000000
 30
0.000000000
 11
50.658333333
 21
448.341507779
 31
0.000000000
  0
LINE
  5
C6A
330
A02
100
AcDbEntity
  8
SheetCutProfiles
100
AcDbLine
 10
48.541666667
 20
447.247437236
 30
0.000000000
 11
49.600000000
 21
447.770000000
 31
0.000000000
  0
LINE
  5
C6B
330
A02
100
AcDbEntity
  8
SheetCutProfiles
100
AcDbLine
 10
47.483333333
 20
446.783074616
 30
0.000000000
 11
48.541666667
 21
447.247437236
 31
0.000000000
  0
LINE
  5
C6C
330
A02
100
AcDbEntity
  8
SheetCutProfiles
100
AcDbLine
 10
46.425000000
 20
446.385797980
 30
0.000000000
 11
47.483333333
 21
446.783074616
 31
0.000000000
  0
LINE
  5
C6D
330
A02
100
AcDbEntity
  8
SheetCutProfiles
100
AcDbLine
 10
45.366666667
 20
446.063967806
 30
0.000000000
 11
46.425000000
 21
446.385797980
 31
0.000000000
  0
LINE
  5
C6E
330
A02
100
AcDbEntity
  8
SheetCutProfiles
100
AcDbLine
 10
44.308333333
 20
445.825269471
 30
0.000000000
 11
45.366666667
 21
446.063967806
 31
0.000000000
  0
LINE
  5
C6F
330
A02
100
AcDbEntity
  8
SheetCutProfiles
100
AcDbLine
 10
43.250000000
 20
445.676572423
 30
0.000000000
 11
44.308333333
 21
445.825269471
 31
0.000000000
  0
LINE
  5
C70
330
A02
100
AcDbEntity
  8
SheetCutProfiles
100
AcDbLine
 10
42.191666667
 20
445.623800715
 30
0.000000000
 11
43.250000000
 21
445.676572423
 31
0.000000000
  0
LINE
  5
C71
330
A02
100
AcDbEntity
  8
SheetCutProfiles
100
AcDbLine
 10
41.133333333
 20
445.671817167
 30
0.000000000
 11
42.191666667
 21
445.623800715
 31
0.000000000
  0
LINE
  5
C72
330
A02
100
AcDbEntity
  8
SheetCutProfiles
100
AcDbLine
 10
40.075000000
 20
445.824323211
 30
0.000000000
 11
41.133333333
 21
445.671817167
 31
0.000000000
  0
LINE
  5
C73
330
A02
100
AcDbEntity
  8
SheetCutProfiles
100
AcDbLine
 10
39.016666667
 20
446.083776182
 30
0.000000000
 11
40.075000000
 21
445.824323211
 31
0.000000000
  0
LINE
  5
C74
330
A02
100
AcDbEntity
  8
SheetCutProfiles
100
AcDbLine
 10
37.958333333
 20
446.451325586
 30
0.000000000
 11
39.016666667
 21
446.083776182
 31
0.000000000
  0
LINE
  5
C75
330
A02
100
AcDbEntity
  8
SheetCutProfiles
100
AcDbLine
 10
36.900000000
 20
446.926769491
 30
0.000000000
 11
37.958333333
 21
446.451325586
 31
0.000000000
  0
LINE
  5
C76
330
A02
100
AcDbEntity
  8
SheetCutProfiles
100
AcDbLine
 10
35.841666667
 20
447.508531919
 30
0.000000000
 11
36.900000000
 21
446.926769491
 31
0.000000000
  0
LINE
  5
C77
330
A02
100
AcDbEntity
  8
SheetCutProfiles
100
AcDbLine
 10
34.783333333
 20
448.193661728
 30
0.000000000
 11
35.841666667
 21
447.508531919
 31
0.000000000
  0
LINE
  5
C78
330
A02
100
AcDbEntity
  8
SheetCutProfiles
100
AcDbLine
 10
33.725000000
 20
448.977853116
 30
0.000000000
 11
34.783333333
 21
448.193661728
 31
0.000000000
  0
LINE
  5
C79
330
A02
100
AcDbEntity
  8
SheetCutProfiles
100
AcDbLine
 10
32.666666667
 20
449.855487533
 30
0.000000000
 11
33.725000000
 21
448.977853116
 31
0.000000000
  0
LINE
  5
C7A
330
A02
100
AcDbEntity
  8
SheetCutProfiles
100
AcDbLine
 10
31.608333333
 20
450.819696422
 30
0.000000000
 11
32.666666667
 21
449.855487533
 31
0.000000000
  0
LINE
  5
C7B
330
A02
100
AcDbEntity
  8
SheetCutProfiles
100
AcDbLine
 10
30.550000000
 20
451.862443848
 30
0.000000000
 11
31.608333333
 21
450.819696422
 31
0.000000000
  0
LINE
  5
C7C
330
A02
100
AcDbEntity
  8
SheetCutProfiles
100
AcDbLine
 10
29.491666667
 20
452.974627763
 30
0.000000000
 11
30.550000000
 21
451.862443848
 31
0.000000000
  0
LINE
  5
C7D
330
A02
100
AcDbEntity
  8
SheetCutProfiles
100
AcDbLine
 10
28.433333333
 20
454.146198314
 30
0.000000000
 11
29.491666667
 21
452.974627763
 31
0.000000000
  0
LINE
  5
C7E
330
A02
100
AcDbEntity
  8
SheetCutProfiles
100
AcDbLine
 10
27.375000000
 20
455.366291354
 30
0.000000000
 11
28.433333333
 21
454.146198314
 31
0.000000000
  0
LINE
  5
C7F
330
A02
100
AcDbEntity
  8
SheetCutProfiles
100
AcDbLine
 10
26.316666667
 20
456.623375005
 30
0.000000000
 11
27.375000000
 21
455.366291354
 31
0.000000000
  0
LINE
  5
C80
330
A02
100
AcDbEntity
  8
SheetCutProfiles
100
AcDbLine
 10
25.288740214
 20
457.868573015
 30
0.000000000
 11
26.316666667
 21
456.623375005
 31
0.000000000
  0
LINE
  5
C81
330
A02
100
AcDbEntity
  8
SheetCutProfiles
100
AcDbLine
 10
25.288740214
 20
457.868573015
 30
0.000000000
 11
26.957359313
 21
472.450000000
 31
0.000000000
  0
LINE
  5
C82
330
A02
100
AcDbEntity
  8
SheetCutProfiles
100
AcDbLine
 10
26.957359313
 20
472.450000000
 30
0.000000000
 11
30.416842847
 21
487.358333333
 31
0.000000000
  0
LINE
  5
C83
330
A02
100
AcDbEntity
  8
SheetCutProfiles
100
AcDbLine
 10
30.416842847
 20
487.358333333
 30
0.000000000
 11
34.200000000
 21
502.266666667
 31
0.000000000
  0
LINE
  5
C84
330
A02
100
AcDbEntity
  8
SheetCutProfiles
100
AcDbLine
 10
34.200000000
 20
502.266666667
 30
0.000000000
 11
36.743277195
 21
517.175000000
 31
0.000000000
  0
LINE
  5
C85
330
A02
100
AcDbEntity
  8
SheetCutProfiles
100
AcDbLine
 10
36.743277195
 20
517.175000000
 30
0.000000000
 11
36.995554958
 21
532.083333333
 31
0.000000000
  0
LINE
  5
C86
330
A02
100
AcDbEntity
  8
SheetCutProfiles
100
AcDbLine
 10
36.995554958
 20
532.083333333
 30
0.000000000
 11
34.852568574
 21
546.991666667
 31
0.000000000
  0
LINE
  5
C87
330
A02
100
AcDbEntity
  8
SheetCutProfiles
100
AcDbLine
 10
27.547431426
 20
576.808333333
 30
0.000000000
 11
34.852568574
 21
546.991666667
 31
0.000000000
  0
LINE
  5
C88
330
A02
100
AcDbEntity
  8
SheetCutProfiles
100
AcDbLine
 10
27.547431426
 20
576.808333333
 30
0.000000000
 11
25.404445042
 21
591.716666667
 31
0.000000000
  0
LINE
  5
C89
330
A02
100
AcDbEntity
  8
SheetCutProfiles
100
AcDbLine
 10
25.404445042
 20
591.716666667
 30
0.000000000
 11
25.656722805
 21
606.625000000
 31
0.000000000
  0
LINE
  5
C8A
330
A02
100
AcDbEntity
  8
SheetCutProfiles
100
AcDbLine
 10
25.656722805
 20
606.625000000
 30
0.000000000
 11
28.200000000
 21
621.533333333
 31
0.000000000
  0
LINE
  5
C8B
330
A02
100
AcDbEntity
  8
SheetCutProfiles
100
AcDbLine
 10
28.200000000
 20
621.533333333
 30
0.000000000
 11
31.983157153
 21
636.441666667
 31
0.000000000
  0
LINE
  5
C8C
330
A02
100
AcDbEntity
  8
SheetCutProfiles
100
AcDbLine
 10
31.983157153
 20
636.441666667
 30
0.000000000
 11
35.442640687
 21
651.350000000
 31
0.000000000
  0
LINE
  5
C8D
330
A02
100
AcDbEntity
  8
SheetCutProfiles
100
AcDbLine
 10
35.442640687
 20
651.350000000
 30
0.000000000
 11
37.148669168
 21
666.258333333
 31
0.000000000
  0
LINE
  5
C8E
330
A02
100
AcDbEntity
  8
SheetCutProfiles
100
AcDbLine
 10
37.148669168
 20
666.258333333
 30
0.000000000
 11
36.396152423
 21
681.166666667
 31
0.000000000
  0
LINE
  5
C8F
330
A02
100
AcDbEntity
  8
SheetCutProfiles
100
AcDbLine
 10
36.396152423
 20
681.166666667
 30
0.000000000
 11
33.496100594
 21
696.075000000
 31
0.000000000
  0
LINE
  5
C90
330
A02
100
AcDbEntity
  8
SheetCutProfiles
100
AcDbLine
 10
33.496100594
 20
696.075000000
 30
0.000000000
 11
29.647085729
 21
710.983333333
 31
0.000000000
  0
LINE
  5
C91
330
A02
100
AcDbEntity
  8
SheetCutProfiles
100
AcDbLine
 10
29.647085729
 20
710.983333333
 30
0.000000000
 11
26.439879958
 21
725.891666667
 31
0.000000000
  0
LINE
  5
C92
330
A02
100
AcDbEntity
  8
SheetCutProfiles
100
AcDbLine
 10
26.439879958
 20
725.891666667
 30
0.000000000
 11
25.200000000
 21
740.800000000
 31
0.000000000
  0
LINE
  5
C93
330
A02
100
AcDbEntity
  8
SheetCutProfiles
100
AcDbLine
 10
25.200000000
 20
740.800000000
 30
0.000000000
 11
31.641666667
 21
740.301410938
 31
0.000000000
  0
LINE
  5
C94
330
A02
100
AcDbEntity
  8
SheetCutProfiles
100
AcDbLine
 10
31.641666667
 20
740.301410938
 30
0.000000000
 11
38.083333333
 21
738.881549417
 31
0.000000000
  0
LINE
  5
C95
330
A02
100
AcDbEntity
  8
SheetCutProfiles
100
AcDbLine
 10
38.083333333
 20
738.881549417
 30
0.000000000
 11
44.525000000
 21
736.756576482
 31
0.000000000
  0
LINE
  5
C96
330
A02
100
AcDbEntity
  8
SheetCutProfiles
100
AcDbLine
 10
57.408333333
 20
731.743423518
 30
0.000000000
 11
44.525000000
 21
736.756576482
 31
0.000000000
  0
LINE
  5
C97
330
A02
100
AcDbEntity
  8
SheetCutProfiles
100
AcDbLine
 10
57.408333333
 20
731.743423518
 30
0.000000000
 11
63.850000000
 21
729.618450583
 31
0.000000000
  0
LINE
  5
C98
330
A02
100
AcDbEntity
  8
SheetCutProfiles
100
AcDbLine
 10
63.850000000
 20
729.618450583
 30
0.000000000
 11
70.291666667
 21
728.198589062
 31
0.000000000
  0
LINE
  5
C99
330
A02
100
AcDbEntity
  8
SheetCutProfiles
100
AcDbLine
 10
70.291666667
 20
728.198589062
 30
0.000000000
 11
76.733333333
 21
727.700000000
 31
0.000000000
  0
LINE
  5
C9A
330
A02
100
AcDbEntity
  8
SheetCutProfiles
100
AcDbLine
 10
76.733333333
 20
727.700000000
 30
0.000000000
 11
83.175000000
 21
728.198589062
 31
0.000000000
  0
LINE
  5
C9B
330
A02
100
AcDbEntity
  8
SheetCutProfiles
100
AcDbLine
 10
83.175000000
 20
728.198589062
 30
0.000000000
 11
89.616666667
 21
729.618450583
 31
0.000000000
  0
LINE
  5
C9C
330
A02
100
AcDbEntity
  8
SheetCutProfiles
100
AcDbLine
 10
89.616666667
 20
729.618450583
 30
0.000000000
 11
96.058333333
 21
731.743423518
 31
0.000000000
  0
LINE
  5
C9D
330
A02
100
AcDbEntity
  8
SheetCutProfiles
100
AcDbLine
 10
108.941666667
 20
736.756576482
 30
0.000000000
 11
96.058333333
 21
731.743423518
 31
0.000000000
  0
LINE
  5
C9E
330
A02
100
AcDbEntity
  8
SheetCutProfiles
100
AcDbLine
 10
108.941666667
 20
736.756576482
 30
0.000000000
 11
115.383333333
 21
738.881549417
 31
0.000000000
  0
LINE
  5
C9F
330
A02
100
AcDbEntity
  8
SheetCutProfiles
100
AcDbLine
 10
115.383333333
 20
738.881549417
 30
0.000000000
 11
121.825000000
 21
740.301410938
 31
0.000000000
  0
LINE
  5
CA0
330
A02
100
AcDbEntity
  8
SheetCutProfiles
100
AcDbLine
 10
121.825000000
 20
740.301410938
 30
0.000000000
 11
128.266666667
 21
740.800000000
 31
0.000000000
  0
LINE
  5
CA1
330
A02
100
AcDbEntity
  8
SheetCutProfiles
100
AcDbLine
 10
128.266666667
 20
740.800000000
 30
0.000000000
 11
134.708333333
 21
740.301410938
 31
0.000000000
  0
LINE
  5
CA2
330
A02
100
AcDbEntity
  8
SheetCutProfiles
100
AcDbLine
 10
134.708333333
 20
740.301410938
 30
0.000000000
 11
141.150000000
 21
738.881549417
 31
0.000000000
  0
LINE
  5
CA3
330
A02
100
AcDbEntity
  8
SheetCutProfiles
100
AcDbLine
 10
141.150000000
 20
738.881549417
 30
0.000000000
 11
147.591666667
 21
736.756576482
 31
0.000000000
  0
LINE
  5
CA4
330
A02
100
AcDbEntity
  8
SheetCutProfiles
100
AcDbLine
 10
147.591666667
 20
736.756576482
 30
0.000000000
 11
154.033333333
 21
734.250000000
 31
0.000000000
  0
LINE
  5
CA5
330
A02
100
AcDbEntity
  8
SheetCutProfiles
100
AcDbLine
 10
154.033333333
 20
734.250000000
 30
0.000000000
 11
160.475000000
 21
738.335502498
 31
0.000000000
  0
LINE
  5
CA6
330
A02
100
AcDbEntity
  8
SheetCutProfiles
100
AcDbLine
 10
160.475000000
 20
738.335502498
 30
0.000000000
 11
166.916666667
 21
740.797669885
 31
0.000000000
  0
LINE
  5
CA7
330
A02
100
AcDbEntity
  8
SheetCutProfiles
100
AcDbLine
 10
166.916666667
 20
740.797669885
 30
0.000000000
 11
173.358333333
 21
740.800000000
 31
0.000000000
  0
LINE
  5
CA8
330
A02
100
AcDbEntity
  8
SheetCutProfiles
100
AcDbLine
 10
186.241666667
 20
740.800000000
 30
0.000000000
 11
173.358333333
 21
740.800000000
 31
0.000000000
  0
LINE
  5
CA9
330
A02
100
AcDbEntity
  8
SheetCutProfiles
100
AcDbLine
 10
186.241666667
 20
740.800000000
 30
0.000000000
 11
192.683333333
 21
740.797669885
 31
0.000000000
  0
LINE
  5
CAA
330
A02
100
AcDbEntity
  8
SheetCutProfiles
100
AcDbLine
 10
192.683333333
 20
740.797669885
 30
0.000000000
 11
199.125000000
 21
738.335502498
 31
0.000000000
  0
LINE
  5
CAB
330
A02
100
AcDbEntity
  8
SheetCutProfiles
100
AcDbLine
 10
199.125000000
 20
738.335502498
 30
0.000000000
 11
205.566666667
 21
734.250000000
 31
0.000000000
  0
LINE
  5
CAC
330
A02
100
AcDbEntity
  8
SheetCutProfiles
100
AcDbLine
 10
205.566666667
 20
734.250000000
 30
0.000000000
 11
212.008333333
 21
736.756576482
 31
0.000000000
  0
LINE
  5
CAD
330
A02
100
AcDbEntity
  8
SheetCutProfiles
100
AcDbLine
 10
212.008333333
 20
736.756576482
 30
0.000000000
 11
218.450000000
 21
738.881549417
 31
0.000000000
  0
LINE
  5
CAE
330
A02
100
AcDbEntity
  8
SheetCutProfiles
100
AcDbLine
 10
218.450000000
 20
738.881549417
 30
0.000000000
 11
224.891666667
 21
740.301410938
 31
0.000000000
  0
LINE
  5
CAF
330
A02
100
AcDbEntity
  8
SheetCutProfiles
100
AcDbLine
 10
224.891666667
 20
740.301410938
 30
0.000000000
 11
231.333333333
 21
740.800000000
 31
0.000000000
  0
LINE
  5
CB0
330
A02
100
AcDbEntity
  8
SheetCutProfiles
100
AcDbLine
 10
231.333333333
 20
740.800000000
 30
0.000000000
 11
237.775000000
 21
740.301410938
 31
0.000000000
  0
LINE
  5
CB1
330
A02
100
AcDbEntity
  8
SheetCutProfiles
100
AcDbLine
 10
237.775000000
 20
740.301410938
 30
0.000000000
 11
244.216666667
 21
738.881549417
 31
0.000000000
  0
LINE
  5
CB2
330
A02
100
AcDbEntity
  8
SheetCutProfiles
100
AcDbLine
 10
244.216666667
 20
738.881549417
 30
0.000000000
 11
250.658333333
 21
736.756576482
 31
0.000000000
  0
LINE
  5
CB3
330
A02
100
AcDbEntity
  8
SheetCutProfiles
100
AcDbLine
 10
263.541666667
 20
731.743423518
 30
0.000000000
 11
250.658333333
 21
736.756576482
 31
0.000000000
  0
LINE
  5
CB4
330
A02
100
AcDbEntity
  8
SheetCutProfiles
100
AcDbLine
 10
263.541666667
 20
731.743423518
 30
0.000000000
 11
269.983333333
 21
729.618450583
 31
0.000000000
  0
LINE
  5
CB5
330
A02
100
AcDbEntity
  8
SheetCutProfiles
100
AcDbLine
 10
269.983333333
 20
729.618450583
 30
0.000000000
 11
276.425000000
 21
728.198589062
 31
0.000000000
  0
LINE
  5
CB6
330
A02
100
AcDbEntity
  8
SheetCutProfiles
100
AcDbLine
 10
276.425000000
 20
728.198589062
 30
0.000000000
 11
282.866666667
 21
727.700000000
 31
0.000000000
  0
LINE
  5
CB7
330
A02
100
AcDbEntity
  8
SheetCutProfiles
100
AcDbLine
 10
282.866666667
 20
727.700000000
 30
0.000000000
 11
289.308333333
 21
728.198589062
 31
0.000000000
  0
LINE
  5
CB8
330
A02
100
AcDbEntity
  8
SheetCutProfiles
100
AcDbLine
 10
289.308333333
 20
728.198589062
 30
0.000000000
 11
295.750000000
 21
729.618450583
 31
0.000000000
  0
LINE
  5
CB9
330
A02
100
AcDbEntity
  8
SheetCutProfiles
100
AcDbLine
 10
295.750000000
 20
729.618450583
 30
0.000000000
 11
302.191666667
 21
731.743423518
 31
0.000000000
  0
LINE
  5
CBA
330
A02
100
AcDbEntity
  8
SheetCutProfiles
100
AcDbLine
 10
315.075000000
 20
736.756576482
 30
0.000000000
 11
302.191666667
 21
731.743423518
 31
0.000000000
  0
LINE
  5
CBB
330
A02
100
AcDbEntity
  8
SheetCutProfiles
100
AcDbLine
 10
315.075000000
 20
736.756576482
 30
0.000000000
 11
321.516666667
 21
738.881549417
 31
0.000000000
  0
LINE
  5
CBC
330
A02
100
AcDbEntity
  8
SheetCutProfiles
100
AcDbLine
 10
289.062500000
 20
49.900000000
 30
0.000000000
 11
311.287500000
 21
49.900000000
 31
0.000000000
  0
LINE
  5
CBD
330
A02
100
AcDbEntity
  8
SheetCutProfiles
100
AcDbLine
 10
289.062500000
 20
38.300000000
 30
0.000000000
 11
289.062500000
 21
49.900000000
 31
0.000000000
  0
LINE
  5
CBE
330
A02
100
AcDbEntity
  8
SheetCutProfiles
100
AcDbLine
 10
311.287500000
 20
38.300000000
 30
0.000000000
 11
289.062500000
 21
38.300000000
 31
0.000000000
  0
LINE
  5
CBF
330
A02
100
AcDbEntity
  8
SheetCutProfiles
100
AcDbLine
 10
311.287500000
 20
49.900000000
 30
0.000000000
 11
311.287500000
 21
38.300000000
 31
0.000000000
  0
LINE
  5
CC0
330
A02
100
AcDbEntity
  8
SheetCutProfiles
100
AcDbLine
 10
303.900000000
 20
174.812500000
 30
0.000000000
 11
309.700000000
 21
174.812500000
 31
0.000000000
  0
LINE
  5
CC1
330
A02
100
AcDbEntity
  8
SheetCutProfiles
100
AcDbLine
 10
303.900000000
 20
91.537500000
 30
0.000000000
 11
303.900000000
 21
174.812500000
 31
0.000000000
  0
LINE
  5
CC2
330
A02
100
AcDbEntity
  8
SheetCutProfiles
100
AcDbLine
 10
309.700000000
 20
91.537500000
 30
0.000000000
 11
303.900000000
 21
91.537500000
 31
0.000000000
  0
LINE
  5
CC3
330
A02
100
AcDbEntity
  8
SheetCutProfiles
100
AcDbLine
 10
309.700000000
 20
174.812500000
 30
0.000000000
 11
309.700000000
 21
91.537500000
 31
0.000000000
  0
LINE
  5
CC4
330
A02
100
AcDbEntity
  8
SheetCutProfiles
100
AcDbLine
 10
244.612500000
 20
49.900000000
 30
0.000000000
 11
266.837500000
 21
49.900000000
 31
0.000000000
  0
LINE
  5
CC5
330
A02
100
AcDbEntity
  8
SheetCutProfiles
100
AcDbLine
 10
244.612500000
 20
38.300000000
 30
0.000000000
 11
244.612500000
 21
49.900000000
 31
0.000000000
  0
LINE
  5
CC6
330
A02
100
AcDbEntity
  8
SheetCutProfiles
100
AcDbLine
 10
266.837500000
 20
38.300000000
 30
0.000000000
 11
244.612500000
 21
38.300000000
 31
0.000000000
  0
LINE
  5
CC7
330
A02
100
AcDbEntity
  8
SheetCutProfiles
100
AcDbLine
 10
266.837500000
 20
49.900000000
 30
0.000000000
 11
266.837500000
 21
38.300000000
 31
0.000000000
  0
LINE
  5
CC8
330
A02
100
AcDbEntity
  8
SheetCutProfiles
100
AcDbLine
 10
200.162500000
 20
49.900000000
 30
0.000000000
 11
222.387500000
 21
49.900000000
 31
0.000000000
  0
LINE
  5
CC9
330
A02
100
AcDbEntity
  8
SheetCutProfiles
100
AcDbLine
 10
200.162500000
 20
38.300000000
 30
0.000000000
 11
200.162500000
 21
49.900000000
 31
0.000000000
  0
LINE
  5
CCA
330
A02
100
AcDbEntity
  8
SheetCutProfiles
100
AcDbLine
 10
222.387500000
 20
38.300000000
 30
0.000000000
 11
200.162500000
 21
38.300000000
 31
0.000000000
  0
LINE
  5
CCB
330
A02
100
AcDbEntity
  8
SheetCutProfiles
100
AcDbLine
 10
222.387500000
 20
49.900000000
 30
0.000000000
 11
222.387500000
 21
38.300000000
 31
0.000000000
  0
CIRCLE
  5
CCC
330
A02
100
AcDbEntity
  8
SheetCutProfiles
100
AcDbCircle
 10
179.800000000
 20
136.733333333
 30
0.000000000
 40
3.000000000
  0
LINE
  5
CCD
330
A02
100
AcDbEntity
  8
SheetCutProfiles
100
AcDbLine
 10
303.900000000
 20
341.362500000
 30
0.000000000
 11
309.700000000
 21
341.362500000
 31
0.000000000
  0
LINE
  5
CCE
330
A02
100
AcDbEntity
  8
SheetCutProfiles
100
AcDbLine
 10
303.900000000
 20
258.087500000
 30
0.000000000
 11
303.900000000
 21
341.362500000
 31
0.000000000
  0
LINE
  5
CCF
330
A02
100
AcDbEntity
  8
SheetCutProfiles
100
AcDbLine
 10
309.700000000
 20
258.087500000
 30
0.000000000
 11
303.900000000
 21
258.087500000
 31
0.000000000
  0
LINE
  5
CD0
330
A02
100
AcDbEntity
  8
SheetCutProfiles
100
AcDbLine
 10
309.700000000
 20
341.362500000
 30
0.000000000
 11
309.700000000
 21
258.087500000
 31
0.000000000
  0
LINE
  5
CD1
330
A02
100
AcDbEntity
  8
SheetCutProfiles
100
AcDbLine
 10
155.712500000
 20
49.900000000
 30
0.000000000
 11
177.937500000
 21
49.900000000
 31
0.000000000
  0
LINE
  5
CD2
330
A02
100
AcDbEntity
  8
SheetCutProfiles
100
AcDbLine
 10
155.712500000
 20
38.300000000
 30
0.000000000
 11
155.712500000
 21
49.900000000
 31
0.000000000
  0
LINE
  5
CD3
330
A02
100
AcDbEntity
  8
SheetCutProfiles
100
AcDbLine
 10
177.937500000
 20
38.300000000
 30
0.000000000
 11
155.712500000
 21
38.300000000
 31
0.000000000
  0
LINE
  5
CD4
330
A02
100
AcDbEntity
  8
SheetCutProfiles
100
AcDbLine
 10
177.937500000
 20
49.900000000
 30
0.000000000
 11
177.937500000
 21
38.300000000
 31
0.000000000
  0
LINE
  5
CD5
330
A02
100
AcDbEntity
  8
SheetCutProfiles
100
AcDbLine
 10
303.900000000
 20
507.912500000
 30
0.000000000
 11
309.700000000
 21
507.912500000
 31
0.000000000
  0
LINE
  5
CD6
330
A02
100
AcDbEntity
  8
SheetCutProfiles
100
AcDbLine
 10
303.900000000
 20
424.637500000
 30
0.000000000
 11
303.900000000
 21
507.912500000
 31
0.000000000
  0
LINE
  5
CD7
330
A02
100
AcDbEntity
  8
SheetCutProfiles
100
AcDbLine
 10
309.700000000
 20
424.637500000
 30
0.000000000
 11
303.900000000
 21
424.637500000
 31
0.000000000
  0
LINE
  5
CD8
330
A02
100
AcDbEntity
  8
SheetCutProfiles
100
AcDbLine
 10
309.700000000
 20
507.912500000
 30
0.000000000
 11
309.700000000
 21
424.637500000
 31
0.000000000
  0
LINE
  5
CD9
330
A02
100
AcDbEntity
  8
SheetCutProfiles
100
AcDbLine
 10
303.900000000
 20
674.462500000
 30
0.000000000
 11
309.700000000
 21
674.462500000
 31
0.000000000
  0
LINE
  5
CDA
330
A02
100
AcDbEntity
  8
SheetCutProfiles
100
AcDbLine
 10
303.900000000
 20
591.187500000
 30
0.000000000
 11
303.900000000
 21
674.462500000
 31
0.000000000
  0
LINE
  5
CDB
330
A02
100
AcDbEntity
  8
SheetCutProfiles
100
AcDbLine
 10
309.700000000
 20
591.187500000
 30
0.000000000
 11
303.900000000
 21
591.187500000
 31
0.000000000
  0
LINE
  5
CDC
330
A02
100
AcDbEntity
  8
SheetCutProfiles
100
AcDbLine
 10
309.700000000
 20
674.462500000
 30
0.000000000
 11
309.700000000
 21
591.187500000
 31
0.000000000
  0
LINE
  5
CDD
330
A02
100
AcDbEntity
  8
SheetCutProfiles
100
AcDbLine
 10
289.062500000
 20
727.700000000
 30
0.000000000
 11
311.287500000
 21
727.700000000
 31
0.000000000
  0
LINE
  5
CDE
330
A02
100
AcDbEntity
  8
SheetCutProfiles
100
AcDbLine
 10
289.062500000
 20
716.100000000
 30
0.000000000
 11
289.062500000
 21
727.700000000
 31
0.000000000
  0
LINE
  5
CDF
330
A02
100
AcDbEntity
  8
SheetCutProfiles
100
AcDbLine
 10
311.287500000
 20
716.100000000
 30
0.000000000
 11
289.062500000
 21
716.100000000
 31
0.000000000
  0
LINE
  5
CE0
330
A02
100
AcDbEntity
  8
SheetCutProfiles
100
AcDbLine
 10
311.287500000
 20
727.700000000
 30
0.000000000
 11
311.287500000
 21
716.100000000
 31
0.000000000
  0
CIRCLE
  5
CE1
330
A02
100
AcDbEntity
  8
SheetCutProfiles
100
AcDbCircle
 10
179.800000000
 20
629.266666667
 30
0.000000000
 40
3.000000000
  0
LINE
  5
CE2
330
A02
100
AcDbEntity
  8
SheetCutProfiles
100
AcDbLine
 10
244.612500000
 20
727.700000000
 30
0.000000000
 11
266.837500000
 21
727.700000000
 31
0.000000000
  0
LINE
  5
CE3
330
A02
100
AcDbEntity
  8
SheetCutProfiles
100
AcDbLine
 10
244.612500000
 20
716.100000000
 30
0.000000000
 11
244.612500000
 21
727.700000000
 31
0.000000000
  0
LINE
  5
CE4
330
A02
100
AcDbEntity
  8
SheetCutProfiles
100
AcDbLine
 10
266.837500000
 20
716.100000000
 30
0.000000000
 11
244.612500000
 21
716.100000000
 31
0.000000000
  0
LINE
  5
CE5
330
A02
100
AcDbEntity
  8
SheetCutProfiles
100
AcDbLine
 10
266.837500000
 20
727.700000000
 30
0.000000000
 11
266.837500000
 21
716.100000000
 31
0.000000000
  0
LINE
  5
CE6
330
A02
100
AcDbEntity
  8
SheetCutProfiles
100
AcDbLine
 10
200.162500000
 20
727.700000000
 30
0.000000000
 11
222.387500000
 21
727.700000000
 31
0.000000000
  0
LINE
  5
CE7
330
A02
100
AcDbEntity
  8
SheetCutProfiles
100
AcDbLine
 10
200.162500000
 20
716.100000000
 30
0.000000000
 11
200.162500000
 21
727.700000000
 31
0.000000000
  0
LINE
  5
CE8
330
A02
100
AcDbEntity
  8
SheetCutProfiles
100
AcDbLine
 10
222.387500000
 20
716.100000000
 30
0.000000000
 11
200.162500000
 21
716.100000000
 31
0.000000000
  0
LINE
  5
CE9
330
A02
100
AcDbEntity
  8
SheetCutProfiles
100
AcDbLine
 10
222.387500000
 20
727.700000000
 30
0.000000000
 11
222.387500000
 21
716.100000000
 31
0.000000000
  0
LINE
  5
CEA
330
A02
100
AcDbEntity
  8
SheetCutProfiles
100
AcDbLine
 10
155.712500000
 20
727.700000000
 30
0.000000000
 11
177.937500000
 21
727.700000000
 31
0.000000000
  0
LINE
  5
CEB
330
A02
100
AcDbEntity
  8
SheetCutProfiles
100
AcDbLine
 10
155.712500000
 20
716.100000000
 30
0.000000000
 11
155.712500000
 21
727.700000000
 31
0.000000000
  0
LINE
  5
CEC
330
A02
100
AcDbEntity
  8
SheetCutProfiles
100
AcDbLine
 10
177.937500000
 20
716.100000000
 30
0.000000000
 11
155.712500000
 21
716.100000000
 31
0.000000000
  0
LINE
  5
CED
330
A02
100
AcDbEntity
  8
SheetCutProfiles
100
AcDbLine
 10
177.937500000
 20
727.700000000
 30
0.000000000
 11
177.937500000
 21
716.100000000
 31
0.000000000
  0
LINE
  5
CEE
330
A02
100
AcDbEntity
  8
SheetCutProfiles
100
AcDbLine
 10
832.700000000
 20
2.000000000
 30
0.000000000
 11
832.700000000
 21
13.600000000
 31
0.000000000
  0
ARC
  5
CEF
330
A02
100
AcDbEntity
  8
SheetCutProfiles
100
AcDbCircle
 10
834.700000000
 20
2.000000000
 30
0.000000000
 40
2.000000000
100
AcDbArc
 50
180.000000000
 51
-90.000000000
  0
LINE
  5
CF0
330
A02
100
AcDbEntity
  8
SheetCutProfiles
100
AcDbLine
 10
834.700000000
 20
0.000000000
 30
0.000000000
 11
861.000000000
 21
0.000000000
 31
0.000000000
  0
ARC
  5
CF1
330
A02
100
AcDbEntity
  8
SheetCutProfiles
100
AcDbCircle
 10
861.000000000
 20
2.000000000
 30
0.000000000
 40
2.000000000
100
AcDbArc
 50
-90.000000000
 51
0.000000000
  0
LINE
  5
CF2
330
A02
100
AcDbEntity
  8
SheetCutProfiles
100
AcDbLine
 10
863.000000000
 20
2.000000000
 30
0.000000000
 11
874.600000000
 21
2.000000000
 31
0.000000000
  0
ARC
  5
CF3
330
A02
100
AcDbEntity
  8
SheetCutProfiles
100
AcDbCircle
 10
874.600000000
 20
4.000000000
 30
0.000000000
 40
2.000000000
100
AcDbArc
 50
-90.000000000
 51
0.000000000
  0
LINE
  5
CF4
330
A02
100
AcDbEntity
  8
SheetCutProfiles
100
AcDbLine
 10
876.600000000
 20
4.000000000
 30
0.000000000
 11
876.600000000
 21
31.025000000
 31
0.000000000
  0
ARC
  5
CF5
330
A02
100
AcDbEntity
  8
SheetCutProfiles
100
AcDbCircle
 10
874.600000000
 20
31.025000000
 30
0.000000000
 40
2.000000000
100
AcDbArc
 50
0.000000000
 51
90.000000000
  0
LINE
  5
CF6
330
A02
100
AcDbEntity
  8
SheetCutProfiles
100
AcDbLine
 10
863.000000000
 20
33.025000000
 30
0.000000000
 11
874.600000000
 21
33.025000000
 31
0.000000000
  0
LINE
  5
CF7
330
A02
100
AcDbEntity
  8
SheetCutProfiles
100
AcDbLine
 10
863.000000000
 20
95.075000000
 30
0.000000000
 11
863.000000000
 21
33.025000000
 31
0.000000000
  0
LINE
  5
CF8
330
A02
100
AcDbEntity
  8
SheetCutProfiles
100
AcDbLine
 10
874.600000000
 20
95.075000000
 30
0.000000000
 11
863.000000000
 21
95.075000000
 31
0.000000000
  0
ARC
  5
CF9
330
A02
100
AcDbEntity
  8
SheetCutProfiles
100
AcDbCircle
 10
874.600000000
 20
97.075000000
 30
0.000000000
 40
2.000000000
100
AcDbArc
 50
-90.000000000
 51
0.000000000
  0
LINE
  5
CFA
330
A02
100
AcDbEntity
  8
SheetCutProfiles
100
AcDbLine
 10
876.600000000
 20
97.075000000
 30
0.000000000
 11
876.600000000
 21
155.125000000
 31
0.000000000
  0
ARC
  5
CFB
330
A02
100
AcDbEntity
  8
SheetCutProfiles
100
AcDbCircle
 10
874.600000000
 20
155.125000000
 30
0.000000000
 40
2.000000000
100
AcDbArc
 50
0.000000000
 51
90.000000000
  0
LINE
  5
CFC
330
A02
100
AcDbEntity
  8
SheetCutProfiles
100
AcDbLine
 10
863.000000000
 20
157.125000000
 30
0.000000000
 11
874.600000000
 21
157.125000000
 31
0.000000000
  0
LINE
  5
CFD
330
A02
100
AcDbEntity
  8
SheetCutProfiles
100
AcDbLine
 10
863.000000000
 20
219.175000000
 30
0.000000000
 11
863.000000000
 21
157.125000000
 31
0.000000000
  0
LINE
  5
CFE
330
A02
100
AcDbEntity
  8
SheetCutProfiles
100
AcDbLine
 10
874.600000000
 20
219.175000000
 30
0.000000000
 11
863.000000000
 21
219.175000000
 31
0.000000000
  0
ARC
  5
CFF
330
A02
100
AcDbEntity
  8
SheetCutProfiles
100
AcDbCircle
 10
874.600000000
 20
221.175000000
 30
0.000000000
 40
2.000000000
100
AcDbArc
 50
-90.000000000
 51
0.000000000
  0
LINE
  5
D00
330
A02
100
AcDbEntity
  8
SheetCutProfiles
100
AcDbLine
 10
876.600000000
 20
221.175000000
 30
0.000000000
 11
876.600000000
 21
279.225000000
 31
0.000000000
  0
ARC
  5
D01
330
A02
100
AcDbEntity
  8
SheetCutProfiles
100
AcDbCircle
 10
874.600000000
 20
279.225000000
 30
0.000000000
 40
2.000000000
100
AcDbArc
 50
0.000000000
 51
90.000000000
  0
LINE
  5
D02
330
A02
100
AcDbEntity
  8
SheetCutProfiles
100
AcDbLine
 10
863.000000000
 20
281.225000000
 30
0.000000000
 11
874.600000000
 21
281.225000000
 31
0.000000000
  0
LINE
  5
D03
330
A02
100
AcDbEntity
  8
SheetCutProfiles
100
AcDbLine
 10
863.000000000
 20
343.275000000
 30
0.000000000
 11
863.000000000
 21
281.225000000
 31
0.000000000
  0
LINE
  5
D04
330
A02
100
AcDbEntity
  8
SheetCutProfiles
100
AcDbLine
 10
874.600000000
 20
343.275000000
 30
0.000000000
 11
863.000000000
 21
343.275000000
 31
0.000000000
  0
ARC
  5
D05
330
A02
100
AcDbEntity
  8
SheetCutProfiles
100
AcDbCircle
 10
874.600000000
 20
345.275000000
 30
0.000000000
 40
2.000000000
100
AcDbArc
 50
-90.000000000
 51
0.000000000
  0
LINE
  5
D06
330
A02
100
AcDbEntity
  8
SheetCutProfiles
100
AcDbLine
 10
876.600000000
 20
345.275000000
 30
0.000000000
 11
876.600000000
 21
403.325000000
 31
0.000000000
  0
ARC
  5
D07
330
A02
100
AcDbEntity
  8
SheetCutProfiles
100
AcDbCircle
 10
874.600000000
 20
403.325000000
 30
0.000000000
 40
2.000000000
100
AcDbArc
 50
0.000000000
 51
90.000000000
  0
LINE
  5
D08
330
A02
100
AcDbEntity
  8
SheetCutProfiles
100
AcDbLine
 10
863.000000000
 20
405.325000000
 30
0.000000000
 11
874.600000000
 21
405.325000000
 31
0.000000000
  0
LINE
  5
D09
330
A02
100
AcDbEntity
  8
SheetCutProfiles
100
AcDbLine
 10
863.000000000
 20
467.375000000
 30
0.000000000
 11
863.000000000
 21
405.325000000
 31
0.000000000
  0
LINE
  5
D0A
330
A02
100
AcDbEntity
  8
SheetCutProfiles
100
AcDbLine
 10
874.600000000
 20
467.375000000
 30
0.000000000
 11
863.000000000
 21
467.375000000
 31
0.000000000
  0
ARC
  5
D0B
330
A02
100
AcDbEntity
  8
SheetCutProfiles
100
AcDbCircle
 10
874.600000000
 20
469.375000000
 30
0.000000000
 40
2.000000000
100
AcDbArc
 50
-90.000000000
 51
0.000000000
  0
LINE
  5
D0C
330
A02
100
AcDbEntity
  8
SheetCutProfiles
100
AcDbLine
 10
876.600000000
 20
469.375000000
 30
0.000000000
 11
876.600000000
 21
496.400000000
 31
0.000000000
  0
ARC
  5
D0D
330
A02
100
AcDbEntity
  8
SheetCutProfiles
100
AcDbCircle
 10
874.600000000
 20
496.400000000
 30
0.000000000
 40
2.000000000
100
AcDbArc
 50
0.000000000
 51
90.000000000
  0
LINE
  5
D0E
330
A02
100
AcDbEntity
  8
SheetCutProfiles
100
AcDbLine
 10
874.600000000
 20
510.000000000
 30
0.000000000
 11
874.600000000
 21
498.400000000
 31
0.000000000
  0
ARC
  5
D0F
330
A02
100
AcDbEntity
  8
SheetCutProfiles
100
AcDbCircle
 10
872.600000000
 20
510.000000000
 30
0.000000000
 40
2.000000000
100
AcDbArc
 50
0.000000000
 51
90.000000000
  0
LINE
  5
D10
330
A02
100
AcDbEntity
  8
SheetCutProfiles
100
AcDbLine
 10
872.600000000
 20
512.000000000
 30
0.000000000
 11
844.850000000
 21
512.000000000
 31
0.000000000
  0
ARC
  5
D11
330
A02
100
AcDbEntity
  8
SheetCutProfiles
100
AcDbCircle
 10
844.850000000
 20
510.000000000
 30
0.000000000
 40
2.000000000
100
AcDbArc
 50
90.000000000
 51
180.000000000
  0
LINE
  5
D12
330
A02
100
AcDbEntity
  8
SheetCutProfiles
100
AcDbLine
 10
842.850000000
 20
498.400000000
 30
0.000000000
 11
842.850000000
 21
510.000000000
 31
0.000000000
  0
LINE
  5
D13
330
A02
100
AcDbEntity
  8
SheetCutProfiles
100
AcDbLine
 10
779.350000000
 20
498.400000000
 30
0.000000000
 11
842.850000000
 21
498.400000000
 31
0.000000000
  0
LINE
  5
D14
330
A02
100
AcDbEntity
  8
SheetCutProfiles
100
AcDbLine
 10
779.350000000
 20
510.000000000
 30
0.000000000
 11
779.350000000
 21
498.400000000
 31
0.000000000
  0
ARC
  5
D15
330
A02
100
AcDbEntity
  8
SheetCutProfiles
100
AcDbCircle
 10
777.350000000
 20
510.000000000
 30
0.000000000
 40
2.000000000
100
AcDbArc
 50
0.000000000
 51
90.000000000
  0
LINE
  5
D16
330
A02
100
AcDbEntity
  8
SheetCutProfiles
100
AcDbLine
 10
777.350000000
 20
512.000000000
 30
0.000000000
 11
717.850000000
 21
512.000000000
 31
0.000000000
  0
ARC
  5
D17
330
A02
100
AcDbEntity
  8
SheetCutProfiles
100
AcDbCircle
 10
717.850000000
 20
510.000000000
 30
0.000000000
 40
2.000000000
100
AcDbArc
 50
90.000000000
 51
180.000000000
  0
LINE
  5
D18
330
A02
100
AcDbEntity
  8
SheetCutProfiles
100
AcDbLine
 10
715.850000000
 20
498.400000000
 30
0.000000000
 11
715.850000000
 21
510.000000000
 31
0.000000000
  0
LINE
  5
D19
330
A02
100
AcDbEntity
  8
SheetCutProfiles
100
AcDbLine
 10
652.350000000
 20
498.400000000
 30
0.000000000
 11
715.850000000
 21
498.400000000
 31
0.000000000
  0
LINE
  5
D1A
330
A02
100
AcDbEntity
  8
SheetCutProfiles
100
AcDbLine
 10
652.350000000
 20
510.000000000
 30
0.000000000
 11
652.350000000
 21
498.400000000
 31
0.000000000
  0
ARC
  5
D1B
330
A02
100
AcDbEntity
  8
SheetCutProfiles
100
AcDbCircle
 10
650.350000000
 20
510.000000000
 30
0.000000000
 40
2.000000000
100
AcDbArc
 50
0.000000000
 51
90.000000000
  0
LINE
  5
D1C
330
A02
100
AcDbEntity
  8
SheetCutProfiles
100
AcDbLine
 10
650.350000000
 20
512.000000000
 30
0.000000000
 11
590.850000000
 21
512.000000000
 31
0.000000000
  0
ARC
  5
D1D
330
A02
100
AcDbEntity
  8
SheetCutProfiles
100
AcDbCircle
 10
590.850000000
 20
510.000000000
 30
0.000000000
 40
2.000000000
100
AcDbArc
 50
90.000000000
 51
180.000000000
  0
LINE
  5
D1E
330
A02
100
AcDbEntity
  8
SheetCutProfiles
100
AcDbLine
 10
588.850000000
 20
498.400000000
 30
0.000000000
 11
588.850000000
 21
510.000000000
 31
0.000000000
  0
LINE
  5
D1F
330
A02
100
AcDbEntity
  8
SheetCutProfiles
100
AcDbLine
 10
525.350000000
 20
498.400000000
 30
0.000000000
 11
588.850000000
 21
498.400000000
 31
0.000000000
  0
LINE
  5
D20
330
A02
100
AcDbEntity
  8
SheetCutProfiles
100
AcDbLine
 10
525.350000000
 20
510.000000000
 30
0.000000000
 11
525.350000000
 21
498.400000000
 31
0.000000000
  0
ARC
  5
D21
330
A02
100
AcDbEntity
  8
SheetCutProfiles
100
AcDbCircle
 10
523.350000000
 20
510.000000000
 30
0.000000000
 40
2.000000000
100
AcDbArc
 50
0.000000000
 51
90.000000000
  0
LINE
  5
D22
330
A02
100
AcDbEntity
  8
SheetCutProfiles
100
AcDbLine
 10
523.350000000
 20
512.000000000
 30
0.000000000
 11
463.850000000
 21
512.000000000
 31
0.000000000
  0
ARC
  5
D23
330
A02
100
AcDbEntity
  8
SheetCutProfiles
100
AcDbCircle
 10
463.850000000
 20
510.000000000
 30
0.000000000
 40
2.000000000
100
AcDbArc
 50
90.000000000
 51
180.000000000
  0
LINE
  5
D24
330
A02
100
AcDbEntity
  8
SheetCutProfiles
100
AcDbLine
 10
461.850000000
 20
498.400000000
 30
0.000000000
 11
461.850000000
 21
510.000000000
 31
0.000000000
  0
LINE
  5
D25
330
A02
100
AcDbEntity
  8
SheetCutProfiles
100
AcDbLine
 10
398.350000000
 20
498.400000000
 30
0.000000000
 11
461.850000000
 21
498.400000000
 31
0.000000000
  0
LINE
  5
D26
330
A02
100
AcDbEntity
  8
SheetCutProfiles
100
AcDbLine
 10
398.350000000
 20
510.000000000
 30
0.000000000
 11
398.350000000
 21
498.400000000
 31
0.000000000
  0
ARC
  5
D27
330
A02
100
AcDbEntity
  8
SheetCutProfiles
100
AcDbCircle
 10
396.350000000
 20
510.000000000
 30
0.000000000
 40
2.000000000
100
AcDbArc
 50
0.000000000
 51
90.000000000
  0
LINE
  5
D28
330
A02
100
AcDbEntity
  8
SheetCutProfiles
100
AcDbLine
 10
396.350000000
 20
512.000000000
 30
0.000000000
 11
368.600000000
 21
512.000000000
 31
0.000000000
  0
ARC
  5
D29
330
A02
100
AcDbEntity
  8
SheetCutProfiles
100
AcDbCircle
 10
368.600000000
 20
510.000000000
 30
0.000000000
 40
2.000000000
100
AcDbArc
 50
90.000000000
 51
180.000000000
  0
LINE
  5
D2A
330
A02
100
AcDbEntity
  8
SheetCutProfiles
100
AcDbLine
 10
366.600000000
 20
510.000000000
 30
0.000000000
 11
366.600000000
 21
498.400000000
 31
0.000000000
  0
ARC
  5
D2B
330
A02
100
AcDbEntity
  8
SheetCutProfiles
100
AcDbCircle
 10
366.600000000
 20
496.400000000
 30
0.000000000
 40
2.000000000
100
AcDbArc
 50
90.000000000
 51
180.000000000
  0
LINE
  5
D2C
330
A02
100
AcDbEntity
  8
SheetCutProfiles
100
AcDbLine
 10
364.600000000
 20
469.375000000
 30
0.000000000
 11
364.600000000
 21
496.400000000
 31
0.000000000
  0
ARC
  5
D2D
330
A02
100
AcDbEntity
  8
SheetCutProfiles
100
AcDbCircle
 10
366.600000000
 20
469.375000000
 30
0.000000000
 40
2.000000000
100
AcDbArc
 50
180.000000000
 51
-90.000000000
  0
LINE
  5
D2E
330
A02
100
AcDbEntity
  8
SheetCutProfiles
100
AcDbLine
 10
378.200000000
 20
467.375000000
 30
0.000000000
 11
366.600000000
 21
467.375000000
 31
0.000000000
  0
LINE
  5
D2F
330
A02
100
AcDbEntity
  8
SheetCutProfiles
100
AcDbLine
 10
378.200000000
 20
405.325000000
 30
0.000000000
 11
378.200000000
 21
467.375000000
 31
0.000000000
  0
LINE
  5
D30
330
A02
100
AcDbEntity
  8
SheetCutProfiles
100
AcDbLine
 10
366.600000000
 20
405.325000000
 30
0.000000000
 11
378.200000000
 21
405.325000000
 31
0.000000000
  0
ARC
  5
D31
330
A02
100
AcDbEntity
  8
SheetCutProfiles
100
AcDbCircle
 10
366.600000000
 20
403.325000000
 30
0.000000000
 40
2.000000000
100
AcDbArc
 50
90.000000000
 51
180.000000000
  0
LINE
  5
D32
330
A02
100
AcDbEntity
  8
SheetCutProfiles
100
AcDbLine
 10
364.600000000
 20
345.275000000
 30
0.000000000
 11
364.600000000
 21
403.325000000
 31
0.000000000
  0
ARC
  5
D33
330
A02
100
AcDbEntity
  8
SheetCutProfiles
100
AcDbCircle
 10
366.600000000
 20
345.275000000
 30
0.000000000
 40
2.000000000
100
AcDbArc
 50
180.000000000
 51
-90.000000000
  0
LINE
  5
D34
330
A02
100
AcDbEntity
  8
SheetCutProfiles
100
AcDbLine
 10
378.200000000
 20
343.275000000
 30
0.000000000
 11
366.600000000
 21
343.275000000
 31
0.000000000
  0
LINE
  5
D35
330
A02
100
AcDbEntity
  8
SheetCutProfiles
100
AcDbLine
 10
378.200000000
 20
281.225000000
 30
0.000000000
 11
378.200000000
 21
343.275000000
 31
0.000000000
  0
LINE
  5
D36
330
A02
100
AcDbEntity
  8
SheetCutProfiles
100
AcDbLine
 10
366.600000000
 20
281.225000000
 30
0.000000000
 11
378.200000000
 21
281.225000000
 31
0.000000000
  0
ARC
  5
D37
330
A02
100
AcDbEntity
  8
SheetCutProfiles
100
AcDbCircle
 10
366.600000000
 20
279.225000000
 30
0.000000000
 40
2.000000000
100
AcDbArc
 50
90.000000000
 51
180.000000000
  0
LINE
  5
D38
330
A02
100
AcDbEntity
  8
SheetCutProfiles
100
AcDbLine
 10
364.600000000
 20
221.175000000
 30
0.000000000
 11
364.600000000
 21
279.225000000
 31
0.000000000
  0
ARC
  5
D39
330
A02
100
AcDbEntity
  8
SheetCutProfiles
100
AcDbCircle
 10
366.600000000
 20
221.175000000
 30
0.000000000
 40
2.000000000
100
AcDbArc
 50
180.000000000
 51
-90.000000000
  0
LINE
  5
D3A
330
A02
100
AcDbEntity
  8
SheetCutProfiles
100
AcDbLine
 10
378.200000000
 20
219.175000000
 30
0.000000000
 11
366.600000000
 21
219.175000000
 31
0.000000000
  0
LINE
  5
D3B
330
A02
100
AcDbEntity
  8
SheetCutProfiles
100
AcDbLine
 10
378.200000000
 20
157.125000000
 30
0.000000000
 11
378.200000000
 21
219.175000000
 31
0.000000000
  0
LINE
  5
D3C
330
A02
100
AcDbEntity
  8
SheetCutProfiles
100
AcDbLine
 10
366.600000000
 20
157.125000000
 30
0.000000000
 11
378.200000000
 21
157.125000000
 31
0.000000000
  0
ARC
  5
D3D
330
A02
100
AcDbEntity
  8
SheetCutProfiles
100
AcDbCircle
 10
366.600000000
 20
155.125000000
 30
0.000000000
 40
2.000000000
100
AcDbArc
 50
90.000000000
 51
180.000000000
  0
LINE
  5
D3E
330
A02
100
AcDbEntity
  8
SheetCutProfiles
100
AcDbLine
 10
364.600000000
 20
97.075000000
 30
0.000000000
 11
364.600000000
 21
155.125000000
 31
0.000000000
  0
ARC
  5
D3F
330
A02
100
AcDbEntity
  8
SheetCutProfiles
100
AcDbCircle
 10
366.600000000
 20
97.075000000
 30
0.000000000
 40
2.000000000
100
AcDbArc
 50
180.000000000
 51
-90.000000000
  0
LINE
  5
D40
330
A02
100
AcDbEntity
  8
SheetCutProfiles
100
AcDbLine
 10
378.200000000
 20
95.075000000
 30
0.000000000
 11
366.600000000
 21
95.075000000
 31
0.000000000
  0
LINE
  5
D41
330
A02
100
AcDbEntity
  8
SheetCutProfiles
100
AcDbLine
 10
378.200000000
 20
33.025000000
 30
0.000000000
 11
378.200000000
 21
95.075000000
 31
0.000000000
  0
LINE
  5
D42
330
A02
100
AcDbEntity
  8
SheetCutProfiles
100
AcDbLine
 10
366.600000000
 20
33.025000000
 30
0.000000000
 11
378.200000000
 21
33.025000000
 31
0.000000000
  0
ARC
  5
D43
330
A02
100
AcDbEntity
  8
SheetCutProfiles
100
AcDbCircle
 10
366.600000000
 20
31.025000000
 30
0.000000000
 40
2.000000000
100
AcDbArc
 50
90.000000000
 51
180.000000000
  0
LINE
  5
D44
330
A02
100
AcDbEntity
  8
SheetCutProfiles
100
AcDbLine
 10
364.600000000
 20
4.000000000
 30
0.000000000
 11
364.600000000
 21
31.025000000
 31
0.000000000
  0
ARC
  5
D45
330
A02
100
AcDbEntity
  8
SheetCutProfiles
100
AcDbCircle
 10
366.600000000
 20
4.000000000
 30
0.000000000
 40
2.000000000
100
AcDbArc
 50
180.000000000
 51
-90.000000000
  0
LINE
  5
D46
330
A02
100
AcDbEntity
  8
SheetCutProfiles
100
AcDbLine
 10
366.600000000
 20
2.000000000
 30
0.000000000
 11
378.200000000
 21
2.000000000
 31
0.000000000
  0
ARC
  5
D47
330
A02
100
AcDbEntity
  8
SheetCutProfiles
100
AcDbCircle
 10
380.200000000
 20
2.000000000
 30
0.000000000
 40
2.000000000
100
AcDbArc
 50
180.000000000
 51
-90.000000000
  0
LINE
  5
D48
330
A02
100
AcDbEntity
  8
SheetCutProfiles
100
AcDbLine
 10
380.200000000
 20
0.000000000
 30
0.000000000
 11
406.500000000
 21
0.000000000
 31
0.000000000
  0
ARC
  5
D49
330
A02
100
AcDbEntity
  8
SheetCutProfiles
100
AcDbCircle
 10
406.500000000
 20
2.000000000
 30
0.000000000
 40
2.000000000
100
AcDbArc
 50
-90.000000000
 51
0.000000000
  0
LINE
  5
D4A
330
A02
100
AcDbEntity
  8
SheetCutProfiles
100
AcDbLine
 10
408.500000000
 20
13.600000000
 30
0.000000000
 11
408.500000000
 21
2.000000000
 31
0.000000000
  0
LINE
  5
D4B
330
A02
100
AcDbEntity
  8
SheetCutProfiles
100
AcDbLine
 10
469.100000000
 20
13.600000000
 30
0.000000000
 11
408.500000000
 21
13.600000000
 31
0.000000000
  0
LINE
  5
D4C
330
A02
100
AcDbEntity
  8
SheetCutProfiles
100
AcDbLine
 10
469.100000000
 20
2.000000000
 30
0.000000000
 11
469.100000000
 21
13.600000000
 31
0.000000000
  0
ARC
  5
D4D
330
A02
100
AcDbEntity
  8
SheetCutProfiles
100
AcDbCircle
 10
471.100000000
 20
2.000000000
 30
0.000000000
 40
2.000000000
100
AcDbArc
 50
180.000000000
 51
-90.000000000
  0
LINE
  5
D4E
330
A02
100
AcDbEntity
  8
SheetCutProfiles
100
AcDbLine
 10
471.100000000
 20
0.000000000
 30
0.000000000
 11
527.700000000
 21
0.000000000
 31
0.000000000
  0
ARC
  5
D4F
330
A02
100
AcDbEntity
  8
SheetCutProfiles
100
AcDbCircle
 10
527.700000000
 20
2.000000000
 30
0.000000000
 40
2.000000000
100
AcDbArc
 50
-90.000000000
 51
0.000000000
  0
LINE
  5
D50
330
A02
100
AcDbEntity
  8
SheetCutProfiles
100
AcDbLine
 10
529.700000000
 20
13.600000000
 30
0.000000000
 11
529.700000000
 21
2.000000000
 31
0.000000000
  0
LINE
  5
D51
330
A02
100
AcDbEntity
  8
SheetCutProfiles
100
AcDbLine
 10
590.300000000
 20
13.600000000
 30
0.000000000
 11
529.700000000
 21
13.600000000
 31
0.000000000
  0
LINE
  5
D52
330
A02
100
AcDbEntity
  8
SheetCutProfiles
100
AcDbLine
 10
590.300000000
 20
2.000000000
 30
0.000000000
 11
590.300000000
 21
13.600000000
 31
0.000000000
  0
ARC
  5
D53
330
A02
100
AcDbEntity
  8
SheetCutProfiles
100
AcDbCircle
 10
592.300000000
 20
2.000000000
 30
0.000000000
 40
2.000000000
100
AcDbArc
 50
180.000000000
 51
-90.000000000
  0
LINE
  5
D54
330
A02
100
AcDbEntity
  8
SheetCutProfiles
100
AcDbLine
 10
592.300000000
 20
0.000000000
 30
0.000000000
 11
648.900000000
 21
0.000000000
 31
0.000000000
  0
ARC
  5
D55
330
A02
100
AcDbEntity
  8
SheetCutProfiles
100
AcDbCircle
 10
648.900000000
 20
2.000000000
 30
0.000000000
 40
2.000000000
100
AcDbArc
 50
-90.000000000
 51
0.000000000
  0
LINE
  5
D56
330
A02
100
AcDbEntity
  8
SheetCutProfiles
100
AcDbLine
 10
650.900000000
 20
13.600000000
 30
0.000000000
 11
650.900000000
 21
2.000000000
 31
0.000000000
  0
LINE
  5
D57
330
A02
100
AcDbEntity
  8
SheetCutProfiles
100
AcDbLine
 10
711.500000000
 20
13.600000000
 30
0.000000000
 11
650.900000000
 21
13.600000000
 31
0.000000000
  0
LINE
  5
D58
330
A02
100
AcDbEntity
  8
SheetCutProfiles
100
AcDbLine
 10
711.500000000
 20
2.000000000
 30
0.000000000
 11
711.500000000
 21
13.600000000
 31
0.000000000
  0
ARC
  5
D59
330
A02
100
AcDbEntity
  8
SheetCutProfiles
100
AcDbCircle
 10
713.500000000
 20
2.000000000
 30
0.000000000
 40
2.000000000
100
AcDbArc
 50
180.000000000
 51
-90.000000000
  0
LINE
  5
D5A
330
A02
100
AcDbEntity
  8
SheetCutProfiles
100
AcDbLine
 10
713.500000000
 20
0.000000000
 30
0.000000000
 11
770.100000000
 21
0.000000000
 31
0.000000000
  0
ARC
  5
D5B
330
A02
100
AcDbEntity
  8
SheetCutProfiles
100
AcDbCircle
 10
770.100000000
 20
2.000000000
 30
0.000000000
 40
2.000000000
100
AcDbArc
 50
-90.000000000
 51
0.000000000
  0
LINE
  5
D5C
330
A02
100
AcDbEntity
  8
SheetCutProfiles
100
AcDbLine
 10
772.100000000
 20
13.600000000
 30
0.000000000
 11
772.100000000
 21
2.000000000
 31
0.000000000
  0
LINE
  5
D5D
330
A02
100
AcDbEntity
  8
SheetCutProfiles
100
AcDbLine
 10
832.700000000
 20
13.600000000
 30
0.000000000
 11
772.100000000
 21
13.600000000
 31
0.000000000
  0
CIRCLE
  5
D5E
330
A02
100
AcDbEntity
  8
SheetCutProfiles
100
AcDbCircle
 10
449.933333333
 20
256.000000000
 30
0.000000000
 40
3.000000000
  0
CIRCLE
  5
D5F
330
A02
100
AcDbEntity
  8
SheetCutProfiles
100
AcDbCircle
 10
791.266666667
 20
256.000000000
 30
0.000000000
 40
3.000000000
  0
ENDSEC
  0
SECTION
  2
OBJECTS
  0
DICTIONARY
  5
F000
330
0
100
AcDbDictionary
  3
ACAD_GROUP
350
F001
  0
DICTIONARY
  5
F001
330
F000
100
AcDbDictionary
  0
ENDSEC
  0
EOF