999
FreeCAD v1.1 20260725 (Git shallow)
  0
SECTION
  2
HEADER
  9
$ACADVER
  1
AC1014
  9
$ACADMAINTVER
 70
     9
  9
$DWGCODEPAGE
  3
ANSI_1252
  9
$TEXTSTYLE
  7
STANDARD
  9
$DIMSTYLE
  2
STANDARD
  9
$DIMTXSTY
  7
STANDARD
  9
$CMLSTYLE
  2
STANDARD
  9
$LUNITS
 70
2
  9
$INSUNITS
 70
4
  9
$PEXTMAX
 10
50
 20
50
 30
50
  9
$PEXTMIN
 10
0
 20
0
 30
0
  9
$HANDSEED
  5
FFFF
  0
ENDSEC
  0
SECTION
  2
CLASSES
  0
CLASS
  1
ACDBDICTIONARYWDFLT
  2
AcDbDictionaryWithDefault
  3
ObjectDBX Classes
 90
        0
280
     0
281
     0
  0
CLASS
  1
XRECORD
  2
AcDbXrecord
  3
ObjectDBX Classes
 90
        0
280
     0
281
     0
  0
CLASS
  1
LWPOLYLINE
  2
AcDbPolyline
  3
ObjectDBX Classes
 90
        0
280
     0
281
     1
  0
ENDSEC
  0
SECTION
  2
TABLES
  0
TABLE
  2
VPORT
  5
20
330
0
100
AcDbSymbolTable
 70
     1
  0
VPORT
  5
21
330
20
100
AcDbSymbolTableRecord
100
AcDbViewportTableRecord
  2
*ACTIVE
 70
     0
  0
ENDTAB
  0
TABLE
  2
LTYPE
  5
22
330
0
100
AcDbSymbolTable
 70
     1
  0
LTYPE
  5
23
330
21
100
AcDbSymbolTableRecord
100
AcDbLinetypeTableRecord
  2
BYBLOCK
 70
     0
  3

 72
    65
 73
     0
 40
0.0
  0
LTYPE
  5
24
330
21
100
AcDbSymbolTableRecord
100
AcDbLinetypeTableRecord
  2
BYLAYER
 70
     0
  3

 72
    65
 73
     0
 40
0.0
  0
LTYPE
  5
25
330
21
100
AcDbSymbolTableRecord
100
AcDbLinetypeTableRecord
  2
CONTINUOUS
 70
     0
  3
Solid line
 72
    65
 73
     0
 40
0.0
  0
ENDTAB
  0
TABLE
  2
LAYER
  5
B28
330
0
100
AcDbSymbolTable
 70
3
  0
LAYER
  5
B29
330
B28
100
AcDbSymbolTableRecord
100
AcDbLayerTableRecord
  2
0
 70
   0
 62
   7
  6
CONTINUOUS
  0
LAYER
  5
B2A
330
B28
100
AcDbSymbolTableRecord
100
AcDbLayerTableRecord
  2
none
 70
    0
 62
    7
  6
CONTINUOUS
  0
LAYER
  5
B2B
330
B28
100
AcDbSymbolTableRecord
100
AcDbLayerTableRecord
  2
SheetCutProfiles
 70
    0
 62
    7
  6
CONTINUOUS
  0
ENDTAB
  0
TABLE
  2
STYLE
  5
70
330
0
100
AcDbSymbolTable
 70
     2
  0
STYLE
  5
71
330
70
100
AcDbSymbolTableRecord
100
AcDbTextStyleTableRecord
  2
STANDARD
 70
     0
 40
0.0
 41
1.0
 50
0.0
 71
     0
 42
2.5
  3
arial.ttf
  4

  0
STYLE
  5
72
330
70
100
AcDbSymbolTableRecord
100
AcDbTextStyleTableRecord
  2
ANNOTATIVE
 70
     0
 40
0.0
 41
1.0
 50
0.0
 71
     0
 42
2.5
  3
arial.ttf
  4

  0
ENDTAB
  0
TABLE
  2
VIEW
  5
73
330
0
100
AcDbSymbolTable
 70
     0
  0
ENDTAB
  0
TABLE
  2
UCS
  5
74
330
0
100
AcDbSymbolTable
 70
     0
  0
ENDTAB
  0
TABLE
  2
APPID
  5
75
330
0
100
AcDbSymbolTable
 70
     2
  0
APPID
  5
76
330
75
100
AcDbSymbolTableRecord
100
AcDbRegAppTableRecord
  2
ACAD
 70
     0
  0
APPID
  5
77
330
75
100
AcDbSymbolTableRecord
100
AcDbRegAppTableRecord
  2
ACADANNOTATIVE
 70
     0
  0
ENDTAB
  0
TABLE
  2
DIMSTYLE
  5
78
330
0
100
AcDbSymbolTable
 70
     2
  0
DIMSTYLE
105
79
330
78
100
AcDbSymbolTableRecord
100
AcDbDimStyleTableRecord
  2
STANDARD
 70
     0
  3

  4

  5

  6

  7

 40
0.0
 41
2.5
 42
0.625
 43
3.75
 44
1.25
 45
0.0
 46
0.0
 47
0.0
 48
0.0
140
2.5
141
2.5
142
0.0
143
0.03937007874016
144
1.0
145
0.0
146
1.0
147
0.625
 71
     0
 72
     0
 73
     0
 74
     0
 75
     0
 76
     0
 77
     1
 78
     8
170
     0
171
     3
172
     1
173
     0
174
     0
175
     0
176
     0
177
     0
178
     0
270
     2
271
     2
272
     2
273
     2
274
     3
340
71
275
     0
280
     0
281
     0
282
     0
283
     0
284
     8
285
     0
286
     0
287
     3
288
     0
  0
ENDTAB
  0
TABLE
  2
BLOCK_RECORD
  5
A01
330
0
100
AcDbSymbolTable
  70
5
  0
BLOCK_RECORD
  5
A02
330
A01
100
AcDbSymbolTableRecord
100
AcDbBlockTableRecord
  2
*MODEL_SPACE
  0
BLOCK_RECORD
  5
A03
330
A01
100
AcDbSymbolTableRecord
100
AcDbBlockTableRecord
  2
*PAPER_SPACE
  0
ENDTAB
  0
ENDSEC
  0
SECTION
  2
BLOCKS
  0
BLOCK
  5
A04
330
A02
100
AcDbEntity
  8
0
100
AcDbBlockBegin
  2
*MODEL_SPACE
 70
   0
 10
0
 20
0
 30
0
  3
*MODEL_SPACE
  1
 
  0
ENDBLK
  5
A05
330
A02
100
AcDbEntity
  8
0
100
AcDbBlockEnd
  0
BLOCK
  5
A06
330
A03
100
AcDbEntity
 67
1
  8
0
100
AcDbBlockBegin
  2
*PAPER_SPACE
 70
   0
 10
0
 20
0
 30
0
  3
*PAPER_SPACE
  1
 
  0
ENDBLK
  5
A07
330
A03
100
AcDbEntity
 67
    1
  8
0
100
AcDbBlockEnd
  0
ENDSEC
  0
SECTION
  2
ENTITIES
  0
LINE
  5
A08
330
A02
100
AcDbEntity
  8
SheetCutProfiles
100
AcDbLine
 10
2.000000000
 20
13.600000000
 30
0.000000000
 11
2.000000000
 21
2.000000000
 31
0.000000000
  0
ARC
  5
A09
330
A02
100
AcDbEntity
  8
SheetCutProfiles
100
AcDbCircle
 10
2.000000000
 20
15.600000000
 30
0.000000000
 40
2.000000000
100
AcDbArc
 50
180.000000000
 51
-90.000000000
  0
LINE
  5
A0A
330
A02
100
AcDbEntity
  8
SheetCutProfiles
100
AcDbLine
 10
0.000000000
 20
15.600000000
 30
0.000000000
 11
0.000000000
 21
42.625000000
 31
0.000000000
  0
ARC
  5
A0B
330
A02
100
AcDbEntity
  8
SheetCutProfiles
100
AcDbCircle
 10
2.000000000
 20
42.625000000
 30
0.000000000
 40
2.000000000
100
AcDbArc
 50
90.000000000
 51
180.000000000
  0
LINE
  5
A0C
330
A02
100
AcDbEntity
  8
SheetCutProfiles
100
AcDbLine
 10
13.600000000
 20
44.625000000
 30
0.000000000
 11
2.000000000
 21
44.625000000
 31
0.000000000
  0
LINE
  5
A0D
330
A02
100
AcDbEntity
  8
SheetCutProfiles
100
AcDbLine
 10
13.600000000
 20
106.675000000
 30
0.000000000
 11
13.600000000
 21
44.625000000
 31
0.000000000
  0
LINE
  5
A0E
330
A02
100
AcDbEntity
  8
SheetCutProfiles
100
AcDbLine
 10
2.000000000
 20
106.675000000
 30
0.000000000
 11
13.600000000
 21
106.675000000
 31
0.000000000
  0
ARC
  5
A0F
330
A02
100
AcDbEntity
  8
SheetCutProfiles
100
AcDbCircle
 10
2.000000000
 20
108.675000000
 30
0.000000000
 40
2.000000000
100
AcDbArc
 50
180.000000000
 51
-90.000000000
  0
LINE
  5
A10
330
A02
100
AcDbEntity
  8
SheetCutProfiles
100
AcDbLine
 10
0.000000000
 20
108.675000000
 30
0.000000000
 11
0.000000000
 21
166.725000000
 31
0.000000000
  0
ARC
  5
A11
330
A02
100
AcDbEntity
  8
SheetCutProfiles
100
AcDbCircle
 10
2.000000000
 20
166.725000000
 30
0.000000000
 40
2.000000000
100
AcDbArc
 50
90.000000000
 51
180.000000000
  0
LINE
  5
A12
330
A02
100
AcDbEntity
  8
SheetCutProfiles
100
AcDbLine
 10
13.600000000
 20
168.725000000
 30
0.000000000
 11
2.000000000
 21
168.725000000
 31
0.000000000
  0
LINE
  5
A13
330
A02
100
AcDbEntity
  8
SheetCutProfiles
100
AcDbLine
 10
13.600000000
 20
230.775000000
 30
0.000000000
 11
13.600000000
 21
168.725000000
 31
0.000000000
  0
LINE
  5
A14
330
A02
100
AcDbEntity
  8
SheetCutProfiles
100
AcDbLine
 10
2.000000000
 20
230.775000000
 30
0.000000000
 11
13.600000000
 21
230.775000000
 31
0.000000000
  0
ARC
  5
A15
330
A02
100
AcDbEntity
  8
SheetCutProfiles
100
AcDbCircle
 10
2.000000000
 20
232.775000000
 30
0.000000000
 40
2.000000000
100
AcDbArc
 50
180.000000000
 51
-90.000000000
  0
LINE
  5
A16
330
A02
100
AcDbEntity
  8
SheetCutProfiles
100
AcDbLine
 10
0.000000000
 20
232.775000000
 30
0.000000000
 11
0.000000000
 21
290.825000000
 31
0.000000000
  0
ARC
  5
A17
330
A02
100
AcDbEntity
  8
SheetCutProfiles
100
AcDbCircle
 10
2.000000000
 20
290.825000000
 30
0.000000000
 40
2.000000000
100
AcDbArc
 50
90.000000000
 51
180.000000000
  0
LINE
  5
A18
330
A02
100
AcDbEntity
  8
SheetCutProfiles
100
AcDbLine
 10
13.600000000
 20
292.825000000
 30
0.000000000
 11
2.000000000
 21
292.825000000
 31
0.000000000
  0
LINE
  5
A19
330
A02
100
AcDbEntity
  8
SheetCutProfiles
100
AcDbLine
 10
13.600000000
 20
354.875000000
 30
0.000000000
 11
13.600000000
 21
292.825000000
 31
0.000000000
  0
LINE
  5
A1A
330
A02
100
AcDbEntity
  8
SheetCutProfiles
100
AcDbLine
 10
2.000000000
 20
354.875000000
 30
0.000000000
 11
13.600000000
 21
354.875000000
 31
0.000000000
  0
ARC
  5
A1B
330
A02
100
AcDbEntity
  8
SheetCutProfiles
100
AcDbCircle
 10
2.000000000
 20
356.875000000
 30
0.000000000
 40
2.000000000
100
AcDbArc
 50
180.000000000
 51
-90.000000000
  0
LINE
  5
A1C
330
A02
100
AcDbEntity
  8
SheetCutProfiles
100
AcDbLine
 10
0.000000000
 20
356.875000000
 30
0.000000000
 11
0.000000000
 21
414.925000000
 31
0.000000000
  0
ARC
  5
A1D
330
A02
100
AcDbEntity
  8
SheetCutProfiles
100
AcDbCircle
 10
2.000000000
 20
414.925000000
 30
0.000000000
 40
2.000000000
100
AcDbArc
 50
90.000000000
 51
180.000000000
  0
LINE
  5
A1E
330
A02
100
AcDbEntity
  8
SheetCutProfiles
100
AcDbLine
 10
13.600000000
 20
416.925000000
 30
0.000000000
 11
2.000000000
 21
416.925000000
 31
0.000000000
  0
LINE
  5
A1F
330
A02
100
AcDbEntity
  8
SheetCutProfiles
100
AcDbLine
 10
13.600000000
 20
478.975000000
 30
0.000000000
 11
13.600000000
 21
416.925000000
 31
0.000000000
  0
LINE
  5
A20
330
A02
100
AcDbEntity
  8
SheetCutProfiles
100
AcDbLine
 10
2.000000000
 20
478.975000000
 30
0.000000000
 11
13.600000000
 21
478.975000000
 31
0.000000000
  0
ARC
  5
A21
330
A02
100
AcDbEntity
  8
SheetCutProfiles
100
AcDbCircle
 10
2.000000000
 20
480.975000000
 30
0.000000000
 40
2.000000000
100
AcDbArc
 50
180.000000000
 51
-90.000000000
  0
LINE
  5
A22
330
A02
100
AcDbEntity
  8
SheetCutProfiles
100
AcDbLine
 10
0.000000000
 20
480.975000000
 30
0.000000000
 11
0.000000000
 21
508.000000000
 31
0.000000000
  0
ARC
  5
A23
330
A02
100
AcDbEntity
  8
SheetCutProfiles
100
AcDbCircle
 10
2.000000000
 20
508.000000000
 30
0.000000000
 40
2.000000000
100
AcDbArc
 50
90.000000000
 51
180.000000000
  0
LINE
  5
A24
330
A02
100
AcDbEntity
  8
SheetCutProfiles
100
AcDbLine
 10
13.600000000
 20
510.000000000
 30
0.000000000
 11
2.000000000
 21
510.000000000
 31
0.000000000
  0
ARC
  5
A25
330
A02
100
AcDbEntity
  8
SheetCutProfiles
100
AcDbCircle
 10
15.600000000
 20
510.000000000
 30
0.000000000
 40
2.000000000
100
AcDbArc
 50
90.000000000
 51
180.000000000
  0
LINE
  5
A26
330
A02
100
AcDbEntity
  8
SheetCutProfiles
100
AcDbLine
 10
15.600000000
 20
512.000000000
 30
0.000000000
 11
70.475000000
 21
512.000000000
 31
0.000000000
  0
ARC
  5
A27
330
A02
100
AcDbEntity
  8
SheetCutProfiles
100
AcDbCircle
 10
70.475000000
 20
510.000000000
 30
0.000000000
 40
2.000000000
100
AcDbArc
 50
0.000000000
 51
90.000000000
  0
LINE
  5
A28
330
A02
100
AcDbEntity
  8
SheetCutProfiles
100
AcDbLine
 10
72.475000000
 20
498.400000000
 30
0.000000000
 11
72.475000000
 21
510.000000000
 31
0.000000000
  0
LINE
  5
A29
330
A02
100
AcDbEntity
  8
SheetCutProfiles
100
AcDbLine
 10
190.225000000
 20
498.400000000
 30
0.000000000
 11
72.475000000
 21
498.400000000
 31
0.000000000
  0
LINE
  5
A2A
330
A02
100
AcDbEntity
  8
SheetCutProfiles
100
AcDbLine
 10
190.225000000
 20
510.000000000
 30
0.000000000
 11
190.225000000
 21
498.400000000
 31
0.000000000
  0
ARC
  5
A2B
330
A02
100
AcDbEntity
  8
SheetCutProfiles
100
AcDbCircle
 10
192.225000000
 20
510.000000000
 30
0.000000000
 40
2.000000000
100
AcDbArc
 50
90.000000000
 51
180.000000000
  0
LINE
  5
A2C
330
A02
100
AcDbEntity
  8
SheetCutProfiles
100
AcDbLine
 10
192.225000000
 20
512.000000000
 30
0.000000000
 11
305.975000000
 21
512.000000000
 31
0.000000000
  0
ARC
  5
A2D
330
A02
100
AcDbEntity
  8
SheetCutProfiles
100
AcDbCircle
 10
305.975000000
 20
510.000000000
 30
0.000000000
 40
2.000000000
100
AcDbArc
 50
0.000000000
 51
90.000000000
  0
LINE
  5
A2E
330
A02
100
AcDbEntity
  8
SheetCutProfiles
100
AcDbLine
 10
307.975000000
 20
498.400000000
 30
0.000000000
 11
307.975000000
 21
510.000000000
 31
0.000000000
  0
LINE
  5
A2F
330
A02
100
AcDbEntity
  8
SheetCutProfiles
100
AcDbLine
 10
425.725000000
 20
498.400000000
 30
0.000000000
 11
307.975000000
 21
498.400000000
 31
0.000000000
  0
LINE
  5
A30
330
A02
100
AcDbEntity
  8
SheetCutProfiles
100
AcDbLine
 10
425.725000000
 20
510.000000000
 30
0.000000000
 11
425.725000000
 21
498.400000000
 31
0.000000000
  0
ARC
  5
A31
330
A02
100
AcDbEntity
  8
SheetCutProfiles
100
AcDbCircle
 10
427.725000000
 20
510.000000000
 30
0.000000000
 40
2.000000000
100
AcDbArc
 50
90.000000000
 51
180.000000000
  0
LINE
  5
A32
330
A02
100
AcDbEntity
  8
SheetCutProfiles
100
AcDbLine
 10
427.725000000
 20
512.000000000
 30
0.000000000
 11
541.475000000
 21
512.000000000
 31
0.000000000
  0
ARC
  5
A33
330
A02
100
AcDbEntity
  8
SheetCutProfiles
100
AcDbCircle
 10
541.475000000
 20
510.000000000
 30
0.000000000
 40
2.000000000
100
AcDbArc
 50
0.000000000
 51
90.000000000
  0
LINE
  5
A34
330
A02
100
AcDbEntity
  8
SheetCutProfiles
100
AcDbLine
 10
543.475000000
 20
498.400000000
 30
0.000000000
 11
543.475000000
 21
510.000000000
 31
0.000000000
  0
LINE
  5
A35
330
A02
100
AcDbEntity
  8
SheetCutProfiles
100
AcDbLine
 10
661.225000000
 20
498.400000000
 30
0.000000000
 11
543.475000000
 21
498.400000000
 31
0.000000000
  0
LINE
  5
A36
330
A02
100
AcDbEntity
  8
SheetCutProfiles
100
AcDbLine
 10
661.225000000
 20
510.000000000
 30
0.000000000
 11
661.225000000
 21
498.400000000
 31
0.000000000
  0
ARC
  5
A37
330
A02
100
AcDbEntity
  8
SheetCutProfiles
100
AcDbCircle
 10
663.225000000
 20
510.000000000
 30
0.000000000
 40
2.000000000
100
AcDbArc
 50
90.000000000
 51
180.000000000
  0
LINE
  5
A38
330
A02
100
AcDbEntity
  8
SheetCutProfiles
100
AcDbLine
 10
663.225000000
 20
512.000000000
 30
0.000000000
 11
776.975000000
 21
512.000000000
 31
0.000000000
  0
ARC
  5
A39
330
A02
100
AcDbEntity
  8
SheetCutProfiles
100
AcDbCircle
 10
776.975000000
 20
510.000000000
 30
0.000000000
 40
2.000000000
100
AcDbArc
 50
0.000000000
 51
90.000000000
  0
LINE
  5
A3A
330
A02
100
AcDbEntity
  8
SheetCutProfiles
100
AcDbLine
 10
778.975000000
 20
498.400000000
 30
0.000000000
 11
778.975000000
 21
510.000000000
 31
0.000000000
  0
LINE
  5
A3B
330
A02
100
AcDbEntity
  8
SheetCutProfiles
100
AcDbLine
 10
896.725000000
 20
498.400000000
 30
0.000000000
 11
778.975000000
 21
498.400000000
 31
0.000000000
  0
LINE
  5
A3C
330
A02
100
AcDbEntity
  8
SheetCutProfiles
100
AcDbLine
 10
896.725000000
 20
510.000000000
 30
0.000000000
 11
896.725000000
 21
498.400000000
 31
0.000000000
  0
ARC
  5
A3D
330
A02
100
AcDbEntity
  8
SheetCutProfiles
100
AcDbCircle
 10
898.725000000
 20
510.000000000
 30
0.000000000
 40
2.000000000
100
AcDbArc
 50
90.000000000
 51
180.000000000
  0
LINE
  5
A3E
330
A02
100
AcDbEntity
  8
SheetCutProfiles
100
AcDbLine
 10
898.725000000
 20
512.000000000
 30
0.000000000
 11
953.600000000
 21
512.000000000
 31
0.000000000
  0
ARC
  5
A3F
330
A02
100
AcDbEntity
  8
SheetCutProfiles
100
AcDbCircle
 10
953.600000000
 20
510.000000000
 30
0.000000000
 40
2.000000000
100
AcDbArc
 50
0.000000000
 51
90.000000000
  0
LINE
  5
A40
330
A02
100
AcDbEntity
  8
SheetCutProfiles
100
AcDbLine
 10
967.200000000
 20
510.000000000
 30
0.000000000
 11
955.600000000
 21
510.000000000
 31
0.000000000
  0
ARC
  5
A41
330
A02
100
AcDbEntity
  8
SheetCutProfiles
100
AcDbCircle
 10
967.200000000
 20
508.000000000
 30
0.000000000
 40
2.000000000
100
AcDbArc
 50
0.000000000
 51
90.000000000
  0
LINE
  5
A42
330
A02
100
AcDbEntity
  8
SheetCutProfiles
100
AcDbLine
 10
969.200000000
 20
480.975000000
 30
0.000000000
 11
969.200000000
 21
508.000000000
 31
0.000000000
  0
ARC
  5
A43
330
A02
100
AcDbEntity
  8
SheetCutProfiles
100
AcDbCircle
 10
967.200000000
 20
480.975000000
 30
0.000000000
 40
2.000000000
100
AcDbArc
 50
-90.000000000
 51
0.000000000
  0
LINE
  5
A44
330
A02
100
AcDbEntity
  8
SheetCutProfiles
100
AcDbLine
 10
955.600000000
 20
478.975000000
 30
0.000000000
 11
967.200000000
 21
478.975000000
 31
0.000000000
  0
LINE
  5
A45
330
A02
100
AcDbEntity
  8
SheetCutProfiles
100
AcDbLine
 10
955.600000000
 20
416.925000000
 30
0.000000000
 11
955.600000000
 21
478.975000000
 31
0.000000000
  0
LINE
  5
A46
330
A02
100
AcDbEntity
  8
SheetCutProfiles
100
AcDbLine
 10
967.200000000
 20
416.925000000
 30
0.000000000
 11
955.600000000
 21
416.925000000
 31
0.000000000
  0
ARC
  5
A47
330
A02
100
AcDbEntity
  8
SheetCutProfiles
100
AcDbCircle
 10
967.200000000
 20
414.925000000
 30
0.000000000
 40
2.000000000
100
AcDbArc
 50
0.000000000
 51
90.000000000
  0
LINE
  5
A48
330
A02
100
AcDbEntity
  8
SheetCutProfiles
100
AcDbLine
 10
969.200000000
 20
356.875000000
 30
0.000000000
 11
969.200000000
 21
414.925000000
 31
0.000000000
  0
ARC
  5
A49
330
A02
100
AcDbEntity
  8
SheetCutProfiles
100
AcDbCircle
 10
967.200000000
 20
356.875000000
 30
0.000000000
 40
2.000000000
100
AcDbArc
 50
-90.000000000
 51
0.000000000
  0
LINE
  5
A4A
330
A02
100
AcDbEntity
  8
SheetCutProfiles
100
AcDbLine
 10
955.600000000
 20
354.875000000
 30
0.000000000
 11
967.200000000
 21
354.875000000
 31
0.000000000
  0
LINE
  5
A4B
330
A02
100
AcDbEntity
  8
SheetCutProfiles
100
AcDbLine
 10
955.600000000
 20
292.825000000
 30
0.000000000
 11
955.600000000
 21
354.875000000
 31
0.000000000
  0
LINE
  5
A4C
330
A02
100
AcDbEntity
  8
SheetCutProfiles
100
AcDbLine
 10
967.200000000
 20
292.825000000
 30
0.000000000
 11
955.600000000
 21
292.825000000
 31
0.000000000
  0
ARC
  5
A4D
330
A02
100
AcDbEntity
  8
SheetCutProfiles
100
AcDbCircle
 10
967.200000000
 20
290.825000000
 30
0.000000000
 40
2.000000000
100
AcDbArc
 50
0.000000000
 51
90.000000000
  0
LINE
  5
A4E
330
A02
100
AcDbEntity
  8
SheetCutProfiles
100
AcDbLine
 10
969.200000000
 20
232.775000000
 30
0.000000000
 11
969.200000000
 21
290.825000000
 31
0.000000000
  0
ARC
  5
A4F
330
A02
100
AcDbEntity
  8
SheetCutProfiles
100
AcDbCircle
 10
967.200000000
 20
232.775000000
 30
0.000000000
 40
2.000000000
100
AcDbArc
 50
-90.000000000
 51
0.000000000
  0
LINE
  5
A50
330
A02
100
AcDbEntity
  8
SheetCutProfiles
100
AcDbLine
 10
955.600000000
 20
230.775000000
 30
0.000000000
 11
967.200000000
 21
230.775000000
 31
0.000000000
  0
LINE
  5
A51
330
A02
100
AcDbEntity
  8
SheetCutProfiles
100
AcDbLine
 10
955.600000000
 20
168.725000000
 30
0.000000000
 11
955.600000000
 21
230.775000000
 31
0.000000000
  0
LINE
  5
A52
330
A02
100
AcDbEntity
  8
SheetCutProfiles
100
AcDbLine
 10
967.200000000
 20
168.725000000
 30
0.000000000
 11
955.600000000
 21
168.725000000
 31
0.000000000
  0
ARC
  5
A53
330
A02
100
AcDbEntity
  8
SheetCutProfiles
100
AcDbCircle
 10
967.200000000
 20
166.725000000
 30
0.000000000
 40
2.000000000
100
AcDbArc
 50
0.000000000
 51
90.000000000
  0
LINE
  5
A54
330
A02
100
AcDbEntity
  8
SheetCutProfiles
100
AcDbLine
 10
969.200000000
 20
108.675000000
 30
0.000000000
 11
969.200000000
 21
166.725000000
 31
0.000000000
  0
ARC
  5
A55
330
A02
100
AcDbEntity
  8
SheetCutProfiles
100
AcDbCircle
 10
967.200000000
 20
108.675000000
 30
0.000000000
 40
2.000000000
100
AcDbArc
 50
-90.000000000
 51
0.000000000
  0
LINE
  5
A56
330
A02
100
AcDbEntity
  8
SheetCutProfiles
100
AcDbLine
 10
955.600000000
 20
106.675000000
 30
0.000000000
 11
967.200000000
 21
106.675000000
 31
0.000000000
  0
LINE
  5
A57
330
A02
100
AcDbEntity
  8
SheetCutProfiles
100
AcDbLine
 10
955.600000000
 20
44.625000000
 30
0.000000000
 11
955.600000000
 21
106.675000000
 31
0.000000000
  0
LINE
  5
A58
330
A02
100
AcDbEntity
  8
SheetCutProfiles
100
AcDbLine
 10
967.200000000
 20
44.625000000
 30
0.000000000
 11
955.600000000
 21
44.625000000
 31
0.000000000
  0
ARC
  5
A59
330
A02
100
AcDbEntity
  8
SheetCutProfiles
100
AcDbCircle
 10
967.200000000
 20
42.625000000
 30
0.000000000
 40
2.000000000
100
AcDbArc
 50
0.000000000
 51
90.000000000
  0
LINE
  5
A5A
330
A02
100
AcDbEntity
  8
SheetCutProfiles
100
AcDbLine
 10
969.200000000
 20
15.600000000
 30
0.000000000
 11
969.200000000
 21
42.625000000
 31
0.000000000
  0
ARC
  5
A5B
330
A02
100
AcDbEntity
  8
SheetCutProfiles
100
AcDbCircle
 10
967.200000000
 20
15.600000000
 30
0.000000000
 40
2.000000000
100
AcDbArc
 50
-90.000000000
 51
0.000000000
  0
LINE
  5
A5C
330
A02
100
AcDbEntity
  8
SheetCutProfiles
100
AcDbLine
 10
967.200000000
 20
13.600000000
 30
0.000000000
 11
967.200000000
 21
2.000000000
 31
0.000000000
  0
ARC
  5
A5D
330
A02
100
AcDbEntity
  8
SheetCutProfiles
100
AcDbCircle
 10
965.200000000
 20
2.000000000
 30
0.000000000
 40
2.000000000
100
AcDbArc
 50
-90.000000000
 51
0.000000000
  0
LINE
  5
A5E
330
A02
100
AcDbEntity
  8
SheetCutProfiles
100
AcDbLine
 10
908.875000000
 20
0.000000000
 30
0.000000000
 11
965.200000000
 21
0.000000000
 31
0.000000000
  0
ARC
  5
A5F
330
A02
100
AcDbEntity
  8
SheetCutProfiles
100
AcDbCircle
 10
908.875000000
 20
2.000000000
 30
0.000000000
 40
2.000000000
100
AcDbArc
 50
180.000000000
 51
-90.000000000
  0
LINE
  5
A60
330
A02
100
AcDbEntity
  8
SheetCutProfiles
100
AcDbLine
 10
906.875000000
 20
13.600000000
 30
0.000000000
 11
906.875000000
 21
2.000000000
 31
0.000000000
  0
LINE
  5
A61
330
A02
100
AcDbEntity
  8
SheetCutProfiles
100
AcDbLine
 10
786.225000000
 20
13.600000000
 30
0.000000000
 11
906.875000000
 21
13.600000000
 31
0.000000000
  0
LINE
  5
A62
330
A02
100
AcDbEntity
  8
SheetCutProfiles
100
AcDbLine
 10
786.225000000
 20
2.000000000
 30
0.000000000
 11
786.225000000
 21
13.600000000
 31
0.000000000
  0
ARC
  5
A63
330
A02
100
AcDbEntity
  8
SheetCutProfiles
100
AcDbCircle
 10
784.225000000
 20
2.000000000
 30
0.000000000
 40
2.000000000
100
AcDbArc
 50
-90.000000000
 51
0.000000000
  0
LINE
  5
A64
330
A02
100
AcDbEntity
  8
SheetCutProfiles
100
AcDbLine
 10
667.575000000
 20
0.000000000
 30
0.000000000
 11
784.225000000
 21
0.000000000
 31
0.000000000
  0
ARC
  5
A65
330
A02
100
AcDbEntity
  8
SheetCutProfiles
100
AcDbCircle
 10
667.575000000
 20
2.000000000
 30
0.000000000
 40
2.000000000
100
AcDbArc
 50
180.000000000
 51
-90.000000000
  0
LINE
  5
A66
330
A02
100
AcDbEntity
  8
SheetCutProfiles
100
AcDbLine
 10
665.575000000
 20
13.600000000
 30
0.000000000
 11
665.575000000
 21
2.000000000
 31
0.000000000
  0
LINE
  5
A67
330
A02
100
AcDbEntity
  8
SheetCutProfiles
100
AcDbLine
 10
544.925000000
 20
13.600000000
 30
0.000000000
 11
665.575000000
 21
13.600000000
 31
0.000000000
  0
LINE
  5
A68
330
A02
100
AcDbEntity
  8
SheetCutProfiles
100
AcDbLine
 10
544.925000000
 20
2.000000000
 30
0.000000000
 11
544.925000000
 21
13.600000000
 31
0.000000000
  0
ARC
  5
A69
330
A02
100
AcDbEntity
  8
SheetCutProfiles
100
AcDbCircle
 10
542.925000000
 20
2.000000000
 30
0.000000000
 40
2.000000000
100
AcDbArc
 50
-90.000000000
 51
0.000000000
  0
LINE
  5
A6A
330
A02
100
AcDbEntity
  8
SheetCutProfiles
100
AcDbLine
 10
426.275000000
 20
0.000000000
 30
0.000000000
 11
542.925000000
 21
0.000000000
 31
0.000000000
  0
ARC
  5
A6B
330
A02
100
AcDbEntity
  8
SheetCutProfiles
100
AcDbCircle
 10
426.275000000
 20
2.000000000
 30
0.000000000
 40
2.000000000
100
AcDbArc
 50
180.000000000
 51
-90.000000000
  0
LINE
  5
A6C
330
A02
100
AcDbEntity
  8
SheetCutProfiles
100
AcDbLine
 10
424.275000000
 20
13.600000000
 30
0.000000000
 11
424.275000000
 21
2.000000000
 31
0.000000000
  0
LINE
  5
A6D
330
A02
100
AcDbEntity
  8
SheetCutProfiles
100
AcDbLine
 10
303.625000000
 20
13.600000000
 30
0.000000000
 11
424.275000000
 21
13.600000000
 31
0.000000000
  0
LINE
  5
A6E
330
A02
100
AcDbEntity
  8
SheetCutProfiles
100
AcDbLine
 10
303.625000000
 20
2.000000000
 30
0.000000000
 11
303.625000000
 21
13.600000000
 31
0.000000000
  0
ARC
  5
A6F
330
A02
100
AcDbEntity
  8
SheetCutProfiles
100
AcDbCircle
 10
301.625000000
 20
2.000000000
 30
0.000000000
 40
2.000000000
100
AcDbArc
 50
-90.000000000
 51
0.000000000
  0
LINE
  5
A70
330
A02
100
AcDbEntity
  8
SheetCutProfiles
100
AcDbLine
 10
184.975000000
 20
0.000000000
 30
0.000000000
 11
301.625000000
 21
0.000000000
 31
0.000000000
  0
ARC
  5
A71
330
A02
100
AcDbEntity
  8
SheetCutProfiles
100
AcDbCircle
 10
184.975000000
 20
2.000000000
 30
0.000000000
 40
2.000000000
100
AcDbArc
 50
180.000000000
 51
-90.000000000
  0
LINE
  5
A72
330
A02
100
AcDbEntity
  8
SheetCutProfiles
100
AcDbLine
 10
182.975000000
 20
13.600000000
 30
0.000000000
 11
182.975000000
 21
2.000000000
 31
0.000000000
  0
LINE
  5
A73
330
A02
100
AcDbEntity
  8
SheetCutProfiles
100
AcDbLine
 10
62.325000000
 20
13.600000000
 30
0.000000000
 11
182.975000000
 21
13.600000000
 31
0.000000000
  0
LINE
  5
A74
330
A02
100
AcDbEntity
  8
SheetCutProfiles
100
AcDbLine
 10
62.325000000
 20
2.000000000
 30
0.000000000
 11
62.325000000
 21
13.600000000
 31
0.000000000
  0
ARC
  5
A75
330
A02
100
AcDbEntity
  8
SheetCutProfiles
100
AcDbCircle
 10
60.325000000
 20
2.000000000
 30
0.000000000
 40
2.000000000
100
AcDbArc
 50
-90.000000000
 51
0.000000000
  0
LINE
  5
A76
330
A02
100
AcDbEntity
  8
SheetCutProfiles
100
AcDbLine
 10
4.000000000
 20
0.000000000
 30
0.000000000
 11
60.325000000
 21
0.000000000
 31
0.000000000
  0
ARC
  5
A77
330
A02
100
AcDbEntity
  8
SheetCutProfiles
100
AcDbCircle
 10
4.000000000
 20
2.000000000
 30
0.000000000
 40
2.000000000
100
AcDbArc
 50
180.000000000
 51
-90.000000000
  0
CIRCLE
  5
A78
330
A02
100
AcDbEntity
  8
SheetCutProfiles
100
AcDbCircle
 10
807.666666667
 20
256.000000000
 30
0.000000000
 40
3.000000000
  0
CIRCLE
  5
A79
330
A02
100
AcDbEntity
  8
SheetCutProfiles
100
AcDbCircle
 10
161.533333333
 20
256.000000000
 30
0.000000000
 40
3.000000000
  0
LINE
  5
A7A
330
A02
100
AcDbEntity
  8
SheetCutProfiles
100
AcDbLine
 10
942.000000000
 20
550.337500000
 30
0.000000000
 11
945.800000000
 21
550.337500000
 31
0.000000000
  0
LINE
  5
A7B
330
A02
100
AcDbEntity
  8
SheetCutProfiles
100
AcDbLine
 10
942.000000000
 20
550.337500000
 30
0.000000000
 11
942.000000000
 21
572.562500000
 31
0.000000000
  0
LINE
  5
A7C
330
A02
100
AcDbEntity
  8
SheetCutProfiles
100
AcDbLine
 10
945.800000000
 20
572.562500000
 30
0.000000000
 11
942.000000000
 21
572.562500000
 31
0.000000000
  0
ARC
  5
A7D
330
A02
100
AcDbEntity
  8
SheetCutProfiles
100
AcDbCircle
 10
945.800000000
 20
574.562500000
 30
0.000000000
 40
2.000000000
100
AcDbArc
 50
-90.000000000
 51
0.000000000
  0
LINE
  5
A7E
330
A02
100
AcDbEntity
  8
SheetCutProfiles
100
AcDbLine
 10
947.800000000
 20
574.562500000
 30
0.000000000
 11
947.800000000
 21
592.787500000
 31
0.000000000
  0
ARC
  5
A7F
330
A02
100
AcDbEntity
  8
SheetCutProfiles
100
AcDbCircle
 10
945.800000000
 20
592.787500000
 30
0.000000000
 40
2.000000000
100
AcDbArc
 50
0.000000000
 51
90.000000000
  0
LINE
  5
A80
330
A02
100
AcDbEntity
  8
SheetCutProfiles
100
AcDbLine
 10
942.000000000
 20
594.787500000
 30
0.000000000
 11
945.800000000
 21
594.787500000
 31
0.000000000
  0
LINE
  5
A81
330
A02
100
AcDbEntity
  8
SheetCutProfiles
100
AcDbLine
 10
942.000000000
 20
594.787500000
 30
0.000000000
 11
942.000000000
 21
617.012500000
 31
0.000000000
  0
LINE
  5
A82
330
A02
100
AcDbEntity
  8
SheetCutProfiles
100
AcDbLine
 10
945.800000000
 20
617.012500000
 30
0.000000000
 11
942.000000000
 21
617.012500000
 31
0.000000000
  0
ARC
  5
A83
330
A02
100
AcDbEntity
  8
SheetCutProfiles
100
AcDbCircle
 10
945.800000000
 20
619.012500000
 30
0.000000000
 40
2.000000000
100
AcDbArc
 50
-90.000000000
 51
0.000000000
  0
LINE
  5
A84
330
A02
100
AcDbEntity
  8
SheetCutProfiles
100
AcDbLine
 10
947.800000000
 20
619.012500000
 30
0.000000000
 11
947.800000000
 21
637.237500000
 31
0.000000000
  0
ARC
  5
A85
330
A02
100
AcDbEntity
  8
SheetCutProfiles
100
AcDbCircle
 10
945.800000000
 20
637.237500000
 30
0.000000000
 40
2.000000000
100
AcDbArc
 50
0.000000000
 51
90.000000000
  0
LINE
  5
A86
330
A02
100
AcDbEntity
  8
SheetCutProfiles
100
AcDbLine
 10
942.000000000
 20
639.237500000
 30
0.000000000
 11
945.800000000
 21
639.237500000
 31
0.000000000
  0
LINE
  5
A87
330
A02
100
AcDbEntity
  8
SheetCutProfiles
100
AcDbLine
 10
942.000000000
 20
639.237500000
 30
0.000000000
 11
942.000000000
 21
661.462500000
 31
0.000000000
  0
LINE
  5
A88
330
A02
100
AcDbEntity
  8
SheetCutProfiles
100
AcDbLine
 10
945.800000000
 20
661.462500000
 30
0.000000000
 11
942.000000000
 21
661.462500000
 31
0.000000000
  0
ARC
  5
A89
330
A02
100
AcDbEntity
  8
SheetCutProfiles
100
AcDbCircle
 10
945.800000000
 20
663.462500000
 30
0.000000000
 40
2.000000000
100
AcDbArc
 50
-90.000000000
 51
0.000000000
  0
LINE
  5
A8A
330
A02
100
AcDbEntity
  8
SheetCutProfiles
100
AcDbLine
 10
947.800000000
 20
663.462500000
 30
0.000000000
 11
947.800000000
 21
681.687500000
 31
0.000000000
  0
ARC
  5
A8B
330
A02
100
AcDbEntity
  8
SheetCutProfiles
100
AcDbCircle
 10
945.800000000
 20
681.687500000
 30
0.000000000
 40
2.000000000
100
AcDbArc
 50
0.000000000
 51
90.000000000
  0
LINE
  5
A8C
330
A02
100
AcDbEntity
  8
SheetCutProfiles
100
AcDbLine
 10
942.000000000
 20
683.687500000
 30
0.000000000
 11
945.800000000
 21
683.687500000
 31
0.000000000
  0
LINE
  5
A8D
330
A02
100
AcDbEntity
  8
SheetCutProfiles
100
AcDbLine
 10
942.000000000
 20
683.687500000
 30
0.000000000
 11
942.000000000
 21
694.800000000
 31
0.000000000
  0
LINE
  5
A8E
330
A02
100
AcDbEntity
  8
SheetCutProfiles
100
AcDbLine
 10
13.600000000
 20
694.800000000
 30
0.000000000
 11
942.000000000
 21
694.800000000
 31
0.000000000
  0
LINE
  5
A8F
330
A02
100
AcDbEntity
  8
SheetCutProfiles
100
AcDbLine
 10
13.600000000
 20
683.687500000
 30
0.000000000
 11
13.600000000
 21
694.800000000
 31
0.000000000
  0
LINE
  5
A90
330
A02
100
AcDbEntity
  8
SheetCutProfiles
100
AcDbLine
 10
13.600000000
 20
683.687500000
 30
0.000000000
 11
2.000000000
 21
683.687500000
 31
0.000000000
  0
ARC
  5
A91
330
A02
100
AcDbEntity
  8
SheetCutProfiles
100
AcDbCircle
 10
2.000000000
 20
681.687500000
 30
0.000000000
 40
2.000000000
100
AcDbArc
 50
90.000000000
 51
180.000000000
  0
LINE
  5
A92
330
A02
100
AcDbEntity
  8
SheetCutProfiles
100
AcDbLine
 10
0.000000000
 20
663.462500000
 30
0.000000000
 11
0.000000000
 21
681.687500000
 31
0.000000000
  0
ARC
  5
A93
330
A02
100
AcDbEntity
  8
SheetCutProfiles
100
AcDbCircle
 10
2.000000000
 20
663.462500000
 30
0.000000000
 40
2.000000000
100
AcDbArc
 50
180.000000000
 51
-90.000000000
  0
LINE
  5
A94
330
A02
100
AcDbEntity
  8
SheetCutProfiles
100
AcDbLine
 10
2.000000000
 20
661.462500000
 30
0.000000000
 11
13.600000000
 21
661.462500000
 31
0.000000000
  0
LINE
  5
A95
330
A02
100
AcDbEntity
  8
SheetCutProfiles
100
AcDbLine
 10
13.600000000
 20
639.237500000
 30
0.000000000
 11
13.600000000
 21
661.462500000
 31
0.000000000
  0
LINE
  5
A96
330
A02
100
AcDbEntity
  8
SheetCutProfiles
100
AcDbLine
 10
13.600000000
 20
639.237500000
 30
0.000000000
 11
2.000000000
 21
639.237500000
 31
0.000000000
  0
ARC
  5
A97
330
A02
100
AcDbEntity
  8
SheetCutProfiles
100
AcDbCircle
 10
2.000000000
 20
637.237500000
 30
0.000000000
 40
2.000000000
100
AcDbArc
 50
90.000000000
 51
180.000000000
  0
LINE
  5
A98
330
A02
100
AcDbEntity
  8
SheetCutProfiles
100
AcDbLine
 10
0.000000000
 20
619.012500000
 30
0.000000000
 11
0.000000000
 21
637.237500000
 31
0.000000000
  0
ARC
  5
A99
330
A02
100
AcDbEntity
  8
SheetCutProfiles
100
AcDbCircle
 10
2.000000000
 20
619.012500000
 30
0.000000000
 40
2.000000000
100
AcDbArc
 50
180.000000000
 51
-90.000000000
  0
LINE
  5
A9A
330
A02
100
AcDbEntity
  8
SheetCutProfiles
100
AcDbLine
 10
2.000000000
 20
617.012500000
 30
0.000000000
 11
13.600000000
 21
617.012500000
 31
0.000000000
  0
LINE
  5
A9B
330
A02
100
AcDbEntity
  8
SheetCutProfiles
100
AcDbLine
 10
13.600000000
 20
594.787500000
 30
0.000000000
 11
13.600000000
 21
617.012500000
 31
0.000000000
  0
LINE
  5
A9C
330
A02
100
AcDbEntity
  8
SheetCutProfiles
100
AcDbLine
 10
13.600000000
 20
594.787500000
 30
0.000000000
 11
2.000000000
 21
594.787500000
 31
0.000000000
  0
ARC
  5
A9D
330
A02
100
AcDbEntity
  8
SheetCutProfiles
100
AcDbCircle
 10
2.000000000
 20
592.787500000
 30
0.000000000
 40
2.000000000
100
AcDbArc
 50
90.000000000
 51
180.000000000
  0
LINE
  5
A9E
330
A02
100
AcDbEntity
  8
SheetCutProfiles
100
AcDbLine
 10
0.000000000
 20
574.562500000
 30
0.000000000
 11
0.000000000
 21
592.787500000
 31
0.000000000
  0
ARC
  5
A9F
330
A02
100
AcDbEntity
  8
SheetCutProfiles
100
AcDbCircle
 10
2.000000000
 20
574.562500000
 30
0.000000000
 40
2.000000000
100
AcDbArc
 50
180.000000000
 51
-90.000000000
  0
LINE
  5
AA0
330
A02
100
AcDbEntity
  8
SheetCutProfiles
100
AcDbLine
 10
2.000000000
 20
572.562500000
 30
0.000000000
 11
13.600000000
 21
572.562500000
 31
0.000000000
  0
LINE
  5
AA1
330
A02
100
AcDbEntity
  8
SheetCutProfiles
100
AcDbLine
 10
13.600000000
 20
550.337500000
 30
0.000000000
 11
13.600000000
 21
572.562500000
 31
0.000000000
  0
LINE
  5
AA2
330
A02
100
AcDbEntity
  8
SheetCutProfiles
100
AcDbLine
 10
13.600000000
 20
550.337500000
 30
0.000000000
 11
2.000000000
 21
550.337500000
 31
0.000000000
  0
ARC
  5
AA3
330
A02
100
AcDbEntity
  8
SheetCutProfiles
100
AcDbCircle
 10
2.000000000
 20
548.337500000
 30
0.000000000
 40
2.000000000
100
AcDbArc
 50
90.000000000
 51
180.000000000
  0
LINE
  5
AA4
330
A02
100
AcDbEntity
  8
SheetCutProfiles
100
AcDbLine
 10
0.000000000
 20
530.112500000
 30
0.000000000
 11
0.000000000
 21
548.337500000
 31
0.000000000
  0
ARC
  5
AA5
330
A02
100
AcDbEntity
  8
SheetCutProfiles
100
AcDbCircle
 10
2.000000000
 20
530.112500000
 30
0.000000000
 40
2.000000000
100
AcDbArc
 50
180.000000000
 51
-90.000000000
  0
LINE
  5
AA6
330
A02
100
AcDbEntity
  8
SheetCutProfiles
100
AcDbLine
 10
2.000000000
 20
528.112500000
 30
0.000000000
 11
13.600000000
 21
528.112500000
 31
0.000000000
  0
LINE
  5
AA7
330
A02
100
AcDbEntity
  8
SheetCutProfiles
100
AcDbLine
 10
13.600000000
 20
517.000000000
 30
0.000000000
 11
13.600000000
 21
528.112500000
 31
0.000000000
  0
LINE
  5
AA8
330
A02
100
AcDbEntity
  8
SheetCutProfiles
100
AcDbLine
 10
13.600000000
 20
517.000000000
 30
0.000000000
 11
942.000000000
 21
517.000000000
 31
0.000000000
  0
LINE
  5
AA9
330
A02
100
AcDbEntity
  8
SheetCutProfiles
100
AcDbLine
 10
942.000000000
 20
517.000000000
 30
0.000000000
 11
942.000000000
 21
528.112500000
 31
0.000000000
  0
LINE
  5
AAA
330
A02
100
AcDbEntity
  8
SheetCutProfiles
100
AcDbLine
 10
945.800000000
 20
528.112500000
 30
0.000000000
 11
942.000000000
 21
528.112500000
 31
0.000000000
  0
ARC
  5
AAB
330
A02
100
AcDbEntity
  8
SheetCutProfiles
100
AcDbCircle
 10
945.800000000
 20
530.112500000
 30
0.000000000
 40
2.000000000
100
AcDbArc
 50
-90.000000000
 51
0.000000000
  0
LINE
  5
AAC
330
A02
100
AcDbEntity
  8
SheetCutProfiles
100
AcDbLine
 10
947.800000000
 20
530.112500000
 30
0.000000000
 11
947.800000000
 21
548.337500000
 31
0.000000000
  0
ARC
  5
AAD
330
A02
100
AcDbEntity
  8
SheetCutProfiles
100
AcDbCircle
 10
945.800000000
 20
548.337500000
 30
0.000000000
 40
2.000000000
100
AcDbArc
 50
0.000000000
 51
90.000000000
  0
LINE
  5
AAE
330
A02
100
AcDbEntity
  8
SheetCutProfiles
100
AcDbLine
 10
883.975000000
 20
535.500000000
 30
0.000000000
 11
767.925000000
 21
535.500000000
 31
0.000000000
  0
LINE
  5
AAF
330
A02
100
AcDbEntity
  8
SheetCutProfiles
100
AcDbLine
 10
883.975000000
 20
529.700000000
 30
0.000000000
 11
883.975000000
 21
535.500000000
 31
0.000000000
  0
LINE
  5
AB0
330
A02
100
AcDbEntity
  8
SheetCutProfiles
100
AcDbLine
 10
767.925000000
 20
529.700000000
 30
0.000000000
 11
883.975000000
 21
529.700000000
 31
0.000000000
  0
LINE
  5
AB1
330
A02
100
AcDbEntity
  8
SheetCutProfiles
100
AcDbLine
 10
767.925000000
 20
535.500000000
 30
0.000000000
 11
767.925000000
 21
529.700000000
 31
0.000000000
  0
LINE
  5
AB2
330
A02
100
AcDbEntity
  8
SheetCutProfiles
100
AcDbLine
 10
651.875000000
 20
535.500000000
 30
0.000000000
 11
535.825000000
 21
535.500000000
 31
0.000000000
  0
LINE
  5
AB3
330
A02
100
AcDbEntity
  8
SheetCutProfiles
100
AcDbLine
 10
651.875000000
 20
529.700000000
 30
0.000000000
 11
651.875000000
 21
535.500000000
 31
0.000000000
  0
LINE
  5
AB4
330
A02
100
AcDbEntity
  8
SheetCutProfiles
100
AcDbLine
 10
535.825000000
 20
529.700000000
 30
0.000000000
 11
651.875000000
 21
529.700000000
 31
0.000000000
  0
LINE
  5
AB5
330
A02
100
AcDbEntity
  8
SheetCutProfiles
100
AcDbLine
 10
535.825000000
 20
535.500000000
 30
0.000000000
 11
535.825000000
 21
529.700000000
 31
0.000000000
  0
CIRCLE
  5
AB6
330
A02
100
AcDbEntity
  8
SheetCutProfiles
100
AcDbCircle
 10
787.266666667
 20
659.600000000
 30
0.000000000
 40
3.000000000
  0
LINE
  5
AB7
330
A02
100
AcDbEntity
  8
SheetCutProfiles
100
AcDbLine
 10
419.775000000
 20
535.500000000
 30
0.000000000
 11
303.725000000
 21
535.500000000
 31
0.000000000
  0
LINE
  5
AB8
330
A02
100
AcDbEntity
  8
SheetCutProfiles
100
AcDbLine
 10
419.775000000
 20
529.700000000
 30
0.000000000
 11
419.775000000
 21
535.500000000
 31
0.000000000
  0
LINE
  5
AB9
330
A02
100
AcDbEntity
  8
SheetCutProfiles
100
AcDbLine
 10
303.725000000
 20
529.700000000
 30
0.000000000
 11
419.775000000
 21
529.700000000
 31
0.000000000
  0
LINE
  5
ABA
330
A02
100
AcDbEntity
  8
SheetCutProfiles
100
AcDbLine
 10
303.725000000
 20
535.500000000
 30
0.000000000
 11
303.725000000
 21
529.700000000
 31
0.000000000
  0
LINE
  5
ABB
330
A02
100
AcDbEntity
  8
SheetCutProfiles
100
AcDbLine
 10
187.675000000
 20
535.500000000
 30
0.000000000
 11
71.625000000
 21
535.500000000
 31
0.000000000
  0
LINE
  5
ABC
330
A02
100
AcDbEntity
  8
SheetCutProfiles
100
AcDbLine
 10
187.675000000
 20
529.700000000
 30
0.000000000
 11
187.675000000
 21
535.500000000
 31
0.000000000
  0
LINE
  5
ABD
330
A02
100
AcDbEntity
  8
SheetCutProfiles
100
AcDbLine
 10
71.625000000
 20
529.700000000
 30
0.000000000
 11
187.675000000
 21
529.700000000
 31
0.000000000
  0
LINE
  5
ABE
330
A02
100
AcDbEntity
  8
SheetCutProfiles
100
AcDbLine
 10
71.625000000
 20
535.500000000
 30
0.000000000
 11
71.625000000
 21
529.700000000
 31
0.000000000
  0
CIRCLE
  5
ABF
330
A02
100
AcDbEntity
  8
SheetCutProfiles
100
AcDbCircle
 10
168.333333333
 20
659.600000000
 30
0.000000000
 40
3.000000000
  0
LINE
  5
AC0
330
A02
100
AcDbEntity
  8
SheetCutProfiles
100
AcDbLine
 10
947.800000000
 20
746.725000000
 30
0.000000000
 11
959.400000000
 21
746.725000000
 31
0.000000000
  0
LINE
  5
AC1
330
A02
100
AcDbEntity
  8
SheetCutProfiles
100
AcDbLine
 10
947.800000000
 20
746.725000000
 30
0.000000000
 11
947.800000000
 21
751.875000000
 31
0.000000000
  0
LINE
  5
AC2
330
A02
100
AcDbEntity
  8
SheetCutProfiles
100
AcDbLine
 10
959.400000000
 20
751.875000000
 30
0.000000000
 11
947.800000000
 21
751.875000000
 31
0.000000000
  0
ARC
  5
AC3
330
A02
100
AcDbEntity
  8
SheetCutProfiles
100
AcDbCircle
 10
959.400000000
 20
753.875000000
 30
0.000000000
 40
2.000000000
100
AcDbArc
 50
-90.000000000
 51
0.000000000
  0
LINE
  5
AC4
330
A02
100
AcDbEntity
  8
SheetCutProfiles
100
AcDbLine
 10
961.400000000
 20
753.875000000
 30
0.000000000
 11
961.400000000
 21
755.025000000
 31
0.000000000
  0
ARC
  5
AC5
330
A02
100
AcDbEntity
  8
SheetCutProfiles
100
AcDbCircle
 10
959.400000000
 20
755.025000000
 30
0.000000000
 40
2.000000000
100
AcDbArc
 50
0.000000000
 51
90.000000000
  0
LINE
  5
AC6
330
A02
100
AcDbEntity
  8
SheetCutProfiles
100
AcDbLine
 10
947.800000000
 20
757.025000000
 30
0.000000000
 11
959.400000000
 21
757.025000000
 31
0.000000000
  0
LINE
  5
AC7
330
A02
100
AcDbEntity
  8
SheetCutProfiles
100
AcDbLine
 10
947.800000000
 20
757.025000000
 30
0.000000000
 11
947.800000000
 21
759.600000000
 31
0.000000000
  0
LINE
  5
AC8
330
A02
100
AcDbEntity
  8
SheetCutProfiles
100
AcDbLine
 10
888.925000000
 20
759.600000000
 30
0.000000000
 11
947.800000000
 21
759.600000000
 31
0.000000000
  0
LINE
  5
AC9
330
A02
100
AcDbEntity
  8
SheetCutProfiles
100
AcDbLine
 10
888.925000000
 20
759.600000000
 30
0.000000000
 11
888.925000000
 21
771.200000000
 31
0.000000000
  0
ARC
  5
ACA
330
A02
100
AcDbEntity
  8
SheetCutProfiles
100
AcDbCircle
 10
886.925000000
 20
771.200000000
 30
0.000000000
 40
2.000000000
100
AcDbArc
 50
0.000000000
 51
90.000000000
  0
LINE
  5
ACB
330
A02
100
AcDbEntity
  8
SheetCutProfiles
100
AcDbLine
 10
773.175000000
 20
773.200000000
 30
0.000000000
 11
886.925000000
 21
773.200000000
 31
0.000000000
  0
ARC
  5
ACC
330
A02
100
AcDbEntity
  8
SheetCutProfiles
100
AcDbCircle
 10
773.175000000
 20
771.200000000
 30
0.000000000
 40
2.000000000
100
AcDbArc
 50
90.000000000
 51
180.000000000
  0
LINE
  5
ACD
330
A02
100
AcDbEntity
  8
SheetCutProfiles
100
AcDbLine
 10
771.175000000
 20
771.200000000
 30
0.000000000
 11
771.175000000
 21
759.600000000
 31
0.000000000
  0
LINE
  5
ACE
330
A02
100
AcDbEntity
  8
SheetCutProfiles
100
AcDbLine
 10
653.425000000
 20
759.600000000
 30
0.000000000
 11
771.175000000
 21
759.600000000
 31
0.000000000
  0
LINE
  5
ACF
330
A02
100
AcDbEntity
  8
SheetCutProfiles
100
AcDbLine
 10
653.425000000
 20
759.600000000
 30
0.000000000
 11
653.425000000
 21
771.200000000
 31
0.000000000
  0
ARC
  5
AD0
330
A02
100
AcDbEntity
  8
SheetCutProfiles
100
AcDbCircle
 10
651.425000000
 20
771.200000000
 30
0.000000000
 40
2.000000000
100
AcDbArc
 50
0.000000000
 51
90.000000000
  0
LINE
  5
AD1
330
A02
100
AcDbEntity
  8
SheetCutProfiles
100
AcDbLine
 10
537.675000000
 20
773.200000000
 30
0.000000000
 11
651.425000000
 21
773.200000000
 31
0.000000000
  0
ARC
  5
AD2
330
A02
100
AcDbEntity
  8
SheetCutProfiles
100
AcDbCircle
 10
537.675000000
 20
771.200000000
 30
0.000000000
 40
2.000000000
100
AcDbArc
 50
90.000000000
 51
180.000000000
  0
LINE
  5
AD3
330
A02
100
AcDbEntity
  8
SheetCutProfiles
100
AcDbLine
 10
535.675000000
 20
771.200000000
 30
0.000000000
 11
535.675000000
 21
759.600000000
 31
0.000000000
  0
LINE
  5
AD4
330
A02
100
AcDbEntity
  8
SheetCutProfiles
100
AcDbLine
 10
417.925000000
 20
759.600000000
 30
0.000000000
 11
535.675000000
 21
759.600000000
 31
0.000000000
  0
LINE
  5
AD5
330
A02
100
AcDbEntity
  8
SheetCutProfiles
100
AcDbLine
 10
417.925000000
 20
759.600000000
 30
0.000000000
 11
417.925000000
 21
771.200000000
 31
0.000000000
  0
ARC
  5
AD6
330
A02
100
AcDbEntity
  8
SheetCutProfiles
100
AcDbCircle
 10
415.925000000
 20
771.200000000
 30
0.000000000
 40
2.000000000
100
AcDbArc
 50
0.000000000
 51
90.000000000
  0
LINE
  5
AD7
330
A02
100
AcDbEntity
  8
SheetCutProfiles
100
AcDbLine
 10
302.175000000
 20
773.200000000
 30
0.000000000
 11
415.925000000
 21
773.200000000
 31
0.000000000
  0
ARC
  5
AD8
330
A02
100
AcDbEntity
  8
SheetCutProfiles
100
AcDbCircle
 10
302.175000000
 20
771.200000000
 30
0.000000000
 40
2.000000000
100
AcDbArc
 50
90.000000000
 51
180.000000000
  0
LINE
  5
AD9
330
A02
100
AcDbEntity
  8
SheetCutProfiles
100
AcDbLine
 10
300.175000000
 20
771.200000000
 30
0.000000000
 11
300.175000000
 21
759.600000000
 31
0.000000000
  0
LINE
  5
ADA
330
A02
100
AcDbEntity
  8
SheetCutProfiles
100
AcDbLine
 10
182.425000000
 20
759.600000000
 30
0.000000000
 11
300.175000000
 21
759.600000000
 31
0.000000000
  0
LINE
  5
ADB
330
A02
100
AcDbEntity
  8
SheetCutProfiles
100
AcDbLine
 10
182.425000000
 20
759.600000000
 30
0.000000000
 11
182.425000000
 21
771.200000000
 31
0.000000000
  0
ARC
  5
ADC
330
A02
100
AcDbEntity
  8
SheetCutProfiles
100
AcDbCircle
 10
180.425000000
 20
771.200000000
 30
0.000000000
 40
2.000000000
100
AcDbArc
 50
0.000000000
 51
90.000000000
  0
LINE
  5
ADD
330
A02
100
AcDbEntity
  8
SheetCutProfiles
100
AcDbLine
 10
66.675000000
 20
773.200000000
 30
0.000000000
 11
180.425000000
 21
773.200000000
 31
0.000000000
  0
ARC
  5
ADE
330
A02
100
AcDbEntity
  8
SheetCutProfiles
100
AcDbCircle
 10
66.675000000
 20
771.200000000
 30
0.000000000
 40
2.000000000
100
AcDbArc
 50
90.000000000
 51
180.000000000
  0
LINE
  5
ADF
330
A02
100
AcDbEntity
  8
SheetCutProfiles
100
AcDbLine
 10
64.675000000
 20
771.200000000
 30
0.000000000
 11
64.675000000
 21
759.600000000
 31
0.000000000
  0
LINE
  5
AE0
330
A02
100
AcDbEntity
  8
SheetCutProfiles
100
AcDbLine
 10
5.800000000
 20
759.600000000
 30
0.000000000
 11
64.675000000
 21
759.600000000
 31
0.000000000
  0
LINE
  5
AE1
330
A02
100
AcDbEntity
  8
SheetCutProfiles
100
AcDbLine
 10
5.800000000
 20
757.025000000
 30
0.000000000
 11
5.800000000
 21
759.600000000
 31
0.000000000
  0
LINE
  5
AE2
330
A02
100
AcDbEntity
  8
SheetCutProfiles
100
AcDbLine
 10
5.800000000
 20
757.025000000
 30
0.000000000
 11
2.000000000
 21
757.025000000
 31
0.000000000
  0
ARC
  5
AE3
330
A02
100
AcDbEntity
  8
SheetCutProfiles
100
AcDbCircle
 10
2.000000000
 20
755.025000000
 30
0.000000000
 40
2.000000000
100
AcDbArc
 50
90.000000000
 51
180.000000000
  0
LINE
  5
AE4
330
A02
100
AcDbEntity
  8
SheetCutProfiles
100
AcDbLine
 10
0.000000000
 20
753.875000000
 30
0.000000000
 11
0.000000000
 21
755.025000000
 31
0.000000000
  0
ARC
  5
AE5
330
A02
100
AcDbEntity
  8
SheetCutProfiles
100
AcDbCircle
 10
2.000000000
 20
753.875000000
 30
0.000000000
 40
2.000000000
100
AcDbArc
 50
180.000000000
 51
-90.000000000
  0
LINE
  5
AE6
330
A02
100
AcDbEntity
  8
SheetCutProfiles
100
AcDbLine
 10
2.000000000
 20
751.875000000
 30
0.000000000
 11
5.800000000
 21
751.875000000
 31
0.000000000
  0
LINE
  5
AE7
330
A02
100
AcDbEntity
  8
SheetCutProfiles
100
AcDbLine
 10
5.800000000
 20
746.725000000
 30
0.000000000
 11
5.800000000
 21
751.875000000
 31
0.000000000
  0
LINE
  5
AE8
330
A02
100
AcDbEntity
  8
SheetCutProfiles
100
AcDbLine
 10
5.800000000
 20
746.725000000
 30
0.000000000
 11
2.000000000
 21
746.725000000
 31
0.000000000
  0
ARC
  5
AE9
330
A02
100
AcDbEntity
  8
SheetCutProfiles
100
AcDbCircle
 10
2.000000000
 20
744.725000000
 30
0.000000000
 40
2.000000000
100
AcDbArc
 50
90.000000000
 51
180.000000000
  0
LINE
  5
AEA
330
A02
100
AcDbEntity
  8
SheetCutProfiles
100
AcDbLine
 10
0.000000000
 20
743.575000000
 30
0.000000000
 11
0.000000000
 21
744.725000000
 31
0.000000000
  0
ARC
  5
AEB
330
A02
100
AcDbEntity
  8
SheetCutProfiles
100
AcDbCircle
 10
2.000000000
 20
743.575000000
 30
0.000000000
 40
2.000000000
100
AcDbArc
 50
180.000000000
 51
-90.000000000
  0
LINE
  5
AEC
330
A02
100
AcDbEntity
  8
SheetCutProfiles
100
AcDbLine
 10
2.000000000
 20
741.575000000
 30
0.000000000
 11
5.800000000
 21
741.575000000
 31
0.000000000
  0
LINE
  5
AED
330
A02
100
AcDbEntity
  8
SheetCutProfiles
100
AcDbLine
 10
5.800000000
 20
739.000000000
 30
0.000000000
 11
5.800000000
 21
741.575000000
 31
0.000000000
  0
LINE
  5
AEE
330
A02
100
AcDbEntity
  8
SheetCutProfiles
100
AcDbLine
 10
5.800000000
 20
739.000000000
 30
0.000000000
 11
947.800000000
 21
739.000000000
 31
0.000000000
  0
LINE
  5
AEF
330
A02
100
AcDbEntity
  8
SheetCutProfiles
100
AcDbLine
 10
947.800000000
 20
739.000000000
 30
0.000000000
 11
947.800000000
 21
741.575000000
 31
0.000000000
  0
LINE
  5
AF0
330
A02
100
AcDbEntity
  8
SheetCutProfiles
100
AcDbLine
 10
959.400000000
 20
741.575000000
 30
0.000000000
 11
947.800000000
 21
741.575000000
 31
0.000000000
  0
ARC
  5
AF1
330
A02
100
AcDbEntity
  8
SheetCutProfiles
100
AcDbCircle
 10
959.400000000
 20
743.575000000
 30
0.000000000
 40
2.000000000
100
AcDbArc
 50
-90.000000000
 51
0.000000000
  0
LINE
  5
AF2
330
A02
100
AcDbEntity
  8
SheetCutProfiles
100
AcDbLine
 10
961.400000000
 20
743.575000000
 30
0.000000000
 11
961.400000000
 21
744.725000000
 31
0.000000000
  0
ARC
  5
AF3
330
A02
100
AcDbEntity
  8
SheetCutProfiles
100
AcDbCircle
 10
959.400000000
 20
744.725000000
 30
0.000000000
 40
2.000000000
100
AcDbArc
 50
0.000000000
 51
90.000000000
  0
LINE
  5
AF4
330
A02
100
AcDbEntity
  8
SheetCutProfiles
100
AcDbLine
 10
13.600000000
 20
707.525000000
 30
0.000000000
 11
2.000000000
 21
707.525000000
 31
0.000000000
  0
LINE
  5
AF5
330
A02
100
AcDbEntity
  8
SheetCutProfiles
100
AcDbLine
 10
13.600000000
 20
707.525000000
 30
0.000000000
 11
13.600000000
 21
712.675000000
 31
0.000000000
  0
LINE
  5
AF6
330
A02
100
AcDbEntity
  8
SheetCutProfiles
100
AcDbLine
 10
2.000000000
 20
712.675000000
 30
0.000000000
 11
13.600000000
 21
712.675000000
 31
0.000000000
  0
ARC
  5
AF7
330
A02
100
AcDbEntity
  8
SheetCutProfiles
100
AcDbCircle
 10
2.000000000
 20
714.675000000
 30
0.000000000
 40
2.000000000
100
AcDbArc
 50
180.000000000
 51
-90.000000000
  0
LINE
  5
AF8
330
A02
100
AcDbEntity
  8
SheetCutProfiles
100
AcDbLine
 10
0.000000000
 20
714.675000000
 30
0.000000000
 11
0.000000000
 21
715.825000000
 31
0.000000000
  0
ARC
  5
AF9
330
A02
100
AcDbEntity
  8
SheetCutProfiles
100
AcDbCircle
 10
2.000000000
 20
715.825000000
 30
0.000000000
 40
2.000000000
100
AcDbArc
 50
90.000000000
 51
180.000000000
  0
LINE
  5
AFA
330
A02
100
AcDbEntity
  8
SheetCutProfiles
100
AcDbLine
 10
13.600000000
 20
717.825000000
 30
0.000000000
 11
2.000000000
 21
717.825000000
 31
0.000000000
  0
LINE
  5
AFB
330
A02
100
AcDbEntity
  8
SheetCutProfiles
100
AcDbLine
 10
13.600000000
 20
717.825000000
 30
0.000000000
 11
13.600000000
 21
720.400000000
 31
0.000000000
  0
LINE
  5
AFC
330
A02
100
AcDbEntity
  8
SheetCutProfiles
100
AcDbLine
 10
72.475000000
 20
720.400000000
 30
0.000000000
 11
13.600000000
 21
720.400000000
 31
0.000000000
  0
LINE
  5
AFD
330
A02
100
AcDbEntity
  8
SheetCutProfiles
100
AcDbLine
 10
72.475000000
 20
720.400000000
 30
0.000000000
 11
72.475000000
 21
732.000000000
 31
0.000000000
  0
ARC
  5
AFE
330
A02
100
AcDbEntity
  8
SheetCutProfiles
100
AcDbCircle
 10
74.475000000
 20
732.000000000
 30
0.000000000
 40
2.000000000
100
AcDbArc
 50
90.000000000
 51
180.000000000
  0
LINE
  5
AFF
330
A02
100
AcDbEntity
  8
SheetCutProfiles
100
AcDbLine
 10
188.225000000
 20
734.000000000
 30
0.000000000
 11
74.475000000
 21
734.000000000
 31
0.000000000
  0
ARC
  5
B00
330
A02
100
AcDbEntity
  8
SheetCutProfiles
100
AcDbCircle
 10
188.225000000
 20
732.000000000
 30
0.000000000
 40
2.000000000
100
AcDbArc
 50
0.000000000
 51
90.000000000
  0
LINE
  5
B01
330
A02
100
AcDbEntity
  8
SheetCutProfiles
100
AcDbLine
 10
190.225000000
 20
732.000000000
 30
0.000000000
 11
190.225000000
 21
720.400000000
 31
0.000000000
  0
LINE
  5
B02
330
A02
100
AcDbEntity
  8
SheetCutProfiles
100
AcDbLine
 10
307.975000000
 20
720.400000000
 30
0.000000000
 11
190.225000000
 21
720.400000000
 31
0.000000000
  0
LINE
  5
B03
330
A02
100
AcDbEntity
  8
SheetCutProfiles
100
AcDbLine
 10
307.975000000
 20
720.400000000
 30
0.000000000
 11
307.975000000
 21
732.000000000
 31
0.000000000
  0
ARC
  5
B04
330
A02
100
AcDbEntity
  8
SheetCutProfiles
100
AcDbCircle
 10
309.975000000
 20
732.000000000
 30
0.000000000
 40
2.000000000
100
AcDbArc
 50
90.000000000
 51
180.000000000
  0
LINE
  5
B05
330
A02
100
AcDbEntity
  8
SheetCutProfiles
100
AcDbLine
 10
423.725000000
 20
734.000000000
 30
0.000000000
 11
309.975000000
 21
734.000000000
 31
0.000000000
  0
ARC
  5
B06
330
A02
100
AcDbEntity
  8
SheetCutProfiles
100
AcDbCircle
 10
423.725000000
 20
732.000000000
 30
0.000000000
 40
2.000000000
100
AcDbArc
 50
0.000000000
 51
90.000000000
  0
LINE
  5
B07
330
A02
100
AcDbEntity
  8
SheetCutProfiles
100
AcDbLine
 10
425.725000000
 20
732.000000000
 30
0.000000000
 11
425.725000000
 21
720.400000000
 31
0.000000000
  0
LINE
  5
B08
330
A02
100
AcDbEntity
  8
SheetCutProfiles
100
AcDbLine
 10
543.475000000
 20
720.400000000
 30
0.000000000
 11
425.725000000
 21
720.400000000
 31
0.000000000
  0
LINE
  5
B09
330
A02
100
AcDbEntity
  8
SheetCutProfiles
100
AcDbLine
 10
543.475000000
 20
720.400000000
 30
0.000000000
 11
543.475000000
 21
732.000000000
 31
0.000000000
  0
ARC
  5
B0A
330
A02
100
AcDbEntity
  8
SheetCutProfiles
100
AcDbCircle
 10
545.475000000
 20
732.000000000
 30
0.000000000
 40
2.000000000
100
AcDbArc
 50
90.000000000
 51
180.000000000
  0
LINE
  5
B0B
330
A02
100
AcDbEntity
  8
SheetCutProfiles
100
AcDbLine
 10
659.225000000
 20
734.000000000
 30
0.000000000
 11
545.475000000
 21
734.000000000
 31
0.000000000
  0
ARC
  5
B0C
330
A02
100
AcDbEntity
  8
SheetCutProfiles
100
AcDbCircle
 10
659.225000000
 20
732.000000000
 30
0.000000000
 40
2.000000000
100
AcDbArc
 50
0.000000000
 51
90.000000000
  0
LINE
  5
B0D
330
A02
100
AcDbEntity
  8
SheetCutProfiles
100
AcDbLine
 10
661.225000000
 20
732.000000000
 30
0.000000000
 11
661.225000000
 21
720.400000000
 31
0.000000000
  0
LINE
  5
B0E
330
A02
100
AcDbEntity
  8
SheetCutProfiles
100
AcDbLine
 10
778.975000000
 20
720.400000000
 30
0.000000000
 11
661.225000000
 21
720.400000000
 31
0.000000000
  0
LINE
  5
B0F
330
A02
100
AcDbEntity
  8
SheetCutProfiles
100
AcDbLine
 10
778.975000000
 20
720.400000000
 30
0.000000000
 11
778.975000000
 21
732.000000000
 31
0.000000000
  0
ARC
  5
B10
330
A02
100
AcDbEntity
  8
SheetCutProfiles
100
AcDbCircle
 10
780.975000000
 20
732.000000000
 30
0.000000000
 40
2.000000000
100
AcDbArc
 50
90.000000000
 51
180.000000000
  0
LINE
  5
B11
330
A02
100
AcDbEntity
  8
SheetCutProfiles
100
AcDbLine
 10
894.725000000
 20
734.000000000
 30
0.000000000
 11
780.975000000
 21
734.000000000
 31
0.000000000
  0
ARC
  5
B12
330
A02
100
AcDbEntity
  8
SheetCutProfiles
100
AcDbCircle
 10
894.725000000
 20
732.000000000
 30
0.000000000
 40
2.000000000
100
AcDbArc
 50
0.000000000
 51
90.000000000
  0
LINE
  5
B13
330
A02
100
AcDbEntity
  8
SheetCutProfiles
100
AcDbLine
 10
896.725000000
 20
732.000000000
 30
0.000000000
 11
896.725000000
 21
720.400000000
 31
0.000000000
  0
LINE
  5
B14
330
A02
100
AcDbEntity
  8
SheetCutProfiles
100
AcDbLine
 10
955.600000000
 20
720.400000000
 30
0.000000000
 11
896.725000000
 21
720.400000000
 31
0.000000000
  0
LINE
  5
B15
330
A02
100
AcDbEntity
  8
SheetCutProfiles
100
AcDbLine
 10
955.600000000
 20
717.825000000
 30
0.000000000
 11
955.600000000
 21
720.400000000
 31
0.000000000
  0
LINE
  5
B16
330
A02
100
AcDbEntity
  8
SheetCutProfiles
100
AcDbLine
 10
955.600000000
 20
717.825000000
 30
0.000000000
 11
959.400000000
 21
717.825000000
 31
0.000000000
  0
ARC
  5
B17
330
A02
100
AcDbEntity
  8
SheetCutProfiles
100
AcDbCircle
 10
959.400000000
 20
715.825000000
 30
0.000000000
 40
2.000000000
100
AcDbArc
 50
0.000000000
 51
90.000000000
  0
LINE
  5
B18
330
A02
100
AcDbEntity
  8
SheetCutProfiles
100
AcDbLine
 10
961.400000000
 20
714.675000000
 30
0.000000000
 11
961.400000000
 21
715.825000000
 31
0.000000000
  0
ARC
  5
B19
330
A02
100
AcDbEntity
  8
SheetCutProfiles
100
AcDbCircle
 10
959.400000000
 20
714.675000000
 30
0.000000000
 40
2.000000000
100
AcDbArc
 50
-90.000000000
 51
0.000000000
  0
LINE
  5
B1A
330
A02
100
AcDbEntity
  8
SheetCutProfiles
100
AcDbLine
 10
959.400000000
 20
712.675000000
 30
0.000000000
 11
955.600000000
 21
712.675000000
 31
0.000000000
  0
LINE
  5
B1B
330
A02
100
AcDbEntity
  8
SheetCutProfiles
100
AcDbLine
 10
955.600000000
 20
707.525000000
 30
0.000000000
 11
955.600000000
 21
712.675000000
 31
0.000000000
  0
LINE
  5
B1C
330
A02
100
AcDbEntity
  8
SheetCutProfiles
100
AcDbLine
 10
955.600000000
 20
707.525000000
 30
0.000000000
 11
959.400000000
 21
707.525000000
 31
0.000000000
  0
ARC
  5
B1D
330
A02
100
AcDbEntity
  8
SheetCutProfiles
100
AcDbCircle
 10
959.400000000
 20
705.525000000
 30
0.000000000
 40
2.000000000
100
AcDbArc
 50
0.000000000
 51
90.000000000
  0
LINE
  5
B1E
330
A02
100
AcDbEntity
  8
SheetCutProfiles
100
AcDbLine
 10
961.400000000
 20
704.375000000
 30
0.000000000
 11
961.400000000
 21
705.525000000
 31
0.000000000
  0
ARC
  5
B1F
330
A02
100
AcDbEntity
  8
SheetCutProfiles
100
AcDbCircle
 10
959.400000000
 20
704.375000000
 30
0.000000000
 40
2.000000000
100
AcDbArc
 50
-90.000000000
 51
0.000000000
  0
LINE
  5
B20
330
A02
100
AcDbEntity
  8
SheetCutProfiles
100
AcDbLine
 10
959.400000000
 20
702.375000000
 30
0.000000000
 11
955.600000000
 21
702.375000000
 31
0.000000000
  0
LINE
  5
B21
330
A02
100
AcDbEntity
  8
SheetCutProfiles
100
AcDbLine
 10
955.600000000
 20
699.800000000
 30
0.000000000
 11
955.600000000
 21
702.375000000
 31
0.000000000
  0
LINE
  5
B22
330
A02
100
AcDbEntity
  8
SheetCutProfiles
100
AcDbLine
 10
955.600000000
 20
699.800000000
 30
0.000000000
 11
13.600000000
 21
699.800000000
 31
0.000000000
  0
LINE
  5
B23
330
A02
100
AcDbEntity
  8
SheetCutProfiles
100
AcDbLine
 10
13.600000000
 20
699.800000000
 30
0.000000000
 11
13.600000000
 21
702.375000000
 31
0.000000000
  0
LINE
  5
B24
330
A02
100
AcDbEntity
  8
SheetCutProfiles
100
AcDbLine
 10
2.000000000
 20
702.375000000
 30
0.000000000
 11
13.600000000
 21
702.375000000
 31
0.000000000
  0
ARC
  5
B25
330
A02
100
AcDbEntity
  8
SheetCutProfiles
100
AcDbCircle
 10
2.000000000
 20
704.375000000
 30
0.000000000
 40
2.000000000
100
AcDbArc
 50
180.000000000
 51
-90.000000000
  0
LINE
  5
B26
330
A02
100
AcDbEntity
  8
SheetCutProfiles
100
AcDbLine
 10
0.000000000
 20
704.375000000
 30
0.000000000
 11
0.000000000
 21
705.525000000
 31
0.000000000
  0
ARC
  5
B27
330
A02
100
AcDbEntity
  8
SheetCutProfiles
100
AcDbCircle
 10
2.000000000
 20
705.525000000
 30
0.000000000
 40
2.000000000
100
AcDbArc
 50
90.000000000
 51
180.000000000
  0
ENDSEC
  0
SECTION
  2
OBJECTS
  0
DICTIONARY
  5
F000
330
0
100
AcDbDictionary
  3
ACAD_GROUP
350
F001
  0
DICTIONARY
  5
F001
330
F000
100
AcDbDictionary
  0
ENDSEC
  0
EOF