999
FreeCAD v1.1 20260725 (Git shallow)
  0
SECTION
  2
HEADER
  9
$ACADVER
  1
AC1014
  9
$ACADMAINTVER
 70
     9
  9
$DWGCODEPAGE
  3
ANSI_1252
  9
$TEXTSTYLE
  7
STANDARD
  9
$DIMSTYLE
  2
STANDARD
  9
$DIMTXSTY
  7
STANDARD
  9
$CMLSTYLE
  2
STANDARD
  9
$LUNITS
 70
2
  9
$INSUNITS
 70
4
  9
$PEXTMAX
 10
50
 20
50
 30
50
  9
$PEXTMIN
 10
0
 20
0
 30
0
  9
$HANDSEED
  5
FFFF
  0
ENDSEC
  0
SECTION
  2
CLASSES
  0
CLASS
  1
ACDBDICTIONARYWDFLT
  2
AcDbDictionaryWithDefault
  3
ObjectDBX Classes
 90
        0
280
     0
281
     0
  0
CLASS
  1
XRECORD
  2
AcDbXrecord
  3
ObjectDBX Classes
 90
        0
280
     0
281
     0
  0
CLASS
  1
LWPOLYLINE
  2
AcDbPolyline
  3
ObjectDBX Classes
 90
        0
280
     0
281
     1
  0
ENDSEC
  0
SECTION
  2
TABLES
  0
TABLE
  2
VPORT
  5
20
330
0
100
AcDbSymbolTable
 70
     1
  0
VPORT
  5
21
330
20
100
AcDbSymbolTableRecord
100
AcDbViewportTableRecord
  2
*ACTIVE
 70
     0
  0
ENDTAB
  0
TABLE
  2
LTYPE
  5
22
330
0
100
AcDbSymbolTable
 70
     1
  0
LTYPE
  5
23
330
21
100
AcDbSymbolTableRecord
100
AcDbLinetypeTableRecord
  2
BYBLOCK
 70
     0
  3

 72
    65
 73
     0
 40
0.0
  0
LTYPE
  5
24
330
21
100
AcDbSymbolTableRecord
100
AcDbLinetypeTableRecord
  2
BYLAYER
 70
     0
  3

 72
    65
 73
     0
 40
0.0
  0
LTYPE
  5
25
330
21
100
AcDbSymbolTableRecord
100
AcDbLinetypeTableRecord
  2
CONTINUOUS
 70
     0
  3
Solid line
 72
    65
 73
     0
 40
0.0
  0
ENDTAB
  0
TABLE
  2
LAYER
  5
B70
330
0
100
AcDbSymbolTable
 70
3
  0
LAYER
  5
B71
330
B70
100
AcDbSymbolTableRecord
100
AcDbLayerTableRecord
  2
0
 70
   0
 62
   7
  6
CONTINUOUS
  0
LAYER
  5
B72
330
B70
100
AcDbSymbolTableRecord
100
AcDbLayerTableRecord
  2
none
 70
    0
 62
    7
  6
CONTINUOUS
  0
LAYER
  5
B73
330
B70
100
AcDbSymbolTableRecord
100
AcDbLayerTableRecord
  2
CutProfile
 70
    0
 62
    7
  6
CONTINUOUS
  0
ENDTAB
  0
TABLE
  2
STYLE
  5
70
330
0
100
AcDbSymbolTable
 70
     2
  0
STYLE
  5
71
330
70
100
AcDbSymbolTableRecord
100
AcDbTextStyleTableRecord
  2
STANDARD
 70
     0
 40
0.0
 41
1.0
 50
0.0
 71
     0
 42
2.5
  3
arial.ttf
  4

  0
STYLE
  5
72
330
70
100
AcDbSymbolTableRecord
100
AcDbTextStyleTableRecord
  2
ANNOTATIVE
 70
     0
 40
0.0
 41
1.0
 50
0.0
 71
     0
 42
2.5
  3
arial.ttf
  4

  0
ENDTAB
  0
TABLE
  2
VIEW
  5
73
330
0
100
AcDbSymbolTable
 70
     0
  0
ENDTAB
  0
TABLE
  2
UCS
  5
74
330
0
100
AcDbSymbolTable
 70
     0
  0
ENDTAB
  0
TABLE
  2
APPID
  5
75
330
0
100
AcDbSymbolTable
 70
     2
  0
APPID
  5
76
330
75
100
AcDbSymbolTableRecord
100
AcDbRegAppTableRecord
  2
ACAD
 70
     0
  0
APPID
  5
77
330
75
100
AcDbSymbolTableRecord
100
AcDbRegAppTableRecord
  2
ACADANNOTATIVE
 70
     0
  0
ENDTAB
  0
TABLE
  2
DIMSTYLE
  5
78
330
0
100
AcDbSymbolTable
 70
     2
  0
DIMSTYLE
105
79
330
78
100
AcDbSymbolTableRecord
100
AcDbDimStyleTableRecord
  2
STANDARD
 70
     0
  3

  4

  5

  6

  7

 40
0.0
 41
2.5
 42
0.625
 43
3.75
 44
1.25
 45
0.0
 46
0.0
 47
0.0
 48
0.0
140
2.5
141
2.5
142
0.0
143
0.03937007874016
144
1.0
145
0.0
146
1.0
147
0.625
 71
     0
 72
     0
 73
     0
 74
     0
 75
     0
 76
     0
 77
     1
 78
     8
170
     0
171
     3
172
     1
173
     0
174
     0
175
     0
176
     0
177
     0
178
     0
270
     2
271
     2
272
     2
273
     2
274
     3
340
71
275
     0
280
     0
281
     0
282
     0
283
     0
284
     8
285
     0
286
     0
287
     3
288
     0
  0
ENDTAB
  0
TABLE
  2
BLOCK_RECORD
  5
A01
330
0
100
AcDbSymbolTable
  70
5
  0
BLOCK_RECORD
  5
A02
330
A01
100
AcDbSymbolTableRecord
100
AcDbBlockTableRecord
  2
*MODEL_SPACE
  0
BLOCK_RECORD
  5
A03
330
A01
100
AcDbSymbolTableRecord
100
AcDbBlockTableRecord
  2
*PAPER_SPACE
  0
ENDTAB
  0
ENDSEC
  0
SECTION
  2
BLOCKS
  0
BLOCK
  5
A04
330
A02
100
AcDbEntity
  8
0
100
AcDbBlockBegin
  2
*MODEL_SPACE
 70
   0
 10
0
 20
0
 30
0
  3
*MODEL_SPACE
  1
 
  0
ENDBLK
  5
A05
330
A02
100
AcDbEntity
  8
0
100
AcDbBlockEnd
  0
BLOCK
  5
A06
330
A03
100
AcDbEntity
 67
1
  8
0
100
AcDbBlockBegin
  2
*PAPER_SPACE
 70
   0
 10
0
 20
0
 30
0
  3
*PAPER_SPACE
  1
 
  0
ENDBLK
  5
A07
330
A03
100
AcDbEntity
 67
    1
  8
0
100
AcDbBlockEnd
  0
ENDSEC
  0
SECTION
  2
ENTITIES
  0
LINE
  5
A08
330
A02
100
AcDbEntity
  8
CutProfile
100
AcDbLine
 10
713.681549417
 20
12.883333333
 30
0.000000000
 11
715.101410938
 21
6.441666667
 31
0.000000000
  0
LINE
  5
A09
330
A02
100
AcDbEntity
  8
CutProfile
100
AcDbLine
 10
715.101410938
 20
6.441666667
 30
0.000000000
 11
715.600000000
 21
0.000000000
 31
0.000000000
  0
LINE
  5
A0A
330
A02
100
AcDbEntity
  8
CutProfile
100
AcDbLine
 10
715.600000000
 20
0.000000000
 30
0.000000000
 11
700.691666667
 21
1.239879958
 31
0.000000000
  0
LINE
  5
A0B
330
A02
100
AcDbEntity
  8
CutProfile
100
AcDbLine
 10
700.691666667
 20
1.239879958
 30
0.000000000
 11
685.783333333
 21
4.447085729
 31
0.000000000
  0
LINE
  5
A0C
330
A02
100
AcDbEntity
  8
CutProfile
100
AcDbLine
 10
685.783333333
 20
4.447085729
 30
0.000000000
 11
670.875000000
 21
8.296100594
 31
0.000000000
  0
LINE
  5
A0D
330
A02
100
AcDbEntity
  8
CutProfile
100
AcDbLine
 10
670.875000000
 20
8.296100594
 30
0.000000000
 11
655.966666667
 21
11.196152423
 31
0.000000000
  0
LINE
  5
A0E
330
A02
100
AcDbEntity
  8
CutProfile
100
AcDbLine
 10
655.966666667
 20
11.196152423
 30
0.000000000
 11
641.058333333
 21
11.948669168
 31
0.000000000
  0
LINE
  5
A0F
330
A02
100
AcDbEntity
  8
CutProfile
100
AcDbLine
 10
641.058333333
 20
11.948669168
 30
0.000000000
 11
626.150000000
 21
10.242640687
 31
0.000000000
  0
LINE
  5
A10
330
A02
100
AcDbEntity
  8
CutProfile
100
AcDbLine
 10
626.150000000
 20
10.242640687
 30
0.000000000
 11
611.241666667
 21
6.783157153
 31
0.000000000
  0
LINE
  5
A11
330
A02
100
AcDbEntity
  8
CutProfile
100
AcDbLine
 10
611.241666667
 20
6.783157153
 30
0.000000000
 11
596.333333333
 21
3.000000000
 31
0.000000000
  0
LINE
  5
A12
330
A02
100
AcDbEntity
  8
CutProfile
100
AcDbLine
 10
596.333333333
 20
3.000000000
 30
0.000000000
 11
581.425000000
 21
0.456722805
 31
0.000000000
  0
LINE
  5
A13
330
A02
100
AcDbEntity
  8
CutProfile
100
AcDbLine
 10
581.425000000
 20
0.456722805
 30
0.000000000
 11
566.516666667
 21
0.204445042
 31
0.000000000
  0
LINE
  5
A14
330
A02
100
AcDbEntity
  8
CutProfile
100
AcDbLine
 10
566.516666667
 20
0.204445042
 30
0.000000000
 11
551.608333333
 21
2.347431426
 31
0.000000000
  0
LINE
  5
A15
330
A02
100
AcDbEntity
  8
CutProfile
100
AcDbLine
 10
521.791666667
 20
9.652568574
 30
0.000000000
 11
551.608333333
 21
2.347431426
 31
0.000000000
  0
LINE
  5
A16
330
A02
100
AcDbEntity
  8
CutProfile
100
AcDbLine
 10
521.791666667
 20
9.652568574
 30
0.000000000
 11
506.883333333
 21
11.795554958
 31
0.000000000
  0
LINE
  5
A17
330
A02
100
AcDbEntity
  8
CutProfile
100
AcDbLine
 10
506.883333333
 20
11.795554958
 30
0.000000000
 11
491.975000000
 21
11.543277195
 31
0.000000000
  0
LINE
  5
A18
330
A02
100
AcDbEntity
  8
CutProfile
100
AcDbLine
 10
491.975000000
 20
11.543277195
 30
0.000000000
 11
477.066666667
 21
9.000000000
 31
0.000000000
  0
LINE
  5
A19
330
A02
100
AcDbEntity
  8
CutProfile
100
AcDbLine
 10
477.066666667
 20
9.000000000
 30
0.000000000
 11
462.158333333
 21
5.216842847
 31
0.000000000
  0
LINE
  5
A1A
330
A02
100
AcDbEntity
  8
CutProfile
100
AcDbLine
 10
462.158333333
 20
5.216842847
 30
0.000000000
 11
447.250000000
 21
1.757359313
 31
0.000000000
  0
LINE
  5
A1B
330
A02
100
AcDbEntity
  8
CutProfile
100
AcDbLine
 10
447.250000000
 20
1.757359313
 30
0.000000000
 11
432.341666667
 21
0.051330832
 31
0.000000000
  0
LINE
  5
A1C
330
A02
100
AcDbEntity
  8
CutProfile
100
AcDbLine
 10
432.341666667
 20
0.051330832
 30
0.000000000
 11
417.433333333
 21
0.803847577
 31
0.000000000
  0
LINE
  5
A1D
330
A02
100
AcDbEntity
  8
CutProfile
100
AcDbLine
 10
417.433333333
 20
0.803847577
 30
0.000000000
 11
402.525000000
 21
3.703899406
 31
0.000000000
  0
LINE
  5
A1E
330
A02
100
AcDbEntity
  8
CutProfile
100
AcDbLine
 10
402.525000000
 20
3.703899406
 30
0.000000000
 11
387.616666667
 21
7.552914271
 31
0.000000000
  0
LINE
  5
A1F
330
A02
100
AcDbEntity
  8
CutProfile
100
AcDbLine
 10
387.616666667
 20
7.552914271
 30
0.000000000
 11
372.708333333
 21
10.760120042
 31
0.000000000
  0
LINE
  5
A20
330
A02
100
AcDbEntity
  8
CutProfile
100
AcDbLine
 10
372.708333333
 20
10.760120042
 30
0.000000000
 11
357.800000000
 21
12.000000000
 31
0.000000000
  0
LINE
  5
A21
330
A02
100
AcDbEntity
  8
CutProfile
100
AcDbLine
 10
357.800000000
 20
12.000000000
 30
0.000000000
 11
342.891666667
 21
10.760120042
 31
0.000000000
  0
LINE
  5
A22
330
A02
100
AcDbEntity
  8
CutProfile
100
AcDbLine
 10
342.891666667
 20
10.760120042
 30
0.000000000
 11
327.983333333
 21
7.552914271
 31
0.000000000
  0
LINE
  5
A23
330
A02
100
AcDbEntity
  8
CutProfile
100
AcDbLine
 10
327.983333333
 20
7.552914271
 30
0.000000000
 11
313.075000000
 21
3.703899406
 31
0.000000000
  0
LINE
  5
A24
330
A02
100
AcDbEntity
  8
CutProfile
100
AcDbLine
 10
313.075000000
 20
3.703899406
 30
0.000000000
 11
298.166666667
 21
0.803847577
 31
0.000000000
  0
LINE
  5
A25
330
A02
100
AcDbEntity
  8
CutProfile
100
AcDbLine
 10
298.166666667
 20
0.803847577
 30
0.000000000
 11
283.258333333
 21
0.051330832
 31
0.000000000
  0
LINE
  5
A26
330
A02
100
AcDbEntity
  8
CutProfile
100
AcDbLine
 10
283.258333333
 20
0.051330832
 30
0.000000000
 11
268.350000000
 21
1.757359313
 31
0.000000000
  0
LINE
  5
A27
330
A02
100
AcDbEntity
  8
CutProfile
100
AcDbLine
 10
268.350000000
 20
1.757359313
 30
0.000000000
 11
253.441666667
 21
5.216842847
 31
0.000000000
  0
LINE
  5
A28
330
A02
100
AcDbEntity
  8
CutProfile
100
AcDbLine
 10
253.441666667
 20
5.216842847
 30
0.000000000
 11
238.533333333
 21
9.000000000
 31
0.000000000
  0
LINE
  5
A29
330
A02
100
AcDbEntity
  8
CutProfile
100
AcDbLine
 10
238.533333333
 20
9.000000000
 30
0.000000000
 11
223.625000000
 21
11.543277195
 31
0.000000000
  0
LINE
  5
A2A
330
A02
100
AcDbEntity
  8
CutProfile
100
AcDbLine
 10
223.625000000
 20
11.543277195
 30
0.000000000
 11
208.716666667
 21
11.795554958
 31
0.000000000
  0
LINE
  5
A2B
330
A02
100
AcDbEntity
  8
CutProfile
100
AcDbLine
 10
208.716666667
 20
11.795554958
 30
0.000000000
 11
193.808333333
 21
9.652568574
 31
0.000000000
  0
LINE
  5
A2C
330
A02
100
AcDbEntity
  8
CutProfile
100
AcDbLine
 10
163.991666667
 20
2.347431426
 30
0.000000000
 11
193.808333333
 21
9.652568574
 31
0.000000000
  0
LINE
  5
A2D
330
A02
100
AcDbEntity
  8
CutProfile
100
AcDbLine
 10
163.991666667
 20
2.347431426
 30
0.000000000
 11
149.083333333
 21
0.204445042
 31
0.000000000
  0
LINE
  5
A2E
330
A02
100
AcDbEntity
  8
CutProfile
100
AcDbLine
 10
149.083333333
 20
0.204445042
 30
0.000000000
 11
134.175000000
 21
0.456722805
 31
0.000000000
  0
LINE
  5
A2F
330
A02
100
AcDbEntity
  8
CutProfile
100
AcDbLine
 10
134.175000000
 20
0.456722805
 30
0.000000000
 11
119.266666667
 21
3.000000000
 31
0.000000000
  0
LINE
  5
A30
330
A02
100
AcDbEntity
  8
CutProfile
100
AcDbLine
 10
119.266666667
 20
3.000000000
 30
0.000000000
 11
104.358333333
 21
6.783157153
 31
0.000000000
  0
LINE
  5
A31
330
A02
100
AcDbEntity
  8
CutProfile
100
AcDbLine
 10
104.358333333
 20
6.783157153
 30
0.000000000
 11
89.450000000
 21
10.242640687
 31
0.000000000
  0
LINE
  5
A32
330
A02
100
AcDbEntity
  8
CutProfile
100
AcDbLine
 10
89.450000000
 20
10.242640687
 30
0.000000000
 11
74.541666667
 21
11.948669168
 31
0.000000000
  0
LINE
  5
A33
330
A02
100
AcDbEntity
  8
CutProfile
100
AcDbLine
 10
74.541666667
 20
11.948669168
 30
0.000000000
 11
59.633333333
 21
11.196152423
 31
0.000000000
  0
LINE
  5
A34
330
A02
100
AcDbEntity
  8
CutProfile
100
AcDbLine
 10
59.633333333
 20
11.196152423
 30
0.000000000
 11
44.725000000
 21
8.296100594
 31
0.000000000
  0
LINE
  5
A35
330
A02
100
AcDbEntity
  8
CutProfile
100
AcDbLine
 10
44.725000000
 20
8.296100594
 30
0.000000000
 11
29.816666667
 21
4.447085729
 31
0.000000000
  0
LINE
  5
A36
330
A02
100
AcDbEntity
  8
CutProfile
100
AcDbLine
 10
29.816666667
 20
4.447085729
 30
0.000000000
 11
14.908333333
 21
1.239879958
 31
0.000000000
  0
LINE
  5
A37
330
A02
100
AcDbEntity
  8
CutProfile
100
AcDbLine
 10
14.908333333
 20
1.239879958
 30
0.000000000
 11
0.000000000
 21
0.000000000
 31
0.000000000
  0
LINE
  5
A38
330
A02
100
AcDbEntity
  8
CutProfile
100
AcDbLine
 10
0.000000000
 20
0.000000000
 30
0.000000000
 11
0.498589062
 21
6.441666667
 31
0.000000000
  0
LINE
  5
A39
330
A02
100
AcDbEntity
  8
CutProfile
100
AcDbLine
 10
0.498589062
 20
6.441666667
 30
0.000000000
 11
1.918450583
 21
12.883333333
 31
0.000000000
  0
LINE
  5
A3A
330
A02
100
AcDbEntity
  8
CutProfile
100
AcDbLine
 10
1.918450583
 20
12.883333333
 30
0.000000000
 11
4.043423518
 21
19.325000000
 31
0.000000000
  0
LINE
  5
A3B
330
A02
100
AcDbEntity
  8
CutProfile
100
AcDbLine
 10
9.056576482
 20
32.208333333
 30
0.000000000
 11
4.043423518
 21
19.325000000
 31
0.000000000
  0
LINE
  5
A3C
330
A02
100
AcDbEntity
  8
CutProfile
100
AcDbLine
 10
9.056576482
 20
32.208333333
 30
0.000000000
 11
11.181549417
 21
38.650000000
 31
0.000000000
  0
LINE
  5
A3D
330
A02
100
AcDbEntity
  8
CutProfile
100
AcDbLine
 10
11.181549417
 20
38.650000000
 30
0.000000000
 11
12.601410938
 21
45.091666667
 31
0.000000000
  0
LINE
  5
A3E
330
A02
100
AcDbEntity
  8
CutProfile
100
AcDbLine
 10
12.601410938
 20
45.091666667
 30
0.000000000
 11
13.100000000
 21
51.533333333
 31
0.000000000
  0
LINE
  5
A3F
330
A02
100
AcDbEntity
  8
CutProfile
100
AcDbLine
 10
13.100000000
 20
51.533333333
 30
0.000000000
 11
12.601410938
 21
57.975000000
 31
0.000000000
  0
LINE
  5
A40
330
A02
100
AcDbEntity
  8
CutProfile
100
AcDbLine
 10
12.601410938
 20
57.975000000
 30
0.000000000
 11
11.181549417
 21
64.416666667
 31
0.000000000
  0
LINE
  5
A41
330
A02
100
AcDbEntity
  8
CutProfile
100
AcDbLine
 10
11.181549417
 20
64.416666667
 30
0.000000000
 11
9.056576482
 21
70.858333333
 31
0.000000000
  0
LINE
  5
A42
330
A02
100
AcDbEntity
  8
CutProfile
100
AcDbLine
 10
4.043423518
 20
83.741666667
 30
0.000000000
 11
9.056576482
 21
70.858333333
 31
0.000000000
  0
LINE
  5
A43
330
A02
100
AcDbEntity
  8
CutProfile
100
AcDbLine
 10
4.043423518
 20
83.741666667
 30
0.000000000
 11
1.918450583
 21
90.183333333
 31
0.000000000
  0
LINE
  5
A44
330
A02
100
AcDbEntity
  8
CutProfile
100
AcDbLine
 10
1.918450583
 20
90.183333333
 30
0.000000000
 11
0.498589062
 21
96.625000000
 31
0.000000000
  0
LINE
  5
A45
330
A02
100
AcDbEntity
  8
CutProfile
100
AcDbLine
 10
0.498589062
 20
96.625000000
 30
0.000000000
 11
0.000000000
 21
103.066666667
 31
0.000000000
  0
LINE
  5
A46
330
A02
100
AcDbEntity
  8
CutProfile
100
AcDbLine
 10
0.000000000
 20
103.066666667
 30
0.000000000
 11
0.498589062
 21
109.508333333
 31
0.000000000
  0
LINE
  5
A47
330
A02
100
AcDbEntity
  8
CutProfile
100
AcDbLine
 10
0.498589062
 20
109.508333333
 30
0.000000000
 11
1.918450583
 21
115.950000000
 31
0.000000000
  0
LINE
  5
A48
330
A02
100
AcDbEntity
  8
CutProfile
100
AcDbLine
 10
1.918450583
 20
115.950000000
 30
0.000000000
 11
4.043423518
 21
122.391666667
 31
0.000000000
  0
LINE
  5
A49
330
A02
100
AcDbEntity
  8
CutProfile
100
AcDbLine
 10
4.043423518
 20
122.391666667
 30
0.000000000
 11
6.550000000
 21
128.833333333
 31
0.000000000
  0
LINE
  5
A4A
330
A02
100
AcDbEntity
  8
CutProfile
100
AcDbLine
 10
6.550000000
 20
128.833333333
 30
0.000000000
 11
2.464497502
 21
135.275000000
 31
0.000000000
  0
LINE
  5
A4B
330
A02
100
AcDbEntity
  8
CutProfile
100
AcDbLine
 10
2.464497502
 20
135.275000000
 30
0.000000000
 11
0.002330115
 21
141.716666667
 31
0.000000000
  0
LINE
  5
A4C
330
A02
100
AcDbEntity
  8
CutProfile
100
AcDbLine
 10
0.002330115
 20
141.716666667
 30
0.000000000
 11
0.000000000
 21
148.158333333
 31
0.000000000
  0
LINE
  5
A4D
330
A02
100
AcDbEntity
  8
CutProfile
100
AcDbLine
 10
0.000000000
 20
161.041666667
 30
0.000000000
 11
0.000000000
 21
148.158333333
 31
0.000000000
  0
LINE
  5
A4E
330
A02
100
AcDbEntity
  8
CutProfile
100
AcDbLine
 10
0.000000000
 20
161.041666667
 30
0.000000000
 11
0.002330115
 21
167.483333333
 31
0.000000000
  0
LINE
  5
A4F
330
A02
100
AcDbEntity
  8
CutProfile
100
AcDbLine
 10
0.002330115
 20
167.483333333
 30
0.000000000
 11
2.464497502
 21
173.925000000
 31
0.000000000
  0
LINE
  5
A50
330
A02
100
AcDbEntity
  8
CutProfile
100
AcDbLine
 10
2.464497502
 20
173.925000000
 30
0.000000000
 11
6.550000000
 21
180.366666667
 31
0.000000000
  0
LINE
  5
A51
330
A02
100
AcDbEntity
  8
CutProfile
100
AcDbLine
 10
6.550000000
 20
180.366666667
 30
0.000000000
 11
4.043423518
 21
186.808333333
 31
0.000000000
  0
LINE
  5
A52
330
A02
100
AcDbEntity
  8
CutProfile
100
AcDbLine
 10
4.043423518
 20
186.808333333
 30
0.000000000
 11
1.918450583
 21
193.250000000
 31
0.000000000
  0
LINE
  5
A53
330
A02
100
AcDbEntity
  8
CutProfile
100
AcDbLine
 10
1.918450583
 20
193.250000000
 30
0.000000000
 11
0.498589062
 21
199.691666667
 31
0.000000000
  0
LINE
  5
A54
330
A02
100
AcDbEntity
  8
CutProfile
100
AcDbLine
 10
0.498589062
 20
199.691666667
 30
0.000000000
 11
0.000000000
 21
206.133333333
 31
0.000000000
  0
LINE
  5
A55
330
A02
100
AcDbEntity
  8
CutProfile
100
AcDbLine
 10
0.000000000
 20
206.133333333
 30
0.000000000
 11
0.498589062
 21
212.575000000
 31
0.000000000
  0
LINE
  5
A56
330
A02
100
AcDbEntity
  8
CutProfile
100
AcDbLine
 10
0.498589062
 20
212.575000000
 30
0.000000000
 11
1.918450583
 21
219.016666667
 31
0.000000000
  0
LINE
  5
A57
330
A02
100
AcDbEntity
  8
CutProfile
100
AcDbLine
 10
1.918450583
 20
219.016666667
 30
0.000000000
 11
4.043423518
 21
225.458333333
 31
0.000000000
  0
LINE
  5
A58
330
A02
100
AcDbEntity
  8
CutProfile
100
AcDbLine
 10
9.056576482
 20
238.341666667
 30
0.000000000
 11
4.043423518
 21
225.458333333
 31
0.000000000
  0
LINE
  5
A59
330
A02
100
AcDbEntity
  8
CutProfile
100
AcDbLine
 10
9.056576482
 20
238.341666667
 30
0.000000000
 11
11.181549417
 21
244.783333333
 31
0.000000000
  0
LINE
  5
A5A
330
A02
100
AcDbEntity
  8
CutProfile
100
AcDbLine
 10
11.181549417
 20
244.783333333
 30
0.000000000
 11
12.601410938
 21
251.225000000
 31
0.000000000
  0
LINE
  5
A5B
330
A02
100
AcDbEntity
  8
CutProfile
100
AcDbLine
 10
12.601410938
 20
251.225000000
 30
0.000000000
 11
13.100000000
 21
257.666666667
 31
0.000000000
  0
LINE
  5
A5C
330
A02
100
AcDbEntity
  8
CutProfile
100
AcDbLine
 10
13.100000000
 20
257.666666667
 30
0.000000000
 11
12.601410938
 21
264.108333333
 31
0.000000000
  0
LINE
  5
A5D
330
A02
100
AcDbEntity
  8
CutProfile
100
AcDbLine
 10
12.601410938
 20
264.108333333
 30
0.000000000
 11
11.181549417
 21
270.550000000
 31
0.000000000
  0
LINE
  5
A5E
330
A02
100
AcDbEntity
  8
CutProfile
100
AcDbLine
 10
11.181549417
 20
270.550000000
 30
0.000000000
 11
9.056576482
 21
276.991666667
 31
0.000000000
  0
LINE
  5
A5F
330
A02
100
AcDbEntity
  8
CutProfile
100
AcDbLine
 10
4.043423518
 20
289.875000000
 30
0.000000000
 11
9.056576482
 21
276.991666667
 31
0.000000000
  0
LINE
  5
A60
330
A02
100
AcDbEntity
  8
CutProfile
100
AcDbLine
 10
4.043423518
 20
289.875000000
 30
0.000000000
 11
1.918450583
 21
296.316666667
 31
0.000000000
  0
LINE
  5
A61
330
A02
100
AcDbEntity
  8
CutProfile
100
AcDbLine
 10
1.918450583
 20
296.316666667
 30
0.000000000
 11
0.498589062
 21
302.758333333
 31
0.000000000
  0
LINE
  5
A62
330
A02
100
AcDbEntity
  8
CutProfile
100
AcDbLine
 10
0.498589062
 20
302.758333333
 30
0.000000000
 11
0.000000000
 21
309.200000000
 31
0.000000000
  0
LINE
  5
A63
330
A02
100
AcDbEntity
  8
CutProfile
100
AcDbLine
 10
0.000000000
 20
309.200000000
 30
0.000000000
 11
14.908333333
 21
307.960120042
 31
0.000000000
  0
LINE
  5
A64
330
A02
100
AcDbEntity
  8
CutProfile
100
AcDbLine
 10
14.908333333
 20
307.960120042
 30
0.000000000
 11
29.816666667
 21
304.752914271
 31
0.000000000
  0
LINE
  5
A65
330
A02
100
AcDbEntity
  8
CutProfile
100
AcDbLine
 10
29.816666667
 20
304.752914271
 30
0.000000000
 11
44.725000000
 21
300.903899406
 31
0.000000000
  0
LINE
  5
A66
330
A02
100
AcDbEntity
  8
CutProfile
100
AcDbLine
 10
44.725000000
 20
300.903899406
 30
0.000000000
 11
59.633333333
 21
298.003847577
 31
0.000000000
  0
LINE
  5
A67
330
A02
100
AcDbEntity
  8
CutProfile
100
AcDbLine
 10
59.633333333
 20
298.003847577
 30
0.000000000
 11
74.541666667
 21
297.251330832
 31
0.000000000
  0
LINE
  5
A68
330
A02
100
AcDbEntity
  8
CutProfile
100
AcDbLine
 10
74.541666667
 20
297.251330832
 30
0.000000000
 11
89.450000000
 21
298.957359313
 31
0.000000000
  0
LINE
  5
A69
330
A02
100
AcDbEntity
  8
CutProfile
100
AcDbLine
 10
89.450000000
 20
298.957359313
 30
0.000000000
 11
104.358333333
 21
302.416842847
 31
0.000000000
  0
LINE
  5
A6A
330
A02
100
AcDbEntity
  8
CutProfile
100
AcDbLine
 10
104.358333333
 20
302.416842847
 30
0.000000000
 11
119.266666667
 21
306.200000000
 31
0.000000000
  0
LINE
  5
A6B
330
A02
100
AcDbEntity
  8
CutProfile
100
AcDbLine
 10
119.266666667
 20
306.200000000
 30
0.000000000
 11
134.175000000
 21
308.743277195
 31
0.000000000
  0
LINE
  5
A6C
330
A02
100
AcDbEntity
  8
CutProfile
100
AcDbLine
 10
134.175000000
 20
308.743277195
 30
0.000000000
 11
149.083333333
 21
308.995554958
 31
0.000000000
  0
LINE
  5
A6D
330
A02
100
AcDbEntity
  8
CutProfile
100
AcDbLine
 10
149.083333333
 20
308.995554958
 30
0.000000000
 11
163.991666667
 21
306.852568574
 31
0.000000000
  0
LINE
  5
A6E
330
A02
100
AcDbEntity
  8
CutProfile
100
AcDbLine
 10
193.808333333
 20
299.547431426
 30
0.000000000
 11
163.991666667
 21
306.852568574
 31
0.000000000
  0
LINE
  5
A6F
330
A02
100
AcDbEntity
  8
CutProfile
100
AcDbLine
 10
193.808333333
 20
299.547431426
 30
0.000000000
 11
208.716666667
 21
297.404445042
 31
0.000000000
  0
LINE
  5
A70
330
A02
100
AcDbEntity
  8
CutProfile
100
AcDbLine
 10
208.716666667
 20
297.404445042
 30
0.000000000
 11
223.625000000
 21
297.656722805
 31
0.000000000
  0
LINE
  5
A71
330
A02
100
AcDbEntity
  8
CutProfile
100
AcDbLine
 10
223.625000000
 20
297.656722805
 30
0.000000000
 11
238.533333333
 21
300.200000000
 31
0.000000000
  0
LINE
  5
A72
330
A02
100
AcDbEntity
  8
CutProfile
100
AcDbLine
 10
238.533333333
 20
300.200000000
 30
0.000000000
 11
253.441666667
 21
303.983157153
 31
0.000000000
  0
LINE
  5
A73
330
A02
100
AcDbEntity
  8
CutProfile
100
AcDbLine
 10
253.441666667
 20
303.983157153
 30
0.000000000
 11
268.350000000
 21
307.442640687
 31
0.000000000
  0
LINE
  5
A74
330
A02
100
AcDbEntity
  8
CutProfile
100
AcDbLine
 10
268.350000000
 20
307.442640687
 30
0.000000000
 11
282.931426985
 21
309.111259786
 31
0.000000000
  0
LINE
  5
A75
330
A02
100
AcDbEntity
  8
CutProfile
100
AcDbLine
 10
284.176624995
 20
308.083333333
 30
0.000000000
 11
282.931426985
 21
309.111259786
 31
0.000000000
  0
LINE
  5
A76
330
A02
100
AcDbEntity
  8
CutProfile
100
AcDbLine
 10
285.433708646
 20
307.025000000
 30
0.000000000
 11
284.176624995
 21
308.083333333
 31
0.000000000
  0
LINE
  5
A77
330
A02
100
AcDbEntity
  8
CutProfile
100
AcDbLine
 10
286.653801686
 20
305.966666667
 30
0.000000000
 11
285.433708646
 21
307.025000000
 31
0.000000000
  0
LINE
  5
A78
330
A02
100
AcDbEntity
  8
CutProfile
100
AcDbLine
 10
287.825372237
 20
304.908333333
 30
0.000000000
 11
286.653801686
 21
305.966666667
 31
0.000000000
  0
LINE
  5
A79
330
A02
100
AcDbEntity
  8
CutProfile
100
AcDbLine
 10
288.937556152
 20
303.850000000
 30
0.000000000
 11
287.825372237
 21
304.908333333
 31
0.000000000
  0
LINE
  5
A7A
330
A02
100
AcDbEntity
  8
CutProfile
100
AcDbLine
 10
289.980303578
 20
302.791666667
 30
0.000000000
 11
288.937556152
 21
303.850000000
 31
0.000000000
  0
LINE
  5
A7B
330
A02
100
AcDbEntity
  8
CutProfile
100
AcDbLine
 10
290.944512467
 20
301.733333333
 30
0.000000000
 11
289.980303578
 21
302.791666667
 31
0.000000000
  0
LINE
  5
A7C
330
A02
100
AcDbEntity
  8
CutProfile
100
AcDbLine
 10
291.822146884
 20
300.675000000
 30
0.000000000
 11
290.944512467
 21
301.733333333
 31
0.000000000
  0
LINE
  5
A7D
330
A02
100
AcDbEntity
  8
CutProfile
100
AcDbLine
 10
292.606338272
 20
299.616666667
 30
0.000000000
 11
291.822146884
 21
300.675000000
 31
0.000000000
  0
LINE
  5
A7E
330
A02
100
AcDbEntity
  8
CutProfile
100
AcDbLine
 10
293.291468081
 20
298.558333333
 30
0.000000000
 11
292.606338272
 21
299.616666667
 31
0.000000000
  0
LINE
  5
A7F
330
A02
100
AcDbEntity
  8
CutProfile
100
AcDbLine
 10
293.873230509
 20
297.500000000
 30
0.000000000
 11
293.291468081
 21
298.558333333
 31
0.000000000
  0
LINE
  5
A80
330
A02
100
AcDbEntity
  8
CutProfile
100
AcDbLine
 10
294.348674414
 20
296.441666667
 30
0.000000000
 11
293.873230509
 21
297.500000000
 31
0.000000000
  0
LINE
  5
A81
330
A02
100
AcDbEntity
  8
CutProfile
100
AcDbLine
 10
294.716223818
 20
295.383333333
 30
0.000000000
 11
294.348674414
 21
296.441666667
 31
0.000000000
  0
LINE
  5
A82
330
A02
100
AcDbEntity
  8
CutProfile
100
AcDbLine
 10
294.975676789
 20
294.325000000
 30
0.000000000
 11
294.716223818
 21
295.383333333
 31
0.000000000
  0
LINE
  5
A83
330
A02
100
AcDbEntity
  8
CutProfile
100
AcDbLine
 10
295.128182833
 20
293.266666667
 30
0.000000000
 11
294.975676789
 21
294.325000000
 31
0.000000000
  0
LINE
  5
A84
330
A02
100
AcDbEntity
  8
CutProfile
100
AcDbLine
 10
295.176199285
 20
292.208333333
 30
0.000000000
 11
295.128182833
 21
293.266666667
 31
0.000000000
  0
LINE
  5
A85
330
A02
100
AcDbEntity
  8
CutProfile
100
AcDbLine
 10
295.123427577
 20
291.150000000
 30
0.000000000
 11
295.176199285
 21
292.208333333
 31
0.000000000
  0
LINE
  5
A86
330
A02
100
AcDbEntity
  8
CutProfile
100
AcDbLine
 10
294.974730529
 20
290.091666667
 30
0.000000000
 11
295.123427577
 21
291.150000000
 31
0.000000000
  0
LINE
  5
A87
330
A02
100
AcDbEntity
  8
CutProfile
100
AcDbLine
 10
294.736032194
 20
289.033333333
 30
0.000000000
 11
294.974730529
 21
290.091666667
 31
0.000000000
  0
LINE
  5
A88
330
A02
100
AcDbEntity
  8
CutProfile
100
AcDbLine
 10
294.414202020
 20
287.975000000
 30
0.000000000
 11
294.736032194
 21
289.033333333
 31
0.000000000
  0
LINE
  5
A89
330
A02
100
AcDbEntity
  8
CutProfile
100
AcDbLine
 10
294.016925384
 20
286.916666667
 30
0.000000000
 11
294.414202020
 21
287.975000000
 31
0.000000000
  0
LINE
  5
A8A
330
A02
100
AcDbEntity
  8
CutProfile
100
AcDbLine
 10
293.552562764
 20
285.858333333
 30
0.000000000
 11
294.016925384
 21
286.916666667
 31
0.000000000
  0
LINE
  5
A8B
330
A02
100
AcDbEntity
  8
CutProfile
100
AcDbLine
 10
293.030000000
 20
284.800000000
 30
0.000000000
 11
293.552562764
 21
285.858333333
 31
0.000000000
  0
LINE
  5
A8C
330
A02
100
AcDbEntity
  8
CutProfile
100
AcDbLine
 10
292.458492221
 20
283.741666667
 30
0.000000000
 11
293.030000000
 21
284.800000000
 31
0.000000000
  0
LINE
  5
A8D
330
A02
100
AcDbEntity
  8
CutProfile
100
AcDbLine
 10
291.847504147
 20
282.683333333
 30
0.000000000
 11
292.458492221
 21
283.741666667
 31
0.000000000
  0
LINE
  5
A8E
330
A02
100
AcDbEntity
  8
CutProfile
100
AcDbLine
 10
291.206549490
 20
281.625000000
 30
0.000000000
 11
291.847504147
 21
282.683333333
 31
0.000000000
  0
LINE
  5
A8F
330
A02
100
AcDbEntity
  8
CutProfile
100
AcDbLine
 10
290.545032194
 20
280.566666667
 30
0.000000000
 11
291.206549490
 21
281.625000000
 31
0.000000000
  0
LINE
  5
A90
330
A02
100
AcDbEntity
  8
CutProfile
100
AcDbLine
 10
289.872092231
 20
279.508333333
 30
0.000000000
 11
290.545032194
 21
280.566666667
 31
0.000000000
  0
LINE
  5
A91
330
A02
100
AcDbEntity
  8
CutProfile
100
AcDbLine
 10
289.196458537
 20
278.450000000
 30
0.000000000
 11
289.872092231
 21
279.508333333
 31
0.000000000
  0
LINE
  5
A92
330
A02
100
AcDbEntity
  8
CutProfile
100
AcDbLine
 10
288.526311587
 20
277.391666667
 30
0.000000000
 11
289.196458537
 21
278.450000000
 31
0.000000000
  0
LINE
  5
A93
330
A02
100
AcDbEntity
  8
CutProfile
100
AcDbLine
 10
287.869157898
 20
276.333333333
 30
0.000000000
 11
288.526311587
 21
277.391666667
 31
0.000000000
  0
LINE
  5
A94
330
A02
100
AcDbEntity
  8
CutProfile
100
AcDbLine
 10
287.231718548
 20
275.275000000
 30
0.000000000
 11
287.869157898
 21
276.333333333
 31
0.000000000
  0
LINE
  5
A95
330
A02
100
AcDbEntity
  8
CutProfile
100
AcDbLine
 10
286.619833542
 20
274.216666667
 30
0.000000000
 11
287.231718548
 21
275.275000000
 31
0.000000000
  0
LINE
  5
A96
330
A02
100
AcDbEntity
  8
CutProfile
100
AcDbLine
 10
286.038383585
 20
273.158333333
 30
0.000000000
 11
286.619833542
 21
274.216666667
 31
0.000000000
  0
LINE
  5
A97
330
A02
100
AcDbEntity
  8
CutProfile
100
AcDbLine
 10
285.491230509
 20
272.100000000
 30
0.000000000
 11
286.038383585
 21
273.158333333
 31
0.000000000
  0
LINE
  5
A98
330
A02
100
AcDbEntity
  8
CutProfile
100
AcDbLine
 10
284.981177253
 20
271.041666667
 30
0.000000000
 11
285.491230509
 21
272.100000000
 31
0.000000000
  0
LINE
  5
A99
330
A02
100
AcDbEntity
  8
CutProfile
100
AcDbLine
 10
284.509947996
 20
269.983333333
 30
0.000000000
 11
284.981177253
 21
271.041666667
 31
0.000000000
  0
LINE
  5
A9A
330
A02
100
AcDbEntity
  8
CutProfile
100
AcDbLine
 10
284.078188643
 20
268.925000000
 30
0.000000000
 11
284.509947996
 21
269.983333333
 31
0.000000000
  0
LINE
  5
A9B
330
A02
100
AcDbEntity
  8
CutProfile
100
AcDbLine
 10
283.685487533
 20
267.866666667
 30
0.000000000
 11
284.078188643
 21
268.925000000
 31
0.000000000
  0
LINE
  5
A9C
330
A02
100
AcDbEntity
  8
CutProfile
100
AcDbLine
 10
283.330415880
 20
266.808333333
 30
0.000000000
 11
283.685487533
 21
267.866666667
 31
0.000000000
  0
LINE
  5
A9D
330
A02
100
AcDbEntity
  8
CutProfile
100
AcDbLine
 10
283.010587112
 20
265.750000000
 30
0.000000000
 11
283.330415880
 21
266.808333333
 31
0.000000000
  0
LINE
  5
A9E
330
A02
100
AcDbEntity
  8
CutProfile
100
AcDbLine
 10
282.722733939
 20
264.691666667
 30
0.000000000
 11
283.010587112
 21
265.750000000
 31
0.000000000
  0
LINE
  5
A9F
330
A02
100
AcDbEntity
  8
CutProfile
100
AcDbLine
 10
282.462801686
 20
263.633333333
 30
0.000000000
 11
282.722733939
 21
264.691666667
 31
0.000000000
  0
LINE
  5
AA0
330
A02
100
AcDbEntity
  8
CutProfile
100
AcDbLine
 10
282.226056116
 20
262.575000000
 30
0.000000000
 11
282.462801686
 21
263.633333333
 31
0.000000000
  0
LINE
  5
AA1
330
A02
100
AcDbEntity
  8
CutProfile
100
AcDbLine
 10
282.007203759
 20
261.516666667
 30
0.000000000
 11
282.226056116
 21
262.575000000
 31
0.000000000
  0
LINE
  5
AA2
330
A02
100
AcDbEntity
  8
CutProfile
100
AcDbLine
 10
281.800522496
 20
260.458333333
 30
0.000000000
 11
282.007203759
 21
261.516666667
 31
0.000000000
  0
LINE
  5
AA3
330
A02
100
AcDbEntity
  8
CutProfile
100
AcDbLine
 10
281.600000000
 20
259.400000000
 30
0.000000000
 11
281.800522496
 21
260.458333333
 31
0.000000000
  0
LINE
  5
AA4
330
A02
100
AcDbEntity
  8
CutProfile
100
AcDbLine
 10
284.775000000
 20
258.706314413
 30
0.000000000
 11
281.600000000
 21
259.400000000
 31
0.000000000
  0
LINE
  5
AA5
330
A02
100
AcDbEntity
  8
CutProfile
100
AcDbLine
 10
287.950000000
 20
258.297986365
 30
0.000000000
 11
284.775000000
 21
258.706314413
 31
0.000000000
  0
LINE
  5
AA6
330
A02
100
AcDbEntity
  8
CutProfile
100
AcDbLine
 10
291.125000000
 20
258.116338857
 30
0.000000000
 11
287.950000000
 21
258.297986365
 31
0.000000000
  0
LINE
  5
AA7
330
A02
100
AcDbEntity
  8
CutProfile
100
AcDbLine
 10
294.300000000
 20
258.073555556
 30
0.000000000
 11
291.125000000
 21
258.116338857
 31
0.000000000
  0
LINE
  5
AA8
330
A02
100
AcDbEntity
  8
CutProfile
100
AcDbLine
 10
297.475000000
 20
258.066050032
 30
0.000000000
 11
294.300000000
 21
258.073555556
 31
0.000000000
  0
LINE
  5
AA9
330
A02
100
AcDbEntity
  8
CutProfile
100
AcDbLine
 10
300.650000000
 20
257.990235857
 30
0.000000000
 11
297.475000000
 21
258.066050032
 31
0.000000000
  0
LINE
  5
AAA
330
A02
100
AcDbEntity
  8
CutProfile
100
AcDbLine
 10
303.825000000
 20
257.758296698
 30
0.000000000
 11
300.650000000
 21
257.990235857
 31
0.000000000
  0
LINE
  5
AAB
330
A02
100
AcDbEntity
  8
CutProfile
100
AcDbLine
 10
307.000000000
 20
257.311555556
 30
0.000000000
 11
303.825000000
 21
257.758296698
 31
0.000000000
  0
LINE
  5
AAC
330
A02
100
AcDbEntity
  8
CutProfile
100
AcDbLine
 10
310.175000000
 20
256.629407809
 30
0.000000000
 11
307.000000000
 21
257.311555556
 31
0.000000000
  0
LINE
  5
AAD
330
A02
100
AcDbEntity
  8
CutProfile
100
AcDbLine
 10
313.350000000
 20
255.732458079
 30
0.000000000
 11
310.175000000
 21
256.629407809
 31
0.000000000
  0
LINE
  5
AAE
330
A02
100
AcDbEntity
  8
CutProfile
100
AcDbLine
 10
316.525000000
 20
254.679383365
 30
0.000000000
 11
313.350000000
 21
255.732458079
 31
0.000000000
  0
LINE
  5
AAF
330
A02
100
AcDbEntity
  8
CutProfile
100
AcDbLine
 10
319.700000000
 20
253.558000000
 30
0.000000000
 11
316.525000000
 21
254.679383365
 31
0.000000000
  0
LINE
  5
AB0
330
A02
100
AcDbEntity
  8
CutProfile
100
AcDbLine
 10
322.875000000
 20
252.471894413
 30
0.000000000
 11
319.700000000
 21
253.558000000
 31
0.000000000
  0
LINE
  5
AB1
330
A02
100
AcDbEntity
  8
CutProfile
100
AcDbLine
 10
326.050000000
 20
251.524653032
 30
0.000000000
 11
322.875000000
 21
252.471894413
 31
0.000000000
  0
LINE
  5
AB2
330
A02
100
AcDbEntity
  8
CutProfile
100
AcDbLine
 10
329.225000000
 20
250.804092191
 30
0.000000000
 11
326.050000000
 21
251.524653032
 31
0.000000000
  0
LINE
  5
AB3
330
A02
100
AcDbEntity
  8
CutProfile
100
AcDbLine
 10
332.400000000
 20
250.368888889
 30
0.000000000
 11
329.225000000
 21
250.804092191
 31
0.000000000
  0
LINE
  5
AB4
330
A02
100
AcDbEntity
  8
CutProfile
100
AcDbLine
 10
335.575000000
 20
250.239647747
 30
0.000000000
 11
332.400000000
 21
250.368888889
 31
0.000000000
  0
LINE
  5
AB5
330
A02
100
AcDbEntity
  8
CutProfile
100
AcDbLine
 10
338.750000000
 20
250.395764143
 30
0.000000000
 11
335.575000000
 21
250.239647747
 31
0.000000000
  0
LINE
  5
AB6
330
A02
100
AcDbEntity
  8
CutProfile
100
AcDbLine
 10
341.925000000
 20
250.778561079
 30
0.000000000
 11
338.750000000
 21
250.395764143
 31
0.000000000
  0
LINE
  5
AB7
330
A02
100
AcDbEntity
  8
CutProfile
100
AcDbLine
 10
345.100000000
 20
251.300222222
 30
0.000000000
 11
341.925000000
 21
250.778561079
 31
0.000000000
  0
LINE
  5
AB8
330
A02
100
AcDbEntity
  8
CutProfile
100
AcDbLine
 10
348.275000000
 20
251.857161143
 30
0.000000000
 11
345.100000000
 21
251.300222222
 31
0.000000000
  0
LINE
  5
AB9
330
A02
100
AcDbEntity
  8
CutProfile
100
AcDbLine
 10
351.450000000
 20
252.345791413
 30
0.000000000
 11
348.275000000
 21
251.857161143
 31
0.000000000
  0
LINE
  5
ABA
330
A02
100
AcDbEntity
  8
CutProfile
100
AcDbLine
 10
354.625000000
 20
252.678296698
 30
0.000000000
 11
351.450000000
 21
252.345791413
 31
0.000000000
  0
LINE
  5
ABB
330
A02
100
AcDbEntity
  8
CutProfile
100
AcDbLine
 10
357.800000000
 20
252.796000000
 30
0.000000000
 11
354.625000000
 21
252.678296698
 31
0.000000000
  0
LINE
  5
ABC
330
A02
100
AcDbEntity
  8
CutProfile
100
AcDbLine
 10
360.975000000
 20
252.678296698
 30
0.000000000
 11
357.800000000
 21
252.796000000
 31
0.000000000
  0
LINE
  5
ABD
330
A02
100
AcDbEntity
  8
CutProfile
100
AcDbLine
 10
364.150000000
 20
252.345791413
 30
0.000000000
 11
360.975000000
 21
252.678296698
 31
0.000000000
  0
LINE
  5
ABE
330
A02
100
AcDbEntity
  8
CutProfile
100
AcDbLine
 10
367.325000000
 20
251.857161143
 30
0.000000000
 11
364.150000000
 21
252.345791413
 31
0.000000000
  0
LINE
  5
ABF
330
A02
100
AcDbEntity
  8
CutProfile
100
AcDbLine
 10
370.500000000
 20
251.300222222
 30
0.000000000
 11
367.325000000
 21
251.857161143
 31
0.000000000
  0
LINE
  5
AC0
330
A02
100
AcDbEntity
  8
CutProfile
100
AcDbLine
 10
373.675000000
 20
250.778561079
 30
0.000000000
 11
370.500000000
 21
251.300222222
 31
0.000000000
  0
LINE
  5
AC1
330
A02
100
AcDbEntity
  8
CutProfile
100
AcDbLine
 10
376.850000000
 20
250.395764143
 30
0.000000000
 11
373.675000000
 21
250.778561079
 31
0.000000000
  0
LINE
  5
AC2
330
A02
100
AcDbEntity
  8
CutProfile
100
AcDbLine
 10
380.025000000
 20
250.239647747
 30
0.000000000
 11
376.850000000
 21
250.395764143
 31
0.000000000
  0
LINE
  5
AC3
330
A02
100
AcDbEntity
  8
CutProfile
100
AcDbLine
 10
383.200000000
 20
250.368888889
 30
0.000000000
 11
380.025000000
 21
250.239647747
 31
0.000000000
  0
LINE
  5
AC4
330
A02
100
AcDbEntity
  8
CutProfile
100
AcDbLine
 10
386.375000000
 20
250.804092191
 30
0.000000000
 11
383.200000000
 21
250.368888889
 31
0.000000000
  0
LINE
  5
AC5
330
A02
100
AcDbEntity
  8
CutProfile
100
AcDbLine
 10
389.550000000
 20
251.524653032
 30
0.000000000
 11
386.375000000
 21
250.804092191
 31
0.000000000
  0
LINE
  5
AC6
330
A02
100
AcDbEntity
  8
CutProfile
100
AcDbLine
 10
392.725000000
 20
252.471894413
 30
0.000000000
 11
389.550000000
 21
251.524653032
 31
0.000000000
  0
LINE
  5
AC7
330
A02
100
AcDbEntity
  8
CutProfile
100
AcDbLine
 10
395.900000000
 20
253.558000000
 30
0.000000000
 11
392.725000000
 21
252.471894413
 31
0.000000000
  0
LINE
  5
AC8
330
A02
100
AcDbEntity
  8
CutProfile
100
AcDbLine
 10
399.075000000
 20
254.679383365
 30
0.000000000
 11
395.900000000
 21
253.558000000
 31
0.000000000
  0
LINE
  5
AC9
330
A02
100
AcDbEntity
  8
CutProfile
100
AcDbLine
 10
402.250000000
 20
255.732458079
 30
0.000000000
 11
399.075000000
 21
254.679383365
 31
0.000000000
  0
LINE
  5
ACA
330
A02
100
AcDbEntity
  8
CutProfile
100
AcDbLine
 10
405.425000000
 20
256.629407809
 30
0.000000000
 11
402.250000000
 21
255.732458079
 31
0.000000000
  0
LINE
  5
ACB
330
A02
100
AcDbEntity
  8
CutProfile
100
AcDbLine
 10
408.600000000
 20
257.311555556
 30
0.000000000
 11
405.425000000
 21
256.629407809
 31
0.000000000
  0
LINE
  5
ACC
330
A02
100
AcDbEntity
  8
CutProfile
100
AcDbLine
 10
411.775000000
 20
257.758296698
 30
0.000000000
 11
408.600000000
 21
257.311555556
 31
0.000000000
  0
LINE
  5
ACD
330
A02
100
AcDbEntity
  8
CutProfile
100
AcDbLine
 10
414.950000000
 20
257.990235857
 30
0.000000000
 11
411.775000000
 21
257.758296698
 31
0.000000000
  0
LINE
  5
ACE
330
A02
100
AcDbEntity
  8
CutProfile
100
AcDbLine
 10
418.125000000
 20
258.066050032
 30
0.000000000
 11
414.950000000
 21
257.990235857
 31
0.000000000
  0
LINE
  5
ACF
330
A02
100
AcDbEntity
  8
CutProfile
100
AcDbLine
 10
421.300000000
 20
258.073555556
 30
0.000000000
 11
418.125000000
 21
258.066050032
 31
0.000000000
  0
LINE
  5
AD0
330
A02
100
AcDbEntity
  8
CutProfile
100
AcDbLine
 10
424.475000000
 20
258.116338857
 30
0.000000000
 11
421.300000000
 21
258.073555556
 31
0.000000000
  0
LINE
  5
AD1
330
A02
100
AcDbEntity
  8
CutProfile
100
AcDbLine
 10
427.650000000
 20
258.297986365
 30
0.000000000
 11
424.475000000
 21
258.116338857
 31
0.000000000
  0
LINE
  5
AD2
330
A02
100
AcDbEntity
  8
CutProfile
100
AcDbLine
 10
430.825000000
 20
258.706314413
 30
0.000000000
 11
427.650000000
 21
258.297986365
 31
0.000000000
  0
LINE
  5
AD3
330
A02
100
AcDbEntity
  8
CutProfile
100
AcDbLine
 10
434.000000000
 20
259.400000000
 30
0.000000000
 11
430.825000000
 21
258.706314413
 31
0.000000000
  0
LINE
  5
AD4
330
A02
100
AcDbEntity
  8
CutProfile
100
AcDbLine
 10
433.799477504
 20
260.458333333
 30
0.000000000
 11
434.000000000
 21
259.400000000
 31
0.000000000
  0
LINE
  5
AD5
330
A02
100
AcDbEntity
  8
CutProfile
100
AcDbLine
 10
433.592796241
 20
261.516666667
 30
0.000000000
 11
433.799477504
 21
260.458333333
 31
0.000000000
  0
LINE
  5
AD6
330
A02
100
AcDbEntity
  8
CutProfile
100
AcDbLine
 10
433.373943884
 20
262.575000000
 30
0.000000000
 11
433.592796241
 21
261.516666667
 31
0.000000000
  0
LINE
  5
AD7
330
A02
100
AcDbEntity
  8
CutProfile
100
AcDbLine
 10
433.137198314
 20
263.633333333
 30
0.000000000
 11
433.373943884
 21
262.575000000
 31
0.000000000
  0
LINE
  5
AD8
330
A02
100
AcDbEntity
  8
CutProfile
100
AcDbLine
 10
432.877266061
 20
264.691666667
 30
0.000000000
 11
433.137198314
 21
263.633333333
 31
0.000000000
  0
LINE
  5
AD9
330
A02
100
AcDbEntity
  8
CutProfile
100
AcDbLine
 10
432.589412888
 20
265.750000000
 30
0.000000000
 11
432.877266061
 21
264.691666667
 31
0.000000000
  0
LINE
  5
ADA
330
A02
100
AcDbEntity
  8
CutProfile
100
AcDbLine
 10
432.269584120
 20
266.808333333
 30
0.000000000
 11
432.589412888
 21
265.750000000
 31
0.000000000
  0
LINE
  5
ADB
330
A02
100
AcDbEntity
  8
CutProfile
100
AcDbLine
 10
431.914512467
 20
267.866666667
 30
0.000000000
 11
432.269584120
 21
266.808333333
 31
0.000000000
  0
LINE
  5
ADC
330
A02
100
AcDbEntity
  8
CutProfile
100
AcDbLine
 10
431.521811357
 20
268.925000000
 30
0.000000000
 11
431.914512467
 21
267.866666667
 31
0.000000000
  0
LINE
  5
ADD
330
A02
100
AcDbEntity
  8
CutProfile
100
AcDbLine
 10
431.090052004
 20
269.983333333
 30
0.000000000
 11
431.521811357
 21
268.925000000
 31
0.000000000
  0
LINE
  5
ADE
330
A02
100
AcDbEntity
  8
CutProfile
100
AcDbLine
 10
430.618822747
 20
271.041666667
 30
0.000000000
 11
431.090052004
 21
269.983333333
 31
0.000000000
  0
LINE
  5
ADF
330
A02
100
AcDbEntity
  8
CutProfile
100
AcDbLine
 10
430.108769491
 20
272.100000000
 30
0.000000000
 11
430.618822747
 21
271.041666667
 31
0.000000000
  0
LINE
  5
AE0
330
A02
100
AcDbEntity
  8
CutProfile
100
AcDbLine
 10
429.561616415
 20
273.158333333
 30
0.000000000
 11
430.108769491
 21
272.100000000
 31
0.000000000
  0
LINE
  5
AE1
330
A02
100
AcDbEntity
  8
CutProfile
100
AcDbLine
 10
428.980166458
 20
274.216666667
 30
0.000000000
 11
429.561616415
 21
273.158333333
 31
0.000000000
  0
LINE
  5
AE2
330
A02
100
AcDbEntity
  8
CutProfile
100
AcDbLine
 10
428.368281452
 20
275.275000000
 30
0.000000000
 11
428.980166458
 21
274.216666667
 31
0.000000000
  0
LINE
  5
AE3
330
A02
100
AcDbEntity
  8
CutProfile
100
AcDbLine
 10
427.730842102
 20
276.333333333
 30
0.000000000
 11
428.368281452
 21
275.275000000
 31
0.000000000
  0
LINE
  5
AE4
330
A02
100
AcDbEntity
  8
CutProfile
100
AcDbLine
 10
427.073688413
 20
277.391666667
 30
0.000000000
 11
427.730842102
 21
276.333333333
 31
0.000000000
  0
LINE
  5
AE5
330
A02
100
AcDbEntity
  8
CutProfile
100
AcDbLine
 10
426.403541463
 20
278.450000000
 30
0.000000000
 11
427.073688413
 21
277.391666667
 31
0.000000000
  0
LINE
  5
AE6
330
A02
100
AcDbEntity
  8
CutProfile
100
AcDbLine
 10
425.727907769
 20
279.508333333
 30
0.000000000
 11
426.403541463
 21
278.450000000
 31
0.000000000
  0
LINE
  5
AE7
330
A02
100
AcDbEntity
  8
CutProfile
100
AcDbLine
 10
425.054967806
 20
280.566666667
 30
0.000000000
 11
425.727907769
 21
279.508333333
 31
0.000000000
  0
LINE
  5
AE8
330
A02
100
AcDbEntity
  8
CutProfile
100
AcDbLine
 10
424.393450510
 20
281.625000000
 30
0.000000000
 11
425.054967806
 21
280.566666667
 31
0.000000000
  0
LINE
  5
AE9
330
A02
100
AcDbEntity
  8
CutProfile
100
AcDbLine
 10
423.752495853
 20
282.683333333
 30
0.000000000
 11
424.393450510
 21
281.625000000
 31
0.000000000
  0
LINE
  5
AEA
330
A02
100
AcDbEntity
  8
CutProfile
100
AcDbLine
 10
423.141507779
 20
283.741666667
 30
0.000000000
 11
423.752495853
 21
282.683333333
 31
0.000000000
  0
LINE
  5
AEB
330
A02
100
AcDbEntity
  8
CutProfile
100
AcDbLine
 10
422.570000000
 20
284.800000000
 30
0.000000000
 11
423.141507779
 21
283.741666667
 31
0.000000000
  0
LINE
  5
AEC
330
A02
100
AcDbEntity
  8
CutProfile
100
AcDbLine
 10
422.047437236
 20
285.858333333
 30
0.000000000
 11
422.570000000
 21
284.800000000
 31
0.000000000
  0
LINE
  5
AED
330
A02
100
AcDbEntity
  8
CutProfile
100
AcDbLine
 10
421.583074616
 20
286.916666667
 30
0.000000000
 11
422.047437236
 21
285.858333333
 31
0.000000000
  0
LINE
  5
AEE
330
A02
100
AcDbEntity
  8
CutProfile
100
AcDbLine
 10
421.185797980
 20
287.975000000
 30
0.000000000
 11
421.583074616
 21
286.916666667
 31
0.000000000
  0
LINE
  5
AEF
330
A02
100
AcDbEntity
  8
CutProfile
100
AcDbLine
 10
420.863967806
 20
289.033333333
 30
0.000000000
 11
421.185797980
 21
287.975000000
 31
0.000000000
  0
LINE
  5
AF0
330
A02
100
AcDbEntity
  8
CutProfile
100
AcDbLine
 10
420.625269471
 20
290.091666667
 30
0.000000000
 11
420.863967806
 21
289.033333333
 31
0.000000000
  0
LINE
  5
AF1
330
A02
100
AcDbEntity
  8
CutProfile
100
AcDbLine
 10
420.476572423
 20
291.150000000
 30
0.000000000
 11
420.625269471
 21
290.091666667
 31
0.000000000
  0
LINE
  5
AF2
330
A02
100
AcDbEntity
  8
CutProfile
100
AcDbLine
 10
420.423800715
 20
292.208333333
 30
0.000000000
 11
420.476572423
 21
291.150000000
 31
0.000000000
  0
LINE
  5
AF3
330
A02
100
AcDbEntity
  8
CutProfile
100
AcDbLine
 10
420.471817167
 20
293.266666667
 30
0.000000000
 11
420.423800715
 21
292.208333333
 31
0.000000000
  0
LINE
  5
AF4
330
A02
100
AcDbEntity
  8
CutProfile
100
AcDbLine
 10
420.624323211
 20
294.325000000
 30
0.000000000
 11
420.471817167
 21
293.266666667
 31
0.000000000
  0
LINE
  5
AF5
330
A02
100
AcDbEntity
  8
CutProfile
100
AcDbLine
 10
420.883776182
 20
295.383333333
 30
0.000000000
 11
420.624323211
 21
294.325000000
 31
0.000000000
  0
LINE
  5
AF6
330
A02
100
AcDbEntity
  8
CutProfile
100
AcDbLine
 10
421.251325586
 20
296.441666667
 30
0.000000000
 11
420.883776182
 21
295.383333333
 31
0.000000000
  0
LINE
  5
AF7
330
A02
100
AcDbEntity
  8
CutProfile
100
AcDbLine
 10
421.726769491
 20
297.500000000
 30
0.000000000
 11
421.251325586
 21
296.441666667
 31
0.000000000
  0
LINE
  5
AF8
330
A02
100
AcDbEntity
  8
CutProfile
100
AcDbLine
 10
422.308531919
 20
298.558333333
 30
0.000000000
 11
421.726769491
 21
297.500000000
 31
0.000000000
  0
LINE
  5
AF9
330
A02
100
AcDbEntity
  8
CutProfile
100
AcDbLine
 10
422.993661728
 20
299.616666667
 30
0.000000000
 11
422.308531919
 21
298.558333333
 31
0.000000000
  0
LINE
  5
AFA
330
A02
100
AcDbEntity
  8
CutProfile
100
AcDbLine
 10
423.777853116
 20
300.675000000
 30
0.000000000
 11
422.993661728
 21
299.616666667
 31
0.000000000
  0
LINE
  5
AFB
330
A02
100
AcDbEntity
  8
CutProfile
100
AcDbLine
 10
424.655487533
 20
301.733333333
 30
0.000000000
 11
423.777853116
 21
300.675000000
 31
0.000000000
  0
LINE
  5
AFC
330
A02
100
AcDbEntity
  8
CutProfile
100
AcDbLine
 10
425.619696422
 20
302.791666667
 30
0.000000000
 11
424.655487533
 21
301.733333333
 31
0.000000000
  0
LINE
  5
AFD
330
A02
100
AcDbEntity
  8
CutProfile
100
AcDbLine
 10
426.662443848
 20
303.850000000
 30
0.000000000
 11
425.619696422
 21
302.791666667
 31
0.000000000
  0
LINE
  5
AFE
330
A02
100
AcDbEntity
  8
CutProfile
100
AcDbLine
 10
427.774627763
 20
304.908333333
 30
0.000000000
 11
426.662443848
 21
303.850000000
 31
0.000000000
  0
LINE
  5
AFF
330
A02
100
AcDbEntity
  8
CutProfile
100
AcDbLine
 10
428.946198314
 20
305.966666667
 30
0.000000000
 11
427.774627763
 21
304.908333333
 31
0.000000000
  0
LINE
  5
B00
330
A02
100
AcDbEntity
  8
CutProfile
100
AcDbLine
 10
430.166291354
 20
307.025000000
 30
0.000000000
 11
428.946198314
 21
305.966666667
 31
0.000000000
  0
LINE
  5
B01
330
A02
100
AcDbEntity
  8
CutProfile
100
AcDbLine
 10
431.423375005
 20
308.083333333
 30
0.000000000
 11
430.166291354
 21
307.025000000
 31
0.000000000
  0
LINE
  5
B02
330
A02
100
AcDbEntity
  8
CutProfile
100
AcDbLine
 10
432.668573015
 20
309.111259786
 30
0.000000000
 11
431.423375005
 21
308.083333333
 31
0.000000000
  0
LINE
  5
B03
330
A02
100
AcDbEntity
  8
CutProfile
100
AcDbLine
 10
432.668573015
 20
309.111259786
 30
0.000000000
 11
447.250000000
 21
307.442640687
 31
0.000000000
  0
LINE
  5
B04
330
A02
100
AcDbEntity
  8
CutProfile
100
AcDbLine
 10
447.250000000
 20
307.442640687
 30
0.000000000
 11
462.158333333
 21
303.983157153
 31
0.000000000
  0
LINE
  5
B05
330
A02
100
AcDbEntity
  8
CutProfile
100
AcDbLine
 10
462.158333333
 20
303.983157153
 30
0.000000000
 11
477.066666667
 21
300.200000000
 31
0.000000000
  0
LINE
  5
B06
330
A02
100
AcDbEntity
  8
CutProfile
100
AcDbLine
 10
477.066666667
 20
300.200000000
 30
0.000000000
 11
491.975000000
 21
297.656722805
 31
0.000000000
  0
LINE
  5
B07
330
A02
100
AcDbEntity
  8
CutProfile
100
AcDbLine
 10
491.975000000
 20
297.656722805
 30
0.000000000
 11
506.883333333
 21
297.404445042
 31
0.000000000
  0
LINE
  5
B08
330
A02
100
AcDbEntity
  8
CutProfile
100
AcDbLine
 10
506.883333333
 20
297.404445042
 30
0.000000000
 11
521.791666667
 21
299.547431426
 31
0.000000000
  0
LINE
  5
B09
330
A02
100
AcDbEntity
  8
CutProfile
100
AcDbLine
 10
551.608333333
 20
306.852568574
 30
0.000000000
 11
521.791666667
 21
299.547431426
 31
0.000000000
  0
LINE
  5
B0A
330
A02
100
AcDbEntity
  8
CutProfile
100
AcDbLine
 10
551.608333333
 20
306.852568574
 30
0.000000000
 11
566.516666667
 21
308.995554958
 31
0.000000000
  0
LINE
  5
B0B
330
A02
100
AcDbEntity
  8
CutProfile
100
AcDbLine
 10
566.516666667
 20
308.995554958
 30
0.000000000
 11
581.425000000
 21
308.743277195
 31
0.000000000
  0
LINE
  5
B0C
330
A02
100
AcDbEntity
  8
CutProfile
100
AcDbLine
 10
581.425000000
 20
308.743277195
 30
0.000000000
 11
596.333333333
 21
306.200000000
 31
0.000000000
  0
LINE
  5
B0D
330
A02
100
AcDbEntity
  8
CutProfile
100
AcDbLine
 10
596.333333333
 20
306.200000000
 30
0.000000000
 11
611.241666667
 21
302.416842847
 31
0.000000000
  0
LINE
  5
B0E
330
A02
100
AcDbEntity
  8
CutProfile
100
AcDbLine
 10
611.241666667
 20
302.416842847
 30
0.000000000
 11
626.150000000
 21
298.957359313
 31
0.000000000
  0
LINE
  5
B0F
330
A02
100
AcDbEntity
  8
CutProfile
100
AcDbLine
 10
626.150000000
 20
298.957359313
 30
0.000000000
 11
641.058333333
 21
297.251330832
 31
0.000000000
  0
LINE
  5
B10
330
A02
100
AcDbEntity
  8
CutProfile
100
AcDbLine
 10
641.058333333
 20
297.251330832
 30
0.000000000
 11
655.966666667
 21
298.003847577
 31
0.000000000
  0
LINE
  5
B11
330
A02
100
AcDbEntity
  8
CutProfile
100
AcDbLine
 10
655.966666667
 20
298.003847577
 30
0.000000000
 11
670.875000000
 21
300.903899406
 31
0.000000000
  0
LINE
  5
B12
330
A02
100
AcDbEntity
  8
CutProfile
100
AcDbLine
 10
670.875000000
 20
300.903899406
 30
0.000000000
 11
685.783333333
 21
304.752914271
 31
0.000000000
  0
LINE
  5
B13
330
A02
100
AcDbEntity
  8
CutProfile
100
AcDbLine
 10
685.783333333
 20
304.752914271
 30
0.000000000
 11
700.691666667
 21
307.960120042
 31
0.000000000
  0
LINE
  5
B14
330
A02
100
AcDbEntity
  8
CutProfile
100
AcDbLine
 10
700.691666667
 20
307.960120042
 30
0.000000000
 11
715.600000000
 21
309.200000000
 31
0.000000000
  0
LINE
  5
B15
330
A02
100
AcDbEntity
  8
CutProfile
100
AcDbLine
 10
715.600000000
 20
309.200000000
 30
0.000000000
 11
715.101410938
 21
302.758333333
 31
0.000000000
  0
LINE
  5
B16
330
A02
100
AcDbEntity
  8
CutProfile
100
AcDbLine
 10
715.101410938
 20
302.758333333
 30
0.000000000
 11
713.681549417
 21
296.316666667
 31
0.000000000
  0
LINE
  5
B17
330
A02
100
AcDbEntity
  8
CutProfile
100
AcDbLine
 10
713.681549417
 20
296.316666667
 30
0.000000000
 11
711.556576482
 21
289.875000000
 31
0.000000000
  0
LINE
  5
B18
330
A02
100
AcDbEntity
  8
CutProfile
100
AcDbLine
 10
706.543423518
 20
276.991666667
 30
0.000000000
 11
711.556576482
 21
289.875000000
 31
0.000000000
  0
LINE
  5
B19
330
A02
100
AcDbEntity
  8
CutProfile
100
AcDbLine
 10
706.543423518
 20
276.991666667
 30
0.000000000
 11
704.418450583
 21
270.550000000
 31
0.000000000
  0
LINE
  5
B1A
330
A02
100
AcDbEntity
  8
CutProfile
100
AcDbLine
 10
704.418450583
 20
270.550000000
 30
0.000000000
 11
702.998589062
 21
264.108333333
 31
0.000000000
  0
LINE
  5
B1B
330
A02
100
AcDbEntity
  8
CutProfile
100
AcDbLine
 10
702.998589062
 20
264.108333333
 30
0.000000000
 11
702.500000000
 21
257.666666667
 31
0.000000000
  0
LINE
  5
B1C
330
A02
100
AcDbEntity
  8
CutProfile
100
AcDbLine
 10
702.500000000
 20
257.666666667
 30
0.000000000
 11
702.998589062
 21
251.225000000
 31
0.000000000
  0
LINE
  5
B1D
330
A02
100
AcDbEntity
  8
CutProfile
100
AcDbLine
 10
702.998589062
 20
251.225000000
 30
0.000000000
 11
704.418450583
 21
244.783333333
 31
0.000000000
  0
LINE
  5
B1E
330
A02
100
AcDbEntity
  8
CutProfile
100
AcDbLine
 10
704.418450583
 20
244.783333333
 30
0.000000000
 11
706.543423518
 21
238.341666667
 31
0.000000000
  0
LINE
  5
B1F
330
A02
100
AcDbEntity
  8
CutProfile
100
AcDbLine
 10
711.556576482
 20
225.458333333
 30
0.000000000
 11
706.543423518
 21
238.341666667
 31
0.000000000
  0
LINE
  5
B20
330
A02
100
AcDbEntity
  8
CutProfile
100
AcDbLine
 10
711.556576482
 20
225.458333333
 30
0.000000000
 11
713.681549417
 21
219.016666667
 31
0.000000000
  0
LINE
  5
B21
330
A02
100
AcDbEntity
  8
CutProfile
100
AcDbLine
 10
713.681549417
 20
219.016666667
 30
0.000000000
 11
715.101410938
 21
212.575000000
 31
0.000000000
  0
LINE
  5
B22
330
A02
100
AcDbEntity
  8
CutProfile
100
AcDbLine
 10
715.101410938
 20
212.575000000
 30
0.000000000
 11
715.600000000
 21
206.133333333
 31
0.000000000
  0
LINE
  5
B23
330
A02
100
AcDbEntity
  8
CutProfile
100
AcDbLine
 10
715.600000000
 20
206.133333333
 30
0.000000000
 11
715.101410938
 21
199.691666667
 31
0.000000000
  0
LINE
  5
B24
330
A02
100
AcDbEntity
  8
CutProfile
100
AcDbLine
 10
715.101410938
 20
199.691666667
 30
0.000000000
 11
713.681549417
 21
193.250000000
 31
0.000000000
  0
LINE
  5
B25
330
A02
100
AcDbEntity
  8
CutProfile
100
AcDbLine
 10
713.681549417
 20
193.250000000
 30
0.000000000
 11
711.556576482
 21
186.808333333
 31
0.000000000
  0
LINE
  5
B26
330
A02
100
AcDbEntity
  8
CutProfile
100
AcDbLine
 10
711.556576482
 20
186.808333333
 30
0.000000000
 11
709.050000000
 21
180.366666667
 31
0.000000000
  0
LINE
  5
B27
330
A02
100
AcDbEntity
  8
CutProfile
100
AcDbLine
 10
709.050000000
 20
180.366666667
 30
0.000000000
 11
713.135502498
 21
173.925000000
 31
0.000000000
  0
LINE
  5
B28
330
A02
100
AcDbEntity
  8
CutProfile
100
AcDbLine
 10
713.135502498
 20
173.925000000
 30
0.000000000
 11
715.597669885
 21
167.483333333
 31
0.000000000
  0
LINE
  5
B29
330
A02
100
AcDbEntity
  8
CutProfile
100
AcDbLine
 10
715.597669885
 20
167.483333333
 30
0.000000000
 11
715.600000000
 21
161.041666667
 31
0.000000000
  0
LINE
  5
B2A
330
A02
100
AcDbEntity
  8
CutProfile
100
AcDbLine
 10
715.600000000
 20
148.158333333
 30
0.000000000
 11
715.600000000
 21
161.041666667
 31
0.000000000
  0
LINE
  5
B2B
330
A02
100
AcDbEntity
  8
CutProfile
100
AcDbLine
 10
715.600000000
 20
148.158333333
 30
0.000000000
 11
715.597669885
 21
141.716666667
 31
0.000000000
  0
LINE
  5
B2C
330
A02
100
AcDbEntity
  8
CutProfile
100
AcDbLine
 10
715.597669885
 20
141.716666667
 30
0.000000000
 11
713.135502498
 21
135.275000000
 31
0.000000000
  0
LINE
  5
B2D
330
A02
100
AcDbEntity
  8
CutProfile
100
AcDbLine
 10
713.135502498
 20
135.275000000
 30
0.000000000
 11
709.050000000
 21
128.833333333
 31
0.000000000
  0
LINE
  5
B2E
330
A02
100
AcDbEntity
  8
CutProfile
100
AcDbLine
 10
709.050000000
 20
128.833333333
 30
0.000000000
 11
711.556576482
 21
122.391666667
 31
0.000000000
  0
LINE
  5
B2F
330
A02
100
AcDbEntity
  8
CutProfile
100
AcDbLine
 10
711.556576482
 20
122.391666667
 30
0.000000000
 11
713.681549417
 21
115.950000000
 31
0.000000000
  0
LINE
  5
B30
330
A02
100
AcDbEntity
  8
CutProfile
100
AcDbLine
 10
713.681549417
 20
115.950000000
 30
0.000000000
 11
715.101410938
 21
109.508333333
 31
0.000000000
  0
LINE
  5
B31
330
A02
100
AcDbEntity
  8
CutProfile
100
AcDbLine
 10
715.101410938
 20
109.508333333
 30
0.000000000
 11
715.600000000
 21
103.066666667
 31
0.000000000
  0
LINE
  5
B32
330
A02
100
AcDbEntity
  8
CutProfile
100
AcDbLine
 10
715.600000000
 20
103.066666667
 30
0.000000000
 11
715.101410938
 21
96.625000000
 31
0.000000000
  0
LINE
  5
B33
330
A02
100
AcDbEntity
  8
CutProfile
100
AcDbLine
 10
715.101410938
 20
96.625000000
 30
0.000000000
 11
713.681549417
 21
90.183333333
 31
0.000000000
  0
LINE
  5
B34
330
A02
100
AcDbEntity
  8
CutProfile
100
AcDbLine
 10
713.681549417
 20
90.183333333
 30
0.000000000
 11
711.556576482
 21
83.741666667
 31
0.000000000
  0
LINE
  5
B35
330
A02
100
AcDbEntity
  8
CutProfile
100
AcDbLine
 10
706.543423518
 20
70.858333333
 30
0.000000000
 11
711.556576482
 21
83.741666667
 31
0.000000000
  0
LINE
  5
B36
330
A02
100
AcDbEntity
  8
CutProfile
100
AcDbLine
 10
706.543423518
 20
70.858333333
 30
0.000000000
 11
704.418450583
 21
64.416666667
 31
0.000000000
  0
LINE
  5
B37
330
A02
100
AcDbEntity
  8
CutProfile
100
AcDbLine
 10
704.418450583
 20
64.416666667
 30
0.000000000
 11
702.998589062
 21
57.975000000
 31
0.000000000
  0
LINE
  5
B38
330
A02
100
AcDbEntity
  8
CutProfile
100
AcDbLine
 10
702.998589062
 20
57.975000000
 30
0.000000000
 11
702.500000000
 21
51.533333333
 31
0.000000000
  0
LINE
  5
B39
330
A02
100
AcDbEntity
  8
CutProfile
100
AcDbLine
 10
702.500000000
 20
51.533333333
 30
0.000000000
 11
702.998589062
 21
45.091666667
 31
0.000000000
  0
LINE
  5
B3A
330
A02
100
AcDbEntity
  8
CutProfile
100
AcDbLine
 10
702.998589062
 20
45.091666667
 30
0.000000000
 11
704.418450583
 21
38.650000000
 31
0.000000000
  0
LINE
  5
B3B
330
A02
100
AcDbEntity
  8
CutProfile
100
AcDbLine
 10
704.418450583
 20
38.650000000
 30
0.000000000
 11
706.543423518
 21
32.208333333
 31
0.000000000
  0
LINE
  5
B3C
330
A02
100
AcDbEntity
  8
CutProfile
100
AcDbLine
 10
711.556576482
 20
19.325000000
 30
0.000000000
 11
706.543423518
 21
32.208333333
 31
0.000000000
  0
LINE
  5
B3D
330
A02
100
AcDbEntity
  8
CutProfile
100
AcDbLine
 10
711.556576482
 20
19.325000000
 30
0.000000000
 11
713.681549417
 21
12.883333333
 31
0.000000000
  0
LINE
  5
B3E
330
A02
100
AcDbEntity
  8
CutProfile
100
AcDbLine
 10
24.700000000
 20
45.337500000
 30
0.000000000
 11
24.700000000
 21
23.112500000
 31
0.000000000
  0
LINE
  5
B3F
330
A02
100
AcDbEntity
  8
CutProfile
100
AcDbLine
 10
13.100000000
 20
45.337500000
 30
0.000000000
 11
24.700000000
 21
45.337500000
 31
0.000000000
  0
LINE
  5
B40
330
A02
100
AcDbEntity
  8
CutProfile
100
AcDbLine
 10
13.100000000
 20
23.112500000
 30
0.000000000
 11
13.100000000
 21
45.337500000
 31
0.000000000
  0
LINE
  5
B41
330
A02
100
AcDbEntity
  8
CutProfile
100
AcDbLine
 10
24.700000000
 20
23.112500000
 30
0.000000000
 11
13.100000000
 21
23.112500000
 31
0.000000000
  0
LINE
  5
B42
330
A02
100
AcDbEntity
  8
CutProfile
100
AcDbLine
 10
149.612500000
 20
30.500000000
 30
0.000000000
 11
149.612500000
 21
24.700000000
 31
0.000000000
  0
LINE
  5
B43
330
A02
100
AcDbEntity
  8
CutProfile
100
AcDbLine
 10
66.337500000
 20
30.500000000
 30
0.000000000
 11
149.612500000
 21
30.500000000
 31
0.000000000
  0
LINE
  5
B44
330
A02
100
AcDbEntity
  8
CutProfile
100
AcDbLine
 10
66.337500000
 20
24.700000000
 30
0.000000000
 11
66.337500000
 21
30.500000000
 31
0.000000000
  0
LINE
  5
B45
330
A02
100
AcDbEntity
  8
CutProfile
100
AcDbLine
 10
149.612500000
 20
24.700000000
 30
0.000000000
 11
66.337500000
 21
24.700000000
 31
0.000000000
  0
LINE
  5
B46
330
A02
100
AcDbEntity
  8
CutProfile
100
AcDbLine
 10
24.700000000
 20
89.787500000
 30
0.000000000
 11
24.700000000
 21
67.562500000
 31
0.000000000
  0
LINE
  5
B47
330
A02
100
AcDbEntity
  8
CutProfile
100
AcDbLine
 10
13.100000000
 20
89.787500000
 30
0.000000000
 11
24.700000000
 21
89.787500000
 31
0.000000000
  0
LINE
  5
B48
330
A02
100
AcDbEntity
  8
CutProfile
100
AcDbLine
 10
13.100000000
 20
67.562500000
 30
0.000000000
 11
13.100000000
 21
89.787500000
 31
0.000000000
  0
LINE
  5
B49
330
A02
100
AcDbEntity
  8
CutProfile
100
AcDbLine
 10
24.700000000
 20
67.562500000
 30
0.000000000
 11
13.100000000
 21
67.562500000
 31
0.000000000
  0
LINE
  5
B4A
330
A02
100
AcDbEntity
  8
CutProfile
100
AcDbLine
 10
24.700000000
 20
134.237500000
 30
0.000000000
 11
24.700000000
 21
112.012500000
 31
0.000000000
  0
LINE
  5
B4B
330
A02
100
AcDbEntity
  8
CutProfile
100
AcDbLine
 10
13.100000000
 20
134.237500000
 30
0.000000000
 11
24.700000000
 21
134.237500000
 31
0.000000000
  0
LINE
  5
B4C
330
A02
100
AcDbEntity
  8
CutProfile
100
AcDbLine
 10
13.100000000
 20
112.012500000
 30
0.000000000
 11
13.100000000
 21
134.237500000
 31
0.000000000
  0
LINE
  5
B4D
330
A02
100
AcDbEntity
  8
CutProfile
100
AcDbLine
 10
24.700000000
 20
112.012500000
 30
0.000000000
 11
13.100000000
 21
112.012500000
 31
0.000000000
  0
CIRCLE
  5
B4E
330
A02
100
AcDbEntity
  8
CutProfile
100
AcDbCircle
 10
111.533333333
 20
154.600000000
 30
0.000000000
 40
3.000000000
  0
LINE
  5
B4F
330
A02
100
AcDbEntity
  8
CutProfile
100
AcDbLine
 10
316.162500000
 20
30.500000000
 30
0.000000000
 11
316.162500000
 21
24.700000000
 31
0.000000000
  0
LINE
  5
B50
330
A02
100
AcDbEntity
  8
CutProfile
100
AcDbLine
 10
232.887500000
 20
30.500000000
 30
0.000000000
 11
316.162500000
 21
30.500000000
 31
0.000000000
  0
LINE
  5
B51
330
A02
100
AcDbEntity
  8
CutProfile
100
AcDbLine
 10
232.887500000
 20
24.700000000
 30
0.000000000
 11
232.887500000
 21
30.500000000
 31
0.000000000
  0
LINE
  5
B52
330
A02
100
AcDbEntity
  8
CutProfile
100
AcDbLine
 10
316.162500000
 20
24.700000000
 30
0.000000000
 11
232.887500000
 21
24.700000000
 31
0.000000000
  0
LINE
  5
B53
330
A02
100
AcDbEntity
  8
CutProfile
100
AcDbLine
 10
24.700000000
 20
178.687500000
 30
0.000000000
 11
24.700000000
 21
156.462500000
 31
0.000000000
  0
LINE
  5
B54
330
A02
100
AcDbEntity
  8
CutProfile
100
AcDbLine
 10
13.100000000
 20
178.687500000
 30
0.000000000
 11
24.700000000
 21
178.687500000
 31
0.000000000
  0
LINE
  5
B55
330
A02
100
AcDbEntity
  8
CutProfile
100
AcDbLine
 10
13.100000000
 20
156.462500000
 30
0.000000000
 11
13.100000000
 21
178.687500000
 31
0.000000000
  0
LINE
  5
B56
330
A02
100
AcDbEntity
  8
CutProfile
100
AcDbLine
 10
24.700000000
 20
156.462500000
 30
0.000000000
 11
13.100000000
 21
156.462500000
 31
0.000000000
  0
LINE
  5
B57
330
A02
100
AcDbEntity
  8
CutProfile
100
AcDbLine
 10
482.712500000
 20
30.500000000
 30
0.000000000
 11
482.712500000
 21
24.700000000
 31
0.000000000
  0
LINE
  5
B58
330
A02
100
AcDbEntity
  8
CutProfile
100
AcDbLine
 10
399.437500000
 20
30.500000000
 30
0.000000000
 11
482.712500000
 21
30.500000000
 31
0.000000000
  0
LINE
  5
B59
330
A02
100
AcDbEntity
  8
CutProfile
100
AcDbLine
 10
399.437500000
 20
24.700000000
 30
0.000000000
 11
399.437500000
 21
30.500000000
 31
0.000000000
  0
LINE
  5
B5A
330
A02
100
AcDbEntity
  8
CutProfile
100
AcDbLine
 10
482.712500000
 20
24.700000000
 30
0.000000000
 11
399.437500000
 21
24.700000000
 31
0.000000000
  0
LINE
  5
B5B
330
A02
100
AcDbEntity
  8
CutProfile
100
AcDbLine
 10
649.262500000
 20
30.500000000
 30
0.000000000
 11
649.262500000
 21
24.700000000
 31
0.000000000
  0
LINE
  5
B5C
330
A02
100
AcDbEntity
  8
CutProfile
100
AcDbLine
 10
565.987500000
 20
30.500000000
 30
0.000000000
 11
649.262500000
 21
30.500000000
 31
0.000000000
  0
LINE
  5
B5D
330
A02
100
AcDbEntity
  8
CutProfile
100
AcDbLine
 10
565.987500000
 20
24.700000000
 30
0.000000000
 11
565.987500000
 21
30.500000000
 31
0.000000000
  0
LINE
  5
B5E
330
A02
100
AcDbEntity
  8
CutProfile
100
AcDbLine
 10
649.262500000
 20
24.700000000
 30
0.000000000
 11
565.987500000
 21
24.700000000
 31
0.000000000
  0
LINE
  5
B5F
330
A02
100
AcDbEntity
  8
CutProfile
100
AcDbLine
 10
702.500000000
 20
45.337500000
 30
0.000000000
 11
702.500000000
 21
23.112500000
 31
0.000000000
  0
LINE
  5
B60
330
A02
100
AcDbEntity
  8
CutProfile
100
AcDbLine
 10
690.900000000
 20
45.337500000
 30
0.000000000
 11
702.500000000
 21
45.337500000
 31
0.000000000
  0
LINE
  5
B61
330
A02
100
AcDbEntity
  8
CutProfile
100
AcDbLine
 10
690.900000000
 20
23.112500000
 30
0.000000000
 11
690.900000000
 21
45.337500000
 31
0.000000000
  0
LINE
  5
B62
330
A02
100
AcDbEntity
  8
CutProfile
100
AcDbLine
 10
702.500000000
 20
23.112500000
 30
0.000000000
 11
690.900000000
 21
23.112500000
 31
0.000000000
  0
CIRCLE
  5
B63
330
A02
100
AcDbEntity
  8
CutProfile
100
AcDbCircle
 10
604.066666667
 20
154.600000000
 30
0.000000000
 40
3.000000000
  0
LINE
  5
B64
330
A02
100
AcDbEntity
  8
CutProfile
100
AcDbLine
 10
702.500000000
 20
89.787500000
 30
0.000000000
 11
702.500000000
 21
67.562500000
 31
0.000000000
  0
LINE
  5
B65
330
A02
100
AcDbEntity
  8
CutProfile
100
AcDbLine
 10
690.900000000
 20
89.787500000
 30
0.000000000
 11
702.500000000
 21
89.787500000
 31
0.000000000
  0
LINE
  5
B66
330
A02
100
AcDbEntity
  8
CutProfile
100
AcDbLine
 10
690.900000000
 20
67.562500000
 30
0.000000000
 11
690.900000000
 21
89.787500000
 31
0.000000000
  0
LINE
  5
B67
330
A02
100
AcDbEntity
  8
CutProfile
100
AcDbLine
 10
702.500000000
 20
67.562500000
 30
0.000000000
 11
690.900000000
 21
67.562500000
 31
0.000000000
  0
LINE
  5
B68
330
A02
100
AcDbEntity
  8
CutProfile
100
AcDbLine
 10
702.500000000
 20
134.237500000
 30
0.000000000
 11
702.500000000
 21
112.012500000
 31
0.000000000
  0
LINE
  5
B69
330
A02
100
AcDbEntity
  8
CutProfile
100
AcDbLine
 10
690.900000000
 20
134.237500000
 30
0.000000000
 11
702.500000000
 21
134.237500000
 31
0.000000000
  0
LINE
  5
B6A
330
A02
100
AcDbEntity
  8
CutProfile
100
AcDbLine
 10
690.900000000
 20
112.012500000
 30
0.000000000
 11
690.900000000
 21
134.237500000
 31
0.000000000
  0
LINE
  5
B6B
330
A02
100
AcDbEntity
  8
CutProfile
100
AcDbLine
 10
702.500000000
 20
112.012500000
 30
0.000000000
 11
690.900000000
 21
112.012500000
 31
0.000000000
  0
LINE
  5
B6C
330
A02
100
AcDbEntity
  8
CutProfile
100
AcDbLine
 10
702.500000000
 20
178.687500000
 30
0.000000000
 11
702.500000000
 21
156.462500000
 31
0.000000000
  0
LINE
  5
B6D
330
A02
100
AcDbEntity
  8
CutProfile
100
AcDbLine
 10
690.900000000
 20
178.687500000
 30
0.000000000
 11
702.500000000
 21
178.687500000
 31
0.000000000
  0
LINE
  5
B6E
330
A02
100
AcDbEntity
  8
CutProfile
100
AcDbLine
 10
690.900000000
 20
156.462500000
 30
0.000000000
 11
690.900000000
 21
178.687500000
 31
0.000000000
  0
LINE
  5
B6F
330
A02
100
AcDbEntity
  8
CutProfile
100
AcDbLine
 10
702.500000000
 20
156.462500000
 30
0.000000000
 11
690.900000000
 21
156.462500000
 31
0.000000000
  0
ENDSEC
  0
SECTION
  2
OBJECTS
  0
DICTIONARY
  5
F000
330
0
100
AcDbDictionary
  3
ACAD_GROUP
350
F001
  0
DICTIONARY
  5
F001
330
F000
100
AcDbDictionary
  0
ENDSEC
  0
EOF