999
FreeCAD v1.1 20260725 (Git shallow)
  0
SECTION
  2
HEADER
  9
$ACADVER
  1
AC1014
  9
$ACADMAINTVER
 70
     9
  9
$DWGCODEPAGE
  3
ANSI_1252
  9
$TEXTSTYLE
  7
STANDARD
  9
$DIMSTYLE
  2
STANDARD
  9
$DIMTXSTY
  7
STANDARD
  9
$CMLSTYLE
  2
STANDARD
  9
$LUNITS
 70
2
  9
$INSUNITS
 70
4
  9
$PEXTMAX
 10
50
 20
50
 30
50
  9
$PEXTMIN
 10
0
 20
0
 30
0
  9
$HANDSEED
  5
FFFF
  0
ENDSEC
  0
SECTION
  2
CLASSES
  0
CLASS
  1
ACDBDICTIONARYWDFLT
  2
AcDbDictionaryWithDefault
  3
ObjectDBX Classes
 90
        0
280
     0
281
     0
  0
CLASS
  1
XRECORD
  2
AcDbXrecord
  3
ObjectDBX Classes
 90
        0
280
     0
281
     0
  0
CLASS
  1
LWPOLYLINE
  2
AcDbPolyline
  3
ObjectDBX Classes
 90
        0
280
     0
281
     1
  0
ENDSEC
  0
SECTION
  2
TABLES
  0
TABLE
  2
VPORT
  5
20
330
0
100
AcDbSymbolTable
 70
     1
  0
VPORT
  5
21
330
20
100
AcDbSymbolTableRecord
100
AcDbViewportTableRecord
  2
*ACTIVE
 70
     0
  0
ENDTAB
  0
TABLE
  2
LTYPE
  5
22
330
0
100
AcDbSymbolTable
 70
     1
  0
LTYPE
  5
23
330
21
100
AcDbSymbolTableRecord
100
AcDbLinetypeTableRecord
  2
BYBLOCK
 70
     0
  3

 72
    65
 73
     0
 40
0.0
  0
LTYPE
  5
24
330
21
100
AcDbSymbolTableRecord
100
AcDbLinetypeTableRecord
  2
BYLAYER
 70
     0
  3

 72
    65
 73
     0
 40
0.0
  0
LTYPE
  5
25
330
21
100
AcDbSymbolTableRecord
100
AcDbLinetypeTableRecord
  2
CONTINUOUS
 70
     0
  3
Solid line
 72
    65
 73
     0
 40
0.0
  0
ENDTAB
  0
TABLE
  2
LAYER
  5
A97
330
0
100
AcDbSymbolTable
 70
3
  0
LAYER
  5
A98
330
A97
100
AcDbSymbolTableRecord
100
AcDbLayerTableRecord
  2
0
 70
   0
 62
   7
  6
CONTINUOUS
  0
LAYER
  5
A99
330
A97
100
AcDbSymbolTableRecord
100
AcDbLayerTableRecord
  2
none
 70
    0
 62
    7
  6
CONTINUOUS
  0
LAYER
  5
A9A
330
A97
100
AcDbSymbolTableRecord
100
AcDbLayerTableRecord
  2
CutProfile
 70
    0
 62
    7
  6
CONTINUOUS
  0
ENDTAB
  0
TABLE
  2
STYLE
  5
70
330
0
100
AcDbSymbolTable
 70
     2
  0
STYLE
  5
71
330
70
100
AcDbSymbolTableRecord
100
AcDbTextStyleTableRecord
  2
STANDARD
 70
     0
 40
0.0
 41
1.0
 50
0.0
 71
     0
 42
2.5
  3
arial.ttf
  4

  0
STYLE
  5
72
330
70
100
AcDbSymbolTableRecord
100
AcDbTextStyleTableRecord
  2
ANNOTATIVE
 70
     0
 40
0.0
 41
1.0
 50
0.0
 71
     0
 42
2.5
  3
arial.ttf
  4

  0
ENDTAB
  0
TABLE
  2
VIEW
  5
73
330
0
100
AcDbSymbolTable
 70
     0
  0
ENDTAB
  0
TABLE
  2
UCS
  5
74
330
0
100
AcDbSymbolTable
 70
     0
  0
ENDTAB
  0
TABLE
  2
APPID
  5
75
330
0
100
AcDbSymbolTable
 70
     2
  0
APPID
  5
76
330
75
100
AcDbSymbolTableRecord
100
AcDbRegAppTableRecord
  2
ACAD
 70
     0
  0
APPID
  5
77
330
75
100
AcDbSymbolTableRecord
100
AcDbRegAppTableRecord
  2
ACADANNOTATIVE
 70
     0
  0
ENDTAB
  0
TABLE
  2
DIMSTYLE
  5
78
330
0
100
AcDbSymbolTable
 70
     2
  0
DIMSTYLE
105
79
330
78
100
AcDbSymbolTableRecord
100
AcDbDimStyleTableRecord
  2
STANDARD
 70
     0
  3

  4

  5

  6

  7

 40
0.0
 41
2.5
 42
0.625
 43
3.75
 44
1.25
 45
0.0
 46
0.0
 47
0.0
 48
0.0
140
2.5
141
2.5
142
0.0
143
0.03937007874016
144
1.0
145
0.0
146
1.0
147
0.625
 71
     0
 72
     0
 73
     0
 74
     0
 75
     0
 76
     0
 77
     1
 78
     8
170
     0
171
     3
172
     1
173
     0
174
     0
175
     0
176
     0
177
     0
178
     0
270
     2
271
     2
272
     2
273
     2
274
     3
340
71
275
     0
280
     0
281
     0
282
     0
283
     0
284
     8
285
     0
286
     0
287
     3
288
     0
  0
ENDTAB
  0
TABLE
  2
BLOCK_RECORD
  5
A01
330
0
100
AcDbSymbolTable
  70
5
  0
BLOCK_RECORD
  5
A02
330
A01
100
AcDbSymbolTableRecord
100
AcDbBlockTableRecord
  2
*MODEL_SPACE
  0
BLOCK_RECORD
  5
A03
330
A01
100
AcDbSymbolTableRecord
100
AcDbBlockTableRecord
  2
*PAPER_SPACE
  0
ENDTAB
  0
ENDSEC
  0
SECTION
  2
BLOCKS
  0
BLOCK
  5
A04
330
A02
100
AcDbEntity
  8
0
100
AcDbBlockBegin
  2
*MODEL_SPACE
 70
   0
 10
0
 20
0
 30
0
  3
*MODEL_SPACE
  1
 
  0
ENDBLK
  5
A05
330
A02
100
AcDbEntity
  8
0
100
AcDbBlockEnd
  0
BLOCK
  5
A06
330
A03
100
AcDbEntity
 67
1
  8
0
100
AcDbBlockBegin
  2
*PAPER_SPACE
 70
   0
 10
0
 20
0
 30
0
  3
*PAPER_SPACE
  1
 
  0
ENDBLK
  5
A07
330
A03
100
AcDbEntity
 67
    1
  8
0
100
AcDbBlockEnd
  0
ENDSEC
  0
SECTION
  2
ENTITIES
  0
LINE
  5
A08
330
A02
100
AcDbEntity
  8
CutProfile
100
AcDbLine
 10
510.000000000
 20
34.375000000
 30
0.000000000
 11
498.400000000
 21
34.375000000
 31
0.000000000
  0
ARC
  5
A09
330
A02
100
AcDbEntity
  8
CutProfile
100
AcDbCircle
 10
510.000000000
 20
32.375000000
 30
0.000000000
 40
2.000000000
100
AcDbArc
 50
0.000000000
 51
90.000000000
  0
LINE
  5
A0A
330
A02
100
AcDbEntity
  8
CutProfile
100
AcDbLine
 10
512.000000000
 20
32.375000000
 30
0.000000000
 11
512.000000000
 21
15.600000000
 31
0.000000000
  0
ARC
  5
A0B
330
A02
100
AcDbEntity
  8
CutProfile
100
AcDbCircle
 10
510.000000000
 20
15.600000000
 30
0.000000000
 40
2.000000000
100
AcDbArc
 50
-90.000000000
 51
0.000000000
  0
LINE
  5
A0C
330
A02
100
AcDbEntity
  8
CutProfile
100
AcDbLine
 10
510.000000000
 20
13.600000000
 30
0.000000000
 11
510.000000000
 21
2.000000000
 31
0.000000000
  0
ARC
  5
A0D
330
A02
100
AcDbEntity
  8
CutProfile
100
AcDbCircle
 10
508.000000000
 20
2.000000000
 30
0.000000000
 40
2.000000000
100
AcDbArc
 50
-90.000000000
 51
0.000000000
  0
LINE
  5
A0E
330
A02
100
AcDbEntity
  8
CutProfile
100
AcDbLine
 10
502.475000000
 20
0.000000000
 30
0.000000000
 11
508.000000000
 21
0.000000000
 31
0.000000000
  0
ARC
  5
A0F
330
A02
100
AcDbEntity
  8
CutProfile
100
AcDbCircle
 10
502.475000000
 20
2.000000000
 30
0.000000000
 40
2.000000000
100
AcDbArc
 50
-180.000000000
 51
-90.000000000
  0
LINE
  5
A10
330
A02
100
AcDbEntity
  8
CutProfile
100
AcDbLine
 10
500.475000000
 20
13.600000000
 30
0.000000000
 11
500.475000000
 21
2.000000000
 31
0.000000000
  0
LINE
  5
A11
330
A02
100
AcDbEntity
  8
CutProfile
100
AcDbLine
 10
481.425000000
 20
13.600000000
 30
0.000000000
 11
500.475000000
 21
13.600000000
 31
0.000000000
  0
LINE
  5
A12
330
A02
100
AcDbEntity
  8
CutProfile
100
AcDbLine
 10
481.425000000
 20
2.000000000
 30
0.000000000
 11
481.425000000
 21
13.600000000
 31
0.000000000
  0
ARC
  5
A13
330
A02
100
AcDbEntity
  8
CutProfile
100
AcDbCircle
 10
479.425000000
 20
2.000000000
 30
0.000000000
 40
2.000000000
100
AcDbArc
 50
-90.000000000
 51
0.000000000
  0
LINE
  5
A14
330
A02
100
AcDbEntity
  8
CutProfile
100
AcDbLine
 10
464.375000000
 20
0.000000000
 30
0.000000000
 11
479.425000000
 21
0.000000000
 31
0.000000000
  0
ARC
  5
A15
330
A02
100
AcDbEntity
  8
CutProfile
100
AcDbCircle
 10
464.375000000
 20
2.000000000
 30
0.000000000
 40
2.000000000
100
AcDbArc
 50
-180.000000000
 51
-90.000000000
  0
LINE
  5
A16
330
A02
100
AcDbEntity
  8
CutProfile
100
AcDbLine
 10
462.375000000
 20
13.600000000
 30
0.000000000
 11
462.375000000
 21
2.000000000
 31
0.000000000
  0
LINE
  5
A17
330
A02
100
AcDbEntity
  8
CutProfile
100
AcDbLine
 10
443.325000000
 20
13.600000000
 30
0.000000000
 11
462.375000000
 21
13.600000000
 31
0.000000000
  0
LINE
  5
A18
330
A02
100
AcDbEntity
  8
CutProfile
100
AcDbLine
 10
443.325000000
 20
2.000000000
 30
0.000000000
 11
443.325000000
 21
13.600000000
 31
0.000000000
  0
ARC
  5
A19
330
A02
100
AcDbEntity
  8
CutProfile
100
AcDbCircle
 10
441.325000000
 20
2.000000000
 30
0.000000000
 40
2.000000000
100
AcDbArc
 50
-90.000000000
 51
0.000000000
  0
LINE
  5
A1A
330
A02
100
AcDbEntity
  8
CutProfile
100
AcDbLine
 10
426.275000000
 20
0.000000000
 30
0.000000000
 11
441.325000000
 21
0.000000000
 31
0.000000000
  0
ARC
  5
A1B
330
A02
100
AcDbEntity
  8
CutProfile
100
AcDbCircle
 10
426.275000000
 20
2.000000000
 30
0.000000000
 40
2.000000000
100
AcDbArc
 50
-180.000000000
 51
-90.000000000
  0
LINE
  5
A1C
330
A02
100
AcDbEntity
  8
CutProfile
100
AcDbLine
 10
424.275000000
 20
13.600000000
 30
0.000000000
 11
424.275000000
 21
2.000000000
 31
0.000000000
  0
LINE
  5
A1D
330
A02
100
AcDbEntity
  8
CutProfile
100
AcDbLine
 10
405.225000000
 20
13.600000000
 30
0.000000000
 11
424.275000000
 21
13.600000000
 31
0.000000000
  0
LINE
  5
A1E
330
A02
100
AcDbEntity
  8
CutProfile
100
AcDbLine
 10
405.225000000
 20
2.000000000
 30
0.000000000
 11
405.225000000
 21
13.600000000
 31
0.000000000
  0
ARC
  5
A1F
330
A02
100
AcDbEntity
  8
CutProfile
100
AcDbCircle
 10
403.225000000
 20
2.000000000
 30
0.000000000
 40
2.000000000
100
AcDbArc
 50
-90.000000000
 51
0.000000000
  0
LINE
  5
A20
330
A02
100
AcDbEntity
  8
CutProfile
100
AcDbLine
 10
388.175000000
 20
0.000000000
 30
0.000000000
 11
403.225000000
 21
0.000000000
 31
0.000000000
  0
ARC
  5
A21
330
A02
100
AcDbEntity
  8
CutProfile
100
AcDbCircle
 10
388.175000000
 20
2.000000000
 30
0.000000000
 40
2.000000000
100
AcDbArc
 50
-180.000000000
 51
-90.000000000
  0
LINE
  5
A22
330
A02
100
AcDbEntity
  8
CutProfile
100
AcDbLine
 10
386.175000000
 20
13.600000000
 30
0.000000000
 11
386.175000000
 21
2.000000000
 31
0.000000000
  0
LINE
  5
A23
330
A02
100
AcDbEntity
  8
CutProfile
100
AcDbLine
 10
367.125000000
 20
13.600000000
 30
0.000000000
 11
386.175000000
 21
13.600000000
 31
0.000000000
  0
LINE
  5
A24
330
A02
100
AcDbEntity
  8
CutProfile
100
AcDbLine
 10
367.125000000
 20
2.000000000
 30
0.000000000
 11
367.125000000
 21
13.600000000
 31
0.000000000
  0
ARC
  5
A25
330
A02
100
AcDbEntity
  8
CutProfile
100
AcDbCircle
 10
365.125000000
 20
2.000000000
 30
0.000000000
 40
2.000000000
100
AcDbArc
 50
-90.000000000
 51
0.000000000
  0
LINE
  5
A26
330
A02
100
AcDbEntity
  8
CutProfile
100
AcDbLine
 10
359.600000000
 20
0.000000000
 30
0.000000000
 11
365.125000000
 21
0.000000000
 31
0.000000000
  0
ARC
  5
A27
330
A02
100
AcDbEntity
  8
CutProfile
100
AcDbCircle
 10
359.600000000
 20
2.000000000
 30
0.000000000
 40
2.000000000
100
AcDbArc
 50
-180.000000000
 51
-90.000000000
  0
LINE
  5
A28
330
A02
100
AcDbEntity
  8
CutProfile
100
AcDbLine
 10
357.600000000
 20
2.000000000
 30
0.000000000
 11
166.000000000
 21
2.000000000
 31
0.000000000
  0
ARC
  5
A29
330
A02
100
AcDbEntity
  8
CutProfile
100
AcDbCircle
 10
164.000000000
 20
2.000000000
 30
0.000000000
 40
2.000000000
100
AcDbArc
 50
-90.000000000
 51
0.000000000
  0
LINE
  5
A2A
330
A02
100
AcDbEntity
  8
CutProfile
100
AcDbLine
 10
158.475000000
 20
0.000000000
 30
0.000000000
 11
164.000000000
 21
0.000000000
 31
0.000000000
  0
ARC
  5
A2B
330
A02
100
AcDbEntity
  8
CutProfile
100
AcDbCircle
 10
158.475000000
 20
2.000000000
 30
0.000000000
 40
2.000000000
100
AcDbArc
 50
-180.000000000
 51
-90.000000000
  0
LINE
  5
A2C
330
A02
100
AcDbEntity
  8
CutProfile
100
AcDbLine
 10
156.475000000
 20
13.600000000
 30
0.000000000
 11
156.475000000
 21
2.000000000
 31
0.000000000
  0
LINE
  5
A2D
330
A02
100
AcDbEntity
  8
CutProfile
100
AcDbLine
 10
137.425000000
 20
13.600000000
 30
0.000000000
 11
156.475000000
 21
13.600000000
 31
0.000000000
  0
LINE
  5
A2E
330
A02
100
AcDbEntity
  8
CutProfile
100
AcDbLine
 10
137.425000000
 20
2.000000000
 30
0.000000000
 11
137.425000000
 21
13.600000000
 31
0.000000000
  0
ARC
  5
A2F
330
A02
100
AcDbEntity
  8
CutProfile
100
AcDbCircle
 10
135.425000000
 20
2.000000000
 30
0.000000000
 40
2.000000000
100
AcDbArc
 50
-90.000000000
 51
0.000000000
  0
LINE
  5
A30
330
A02
100
AcDbEntity
  8
CutProfile
100
AcDbLine
 10
120.375000000
 20
0.000000000
 30
0.000000000
 11
135.425000000
 21
0.000000000
 31
0.000000000
  0
ARC
  5
A31
330
A02
100
AcDbEntity
  8
CutProfile
100
AcDbCircle
 10
120.375000000
 20
2.000000000
 30
0.000000000
 40
2.000000000
100
AcDbArc
 50
-180.000000000
 51
-90.000000000
  0
LINE
  5
A32
330
A02
100
AcDbEntity
  8
CutProfile
100
AcDbLine
 10
118.375000000
 20
13.600000000
 30
0.000000000
 11
118.375000000
 21
2.000000000
 31
0.000000000
  0
LINE
  5
A33
330
A02
100
AcDbEntity
  8
CutProfile
100
AcDbLine
 10
99.325000000
 20
13.600000000
 30
0.000000000
 11
118.375000000
 21
13.600000000
 31
0.000000000
  0
LINE
  5
A34
330
A02
100
AcDbEntity
  8
CutProfile
100
AcDbLine
 10
99.325000000
 20
2.000000000
 30
0.000000000
 11
99.325000000
 21
13.600000000
 31
0.000000000
  0
ARC
  5
A35
330
A02
100
AcDbEntity
  8
CutProfile
100
AcDbCircle
 10
97.325000000
 20
2.000000000
 30
0.000000000
 40
2.000000000
100
AcDbArc
 50
-90.000000000
 51
0.000000000
  0
LINE
  5
A36
330
A02
100
AcDbEntity
  8
CutProfile
100
AcDbLine
 10
82.275000000
 20
0.000000000
 30
0.000000000
 11
97.325000000
 21
0.000000000
 31
0.000000000
  0
ARC
  5
A37
330
A02
100
AcDbEntity
  8
CutProfile
100
AcDbCircle
 10
82.275000000
 20
2.000000000
 30
0.000000000
 40
2.000000000
100
AcDbArc
 50
-180.000000000
 51
-90.000000000
  0
LINE
  5
A38
330
A02
100
AcDbEntity
  8
CutProfile
100
AcDbLine
 10
80.275000000
 20
13.600000000
 30
0.000000000
 11
80.275000000
 21
2.000000000
 31
0.000000000
  0
LINE
  5
A39
330
A02
100
AcDbEntity
  8
CutProfile
100
AcDbLine
 10
61.225000000
 20
13.600000000
 30
0.000000000
 11
80.275000000
 21
13.600000000
 31
0.000000000
  0
LINE
  5
A3A
330
A02
100
AcDbEntity
  8
CutProfile
100
AcDbLine
 10
61.225000000
 20
2.000000000
 30
0.000000000
 11
61.225000000
 21
13.600000000
 31
0.000000000
  0
ARC
  5
A3B
330
A02
100
AcDbEntity
  8
CutProfile
100
AcDbCircle
 10
59.225000000
 20
2.000000000
 30
0.000000000
 40
2.000000000
100
AcDbArc
 50
-90.000000000
 51
0.000000000
  0
LINE
  5
A3C
330
A02
100
AcDbEntity
  8
CutProfile
100
AcDbLine
 10
44.175000000
 20
0.000000000
 30
0.000000000
 11
59.225000000
 21
0.000000000
 31
0.000000000
  0
ARC
  5
A3D
330
A02
100
AcDbEntity
  8
CutProfile
100
AcDbCircle
 10
44.175000000
 20
2.000000000
 30
0.000000000
 40
2.000000000
100
AcDbArc
 50
-180.000000000
 51
-90.000000000
  0
LINE
  5
A3E
330
A02
100
AcDbEntity
  8
CutProfile
100
AcDbLine
 10
42.175000000
 20
13.600000000
 30
0.000000000
 11
42.175000000
 21
2.000000000
 31
0.000000000
  0
LINE
  5
A3F
330
A02
100
AcDbEntity
  8
CutProfile
100
AcDbLine
 10
23.125000000
 20
13.600000000
 30
0.000000000
 11
42.175000000
 21
13.600000000
 31
0.000000000
  0
LINE
  5
A40
330
A02
100
AcDbEntity
  8
CutProfile
100
AcDbLine
 10
23.125000000
 20
2.000000000
 30
0.000000000
 11
23.125000000
 21
13.600000000
 31
0.000000000
  0
ARC
  5
A41
330
A02
100
AcDbEntity
  8
CutProfile
100
AcDbCircle
 10
21.125000000
 20
2.000000000
 30
0.000000000
 40
2.000000000
100
AcDbArc
 50
-90.000000000
 51
0.000000000
  0
LINE
  5
A42
330
A02
100
AcDbEntity
  8
CutProfile
100
AcDbLine
 10
15.600000000
 20
0.000000000
 30
0.000000000
 11
21.125000000
 21
0.000000000
 31
0.000000000
  0
ARC
  5
A43
330
A02
100
AcDbEntity
  8
CutProfile
100
AcDbCircle
 10
15.600000000
 20
2.000000000
 30
0.000000000
 40
2.000000000
100
AcDbArc
 50
-180.000000000
 51
-90.000000000
  0
LINE
  5
A44
330
A02
100
AcDbEntity
  8
CutProfile
100
AcDbLine
 10
13.600000000
 20
23.500000000
 30
0.000000000
 11
13.600000000
 21
2.000000000
 31
0.000000000
  0
LINE
  5
A45
330
A02
100
AcDbEntity
  8
CutProfile
100
AcDbLine
 10
13.600000000
 20
23.500000000
 30
0.000000000
 11
2.000000000
 21
23.500000000
 31
0.000000000
  0
ARC
  5
A46
330
A02
100
AcDbEntity
  8
CutProfile
100
AcDbCircle
 10
2.000000000
 20
25.500000000
 30
0.000000000
 40
2.000000000
100
AcDbArc
 50
180.000000000
 51
-90.000000000
  0
LINE
  5
A47
330
A02
100
AcDbEntity
  8
CutProfile
100
AcDbLine
 10
0.000000000
 20
64.500000000
 30
0.000000000
 11
0.000000000
 21
25.500000000
 31
0.000000000
  0
ARC
  5
A48
330
A02
100
AcDbEntity
  8
CutProfile
100
AcDbCircle
 10
2.000000000
 20
64.500000000
 30
0.000000000
 40
2.000000000
100
AcDbArc
 50
90.000000000
 51
180.000000000
  0
LINE
  5
A49
330
A02
100
AcDbEntity
  8
CutProfile
100
AcDbLine
 10
2.000000000
 20
66.500000000
 30
0.000000000
 11
13.600000000
 21
66.500000000
 31
0.000000000
  0
LINE
  5
A4A
330
A02
100
AcDbEntity
  8
CutProfile
100
AcDbLine
 10
13.600000000
 20
109.500000000
 30
0.000000000
 11
13.600000000
 21
66.500000000
 31
0.000000000
  0
LINE
  5
A4B
330
A02
100
AcDbEntity
  8
CutProfile
100
AcDbLine
 10
13.600000000
 20
109.500000000
 30
0.000000000
 11
2.000000000
 21
109.500000000
 31
0.000000000
  0
ARC
  5
A4C
330
A02
100
AcDbEntity
  8
CutProfile
100
AcDbCircle
 10
2.000000000
 20
111.500000000
 30
0.000000000
 40
2.000000000
100
AcDbArc
 50
180.000000000
 51
-90.000000000
  0
LINE
  5
A4D
330
A02
100
AcDbEntity
  8
CutProfile
100
AcDbLine
 10
0.000000000
 20
150.500000000
 30
0.000000000
 11
0.000000000
 21
111.500000000
 31
0.000000000
  0
ARC
  5
A4E
330
A02
100
AcDbEntity
  8
CutProfile
100
AcDbCircle
 10
2.000000000
 20
150.500000000
 30
0.000000000
 40
2.000000000
100
AcDbArc
 50
90.000000000
 51
180.000000000
  0
LINE
  5
A4F
330
A02
100
AcDbEntity
  8
CutProfile
100
AcDbLine
 10
2.000000000
 20
152.500000000
 30
0.000000000
 11
13.600000000
 21
152.500000000
 31
0.000000000
  0
LINE
  5
A50
330
A02
100
AcDbEntity
  8
CutProfile
100
AcDbLine
 10
13.600000000
 20
195.500000000
 30
0.000000000
 11
13.600000000
 21
152.500000000
 31
0.000000000
  0
LINE
  5
A51
330
A02
100
AcDbEntity
  8
CutProfile
100
AcDbLine
 10
13.600000000
 20
195.500000000
 30
0.000000000
 11
2.000000000
 21
195.500000000
 31
0.000000000
  0
ARC
  5
A52
330
A02
100
AcDbEntity
  8
CutProfile
100
AcDbCircle
 10
2.000000000
 20
197.500000000
 30
0.000000000
 40
2.000000000
100
AcDbArc
 50
180.000000000
 51
-90.000000000
  0
LINE
  5
A53
330
A02
100
AcDbEntity
  8
CutProfile
100
AcDbLine
 10
0.000000000
 20
236.500000000
 30
0.000000000
 11
0.000000000
 21
197.500000000
 31
0.000000000
  0
ARC
  5
A54
330
A02
100
AcDbEntity
  8
CutProfile
100
AcDbCircle
 10
2.000000000
 20
236.500000000
 30
0.000000000
 40
2.000000000
100
AcDbArc
 50
90.000000000
 51
180.000000000
  0
LINE
  5
A55
330
A02
100
AcDbEntity
  8
CutProfile
100
AcDbLine
 10
2.000000000
 20
238.500000000
 30
0.000000000
 11
13.600000000
 21
238.500000000
 31
0.000000000
  0
LINE
  5
A56
330
A02
100
AcDbEntity
  8
CutProfile
100
AcDbLine
 10
13.600000000
 20
281.500000000
 30
0.000000000
 11
13.600000000
 21
238.500000000
 31
0.000000000
  0
LINE
  5
A57
330
A02
100
AcDbEntity
  8
CutProfile
100
AcDbLine
 10
13.600000000
 20
281.500000000
 30
0.000000000
 11
2.000000000
 21
281.500000000
 31
0.000000000
  0
ARC
  5
A58
330
A02
100
AcDbEntity
  8
CutProfile
100
AcDbCircle
 10
2.000000000
 20
283.500000000
 30
0.000000000
 40
2.000000000
100
AcDbArc
 50
180.000000000
 51
-90.000000000
  0
LINE
  5
A59
330
A02
100
AcDbEntity
  8
CutProfile
100
AcDbLine
 10
0.000000000
 20
322.500000000
 30
0.000000000
 11
0.000000000
 21
283.500000000
 31
0.000000000
  0
ARC
  5
A5A
330
A02
100
AcDbEntity
  8
CutProfile
100
AcDbCircle
 10
2.000000000
 20
322.500000000
 30
0.000000000
 40
2.000000000
100
AcDbArc
 50
90.000000000
 51
180.000000000
  0
LINE
  5
A5B
330
A02
100
AcDbEntity
  8
CutProfile
100
AcDbLine
 10
2.000000000
 20
324.500000000
 30
0.000000000
 11
13.600000000
 21
324.500000000
 31
0.000000000
  0
LINE
  5
A5C
330
A02
100
AcDbEntity
  8
CutProfile
100
AcDbLine
 10
13.600000000
 20
346.000000000
 30
0.000000000
 11
13.600000000
 21
324.500000000
 31
0.000000000
  0
LINE
  5
A5D
330
A02
100
AcDbEntity
  8
CutProfile
100
AcDbLine
 10
44.625000000
 20
346.000000000
 30
0.000000000
 11
13.600000000
 21
346.000000000
 31
0.000000000
  0
LINE
  5
A5E
330
A02
100
AcDbEntity
  8
CutProfile
100
AcDbLine
 10
44.625000000
 20
346.000000000
 30
0.000000000
 11
44.625000000
 21
357.600000000
 31
0.000000000
  0
ARC
  5
A5F
330
A02
100
AcDbEntity
  8
CutProfile
100
AcDbCircle
 10
46.625000000
 20
357.600000000
 30
0.000000000
 40
2.000000000
100
AcDbArc
 50
90.000000000
 51
180.000000000
  0
LINE
  5
A60
330
A02
100
AcDbEntity
  8
CutProfile
100
AcDbLine
 10
104.675000000
 20
359.600000000
 30
0.000000000
 11
46.625000000
 21
359.600000000
 31
0.000000000
  0
ARC
  5
A61
330
A02
100
AcDbEntity
  8
CutProfile
100
AcDbCircle
 10
104.675000000
 20
357.600000000
 30
0.000000000
 40
2.000000000
100
AcDbArc
 50
0.000000000
 51
90.000000000
  0
LINE
  5
A62
330
A02
100
AcDbEntity
  8
CutProfile
100
AcDbLine
 10
106.675000000
 20
357.600000000
 30
0.000000000
 11
106.675000000
 21
346.000000000
 31
0.000000000
  0
LINE
  5
A63
330
A02
100
AcDbEntity
  8
CutProfile
100
AcDbLine
 10
168.725000000
 20
346.000000000
 30
0.000000000
 11
106.675000000
 21
346.000000000
 31
0.000000000
  0
LINE
  5
A64
330
A02
100
AcDbEntity
  8
CutProfile
100
AcDbLine
 10
168.725000000
 20
346.000000000
 30
0.000000000
 11
168.725000000
 21
357.600000000
 31
0.000000000
  0
ARC
  5
A65
330
A02
100
AcDbEntity
  8
CutProfile
100
AcDbCircle
 10
170.725000000
 20
357.600000000
 30
0.000000000
 40
2.000000000
100
AcDbArc
 50
90.000000000
 51
180.000000000
  0
LINE
  5
A66
330
A02
100
AcDbEntity
  8
CutProfile
100
AcDbLine
 10
228.775000000
 20
359.600000000
 30
0.000000000
 11
170.725000000
 21
359.600000000
 31
0.000000000
  0
ARC
  5
A67
330
A02
100
AcDbEntity
  8
CutProfile
100
AcDbCircle
 10
228.775000000
 20
357.600000000
 30
0.000000000
 40
2.000000000
100
AcDbArc
 50
0.000000000
 51
90.000000000
  0
LINE
  5
A68
330
A02
100
AcDbEntity
  8
CutProfile
100
AcDbLine
 10
230.775000000
 20
357.600000000
 30
0.000000000
 11
230.775000000
 21
346.000000000
 31
0.000000000
  0
LINE
  5
A69
330
A02
100
AcDbEntity
  8
CutProfile
100
AcDbLine
 10
292.825000000
 20
346.000000000
 30
0.000000000
 11
230.775000000
 21
346.000000000
 31
0.000000000
  0
LINE
  5
A6A
330
A02
100
AcDbEntity
  8
CutProfile
100
AcDbLine
 10
292.825000000
 20
346.000000000
 30
0.000000000
 11
292.825000000
 21
357.600000000
 31
0.000000000
  0
ARC
  5
A6B
330
A02
100
AcDbEntity
  8
CutProfile
100
AcDbCircle
 10
294.825000000
 20
357.600000000
 30
0.000000000
 40
2.000000000
100
AcDbArc
 50
90.000000000
 51
180.000000000
  0
LINE
  5
A6C
330
A02
100
AcDbEntity
  8
CutProfile
100
AcDbLine
 10
352.875000000
 20
359.600000000
 30
0.000000000
 11
294.825000000
 21
359.600000000
 31
0.000000000
  0
ARC
  5
A6D
330
A02
100
AcDbEntity
  8
CutProfile
100
AcDbCircle
 10
352.875000000
 20
357.600000000
 30
0.000000000
 40
2.000000000
100
AcDbArc
 50
0.000000000
 51
90.000000000
  0
LINE
  5
A6E
330
A02
100
AcDbEntity
  8
CutProfile
100
AcDbLine
 10
354.875000000
 20
357.600000000
 30
0.000000000
 11
354.875000000
 21
346.000000000
 31
0.000000000
  0
LINE
  5
A6F
330
A02
100
AcDbEntity
  8
CutProfile
100
AcDbLine
 10
416.925000000
 20
346.000000000
 30
0.000000000
 11
354.875000000
 21
346.000000000
 31
0.000000000
  0
LINE
  5
A70
330
A02
100
AcDbEntity
  8
CutProfile
100
AcDbLine
 10
416.925000000
 20
346.000000000
 30
0.000000000
 11
416.925000000
 21
357.600000000
 31
0.000000000
  0
ARC
  5
A71
330
A02
100
AcDbEntity
  8
CutProfile
100
AcDbCircle
 10
418.925000000
 20
357.600000000
 30
0.000000000
 40
2.000000000
100
AcDbArc
 50
90.000000000
 51
180.000000000
  0
LINE
  5
A72
330
A02
100
AcDbEntity
  8
CutProfile
100
AcDbLine
 10
476.975000000
 20
359.600000000
 30
0.000000000
 11
418.925000000
 21
359.600000000
 31
0.000000000
  0
ARC
  5
A73
330
A02
100
AcDbEntity
  8
CutProfile
100
AcDbCircle
 10
476.975000000
 20
357.600000000
 30
0.000000000
 40
2.000000000
100
AcDbArc
 50
0.000000000
 51
90.000000000
  0
LINE
  5
A74
330
A02
100
AcDbEntity
  8
CutProfile
100
AcDbLine
 10
478.975000000
 20
357.600000000
 30
0.000000000
 11
478.975000000
 21
346.000000000
 31
0.000000000
  0
LINE
  5
A75
330
A02
100
AcDbEntity
  8
CutProfile
100
AcDbLine
 10
510.000000000
 20
346.000000000
 30
0.000000000
 11
478.975000000
 21
346.000000000
 31
0.000000000
  0
ARC
  5
A76
330
A02
100
AcDbEntity
  8
CutProfile
100
AcDbCircle
 10
510.000000000
 20
344.000000000
 30
0.000000000
 40
2.000000000
100
AcDbArc
 50
0.000000000
 51
90.000000000
  0
LINE
  5
A77
330
A02
100
AcDbEntity
  8
CutProfile
100
AcDbLine
 10
512.000000000
 20
344.000000000
 30
0.000000000
 11
512.000000000
 21
327.225000000
 31
0.000000000
  0
ARC
  5
A78
330
A02
100
AcDbEntity
  8
CutProfile
100
AcDbCircle
 10
510.000000000
 20
327.225000000
 30
0.000000000
 40
2.000000000
100
AcDbArc
 50
-90.000000000
 51
0.000000000
  0
LINE
  5
A79
330
A02
100
AcDbEntity
  8
CutProfile
100
AcDbLine
 10
498.400000000
 20
325.225000000
 30
0.000000000
 11
510.000000000
 21
325.225000000
 31
0.000000000
  0
LINE
  5
A7A
330
A02
100
AcDbEntity
  8
CutProfile
100
AcDbLine
 10
498.400000000
 20
283.675000000
 30
0.000000000
 11
498.400000000
 21
325.225000000
 31
0.000000000
  0
LINE
  5
A7B
330
A02
100
AcDbEntity
  8
CutProfile
100
AcDbLine
 10
510.000000000
 20
283.675000000
 30
0.000000000
 11
498.400000000
 21
283.675000000
 31
0.000000000
  0
ARC
  5
A7C
330
A02
100
AcDbEntity
  8
CutProfile
100
AcDbCircle
 10
510.000000000
 20
281.675000000
 30
0.000000000
 40
2.000000000
100
AcDbArc
 50
0.000000000
 51
90.000000000
  0
LINE
  5
A7D
330
A02
100
AcDbEntity
  8
CutProfile
100
AcDbLine
 10
512.000000000
 20
281.675000000
 30
0.000000000
 11
512.000000000
 21
244.125000000
 31
0.000000000
  0
ARC
  5
A7E
330
A02
100
AcDbEntity
  8
CutProfile
100
AcDbCircle
 10
510.000000000
 20
244.125000000
 30
0.000000000
 40
2.000000000
100
AcDbArc
 50
-90.000000000
 51
0.000000000
  0
LINE
  5
A7F
330
A02
100
AcDbEntity
  8
CutProfile
100
AcDbLine
 10
498.400000000
 20
242.125000000
 30
0.000000000
 11
510.000000000
 21
242.125000000
 31
0.000000000
  0
LINE
  5
A80
330
A02
100
AcDbEntity
  8
CutProfile
100
AcDbLine
 10
498.400000000
 20
200.575000000
 30
0.000000000
 11
498.400000000
 21
242.125000000
 31
0.000000000
  0
LINE
  5
A81
330
A02
100
AcDbEntity
  8
CutProfile
100
AcDbLine
 10
510.000000000
 20
200.575000000
 30
0.000000000
 11
498.400000000
 21
200.575000000
 31
0.000000000
  0
ARC
  5
A82
330
A02
100
AcDbEntity
  8
CutProfile
100
AcDbCircle
 10
510.000000000
 20
198.575000000
 30
0.000000000
 40
2.000000000
100
AcDbArc
 50
0.000000000
 51
90.000000000
  0
LINE
  5
A83
330
A02
100
AcDbEntity
  8
CutProfile
100
AcDbLine
 10
512.000000000
 20
198.575000000
 30
0.000000000
 11
512.000000000
 21
161.025000000
 31
0.000000000
  0
ARC
  5
A84
330
A02
100
AcDbEntity
  8
CutProfile
100
AcDbCircle
 10
510.000000000
 20
161.025000000
 30
0.000000000
 40
2.000000000
100
AcDbArc
 50
-90.000000000
 51
0.000000000
  0
LINE
  5
A85
330
A02
100
AcDbEntity
  8
CutProfile
100
AcDbLine
 10
498.400000000
 20
159.025000000
 30
0.000000000
 11
510.000000000
 21
159.025000000
 31
0.000000000
  0
LINE
  5
A86
330
A02
100
AcDbEntity
  8
CutProfile
100
AcDbLine
 10
498.400000000
 20
117.475000000
 30
0.000000000
 11
498.400000000
 21
159.025000000
 31
0.000000000
  0
LINE
  5
A87
330
A02
100
AcDbEntity
  8
CutProfile
100
AcDbLine
 10
510.000000000
 20
117.475000000
 30
0.000000000
 11
498.400000000
 21
117.475000000
 31
0.000000000
  0
ARC
  5
A88
330
A02
100
AcDbEntity
  8
CutProfile
100
AcDbCircle
 10
510.000000000
 20
115.475000000
 30
0.000000000
 40
2.000000000
100
AcDbArc
 50
0.000000000
 51
90.000000000
  0
LINE
  5
A89
330
A02
100
AcDbEntity
  8
CutProfile
100
AcDbLine
 10
512.000000000
 20
115.475000000
 30
0.000000000
 11
512.000000000
 21
77.925000000
 31
0.000000000
  0
ARC
  5
A8A
330
A02
100
AcDbEntity
  8
CutProfile
100
AcDbCircle
 10
510.000000000
 20
77.925000000
 30
0.000000000
 40
2.000000000
100
AcDbArc
 50
-90.000000000
 51
0.000000000
  0
LINE
  5
A8B
330
A02
100
AcDbEntity
  8
CutProfile
100
AcDbLine
 10
498.400000000
 20
75.925000000
 30
0.000000000
 11
510.000000000
 21
75.925000000
 31
0.000000000
  0
LINE
  5
A8C
330
A02
100
AcDbEntity
  8
CutProfile
100
AcDbLine
 10
498.400000000
 20
34.375000000
 30
0.000000000
 11
498.400000000
 21
75.925000000
 31
0.000000000
  0
CIRCLE
  5
A8D
330
A02
100
AcDbEntity
  8
CutProfile
100
AcDbCircle
 10
103.466666667
 20
71.300000000
 30
0.000000000
 40
3.000000000
  0
CIRCLE
  5
A8E
330
A02
100
AcDbEntity
  8
CutProfile
100
AcDbCircle
 10
103.466666667
 20
125.100000000
 30
0.000000000
 40
3.000000000
  0
CIRCLE
  5
A8F
330
A02
100
AcDbEntity
  8
CutProfile
100
AcDbCircle
 10
103.466666667
 20
237.500000000
 30
0.000000000
 40
3.000000000
  0
CIRCLE
  5
A90
330
A02
100
AcDbEntity
  8
CutProfile
100
AcDbCircle
 10
103.466666667
 20
291.300000000
 30
0.000000000
 40
3.000000000
  0
CIRCLE
  5
A91
330
A02
100
AcDbEntity
  8
CutProfile
100
AcDbCircle
 10
171.333333333
 20
179.800000000
 30
0.000000000
 40
3.750000000
  0
CIRCLE
  5
A92
330
A02
100
AcDbEntity
  8
CutProfile
100
AcDbCircle
 10
408.533333333
 20
71.300000000
 30
0.000000000
 40
3.000000000
  0
CIRCLE
  5
A93
330
A02
100
AcDbEntity
  8
CutProfile
100
AcDbCircle
 10
408.533333333
 20
125.100000000
 30
0.000000000
 40
3.000000000
  0
CIRCLE
  5
A94
330
A02
100
AcDbEntity
  8
CutProfile
100
AcDbCircle
 10
340.666666667
 20
179.800000000
 30
0.000000000
 40
3.750000000
  0
CIRCLE
  5
A95
330
A02
100
AcDbEntity
  8
CutProfile
100
AcDbCircle
 10
408.533333333
 20
237.500000000
 30
0.000000000
 40
3.000000000
  0
CIRCLE
  5
A96
330
A02
100
AcDbEntity
  8
CutProfile
100
AcDbCircle
 10
408.533333333
 20
291.300000000
 30
0.000000000
 40
3.000000000
  0
ENDSEC
  0
SECTION
  2
OBJECTS
  0
DICTIONARY
  5
F000
330
0
100
AcDbDictionary
  3
ACAD_GROUP
350
F001
  0
DICTIONARY
  5
F001
330
F000
100
AcDbDictionary
  0
ENDSEC
  0
EOF