999
FreeCAD v1.1 20260725 (Git shallow)
  0
SECTION
  2
HEADER
  9
$ACADVER
  1
AC1014
  9
$ACADMAINTVER
 70
     9
  9
$DWGCODEPAGE
  3
ANSI_1252
  9
$TEXTSTYLE
  7
STANDARD
  9
$DIMSTYLE
  2
STANDARD
  9
$DIMTXSTY
  7
STANDARD
  9
$CMLSTYLE
  2
STANDARD
  9
$LUNITS
 70
2
  9
$INSUNITS
 70
4
  9
$PEXTMAX
 10
50
 20
50
 30
50
  9
$PEXTMIN
 10
0
 20
0
 30
0
  9
$HANDSEED
  5
FFFF
  0
ENDSEC
  0
SECTION
  2
CLASSES
  0
CLASS
  1
ACDBDICTIONARYWDFLT
  2
AcDbDictionaryWithDefault
  3
ObjectDBX Classes
 90
        0
280
     0
281
     0
  0
CLASS
  1
XRECORD
  2
AcDbXrecord
  3
ObjectDBX Classes
 90
        0
280
     0
281
     0
  0
CLASS
  1
LWPOLYLINE
  2
AcDbPolyline
  3
ObjectDBX Classes
 90
        0
280
     0
281
     1
  0
ENDSEC
  0
SECTION
  2
TABLES
  0
TABLE
  2
VPORT
  5
20
330
0
100
AcDbSymbolTable
 70
     1
  0
VPORT
  5
21
330
20
100
AcDbSymbolTableRecord
100
AcDbViewportTableRecord
  2
*ACTIVE
 70
     0
  0
ENDTAB
  0
TABLE
  2
LTYPE
  5
22
330
0
100
AcDbSymbolTable
 70
     1
  0
LTYPE
  5
23
330
21
100
AcDbSymbolTableRecord
100
AcDbLinetypeTableRecord
  2
BYBLOCK
 70
     0
  3

 72
    65
 73
     0
 40
0.0
  0
LTYPE
  5
24
330
21
100
AcDbSymbolTableRecord
100
AcDbLinetypeTableRecord
  2
BYLAYER
 70
     0
  3

 72
    65
 73
     0
 40
0.0
  0
LTYPE
  5
25
330
21
100
AcDbSymbolTableRecord
100
AcDbLinetypeTableRecord
  2
CONTINUOUS
 70
     0
  3
Solid line
 72
    65
 73
     0
 40
0.0
  0
ENDTAB
  0
TABLE
  2
LAYER
  5
C60
330
0
100
AcDbSymbolTable
 70
3
  0
LAYER
  5
C61
330
C60
100
AcDbSymbolTableRecord
100
AcDbLayerTableRecord
  2
0
 70
   0
 62
   7
  6
CONTINUOUS
  0
LAYER
  5
C62
330
C60
100
AcDbSymbolTableRecord
100
AcDbLayerTableRecord
  2
none
 70
    0
 62
    7
  6
CONTINUOUS
  0
LAYER
  5
C63
330
C60
100
AcDbSymbolTableRecord
100
AcDbLayerTableRecord
  2
CutProfile
 70
    0
 62
    7
  6
CONTINUOUS
  0
ENDTAB
  0
TABLE
  2
STYLE
  5
70
330
0
100
AcDbSymbolTable
 70
     2
  0
STYLE
  5
71
330
70
100
AcDbSymbolTableRecord
100
AcDbTextStyleTableRecord
  2
STANDARD
 70
     0
 40
0.0
 41
1.0
 50
0.0
 71
     0
 42
2.5
  3
arial.ttf
  4

  0
STYLE
  5
72
330
70
100
AcDbSymbolTableRecord
100
AcDbTextStyleTableRecord
  2
ANNOTATIVE
 70
     0
 40
0.0
 41
1.0
 50
0.0
 71
     0
 42
2.5
  3
arial.ttf
  4

  0
ENDTAB
  0
TABLE
  2
VIEW
  5
73
330
0
100
AcDbSymbolTable
 70
     0
  0
ENDTAB
  0
TABLE
  2
UCS
  5
74
330
0
100
AcDbSymbolTable
 70
     0
  0
ENDTAB
  0
TABLE
  2
APPID
  5
75
330
0
100
AcDbSymbolTable
 70
     2
  0
APPID
  5
76
330
75
100
AcDbSymbolTableRecord
100
AcDbRegAppTableRecord
  2
ACAD
 70
     0
  0
APPID
  5
77
330
75
100
AcDbSymbolTableRecord
100
AcDbRegAppTableRecord
  2
ACADANNOTATIVE
 70
     0
  0
ENDTAB
  0
TABLE
  2
DIMSTYLE
  5
78
330
0
100
AcDbSymbolTable
 70
     2
  0
DIMSTYLE
105
79
330
78
100
AcDbSymbolTableRecord
100
AcDbDimStyleTableRecord
  2
STANDARD
 70
     0
  3

  4

  5

  6

  7

 40
0.0
 41
2.5
 42
0.625
 43
3.75
 44
1.25
 45
0.0
 46
0.0
 47
0.0
 48
0.0
140
2.5
141
2.5
142
0.0
143
0.03937007874016
144
1.0
145
0.0
146
1.0
147
0.625
 71
     0
 72
     0
 73
     0
 74
     0
 75
     0
 76
     0
 77
     1
 78
     8
170
     0
171
     3
172
     1
173
     0
174
     0
175
     0
176
     0
177
     0
178
     0
270
     2
271
     2
272
     2
273
     2
274
     3
340
71
275
     0
280
     0
281
     0
282
     0
283
     0
284
     8
285
     0
286
     0
287
     3
288
     0
  0
ENDTAB
  0
TABLE
  2
BLOCK_RECORD
  5
A01
330
0
100
AcDbSymbolTable
  70
5
  0
BLOCK_RECORD
  5
A02
330
A01
100
AcDbSymbolTableRecord
100
AcDbBlockTableRecord
  2
*MODEL_SPACE
  0
BLOCK_RECORD
  5
A03
330
A01
100
AcDbSymbolTableRecord
100
AcDbBlockTableRecord
  2
*PAPER_SPACE
  0
ENDTAB
  0
ENDSEC
  0
SECTION
  2
BLOCKS
  0
BLOCK
  5
A04
330
A02
100
AcDbEntity
  8
0
100
AcDbBlockBegin
  2
*MODEL_SPACE
 70
   0
 10
0
 20
0
 30
0
  3
*MODEL_SPACE
  1
 
  0
ENDBLK
  5
A05
330
A02
100
AcDbEntity
  8
0
100
AcDbBlockEnd
  0
BLOCK
  5
A06
330
A03
100
AcDbEntity
 67
1
  8
0
100
AcDbBlockBegin
  2
*PAPER_SPACE
 70
   0
 10
0
 20
0
 30
0
  3
*PAPER_SPACE
  1
 
  0
ENDBLK
  5
A07
330
A03
100
AcDbEntity
 67
    1
  8
0
100
AcDbBlockEnd
  0
ENDSEC
  0
SECTION
  2
ENTITIES
  0
LINE
  5
A08
330
A02
100
AcDbEntity
  8
CutProfile
100
AcDbLine
 10
407.500000000
 20
346.000000000
 30
0.000000000
 11
346.900000000
 21
346.000000000
 31
0.000000000
  0
LINE
  5
A09
330
A02
100
AcDbEntity
  8
CutProfile
100
AcDbLine
 10
407.500000000
 20
346.000000000
 30
0.000000000
 11
407.500000000
 21
357.600000000
 31
0.000000000
  0
ARC
  5
A0A
330
A02
100
AcDbEntity
  8
CutProfile
100
AcDbCircle
 10
409.500000000
 20
357.600000000
 30
0.000000000
 40
2.000000000
100
AcDbArc
 50
90.000000000
 51
180.000000000
  0
LINE
  5
A0B
330
A02
100
AcDbEntity
  8
CutProfile
100
AcDbLine
 10
466.100000000
 20
359.600000000
 30
0.000000000
 11
409.500000000
 21
359.600000000
 31
0.000000000
  0
ARC
  5
A0C
330
A02
100
AcDbEntity
  8
CutProfile
100
AcDbCircle
 10
466.100000000
 20
357.600000000
 30
0.000000000
 40
2.000000000
100
AcDbArc
 50
0.000000000
 51
90.000000000
  0
LINE
  5
A0D
330
A02
100
AcDbEntity
  8
CutProfile
100
AcDbLine
 10
468.100000000
 20
357.600000000
 30
0.000000000
 11
468.100000000
 21
346.000000000
 31
0.000000000
  0
LINE
  5
A0E
330
A02
100
AcDbEntity
  8
CutProfile
100
AcDbLine
 10
498.400000000
 20
346.000000000
 30
0.000000000
 11
468.100000000
 21
346.000000000
 31
0.000000000
  0
LINE
  5
A0F
330
A02
100
AcDbEntity
  8
CutProfile
100
AcDbLine
 10
498.400000000
 20
325.225000000
 30
0.000000000
 11
498.400000000
 21
346.000000000
 31
0.000000000
  0
LINE
  5
A10
330
A02
100
AcDbEntity
  8
CutProfile
100
AcDbLine
 10
498.400000000
 20
325.225000000
 30
0.000000000
 11
510.000000000
 21
325.225000000
 31
0.000000000
  0
ARC
  5
A11
330
A02
100
AcDbEntity
  8
CutProfile
100
AcDbCircle
 10
510.000000000
 20
323.225000000
 30
0.000000000
 40
2.000000000
100
AcDbArc
 50
0.000000000
 51
90.000000000
  0
LINE
  5
A12
330
A02
100
AcDbEntity
  8
CutProfile
100
AcDbLine
 10
512.000000000
 20
285.675000000
 30
0.000000000
 11
512.000000000
 21
323.225000000
 31
0.000000000
  0
ARC
  5
A13
330
A02
100
AcDbEntity
  8
CutProfile
100
AcDbCircle
 10
510.000000000
 20
285.675000000
 30
0.000000000
 40
2.000000000
100
AcDbArc
 50
-90.000000000
 51
0.000000000
  0
LINE
  5
A14
330
A02
100
AcDbEntity
  8
CutProfile
100
AcDbLine
 10
510.000000000
 20
283.675000000
 30
0.000000000
 11
498.400000000
 21
283.675000000
 31
0.000000000
  0
LINE
  5
A15
330
A02
100
AcDbEntity
  8
CutProfile
100
AcDbLine
 10
498.400000000
 20
242.125000000
 30
0.000000000
 11
498.400000000
 21
283.675000000
 31
0.000000000
  0
LINE
  5
A16
330
A02
100
AcDbEntity
  8
CutProfile
100
AcDbLine
 10
498.400000000
 20
242.125000000
 30
0.000000000
 11
510.000000000
 21
242.125000000
 31
0.000000000
  0
ARC
  5
A17
330
A02
100
AcDbEntity
  8
CutProfile
100
AcDbCircle
 10
510.000000000
 20
240.125000000
 30
0.000000000
 40
2.000000000
100
AcDbArc
 50
0.000000000
 51
90.000000000
  0
LINE
  5
A18
330
A02
100
AcDbEntity
  8
CutProfile
100
AcDbLine
 10
512.000000000
 20
202.575000000
 30
0.000000000
 11
512.000000000
 21
240.125000000
 31
0.000000000
  0
ARC
  5
A19
330
A02
100
AcDbEntity
  8
CutProfile
100
AcDbCircle
 10
510.000000000
 20
202.575000000
 30
0.000000000
 40
2.000000000
100
AcDbArc
 50
-90.000000000
 51
0.000000000
  0
LINE
  5
A1A
330
A02
100
AcDbEntity
  8
CutProfile
100
AcDbLine
 10
510.000000000
 20
200.575000000
 30
0.000000000
 11
498.400000000
 21
200.575000000
 31
0.000000000
  0
LINE
  5
A1B
330
A02
100
AcDbEntity
  8
CutProfile
100
AcDbLine
 10
498.400000000
 20
159.025000000
 30
0.000000000
 11
498.400000000
 21
200.575000000
 31
0.000000000
  0
LINE
  5
A1C
330
A02
100
AcDbEntity
  8
CutProfile
100
AcDbLine
 10
498.400000000
 20
159.025000000
 30
0.000000000
 11
510.000000000
 21
159.025000000
 31
0.000000000
  0
ARC
  5
A1D
330
A02
100
AcDbEntity
  8
CutProfile
100
AcDbCircle
 10
510.000000000
 20
157.025000000
 30
0.000000000
 40
2.000000000
100
AcDbArc
 50
0.000000000
 51
90.000000000
  0
LINE
  5
A1E
330
A02
100
AcDbEntity
  8
CutProfile
100
AcDbLine
 10
512.000000000
 20
119.475000000
 30
0.000000000
 11
512.000000000
 21
157.025000000
 31
0.000000000
  0
ARC
  5
A1F
330
A02
100
AcDbEntity
  8
CutProfile
100
AcDbCircle
 10
510.000000000
 20
119.475000000
 30
0.000000000
 40
2.000000000
100
AcDbArc
 50
-90.000000000
 51
0.000000000
  0
LINE
  5
A20
330
A02
100
AcDbEntity
  8
CutProfile
100
AcDbLine
 10
510.000000000
 20
117.475000000
 30
0.000000000
 11
498.400000000
 21
117.475000000
 31
0.000000000
  0
LINE
  5
A21
330
A02
100
AcDbEntity
  8
CutProfile
100
AcDbLine
 10
498.400000000
 20
75.925000000
 30
0.000000000
 11
498.400000000
 21
117.475000000
 31
0.000000000
  0
LINE
  5
A22
330
A02
100
AcDbEntity
  8
CutProfile
100
AcDbLine
 10
498.400000000
 20
75.925000000
 30
0.000000000
 11
510.000000000
 21
75.925000000
 31
0.000000000
  0
ARC
  5
A23
330
A02
100
AcDbEntity
  8
CutProfile
100
AcDbCircle
 10
510.000000000
 20
73.925000000
 30
0.000000000
 40
2.000000000
100
AcDbArc
 50
0.000000000
 51
90.000000000
  0
LINE
  5
A24
330
A02
100
AcDbEntity
  8
CutProfile
100
AcDbLine
 10
512.000000000
 20
36.375000000
 30
0.000000000
 11
512.000000000
 21
73.925000000
 31
0.000000000
  0
ARC
  5
A25
330
A02
100
AcDbEntity
  8
CutProfile
100
AcDbCircle
 10
510.000000000
 20
36.375000000
 30
0.000000000
 40
2.000000000
100
AcDbArc
 50
-90.000000000
 51
0.000000000
  0
LINE
  5
A26
330
A02
100
AcDbEntity
  8
CutProfile
100
AcDbLine
 10
510.000000000
 20
34.375000000
 30
0.000000000
 11
498.400000000
 21
34.375000000
 31
0.000000000
  0
LINE
  5
A27
330
A02
100
AcDbEntity
  8
CutProfile
100
AcDbLine
 10
498.400000000
 20
13.600000000
 30
0.000000000
 11
498.400000000
 21
34.375000000
 31
0.000000000
  0
LINE
  5
A28
330
A02
100
AcDbEntity
  8
CutProfile
100
AcDbLine
 10
468.100000000
 20
13.600000000
 30
0.000000000
 11
498.400000000
 21
13.600000000
 31
0.000000000
  0
LINE
  5
A29
330
A02
100
AcDbEntity
  8
CutProfile
100
AcDbLine
 10
468.100000000
 20
13.600000000
 30
0.000000000
 11
468.100000000
 21
2.000000000
 31
0.000000000
  0
ARC
  5
A2A
330
A02
100
AcDbEntity
  8
CutProfile
100
AcDbCircle
 10
466.100000000
 20
2.000000000
 30
0.000000000
 40
2.000000000
100
AcDbArc
 50
-90.000000000
 51
-0.000000000
  0
LINE
  5
A2B
330
A02
100
AcDbEntity
  8
CutProfile
100
AcDbLine
 10
409.500000000
 20
0.000000000
 30
0.000000000
 11
466.100000000
 21
0.000000000
 31
0.000000000
  0
ARC
  5
A2C
330
A02
100
AcDbEntity
  8
CutProfile
100
AcDbCircle
 10
409.500000000
 20
2.000000000
 30
0.000000000
 40
2.000000000
100
AcDbArc
 50
-180.000000000
 51
-90.000000000
  0
LINE
  5
A2D
330
A02
100
AcDbEntity
  8
CutProfile
100
AcDbLine
 10
407.500000000
 20
2.000000000
 30
0.000000000
 11
407.500000000
 21
13.600000000
 31
0.000000000
  0
LINE
  5
A2E
330
A02
100
AcDbEntity
  8
CutProfile
100
AcDbLine
 10
346.900000000
 20
13.600000000
 30
0.000000000
 11
407.500000000
 21
13.600000000
 31
0.000000000
  0
LINE
  5
A2F
330
A02
100
AcDbEntity
  8
CutProfile
100
AcDbLine
 10
346.900000000
 20
13.600000000
 30
0.000000000
 11
346.900000000
 21
2.000000000
 31
0.000000000
  0
ARC
  5
A30
330
A02
100
AcDbEntity
  8
CutProfile
100
AcDbCircle
 10
344.900000000
 20
2.000000000
 30
0.000000000
 40
2.000000000
100
AcDbArc
 50
-90.000000000
 51
-0.000000000
  0
LINE
  5
A31
330
A02
100
AcDbEntity
  8
CutProfile
100
AcDbLine
 10
288.300000000
 20
0.000000000
 30
0.000000000
 11
344.900000000
 21
0.000000000
 31
0.000000000
  0
ARC
  5
A32
330
A02
100
AcDbEntity
  8
CutProfile
100
AcDbCircle
 10
288.300000000
 20
2.000000000
 30
0.000000000
 40
2.000000000
100
AcDbArc
 50
-180.000000000
 51
-90.000000000
  0
LINE
  5
A33
330
A02
100
AcDbEntity
  8
CutProfile
100
AcDbLine
 10
286.300000000
 20
2.000000000
 30
0.000000000
 11
286.300000000
 21
13.600000000
 31
0.000000000
  0
LINE
  5
A34
330
A02
100
AcDbEntity
  8
CutProfile
100
AcDbLine
 10
225.700000000
 20
13.600000000
 30
0.000000000
 11
286.300000000
 21
13.600000000
 31
0.000000000
  0
LINE
  5
A35
330
A02
100
AcDbEntity
  8
CutProfile
100
AcDbLine
 10
225.700000000
 20
13.600000000
 30
0.000000000
 11
225.700000000
 21
2.000000000
 31
0.000000000
  0
ARC
  5
A36
330
A02
100
AcDbEntity
  8
CutProfile
100
AcDbCircle
 10
223.700000000
 20
2.000000000
 30
0.000000000
 40
2.000000000
100
AcDbArc
 50
-90.000000000
 51
-0.000000000
  0
LINE
  5
A37
330
A02
100
AcDbEntity
  8
CutProfile
100
AcDbLine
 10
167.100000000
 20
0.000000000
 30
0.000000000
 11
223.700000000
 21
0.000000000
 31
0.000000000
  0
ARC
  5
A38
330
A02
100
AcDbEntity
  8
CutProfile
100
AcDbCircle
 10
167.100000000
 20
2.000000000
 30
0.000000000
 40
2.000000000
100
AcDbArc
 50
-180.000000000
 51
-90.000000000
  0
LINE
  5
A39
330
A02
100
AcDbEntity
  8
CutProfile
100
AcDbLine
 10
165.100000000
 20
2.000000000
 30
0.000000000
 11
165.100000000
 21
13.600000000
 31
0.000000000
  0
LINE
  5
A3A
330
A02
100
AcDbEntity
  8
CutProfile
100
AcDbLine
 10
104.500000000
 20
13.600000000
 30
0.000000000
 11
165.100000000
 21
13.600000000
 31
0.000000000
  0
LINE
  5
A3B
330
A02
100
AcDbEntity
  8
CutProfile
100
AcDbLine
 10
104.500000000
 20
13.600000000
 30
0.000000000
 11
104.500000000
 21
2.000000000
 31
0.000000000
  0
ARC
  5
A3C
330
A02
100
AcDbEntity
  8
CutProfile
100
AcDbCircle
 10
102.500000000
 20
2.000000000
 30
0.000000000
 40
2.000000000
100
AcDbArc
 50
-90.000000000
 51
-0.000000000
  0
LINE
  5
A3D
330
A02
100
AcDbEntity
  8
CutProfile
100
AcDbLine
 10
45.900000000
 20
0.000000000
 30
0.000000000
 11
102.500000000
 21
0.000000000
 31
0.000000000
  0
ARC
  5
A3E
330
A02
100
AcDbEntity
  8
CutProfile
100
AcDbCircle
 10
45.900000000
 20
2.000000000
 30
0.000000000
 40
2.000000000
100
AcDbArc
 50
-180.000000000
 51
-90.000000000
  0
LINE
  5
A3F
330
A02
100
AcDbEntity
  8
CutProfile
100
AcDbLine
 10
43.900000000
 20
2.000000000
 30
0.000000000
 11
43.900000000
 21
13.600000000
 31
0.000000000
  0
LINE
  5
A40
330
A02
100
AcDbEntity
  8
CutProfile
100
AcDbLine
 10
13.600000000
 20
13.600000000
 30
0.000000000
 11
43.900000000
 21
13.600000000
 31
0.000000000
  0
LINE
  5
A41
330
A02
100
AcDbEntity
  8
CutProfile
100
AcDbLine
 10
13.600000000
 20
34.375000000
 30
0.000000000
 11
13.600000000
 21
13.600000000
 31
0.000000000
  0
LINE
  5
A42
330
A02
100
AcDbEntity
  8
CutProfile
100
AcDbLine
 10
13.600000000
 20
34.375000000
 30
0.000000000
 11
2.000000000
 21
34.375000000
 31
0.000000000
  0
ARC
  5
A43
330
A02
100
AcDbEntity
  8
CutProfile
100
AcDbCircle
 10
2.000000000
 20
36.375000000
 30
0.000000000
 40
2.000000000
100
AcDbArc
 50
180.000000000
 51
-90.000000000
  0
LINE
  5
A44
330
A02
100
AcDbEntity
  8
CutProfile
100
AcDbLine
 10
0.000000000
 20
73.925000000
 30
0.000000000
 11
0.000000000
 21
36.375000000
 31
0.000000000
  0
ARC
  5
A45
330
A02
100
AcDbEntity
  8
CutProfile
100
AcDbCircle
 10
2.000000000
 20
73.925000000
 30
0.000000000
 40
2.000000000
100
AcDbArc
 50
90.000000000
 51
180.000000000
  0
LINE
  5
A46
330
A02
100
AcDbEntity
  8
CutProfile
100
AcDbLine
 10
2.000000000
 20
75.925000000
 30
0.000000000
 11
13.600000000
 21
75.925000000
 31
0.000000000
  0
LINE
  5
A47
330
A02
100
AcDbEntity
  8
CutProfile
100
AcDbLine
 10
13.600000000
 20
117.475000000
 30
0.000000000
 11
13.600000000
 21
75.925000000
 31
0.000000000
  0
LINE
  5
A48
330
A02
100
AcDbEntity
  8
CutProfile
100
AcDbLine
 10
13.600000000
 20
117.475000000
 30
0.000000000
 11
2.000000000
 21
117.475000000
 31
0.000000000
  0
ARC
  5
A49
330
A02
100
AcDbEntity
  8
CutProfile
100
AcDbCircle
 10
2.000000000
 20
119.475000000
 30
0.000000000
 40
2.000000000
100
AcDbArc
 50
180.000000000
 51
-90.000000000
  0
LINE
  5
A4A
330
A02
100
AcDbEntity
  8
CutProfile
100
AcDbLine
 10
0.000000000
 20
157.025000000
 30
0.000000000
 11
0.000000000
 21
119.475000000
 31
0.000000000
  0
ARC
  5
A4B
330
A02
100
AcDbEntity
  8
CutProfile
100
AcDbCircle
 10
2.000000000
 20
157.025000000
 30
0.000000000
 40
2.000000000
100
AcDbArc
 50
90.000000000
 51
180.000000000
  0
LINE
  5
A4C
330
A02
100
AcDbEntity
  8
CutProfile
100
AcDbLine
 10
2.000000000
 20
159.025000000
 30
0.000000000
 11
13.600000000
 21
159.025000000
 31
0.000000000
  0
LINE
  5
A4D
330
A02
100
AcDbEntity
  8
CutProfile
100
AcDbLine
 10
13.600000000
 20
200.575000000
 30
0.000000000
 11
13.600000000
 21
159.025000000
 31
0.000000000
  0
LINE
  5
A4E
330
A02
100
AcDbEntity
  8
CutProfile
100
AcDbLine
 10
13.600000000
 20
200.575000000
 30
0.000000000
 11
2.000000000
 21
200.575000000
 31
0.000000000
  0
ARC
  5
A4F
330
A02
100
AcDbEntity
  8
CutProfile
100
AcDbCircle
 10
2.000000000
 20
202.575000000
 30
0.000000000
 40
2.000000000
100
AcDbArc
 50
180.000000000
 51
-90.000000000
  0
LINE
  5
A50
330
A02
100
AcDbEntity
  8
CutProfile
100
AcDbLine
 10
0.000000000
 20
240.125000000
 30
0.000000000
 11
0.000000000
 21
202.575000000
 31
0.000000000
  0
ARC
  5
A51
330
A02
100
AcDbEntity
  8
CutProfile
100
AcDbCircle
 10
2.000000000
 20
240.125000000
 30
0.000000000
 40
2.000000000
100
AcDbArc
 50
90.000000000
 51
180.000000000
  0
LINE
  5
A52
330
A02
100
AcDbEntity
  8
CutProfile
100
AcDbLine
 10
2.000000000
 20
242.125000000
 30
0.000000000
 11
13.600000000
 21
242.125000000
 31
0.000000000
  0
LINE
  5
A53
330
A02
100
AcDbEntity
  8
CutProfile
100
AcDbLine
 10
13.600000000
 20
283.675000000
 30
0.000000000
 11
13.600000000
 21
242.125000000
 31
0.000000000
  0
LINE
  5
A54
330
A02
100
AcDbEntity
  8
CutProfile
100
AcDbLine
 10
13.600000000
 20
283.675000000
 30
0.000000000
 11
2.000000000
 21
283.675000000
 31
0.000000000
  0
ARC
  5
A55
330
A02
100
AcDbEntity
  8
CutProfile
100
AcDbCircle
 10
2.000000000
 20
285.675000000
 30
0.000000000
 40
2.000000000
100
AcDbArc
 50
180.000000000
 51
-90.000000000
  0
LINE
  5
A56
330
A02
100
AcDbEntity
  8
CutProfile
100
AcDbLine
 10
0.000000000
 20
323.225000000
 30
0.000000000
 11
0.000000000
 21
285.675000000
 31
0.000000000
  0
ARC
  5
A57
330
A02
100
AcDbEntity
  8
CutProfile
100
AcDbCircle
 10
2.000000000
 20
323.225000000
 30
0.000000000
 40
2.000000000
100
AcDbArc
 50
90.000000000
 51
180.000000000
  0
LINE
  5
A58
330
A02
100
AcDbEntity
  8
CutProfile
100
AcDbLine
 10
2.000000000
 20
325.225000000
 30
0.000000000
 11
13.600000000
 21
325.225000000
 31
0.000000000
  0
LINE
  5
A59
330
A02
100
AcDbEntity
  8
CutProfile
100
AcDbLine
 10
13.600000000
 20
346.000000000
 30
0.000000000
 11
13.600000000
 21
325.225000000
 31
0.000000000
  0
LINE
  5
A5A
330
A02
100
AcDbEntity
  8
CutProfile
100
AcDbLine
 10
43.900000000
 20
346.000000000
 30
0.000000000
 11
13.600000000
 21
346.000000000
 31
0.000000000
  0
LINE
  5
A5B
330
A02
100
AcDbEntity
  8
CutProfile
100
AcDbLine
 10
43.900000000
 20
346.000000000
 30
0.000000000
 11
43.900000000
 21
357.600000000
 31
0.000000000
  0
ARC
  5
A5C
330
A02
100
AcDbEntity
  8
CutProfile
100
AcDbCircle
 10
45.900000000
 20
357.600000000
 30
0.000000000
 40
2.000000000
100
AcDbArc
 50
90.000000000
 51
180.000000000
  0
LINE
  5
A5D
330
A02
100
AcDbEntity
  8
CutProfile
100
AcDbLine
 10
102.500000000
 20
359.600000000
 30
0.000000000
 11
45.900000000
 21
359.600000000
 31
0.000000000
  0
ARC
  5
A5E
330
A02
100
AcDbEntity
  8
CutProfile
100
AcDbCircle
 10
102.500000000
 20
357.600000000
 30
0.000000000
 40
2.000000000
100
AcDbArc
 50
0.000000000
 51
90.000000000
  0
LINE
  5
A5F
330
A02
100
AcDbEntity
  8
CutProfile
100
AcDbLine
 10
104.500000000
 20
357.600000000
 30
0.000000000
 11
104.500000000
 21
346.000000000
 31
0.000000000
  0
LINE
  5
A60
330
A02
100
AcDbEntity
  8
CutProfile
100
AcDbLine
 10
165.100000000
 20
346.000000000
 30
0.000000000
 11
104.500000000
 21
346.000000000
 31
0.000000000
  0
LINE
  5
A61
330
A02
100
AcDbEntity
  8
CutProfile
100
AcDbLine
 10
165.100000000
 20
346.000000000
 30
0.000000000
 11
165.100000000
 21
357.600000000
 31
0.000000000
  0
ARC
  5
A62
330
A02
100
AcDbEntity
  8
CutProfile
100
AcDbCircle
 10
167.100000000
 20
357.600000000
 30
0.000000000
 40
2.000000000
100
AcDbArc
 50
90.000000000
 51
180.000000000
  0
LINE
  5
A63
330
A02
100
AcDbEntity
  8
CutProfile
100
AcDbLine
 10
223.700000000
 20
359.600000000
 30
0.000000000
 11
167.100000000
 21
359.600000000
 31
0.000000000
  0
ARC
  5
A64
330
A02
100
AcDbEntity
  8
CutProfile
100
AcDbCircle
 10
223.700000000
 20
357.600000000
 30
0.000000000
 40
2.000000000
100
AcDbArc
 50
0.000000000
 51
90.000000000
  0
LINE
  5
A65
330
A02
100
AcDbEntity
  8
CutProfile
100
AcDbLine
 10
225.700000000
 20
357.600000000
 30
0.000000000
 11
225.700000000
 21
346.000000000
 31
0.000000000
  0
LINE
  5
A66
330
A02
100
AcDbEntity
  8
CutProfile
100
AcDbLine
 10
286.300000000
 20
346.000000000
 30
0.000000000
 11
225.700000000
 21
346.000000000
 31
0.000000000
  0
LINE
  5
A67
330
A02
100
AcDbEntity
  8
CutProfile
100
AcDbLine
 10
286.300000000
 20
346.000000000
 30
0.000000000
 11
286.300000000
 21
357.600000000
 31
0.000000000
  0
ARC
  5
A68
330
A02
100
AcDbEntity
  8
CutProfile
100
AcDbCircle
 10
288.300000000
 20
357.600000000
 30
0.000000000
 40
2.000000000
100
AcDbArc
 50
90.000000000
 51
180.000000000
  0
LINE
  5
A69
330
A02
100
AcDbEntity
  8
CutProfile
100
AcDbLine
 10
344.900000000
 20
359.600000000
 30
0.000000000
 11
288.300000000
 21
359.600000000
 31
0.000000000
  0
ARC
  5
A6A
330
A02
100
AcDbEntity
  8
CutProfile
100
AcDbCircle
 10
344.900000000
 20
357.600000000
 30
0.000000000
 40
2.000000000
100
AcDbArc
 50
0.000000000
 51
90.000000000
  0
LINE
  5
A6B
330
A02
100
AcDbEntity
  8
CutProfile
100
AcDbLine
 10
346.900000000
 20
357.600000000
 30
0.000000000
 11
346.900000000
 21
346.000000000
 31
0.000000000
  0
ARC
  5
A6C
330
A02
100
AcDbEntity
  8
CutProfile
100
AcDbCircle
 10
25.200000000
 20
25.200000000
 30
0.000000000
 40
3.000000000
100
AcDbArc
 50
170.499110628
 51
-82.653365407
  0
LINE
  5
A6D
330
A02
100
AcDbEntity
  8
CutProfile
100
AcDbLine
 10
25.583615689
 20
22.224627922
 30
0.000000000
 11
35.200282356
 21
23.464507880
 31
0.000000000
  0
ARC
  5
A6E
330
A02
100
AcDbEntity
  8
CutProfile
100
AcDbCircle
 10
34.816666667
 20
26.439879958
 30
0.000000000
 40
3.000000000
100
AcDbArc
 50
-82.653365407
 51
-71.556202896
  0
LINE
  5
A6F
330
A02
100
AcDbEntity
  8
CutProfile
100
AcDbLine
 10
35.765789474
 20
23.593976605
 30
0.000000000
 11
45.382456140
 21
26.801182376
 31
0.000000000
  0
ARC
  5
A70
330
A02
100
AcDbEntity
  8
CutProfile
100
AcDbCircle
 10
44.433333333
 20
29.647085729
 30
0.000000000
 40
3.000000000
100
AcDbArc
 50
-71.556202896
 51
-68.186530765
  0
LINE
  5
A71
330
A02
100
AcDbEntity
  8
CutProfile
100
AcDbLine
 10
45.548091622
 20
26.861890232
 30
0.000000000
 11
55.042375082
 21
30.661921931
 31
0.000000000
  0
LINE
  5
A72
330
A02
100
AcDbEntity
  8
CutProfile
100
AcDbLine
 10
55.042375082
 20
30.661921931
 30
0.000000000
 11
64.223163896
 21
33.430528176
 31
0.000000000
  0
LINE
  5
A73
330
A02
100
AcDbEntity
  8
CutProfile
100
AcDbLine
 10
64.223163896
 20
33.430528176
 30
0.000000000
 11
73.135980943
 21
34.127967768
 31
0.000000000
  0
LINE
  5
A74
330
A02
100
AcDbEntity
  8
CutProfile
100
AcDbLine
 10
73.135980943
 20
34.127967768
 30
0.000000000
 11
82.124662144
 21
32.533345986
 31
0.000000000
  0
LINE
  5
A75
330
A02
100
AcDbEntity
  8
CutProfile
100
AcDbLine
 10
82.124662144
 20
32.533345986
 30
0.000000000
 11
91.459554869
 21
29.175227337
 31
0.000000000
  0
LINE
  5
A76
330
A02
100
AcDbEntity
  8
CutProfile
100
AcDbLine
 10
91.459554869
 20
29.175227337
 30
0.000000000
 11
101.035073383
 21
25.408257698
 31
0.000000000
  0
ARC
  5
A77
330
A02
100
AcDbEntity
  8
CutProfile
100
AcDbCircle
 10
102.133333333
 20
28.200000000
 30
0.000000000
 40
3.000000000
100
AcDbArc
 50
-111.474472324
 51
-104.813611719
  0
LINE
  5
A78
330
A02
100
AcDbEntity
  8
CutProfile
100
AcDbLine
 10
101.366307018
 20
25.299711974
 30
0.000000000
 11
110.982973685
 21
22.756434779
 31
0.000000000
  0
ARC
  5
A79
330
A02
100
AcDbEntity
  8
CutProfile
100
AcDbCircle
 10
111.750000000
 20
25.656722805
 30
0.000000000
 40
3.000000000
100
AcDbArc
 50
-104.813611719
 51
-91.502717847
  0
LINE
  5
A7A
330
A02
100
AcDbEntity
  8
CutProfile
100
AcDbLine
 10
111.671326898
 20
22.657754559
 30
0.000000000
 11
121.287993564
 21
22.405476796
 31
0.000000000
  0
ARC
  5
A7B
330
A02
100
AcDbEntity
  8
CutProfile
100
AcDbCircle
 10
121.366666667
 20
25.404445042
 30
0.000000000
 40
3.000000000
100
AcDbArc
 50
-91.502717847
 51
-77.437418758
  0
LINE
  5
A7C
330
A02
100
AcDbEntity
  8
CutProfile
100
AcDbLine
 10
122.019184195
 20
22.476267986
 30
0.000000000
 11
131.635850861
 21
24.619254369
 31
0.000000000
  0
ARC
  5
A7D
330
A02
100
AcDbEntity
  8
CutProfile
100
AcDbCircle
 10
130.983333333
 20
27.547431426
 30
0.000000000
 40
3.000000000
100
AcDbArc
 50
-77.437418758
 51
-69.202397224
  0
LINE
  5
A7E
330
A02
100
AcDbEntity
  8
CutProfile
100
AcDbLine
 10
151.079978065
 20
31.971365007
 30
0.000000000
 11
132.048536882
 21
24.742909827
 31
0.000000000
  0
LINE
  5
A7F
330
A02
100
AcDbEntity
  8
CutProfile
100
AcDbLine
 10
151.079978065
 20
31.971365007
 30
0.000000000
 11
160.124622054
 21
33.986881359
 31
0.000000000
  0
LINE
  5
A80
330
A02
100
AcDbEntity
  8
CutProfile
100
AcDbLine
 10
160.124622054
 20
33.986881359
 30
0.000000000
 11
169.021393053
 21
33.753488900
 31
0.000000000
  0
LINE
  5
A81
330
A02
100
AcDbEntity
  8
CutProfile
100
AcDbLine
 10
169.021393053
 20
33.753488900
 30
0.000000000
 11
178.130865259
 21
31.344347175
 31
0.000000000
  0
LINE
  5
A82
330
A02
100
AcDbEntity
  8
CutProfile
100
AcDbLine
 10
178.130865259
 20
31.344347175
 30
0.000000000
 11
187.585073383
 21
27.625100545
 31
0.000000000
  0
ARC
  5
A83
330
A02
100
AcDbEntity
  8
CutProfile
100
AcDbCircle
 10
188.683333333
 20
30.416842847
 30
0.000000000
 40
3.000000000
100
AcDbArc
 50
-111.474472324
 51
-109.785602389
  0
LINE
  5
A84
330
A02
100
AcDbEntity
  8
CutProfile
100
AcDbLine
 10
187.667828894
 20
27.593945269
 30
0.000000000
 11
197.284495561
 21
24.134461735
 31
0.000000000
  0
ARC
  5
A85
330
A02
100
AcDbEntity
  8
CutProfile
100
AcDbCircle
 10
198.300000000
 20
26.957359313
 30
0.000000000
 40
3.000000000
100
AcDbArc
 50
-109.785602389
 51
-100.059798449
  0
LINE
  5
A86
330
A02
100
AcDbEntity
  8
CutProfile
100
AcDbLine
 10
197.775972279
 20
24.003481362
 30
0.000000000
 11
207.392638946
 21
22.297452881
 31
0.000000000
  0
ARC
  5
A87
330
A02
100
AcDbEntity
  8
CutProfile
100
AcDbCircle
 10
207.916666667
 20
25.251330832
 30
0.000000000
 40
3.000000000
100
AcDbArc
 50
-100.059798449
 51
-85.525647995
  0
LINE
  5
A88
330
A02
100
AcDbEntity
  8
CutProfile
100
AcDbLine
 10
208.150705144
 20
22.260473765
 30
0.000000000
 11
217.767371811
 21
23.012990511
 31
0.000000000
  0
ARC
  5
A89
330
A02
100
AcDbEntity
  8
CutProfile
100
AcDbCircle
 10
217.533333333
 20
26.003847577
 30
0.000000000
 40
3.000000000
100
AcDbArc
 50
-85.525647995
 51
-73.218517586
  0
LINE
  5
A8A
330
A02
100
AcDbEntity
  8
CutProfile
100
AcDbLine
 10
218.399500482
 20
23.131608996
 30
0.000000000
 11
228.016167149
 21
26.031660824
 31
0.000000000
  0
ARC
  5
A8B
330
A02
100
AcDbEntity
  8
CutProfile
100
AcDbCircle
 10
227.150000000
 20
28.903899406
 30
0.000000000
 40
3.000000000
100
AcDbArc
 50
-73.218517586
 51
-68.186530765
  0
LINE
  5
A8C
330
A02
100
AcDbEntity
  8
CutProfile
100
AcDbLine
 10
228.264758288
 20
26.118703908
 30
0.000000000
 11
237.799500057
 21
29.934928810
 31
0.000000000
  0
LINE
  5
A8D
330
A02
100
AcDbEntity
  8
CutProfile
100
AcDbLine
 10
237.799500057
 20
29.934928810
 30
0.000000000
 11
247.055991193
 21
33.022014265
 31
0.000000000
  0
LINE
  5
A8E
330
A02
100
AcDbEntity
  8
CutProfile
100
AcDbLine
 10
247.055991193
 20
33.022014265
 30
0.000000000
 11
256.000000000
 21
34.175168226
 31
0.000000000
  0
LINE
  5
A8F
330
A02
100
AcDbEntity
  8
CutProfile
100
AcDbLine
 10
256.000000000
 20
34.175168226
 30
0.000000000
 11
264.944008807
 21
33.022014265
 31
0.000000000
  0
LINE
  5
A90
330
A02
100
AcDbEntity
  8
CutProfile
100
AcDbLine
 10
264.944008807
 20
33.022014265
 30
0.000000000
 11
274.200499943
 21
29.934928810
 31
0.000000000
  0
LINE
  5
A91
330
A02
100
AcDbEntity
  8
CutProfile
100
AcDbLine
 10
274.200499943
 20
29.934928810
 30
0.000000000
 11
283.735241712
 21
26.118703908
 31
0.000000000
  0
ARC
  5
A92
330
A02
100
AcDbEntity
  8
CutProfile
100
AcDbCircle
 10
284.850000000
 20
28.903899406
 30
0.000000000
 40
3.000000000
100
AcDbArc
 50
-111.813469235
 51
-106.781482414
  0
LINE
  5
A93
330
A02
100
AcDbEntity
  8
CutProfile
100
AcDbLine
 10
283.983832851
 20
26.031660824
 30
0.000000000
 11
293.600499518
 21
23.131608996
 31
0.000000000
  0
ARC
  5
A94
330
A02
100
AcDbEntity
  8
CutProfile
100
AcDbCircle
 10
294.466666667
 20
26.003847577
 30
0.000000000
 40
3.000000000
100
AcDbArc
 50
-106.781482414
 51
-94.474352005
  0
LINE
  5
A95
330
A02
100
AcDbEntity
  8
CutProfile
100
AcDbLine
 10
294.232628189
 20
23.012990511
 30
0.000000000
 11
303.849294856
 21
22.260473765
 31
0.000000000
  0
ARC
  5
A96
330
A02
100
AcDbEntity
  8
CutProfile
100
AcDbCircle
 10
304.083333333
 20
25.251330832
 30
0.000000000
 40
3.000000000
100
AcDbArc
 50
-94.474352005
 51
-79.940201551
  0
LINE
  5
A97
330
A02
100
AcDbEntity
  8
CutProfile
100
AcDbLine
 10
304.607361054
 20
22.297452881
 30
0.000000000
 11
314.224027721
 21
24.003481362
 31
0.000000000
  0
ARC
  5
A98
330
A02
100
AcDbEntity
  8
CutProfile
100
AcDbCircle
 10
313.700000000
 20
26.957359313
 30
0.000000000
 40
3.000000000
100
AcDbArc
 50
-79.940201551
 51
-70.214397611
  0
LINE
  5
A99
330
A02
100
AcDbEntity
  8
CutProfile
100
AcDbLine
 10
314.715504439
 20
24.134461735
 30
0.000000000
 11
324.332171106
 21
27.593945269
 31
0.000000000
  0
ARC
  5
A9A
330
A02
100
AcDbEntity
  8
CutProfile
100
AcDbCircle
 10
323.316666667
 20
30.416842847
 30
0.000000000
 40
3.000000000
100
AcDbArc
 50
-70.214397611
 51
-68.525527676
  0
LINE
  5
A9B
330
A02
100
AcDbEntity
  8
CutProfile
100
AcDbLine
 10
324.414926617
 20
27.625100545
 30
0.000000000
 11
333.869134741
 21
31.344347175
 31
0.000000000
  0
LINE
  5
A9C
330
A02
100
AcDbEntity
  8
CutProfile
100
AcDbLine
 10
333.869134741
 20
31.344347175
 30
0.000000000
 11
342.978606947
 21
33.753488900
 31
0.000000000
  0
LINE
  5
A9D
330
A02
100
AcDbEntity
  8
CutProfile
100
AcDbLine
 10
342.978606947
 20
33.753488900
 30
0.000000000
 11
351.875377946
 21
33.986881359
 31
0.000000000
  0
LINE
  5
A9E
330
A02
100
AcDbEntity
  8
CutProfile
100
AcDbLine
 10
351.875377946
 20
33.986881359
 30
0.000000000
 11
360.920021935
 21
31.971365007
 31
0.000000000
  0
LINE
  5
A9F
330
A02
100
AcDbEntity
  8
CutProfile
100
AcDbLine
 10
379.951463118
 20
24.742909827
 30
0.000000000
 11
360.920021935
 21
31.971365007
 31
0.000000000
  0
ARC
  5
AA0
330
A02
100
AcDbEntity
  8
CutProfile
100
AcDbCircle
 10
381.016666667
 20
27.547431426
 30
0.000000000
 40
3.000000000
100
AcDbArc
 50
-110.797602776
 51
-102.562581242
  0
LINE
  5
AA1
330
A02
100
AcDbEntity
  8
CutProfile
100
AcDbLine
 10
380.364149139
 20
24.619254369
 30
0.000000000
 11
389.980815805
 21
22.476267986
 31
0.000000000
  0
ARC
  5
AA2
330
A02
100
AcDbEntity
  8
CutProfile
100
AcDbCircle
 10
390.633333333
 20
25.404445042
 30
0.000000000
 40
3.000000000
100
AcDbArc
 50
-102.562581242
 51
-88.497282153
  0
LINE
  5
AA3
330
A02
100
AcDbEntity
  8
CutProfile
100
AcDbLine
 10
390.712006436
 20
22.405476796
 30
0.000000000
 11
400.328673102
 21
22.657754559
 31
0.000000000
  0
ARC
  5
AA4
330
A02
100
AcDbEntity
  8
CutProfile
100
AcDbCircle
 10
400.250000000
 20
25.656722805
 30
0.000000000
 40
3.000000000
100
AcDbArc
 50
-88.497282153
 51
-75.186388281
  0
LINE
  5
AA5
330
A02
100
AcDbEntity
  8
CutProfile
100
AcDbLine
 10
401.017026315
 20
22.756434779
 30
0.000000000
 11
410.633692982
 21
25.299711974
 31
0.000000000
  0
ARC
  5
AA6
330
A02
100
AcDbEntity
  8
CutProfile
100
AcDbCircle
 10
409.866666667
 20
28.200000000
 30
0.000000000
 40
3.000000000
100
AcDbArc
 50
-75.186388281
 51
-68.525527676
  0
LINE
  5
AA7
330
A02
100
AcDbEntity
  8
CutProfile
100
AcDbLine
 10
410.964926617
 20
25.408257698
 30
0.000000000
 11
420.540445131
 21
29.175227337
 31
0.000000000
  0
LINE
  5
AA8
330
A02
100
AcDbEntity
  8
CutProfile
100
AcDbLine
 10
420.540445131
 20
29.175227337
 30
0.000000000
 11
429.875337856
 21
32.533345986
 31
0.000000000
  0
LINE
  5
AA9
330
A02
100
AcDbEntity
  8
CutProfile
100
AcDbLine
 10
429.875337856
 20
32.533345986
 30
0.000000000
 11
438.864019057
 21
34.127967768
 31
0.000000000
  0
LINE
  5
AAA
330
A02
100
AcDbEntity
  8
CutProfile
100
AcDbLine
 10
438.864019057
 20
34.127967768
 30
0.000000000
 11
447.776836104
 21
33.430528176
 31
0.000000000
  0
LINE
  5
AAB
330
A02
100
AcDbEntity
  8
CutProfile
100
AcDbLine
 10
447.776836104
 20
33.430528176
 30
0.000000000
 11
456.957624918
 21
30.661921931
 31
0.000000000
  0
LINE
  5
AAC
330
A02
100
AcDbEntity
  8
CutProfile
100
AcDbLine
 10
456.957624918
 20
30.661921931
 30
0.000000000
 11
466.451908379
 21
26.861890232
 31
0.000000000
  0
ARC
  5
AAD
330
A02
100
AcDbEntity
  8
CutProfile
100
AcDbCircle
 10
467.566666667
 20
29.647085729
 30
0.000000000
 40
3.000000000
100
AcDbArc
 50
-111.813469235
 51
-108.443797104
  0
LINE
  5
AAE
330
A02
100
AcDbEntity
  8
CutProfile
100
AcDbLine
 10
466.617543860
 20
26.801182376
 30
0.000000000
 11
476.234210526
 21
23.593976605
 31
0.000000000
  0
ARC
  5
AAF
330
A02
100
AcDbEntity
  8
CutProfile
100
AcDbCircle
 10
477.183333333
 20
26.439879958
 30
0.000000000
 40
3.000000000
100
AcDbArc
 50
-108.443797104
 51
-97.346634593
  0
LINE
  5
AB0
330
A02
100
AcDbEntity
  8
CutProfile
100
AcDbLine
 10
476.799717644
 20
23.464507880
 30
0.000000000
 11
486.416384311
 21
22.224627922
 31
0.000000000
  0
ARC
  5
AB1
330
A02
100
AcDbEntity
  8
CutProfile
100
AcDbCircle
 10
486.800000000
 20
25.200000000
 30
0.000000000
 40
3.000000000
100
AcDbArc
 50
-97.346634593
 51
9.500889372
  0
LINE
  5
AB2
330
A02
100
AcDbEntity
  8
CutProfile
100
AcDbLine
 10
489.758849118
 20
25.695188746
 30
0.000000000
 11
489.260260056
 21
28.674355413
 31
0.000000000
  0
ARC
  5
AB3
330
A02
100
AcDbEntity
  8
CutProfile
100
AcDbCircle
 10
486.301410938
 20
28.179166667
 30
0.000000000
 40
3.000000000
100
AcDbArc
 50
9.500889372
 51
25.482322914
  0
LINE
  5
AB4
330
A02
100
AcDbEntity
  8
CutProfile
100
AcDbLine
 10
489.009565130
 20
29.469864490
 30
0.000000000
 11
487.589703609
 21
32.449031156
 31
0.000000000
  0
ARC
  5
AB5
330
A02
100
AcDbEntity
  8
CutProfile
100
AcDbCircle
 10
484.881549417
 20
31.158333333
 30
0.000000000
 40
3.000000000
100
AcDbArc
 50
25.482322914
 51
35.499413687
  0
LINE
  5
AB6
330
A02
100
AcDbEntity
  8
CutProfile
100
AcDbLine
 10
487.323913799
 20
32.900417208
 30
0.000000000
 11
485.198940864
 21
35.879583874
 31
0.000000000
  0
ARC
  5
AB7
330
A02
100
AcDbEntity
  8
CutProfile
100
AcDbCircle
 10
482.756576482
 20
34.137500000
 30
0.000000000
 40
3.000000000
100
AcDbArc
 50
35.499413687
 51
40.076194250
  0
LINE
  5
AB8
330
A02
100
AcDbEntity
  8
CutProfile
100
AcDbLine
 10
480.116172145
 20
41.935517009
 30
0.000000000
 11
485.052143365
 21
36.068917274
 31
0.000000000
  0
LINE
  5
AB9
330
A02
100
AcDbEntity
  8
CutProfile
100
AcDbLine
 10
480.116172145
 20
41.935517009
 30
0.000000000
 11
478.213489371
 21
44.603037619
 31
0.000000000
  0
LINE
  5
ABA
330
A02
100
AcDbEntity
  8
CutProfile
100
AcDbLine
 10
478.213489371
 20
44.603037619
 30
0.000000000
 11
477.087925756
 21
46.964705679
 31
0.000000000
  0
LINE
  5
ABB
330
A02
100
AcDbEntity
  8
CutProfile
100
AcDbLine
 10
477.087925756
 20
46.964705679
 30
0.000000000
 11
476.741723197
 21
49.033333333
 31
0.000000000
  0
LINE
  5
ABC
330
A02
100
AcDbEntity
  8
CutProfile
100
AcDbLine
 10
476.741723197
 20
49.033333333
 30
0.000000000
 11
477.087925756
 21
51.101960988
 31
0.000000000
  0
LINE
  5
ABD
330
A02
100
AcDbEntity
  8
CutProfile
100
AcDbLine
 10
477.087925756
 20
51.101960988
 30
0.000000000
 11
478.213489371
 21
53.463629048
 31
0.000000000
  0
LINE
  5
ABE
330
A02
100
AcDbEntity
  8
CutProfile
100
AcDbLine
 10
478.213489371
 20
53.463629048
 30
0.000000000
 11
480.116172145
 21
56.131149657
 31
0.000000000
  0
LINE
  5
ABF
330
A02
100
AcDbEntity
  8
CutProfile
100
AcDbLine
 10
485.052143365
 20
61.997749393
 30
0.000000000
 11
480.116172145
 21
56.131149657
 31
0.000000000
  0
ARC
  5
AC0
330
A02
100
AcDbEntity
  8
CutProfile
100
AcDbCircle
 10
482.756576482
 20
63.929166667
 30
0.000000000
 40
3.000000000
100
AcDbArc
 50
-40.076194250
 51
-35.499413687
  0
LINE
  5
AC1
330
A02
100
AcDbEntity
  8
CutProfile
100
AcDbLine
 10
485.198940864
 20
62.187082792
 30
0.000000000
 11
487.323913799
 21
65.166249459
 31
0.000000000
  0
ARC
  5
AC2
330
A02
100
AcDbEntity
  8
CutProfile
100
AcDbCircle
 10
484.881549417
 20
66.908333333
 30
0.000000000
 40
3.000000000
100
AcDbArc
 50
-35.499413687
 51
-25.482322914
  0
LINE
  5
AC3
330
A02
100
AcDbEntity
  8
CutProfile
100
AcDbLine
 10
487.589703609
 20
65.617635510
 30
0.000000000
 11
489.009565130
 21
68.596802177
 31
0.000000000
  0
ARC
  5
AC4
330
A02
100
AcDbEntity
  8
CutProfile
100
AcDbCircle
 10
486.301410938
 20
69.887500000
 30
0.000000000
 40
3.000000000
100
AcDbArc
 50
-25.482322914
 51
-9.500889372
  0
LINE
  5
AC5
330
A02
100
AcDbEntity
  8
CutProfile
100
AcDbLine
 10
489.260260056
 20
69.392311254
 30
0.000000000
 11
489.758849118
 21
72.371477920
 31
0.000000000
  0
ARC
  5
AC6
330
A02
100
AcDbEntity
  8
CutProfile
100
AcDbCircle
 10
486.800000000
 20
72.866666667
 30
0.000000000
 40
3.000000000
100
AcDbArc
 50
-9.500889372
 51
3.946704890
  0
LINE
  5
AC7
330
A02
100
AcDbEntity
  8
CutProfile
100
AcDbLine
 10
489.792885513
 20
73.073152270
 30
0.000000000
 11
489.590544173
 21
76.005969167
 31
0.000000000
  0
LINE
  5
AC8
330
A02
100
AcDbEntity
  8
CutProfile
100
AcDbLine
 10
489.590544173
 20
76.005969167
 30
0.000000000
 11
489.485231880
 21
78.782434582
 31
0.000000000
  0
LINE
  5
AC9
330
A02
100
AcDbEntity
  8
CutProfile
100
AcDbLine
 10
489.485231880
 20
78.782434582
 30
0.000000000
 11
489.672542371
 21
81.605557272
 31
0.000000000
  0
ARC
  5
ACA
330
A02
100
AcDbEntity
  8
CutProfile
100
AcDbCircle
 10
486.679123873
 20
81.804166667
 30
0.000000000
 40
3.000000000
100
AcDbArc
 50
-3.795936327
 51
-2.323433374
  0
LINE
  5
ACB
330
A02
100
AcDbEntity
  8
CutProfile
100
AcDbLine
 10
489.676657567
 20
81.682545319
 30
0.000000000
 11
489.797533694
 21
84.661711986
 31
0.000000000
  0
ARC
  5
ACC
330
A02
100
AcDbEntity
  8
CutProfile
100
AcDbCircle
 10
486.800000000
 20
84.783333333
 30
0.000000000
 40
3.000000000
100
AcDbArc
 50
-2.323433374
 51
0.000000000
  0
LINE
  5
ACD
330
A02
100
AcDbEntity
  8
CutProfile
100
AcDbLine
 10
489.800000000
 20
108.616666667
 30
0.000000000
 11
489.800000000
 21
84.783333333
 31
0.000000000
  0
ARC
  5
ACE
330
A02
100
AcDbEntity
  8
CutProfile
100
AcDbCircle
 10
486.800000000
 20
108.616666667
 30
0.000000000
 40
3.000000000
100
AcDbArc
 50
0.000000000
 51
2.323433374
  0
LINE
  5
ACF
330
A02
100
AcDbEntity
  8
CutProfile
100
AcDbLine
 10
489.797533694
 20
108.738288014
 30
0.000000000
 11
489.676657567
 21
111.717454681
 31
0.000000000
  0
ARC
  5
AD0
330
A02
100
AcDbEntity
  8
CutProfile
100
AcDbCircle
 10
486.679123873
 20
111.595833333
 30
0.000000000
 40
3.000000000
100
AcDbArc
 50
2.323433374
 51
3.795936327
  0
LINE
  5
AD1
330
A02
100
AcDbEntity
  8
CutProfile
100
AcDbLine
 10
489.672542371
 20
111.794442728
 30
0.000000000
 11
489.485231880
 21
114.617565418
 31
0.000000000
  0
LINE
  5
AD2
330
A02
100
AcDbEntity
  8
CutProfile
100
AcDbLine
 10
489.485231880
 20
114.617565418
 30
0.000000000
 11
489.590544173
 21
117.394030833
 31
0.000000000
  0
LINE
  5
AD3
330
A02
100
AcDbEntity
  8
CutProfile
100
AcDbLine
 10
489.590544173
 20
117.394030833
 30
0.000000000
 11
489.792885513
 21
120.326847730
 31
0.000000000
  0
ARC
  5
AD4
330
A02
100
AcDbEntity
  8
CutProfile
100
AcDbCircle
 10
486.800000000
 20
120.533333333
 30
0.000000000
 40
3.000000000
100
AcDbArc
 50
-3.946704890
 51
9.500889372
  0
LINE
  5
AD5
330
A02
100
AcDbEntity
  8
CutProfile
100
AcDbLine
 10
489.758849118
 20
121.028522080
 30
0.000000000
 11
489.260260056
 21
124.007688746
 31
0.000000000
  0
ARC
  5
AD6
330
A02
100
AcDbEntity
  8
CutProfile
100
AcDbCircle
 10
486.301410938
 20
123.512500000
 30
0.000000000
 40
3.000000000
100
AcDbArc
 50
9.500889372
 51
25.482322914
  0
LINE
  5
AD7
330
A02
100
AcDbEntity
  8
CutProfile
100
AcDbLine
 10
489.009565130
 20
124.803197823
 30
0.000000000
 11
487.589703609
 21
127.782364490
 31
0.000000000
  0
ARC
  5
AD8
330
A02
100
AcDbEntity
  8
CutProfile
100
AcDbCircle
 10
484.881549417
 20
126.491666667
 30
0.000000000
 40
3.000000000
100
AcDbArc
 50
25.482322914
 51
35.499413687
  0
LINE
  5
AD9
330
A02
100
AcDbEntity
  8
CutProfile
100
AcDbLine
 10
487.323913799
 20
128.233750541
 30
0.000000000
 11
485.198940864
 21
131.212917208
 31
0.000000000
  0
ARC
  5
ADA
330
A02
100
AcDbEntity
  8
CutProfile
100
AcDbCircle
 10
482.756576482
 20
129.470833333
 30
0.000000000
 40
3.000000000
100
AcDbArc
 50
35.499413687
 51
40.076194250
  0
LINE
  5
ADB
330
A02
100
AcDbEntity
  8
CutProfile
100
AcDbLine
 10
480.116172145
 20
137.268850343
 30
0.000000000
 11
485.052143365
 21
131.402250607
 31
0.000000000
  0
LINE
  5
ADC
330
A02
100
AcDbEntity
  8
CutProfile
100
AcDbLine
 10
480.116172145
 20
137.268850343
 30
0.000000000
 11
478.213489371
 21
139.936370952
 31
0.000000000
  0
LINE
  5
ADD
330
A02
100
AcDbEntity
  8
CutProfile
100
AcDbLine
 10
478.213489371
 20
139.936370952
 30
0.000000000
 11
477.087925756
 21
142.298039012
 31
0.000000000
  0
LINE
  5
ADE
330
A02
100
AcDbEntity
  8
CutProfile
100
AcDbLine
 10
477.087925756
 20
142.298039012
 30
0.000000000
 11
476.741723197
 21
144.366666667
 31
0.000000000
  0
LINE
  5
ADF
330
A02
100
AcDbEntity
  8
CutProfile
100
AcDbLine
 10
476.741723197
 20
144.366666667
 30
0.000000000
 11
477.087925756
 21
146.435294321
 31
0.000000000
  0
LINE
  5
AE0
330
A02
100
AcDbEntity
  8
CutProfile
100
AcDbLine
 10
477.087925756
 20
146.435294321
 30
0.000000000
 11
478.213489371
 21
148.796962381
 31
0.000000000
  0
LINE
  5
AE1
330
A02
100
AcDbEntity
  8
CutProfile
100
AcDbLine
 10
478.213489371
 20
148.796962381
 30
0.000000000
 11
480.116172145
 21
151.464482991
 31
0.000000000
  0
LINE
  5
AE2
330
A02
100
AcDbEntity
  8
CutProfile
100
AcDbLine
 10
485.052143365
 20
157.331082726
 30
0.000000000
 11
480.116172145
 21
151.464482991
 31
0.000000000
  0
ARC
  5
AE3
330
A02
100
AcDbEntity
  8
CutProfile
100
AcDbCircle
 10
482.756576482
 20
159.262500000
 30
0.000000000
 40
3.000000000
100
AcDbArc
 50
-40.076194250
 51
-35.499413687
  0
LINE
  5
AE4
330
A02
100
AcDbEntity
  8
CutProfile
100
AcDbLine
 10
485.198940864
 20
157.520416126
 30
0.000000000
 11
487.323913799
 21
160.499582792
 31
0.000000000
  0
ARC
  5
AE5
330
A02
100
AcDbEntity
  8
CutProfile
100
AcDbCircle
 10
484.881549417
 20
162.241666667
 30
0.000000000
 40
3.000000000
100
AcDbArc
 50
-35.499413687
 51
-25.482322914
  0
LINE
  5
AE6
330
A02
100
AcDbEntity
  8
CutProfile
100
AcDbLine
 10
487.589703609
 20
160.950968844
 30
0.000000000
 11
489.009565130
 21
163.930135510
 31
0.000000000
  0
ARC
  5
AE7
330
A02
100
AcDbEntity
  8
CutProfile
100
AcDbCircle
 10
486.301410938
 20
165.220833333
 30
0.000000000
 40
3.000000000
100
AcDbArc
 50
-25.482322914
 51
-9.500889372
  0
LINE
  5
AE8
330
A02
100
AcDbEntity
  8
CutProfile
100
AcDbLine
 10
489.260260056
 20
164.725644587
 30
0.000000000
 11
489.758849118
 21
167.704811254
 31
0.000000000
  0
ARC
  5
AE9
330
A02
100
AcDbEntity
  8
CutProfile
100
AcDbCircle
 10
486.800000000
 20
168.200000000
 30
0.000000000
 40
3.000000000
100
AcDbArc
 50
-9.500889372
 51
97.346634593
  0
LINE
  5
AEA
330
A02
100
AcDbEntity
  8
CutProfile
100
AcDbLine
 10
486.416384311
 20
171.175372078
 30
0.000000000
 11
476.799717644
 21
169.935492120
 31
0.000000000
  0
ARC
  5
AEB
330
A02
100
AcDbEntity
  8
CutProfile
100
AcDbCircle
 10
477.183333333
 20
166.960120042
 30
0.000000000
 40
3.000000000
100
AcDbArc
 50
97.346634593
 51
108.443797104
  0
LINE
  5
AEC
330
A02
100
AcDbEntity
  8
CutProfile
100
AcDbLine
 10
476.234210526
 20
169.806023395
 30
0.000000000
 11
466.617543860
 21
166.598817624
 31
0.000000000
  0
ARC
  5
AED
330
A02
100
AcDbEntity
  8
CutProfile
100
AcDbCircle
 10
467.566666667
 20
163.752914271
 30
0.000000000
 40
3.000000000
100
AcDbArc
 50
108.443797104
 51
111.813469235
  0
LINE
  5
AEE
330
A02
100
AcDbEntity
  8
CutProfile
100
AcDbLine
 10
466.451908379
 20
166.538109768
 30
0.000000000
 11
456.957624918
 21
162.738078069
 31
0.000000000
  0
LINE
  5
AEF
330
A02
100
AcDbEntity
  8
CutProfile
100
AcDbLine
 10
456.957624918
 20
162.738078069
 30
0.000000000
 11
447.776836104
 21
159.969471824
 31
0.000000000
  0
LINE
  5
AF0
330
A02
100
AcDbEntity
  8
CutProfile
100
AcDbLine
 10
447.776836104
 20
159.969471824
 30
0.000000000
 11
438.864019057
 21
159.272032232
 31
0.000000000
  0
LINE
  5
AF1
330
A02
100
AcDbEntity
  8
CutProfile
100
AcDbLine
 10
438.864019057
 20
159.272032232
 30
0.000000000
 11
429.875337856
 21
160.866654014
 31
0.000000000
  0
LINE
  5
AF2
330
A02
100
AcDbEntity
  8
CutProfile
100
AcDbLine
 10
429.875337856
 20
160.866654014
 30
0.000000000
 11
420.540445131
 21
164.224772663
 31
0.000000000
  0
LINE
  5
AF3
330
A02
100
AcDbEntity
  8
CutProfile
100
AcDbLine
 10
420.540445131
 20
164.224772663
 30
0.000000000
 11
410.964926617
 21
167.991742302
 31
0.000000000
  0
ARC
  5
AF4
330
A02
100
AcDbEntity
  8
CutProfile
100
AcDbCircle
 10
409.866666667
 20
165.200000000
 30
0.000000000
 40
3.000000000
100
AcDbArc
 50
68.525527676
 51
75.186388281
  0
LINE
  5
AF5
330
A02
100
AcDbEntity
  8
CutProfile
100
AcDbLine
 10
410.633692982
 20
168.100288026
 30
0.000000000
 11
401.017026315
 21
170.643565221
 31
0.000000000
  0
ARC
  5
AF6
330
A02
100
AcDbEntity
  8
CutProfile
100
AcDbCircle
 10
400.250000000
 20
167.743277195
 30
0.000000000
 40
3.000000000
100
AcDbArc
 50
75.186388281
 51
88.497282153
  0
LINE
  5
AF7
330
A02
100
AcDbEntity
  8
CutProfile
100
AcDbLine
 10
400.328673102
 20
170.742245441
 30
0.000000000
 11
390.712006436
 21
170.994523204
 31
0.000000000
  0
ARC
  5
AF8
330
A02
100
AcDbEntity
  8
CutProfile
100
AcDbCircle
 10
390.633333333
 20
167.995554958
 30
0.000000000
 40
3.000000000
100
AcDbArc
 50
88.497282153
 51
102.562581242
  0
LINE
  5
AF9
330
A02
100
AcDbEntity
  8
CutProfile
100
AcDbLine
 10
389.980815805
 20
170.923732014
 30
0.000000000
 11
380.364149139
 21
168.780745631
 31
0.000000000
  0
ARC
  5
AFA
330
A02
100
AcDbEntity
  8
CutProfile
100
AcDbCircle
 10
381.016666667
 20
165.852568574
 30
0.000000000
 40
3.000000000
100
AcDbArc
 50
102.562581242
 51
110.797602776
  0
LINE
  5
AFB
330
A02
100
AcDbEntity
  8
CutProfile
100
AcDbLine
 10
360.920021935
 20
161.428634993
 30
0.000000000
 11
379.951463118
 21
168.657090173
 31
0.000000000
  0
LINE
  5
AFC
330
A02
100
AcDbEntity
  8
CutProfile
100
AcDbLine
 10
360.920021935
 20
161.428634993
 30
0.000000000
 11
351.875377946
 21
159.413118641
 31
0.000000000
  0
LINE
  5
AFD
330
A02
100
AcDbEntity
  8
CutProfile
100
AcDbLine
 10
351.875377946
 20
159.413118641
 30
0.000000000
 11
342.978606947
 21
159.646511100
 31
0.000000000
  0
LINE
  5
AFE
330
A02
100
AcDbEntity
  8
CutProfile
100
AcDbLine
 10
342.978606947
 20
159.646511100
 30
0.000000000
 11
333.869134741
 21
162.055652825
 31
0.000000000
  0
LINE
  5
AFF
330
A02
100
AcDbEntity
  8
CutProfile
100
AcDbLine
 10
333.869134741
 20
162.055652825
 30
0.000000000
 11
324.414926617
 21
165.774899455
 31
0.000000000
  0
ARC
  5
B00
330
A02
100
AcDbEntity
  8
CutProfile
100
AcDbCircle
 10
323.316666667
 20
162.983157153
 30
0.000000000
 40
3.000000000
100
AcDbArc
 50
68.525527676
 51
70.214397611
  0
LINE
  5
B01
330
A02
100
AcDbEntity
  8
CutProfile
100
AcDbLine
 10
324.332171106
 20
165.806054731
 30
0.000000000
 11
314.715504439
 21
169.265538265
 31
0.000000000
  0
ARC
  5
B02
330
A02
100
AcDbEntity
  8
CutProfile
100
AcDbCircle
 10
313.700000000
 20
166.442640687
 30
0.000000000
 40
3.000000000
100
AcDbArc
 50
70.214397611
 51
79.940201551
  0
LINE
  5
B03
330
A02
100
AcDbEntity
  8
CutProfile
100
AcDbLine
 10
314.224027721
 20
169.396518638
 30
0.000000000
 11
304.607361054
 21
171.102547119
 31
0.000000000
  0
ARC
  5
B04
330
A02
100
AcDbEntity
  8
CutProfile
100
AcDbCircle
 10
304.083333333
 20
168.148669168
 30
0.000000000
 40
3.000000000
100
AcDbArc
 50
79.940201551
 51
94.474352005
  0
LINE
  5
B05
330
A02
100
AcDbEntity
  8
CutProfile
100
AcDbLine
 10
303.849294856
 20
171.139526235
 30
0.000000000
 11
294.232628189
 21
170.387009489
 31
0.000000000
  0
ARC
  5
B06
330
A02
100
AcDbEntity
  8
CutProfile
100
AcDbCircle
 10
294.466666667
 20
167.396152423
 30
0.000000000
 40
3.000000000
100
AcDbArc
 50
94.474352005
 51
106.781482414
  0
LINE
  5
B07
330
A02
100
AcDbEntity
  8
CutProfile
100
AcDbLine
 10
293.600499518
 20
170.268391004
 30
0.000000000
 11
283.983832851
 21
167.368339176
 31
0.000000000
  0
ARC
  5
B08
330
A02
100
AcDbEntity
  8
CutProfile
100
AcDbCircle
 10
284.850000000
 20
164.496100594
 30
0.000000000
 40
3.000000000
100
AcDbArc
 50
106.781482414
 51
111.813469235
  0
LINE
  5
B09
330
A02
100
AcDbEntity
  8
CutProfile
100
AcDbLine
 10
283.735241712
 20
167.281296092
 30
0.000000000
 11
274.200499943
 21
163.465071190
 31
0.000000000
  0
LINE
  5
B0A
330
A02
100
AcDbEntity
  8
CutProfile
100
AcDbLine
 10
274.200499943
 20
163.465071190
 30
0.000000000
 11
264.944008807
 21
160.377985735
 31
0.000000000
  0
LINE
  5
B0B
330
A02
100
AcDbEntity
  8
CutProfile
100
AcDbLine
 10
264.944008807
 20
160.377985735
 30
0.000000000
 11
256.000000000
 21
159.224831774
 31
0.000000000
  0
LINE
  5
B0C
330
A02
100
AcDbEntity
  8
CutProfile
100
AcDbLine
 10
256.000000000
 20
159.224831774
 30
0.000000000
 11
247.055991193
 21
160.377985735
 31
0.000000000
  0
LINE
  5
B0D
330
A02
100
AcDbEntity
  8
CutProfile
100
AcDbLine
 10
247.055991193
 20
160.377985735
 30
0.000000000
 11
237.799500057
 21
163.465071190
 31
0.000000000
  0
LINE
  5
B0E
330
A02
100
AcDbEntity
  8
CutProfile
100
AcDbLine
 10
237.799500057
 20
163.465071190
 30
0.000000000
 11
228.264758288
 21
167.281296092
 31
0.000000000
  0
ARC
  5
B0F
330
A02
100
AcDbEntity
  8
CutProfile
100
AcDbCircle
 10
227.150000000
 20
164.496100594
 30
0.000000000
 40
3.000000000
100
AcDbArc
 50
68.186530765
 51
73.218517586
  0
LINE
  5
B10
330
A02
100
AcDbEntity
  8
CutProfile
100
AcDbLine
 10
228.016167149
 20
167.368339176
 30
0.000000000
 11
218.399500482
 21
170.268391004
 31
0.000000000
  0
ARC
  5
B11
330
A02
100
AcDbEntity
  8
CutProfile
100
AcDbCircle
 10
217.533333333
 20
167.396152423
 30
0.000000000
 40
3.000000000
100
AcDbArc
 50
73.218517586
 51
85.525647995
  0
LINE
  5
B12
330
A02
100
AcDbEntity
  8
CutProfile
100
AcDbLine
 10
217.767371811
 20
170.387009489
 30
0.000000000
 11
208.150705144
 21
171.139526235
 31
0.000000000
  0
ARC
  5
B13
330
A02
100
AcDbEntity
  8
CutProfile
100
AcDbCircle
 10
207.916666667
 20
168.148669168
 30
0.000000000
 40
3.000000000
100
AcDbArc
 50
85.525647995
 51
100.059798449
  0
LINE
  5
B14
330
A02
100
AcDbEntity
  8
CutProfile
100
AcDbLine
 10
207.392638946
 20
171.102547119
 30
0.000000000
 11
197.775972279
 21
169.396518638
 31
0.000000000
  0
ARC
  5
B15
330
A02
100
AcDbEntity
  8
CutProfile
100
AcDbCircle
 10
198.300000000
 20
166.442640687
 30
0.000000000
 40
3.000000000
100
AcDbArc
 50
100.059798449
 51
109.785602389
  0
LINE
  5
B16
330
A02
100
AcDbEntity
  8
CutProfile
100
AcDbLine
 10
197.284495561
 20
169.265538265
 30
0.000000000
 11
187.667828894
 21
165.806054731
 31
0.000000000
  0
ARC
  5
B17
330
A02
100
AcDbEntity
  8
CutProfile
100
AcDbCircle
 10
188.683333333
 20
162.983157153
 30
0.000000000
 40
3.000000000
100
AcDbArc
 50
109.785602389
 51
111.474472324
  0
LINE
  5
B18
330
A02
100
AcDbEntity
  8
CutProfile
100
AcDbLine
 10
187.585073383
 20
165.774899455
 30
0.000000000
 11
178.130865259
 21
162.055652825
 31
0.000000000
  0
LINE
  5
B19
330
A02
100
AcDbEntity
  8
CutProfile
100
AcDbLine
 10
178.130865259
 20
162.055652825
 30
0.000000000
 11
169.021393053
 21
159.646511100
 31
0.000000000
  0
LINE
  5
B1A
330
A02
100
AcDbEntity
  8
CutProfile
100
AcDbLine
 10
169.021393053
 20
159.646511100
 30
0.000000000
 11
160.124622054
 21
159.413118641
 31
0.000000000
  0
LINE
  5
B1B
330
A02
100
AcDbEntity
  8
CutProfile
100
AcDbLine
 10
160.124622054
 20
159.413118641
 30
0.000000000
 11
151.079978065
 21
161.428634993
 31
0.000000000
  0
LINE
  5
B1C
330
A02
100
AcDbEntity
  8
CutProfile
100
AcDbLine
 10
132.048536882
 20
168.657090173
 30
0.000000000
 11
151.079978065
 21
161.428634993
 31
0.000000000
  0
ARC
  5
B1D
330
A02
100
AcDbEntity
  8
CutProfile
100
AcDbCircle
 10
130.983333333
 20
165.852568574
 30
0.000000000
 40
3.000000000
100
AcDbArc
 50
69.202397224
 51
77.437418758
  0
LINE
  5
B1E
330
A02
100
AcDbEntity
  8
CutProfile
100
AcDbLine
 10
131.635850861
 20
168.780745631
 30
0.000000000
 11
122.019184195
 21
170.923732014
 31
0.000000000
  0
ARC
  5
B1F
330
A02
100
AcDbEntity
  8
CutProfile
100
AcDbCircle
 10
121.366666667
 20
167.995554958
 30
0.000000000
 40
3.000000000
100
AcDbArc
 50
77.437418758
 51
91.502717847
  0
LINE
  5
B20
330
A02
100
AcDbEntity
  8
CutProfile
100
AcDbLine
 10
121.287993564
 20
170.994523204
 30
0.000000000
 11
111.671326898
 21
170.742245441
 31
0.000000000
  0
ARC
  5
B21
330
A02
100
AcDbEntity
  8
CutProfile
100
AcDbCircle
 10
111.750000000
 20
167.743277195
 30
0.000000000
 40
3.000000000
100
AcDbArc
 50
91.502717847
 51
104.813611719
  0
LINE
  5
B22
330
A02
100
AcDbEntity
  8
CutProfile
100
AcDbLine
 10
110.982973685
 20
170.643565221
 30
0.000000000
 11
101.366307018
 21
168.100288026
 31
0.000000000
  0
ARC
  5
B23
330
A02
100
AcDbEntity
  8
CutProfile
100
AcDbCircle
 10
102.133333333
 20
165.200000000
 30
0.000000000
 40
3.000000000
100
AcDbArc
 50
104.813611719
 51
111.474472324
  0
LINE
  5
B24
330
A02
100
AcDbEntity
  8
CutProfile
100
AcDbLine
 10
101.035073383
 20
167.991742302
 30
0.000000000
 11
91.459554869
 21
164.224772663
 31
0.000000000
  0
LINE
  5
B25
330
A02
100
AcDbEntity
  8
CutProfile
100
AcDbLine
 10
91.459554869
 20
164.224772663
 30
0.000000000
 11
82.124662144
 21
160.866654014
 31
0.000000000
  0
LINE
  5
B26
330
A02
100
AcDbEntity
  8
CutProfile
100
AcDbLine
 10
82.124662144
 20
160.866654014
 30
0.000000000
 11
73.135980943
 21
159.272032232
 31
0.000000000
  0
LINE
  5
B27
330
A02
100
AcDbEntity
  8
CutProfile
100
AcDbLine
 10
73.135980943
 20
159.272032232
 30
0.000000000
 11
64.223163896
 21
159.969471824
 31
0.000000000
  0
LINE
  5
B28
330
A02
100
AcDbEntity
  8
CutProfile
100
AcDbLine
 10
64.223163896
 20
159.969471824
 30
0.000000000
 11
55.042375082
 21
162.738078069
 31
0.000000000
  0
LINE
  5
B29
330
A02
100
AcDbEntity
  8
CutProfile
100
AcDbLine
 10
55.042375082
 20
162.738078069
 30
0.000000000
 11
45.548091622
 21
166.538109768
 31
0.000000000
  0
ARC
  5
B2A
330
A02
100
AcDbEntity
  8
CutProfile
100
AcDbCircle
 10
44.433333333
 20
163.752914271
 30
0.000000000
 40
3.000000000
100
AcDbArc
 50
68.186530765
 51
71.556202896
  0
LINE
  5
B2B
330
A02
100
AcDbEntity
  8
CutProfile
100
AcDbLine
 10
45.382456140
 20
166.598817624
 30
0.000000000
 11
35.765789474
 21
169.806023395
 31
0.000000000
  0
ARC
  5
B2C
330
A02
100
AcDbEntity
  8
CutProfile
100
AcDbCircle
 10
34.816666667
 20
166.960120042
 30
0.000000000
 40
3.000000000
100
AcDbArc
 50
71.556202896
 51
82.653365407
  0
LINE
  5
B2D
330
A02
100
AcDbEntity
  8
CutProfile
100
AcDbLine
 10
35.200282356
 20
169.935492120
 30
0.000000000
 11
25.583615689
 21
171.175372078
 31
0.000000000
  0
ARC
  5
B2E
330
A02
100
AcDbEntity
  8
CutProfile
100
AcDbCircle
 10
25.200000000
 20
168.200000000
 30
0.000000000
 40
3.000000000
100
AcDbArc
 50
82.653365407
 51
-170.499110628
  0
LINE
  5
B2F
330
A02
100
AcDbEntity
  8
CutProfile
100
AcDbLine
 10
22.241150882
 20
167.704811254
 30
0.000000000
 11
22.739739944
 21
164.725644587
 31
0.000000000
  0
ARC
  5
B30
330
A02
100
AcDbEntity
  8
CutProfile
100
AcDbCircle
 10
25.698589062
 20
165.220833333
 30
0.000000000
 40
3.000000000
100
AcDbArc
 50
-170.499110628
 51
-154.517677086
  0
LINE
  5
B31
330
A02
100
AcDbEntity
  8
CutProfile
100
AcDbLine
 10
22.990434870
 20
163.930135510
 30
0.000000000
 11
24.410296391
 21
160.950968844
 31
0.000000000
  0
ARC
  5
B32
330
A02
100
AcDbEntity
  8
CutProfile
100
AcDbCircle
 10
27.118450583
 20
162.241666667
 30
0.000000000
 40
3.000000000
100
AcDbArc
 50
-154.517677086
 51
-144.500586313
  0
LINE
  5
B33
330
A02
100
AcDbEntity
  8
CutProfile
100
AcDbLine
 10
24.676086201
 20
160.499582792
 30
0.000000000
 11
26.801059136
 21
157.520416126
 31
0.000000000
  0
ARC
  5
B34
330
A02
100
AcDbEntity
  8
CutProfile
100
AcDbCircle
 10
29.243423518
 20
159.262500000
 30
0.000000000
 40
3.000000000
100
AcDbArc
 50
-144.500586313
 51
-139.923805750
  0
LINE
  5
B35
330
A02
100
AcDbEntity
  8
CutProfile
100
AcDbLine
 10
31.883827855
 20
151.464482991
 30
0.000000000
 11
26.947856635
 21
157.331082726
 31
0.000000000
  0
LINE
  5
B36
330
A02
100
AcDbEntity
  8
CutProfile
100
AcDbLine
 10
31.883827855
 20
151.464482991
 30
0.000000000
 11
33.786510629
 21
148.796962381
 31
0.000000000
  0
LINE
  5
B37
330
A02
100
AcDbEntity
  8
CutProfile
100
AcDbLine
 10
33.786510629
 20
148.796962381
 30
0.000000000
 11
34.912074245
 21
146.435294321
 31
0.000000000
  0
LINE
  5
B38
330
A02
100
AcDbEntity
  8
CutProfile
100
AcDbLine
 10
34.912074245
 20
146.435294321
 30
0.000000000
 11
35.258276803
 21
144.366666667
 31
0.000000000
  0
LINE
  5
B39
330
A02
100
AcDbEntity
  8
CutProfile
100
AcDbLine
 10
35.258276803
 20
144.366666667
 30
0.000000000
 11
34.912074245
 21
142.298039012
 31
0.000000000
  0
LINE
  5
B3A
330
A02
100
AcDbEntity
  8
CutProfile
100
AcDbLine
 10
34.912074245
 20
142.298039012
 30
0.000000000
 11
33.786510629
 21
139.936370952
 31
0.000000000
  0
LINE
  5
B3B
330
A02
100
AcDbEntity
  8
CutProfile
100
AcDbLine
 10
33.786510629
 20
139.936370952
 30
0.000000000
 11
31.883827855
 21
137.268850343
 31
0.000000000
  0
LINE
  5
B3C
330
A02
100
AcDbEntity
  8
CutProfile
100
AcDbLine
 10
26.947856635
 20
131.402250607
 30
0.000000000
 11
31.883827855
 21
137.268850343
 31
0.000000000
  0
ARC
  5
B3D
330
A02
100
AcDbEntity
  8
CutProfile
100
AcDbCircle
 10
29.243423518
 20
129.470833333
 30
0.000000000
 40
3.000000000
100
AcDbArc
 50
139.923805750
 51
144.500586313
  0
LINE
  5
B3E
330
A02
100
AcDbEntity
  8
CutProfile
100
AcDbLine
 10
26.801059136
 20
131.212917208
 30
0.000000000
 11
24.676086201
 21
128.233750541
 31
0.000000000
  0
ARC
  5
B3F
330
A02
100
AcDbEntity
  8
CutProfile
100
AcDbCircle
 10
27.118450583
 20
126.491666667
 30
0.000000000
 40
3.000000000
100
AcDbArc
 50
144.500586313
 51
154.517677086
  0
LINE
  5
B40
330
A02
100
AcDbEntity
  8
CutProfile
100
AcDbLine
 10
24.410296391
 20
127.782364490
 30
0.000000000
 11
22.990434870
 21
124.803197823
 31
0.000000000
  0
ARC
  5
B41
330
A02
100
AcDbEntity
  8
CutProfile
100
AcDbCircle
 10
25.698589062
 20
123.512500000
 30
0.000000000
 40
3.000000000
100
AcDbArc
 50
154.517677086
 51
170.499110628
  0
LINE
  5
B42
330
A02
100
AcDbEntity
  8
CutProfile
100
AcDbLine
 10
22.739739944
 20
124.007688746
 30
0.000000000
 11
22.241150882
 21
121.028522080
 31
0.000000000
  0
ARC
  5
B43
330
A02
100
AcDbEntity
  8
CutProfile
100
AcDbCircle
 10
25.200000000
 20
120.533333333
 30
0.000000000
 40
3.000000000
100
AcDbArc
 50
170.499110628
 51
-176.053295110
  0
LINE
  5
B44
330
A02
100
AcDbEntity
  8
CutProfile
100
AcDbLine
 10
22.207114487
 20
120.326847730
 30
0.000000000
 11
22.409455827
 21
117.394030833
 31
0.000000000
  0
LINE
  5
B45
330
A02
100
AcDbEntity
  8
CutProfile
100
AcDbLine
 10
22.409455827
 20
117.394030833
 30
0.000000000
 11
22.514768120
 21
114.617565418
 31
0.000000000
  0
LINE
  5
B46
330
A02
100
AcDbEntity
  8
CutProfile
100
AcDbLine
 10
22.514768120
 20
114.617565418
 30
0.000000000
 11
22.327457629
 21
111.794442728
 31
0.000000000
  0
ARC
  5
B47
330
A02
100
AcDbEntity
  8
CutProfile
100
AcDbCircle
 10
25.320876127
 20
111.595833333
 30
0.000000000
 40
3.000000000
100
AcDbArc
 50
176.204063673
 51
177.676566626
  0
LINE
  5
B48
330
A02
100
AcDbEntity
  8
CutProfile
100
AcDbLine
 10
22.323342433
 20
111.717454681
 30
0.000000000
 11
22.202466306
 21
108.738288014
 31
0.000000000
  0
ARC
  5
B49
330
A02
100
AcDbEntity
  8
CutProfile
100
AcDbCircle
 10
25.200000000
 20
108.616666667
 30
0.000000000
 40
3.000000000
100
AcDbArc
 50
177.676566626
 51
180.000000000
  0
LINE
  5
B4A
330
A02
100
AcDbEntity
  8
CutProfile
100
AcDbLine
 10
22.200000000
 20
84.783333333
 30
0.000000000
 11
22.200000000
 21
108.616666667
 31
0.000000000
  0
ARC
  5
B4B
330
A02
100
AcDbEntity
  8
CutProfile
100
AcDbCircle
 10
25.200000000
 20
84.783333333
 30
0.000000000
 40
3.000000000
100
AcDbArc
 50
180.000000000
 51
-177.676566626
  0
LINE
  5
B4C
330
A02
100
AcDbEntity
  8
CutProfile
100
AcDbLine
 10
22.202466306
 20
84.661711986
 30
0.000000000
 11
22.323342433
 21
81.682545319
 31
0.000000000
  0
ARC
  5
B4D
330
A02
100
AcDbEntity
  8
CutProfile
100
AcDbCircle
 10
25.320876127
 20
81.804166667
 30
0.000000000
 40
3.000000000
100
AcDbArc
 50
-177.676566626
 51
-176.204063673
  0
LINE
  5
B4E
330
A02
100
AcDbEntity
  8
CutProfile
100
AcDbLine
 10
22.327457629
 20
81.605557272
 30
0.000000000
 11
22.514768120
 21
78.782434582
 31
0.000000000
  0
LINE
  5
B4F
330
A02
100
AcDbEntity
  8
CutProfile
100
AcDbLine
 10
22.514768120
 20
78.782434582
 30
0.000000000
 11
22.409455827
 21
76.005969167
 31
0.000000000
  0
LINE
  5
B50
330
A02
100
AcDbEntity
  8
CutProfile
100
AcDbLine
 10
22.409455827
 20
76.005969167
 30
0.000000000
 11
22.207114487
 21
73.073152270
 31
0.000000000
  0
ARC
  5
B51
330
A02
100
AcDbEntity
  8
CutProfile
100
AcDbCircle
 10
25.200000000
 20
72.866666667
 30
0.000000000
 40
3.000000000
100
AcDbArc
 50
176.053295110
 51
-170.499110628
  0
LINE
  5
B52
330
A02
100
AcDbEntity
  8
CutProfile
100
AcDbLine
 10
22.241150882
 20
72.371477920
 30
0.000000000
 11
22.739739944
 21
69.392311254
 31
0.000000000
  0
ARC
  5
B53
330
A02
100
AcDbEntity
  8
CutProfile
100
AcDbCircle
 10
25.698589062
 20
69.887500000
 30
0.000000000
 40
3.000000000
100
AcDbArc
 50
-170.499110628
 51
-154.517677086
  0
LINE
  5
B54
330
A02
100
AcDbEntity
  8
CutProfile
100
AcDbLine
 10
22.990434870
 20
68.596802177
 30
0.000000000
 11
24.410296391
 21
65.617635510
 31
0.000000000
  0
ARC
  5
B55
330
A02
100
AcDbEntity
  8
CutProfile
100
AcDbCircle
 10
27.118450583
 20
66.908333333
 30
0.000000000
 40
3.000000000
100
AcDbArc
 50
-154.517677086
 51
-144.500586313
  0
LINE
  5
B56
330
A02
100
AcDbEntity
  8
CutProfile
100
AcDbLine
 10
24.676086201
 20
65.166249459
 30
0.000000000
 11
26.801059136
 21
62.187082792
 31
0.000000000
  0
ARC
  5
B57
330
A02
100
AcDbEntity
  8
CutProfile
100
AcDbCircle
 10
29.243423518
 20
63.929166667
 30
0.000000000
 40
3.000000000
100
AcDbArc
 50
-144.500586313
 51
-139.923805750
  0
LINE
  5
B58
330
A02
100
AcDbEntity
  8
CutProfile
100
AcDbLine
 10
31.883827855
 20
56.131149657
 30
0.000000000
 11
26.947856635
 21
61.997749393
 31
0.000000000
  0
LINE
  5
B59
330
A02
100
AcDbEntity
  8
CutProfile
100
AcDbLine
 10
31.883827855
 20
56.131149657
 30
0.000000000
 11
33.786510629
 21
53.463629048
 31
0.000000000
  0
LINE
  5
B5A
330
A02
100
AcDbEntity
  8
CutProfile
100
AcDbLine
 10
33.786510629
 20
53.463629048
 30
0.000000000
 11
34.912074245
 21
51.101960988
 31
0.000000000
  0
LINE
  5
B5B
330
A02
100
AcDbEntity
  8
CutProfile
100
AcDbLine
 10
34.912074245
 20
51.101960988
 30
0.000000000
 11
35.258276803
 21
49.033333333
 31
0.000000000
  0
LINE
  5
B5C
330
A02
100
AcDbEntity
  8
CutProfile
100
AcDbLine
 10
35.258276803
 20
49.033333333
 30
0.000000000
 11
34.912074245
 21
46.964705679
 31
0.000000000
  0
LINE
  5
B5D
330
A02
100
AcDbEntity
  8
CutProfile
100
AcDbLine
 10
34.912074245
 20
46.964705679
 30
0.000000000
 11
33.786510629
 21
44.603037619
 31
0.000000000
  0
LINE
  5
B5E
330
A02
100
AcDbEntity
  8
CutProfile
100
AcDbLine
 10
33.786510629
 20
44.603037619
 30
0.000000000
 11
31.883827855
 21
41.935517009
 31
0.000000000
  0
LINE
  5
B5F
330
A02
100
AcDbEntity
  8
CutProfile
100
AcDbLine
 10
26.947856635
 20
36.068917274
 30
0.000000000
 11
31.883827855
 21
41.935517009
 31
0.000000000
  0
ARC
  5
B60
330
A02
100
AcDbEntity
  8
CutProfile
100
AcDbCircle
 10
29.243423518
 20
34.137500000
 30
0.000000000
 40
3.000000000
100
AcDbArc
 50
139.923805750
 51
144.500586313
  0
LINE
  5
B61
330
A02
100
AcDbEntity
  8
CutProfile
100
AcDbLine
 10
26.801059136
 20
35.879583874
 30
0.000000000
 11
24.676086201
 21
32.900417208
 31
0.000000000
  0
ARC
  5
B62
330
A02
100
AcDbEntity
  8
CutProfile
100
AcDbCircle
 10
27.118450583
 20
31.158333333
 30
0.000000000
 40
3.000000000
100
AcDbArc
 50
144.500586313
 51
154.517677086
  0
LINE
  5
B63
330
A02
100
AcDbEntity
  8
CutProfile
100
AcDbLine
 10
24.410296391
 20
32.449031156
 30
0.000000000
 11
22.990434870
 21
29.469864490
 31
0.000000000
  0
ARC
  5
B64
330
A02
100
AcDbEntity
  8
CutProfile
100
AcDbCircle
 10
25.698589062
 20
28.179166667
 30
0.000000000
 40
3.000000000
100
AcDbArc
 50
154.517677086
 51
170.499110628
  0
LINE
  5
B65
330
A02
100
AcDbEntity
  8
CutProfile
100
AcDbLine
 10
22.739739944
 20
28.674355413
 30
0.000000000
 11
22.241150882
 21
25.695188746
 31
0.000000000
  0
ARC
  5
B66
330
A02
100
AcDbEntity
  8
CutProfile
100
AcDbCircle
 10
25.200000000
 20
191.400000000
 30
0.000000000
 40
3.000000000
100
AcDbArc
 50
170.499110628
 51
-82.653365407
  0
LINE
  5
B67
330
A02
100
AcDbEntity
  8
CutProfile
100
AcDbLine
 10
25.583615689
 20
188.424627922
 30
0.000000000
 11
35.200282356
 21
189.664507880
 31
0.000000000
  0
ARC
  5
B68
330
A02
100
AcDbEntity
  8
CutProfile
100
AcDbCircle
 10
34.816666667
 20
192.639879958
 30
0.000000000
 40
3.000000000
100
AcDbArc
 50
-82.653365407
 51
-71.556202896
  0
LINE
  5
B69
330
A02
100
AcDbEntity
  8
CutProfile
100
AcDbLine
 10
35.765789474
 20
189.793976605
 30
0.000000000
 11
45.382456140
 21
193.001182376
 31
0.000000000
  0
ARC
  5
B6A
330
A02
100
AcDbEntity
  8
CutProfile
100
AcDbCircle
 10
44.433333333
 20
195.847085729
 30
0.000000000
 40
3.000000000
100
AcDbArc
 50
-71.556202896
 51
-68.186530765
  0
LINE
  5
B6B
330
A02
100
AcDbEntity
  8
CutProfile
100
AcDbLine
 10
45.548091622
 20
193.061890232
 30
0.000000000
 11
55.042375082
 21
196.861921931
 31
0.000000000
  0
LINE
  5
B6C
330
A02
100
AcDbEntity
  8
CutProfile
100
AcDbLine
 10
55.042375082
 20
196.861921931
 30
0.000000000
 11
64.223163896
 21
199.630528176
 31
0.000000000
  0
LINE
  5
B6D
330
A02
100
AcDbEntity
  8
CutProfile
100
AcDbLine
 10
64.223163896
 20
199.630528176
 30
0.000000000
 11
73.135980943
 21
200.327967768
 31
0.000000000
  0
LINE
  5
B6E
330
A02
100
AcDbEntity
  8
CutProfile
100
AcDbLine
 10
73.135980943
 20
200.327967768
 30
0.000000000
 11
82.124662144
 21
198.733345986
 31
0.000000000
  0
LINE
  5
B6F
330
A02
100
AcDbEntity
  8
CutProfile
100
AcDbLine
 10
82.124662144
 20
198.733345986
 30
0.000000000
 11
91.459554869
 21
195.375227337
 31
0.000000000
  0
LINE
  5
B70
330
A02
100
AcDbEntity
  8
CutProfile
100
AcDbLine
 10
91.459554869
 20
195.375227337
 30
0.000000000
 11
101.035073383
 21
191.608257698
 31
0.000000000
  0
ARC
  5
B71
330
A02
100
AcDbEntity
  8
CutProfile
100
AcDbCircle
 10
102.133333333
 20
194.400000000
 30
0.000000000
 40
3.000000000
100
AcDbArc
 50
-111.474472324
 51
-104.813611719
  0
LINE
  5
B72
330
A02
100
AcDbEntity
  8
CutProfile
100
AcDbLine
 10
101.366307018
 20
191.499711974
 30
0.000000000
 11
110.982973685
 21
188.956434779
 31
0.000000000
  0
ARC
  5
B73
330
A02
100
AcDbEntity
  8
CutProfile
100
AcDbCircle
 10
111.750000000
 20
191.856722805
 30
0.000000000
 40
3.000000000
100
AcDbArc
 50
-104.813611719
 51
-91.502717847
  0
LINE
  5
B74
330
A02
100
AcDbEntity
  8
CutProfile
100
AcDbLine
 10
111.671326898
 20
188.857754559
 30
0.000000000
 11
121.287993564
 21
188.605476796
 31
0.000000000
  0
ARC
  5
B75
330
A02
100
AcDbEntity
  8
CutProfile
100
AcDbCircle
 10
121.366666667
 20
191.604445042
 30
0.000000000
 40
3.000000000
100
AcDbArc
 50
-91.502717847
 51
-77.437418758
  0
LINE
  5
B76
330
A02
100
AcDbEntity
  8
CutProfile
100
AcDbLine
 10
122.019184195
 20
188.676267986
 30
0.000000000
 11
131.635850861
 21
190.819254369
 31
0.000000000
  0
ARC
  5
B77
330
A02
100
AcDbEntity
  8
CutProfile
100
AcDbCircle
 10
130.983333333
 20
193.747431426
 30
0.000000000
 40
3.000000000
100
AcDbArc
 50
-77.437418758
 51
-69.202397224
  0
LINE
  5
B78
330
A02
100
AcDbEntity
  8
CutProfile
100
AcDbLine
 10
151.079978065
 20
198.171365007
 30
0.000000000
 11
132.048536882
 21
190.942909827
 31
0.000000000
  0
LINE
  5
B79
330
A02
100
AcDbEntity
  8
CutProfile
100
AcDbLine
 10
151.079978065
 20
198.171365007
 30
0.000000000
 11
160.124622054
 21
200.186881359
 31
0.000000000
  0
LINE
  5
B7A
330
A02
100
AcDbEntity
  8
CutProfile
100
AcDbLine
 10
160.124622054
 20
200.186881359
 30
0.000000000
 11
169.021393053
 21
199.953488900
 31
0.000000000
  0
LINE
  5
B7B
330
A02
100
AcDbEntity
  8
CutProfile
100
AcDbLine
 10
169.021393053
 20
199.953488900
 30
0.000000000
 11
178.130865259
 21
197.544347175
 31
0.000000000
  0
LINE
  5
B7C
330
A02
100
AcDbEntity
  8
CutProfile
100
AcDbLine
 10
178.130865259
 20
197.544347175
 30
0.000000000
 11
187.585073383
 21
193.825100545
 31
0.000000000
  0
ARC
  5
B7D
330
A02
100
AcDbEntity
  8
CutProfile
100
AcDbCircle
 10
188.683333333
 20
196.616842847
 30
0.000000000
 40
3.000000000
100
AcDbArc
 50
-111.474472324
 51
-109.785602389
  0
LINE
  5
B7E
330
A02
100
AcDbEntity
  8
CutProfile
100
AcDbLine
 10
187.667828894
 20
193.793945269
 30
0.000000000
 11
197.284495561
 21
190.334461735
 31
0.000000000
  0
ARC
  5
B7F
330
A02
100
AcDbEntity
  8
CutProfile
100
AcDbCircle
 10
198.300000000
 20
193.157359313
 30
0.000000000
 40
3.000000000
100
AcDbArc
 50
-109.785602389
 51
-100.059798449
  0
LINE
  5
B80
330
A02
100
AcDbEntity
  8
CutProfile
100
AcDbLine
 10
197.775972279
 20
190.203481362
 30
0.000000000
 11
207.392638946
 21
188.497452881
 31
0.000000000
  0
ARC
  5
B81
330
A02
100
AcDbEntity
  8
CutProfile
100
AcDbCircle
 10
207.916666667
 20
191.451330832
 30
0.000000000
 40
3.000000000
100
AcDbArc
 50
-100.059798449
 51
-85.525647995
  0
LINE
  5
B82
330
A02
100
AcDbEntity
  8
CutProfile
100
AcDbLine
 10
208.150705144
 20
188.460473765
 30
0.000000000
 11
217.767371811
 21
189.212990511
 31
0.000000000
  0
ARC
  5
B83
330
A02
100
AcDbEntity
  8
CutProfile
100
AcDbCircle
 10
217.533333333
 20
192.203847577
 30
0.000000000
 40
3.000000000
100
AcDbArc
 50
-85.525647995
 51
-73.218517586
  0
LINE
  5
B84
330
A02
100
AcDbEntity
  8
CutProfile
100
AcDbLine
 10
218.399500482
 20
189.331608996
 30
0.000000000
 11
228.016167149
 21
192.231660824
 31
0.000000000
  0
ARC
  5
B85
330
A02
100
AcDbEntity
  8
CutProfile
100
AcDbCircle
 10
227.150000000
 20
195.103899406
 30
0.000000000
 40
3.000000000
100
AcDbArc
 50
-73.218517586
 51
-68.186530765
  0
LINE
  5
B86
330
A02
100
AcDbEntity
  8
CutProfile
100
AcDbLine
 10
228.264758288
 20
192.318703908
 30
0.000000000
 11
237.799500057
 21
196.134928810
 31
0.000000000
  0
LINE
  5
B87
330
A02
100
AcDbEntity
  8
CutProfile
100
AcDbLine
 10
237.799500057
 20
196.134928810
 30
0.000000000
 11
247.055991193
 21
199.222014265
 31
0.000000000
  0
LINE
  5
B88
330
A02
100
AcDbEntity
  8
CutProfile
100
AcDbLine
 10
247.055991193
 20
199.222014265
 30
0.000000000
 11
256.000000000
 21
200.375168226
 31
0.000000000
  0
LINE
  5
B89
330
A02
100
AcDbEntity
  8
CutProfile
100
AcDbLine
 10
256.000000000
 20
200.375168226
 30
0.000000000
 11
264.944008807
 21
199.222014265
 31
0.000000000
  0
LINE
  5
B8A
330
A02
100
AcDbEntity
  8
CutProfile
100
AcDbLine
 10
264.944008807
 20
199.222014265
 30
0.000000000
 11
274.200499943
 21
196.134928810
 31
0.000000000
  0
LINE
  5
B8B
330
A02
100
AcDbEntity
  8
CutProfile
100
AcDbLine
 10
274.200499943
 20
196.134928810
 30
0.000000000
 11
283.735241712
 21
192.318703908
 31
0.000000000
  0
ARC
  5
B8C
330
A02
100
AcDbEntity
  8
CutProfile
100
AcDbCircle
 10
284.850000000
 20
195.103899406
 30
0.000000000
 40
3.000000000
100
AcDbArc
 50
-111.813469235
 51
-106.781482414
  0
LINE
  5
B8D
330
A02
100
AcDbEntity
  8
CutProfile
100
AcDbLine
 10
283.983832851
 20
192.231660824
 30
0.000000000
 11
293.600499518
 21
189.331608996
 31
0.000000000
  0
ARC
  5
B8E
330
A02
100
AcDbEntity
  8
CutProfile
100
AcDbCircle
 10
294.466666667
 20
192.203847577
 30
0.000000000
 40
3.000000000
100
AcDbArc
 50
-106.781482414
 51
-94.474352005
  0
LINE
  5
B8F
330
A02
100
AcDbEntity
  8
CutProfile
100
AcDbLine
 10
294.232628189
 20
189.212990511
 30
0.000000000
 11
303.849294856
 21
188.460473765
 31
0.000000000
  0
ARC
  5
B90
330
A02
100
AcDbEntity
  8
CutProfile
100
AcDbCircle
 10
304.083333333
 20
191.451330832
 30
0.000000000
 40
3.000000000
100
AcDbArc
 50
-94.474352005
 51
-79.940201551
  0
LINE
  5
B91
330
A02
100
AcDbEntity
  8
CutProfile
100
AcDbLine
 10
304.607361054
 20
188.497452881
 30
0.000000000
 11
314.224027721
 21
190.203481362
 31
0.000000000
  0
ARC
  5
B92
330
A02
100
AcDbEntity
  8
CutProfile
100
AcDbCircle
 10
313.700000000
 20
193.157359313
 30
0.000000000
 40
3.000000000
100
AcDbArc
 50
-79.940201551
 51
-70.214397611
  0
LINE
  5
B93
330
A02
100
AcDbEntity
  8
CutProfile
100
AcDbLine
 10
314.715504439
 20
190.334461735
 30
0.000000000
 11
324.332171106
 21
193.793945269
 31
0.000000000
  0
ARC
  5
B94
330
A02
100
AcDbEntity
  8
CutProfile
100
AcDbCircle
 10
323.316666667
 20
196.616842847
 30
0.000000000
 40
3.000000000
100
AcDbArc
 50
-70.214397611
 51
-68.525527676
  0
LINE
  5
B95
330
A02
100
AcDbEntity
  8
CutProfile
100
AcDbLine
 10
324.414926617
 20
193.825100545
 30
0.000000000
 11
333.869134741
 21
197.544347175
 31
0.000000000
  0
LINE
  5
B96
330
A02
100
AcDbEntity
  8
CutProfile
100
AcDbLine
 10
333.869134741
 20
197.544347175
 30
0.000000000
 11
342.978606947
 21
199.953488900
 31
0.000000000
  0
LINE
  5
B97
330
A02
100
AcDbEntity
  8
CutProfile
100
AcDbLine
 10
342.978606947
 20
199.953488900
 30
0.000000000
 11
351.875377946
 21
200.186881359
 31
0.000000000
  0
LINE
  5
B98
330
A02
100
AcDbEntity
  8
CutProfile
100
AcDbLine
 10
351.875377946
 20
200.186881359
 30
0.000000000
 11
360.920021935
 21
198.171365007
 31
0.000000000
  0
LINE
  5
B99
330
A02
100
AcDbEntity
  8
CutProfile
100
AcDbLine
 10
379.951463118
 20
190.942909827
 30
0.000000000
 11
360.920021935
 21
198.171365007
 31
0.000000000
  0
ARC
  5
B9A
330
A02
100
AcDbEntity
  8
CutProfile
100
AcDbCircle
 10
381.016666667
 20
193.747431426
 30
0.000000000
 40
3.000000000
100
AcDbArc
 50
-110.797602776
 51
-102.562581242
  0
LINE
  5
B9B
330
A02
100
AcDbEntity
  8
CutProfile
100
AcDbLine
 10
380.364149139
 20
190.819254369
 30
0.000000000
 11
389.980815805
 21
188.676267986
 31
0.000000000
  0
ARC
  5
B9C
330
A02
100
AcDbEntity
  8
CutProfile
100
AcDbCircle
 10
390.633333333
 20
191.604445042
 30
0.000000000
 40
3.000000000
100
AcDbArc
 50
-102.562581242
 51
-88.497282153
  0
LINE
  5
B9D
330
A02
100
AcDbEntity
  8
CutProfile
100
AcDbLine
 10
390.712006436
 20
188.605476796
 30
0.000000000
 11
400.328673102
 21
188.857754559
 31
0.000000000
  0
ARC
  5
B9E
330
A02
100
AcDbEntity
  8
CutProfile
100
AcDbCircle
 10
400.250000000
 20
191.856722805
 30
0.000000000
 40
3.000000000
100
AcDbArc
 50
-88.497282153
 51
-75.186388281
  0
LINE
  5
B9F
330
A02
100
AcDbEntity
  8
CutProfile
100
AcDbLine
 10
401.017026315
 20
188.956434779
 30
0.000000000
 11
410.633692982
 21
191.499711974
 31
0.000000000
  0
ARC
  5
BA0
330
A02
100
AcDbEntity
  8
CutProfile
100
AcDbCircle
 10
409.866666667
 20
194.400000000
 30
0.000000000
 40
3.000000000
100
AcDbArc
 50
-75.186388281
 51
-68.525527676
  0
LINE
  5
BA1
330
A02
100
AcDbEntity
  8
CutProfile
100
AcDbLine
 10
410.964926617
 20
191.608257698
 30
0.000000000
 11
420.540445131
 21
195.375227337
 31
0.000000000
  0
LINE
  5
BA2
330
A02
100
AcDbEntity
  8
CutProfile
100
AcDbLine
 10
420.540445131
 20
195.375227337
 30
0.000000000
 11
429.875337856
 21
198.733345986
 31
0.000000000
  0
LINE
  5
BA3
330
A02
100
AcDbEntity
  8
CutProfile
100
AcDbLine
 10
429.875337856
 20
198.733345986
 30
0.000000000
 11
438.864019057
 21
200.327967768
 31
0.000000000
  0
LINE
  5
BA4
330
A02
100
AcDbEntity
  8
CutProfile
100
AcDbLine
 10
438.864019057
 20
200.327967768
 30
0.000000000
 11
447.776836104
 21
199.630528176
 31
0.000000000
  0
LINE
  5
BA5
330
A02
100
AcDbEntity
  8
CutProfile
100
AcDbLine
 10
447.776836104
 20
199.630528176
 30
0.000000000
 11
456.957624918
 21
196.861921931
 31
0.000000000
  0
LINE
  5
BA6
330
A02
100
AcDbEntity
  8
CutProfile
100
AcDbLine
 10
456.957624918
 20
196.861921931
 30
0.000000000
 11
466.451908379
 21
193.061890232
 31
0.000000000
  0
ARC
  5
BA7
330
A02
100
AcDbEntity
  8
CutProfile
100
AcDbCircle
 10
467.566666667
 20
195.847085729
 30
0.000000000
 40
3.000000000
100
AcDbArc
 50
-111.813469235
 51
-108.443797104
  0
LINE
  5
BA8
330
A02
100
AcDbEntity
  8
CutProfile
100
AcDbLine
 10
466.617543860
 20
193.001182376
 30
0.000000000
 11
476.234210526
 21
189.793976605
 31
0.000000000
  0
ARC
  5
BA9
330
A02
100
AcDbEntity
  8
CutProfile
100
AcDbCircle
 10
477.183333333
 20
192.639879958
 30
0.000000000
 40
3.000000000
100
AcDbArc
 50
-108.443797104
 51
-97.346634593
  0
LINE
  5
BAA
330
A02
100
AcDbEntity
  8
CutProfile
100
AcDbLine
 10
476.799717644
 20
189.664507880
 30
0.000000000
 11
486.416384311
 21
188.424627922
 31
0.000000000
  0
ARC
  5
BAB
330
A02
100
AcDbEntity
  8
CutProfile
100
AcDbCircle
 10
486.800000000
 20
191.400000000
 30
0.000000000
 40
3.000000000
100
AcDbArc
 50
-97.346634593
 51
9.500889372
  0
LINE
  5
BAC
330
A02
100
AcDbEntity
  8
CutProfile
100
AcDbLine
 10
489.758849118
 20
191.895188746
 30
0.000000000
 11
489.260260056
 21
194.874355413
 31
0.000000000
  0
ARC
  5
BAD
330
A02
100
AcDbEntity
  8
CutProfile
100
AcDbCircle
 10
486.301410938
 20
194.379166667
 30
0.000000000
 40
3.000000000
100
AcDbArc
 50
9.500889372
 51
25.482322914
  0
LINE
  5
BAE
330
A02
100
AcDbEntity
  8
CutProfile
100
AcDbLine
 10
489.009565130
 20
195.669864490
 30
0.000000000
 11
487.589703609
 21
198.649031156
 31
0.000000000
  0
ARC
  5
BAF
330
A02
100
AcDbEntity
  8
CutProfile
100
AcDbCircle
 10
484.881549417
 20
197.358333333
 30
0.000000000
 40
3.000000000
100
AcDbArc
 50
25.482322914
 51
35.499413687
  0
LINE
  5
BB0
330
A02
100
AcDbEntity
  8
CutProfile
100
AcDbLine
 10
487.323913799
 20
199.100417208
 30
0.000000000
 11
485.198940864
 21
202.079583874
 31
0.000000000
  0
ARC
  5
BB1
330
A02
100
AcDbEntity
  8
CutProfile
100
AcDbCircle
 10
482.756576482
 20
200.337500000
 30
0.000000000
 40
3.000000000
100
AcDbArc
 50
35.499413687
 51
40.076194250
  0
LINE
  5
BB2
330
A02
100
AcDbEntity
  8
CutProfile
100
AcDbLine
 10
480.116172145
 20
208.135517009
 30
0.000000000
 11
485.052143365
 21
202.268917274
 31
0.000000000
  0
LINE
  5
BB3
330
A02
100
AcDbEntity
  8
CutProfile
100
AcDbLine
 10
480.116172145
 20
208.135517009
 30
0.000000000
 11
478.213489371
 21
210.803037619
 31
0.000000000
  0
LINE
  5
BB4
330
A02
100
AcDbEntity
  8
CutProfile
100
AcDbLine
 10
478.213489371
 20
210.803037619
 30
0.000000000
 11
477.087925756
 21
213.164705679
 31
0.000000000
  0
LINE
  5
BB5
330
A02
100
AcDbEntity
  8
CutProfile
100
AcDbLine
 10
477.087925756
 20
213.164705679
 30
0.000000000
 11
476.741723197
 21
215.233333333
 31
0.000000000
  0
LINE
  5
BB6
330
A02
100
AcDbEntity
  8
CutProfile
100
AcDbLine
 10
476.741723197
 20
215.233333333
 30
0.000000000
 11
477.087925756
 21
217.301960988
 31
0.000000000
  0
LINE
  5
BB7
330
A02
100
AcDbEntity
  8
CutProfile
100
AcDbLine
 10
477.087925756
 20
217.301960988
 30
0.000000000
 11
478.213489371
 21
219.663629048
 31
0.000000000
  0
LINE
  5
BB8
330
A02
100
AcDbEntity
  8
CutProfile
100
AcDbLine
 10
478.213489371
 20
219.663629048
 30
0.000000000
 11
480.116172145
 21
222.331149657
 31
0.000000000
  0
LINE
  5
BB9
330
A02
100
AcDbEntity
  8
CutProfile
100
AcDbLine
 10
485.052143365
 20
228.197749393
 30
0.000000000
 11
480.116172145
 21
222.331149657
 31
0.000000000
  0
ARC
  5
BBA
330
A02
100
AcDbEntity
  8
CutProfile
100
AcDbCircle
 10
482.756576482
 20
230.129166667
 30
0.000000000
 40
3.000000000
100
AcDbArc
 50
-40.076194250
 51
-35.499413687
  0
LINE
  5
BBB
330
A02
100
AcDbEntity
  8
CutProfile
100
AcDbLine
 10
485.198940864
 20
228.387082792
 30
0.000000000
 11
487.323913799
 21
231.366249459
 31
0.000000000
  0
ARC
  5
BBC
330
A02
100
AcDbEntity
  8
CutProfile
100
AcDbCircle
 10
484.881549417
 20
233.108333333
 30
0.000000000
 40
3.000000000
100
AcDbArc
 50
-35.499413687
 51
-25.482322914
  0
LINE
  5
BBD
330
A02
100
AcDbEntity
  8
CutProfile
100
AcDbLine
 10
487.589703609
 20
231.817635510
 30
0.000000000
 11
489.009565130
 21
234.796802177
 31
0.000000000
  0
ARC
  5
BBE
330
A02
100
AcDbEntity
  8
CutProfile
100
AcDbCircle
 10
486.301410938
 20
236.087500000
 30
0.000000000
 40
3.000000000
100
AcDbArc
 50
-25.482322914
 51
-9.500889372
  0
LINE
  5
BBF
330
A02
100
AcDbEntity
  8
CutProfile
100
AcDbLine
 10
489.260260056
 20
235.592311254
 30
0.000000000
 11
489.758849118
 21
238.571477920
 31
0.000000000
  0
ARC
  5
BC0
330
A02
100
AcDbEntity
  8
CutProfile
100
AcDbCircle
 10
486.800000000
 20
239.066666667
 30
0.000000000
 40
3.000000000
100
AcDbArc
 50
-9.500889372
 51
3.946704890
  0
LINE
  5
BC1
330
A02
100
AcDbEntity
  8
CutProfile
100
AcDbLine
 10
489.792885513
 20
239.273152270
 30
0.000000000
 11
489.590544173
 21
242.205969167
 31
0.000000000
  0
LINE
  5
BC2
330
A02
100
AcDbEntity
  8
CutProfile
100
AcDbLine
 10
489.590544173
 20
242.205969167
 30
0.000000000
 11
489.485231880
 21
244.982434582
 31
0.000000000
  0
LINE
  5
BC3
330
A02
100
AcDbEntity
  8
CutProfile
100
AcDbLine
 10
489.485231880
 20
244.982434582
 30
0.000000000
 11
489.672542371
 21
247.805557272
 31
0.000000000
  0
ARC
  5
BC4
330
A02
100
AcDbEntity
  8
CutProfile
100
AcDbCircle
 10
486.679123873
 20
248.004166667
 30
0.000000000
 40
3.000000000
100
AcDbArc
 50
-3.795936327
 51
-2.323433374
  0
LINE
  5
BC5
330
A02
100
AcDbEntity
  8
CutProfile
100
AcDbLine
 10
489.676657567
 20
247.882545319
 30
0.000000000
 11
489.797533694
 21
250.861711986
 31
0.000000000
  0
ARC
  5
BC6
330
A02
100
AcDbEntity
  8
CutProfile
100
AcDbCircle
 10
486.800000000
 20
250.983333333
 30
0.000000000
 40
3.000000000
100
AcDbArc
 50
-2.323433374
 51
0.000000000
  0
LINE
  5
BC7
330
A02
100
AcDbEntity
  8
CutProfile
100
AcDbLine
 10
489.800000000
 20
274.816666667
 30
0.000000000
 11
489.800000000
 21
250.983333333
 31
0.000000000
  0
ARC
  5
BC8
330
A02
100
AcDbEntity
  8
CutProfile
100
AcDbCircle
 10
486.800000000
 20
274.816666667
 30
0.000000000
 40
3.000000000
100
AcDbArc
 50
0.000000000
 51
2.323433374
  0
LINE
  5
BC9
330
A02
100
AcDbEntity
  8
CutProfile
100
AcDbLine
 10
489.797533694
 20
274.938288014
 30
0.000000000
 11
489.676657567
 21
277.917454681
 31
0.000000000
  0
ARC
  5
BCA
330
A02
100
AcDbEntity
  8
CutProfile
100
AcDbCircle
 10
486.679123873
 20
277.795833333
 30
0.000000000
 40
3.000000000
100
AcDbArc
 50
2.323433374
 51
3.795936327
  0
LINE
  5
BCB
330
A02
100
AcDbEntity
  8
CutProfile
100
AcDbLine
 10
489.672542371
 20
277.994442728
 30
0.000000000
 11
489.485231880
 21
280.817565418
 31
0.000000000
  0
LINE
  5
BCC
330
A02
100
AcDbEntity
  8
CutProfile
100
AcDbLine
 10
489.485231880
 20
280.817565418
 30
0.000000000
 11
489.590544173
 21
283.594030833
 31
0.000000000
  0
LINE
  5
BCD
330
A02
100
AcDbEntity
  8
CutProfile
100
AcDbLine
 10
489.590544173
 20
283.594030833
 30
0.000000000
 11
489.792885513
 21
286.526847730
 31
0.000000000
  0
ARC
  5
BCE
330
A02
100
AcDbEntity
  8
CutProfile
100
AcDbCircle
 10
486.800000000
 20
286.733333333
 30
0.000000000
 40
3.000000000
100
AcDbArc
 50
-3.946704890
 51
9.500889372
  0
LINE
  5
BCF
330
A02
100
AcDbEntity
  8
CutProfile
100
AcDbLine
 10
489.758849118
 20
287.228522080
 30
0.000000000
 11
489.260260056
 21
290.207688746
 31
0.000000000
  0
ARC
  5
BD0
330
A02
100
AcDbEntity
  8
CutProfile
100
AcDbCircle
 10
486.301410938
 20
289.712500000
 30
0.000000000
 40
3.000000000
100
AcDbArc
 50
9.500889372
 51
25.482322914
  0
LINE
  5
BD1
330
A02
100
AcDbEntity
  8
CutProfile
100
AcDbLine
 10
489.009565130
 20
291.003197823
 30
0.000000000
 11
487.589703609
 21
293.982364490
 31
0.000000000
  0
ARC
  5
BD2
330
A02
100
AcDbEntity
  8
CutProfile
100
AcDbCircle
 10
484.881549417
 20
292.691666667
 30
0.000000000
 40
3.000000000
100
AcDbArc
 50
25.482322914
 51
35.499413687
  0
LINE
  5
BD3
330
A02
100
AcDbEntity
  8
CutProfile
100
AcDbLine
 10
487.323913799
 20
294.433750541
 30
0.000000000
 11
485.198940864
 21
297.412917208
 31
0.000000000
  0
ARC
  5
BD4
330
A02
100
AcDbEntity
  8
CutProfile
100
AcDbCircle
 10
482.756576482
 20
295.670833333
 30
0.000000000
 40
3.000000000
100
AcDbArc
 50
35.499413687
 51
40.076194250
  0
LINE
  5
BD5
330
A02
100
AcDbEntity
  8
CutProfile
100
AcDbLine
 10
480.116172145
 20
303.468850343
 30
0.000000000
 11
485.052143365
 21
297.602250607
 31
0.000000000
  0
LINE
  5
BD6
330
A02
100
AcDbEntity
  8
CutProfile
100
AcDbLine
 10
480.116172145
 20
303.468850343
 30
0.000000000
 11
478.213489371
 21
306.136370952
 31
0.000000000
  0
LINE
  5
BD7
330
A02
100
AcDbEntity
  8
CutProfile
100
AcDbLine
 10
478.213489371
 20
306.136370952
 30
0.000000000
 11
477.087925756
 21
308.498039012
 31
0.000000000
  0
LINE
  5
BD8
330
A02
100
AcDbEntity
  8
CutProfile
100
AcDbLine
 10
477.087925756
 20
308.498039012
 30
0.000000000
 11
476.741723197
 21
310.566666667
 31
0.000000000
  0
LINE
  5
BD9
330
A02
100
AcDbEntity
  8
CutProfile
100
AcDbLine
 10
476.741723197
 20
310.566666667
 30
0.000000000
 11
477.087925756
 21
312.635294321
 31
0.000000000
  0
LINE
  5
BDA
330
A02
100
AcDbEntity
  8
CutProfile
100
AcDbLine
 10
477.087925756
 20
312.635294321
 30
0.000000000
 11
478.213489371
 21
314.996962381
 31
0.000000000
  0
LINE
  5
BDB
330
A02
100
AcDbEntity
  8
CutProfile
100
AcDbLine
 10
478.213489371
 20
314.996962381
 30
0.000000000
 11
480.116172145
 21
317.664482991
 31
0.000000000
  0
LINE
  5
BDC
330
A02
100
AcDbEntity
  8
CutProfile
100
AcDbLine
 10
485.052143365
 20
323.531082726
 30
0.000000000
 11
480.116172145
 21
317.664482991
 31
0.000000000
  0
ARC
  5
BDD
330
A02
100
AcDbEntity
  8
CutProfile
100
AcDbCircle
 10
482.756576482
 20
325.462500000
 30
0.000000000
 40
3.000000000
100
AcDbArc
 50
-40.076194250
 51
-35.499413687
  0
LINE
  5
BDE
330
A02
100
AcDbEntity
  8
CutProfile
100
AcDbLine
 10
485.198940864
 20
323.720416126
 30
0.000000000
 11
487.323913799
 21
326.699582792
 31
0.000000000
  0
ARC
  5
BDF
330
A02
100
AcDbEntity
  8
CutProfile
100
AcDbCircle
 10
484.881549417
 20
328.441666667
 30
0.000000000
 40
3.000000000
100
AcDbArc
 50
-35.499413687
 51
-25.482322914
  0
LINE
  5
BE0
330
A02
100
AcDbEntity
  8
CutProfile
100
AcDbLine
 10
487.589703609
 20
327.150968844
 30
0.000000000
 11
489.009565130
 21
330.130135510
 31
0.000000000
  0
ARC
  5
BE1
330
A02
100
AcDbEntity
  8
CutProfile
100
AcDbCircle
 10
486.301410938
 20
331.420833333
 30
0.000000000
 40
3.000000000
100
AcDbArc
 50
-25.482322914
 51
-9.500889372
  0
LINE
  5
BE2
330
A02
100
AcDbEntity
  8
CutProfile
100
AcDbLine
 10
489.260260056
 20
330.925644587
 30
0.000000000
 11
489.758849118
 21
333.904811254
 31
0.000000000
  0
ARC
  5
BE3
330
A02
100
AcDbEntity
  8
CutProfile
100
AcDbCircle
 10
486.800000000
 20
334.400000000
 30
0.000000000
 40
3.000000000
100
AcDbArc
 50
-9.500889372
 51
97.346634593
  0
LINE
  5
BE4
330
A02
100
AcDbEntity
  8
CutProfile
100
AcDbLine
 10
486.416384311
 20
337.375372078
 30
0.000000000
 11
476.799717644
 21
336.135492120
 31
0.000000000
  0
ARC
  5
BE5
330
A02
100
AcDbEntity
  8
CutProfile
100
AcDbCircle
 10
477.183333333
 20
333.160120042
 30
0.000000000
 40
3.000000000
100
AcDbArc
 50
97.346634593
 51
108.443797104
  0
LINE
  5
BE6
330
A02
100
AcDbEntity
  8
CutProfile
100
AcDbLine
 10
476.234210526
 20
336.006023395
 30
0.000000000
 11
466.617543860
 21
332.798817624
 31
0.000000000
  0
ARC
  5
BE7
330
A02
100
AcDbEntity
  8
CutProfile
100
AcDbCircle
 10
467.566666667
 20
329.952914271
 30
0.000000000
 40
3.000000000
100
AcDbArc
 50
108.443797104
 51
111.813469235
  0
LINE
  5
BE8
330
A02
100
AcDbEntity
  8
CutProfile
100
AcDbLine
 10
466.451908379
 20
332.738109768
 30
0.000000000
 11
456.957624918
 21
328.938078069
 31
0.000000000
  0
LINE
  5
BE9
330
A02
100
AcDbEntity
  8
CutProfile
100
AcDbLine
 10
456.957624918
 20
328.938078069
 30
0.000000000
 11
447.776836104
 21
326.169471824
 31
0.000000000
  0
LINE
  5
BEA
330
A02
100
AcDbEntity
  8
CutProfile
100
AcDbLine
 10
447.776836104
 20
326.169471824
 30
0.000000000
 11
438.864019057
 21
325.472032232
 31
0.000000000
  0
LINE
  5
BEB
330
A02
100
AcDbEntity
  8
CutProfile
100
AcDbLine
 10
438.864019057
 20
325.472032232
 30
0.000000000
 11
429.875337856
 21
327.066654014
 31
0.000000000
  0
LINE
  5
BEC
330
A02
100
AcDbEntity
  8
CutProfile
100
AcDbLine
 10
429.875337856
 20
327.066654014
 30
0.000000000
 11
420.540445131
 21
330.424772663
 31
0.000000000
  0
LINE
  5
BED
330
A02
100
AcDbEntity
  8
CutProfile
100
AcDbLine
 10
420.540445131
 20
330.424772663
 30
0.000000000
 11
410.964926617
 21
334.191742302
 31
0.000000000
  0
ARC
  5
BEE
330
A02
100
AcDbEntity
  8
CutProfile
100
AcDbCircle
 10
409.866666667
 20
331.400000000
 30
0.000000000
 40
3.000000000
100
AcDbArc
 50
68.525527676
 51
75.186388281
  0
LINE
  5
BEF
330
A02
100
AcDbEntity
  8
CutProfile
100
AcDbLine
 10
410.633692982
 20
334.300288026
 30
0.000000000
 11
401.017026315
 21
336.843565221
 31
0.000000000
  0
ARC
  5
BF0
330
A02
100
AcDbEntity
  8
CutProfile
100
AcDbCircle
 10
400.250000000
 20
333.943277195
 30
0.000000000
 40
3.000000000
100
AcDbArc
 50
75.186388281
 51
88.497282153
  0
LINE
  5
BF1
330
A02
100
AcDbEntity
  8
CutProfile
100
AcDbLine
 10
400.328673102
 20
336.942245441
 30
0.000000000
 11
390.712006436
 21
337.194523204
 31
0.000000000
  0
ARC
  5
BF2
330
A02
100
AcDbEntity
  8
CutProfile
100
AcDbCircle
 10
390.633333333
 20
334.195554958
 30
0.000000000
 40
3.000000000
100
AcDbArc
 50
88.497282153
 51
102.562581242
  0
LINE
  5
BF3
330
A02
100
AcDbEntity
  8
CutProfile
100
AcDbLine
 10
389.980815805
 20
337.123732014
 30
0.000000000
 11
380.364149139
 21
334.980745631
 31
0.000000000
  0
ARC
  5
BF4
330
A02
100
AcDbEntity
  8
CutProfile
100
AcDbCircle
 10
381.016666667
 20
332.052568574
 30
0.000000000
 40
3.000000000
100
AcDbArc
 50
102.562581242
 51
110.797602776
  0
LINE
  5
BF5
330
A02
100
AcDbEntity
  8
CutProfile
100
AcDbLine
 10
360.920021935
 20
327.628634993
 30
0.000000000
 11
379.951463118
 21
334.857090173
 31
0.000000000
  0
LINE
  5
BF6
330
A02
100
AcDbEntity
  8
CutProfile
100
AcDbLine
 10
360.920021935
 20
327.628634993
 30
0.000000000
 11
351.875377946
 21
325.613118641
 31
0.000000000
  0
LINE
  5
BF7
330
A02
100
AcDbEntity
  8
CutProfile
100
AcDbLine
 10
351.875377946
 20
325.613118641
 30
0.000000000
 11
342.978606947
 21
325.846511100
 31
0.000000000
  0
LINE
  5
BF8
330
A02
100
AcDbEntity
  8
CutProfile
100
AcDbLine
 10
342.978606947
 20
325.846511100
 30
0.000000000
 11
333.869134741
 21
328.255652825
 31
0.000000000
  0
LINE
  5
BF9
330
A02
100
AcDbEntity
  8
CutProfile
100
AcDbLine
 10
333.869134741
 20
328.255652825
 30
0.000000000
 11
324.414926617
 21
331.974899455
 31
0.000000000
  0
ARC
  5
BFA
330
A02
100
AcDbEntity
  8
CutProfile
100
AcDbCircle
 10
323.316666667
 20
329.183157153
 30
0.000000000
 40
3.000000000
100
AcDbArc
 50
68.525527676
 51
70.214397611
  0
LINE
  5
BFB
330
A02
100
AcDbEntity
  8
CutProfile
100
AcDbLine
 10
324.332171106
 20
332.006054731
 30
0.000000000
 11
314.715504439
 21
335.465538265
 31
0.000000000
  0
ARC
  5
BFC
330
A02
100
AcDbEntity
  8
CutProfile
100
AcDbCircle
 10
313.700000000
 20
332.642640687
 30
0.000000000
 40
3.000000000
100
AcDbArc
 50
70.214397611
 51
79.940201551
  0
LINE
  5
BFD
330
A02
100
AcDbEntity
  8
CutProfile
100
AcDbLine
 10
314.224027721
 20
335.596518638
 30
0.000000000
 11
304.607361054
 21
337.302547119
 31
0.000000000
  0
ARC
  5
BFE
330
A02
100
AcDbEntity
  8
CutProfile
100
AcDbCircle
 10
304.083333333
 20
334.348669168
 30
0.000000000
 40
3.000000000
100
AcDbArc
 50
79.940201551
 51
94.474352005
  0
LINE
  5
BFF
330
A02
100
AcDbEntity
  8
CutProfile
100
AcDbLine
 10
303.849294856
 20
337.339526235
 30
0.000000000
 11
294.232628189
 21
336.587009489
 31
0.000000000
  0
ARC
  5
C00
330
A02
100
AcDbEntity
  8
CutProfile
100
AcDbCircle
 10
294.466666667
 20
333.596152423
 30
0.000000000
 40
3.000000000
100
AcDbArc
 50
94.474352005
 51
106.781482414
  0
LINE
  5
C01
330
A02
100
AcDbEntity
  8
CutProfile
100
AcDbLine
 10
293.600499518
 20
336.468391004
 30
0.000000000
 11
283.983832851
 21
333.568339176
 31
0.000000000
  0
ARC
  5
C02
330
A02
100
AcDbEntity
  8
CutProfile
100
AcDbCircle
 10
284.850000000
 20
330.696100594
 30
0.000000000
 40
3.000000000
100
AcDbArc
 50
106.781482414
 51
111.813469235
  0
LINE
  5
C03
330
A02
100
AcDbEntity
  8
CutProfile
100
AcDbLine
 10
283.735241712
 20
333.481296092
 30
0.000000000
 11
274.200499943
 21
329.665071190
 31
0.000000000
  0
LINE
  5
C04
330
A02
100
AcDbEntity
  8
CutProfile
100
AcDbLine
 10
274.200499943
 20
329.665071190
 30
0.000000000
 11
264.944008807
 21
326.577985735
 31
0.000000000
  0
LINE
  5
C05
330
A02
100
AcDbEntity
  8
CutProfile
100
AcDbLine
 10
264.944008807
 20
326.577985735
 30
0.000000000
 11
256.000000000
 21
325.424831774
 31
0.000000000
  0
LINE
  5
C06
330
A02
100
AcDbEntity
  8
CutProfile
100
AcDbLine
 10
256.000000000
 20
325.424831774
 30
0.000000000
 11
247.055991193
 21
326.577985735
 31
0.000000000
  0
LINE
  5
C07
330
A02
100
AcDbEntity
  8
CutProfile
100
AcDbLine
 10
247.055991193
 20
326.577985735
 30
0.000000000
 11
237.799500057
 21
329.665071190
 31
0.000000000
  0
LINE
  5
C08
330
A02
100
AcDbEntity
  8
CutProfile
100
AcDbLine
 10
237.799500057
 20
329.665071190
 30
0.000000000
 11
228.264758288
 21
333.481296092
 31
0.000000000
  0
ARC
  5
C09
330
A02
100
AcDbEntity
  8
CutProfile
100
AcDbCircle
 10
227.150000000
 20
330.696100594
 30
0.000000000
 40
3.000000000
100
AcDbArc
 50
68.186530765
 51
73.218517586
  0
LINE
  5
C0A
330
A02
100
AcDbEntity
  8
CutProfile
100
AcDbLine
 10
228.016167149
 20
333.568339176
 30
0.000000000
 11
218.399500482
 21
336.468391004
 31
0.000000000
  0
ARC
  5
C0B
330
A02
100
AcDbEntity
  8
CutProfile
100
AcDbCircle
 10
217.533333333
 20
333.596152423
 30
0.000000000
 40
3.000000000
100
AcDbArc
 50
73.218517586
 51
85.525647995
  0
LINE
  5
C0C
330
A02
100
AcDbEntity
  8
CutProfile
100
AcDbLine
 10
217.767371811
 20
336.587009489
 30
0.000000000
 11
208.150705144
 21
337.339526235
 31
0.000000000
  0
ARC
  5
C0D
330
A02
100
AcDbEntity
  8
CutProfile
100
AcDbCircle
 10
207.916666667
 20
334.348669168
 30
0.000000000
 40
3.000000000
100
AcDbArc
 50
85.525647995
 51
100.059798449
  0
LINE
  5
C0E
330
A02
100
AcDbEntity
  8
CutProfile
100
AcDbLine
 10
207.392638946
 20
337.302547119
 30
0.000000000
 11
197.775972279
 21
335.596518638
 31
0.000000000
  0
ARC
  5
C0F
330
A02
100
AcDbEntity
  8
CutProfile
100
AcDbCircle
 10
198.300000000
 20
332.642640687
 30
0.000000000
 40
3.000000000
100
AcDbArc
 50
100.059798449
 51
109.785602389
  0
LINE
  5
C10
330
A02
100
AcDbEntity
  8
CutProfile
100
AcDbLine
 10
197.284495561
 20
335.465538265
 30
0.000000000
 11
187.667828894
 21
332.006054731
 31
0.000000000
  0
ARC
  5
C11
330
A02
100
AcDbEntity
  8
CutProfile
100
AcDbCircle
 10
188.683333333
 20
329.183157153
 30
0.000000000
 40
3.000000000
100
AcDbArc
 50
109.785602389
 51
111.474472324
  0
LINE
  5
C12
330
A02
100
AcDbEntity
  8
CutProfile
100
AcDbLine
 10
187.585073383
 20
331.974899455
 30
0.000000000
 11
178.130865259
 21
328.255652825
 31
0.000000000
  0
LINE
  5
C13
330
A02
100
AcDbEntity
  8
CutProfile
100
AcDbLine
 10
178.130865259
 20
328.255652825
 30
0.000000000
 11
169.021393053
 21
325.846511100
 31
0.000000000
  0
LINE
  5
C14
330
A02
100
AcDbEntity
  8
CutProfile
100
AcDbLine
 10
169.021393053
 20
325.846511100
 30
0.000000000
 11
160.124622054
 21
325.613118641
 31
0.000000000
  0
LINE
  5
C15
330
A02
100
AcDbEntity
  8
CutProfile
100
AcDbLine
 10
160.124622054
 20
325.613118641
 30
0.000000000
 11
151.079978065
 21
327.628634993
 31
0.000000000
  0
LINE
  5
C16
330
A02
100
AcDbEntity
  8
CutProfile
100
AcDbLine
 10
132.048536882
 20
334.857090173
 30
0.000000000
 11
151.079978065
 21
327.628634993
 31
0.000000000
  0
ARC
  5
C17
330
A02
100
AcDbEntity
  8
CutProfile
100
AcDbCircle
 10
130.983333333
 20
332.052568574
 30
0.000000000
 40
3.000000000
100
AcDbArc
 50
69.202397224
 51
77.437418758
  0
LINE
  5
C18
330
A02
100
AcDbEntity
  8
CutProfile
100
AcDbLine
 10
131.635850861
 20
334.980745631
 30
0.000000000
 11
122.019184195
 21
337.123732014
 31
0.000000000
  0
ARC
  5
C19
330
A02
100
AcDbEntity
  8
CutProfile
100
AcDbCircle
 10
121.366666667
 20
334.195554958
 30
0.000000000
 40
3.000000000
100
AcDbArc
 50
77.437418758
 51
91.502717847
  0
LINE
  5
C1A
330
A02
100
AcDbEntity
  8
CutProfile
100
AcDbLine
 10
121.287993564
 20
337.194523204
 30
0.000000000
 11
111.671326898
 21
336.942245441
 31
0.000000000
  0
ARC
  5
C1B
330
A02
100
AcDbEntity
  8
CutProfile
100
AcDbCircle
 10
111.750000000
 20
333.943277195
 30
0.000000000
 40
3.000000000
100
AcDbArc
 50
91.502717847
 51
104.813611719
  0
LINE
  5
C1C
330
A02
100
AcDbEntity
  8
CutProfile
100
AcDbLine
 10
110.982973685
 20
336.843565221
 30
0.000000000
 11
101.366307018
 21
334.300288026
 31
0.000000000
  0
ARC
  5
C1D
330
A02
100
AcDbEntity
  8
CutProfile
100
AcDbCircle
 10
102.133333333
 20
331.400000000
 30
0.000000000
 40
3.000000000
100
AcDbArc
 50
104.813611719
 51
111.474472324
  0
LINE
  5
C1E
330
A02
100
AcDbEntity
  8
CutProfile
100
AcDbLine
 10
101.035073383
 20
334.191742302
 30
0.000000000
 11
91.459554869
 21
330.424772663
 31
0.000000000
  0
LINE
  5
C1F
330
A02
100
AcDbEntity
  8
CutProfile
100
AcDbLine
 10
91.459554869
 20
330.424772663
 30
0.000000000
 11
82.124662144
 21
327.066654014
 31
0.000000000
  0
LINE
  5
C20
330
A02
100
AcDbEntity
  8
CutProfile
100
AcDbLine
 10
82.124662144
 20
327.066654014
 30
0.000000000
 11
73.135980943
 21
325.472032232
 31
0.000000000
  0
LINE
  5
C21
330
A02
100
AcDbEntity
  8
CutProfile
100
AcDbLine
 10
73.135980943
 20
325.472032232
 30
0.000000000
 11
64.223163896
 21
326.169471824
 31
0.000000000
  0
LINE
  5
C22
330
A02
100
AcDbEntity
  8
CutProfile
100
AcDbLine
 10
64.223163896
 20
326.169471824
 30
0.000000000
 11
55.042375082
 21
328.938078069
 31
0.000000000
  0
LINE
  5
C23
330
A02
100
AcDbEntity
  8
CutProfile
100
AcDbLine
 10
55.042375082
 20
328.938078069
 30
0.000000000
 11
45.548091622
 21
332.738109768
 31
0.000000000
  0
ARC
  5
C24
330
A02
100
AcDbEntity
  8
CutProfile
100
AcDbCircle
 10
44.433333333
 20
329.952914271
 30
0.000000000
 40
3.000000000
100
AcDbArc
 50
68.186530765
 51
71.556202896
  0
LINE
  5
C25
330
A02
100
AcDbEntity
  8
CutProfile
100
AcDbLine
 10
45.382456140
 20
332.798817624
 30
0.000000000
 11
35.765789474
 21
336.006023395
 31
0.000000000
  0
ARC
  5
C26
330
A02
100
AcDbEntity
  8
CutProfile
100
AcDbCircle
 10
34.816666667
 20
333.160120042
 30
0.000000000
 40
3.000000000
100
AcDbArc
 50
71.556202896
 51
82.653365407
  0
LINE
  5
C27
330
A02
100
AcDbEntity
  8
CutProfile
100
AcDbLine
 10
35.200282356
 20
336.135492120
 30
0.000000000
 11
25.583615689
 21
337.375372078
 31
0.000000000
  0
ARC
  5
C28
330
A02
100
AcDbEntity
  8
CutProfile
100
AcDbCircle
 10
25.200000000
 20
334.400000000
 30
0.000000000
 40
3.000000000
100
AcDbArc
 50
82.653365407
 51
-170.499110628
  0
LINE
  5
C29
330
A02
100
AcDbEntity
  8
CutProfile
100
AcDbLine
 10
22.241150882
 20
333.904811254
 30
0.000000000
 11
22.739739944
 21
330.925644587
 31
0.000000000
  0
ARC
  5
C2A
330
A02
100
AcDbEntity
  8
CutProfile
100
AcDbCircle
 10
25.698589062
 20
331.420833333
 30
0.000000000
 40
3.000000000
100
AcDbArc
 50
-170.499110628
 51
-154.517677086
  0
LINE
  5
C2B
330
A02
100
AcDbEntity
  8
CutProfile
100
AcDbLine
 10
22.990434870
 20
330.130135510
 30
0.000000000
 11
24.410296391
 21
327.150968844
 31
0.000000000
  0
ARC
  5
C2C
330
A02
100
AcDbEntity
  8
CutProfile
100
AcDbCircle
 10
27.118450583
 20
328.441666667
 30
0.000000000
 40
3.000000000
100
AcDbArc
 50
-154.517677086
 51
-144.500586313
  0
LINE
  5
C2D
330
A02
100
AcDbEntity
  8
CutProfile
100
AcDbLine
 10
24.676086201
 20
326.699582792
 30
0.000000000
 11
26.801059136
 21
323.720416126
 31
0.000000000
  0
ARC
  5
C2E
330
A02
100
AcDbEntity
  8
CutProfile
100
AcDbCircle
 10
29.243423518
 20
325.462500000
 30
0.000000000
 40
3.000000000
100
AcDbArc
 50
-144.500586313
 51
-139.923805750
  0
LINE
  5
C2F
330
A02
100
AcDbEntity
  8
CutProfile
100
AcDbLine
 10
31.883827855
 20
317.664482991
 30
0.000000000
 11
26.947856635
 21
323.531082726
 31
0.000000000
  0
LINE
  5
C30
330
A02
100
AcDbEntity
  8
CutProfile
100
AcDbLine
 10
31.883827855
 20
317.664482991
 30
0.000000000
 11
33.786510629
 21
314.996962381
 31
0.000000000
  0
LINE
  5
C31
330
A02
100
AcDbEntity
  8
CutProfile
100
AcDbLine
 10
33.786510629
 20
314.996962381
 30
0.000000000
 11
34.912074245
 21
312.635294321
 31
0.000000000
  0
LINE
  5
C32
330
A02
100
AcDbEntity
  8
CutProfile
100
AcDbLine
 10
34.912074245
 20
312.635294321
 30
0.000000000
 11
35.258276803
 21
310.566666667
 31
0.000000000
  0
LINE
  5
C33
330
A02
100
AcDbEntity
  8
CutProfile
100
AcDbLine
 10
35.258276803
 20
310.566666667
 30
0.000000000
 11
34.912074245
 21
308.498039012
 31
0.000000000
  0
LINE
  5
C34
330
A02
100
AcDbEntity
  8
CutProfile
100
AcDbLine
 10
34.912074245
 20
308.498039012
 30
0.000000000
 11
33.786510629
 21
306.136370952
 31
0.000000000
  0
LINE
  5
C35
330
A02
100
AcDbEntity
  8
CutProfile
100
AcDbLine
 10
33.786510629
 20
306.136370952
 30
0.000000000
 11
31.883827855
 21
303.468850343
 31
0.000000000
  0
LINE
  5
C36
330
A02
100
AcDbEntity
  8
CutProfile
100
AcDbLine
 10
26.947856635
 20
297.602250607
 30
0.000000000
 11
31.883827855
 21
303.468850343
 31
0.000000000
  0
ARC
  5
C37
330
A02
100
AcDbEntity
  8
CutProfile
100
AcDbCircle
 10
29.243423518
 20
295.670833333
 30
0.000000000
 40
3.000000000
100
AcDbArc
 50
139.923805750
 51
144.500586313
  0
LINE
  5
C38
330
A02
100
AcDbEntity
  8
CutProfile
100
AcDbLine
 10
26.801059136
 20
297.412917208
 30
0.000000000
 11
24.676086201
 21
294.433750541
 31
0.000000000
  0
ARC
  5
C39
330
A02
100
AcDbEntity
  8
CutProfile
100
AcDbCircle
 10
27.118450583
 20
292.691666667
 30
0.000000000
 40
3.000000000
100
AcDbArc
 50
144.500586313
 51
154.517677086
  0
LINE
  5
C3A
330
A02
100
AcDbEntity
  8
CutProfile
100
AcDbLine
 10
24.410296391
 20
293.982364490
 30
0.000000000
 11
22.990434870
 21
291.003197823
 31
0.000000000
  0
ARC
  5
C3B
330
A02
100
AcDbEntity
  8
CutProfile
100
AcDbCircle
 10
25.698589062
 20
289.712500000
 30
0.000000000
 40
3.000000000
100
AcDbArc
 50
154.517677086
 51
170.499110628
  0
LINE
  5
C3C
330
A02
100
AcDbEntity
  8
CutProfile
100
AcDbLine
 10
22.739739944
 20
290.207688746
 30
0.000000000
 11
22.241150882
 21
287.228522080
 31
0.000000000
  0
ARC
  5
C3D
330
A02
100
AcDbEntity
  8
CutProfile
100
AcDbCircle
 10
25.200000000
 20
286.733333333
 30
0.000000000
 40
3.000000000
100
AcDbArc
 50
170.499110628
 51
-176.053295110
  0
LINE
  5
C3E
330
A02
100
AcDbEntity
  8
CutProfile
100
AcDbLine
 10
22.207114487
 20
286.526847730
 30
0.000000000
 11
22.409455827
 21
283.594030833
 31
0.000000000
  0
LINE
  5
C3F
330
A02
100
AcDbEntity
  8
CutProfile
100
AcDbLine
 10
22.409455827
 20
283.594030833
 30
0.000000000
 11
22.514768120
 21
280.817565418
 31
0.000000000
  0
LINE
  5
C40
330
A02
100
AcDbEntity
  8
CutProfile
100
AcDbLine
 10
22.514768120
 20
280.817565418
 30
0.000000000
 11
22.327457629
 21
277.994442728
 31
0.000000000
  0
ARC
  5
C41
330
A02
100
AcDbEntity
  8
CutProfile
100
AcDbCircle
 10
25.320876127
 20
277.795833333
 30
0.000000000
 40
3.000000000
100
AcDbArc
 50
176.204063673
 51
177.676566626
  0
LINE
  5
C42
330
A02
100
AcDbEntity
  8
CutProfile
100
AcDbLine
 10
22.323342433
 20
277.917454681
 30
0.000000000
 11
22.202466306
 21
274.938288014
 31
0.000000000
  0
ARC
  5
C43
330
A02
100
AcDbEntity
  8
CutProfile
100
AcDbCircle
 10
25.200000000
 20
274.816666667
 30
0.000000000
 40
3.000000000
100
AcDbArc
 50
177.676566626
 51
180.000000000
  0
LINE
  5
C44
330
A02
100
AcDbEntity
  8
CutProfile
100
AcDbLine
 10
22.200000000
 20
250.983333333
 30
0.000000000
 11
22.200000000
 21
274.816666667
 31
0.000000000
  0
ARC
  5
C45
330
A02
100
AcDbEntity
  8
CutProfile
100
AcDbCircle
 10
25.200000000
 20
250.983333333
 30
0.000000000
 40
3.000000000
100
AcDbArc
 50
180.000000000
 51
-177.676566626
  0
LINE
  5
C46
330
A02
100
AcDbEntity
  8
CutProfile
100
AcDbLine
 10
22.202466306
 20
250.861711986
 30
0.000000000
 11
22.323342433
 21
247.882545319
 31
0.000000000
  0
ARC
  5
C47
330
A02
100
AcDbEntity
  8
CutProfile
100
AcDbCircle
 10
25.320876127
 20
248.004166667
 30
0.000000000
 40
3.000000000
100
AcDbArc
 50
-177.676566626
 51
-176.204063673
  0
LINE
  5
C48
330
A02
100
AcDbEntity
  8
CutProfile
100
AcDbLine
 10
22.327457629
 20
247.805557272
 30
0.000000000
 11
22.514768120
 21
244.982434582
 31
0.000000000
  0
LINE
  5
C49
330
A02
100
AcDbEntity
  8
CutProfile
100
AcDbLine
 10
22.514768120
 20
244.982434582
 30
0.000000000
 11
22.409455827
 21
242.205969167
 31
0.000000000
  0
LINE
  5
C4A
330
A02
100
AcDbEntity
  8
CutProfile
100
AcDbLine
 10
22.409455827
 20
242.205969167
 30
0.000000000
 11
22.207114487
 21
239.273152270
 31
0.000000000
  0
ARC
  5
C4B
330
A02
100
AcDbEntity
  8
CutProfile
100
AcDbCircle
 10
25.200000000
 20
239.066666667
 30
0.000000000
 40
3.000000000
100
AcDbArc
 50
176.053295110
 51
-170.499110628
  0
LINE
  5
C4C
330
A02
100
AcDbEntity
  8
CutProfile
100
AcDbLine
 10
22.241150882
 20
238.571477920
 30
0.000000000
 11
22.739739944
 21
235.592311254
 31
0.000000000
  0
ARC
  5
C4D
330
A02
100
AcDbEntity
  8
CutProfile
100
AcDbCircle
 10
25.698589062
 20
236.087500000
 30
0.000000000
 40
3.000000000
100
AcDbArc
 50
-170.499110628
 51
-154.517677086
  0
LINE
  5
C4E
330
A02
100
AcDbEntity
  8
CutProfile
100
AcDbLine
 10
22.990434870
 20
234.796802177
 30
0.000000000
 11
24.410296391
 21
231.817635510
 31
0.000000000
  0
ARC
  5
C4F
330
A02
100
AcDbEntity
  8
CutProfile
100
AcDbCircle
 10
27.118450583
 20
233.108333333
 30
0.000000000
 40
3.000000000
100
AcDbArc
 50
-154.517677086
 51
-144.500586313
  0
LINE
  5
C50
330
A02
100
AcDbEntity
  8
CutProfile
100
AcDbLine
 10
24.676086201
 20
231.366249459
 30
0.000000000
 11
26.801059136
 21
228.387082792
 31
0.000000000
  0
ARC
  5
C51
330
A02
100
AcDbEntity
  8
CutProfile
100
AcDbCircle
 10
29.243423518
 20
230.129166667
 30
0.000000000
 40
3.000000000
100
AcDbArc
 50
-144.500586313
 51
-139.923805750
  0
LINE
  5
C52
330
A02
100
AcDbEntity
  8
CutProfile
100
AcDbLine
 10
31.883827855
 20
222.331149657
 30
0.000000000
 11
26.947856635
 21
228.197749393
 31
0.000000000
  0
LINE
  5
C53
330
A02
100
AcDbEntity
  8
CutProfile
100
AcDbLine
 10
31.883827855
 20
222.331149657
 30
0.000000000
 11
33.786510629
 21
219.663629048
 31
0.000000000
  0
LINE
  5
C54
330
A02
100
AcDbEntity
  8
CutProfile
100
AcDbLine
 10
33.786510629
 20
219.663629048
 30
0.000000000
 11
34.912074245
 21
217.301960988
 31
0.000000000
  0
LINE
  5
C55
330
A02
100
AcDbEntity
  8
CutProfile
100
AcDbLine
 10
34.912074245
 20
217.301960988
 30
0.000000000
 11
35.258276803
 21
215.233333333
 31
0.000000000
  0
LINE
  5
C56
330
A02
100
AcDbEntity
  8
CutProfile
100
AcDbLine
 10
35.258276803
 20
215.233333333
 30
0.000000000
 11
34.912074245
 21
213.164705679
 31
0.000000000
  0
LINE
  5
C57
330
A02
100
AcDbEntity
  8
CutProfile
100
AcDbLine
 10
34.912074245
 20
213.164705679
 30
0.000000000
 11
33.786510629
 21
210.803037619
 31
0.000000000
  0
LINE
  5
C58
330
A02
100
AcDbEntity
  8
CutProfile
100
AcDbLine
 10
33.786510629
 20
210.803037619
 30
0.000000000
 11
31.883827855
 21
208.135517009
 31
0.000000000
  0
LINE
  5
C59
330
A02
100
AcDbEntity
  8
CutProfile
100
AcDbLine
 10
26.947856635
 20
202.268917274
 30
0.000000000
 11
31.883827855
 21
208.135517009
 31
0.000000000
  0
ARC
  5
C5A
330
A02
100
AcDbEntity
  8
CutProfile
100
AcDbCircle
 10
29.243423518
 20
200.337500000
 30
0.000000000
 40
3.000000000
100
AcDbArc
 50
139.923805750
 51
144.500586313
  0
LINE
  5
C5B
330
A02
100
AcDbEntity
  8
CutProfile
100
AcDbLine
 10
26.801059136
 20
202.079583874
 30
0.000000000
 11
24.676086201
 21
199.100417208
 31
0.000000000
  0
ARC
  5
C5C
330
A02
100
AcDbEntity
  8
CutProfile
100
AcDbCircle
 10
27.118450583
 20
197.358333333
 30
0.000000000
 40
3.000000000
100
AcDbArc
 50
144.500586313
 51
154.517677086
  0
LINE
  5
C5D
330
A02
100
AcDbEntity
  8
CutProfile
100
AcDbLine
 10
24.410296391
 20
198.649031156
 30
0.000000000
 11
22.990434870
 21
195.669864490
 31
0.000000000
  0
ARC
  5
C5E
330
A02
100
AcDbEntity
  8
CutProfile
100
AcDbCircle
 10
25.698589062
 20
194.379166667
 30
0.000000000
 40
3.000000000
100
AcDbArc
 50
154.517677086
 51
170.499110628
  0
LINE
  5
C5F
330
A02
100
AcDbEntity
  8
CutProfile
100
AcDbLine
 10
22.739739944
 20
194.874355413
 30
0.000000000
 11
22.241150882
 21
191.895188746
 31
0.000000000
  0
ENDSEC
  0
SECTION
  2
OBJECTS
  0
DICTIONARY
  5
F000
330
0
100
AcDbDictionary
  3
ACAD_GROUP
350
F001
  0
DICTIONARY
  5
F001
330
F000
100
AcDbDictionary
  0
ENDSEC
  0
EOF