999
FreeCAD v1.1 20260725 (Git shallow)
  0
SECTION
  2
HEADER
  9
$ACADVER
  1
AC1014
  9
$ACADMAINTVER
 70
     9
  9
$DWGCODEPAGE
  3
ANSI_1252
  9
$TEXTSTYLE
  7
STANDARD
  9
$DIMSTYLE
  2
STANDARD
  9
$DIMTXSTY
  7
STANDARD
  9
$CMLSTYLE
  2
STANDARD
  9
$LUNITS
 70
2
  9
$INSUNITS
 70
4
  9
$PEXTMAX
 10
50
 20
50
 30
50
  9
$PEXTMIN
 10
0
 20
0
 30
0
  9
$HANDSEED
  5
FFFF
  0
ENDSEC
  0
SECTION
  2
CLASSES
  0
CLASS
  1
ACDBDICTIONARYWDFLT
  2
AcDbDictionaryWithDefault
  3
ObjectDBX Classes
 90
        0
280
     0
281
     0
  0
CLASS
  1
XRECORD
  2
AcDbXrecord
  3
ObjectDBX Classes
 90
        0
280
     0
281
     0
  0
CLASS
  1
LWPOLYLINE
  2
AcDbPolyline
  3
ObjectDBX Classes
 90
        0
280
     0
281
     1
  0
ENDSEC
  0
SECTION
  2
TABLES
  0
TABLE
  2
VPORT
  5
20
330
0
100
AcDbSymbolTable
 70
     1
  0
VPORT
  5
21
330
20
100
AcDbSymbolTableRecord
100
AcDbViewportTableRecord
  2
*ACTIVE
 70
     0
  0
ENDTAB
  0
TABLE
  2
LTYPE
  5
22
330
0
100
AcDbSymbolTable
 70
     1
  0
LTYPE
  5
23
330
21
100
AcDbSymbolTableRecord
100
AcDbLinetypeTableRecord
  2
BYBLOCK
 70
     0
  3

 72
    65
 73
     0
 40
0.0
  0
LTYPE
  5
24
330
21
100
AcDbSymbolTableRecord
100
AcDbLinetypeTableRecord
  2
BYLAYER
 70
     0
  3

 72
    65
 73
     0
 40
0.0
  0
LTYPE
  5
25
330
21
100
AcDbSymbolTableRecord
100
AcDbLinetypeTableRecord
  2
CONTINUOUS
 70
     0
  3
Solid line
 72
    65
 73
     0
 40
0.0
  0
ENDTAB
  0
TABLE
  2
LAYER
  5
B64
330
0
100
AcDbSymbolTable
 70
3
  0
LAYER
  5
B65
330
B64
100
AcDbSymbolTableRecord
100
AcDbLayerTableRecord
  2
0
 70
   0
 62
   7
  6
CONTINUOUS
  0
LAYER
  5
B66
330
B64
100
AcDbSymbolTableRecord
100
AcDbLayerTableRecord
  2
none
 70
    0
 62
    7
  6
CONTINUOUS
  0
LAYER
  5
B67
330
B64
100
AcDbSymbolTableRecord
100
AcDbLayerTableRecord
  2
CutProfile
 70
    0
 62
    7
  6
CONTINUOUS
  0
ENDTAB
  0
TABLE
  2
STYLE
  5
70
330
0
100
AcDbSymbolTable
 70
     2
  0
STYLE
  5
71
330
70
100
AcDbSymbolTableRecord
100
AcDbTextStyleTableRecord
  2
STANDARD
 70
     0
 40
0.0
 41
1.0
 50
0.0
 71
     0
 42
2.5
  3
arial.ttf
  4

  0
STYLE
  5
72
330
70
100
AcDbSymbolTableRecord
100
AcDbTextStyleTableRecord
  2
ANNOTATIVE
 70
     0
 40
0.0
 41
1.0
 50
0.0
 71
     0
 42
2.5
  3
arial.ttf
  4

  0
ENDTAB
  0
TABLE
  2
VIEW
  5
73
330
0
100
AcDbSymbolTable
 70
     0
  0
ENDTAB
  0
TABLE
  2
UCS
  5
74
330
0
100
AcDbSymbolTable
 70
     0
  0
ENDTAB
  0
TABLE
  2
APPID
  5
75
330
0
100
AcDbSymbolTable
 70
     2
  0
APPID
  5
76
330
75
100
AcDbSymbolTableRecord
100
AcDbRegAppTableRecord
  2
ACAD
 70
     0
  0
APPID
  5
77
330
75
100
AcDbSymbolTableRecord
100
AcDbRegAppTableRecord
  2
ACADANNOTATIVE
 70
     0
  0
ENDTAB
  0
TABLE
  2
DIMSTYLE
  5
78
330
0
100
AcDbSymbolTable
 70
     2
  0
DIMSTYLE
105
79
330
78
100
AcDbSymbolTableRecord
100
AcDbDimStyleTableRecord
  2
STANDARD
 70
     0
  3

  4

  5

  6

  7

 40
0.0
 41
2.5
 42
0.625
 43
3.75
 44
1.25
 45
0.0
 46
0.0
 47
0.0
 48
0.0
140
2.5
141
2.5
142
0.0
143
0.03937007874016
144
1.0
145
0.0
146
1.0
147
0.625
 71
     0
 72
     0
 73
     0
 74
     0
 75
     0
 76
     0
 77
     1
 78
     8
170
     0
171
     3
172
     1
173
     0
174
     0
175
     0
176
     0
177
     0
178
     0
270
     2
271
     2
272
     2
273
     2
274
     3
340
71
275
     0
280
     0
281
     0
282
     0
283
     0
284
     8
285
     0
286
     0
287
     3
288
     0
  0
ENDTAB
  0
TABLE
  2
BLOCK_RECORD
  5
A01
330
0
100
AcDbSymbolTable
  70
5
  0
BLOCK_RECORD
  5
A02
330
A01
100
AcDbSymbolTableRecord
100
AcDbBlockTableRecord
  2
*MODEL_SPACE
  0
BLOCK_RECORD
  5
A03
330
A01
100
AcDbSymbolTableRecord
100
AcDbBlockTableRecord
  2
*PAPER_SPACE
  0
ENDTAB
  0
ENDSEC
  0
SECTION
  2
BLOCKS
  0
BLOCK
  5
A04
330
A02
100
AcDbEntity
  8
0
100
AcDbBlockBegin
  2
*MODEL_SPACE
 70
   0
 10
0
 20
0
 30
0
  3
*MODEL_SPACE
  1
 
  0
ENDBLK
  5
A05
330
A02
100
AcDbEntity
  8
0
100
AcDbBlockEnd
  0
BLOCK
  5
A06
330
A03
100
AcDbEntity
 67
1
  8
0
100
AcDbBlockBegin
  2
*PAPER_SPACE
 70
   0
 10
0
 20
0
 30
0
  3
*PAPER_SPACE
  1
 
  0
ENDBLK
  5
A07
330
A03
100
AcDbEntity
 67
    1
  8
0
100
AcDbBlockEnd
  0
ENDSEC
  0
SECTION
  2
ENTITIES
  0
LINE
  5
A08
330
A02
100
AcDbEntity
  8
CutProfile
100
AcDbLine
 10
461.101410938
 20
2.979166667
 30
0.000000000
 11
461.600000000
 21
0.000000000
 31
0.000000000
  0
LINE
  5
A09
330
A02
100
AcDbEntity
  8
CutProfile
100
AcDbLine
 10
459.681549417
 20
5.958333333
 30
0.000000000
 11
461.101410938
 21
2.979166667
 31
0.000000000
  0
LINE
  5
A0A
330
A02
100
AcDbEntity
  8
CutProfile
100
AcDbLine
 10
457.556576482
 20
8.937500000
 30
0.000000000
 11
459.681549417
 21
5.958333333
 31
0.000000000
  0
LINE
  5
A0B
330
A02
100
AcDbEntity
  8
CutProfile
100
AcDbLine
 10
452.543423518
 20
14.895833333
 30
0.000000000
 11
457.556576482
 21
8.937500000
 31
0.000000000
  0
LINE
  5
A0C
330
A02
100
AcDbEntity
  8
CutProfile
100
AcDbLine
 10
450.418450583
 20
17.875000000
 30
0.000000000
 11
452.543423518
 21
14.895833333
 31
0.000000000
  0
LINE
  5
A0D
330
A02
100
AcDbEntity
  8
CutProfile
100
AcDbLine
 10
448.998589062
 20
20.854166667
 30
0.000000000
 11
450.418450583
 21
17.875000000
 31
0.000000000
  0
LINE
  5
A0E
330
A02
100
AcDbEntity
  8
CutProfile
100
AcDbLine
 10
448.500000000
 20
23.833333333
 30
0.000000000
 11
448.998589062
 21
20.854166667
 31
0.000000000
  0
LINE
  5
A0F
330
A02
100
AcDbEntity
  8
CutProfile
100
AcDbLine
 10
448.500000000
 20
18.250000000
 30
0.000000000
 11
448.500000000
 21
23.833333333
 31
0.000000000
  0
LINE
  5
A10
330
A02
100
AcDbEntity
  8
CutProfile
100
AcDbLine
 10
436.900000000
 20
18.250000000
 30
0.000000000
 11
448.500000000
 21
18.250000000
 31
0.000000000
  0
LINE
  5
A11
330
A02
100
AcDbEntity
  8
CutProfile
100
AcDbLine
 10
436.900000000
 20
18.250000000
 30
0.000000000
 11
436.900000000
 21
30.750000000
 31
0.000000000
  0
LINE
  5
A12
330
A02
100
AcDbEntity
  8
CutProfile
100
AcDbLine
 10
448.500000000
 20
30.750000000
 30
0.000000000
 11
436.900000000
 21
30.750000000
 31
0.000000000
  0
LINE
  5
A13
330
A02
100
AcDbEntity
  8
CutProfile
100
AcDbLine
 10
448.500000000
 20
23.833333333
 30
0.000000000
 11
448.500000000
 21
30.750000000
 31
0.000000000
  0
LINE
  5
A14
330
A02
100
AcDbEntity
  8
CutProfile
100
AcDbLine
 10
448.998589062
 20
26.812500000
 30
0.000000000
 11
448.500000000
 21
23.833333333
 31
0.000000000
  0
LINE
  5
A15
330
A02
100
AcDbEntity
  8
CutProfile
100
AcDbLine
 10
450.418450583
 20
29.791666667
 30
0.000000000
 11
448.998589062
 21
26.812500000
 31
0.000000000
  0
LINE
  5
A16
330
A02
100
AcDbEntity
  8
CutProfile
100
AcDbLine
 10
452.543423518
 20
32.770833333
 30
0.000000000
 11
450.418450583
 21
29.791666667
 31
0.000000000
  0
LINE
  5
A17
330
A02
100
AcDbEntity
  8
CutProfile
100
AcDbLine
 10
457.556576482
 20
38.729166667
 30
0.000000000
 11
452.543423518
 21
32.770833333
 31
0.000000000
  0
LINE
  5
A18
330
A02
100
AcDbEntity
  8
CutProfile
100
AcDbLine
 10
459.681549417
 20
41.708333333
 30
0.000000000
 11
457.556576482
 21
38.729166667
 31
0.000000000
  0
LINE
  5
A19
330
A02
100
AcDbEntity
  8
CutProfile
100
AcDbLine
 10
461.101410938
 20
44.687500000
 30
0.000000000
 11
459.681549417
 21
41.708333333
 31
0.000000000
  0
LINE
  5
A1A
330
A02
100
AcDbEntity
  8
CutProfile
100
AcDbLine
 10
461.600000000
 20
47.666666667
 30
0.000000000
 11
461.101410938
 21
44.687500000
 31
0.000000000
  0
LINE
  5
A1B
330
A02
100
AcDbEntity
  8
CutProfile
100
AcDbLine
 10
461.394460889
 20
50.645833333
 30
0.000000000
 11
461.600000000
 21
47.666666667
 31
0.000000000
  0
LINE
  5
A1C
330
A02
100
AcDbEntity
  8
CutProfile
100
AcDbLine
 10
461.281460068
 20
53.625000000
 30
0.000000000
 11
461.394460889
 21
50.645833333
 31
0.000000000
  0
LINE
  5
A1D
330
A02
100
AcDbEntity
  8
CutProfile
100
AcDbLine
 10
461.479123873
 20
56.604166667
 30
0.000000000
 11
461.281460068
 21
53.625000000
 31
0.000000000
  0
LINE
  5
A1E
330
A02
100
AcDbEntity
  8
CutProfile
100
AcDbLine
 10
461.600000000
 20
59.583333333
 30
0.000000000
 11
461.479123873
 21
56.604166667
 31
0.000000000
  0
LINE
  5
A1F
330
A02
100
AcDbEntity
  8
CutProfile
100
AcDbLine
 10
461.600000000
 20
83.416666667
 30
0.000000000
 11
461.600000000
 21
59.583333333
 31
0.000000000
  0
LINE
  5
A20
330
A02
100
AcDbEntity
  8
CutProfile
100
AcDbLine
 10
461.479123873
 20
86.395833333
 30
0.000000000
 11
461.600000000
 21
83.416666667
 31
0.000000000
  0
LINE
  5
A21
330
A02
100
AcDbEntity
  8
CutProfile
100
AcDbLine
 10
461.281460068
 20
89.375000000
 30
0.000000000
 11
461.479123873
 21
86.395833333
 31
0.000000000
  0
LINE
  5
A22
330
A02
100
AcDbEntity
  8
CutProfile
100
AcDbLine
 10
461.394460889
 20
92.354166667
 30
0.000000000
 11
461.281460068
 21
89.375000000
 31
0.000000000
  0
LINE
  5
A23
330
A02
100
AcDbEntity
  8
CutProfile
100
AcDbLine
 10
461.600000000
 20
95.333333333
 30
0.000000000
 11
461.394460889
 21
92.354166667
 31
0.000000000
  0
LINE
  5
A24
330
A02
100
AcDbEntity
  8
CutProfile
100
AcDbLine
 10
461.101410938
 20
98.312500000
 30
0.000000000
 11
461.600000000
 21
95.333333333
 31
0.000000000
  0
LINE
  5
A25
330
A02
100
AcDbEntity
  8
CutProfile
100
AcDbLine
 10
459.681549417
 20
101.291666667
 30
0.000000000
 11
461.101410938
 21
98.312500000
 31
0.000000000
  0
LINE
  5
A26
330
A02
100
AcDbEntity
  8
CutProfile
100
AcDbLine
 10
457.556576482
 20
104.270833333
 30
0.000000000
 11
459.681549417
 21
101.291666667
 31
0.000000000
  0
LINE
  5
A27
330
A02
100
AcDbEntity
  8
CutProfile
100
AcDbLine
 10
452.543423518
 20
110.229166667
 30
0.000000000
 11
457.556576482
 21
104.270833333
 31
0.000000000
  0
LINE
  5
A28
330
A02
100
AcDbEntity
  8
CutProfile
100
AcDbLine
 10
450.418450583
 20
113.208333333
 30
0.000000000
 11
452.543423518
 21
110.229166667
 31
0.000000000
  0
LINE
  5
A29
330
A02
100
AcDbEntity
  8
CutProfile
100
AcDbLine
 10
448.998589062
 20
116.187500000
 30
0.000000000
 11
450.418450583
 21
113.208333333
 31
0.000000000
  0
LINE
  5
A2A
330
A02
100
AcDbEntity
  8
CutProfile
100
AcDbLine
 10
448.500000000
 20
119.166666667
 30
0.000000000
 11
448.998589062
 21
116.187500000
 31
0.000000000
  0
LINE
  5
A2B
330
A02
100
AcDbEntity
  8
CutProfile
100
AcDbLine
 10
448.998589062
 20
122.145833333
 30
0.000000000
 11
448.500000000
 21
119.166666667
 31
0.000000000
  0
LINE
  5
A2C
330
A02
100
AcDbEntity
  8
CutProfile
100
AcDbLine
 10
450.418450583
 20
125.125000000
 30
0.000000000
 11
448.998589062
 21
122.145833333
 31
0.000000000
  0
LINE
  5
A2D
330
A02
100
AcDbEntity
  8
CutProfile
100
AcDbLine
 10
452.543423518
 20
128.104166667
 30
0.000000000
 11
450.418450583
 21
125.125000000
 31
0.000000000
  0
LINE
  5
A2E
330
A02
100
AcDbEntity
  8
CutProfile
100
AcDbLine
 10
457.556576482
 20
134.062500000
 30
0.000000000
 11
452.543423518
 21
128.104166667
 31
0.000000000
  0
LINE
  5
A2F
330
A02
100
AcDbEntity
  8
CutProfile
100
AcDbLine
 10
459.681549417
 20
137.041666667
 30
0.000000000
 11
457.556576482
 21
134.062500000
 31
0.000000000
  0
LINE
  5
A30
330
A02
100
AcDbEntity
  8
CutProfile
100
AcDbLine
 10
461.101410938
 20
140.020833333
 30
0.000000000
 11
459.681549417
 21
137.041666667
 31
0.000000000
  0
LINE
  5
A31
330
A02
100
AcDbEntity
  8
CutProfile
100
AcDbLine
 10
461.600000000
 20
143.000000000
 30
0.000000000
 11
461.101410938
 21
140.020833333
 31
0.000000000
  0
LINE
  5
A32
330
A02
100
AcDbEntity
  8
CutProfile
100
AcDbLine
 10
451.983333333
 20
141.760120042
 30
0.000000000
 11
461.600000000
 21
143.000000000
 31
0.000000000
  0
LINE
  5
A33
330
A02
100
AcDbEntity
  8
CutProfile
100
AcDbLine
 10
442.366666667
 20
138.552914271
 30
0.000000000
 11
451.983333333
 21
141.760120042
 31
0.000000000
  0
LINE
  5
A34
330
A02
100
AcDbEntity
  8
CutProfile
100
AcDbLine
 10
432.750000000
 20
134.703899406
 30
0.000000000
 11
442.366666667
 21
138.552914271
 31
0.000000000
  0
LINE
  5
A35
330
A02
100
AcDbEntity
  8
CutProfile
100
AcDbLine
 10
423.133333333
 20
131.803847577
 30
0.000000000
 11
432.750000000
 21
134.703899406
 31
0.000000000
  0
LINE
  5
A36
330
A02
100
AcDbEntity
  8
CutProfile
100
AcDbLine
 10
413.516666667
 20
131.051330832
 30
0.000000000
 11
423.133333333
 21
131.803847577
 31
0.000000000
  0
LINE
  5
A37
330
A02
100
AcDbEntity
  8
CutProfile
100
AcDbLine
 10
403.900000000
 20
132.757359313
 30
0.000000000
 11
413.516666667
 21
131.051330832
 31
0.000000000
  0
LINE
  5
A38
330
A02
100
AcDbEntity
  8
CutProfile
100
AcDbLine
 10
394.283333333
 20
136.216842847
 30
0.000000000
 11
403.900000000
 21
132.757359313
 31
0.000000000
  0
LINE
  5
A39
330
A02
100
AcDbEntity
  8
CutProfile
100
AcDbLine
 10
384.666666667
 20
140.000000000
 30
0.000000000
 11
394.283333333
 21
136.216842847
 31
0.000000000
  0
LINE
  5
A3A
330
A02
100
AcDbEntity
  8
CutProfile
100
AcDbLine
 10
375.050000000
 20
142.543277195
 30
0.000000000
 11
384.666666667
 21
140.000000000
 31
0.000000000
  0
LINE
  5
A3B
330
A02
100
AcDbEntity
  8
CutProfile
100
AcDbLine
 10
365.433333333
 20
142.795554958
 30
0.000000000
 11
375.050000000
 21
142.543277195
 31
0.000000000
  0
LINE
  5
A3C
330
A02
100
AcDbEntity
  8
CutProfile
100
AcDbLine
 10
355.816666667
 20
140.652568574
 30
0.000000000
 11
365.433333333
 21
142.795554958
 31
0.000000000
  0
LINE
  5
A3D
330
A02
100
AcDbEntity
  8
CutProfile
100
AcDbLine
 10
336.583333333
 20
133.347431426
 30
0.000000000
 11
355.816666667
 21
140.652568574
 31
0.000000000
  0
LINE
  5
A3E
330
A02
100
AcDbEntity
  8
CutProfile
100
AcDbLine
 10
326.966666667
 20
131.204445042
 30
0.000000000
 11
336.583333333
 21
133.347431426
 31
0.000000000
  0
LINE
  5
A3F
330
A02
100
AcDbEntity
  8
CutProfile
100
AcDbLine
 10
317.350000000
 20
131.456722805
 30
0.000000000
 11
326.966666667
 21
131.204445042
 31
0.000000000
  0
LINE
  5
A40
330
A02
100
AcDbEntity
  8
CutProfile
100
AcDbLine
 10
307.733333333
 20
134.000000000
 30
0.000000000
 11
317.350000000
 21
131.456722805
 31
0.000000000
  0
LINE
  5
A41
330
A02
100
AcDbEntity
  8
CutProfile
100
AcDbLine
 10
298.116666667
 20
137.783157153
 30
0.000000000
 11
307.733333333
 21
134.000000000
 31
0.000000000
  0
LINE
  5
A42
330
A02
100
AcDbEntity
  8
CutProfile
100
AcDbLine
 10
288.500000000
 20
141.242640687
 30
0.000000000
 11
298.116666667
 21
137.783157153
 31
0.000000000
  0
LINE
  5
A43
330
A02
100
AcDbEntity
  8
CutProfile
100
AcDbLine
 10
279.671810661
 20
142.808790682
 30
0.000000000
 11
288.500000000
 21
141.242640687
 31
0.000000000
  0
LINE
  5
A44
330
A02
100
AcDbEntity
  8
CutProfile
100
AcDbLine
 10
279.671810661
 20
142.808790682
 30
0.000000000
 11
279.044194236
 21
142.412500000
 31
0.000000000
  0
LINE
  5
A45
330
A02
100
AcDbEntity
  8
CutProfile
100
AcDbLine
 10
279.044194236
 20
142.412500000
 30
0.000000000
 11
278.230798876
 21
141.883333333
 31
0.000000000
  0
LINE
  5
A46
330
A02
100
AcDbEntity
  8
CutProfile
100
AcDbLine
 10
278.230798876
 20
141.883333333
 30
0.000000000
 11
277.449751842
 21
141.354166667
 31
0.000000000
  0
LINE
  5
A47
330
A02
100
AcDbEntity
  8
CutProfile
100
AcDbLine
 10
277.449751842
 20
141.354166667
 30
0.000000000
 11
276.708295899
 21
140.825000000
 31
0.000000000
  0
LINE
  5
A48
330
A02
100
AcDbEntity
  8
CutProfile
100
AcDbLine
 10
276.708295899
 20
140.825000000
 30
0.000000000
 11
276.013130948
 21
140.295833333
 31
0.000000000
  0
LINE
  5
A49
330
A02
100
AcDbEntity
  8
CutProfile
100
AcDbLine
 10
276.013130948
 20
140.295833333
 30
0.000000000
 11
275.370325022
 21
139.766666667
 31
0.000000000
  0
LINE
  5
A4A
330
A02
100
AcDbEntity
  8
CutProfile
100
AcDbLine
 10
275.370325022
 20
139.766666667
 30
0.000000000
 11
274.785235411
 21
139.237500000
 31
0.000000000
  0
LINE
  5
A4B
330
A02
100
AcDbEntity
  8
CutProfile
100
AcDbLine
 10
274.785235411
 20
139.237500000
 30
0.000000000
 11
274.262441152
 21
138.708333333
 31
0.000000000
  0
LINE
  5
A4C
330
A02
100
AcDbEntity
  8
CutProfile
100
AcDbLine
 10
274.262441152
 20
138.708333333
 30
0.000000000
 11
273.805687946
 21
138.179166667
 31
0.000000000
  0
LINE
  5
A4D
330
A02
100
AcDbEntity
  8
CutProfile
100
AcDbLine
 10
273.805687946
 20
138.179166667
 30
0.000000000
 11
273.417846327
 21
137.650000000
 31
0.000000000
  0
LINE
  5
A4E
330
A02
100
AcDbEntity
  8
CutProfile
100
AcDbLine
 10
273.417846327
 20
137.650000000
 30
0.000000000
 11
273.100883724
 21
137.120833333
 31
0.000000000
  0
LINE
  5
A4F
330
A02
100
AcDbEntity
  8
CutProfile
100
AcDbLine
 10
273.100883724
 20
137.120833333
 30
0.000000000
 11
272.855850788
 21
136.591666667
 31
0.000000000
  0
LINE
  5
A50
330
A02
100
AcDbEntity
  8
CutProfile
100
AcDbLine
 10
272.855850788
 20
136.591666667
 30
0.000000000
 11
272.682882140
 21
136.062500000
 31
0.000000000
  0
LINE
  5
A51
330
A02
100
AcDbEntity
  8
CutProfile
100
AcDbLine
 10
272.682882140
 20
136.062500000
 30
0.000000000
 11
272.581211445
 21
135.533333333
 31
0.000000000
  0
LINE
  5
A52
330
A02
100
AcDbEntity
  8
CutProfile
100
AcDbLine
 10
272.581211445
 20
135.533333333
 30
0.000000000
 11
272.549200477
 21
135.004166667
 31
0.000000000
  0
LINE
  5
A53
330
A02
100
AcDbEntity
  8
CutProfile
100
AcDbLine
 10
272.549200477
 20
135.004166667
 30
0.000000000
 11
272.584381616
 21
134.475000000
 31
0.000000000
  0
LINE
  5
A54
330
A02
100
AcDbEntity
  8
CutProfile
100
AcDbLine
 10
272.584381616
 20
134.475000000
 30
0.000000000
 11
272.683512981
 21
133.945833333
 31
0.000000000
  0
LINE
  5
A55
330
A02
100
AcDbEntity
  8
CutProfile
100
AcDbLine
 10
272.683512981
 20
133.945833333
 30
0.000000000
 11
272.842645204
 21
133.416666667
 31
0.000000000
  0
LINE
  5
A56
330
A02
100
AcDbEntity
  8
CutProfile
100
AcDbLine
 10
272.842645204
 20
133.416666667
 30
0.000000000
 11
273.057198653
 21
132.887500000
 31
0.000000000
  0
LINE
  5
A57
330
A02
100
AcDbEntity
  8
CutProfile
100
AcDbLine
 10
273.057198653
 20
132.887500000
 30
0.000000000
 11
273.322049744
 21
132.358333333
 31
0.000000000
  0
LINE
  5
A58
330
A02
100
AcDbEntity
  8
CutProfile
100
AcDbLine
 10
273.322049744
 20
132.358333333
 30
0.000000000
 11
273.631624824
 21
131.829166667
 31
0.000000000
  0
LINE
  5
A59
330
A02
100
AcDbEntity
  8
CutProfile
100
AcDbLine
 10
273.631624824
 20
131.829166667
 30
0.000000000
 11
273.980000000
 21
131.300000000
 31
0.000000000
  0
LINE
  5
A5A
330
A02
100
AcDbEntity
  8
CutProfile
100
AcDbLine
 10
273.980000000
 20
131.300000000
 30
0.000000000
 11
274.361005186
 21
130.770833333
 31
0.000000000
  0
LINE
  5
A5B
330
A02
100
AcDbEntity
  8
CutProfile
100
AcDbLine
 10
274.361005186
 20
130.770833333
 30
0.000000000
 11
274.768330568
 21
130.241666667
 31
0.000000000
  0
LINE
  5
A5C
330
A02
100
AcDbEntity
  8
CutProfile
100
AcDbLine
 10
274.768330568
 20
130.241666667
 30
0.000000000
 11
275.195633673
 21
129.712500000
 31
0.000000000
  0
LINE
  5
A5D
330
A02
100
AcDbEntity
  8
CutProfile
100
AcDbLine
 10
275.195633673
 20
129.712500000
 30
0.000000000
 11
275.636645204
 21
129.183333333
 31
0.000000000
  0
LINE
  5
A5E
330
A02
100
AcDbEntity
  8
CutProfile
100
AcDbLine
 10
275.636645204
 20
129.183333333
 30
0.000000000
 11
276.085271846
 21
128.654166667
 31
0.000000000
  0
LINE
  5
A5F
330
A02
100
AcDbEntity
  8
CutProfile
100
AcDbLine
 10
276.085271846
 20
128.654166667
 30
0.000000000
 11
276.535694309
 21
128.125000000
 31
0.000000000
  0
LINE
  5
A60
330
A02
100
AcDbEntity
  8
CutProfile
100
AcDbLine
 10
276.535694309
 20
128.125000000
 30
0.000000000
 11
276.982458942
 21
127.595833333
 31
0.000000000
  0
LINE
  5
A61
330
A02
100
AcDbEntity
  8
CutProfile
100
AcDbLine
 10
276.982458942
 20
127.595833333
 30
0.000000000
 11
277.420561401
 21
127.066666667
 31
0.000000000
  0
LINE
  5
A62
330
A02
100
AcDbEntity
  8
CutProfile
100
AcDbLine
 10
277.420561401
 20
127.066666667
 30
0.000000000
 11
277.845520968
 21
126.537500000
 31
0.000000000
  0
LINE
  5
A63
330
A02
100
AcDbEntity
  8
CutProfile
100
AcDbLine
 10
277.845520968
 20
126.537500000
 30
0.000000000
 11
278.253444306
 21
126.008333333
 31
0.000000000
  0
LINE
  5
A64
330
A02
100
AcDbEntity
  8
CutProfile
100
AcDbLine
 10
278.253444306
 20
126.008333333
 30
0.000000000
 11
278.641077610
 21
125.479166667
 31
0.000000000
  0
LINE
  5
A65
330
A02
100
AcDbEntity
  8
CutProfile
100
AcDbLine
 10
278.641077610
 20
125.479166667
 30
0.000000000
 11
279.005846327
 21
124.950000000
 31
0.000000000
  0
LINE
  5
A66
330
A02
100
AcDbEntity
  8
CutProfile
100
AcDbLine
 10
279.005846327
 20
124.950000000
 30
0.000000000
 11
279.345881832
 21
124.420833333
 31
0.000000000
  0
LINE
  5
A67
330
A02
100
AcDbEntity
  8
CutProfile
100
AcDbLine
 10
279.345881832
 20
124.420833333
 30
0.000000000
 11
279.660034670
 21
123.891666667
 31
0.000000000
  0
LINE
  5
A68
330
A02
100
AcDbEntity
  8
CutProfile
100
AcDbLine
 10
279.660034670
 20
123.891666667
 30
0.000000000
 11
279.947874238
 21
123.362500000
 31
0.000000000
  0
LINE
  5
A69
330
A02
100
AcDbEntity
  8
CutProfile
100
AcDbLine
 10
279.947874238
 20
123.362500000
 30
0.000000000
 11
280.209674978
 21
122.833333333
 31
0.000000000
  0
LINE
  5
A6A
330
A02
100
AcDbEntity
  8
CutProfile
100
AcDbLine
 10
280.209674978
 20
122.833333333
 30
0.000000000
 11
280.446389413
 21
122.304166667
 31
0.000000000
  0
LINE
  5
A6B
330
A02
100
AcDbEntity
  8
CutProfile
100
AcDbLine
 10
280.446389413
 20
122.304166667
 30
0.000000000
 11
280.659608592
 21
121.775000000
 31
0.000000000
  0
LINE
  5
A6C
330
A02
100
AcDbEntity
  8
CutProfile
100
AcDbLine
 10
280.659608592
 20
121.775000000
 30
0.000000000
 11
280.851510707
 21
121.245833333
 31
0.000000000
  0
LINE
  5
A6D
330
A02
100
AcDbEntity
  8
CutProfile
100
AcDbLine
 10
280.851510707
 20
121.245833333
 30
0.000000000
 11
281.024798876
 21
120.716666667
 31
0.000000000
  0
LINE
  5
A6E
330
A02
100
AcDbEntity
  8
CutProfile
100
AcDbLine
 10
281.024798876
 20
120.716666667
 30
0.000000000
 11
281.182629256
 21
120.187500000
 31
0.000000000
  0
LINE
  5
A6F
330
A02
100
AcDbEntity
  8
CutProfile
100
AcDbLine
 10
281.182629256
 20
120.187500000
 30
0.000000000
 11
281.328530827
 21
119.658333333
 31
0.000000000
  0
LINE
  5
A70
330
A02
100
AcDbEntity
  8
CutProfile
100
AcDbLine
 10
281.328530827
 20
119.658333333
 30
0.000000000
 11
281.466318336
 21
119.129166667
 31
0.000000000
  0
LINE
  5
A71
330
A02
100
AcDbEntity
  8
CutProfile
100
AcDbLine
 10
281.466318336
 20
119.129166667
 30
0.000000000
 11
281.600000000
 21
118.600000000
 31
0.000000000
  0
LINE
  5
A72
330
A02
100
AcDbEntity
  8
CutProfile
100
AcDbLine
 10
281.600000000
 20
118.600000000
 30
0.000000000
 11
279.483333333
 21
118.253157207
 31
0.000000000
  0
LINE
  5
A73
330
A02
100
AcDbEntity
  8
CutProfile
100
AcDbLine
 10
279.483333333
 20
118.253157207
 30
0.000000000
 11
277.366666667
 21
118.048993183
 31
0.000000000
  0
LINE
  5
A74
330
A02
100
AcDbEntity
  8
CutProfile
100
AcDbLine
 10
277.366666667
 20
118.048993183
 30
0.000000000
 11
275.250000000
 21
117.958169429
 31
0.000000000
  0
LINE
  5
A75
330
A02
100
AcDbEntity
  8
CutProfile
100
AcDbLine
 10
275.250000000
 20
117.958169429
 30
0.000000000
 11
273.133333333
 21
117.936777778
 31
0.000000000
  0
LINE
  5
A76
330
A02
100
AcDbEntity
  8
CutProfile
100
AcDbLine
 10
273.133333333
 20
117.936777778
 30
0.000000000
 11
271.016666667
 21
117.933025016
 31
0.000000000
  0
LINE
  5
A77
330
A02
100
AcDbEntity
  8
CutProfile
100
AcDbLine
 10
271.016666667
 20
117.933025016
 30
0.000000000
 11
268.900000000
 21
117.895117928
 31
0.000000000
  0
LINE
  5
A78
330
A02
100
AcDbEntity
  8
CutProfile
100
AcDbLine
 10
268.900000000
 20
117.895117928
 30
0.000000000
 11
266.783333333
 21
117.779148349
 31
0.000000000
  0
LINE
  5
A79
330
A02
100
AcDbEntity
  8
CutProfile
100
AcDbLine
 10
266.783333333
 20
117.779148349
 30
0.000000000
 11
264.666666667
 21
117.555777778
 31
0.000000000
  0
LINE
  5
A7A
330
A02
100
AcDbEntity
  8
CutProfile
100
AcDbLine
 10
264.666666667
 20
117.555777778
 30
0.000000000
 11
262.550000000
 21
117.214703904
 31
0.000000000
  0
LINE
  5
A7B
330
A02
100
AcDbEntity
  8
CutProfile
100
AcDbLine
 10
262.550000000
 20
117.214703904
 30
0.000000000
 11
260.433333333
 21
116.766229040
 31
0.000000000
  0
LINE
  5
A7C
330
A02
100
AcDbEntity
  8
CutProfile
100
AcDbLine
 10
260.433333333
 20
116.766229040
 30
0.000000000
 11
258.316666667
 21
116.239691682
 31
0.000000000
  0
LINE
  5
A7D
330
A02
100
AcDbEntity
  8
CutProfile
100
AcDbLine
 10
258.316666667
 20
116.239691682
 30
0.000000000
 11
256.200000000
 21
115.679000000
 31
0.000000000
  0
LINE
  5
A7E
330
A02
100
AcDbEntity
  8
CutProfile
100
AcDbLine
 10
256.200000000
 20
115.679000000
 30
0.000000000
 11
254.083333333
 21
115.135947206
 31
0.000000000
  0
LINE
  5
A7F
330
A02
100
AcDbEntity
  8
CutProfile
100
AcDbLine
 10
254.083333333
 20
115.135947206
 30
0.000000000
 11
251.966666667
 21
114.662326516
 31
0.000000000
  0
LINE
  5
A80
330
A02
100
AcDbEntity
  8
CutProfile
100
AcDbLine
 10
251.966666667
 20
114.662326516
 30
0.000000000
 11
249.850000000
 21
114.302046096
 31
0.000000000
  0
LINE
  5
A81
330
A02
100
AcDbEntity
  8
CutProfile
100
AcDbLine
 10
249.850000000
 20
114.302046096
 30
0.000000000
 11
247.733333333
 21
114.084444444
 31
0.000000000
  0
LINE
  5
A82
330
A02
100
AcDbEntity
  8
CutProfile
100
AcDbLine
 10
247.733333333
 20
114.084444444
 30
0.000000000
 11
245.616666667
 21
114.019823873
 31
0.000000000
  0
LINE
  5
A83
330
A02
100
AcDbEntity
  8
CutProfile
100
AcDbLine
 10
245.616666667
 20
114.019823873
 30
0.000000000
 11
243.500000000
 21
114.097882072
 31
0.000000000
  0
LINE
  5
A84
330
A02
100
AcDbEntity
  8
CutProfile
100
AcDbLine
 10
243.500000000
 20
114.097882072
 30
0.000000000
 11
241.383333333
 21
114.289280540
 31
0.000000000
  0
LINE
  5
A85
330
A02
100
AcDbEntity
  8
CutProfile
100
AcDbLine
 10
241.383333333
 20
114.289280540
 30
0.000000000
 11
239.266666667
 21
114.550111111
 31
0.000000000
  0
LINE
  5
A86
330
A02
100
AcDbEntity
  8
CutProfile
100
AcDbLine
 10
239.266666667
 20
114.550111111
 30
0.000000000
 11
237.150000000
 21
114.828580571
 31
0.000000000
  0
LINE
  5
A87
330
A02
100
AcDbEntity
  8
CutProfile
100
AcDbLine
 10
237.150000000
 20
114.828580571
 30
0.000000000
 11
235.033333333
 21
115.072895706
 31
0.000000000
  0
LINE
  5
A88
330
A02
100
AcDbEntity
  8
CutProfile
100
AcDbLine
 10
235.033333333
 20
115.072895706
 30
0.000000000
 11
232.916666667
 21
115.239148349
 31
0.000000000
  0
LINE
  5
A89
330
A02
100
AcDbEntity
  8
CutProfile
100
AcDbLine
 10
232.916666667
 20
115.239148349
 30
0.000000000
 11
230.800000000
 21
115.298000000
 31
0.000000000
  0
LINE
  5
A8A
330
A02
100
AcDbEntity
  8
CutProfile
100
AcDbLine
 10
230.800000000
 20
115.298000000
 30
0.000000000
 11
228.683333333
 21
115.239148349
 31
0.000000000
  0
LINE
  5
A8B
330
A02
100
AcDbEntity
  8
CutProfile
100
AcDbLine
 10
228.683333333
 20
115.239148349
 30
0.000000000
 11
226.566666667
 21
115.072895706
 31
0.000000000
  0
LINE
  5
A8C
330
A02
100
AcDbEntity
  8
CutProfile
100
AcDbLine
 10
226.566666667
 20
115.072895706
 30
0.000000000
 11
224.450000000
 21
114.828580571
 31
0.000000000
  0
LINE
  5
A8D
330
A02
100
AcDbEntity
  8
CutProfile
100
AcDbLine
 10
224.450000000
 20
114.828580571
 30
0.000000000
 11
222.333333333
 21
114.550111111
 31
0.000000000
  0
LINE
  5
A8E
330
A02
100
AcDbEntity
  8
CutProfile
100
AcDbLine
 10
222.333333333
 20
114.550111111
 30
0.000000000
 11
220.216666667
 21
114.289280540
 31
0.000000000
  0
LINE
  5
A8F
330
A02
100
AcDbEntity
  8
CutProfile
100
AcDbLine
 10
220.216666667
 20
114.289280540
 30
0.000000000
 11
218.100000000
 21
114.097882072
 31
0.000000000
  0
LINE
  5
A90
330
A02
100
AcDbEntity
  8
CutProfile
100
AcDbLine
 10
218.100000000
 20
114.097882072
 30
0.000000000
 11
215.983333333
 21
114.019823873
 31
0.000000000
  0
LINE
  5
A91
330
A02
100
AcDbEntity
  8
CutProfile
100
AcDbLine
 10
215.983333333
 20
114.019823873
 30
0.000000000
 11
213.866666667
 21
114.084444444
 31
0.000000000
  0
LINE
  5
A92
330
A02
100
AcDbEntity
  8
CutProfile
100
AcDbLine
 10
213.866666667
 20
114.084444444
 30
0.000000000
 11
211.750000000
 21
114.302046096
 31
0.000000000
  0
LINE
  5
A93
330
A02
100
AcDbEntity
  8
CutProfile
100
AcDbLine
 10
211.750000000
 20
114.302046096
 30
0.000000000
 11
209.633333333
 21
114.662326516
 31
0.000000000
  0
LINE
  5
A94
330
A02
100
AcDbEntity
  8
CutProfile
100
AcDbLine
 10
209.633333333
 20
114.662326516
 30
0.000000000
 11
207.516666667
 21
115.135947206
 31
0.000000000
  0
LINE
  5
A95
330
A02
100
AcDbEntity
  8
CutProfile
100
AcDbLine
 10
207.516666667
 20
115.135947206
 30
0.000000000
 11
205.400000000
 21
115.679000000
 31
0.000000000
  0
LINE
  5
A96
330
A02
100
AcDbEntity
  8
CutProfile
100
AcDbLine
 10
205.400000000
 20
115.679000000
 30
0.000000000
 11
203.283333333
 21
116.239691682
 31
0.000000000
  0
LINE
  5
A97
330
A02
100
AcDbEntity
  8
CutProfile
100
AcDbLine
 10
203.283333333
 20
116.239691682
 30
0.000000000
 11
201.166666667
 21
116.766229040
 31
0.000000000
  0
LINE
  5
A98
330
A02
100
AcDbEntity
  8
CutProfile
100
AcDbLine
 10
201.166666667
 20
116.766229040
 30
0.000000000
 11
199.050000000
 21
117.214703904
 31
0.000000000
  0
LINE
  5
A99
330
A02
100
AcDbEntity
  8
CutProfile
100
AcDbLine
 10
199.050000000
 20
117.214703904
 30
0.000000000
 11
196.933333333
 21
117.555777778
 31
0.000000000
  0
LINE
  5
A9A
330
A02
100
AcDbEntity
  8
CutProfile
100
AcDbLine
 10
196.933333333
 20
117.555777778
 30
0.000000000
 11
194.816666667
 21
117.779148349
 31
0.000000000
  0
LINE
  5
A9B
330
A02
100
AcDbEntity
  8
CutProfile
100
AcDbLine
 10
194.816666667
 20
117.779148349
 30
0.000000000
 11
192.700000000
 21
117.895117928
 31
0.000000000
  0
LINE
  5
A9C
330
A02
100
AcDbEntity
  8
CutProfile
100
AcDbLine
 10
192.700000000
 20
117.895117928
 30
0.000000000
 11
190.583333333
 21
117.933025016
 31
0.000000000
  0
LINE
  5
A9D
330
A02
100
AcDbEntity
  8
CutProfile
100
AcDbLine
 10
190.583333333
 20
117.933025016
 30
0.000000000
 11
188.466666667
 21
117.936777778
 31
0.000000000
  0
LINE
  5
A9E
330
A02
100
AcDbEntity
  8
CutProfile
100
AcDbLine
 10
188.466666667
 20
117.936777778
 30
0.000000000
 11
186.350000000
 21
117.958169429
 31
0.000000000
  0
LINE
  5
A9F
330
A02
100
AcDbEntity
  8
CutProfile
100
AcDbLine
 10
186.350000000
 20
117.958169429
 30
0.000000000
 11
184.233333333
 21
118.048993183
 31
0.000000000
  0
LINE
  5
AA0
330
A02
100
AcDbEntity
  8
CutProfile
100
AcDbLine
 10
184.233333333
 20
118.048993183
 30
0.000000000
 11
182.116666667
 21
118.253157207
 31
0.000000000
  0
LINE
  5
AA1
330
A02
100
AcDbEntity
  8
CutProfile
100
AcDbLine
 10
182.116666667
 20
118.253157207
 30
0.000000000
 11
180.000000000
 21
118.600000000
 31
0.000000000
  0
LINE
  5
AA2
330
A02
100
AcDbEntity
  8
CutProfile
100
AcDbLine
 10
180.000000000
 20
118.600000000
 30
0.000000000
 11
180.133681664
 21
119.129166667
 31
0.000000000
  0
LINE
  5
AA3
330
A02
100
AcDbEntity
  8
CutProfile
100
AcDbLine
 10
180.133681664
 20
119.129166667
 30
0.000000000
 11
180.271469173
 21
119.658333333
 31
0.000000000
  0
LINE
  5
AA4
330
A02
100
AcDbEntity
  8
CutProfile
100
AcDbLine
 10
180.271469173
 20
119.658333333
 30
0.000000000
 11
180.417370744
 21
120.187500000
 31
0.000000000
  0
LINE
  5
AA5
330
A02
100
AcDbEntity
  8
CutProfile
100
AcDbLine
 10
180.417370744
 20
120.187500000
 30
0.000000000
 11
180.575201124
 21
120.716666667
 31
0.000000000
  0
LINE
  5
AA6
330
A02
100
AcDbEntity
  8
CutProfile
100
AcDbLine
 10
180.575201124
 20
120.716666667
 30
0.000000000
 11
180.748489293
 21
121.245833333
 31
0.000000000
  0
LINE
  5
AA7
330
A02
100
AcDbEntity
  8
CutProfile
100
AcDbLine
 10
180.748489293
 20
121.245833333
 30
0.000000000
 11
180.940391408
 21
121.775000000
 31
0.000000000
  0
LINE
  5
AA8
330
A02
100
AcDbEntity
  8
CutProfile
100
AcDbLine
 10
180.940391408
 20
121.775000000
 30
0.000000000
 11
181.153610587
 21
122.304166667
 31
0.000000000
  0
LINE
  5
AA9
330
A02
100
AcDbEntity
  8
CutProfile
100
AcDbLine
 10
181.153610587
 20
122.304166667
 30
0.000000000
 11
181.390325022
 21
122.833333333
 31
0.000000000
  0
LINE
  5
AAA
330
A02
100
AcDbEntity
  8
CutProfile
100
AcDbLine
 10
181.390325022
 20
122.833333333
 30
0.000000000
 11
181.652125762
 21
123.362500000
 31
0.000000000
  0
LINE
  5
AAB
330
A02
100
AcDbEntity
  8
CutProfile
100
AcDbLine
 10
181.652125762
 20
123.362500000
 30
0.000000000
 11
181.939965330
 21
123.891666667
 31
0.000000000
  0
LINE
  5
AAC
330
A02
100
AcDbEntity
  8
CutProfile
100
AcDbLine
 10
181.939965330
 20
123.891666667
 30
0.000000000
 11
182.254118168
 21
124.420833333
 31
0.000000000
  0
LINE
  5
AAD
330
A02
100
AcDbEntity
  8
CutProfile
100
AcDbLine
 10
182.254118168
 20
124.420833333
 30
0.000000000
 11
182.594153673
 21
124.950000000
 31
0.000000000
  0
LINE
  5
AAE
330
A02
100
AcDbEntity
  8
CutProfile
100
AcDbLine
 10
182.594153673
 20
124.950000000
 30
0.000000000
 11
182.958922390
 21
125.479166667
 31
0.000000000
  0
LINE
  5
AAF
330
A02
100
AcDbEntity
  8
CutProfile
100
AcDbLine
 10
182.958922390
 20
125.479166667
 30
0.000000000
 11
183.346555694
 21
126.008333333
 31
0.000000000
  0
LINE
  5
AB0
330
A02
100
AcDbEntity
  8
CutProfile
100
AcDbLine
 10
183.346555694
 20
126.008333333
 30
0.000000000
 11
183.754479032
 21
126.537500000
 31
0.000000000
  0
LINE
  5
AB1
330
A02
100
AcDbEntity
  8
CutProfile
100
AcDbLine
 10
183.754479032
 20
126.537500000
 30
0.000000000
 11
184.179438599
 21
127.066666667
 31
0.000000000
  0
LINE
  5
AB2
330
A02
100
AcDbEntity
  8
CutProfile
100
AcDbLine
 10
184.179438599
 20
127.066666667
 30
0.000000000
 11
184.617541058
 21
127.595833333
 31
0.000000000
  0
LINE
  5
AB3
330
A02
100
AcDbEntity
  8
CutProfile
100
AcDbLine
 10
184.617541058
 20
127.595833333
 30
0.000000000
 11
185.064305691
 21
128.125000000
 31
0.000000000
  0
LINE
  5
AB4
330
A02
100
AcDbEntity
  8
CutProfile
100
AcDbLine
 10
185.064305691
 20
128.125000000
 30
0.000000000
 11
185.514728154
 21
128.654166667
 31
0.000000000
  0
LINE
  5
AB5
330
A02
100
AcDbEntity
  8
CutProfile
100
AcDbLine
 10
185.514728154
 20
128.654166667
 30
0.000000000
 11
185.963354796
 21
129.183333333
 31
0.000000000
  0
LINE
  5
AB6
330
A02
100
AcDbEntity
  8
CutProfile
100
AcDbLine
 10
185.963354796
 20
129.183333333
 30
0.000000000
 11
186.404366327
 21
129.712500000
 31
0.000000000
  0
LINE
  5
AB7
330
A02
100
AcDbEntity
  8
CutProfile
100
AcDbLine
 10
186.404366327
 20
129.712500000
 30
0.000000000
 11
186.831669432
 21
130.241666667
 31
0.000000000
  0
LINE
  5
AB8
330
A02
100
AcDbEntity
  8
CutProfile
100
AcDbLine
 10
186.831669432
 20
130.241666667
 30
0.000000000
 11
187.238994814
 21
130.770833333
 31
0.000000000
  0
LINE
  5
AB9
330
A02
100
AcDbEntity
  8
CutProfile
100
AcDbLine
 10
187.238994814
 20
130.770833333
 30
0.000000000
 11
187.620000000
 21
131.300000000
 31
0.000000000
  0
LINE
  5
ABA
330
A02
100
AcDbEntity
  8
CutProfile
100
AcDbLine
 10
187.620000000
 20
131.300000000
 30
0.000000000
 11
187.968375176
 21
131.829166667
 31
0.000000000
  0
LINE
  5
ABB
330
A02
100
AcDbEntity
  8
CutProfile
100
AcDbLine
 10
187.968375176
 20
131.829166667
 30
0.000000000
 11
188.277950256
 21
132.358333333
 31
0.000000000
  0
LINE
  5
ABC
330
A02
100
AcDbEntity
  8
CutProfile
100
AcDbLine
 10
188.277950256
 20
132.358333333
 30
0.000000000
 11
188.542801347
 21
132.887500000
 31
0.000000000
  0
LINE
  5
ABD
330
A02
100
AcDbEntity
  8
CutProfile
100
AcDbLine
 10
188.542801347
 20
132.887500000
 30
0.000000000
 11
188.757354796
 21
133.416666667
 31
0.000000000
  0
LINE
  5
ABE
330
A02
100
AcDbEntity
  8
CutProfile
100
AcDbLine
 10
188.757354796
 20
133.416666667
 30
0.000000000
 11
188.916487019
 21
133.945833333
 31
0.000000000
  0
LINE
  5
ABF
330
A02
100
AcDbEntity
  8
CutProfile
100
AcDbLine
 10
188.916487019
 20
133.945833333
 30
0.000000000
 11
189.015618384
 21
134.475000000
 31
0.000000000
  0
LINE
  5
AC0
330
A02
100
AcDbEntity
  8
CutProfile
100
AcDbLine
 10
189.015618384
 20
134.475000000
 30
0.000000000
 11
189.050799523
 21
135.004166667
 31
0.000000000
  0
LINE
  5
AC1
330
A02
100
AcDbEntity
  8
CutProfile
100
AcDbLine
 10
189.050799523
 20
135.004166667
 30
0.000000000
 11
189.018788555
 21
135.533333333
 31
0.000000000
  0
LINE
  5
AC2
330
A02
100
AcDbEntity
  8
CutProfile
100
AcDbLine
 10
189.018788555
 20
135.533333333
 30
0.000000000
 11
188.917117860
 21
136.062500000
 31
0.000000000
  0
LINE
  5
AC3
330
A02
100
AcDbEntity
  8
CutProfile
100
AcDbLine
 10
188.917117860
 20
136.062500000
 30
0.000000000
 11
188.744149212
 21
136.591666667
 31
0.000000000
  0
LINE
  5
AC4
330
A02
100
AcDbEntity
  8
CutProfile
100
AcDbLine
 10
188.744149212
 20
136.591666667
 30
0.000000000
 11
188.499116276
 21
137.120833333
 31
0.000000000
  0
LINE
  5
AC5
330
A02
100
AcDbEntity
  8
CutProfile
100
AcDbLine
 10
188.499116276
 20
137.120833333
 30
0.000000000
 11
188.182153673
 21
137.650000000
 31
0.000000000
  0
LINE
  5
AC6
330
A02
100
AcDbEntity
  8
CutProfile
100
AcDbLine
 10
188.182153673
 20
137.650000000
 30
0.000000000
 11
187.794312054
 21
138.179166667
 31
0.000000000
  0
LINE
  5
AC7
330
A02
100
AcDbEntity
  8
CutProfile
100
AcDbLine
 10
187.794312054
 20
138.179166667
 30
0.000000000
 11
187.337558848
 21
138.708333333
 31
0.000000000
  0
LINE
  5
AC8
330
A02
100
AcDbEntity
  8
CutProfile
100
AcDbLine
 10
187.337558848
 20
138.708333333
 30
0.000000000
 11
186.814764589
 21
139.237500000
 31
0.000000000
  0
LINE
  5
AC9
330
A02
100
AcDbEntity
  8
CutProfile
100
AcDbLine
 10
186.814764589
 20
139.237500000
 30
0.000000000
 11
186.229674978
 21
139.766666667
 31
0.000000000
  0
LINE
  5
ACA
330
A02
100
AcDbEntity
  8
CutProfile
100
AcDbLine
 10
186.229674978
 20
139.766666667
 30
0.000000000
 11
185.586869052
 21
140.295833333
 31
0.000000000
  0
LINE
  5
ACB
330
A02
100
AcDbEntity
  8
CutProfile
100
AcDbLine
 10
185.586869052
 20
140.295833333
 30
0.000000000
 11
184.891704101
 21
140.825000000
 31
0.000000000
  0
LINE
  5
ACC
330
A02
100
AcDbEntity
  8
CutProfile
100
AcDbLine
 10
184.891704101
 20
140.825000000
 30
0.000000000
 11
184.150248158
 21
141.354166667
 31
0.000000000
  0
LINE
  5
ACD
330
A02
100
AcDbEntity
  8
CutProfile
100
AcDbLine
 10
184.150248158
 20
141.354166667
 30
0.000000000
 11
183.369201124
 21
141.883333333
 31
0.000000000
  0
LINE
  5
ACE
330
A02
100
AcDbEntity
  8
CutProfile
100
AcDbLine
 10
183.369201124
 20
141.883333333
 30
0.000000000
 11
182.555805764
 21
142.412500000
 31
0.000000000
  0
LINE
  5
ACF
330
A02
100
AcDbEntity
  8
CutProfile
100
AcDbLine
 10
182.555805764
 20
142.412500000
 30
0.000000000
 11
181.928189339
 21
142.808790682
 31
0.000000000
  0
LINE
  5
AD0
330
A02
100
AcDbEntity
  8
CutProfile
100
AcDbLine
 10
173.100000000
 20
141.242640687
 30
0.000000000
 11
181.928189339
 21
142.808790682
 31
0.000000000
  0
LINE
  5
AD1
330
A02
100
AcDbEntity
  8
CutProfile
100
AcDbLine
 10
163.483333333
 20
137.783157153
 30
0.000000000
 11
173.100000000
 21
141.242640687
 31
0.000000000
  0
LINE
  5
AD2
330
A02
100
AcDbEntity
  8
CutProfile
100
AcDbLine
 10
153.866666667
 20
134.000000000
 30
0.000000000
 11
163.483333333
 21
137.783157153
 31
0.000000000
  0
LINE
  5
AD3
330
A02
100
AcDbEntity
  8
CutProfile
100
AcDbLine
 10
144.250000000
 20
131.456722805
 30
0.000000000
 11
153.866666667
 21
134.000000000
 31
0.000000000
  0
LINE
  5
AD4
330
A02
100
AcDbEntity
  8
CutProfile
100
AcDbLine
 10
134.633333333
 20
131.204445042
 30
0.000000000
 11
144.250000000
 21
131.456722805
 31
0.000000000
  0
LINE
  5
AD5
330
A02
100
AcDbEntity
  8
CutProfile
100
AcDbLine
 10
125.016666667
 20
133.347431426
 30
0.000000000
 11
134.633333333
 21
131.204445042
 31
0.000000000
  0
LINE
  5
AD6
330
A02
100
AcDbEntity
  8
CutProfile
100
AcDbLine
 10
105.783333333
 20
140.652568574
 30
0.000000000
 11
125.016666667
 21
133.347431426
 31
0.000000000
  0
LINE
  5
AD7
330
A02
100
AcDbEntity
  8
CutProfile
100
AcDbLine
 10
96.166666667
 20
142.795554958
 30
0.000000000
 11
105.783333333
 21
140.652568574
 31
0.000000000
  0
LINE
  5
AD8
330
A02
100
AcDbEntity
  8
CutProfile
100
AcDbLine
 10
86.550000000
 20
142.543277195
 30
0.000000000
 11
96.166666667
 21
142.795554958
 31
0.000000000
  0
LINE
  5
AD9
330
A02
100
AcDbEntity
  8
CutProfile
100
AcDbLine
 10
76.933333333
 20
140.000000000
 30
0.000000000
 11
86.550000000
 21
142.543277195
 31
0.000000000
  0
LINE
  5
ADA
330
A02
100
AcDbEntity
  8
CutProfile
100
AcDbLine
 10
67.316666667
 20
136.216842847
 30
0.000000000
 11
76.933333333
 21
140.000000000
 31
0.000000000
  0
LINE
  5
ADB
330
A02
100
AcDbEntity
  8
CutProfile
100
AcDbLine
 10
57.700000000
 20
132.757359313
 30
0.000000000
 11
67.316666667
 21
136.216842847
 31
0.000000000
  0
LINE
  5
ADC
330
A02
100
AcDbEntity
  8
CutProfile
100
AcDbLine
 10
48.083333333
 20
131.051330832
 30
0.000000000
 11
57.700000000
 21
132.757359313
 31
0.000000000
  0
LINE
  5
ADD
330
A02
100
AcDbEntity
  8
CutProfile
100
AcDbLine
 10
38.466666667
 20
131.803847577
 30
0.000000000
 11
48.083333333
 21
131.051330832
 31
0.000000000
  0
LINE
  5
ADE
330
A02
100
AcDbEntity
  8
CutProfile
100
AcDbLine
 10
28.850000000
 20
134.703899406
 30
0.000000000
 11
38.466666667
 21
131.803847577
 31
0.000000000
  0
LINE
  5
ADF
330
A02
100
AcDbEntity
  8
CutProfile
100
AcDbLine
 10
19.233333333
 20
138.552914271
 30
0.000000000
 11
28.850000000
 21
134.703899406
 31
0.000000000
  0
LINE
  5
AE0
330
A02
100
AcDbEntity
  8
CutProfile
100
AcDbLine
 10
9.616666667
 20
141.760120042
 30
0.000000000
 11
19.233333333
 21
138.552914271
 31
0.000000000
  0
LINE
  5
AE1
330
A02
100
AcDbEntity
  8
CutProfile
100
AcDbLine
 10
0.000000000
 20
143.000000000
 30
0.000000000
 11
9.616666667
 21
141.760120042
 31
0.000000000
  0
LINE
  5
AE2
330
A02
100
AcDbEntity
  8
CutProfile
100
AcDbLine
 10
0.498589062
 20
140.020833333
 30
0.000000000
 11
0.000000000
 21
143.000000000
 31
0.000000000
  0
LINE
  5
AE3
330
A02
100
AcDbEntity
  8
CutProfile
100
AcDbLine
 10
1.918450583
 20
137.041666667
 30
0.000000000
 11
0.498589062
 21
140.020833333
 31
0.000000000
  0
LINE
  5
AE4
330
A02
100
AcDbEntity
  8
CutProfile
100
AcDbLine
 10
4.043423518
 20
134.062500000
 30
0.000000000
 11
1.918450583
 21
137.041666667
 31
0.000000000
  0
LINE
  5
AE5
330
A02
100
AcDbEntity
  8
CutProfile
100
AcDbLine
 10
9.056576482
 20
128.104166667
 30
0.000000000
 11
4.043423518
 21
134.062500000
 31
0.000000000
  0
LINE
  5
AE6
330
A02
100
AcDbEntity
  8
CutProfile
100
AcDbLine
 10
11.181549417
 20
125.125000000
 30
0.000000000
 11
9.056576482
 21
128.104166667
 31
0.000000000
  0
LINE
  5
AE7
330
A02
100
AcDbEntity
  8
CutProfile
100
AcDbLine
 10
12.601410938
 20
122.145833333
 30
0.000000000
 11
11.181549417
 21
125.125000000
 31
0.000000000
  0
LINE
  5
AE8
330
A02
100
AcDbEntity
  8
CutProfile
100
AcDbLine
 10
13.100000000
 20
119.166666667
 30
0.000000000
 11
12.601410938
 21
122.145833333
 31
0.000000000
  0
LINE
  5
AE9
330
A02
100
AcDbEntity
  8
CutProfile
100
AcDbLine
 10
12.601410938
 20
116.187500000
 30
0.000000000
 11
13.100000000
 21
119.166666667
 31
0.000000000
  0
LINE
  5
AEA
330
A02
100
AcDbEntity
  8
CutProfile
100
AcDbLine
 10
11.181549417
 20
113.208333333
 30
0.000000000
 11
12.601410938
 21
116.187500000
 31
0.000000000
  0
LINE
  5
AEB
330
A02
100
AcDbEntity
  8
CutProfile
100
AcDbLine
 10
9.056576482
 20
110.229166667
 30
0.000000000
 11
11.181549417
 21
113.208333333
 31
0.000000000
  0
LINE
  5
AEC
330
A02
100
AcDbEntity
  8
CutProfile
100
AcDbLine
 10
4.043423518
 20
104.270833333
 30
0.000000000
 11
9.056576482
 21
110.229166667
 31
0.000000000
  0
LINE
  5
AED
330
A02
100
AcDbEntity
  8
CutProfile
100
AcDbLine
 10
1.918450583
 20
101.291666667
 30
0.000000000
 11
4.043423518
 21
104.270833333
 31
0.000000000
  0
LINE
  5
AEE
330
A02
100
AcDbEntity
  8
CutProfile
100
AcDbLine
 10
0.498589062
 20
98.312500000
 30
0.000000000
 11
1.918450583
 21
101.291666667
 31
0.000000000
  0
LINE
  5
AEF
330
A02
100
AcDbEntity
  8
CutProfile
100
AcDbLine
 10
0.000000000
 20
95.333333333
 30
0.000000000
 11
0.498589062
 21
98.312500000
 31
0.000000000
  0
LINE
  5
AF0
330
A02
100
AcDbEntity
  8
CutProfile
100
AcDbLine
 10
0.205539111
 20
92.354166667
 30
0.000000000
 11
0.000000000
 21
95.333333333
 31
0.000000000
  0
LINE
  5
AF1
330
A02
100
AcDbEntity
  8
CutProfile
100
AcDbLine
 10
0.318539932
 20
89.375000000
 30
0.000000000
 11
0.205539111
 21
92.354166667
 31
0.000000000
  0
LINE
  5
AF2
330
A02
100
AcDbEntity
  8
CutProfile
100
AcDbLine
 10
0.120876127
 20
86.395833333
 30
0.000000000
 11
0.318539932
 21
89.375000000
 31
0.000000000
  0
LINE
  5
AF3
330
A02
100
AcDbEntity
  8
CutProfile
100
AcDbLine
 10
0.000000000
 20
83.416666667
 30
0.000000000
 11
0.120876127
 21
86.395833333
 31
0.000000000
  0
LINE
  5
AF4
330
A02
100
AcDbEntity
  8
CutProfile
100
AcDbLine
 10
0.000000000
 20
59.583333333
 30
0.000000000
 11
0.000000000
 21
83.416666667
 31
0.000000000
  0
LINE
  5
AF5
330
A02
100
AcDbEntity
  8
CutProfile
100
AcDbLine
 10
0.120876127
 20
56.604166667
 30
0.000000000
 11
0.000000000
 21
59.583333333
 31
0.000000000
  0
LINE
  5
AF6
330
A02
100
AcDbEntity
  8
CutProfile
100
AcDbLine
 10
0.318539932
 20
53.625000000
 30
0.000000000
 11
0.120876127
 21
56.604166667
 31
0.000000000
  0
LINE
  5
AF7
330
A02
100
AcDbEntity
  8
CutProfile
100
AcDbLine
 10
0.205539111
 20
50.645833333
 30
0.000000000
 11
0.318539932
 21
53.625000000
 31
0.000000000
  0
LINE
  5
AF8
330
A02
100
AcDbEntity
  8
CutProfile
100
AcDbLine
 10
0.000000000
 20
47.666666667
 30
0.000000000
 11
0.205539111
 21
50.645833333
 31
0.000000000
  0
LINE
  5
AF9
330
A02
100
AcDbEntity
  8
CutProfile
100
AcDbLine
 10
0.498589062
 20
44.687500000
 30
0.000000000
 11
0.000000000
 21
47.666666667
 31
0.000000000
  0
LINE
  5
AFA
330
A02
100
AcDbEntity
  8
CutProfile
100
AcDbLine
 10
1.918450583
 20
41.708333333
 30
0.000000000
 11
0.498589062
 21
44.687500000
 31
0.000000000
  0
LINE
  5
AFB
330
A02
100
AcDbEntity
  8
CutProfile
100
AcDbLine
 10
4.043423518
 20
38.729166667
 30
0.000000000
 11
1.918450583
 21
41.708333333
 31
0.000000000
  0
LINE
  5
AFC
330
A02
100
AcDbEntity
  8
CutProfile
100
AcDbLine
 10
9.056576482
 20
32.770833333
 30
0.000000000
 11
4.043423518
 21
38.729166667
 31
0.000000000
  0
LINE
  5
AFD
330
A02
100
AcDbEntity
  8
CutProfile
100
AcDbLine
 10
11.181549417
 20
29.791666667
 30
0.000000000
 11
9.056576482
 21
32.770833333
 31
0.000000000
  0
LINE
  5
AFE
330
A02
100
AcDbEntity
  8
CutProfile
100
AcDbLine
 10
12.601410938
 20
26.812500000
 30
0.000000000
 11
11.181549417
 21
29.791666667
 31
0.000000000
  0
LINE
  5
AFF
330
A02
100
AcDbEntity
  8
CutProfile
100
AcDbLine
 10
13.100000000
 20
23.833333333
 30
0.000000000
 11
12.601410938
 21
26.812500000
 31
0.000000000
  0
LINE
  5
B00
330
A02
100
AcDbEntity
  8
CutProfile
100
AcDbLine
 10
13.100000000
 20
30.750000000
 30
0.000000000
 11
13.100000000
 21
23.833333333
 31
0.000000000
  0
LINE
  5
B01
330
A02
100
AcDbEntity
  8
CutProfile
100
AcDbLine
 10
24.700000000
 20
30.750000000
 30
0.000000000
 11
13.100000000
 21
30.750000000
 31
0.000000000
  0
LINE
  5
B02
330
A02
100
AcDbEntity
  8
CutProfile
100
AcDbLine
 10
24.700000000
 20
30.750000000
 30
0.000000000
 11
24.700000000
 21
18.250000000
 31
0.000000000
  0
LINE
  5
B03
330
A02
100
AcDbEntity
  8
CutProfile
100
AcDbLine
 10
13.100000000
 20
18.250000000
 30
0.000000000
 11
24.700000000
 21
18.250000000
 31
0.000000000
  0
LINE
  5
B04
330
A02
100
AcDbEntity
  8
CutProfile
100
AcDbLine
 10
13.100000000
 20
23.833333333
 30
0.000000000
 11
13.100000000
 21
18.250000000
 31
0.000000000
  0
LINE
  5
B05
330
A02
100
AcDbEntity
  8
CutProfile
100
AcDbLine
 10
12.601410938
 20
20.854166667
 30
0.000000000
 11
13.100000000
 21
23.833333333
 31
0.000000000
  0
LINE
  5
B06
330
A02
100
AcDbEntity
  8
CutProfile
100
AcDbLine
 10
11.181549417
 20
17.875000000
 30
0.000000000
 11
12.601410938
 21
20.854166667
 31
0.000000000
  0
LINE
  5
B07
330
A02
100
AcDbEntity
  8
CutProfile
100
AcDbLine
 10
9.056576482
 20
14.895833333
 30
0.000000000
 11
11.181549417
 21
17.875000000
 31
0.000000000
  0
LINE
  5
B08
330
A02
100
AcDbEntity
  8
CutProfile
100
AcDbLine
 10
4.043423518
 20
8.937500000
 30
0.000000000
 11
9.056576482
 21
14.895833333
 31
0.000000000
  0
LINE
  5
B09
330
A02
100
AcDbEntity
  8
CutProfile
100
AcDbLine
 10
1.918450583
 20
5.958333333
 30
0.000000000
 11
4.043423518
 21
8.937500000
 31
0.000000000
  0
LINE
  5
B0A
330
A02
100
AcDbEntity
  8
CutProfile
100
AcDbLine
 10
0.498589062
 20
2.979166667
 30
0.000000000
 11
1.918450583
 21
5.958333333
 31
0.000000000
  0
LINE
  5
B0B
330
A02
100
AcDbEntity
  8
CutProfile
100
AcDbLine
 10
0.000000000
 20
0.000000000
 30
0.000000000
 11
0.498589062
 21
2.979166667
 31
0.000000000
  0
LINE
  5
B0C
330
A02
100
AcDbEntity
  8
CutProfile
100
AcDbLine
 10
9.616666667
 20
1.239879958
 30
0.000000000
 11
0.000000000
 21
0.000000000
 31
0.000000000
  0
LINE
  5
B0D
330
A02
100
AcDbEntity
  8
CutProfile
100
AcDbLine
 10
19.233333333
 20
4.447085729
 30
0.000000000
 11
9.616666667
 21
1.239879958
 31
0.000000000
  0
LINE
  5
B0E
330
A02
100
AcDbEntity
  8
CutProfile
100
AcDbLine
 10
28.850000000
 20
8.296100594
 30
0.000000000
 11
19.233333333
 21
4.447085729
 31
0.000000000
  0
LINE
  5
B0F
330
A02
100
AcDbEntity
  8
CutProfile
100
AcDbLine
 10
38.466666667
 20
11.196152423
 30
0.000000000
 11
28.850000000
 21
8.296100594
 31
0.000000000
  0
LINE
  5
B10
330
A02
100
AcDbEntity
  8
CutProfile
100
AcDbLine
 10
48.083333333
 20
11.948669168
 30
0.000000000
 11
38.466666667
 21
11.196152423
 31
0.000000000
  0
LINE
  5
B11
330
A02
100
AcDbEntity
  8
CutProfile
100
AcDbLine
 10
57.700000000
 20
10.242640687
 30
0.000000000
 11
48.083333333
 21
11.948669168
 31
0.000000000
  0
LINE
  5
B12
330
A02
100
AcDbEntity
  8
CutProfile
100
AcDbLine
 10
67.316666667
 20
6.783157153
 30
0.000000000
 11
57.700000000
 21
10.242640687
 31
0.000000000
  0
LINE
  5
B13
330
A02
100
AcDbEntity
  8
CutProfile
100
AcDbLine
 10
76.933333333
 20
3.000000000
 30
0.000000000
 11
67.316666667
 21
6.783157153
 31
0.000000000
  0
LINE
  5
B14
330
A02
100
AcDbEntity
  8
CutProfile
100
AcDbLine
 10
86.550000000
 20
0.456722805
 30
0.000000000
 11
76.933333333
 21
3.000000000
 31
0.000000000
  0
LINE
  5
B15
330
A02
100
AcDbEntity
  8
CutProfile
100
AcDbLine
 10
96.166666667
 20
0.204445042
 30
0.000000000
 11
86.550000000
 21
0.456722805
 31
0.000000000
  0
LINE
  5
B16
330
A02
100
AcDbEntity
  8
CutProfile
100
AcDbLine
 10
105.783333333
 20
2.347431426
 30
0.000000000
 11
96.166666667
 21
0.204445042
 31
0.000000000
  0
LINE
  5
B17
330
A02
100
AcDbEntity
  8
CutProfile
100
AcDbLine
 10
125.016666667
 20
9.652568574
 30
0.000000000
 11
105.783333333
 21
2.347431426
 31
0.000000000
  0
LINE
  5
B18
330
A02
100
AcDbEntity
  8
CutProfile
100
AcDbLine
 10
134.633333333
 20
11.795554958
 30
0.000000000
 11
125.016666667
 21
9.652568574
 31
0.000000000
  0
LINE
  5
B19
330
A02
100
AcDbEntity
  8
CutProfile
100
AcDbLine
 10
144.250000000
 20
11.543277195
 30
0.000000000
 11
134.633333333
 21
11.795554958
 31
0.000000000
  0
LINE
  5
B1A
330
A02
100
AcDbEntity
  8
CutProfile
100
AcDbLine
 10
153.866666667
 20
9.000000000
 30
0.000000000
 11
144.250000000
 21
11.543277195
 31
0.000000000
  0
LINE
  5
B1B
330
A02
100
AcDbEntity
  8
CutProfile
100
AcDbLine
 10
163.483333333
 20
5.216842847
 30
0.000000000
 11
153.866666667
 21
9.000000000
 31
0.000000000
  0
LINE
  5
B1C
330
A02
100
AcDbEntity
  8
CutProfile
100
AcDbLine
 10
173.100000000
 20
1.757359313
 30
0.000000000
 11
163.483333333
 21
5.216842847
 31
0.000000000
  0
LINE
  5
B1D
330
A02
100
AcDbEntity
  8
CutProfile
100
AcDbLine
 10
182.716666667
 20
0.051330832
 30
0.000000000
 11
173.100000000
 21
1.757359313
 31
0.000000000
  0
LINE
  5
B1E
330
A02
100
AcDbEntity
  8
CutProfile
100
AcDbLine
 10
192.333333333
 20
0.803847577
 30
0.000000000
 11
182.716666667
 21
0.051330832
 31
0.000000000
  0
LINE
  5
B1F
330
A02
100
AcDbEntity
  8
CutProfile
100
AcDbLine
 10
201.950000000
 20
3.703899406
 30
0.000000000
 11
192.333333333
 21
0.803847577
 31
0.000000000
  0
LINE
  5
B20
330
A02
100
AcDbEntity
  8
CutProfile
100
AcDbLine
 10
211.566666667
 20
7.552914271
 30
0.000000000
 11
201.950000000
 21
3.703899406
 31
0.000000000
  0
LINE
  5
B21
330
A02
100
AcDbEntity
  8
CutProfile
100
AcDbLine
 10
221.183333333
 20
10.760120042
 30
0.000000000
 11
211.566666667
 21
7.552914271
 31
0.000000000
  0
LINE
  5
B22
330
A02
100
AcDbEntity
  8
CutProfile
100
AcDbLine
 10
230.800000000
 20
12.000000000
 30
0.000000000
 11
221.183333333
 21
10.760120042
 31
0.000000000
  0
LINE
  5
B23
330
A02
100
AcDbEntity
  8
CutProfile
100
AcDbLine
 10
240.416666667
 20
10.760120042
 30
0.000000000
 11
230.800000000
 21
12.000000000
 31
0.000000000
  0
LINE
  5
B24
330
A02
100
AcDbEntity
  8
CutProfile
100
AcDbLine
 10
250.033333333
 20
7.552914271
 30
0.000000000
 11
240.416666667
 21
10.760120042
 31
0.000000000
  0
LINE
  5
B25
330
A02
100
AcDbEntity
  8
CutProfile
100
AcDbLine
 10
259.650000000
 20
3.703899406
 30
0.000000000
 11
250.033333333
 21
7.552914271
 31
0.000000000
  0
LINE
  5
B26
330
A02
100
AcDbEntity
  8
CutProfile
100
AcDbLine
 10
269.266666667
 20
0.803847577
 30
0.000000000
 11
259.650000000
 21
3.703899406
 31
0.000000000
  0
LINE
  5
B27
330
A02
100
AcDbEntity
  8
CutProfile
100
AcDbLine
 10
278.883333333
 20
0.051330832
 30
0.000000000
 11
269.266666667
 21
0.803847577
 31
0.000000000
  0
LINE
  5
B28
330
A02
100
AcDbEntity
  8
CutProfile
100
AcDbLine
 10
288.500000000
 20
1.757359313
 30
0.000000000
 11
278.883333333
 21
0.051330832
 31
0.000000000
  0
LINE
  5
B29
330
A02
100
AcDbEntity
  8
CutProfile
100
AcDbLine
 10
298.116666667
 20
5.216842847
 30
0.000000000
 11
288.500000000
 21
1.757359313
 31
0.000000000
  0
LINE
  5
B2A
330
A02
100
AcDbEntity
  8
CutProfile
100
AcDbLine
 10
307.733333333
 20
9.000000000
 30
0.000000000
 11
298.116666667
 21
5.216842847
 31
0.000000000
  0
LINE
  5
B2B
330
A02
100
AcDbEntity
  8
CutProfile
100
AcDbLine
 10
317.350000000
 20
11.543277195
 30
0.000000000
 11
307.733333333
 21
9.000000000
 31
0.000000000
  0
LINE
  5
B2C
330
A02
100
AcDbEntity
  8
CutProfile
100
AcDbLine
 10
326.966666667
 20
11.795554958
 30
0.000000000
 11
317.350000000
 21
11.543277195
 31
0.000000000
  0
LINE
  5
B2D
330
A02
100
AcDbEntity
  8
CutProfile
100
AcDbLine
 10
336.583333333
 20
9.652568574
 30
0.000000000
 11
326.966666667
 21
11.795554958
 31
0.000000000
  0
LINE
  5
B2E
330
A02
100
AcDbEntity
  8
CutProfile
100
AcDbLine
 10
355.816666667
 20
2.347431426
 30
0.000000000
 11
336.583333333
 21
9.652568574
 31
0.000000000
  0
LINE
  5
B2F
330
A02
100
AcDbEntity
  8
CutProfile
100
AcDbLine
 10
365.433333333
 20
0.204445042
 30
0.000000000
 11
355.816666667
 21
2.347431426
 31
0.000000000
  0
LINE
  5
B30
330
A02
100
AcDbEntity
  8
CutProfile
100
AcDbLine
 10
375.050000000
 20
0.456722805
 30
0.000000000
 11
365.433333333
 21
0.204445042
 31
0.000000000
  0
LINE
  5
B31
330
A02
100
AcDbEntity
  8
CutProfile
100
AcDbLine
 10
384.666666667
 20
3.000000000
 30
0.000000000
 11
375.050000000
 21
0.456722805
 31
0.000000000
  0
LINE
  5
B32
330
A02
100
AcDbEntity
  8
CutProfile
100
AcDbLine
 10
394.283333333
 20
6.783157153
 30
0.000000000
 11
384.666666667
 21
3.000000000
 31
0.000000000
  0
LINE
  5
B33
330
A02
100
AcDbEntity
  8
CutProfile
100
AcDbLine
 10
403.900000000
 20
10.242640687
 30
0.000000000
 11
394.283333333
 21
6.783157153
 31
0.000000000
  0
LINE
  5
B34
330
A02
100
AcDbEntity
  8
CutProfile
100
AcDbLine
 10
413.516666667
 20
11.948669168
 30
0.000000000
 11
403.900000000
 21
10.242640687
 31
0.000000000
  0
LINE
  5
B35
330
A02
100
AcDbEntity
  8
CutProfile
100
AcDbLine
 10
423.133333333
 20
11.196152423
 30
0.000000000
 11
413.516666667
 21
11.948669168
 31
0.000000000
  0
LINE
  5
B36
330
A02
100
AcDbEntity
  8
CutProfile
100
AcDbLine
 10
432.750000000
 20
8.296100594
 30
0.000000000
 11
423.133333333
 21
11.196152423
 31
0.000000000
  0
LINE
  5
B37
330
A02
100
AcDbEntity
  8
CutProfile
100
AcDbLine
 10
442.366666667
 20
4.447085729
 30
0.000000000
 11
432.750000000
 21
8.296100594
 31
0.000000000
  0
LINE
  5
B38
330
A02
100
AcDbEntity
  8
CutProfile
100
AcDbLine
 10
451.983333333
 20
1.239879958
 30
0.000000000
 11
442.366666667
 21
4.447085729
 31
0.000000000
  0
LINE
  5
B39
330
A02
100
AcDbEntity
  8
CutProfile
100
AcDbLine
 10
461.600000000
 20
0.000000000
 30
0.000000000
 11
451.983333333
 21
1.239879958
 31
0.000000000
  0
LINE
  5
B3A
330
A02
100
AcDbEntity
  8
CutProfile
100
AcDbLine
 10
359.612500000
 20
24.700000000
 30
0.000000000
 11
359.612500000
 21
30.500000000
 31
0.000000000
  0
LINE
  5
B3B
330
A02
100
AcDbEntity
  8
CutProfile
100
AcDbLine
 10
359.612500000
 20
30.500000000
 30
0.000000000
 11
411.137500000
 21
30.500000000
 31
0.000000000
  0
LINE
  5
B3C
330
A02
100
AcDbEntity
  8
CutProfile
100
AcDbLine
 10
411.137500000
 20
30.500000000
 30
0.000000000
 11
411.137500000
 21
24.700000000
 31
0.000000000
  0
LINE
  5
B3D
330
A02
100
AcDbEntity
  8
CutProfile
100
AcDbLine
 10
411.137500000
 20
24.700000000
 30
0.000000000
 11
359.612500000
 21
24.700000000
 31
0.000000000
  0
LINE
  5
B3E
330
A02
100
AcDbEntity
  8
CutProfile
100
AcDbLine
 10
448.500000000
 20
55.750000000
 30
0.000000000
 11
436.900000000
 21
55.750000000
 31
0.000000000
  0
LINE
  5
B3F
330
A02
100
AcDbEntity
  8
CutProfile
100
AcDbLine
 10
448.500000000
 20
55.750000000
 30
0.000000000
 11
448.500000000
 21
43.250000000
 31
0.000000000
  0
LINE
  5
B40
330
A02
100
AcDbEntity
  8
CutProfile
100
AcDbLine
 10
436.900000000
 20
43.250000000
 30
0.000000000
 11
448.500000000
 21
43.250000000
 31
0.000000000
  0
LINE
  5
B41
330
A02
100
AcDbEntity
  8
CutProfile
100
AcDbLine
 10
436.900000000
 20
43.250000000
 30
0.000000000
 11
436.900000000
 21
55.750000000
 31
0.000000000
  0
LINE
  5
B42
330
A02
100
AcDbEntity
  8
CutProfile
100
AcDbLine
 10
256.562500000
 20
24.700000000
 30
0.000000000
 11
256.562500000
 21
30.500000000
 31
0.000000000
  0
LINE
  5
B43
330
A02
100
AcDbEntity
  8
CutProfile
100
AcDbLine
 10
256.562500000
 20
30.500000000
 30
0.000000000
 11
308.087500000
 21
30.500000000
 31
0.000000000
  0
LINE
  5
B44
330
A02
100
AcDbEntity
  8
CutProfile
100
AcDbLine
 10
308.087500000
 20
30.500000000
 30
0.000000000
 11
308.087500000
 21
24.700000000
 31
0.000000000
  0
LINE
  5
B45
330
A02
100
AcDbEntity
  8
CutProfile
100
AcDbLine
 10
308.087500000
 20
24.700000000
 30
0.000000000
 11
256.562500000
 21
24.700000000
 31
0.000000000
  0
LINE
  5
B46
330
A02
100
AcDbEntity
  8
CutProfile
100
AcDbLine
 10
448.500000000
 20
80.750000000
 30
0.000000000
 11
436.900000000
 21
80.750000000
 31
0.000000000
  0
LINE
  5
B47
330
A02
100
AcDbEntity
  8
CutProfile
100
AcDbLine
 10
448.500000000
 20
80.750000000
 30
0.000000000
 11
448.500000000
 21
68.250000000
 31
0.000000000
  0
LINE
  5
B48
330
A02
100
AcDbEntity
  8
CutProfile
100
AcDbLine
 10
436.900000000
 20
68.250000000
 30
0.000000000
 11
448.500000000
 21
68.250000000
 31
0.000000000
  0
LINE
  5
B49
330
A02
100
AcDbEntity
  8
CutProfile
100
AcDbLine
 10
436.900000000
 20
68.250000000
 30
0.000000000
 11
436.900000000
 21
80.750000000
 31
0.000000000
  0
LINE
  5
B4A
330
A02
100
AcDbEntity
  8
CutProfile
100
AcDbLine
 10
448.500000000
 20
105.750000000
 30
0.000000000
 11
436.900000000
 21
105.750000000
 31
0.000000000
  0
LINE
  5
B4B
330
A02
100
AcDbEntity
  8
CutProfile
100
AcDbLine
 10
448.500000000
 20
105.750000000
 30
0.000000000
 11
448.500000000
 21
93.250000000
 31
0.000000000
  0
LINE
  5
B4C
330
A02
100
AcDbEntity
  8
CutProfile
100
AcDbLine
 10
436.900000000
 20
93.250000000
 30
0.000000000
 11
448.500000000
 21
93.250000000
 31
0.000000000
  0
LINE
  5
B4D
330
A02
100
AcDbEntity
  8
CutProfile
100
AcDbLine
 10
436.900000000
 20
93.250000000
 30
0.000000000
 11
436.900000000
 21
105.750000000
 31
0.000000000
  0
CIRCLE
  5
B4E
330
A02
100
AcDbEntity
  8
CutProfile
100
AcDbCircle
 10
392.400000000
 20
71.500000000
 30
0.000000000
 40
3.000000000
  0
LINE
  5
B4F
330
A02
100
AcDbEntity
  8
CutProfile
100
AcDbLine
 10
153.512500000
 20
24.700000000
 30
0.000000000
 11
153.512500000
 21
30.500000000
 31
0.000000000
  0
LINE
  5
B50
330
A02
100
AcDbEntity
  8
CutProfile
100
AcDbLine
 10
153.512500000
 20
30.500000000
 30
0.000000000
 11
205.037500000
 21
30.500000000
 31
0.000000000
  0
LINE
  5
B51
330
A02
100
AcDbEntity
  8
CutProfile
100
AcDbLine
 10
205.037500000
 20
30.500000000
 30
0.000000000
 11
205.037500000
 21
24.700000000
 31
0.000000000
  0
LINE
  5
B52
330
A02
100
AcDbEntity
  8
CutProfile
100
AcDbLine
 10
205.037500000
 20
24.700000000
 30
0.000000000
 11
153.512500000
 21
24.700000000
 31
0.000000000
  0
LINE
  5
B53
330
A02
100
AcDbEntity
  8
CutProfile
100
AcDbLine
 10
50.462500000
 20
24.700000000
 30
0.000000000
 11
50.462500000
 21
30.500000000
 31
0.000000000
  0
LINE
  5
B54
330
A02
100
AcDbEntity
  8
CutProfile
100
AcDbLine
 10
50.462500000
 20
30.500000000
 30
0.000000000
 11
101.987500000
 21
30.500000000
 31
0.000000000
  0
LINE
  5
B55
330
A02
100
AcDbEntity
  8
CutProfile
100
AcDbLine
 10
101.987500000
 20
30.500000000
 30
0.000000000
 11
101.987500000
 21
24.700000000
 31
0.000000000
  0
LINE
  5
B56
330
A02
100
AcDbEntity
  8
CutProfile
100
AcDbLine
 10
101.987500000
 20
24.700000000
 30
0.000000000
 11
50.462500000
 21
24.700000000
 31
0.000000000
  0
LINE
  5
B57
330
A02
100
AcDbEntity
  8
CutProfile
100
AcDbLine
 10
24.700000000
 20
55.750000000
 30
0.000000000
 11
13.100000000
 21
55.750000000
 31
0.000000000
  0
LINE
  5
B58
330
A02
100
AcDbEntity
  8
CutProfile
100
AcDbLine
 10
24.700000000
 20
55.750000000
 30
0.000000000
 11
24.700000000
 21
43.250000000
 31
0.000000000
  0
LINE
  5
B59
330
A02
100
AcDbEntity
  8
CutProfile
100
AcDbLine
 10
13.100000000
 20
43.250000000
 30
0.000000000
 11
24.700000000
 21
43.250000000
 31
0.000000000
  0
LINE
  5
B5A
330
A02
100
AcDbEntity
  8
CutProfile
100
AcDbLine
 10
13.100000000
 20
43.250000000
 30
0.000000000
 11
13.100000000
 21
55.750000000
 31
0.000000000
  0
CIRCLE
  5
B5B
330
A02
100
AcDbEntity
  8
CutProfile
100
AcDbCircle
 10
69.200000000
 20
71.500000000
 30
0.000000000
 40
3.000000000
  0
LINE
  5
B5C
330
A02
100
AcDbEntity
  8
CutProfile
100
AcDbLine
 10
24.700000000
 20
80.750000000
 30
0.000000000
 11
13.100000000
 21
80.750000000
 31
0.000000000
  0
LINE
  5
B5D
330
A02
100
AcDbEntity
  8
CutProfile
100
AcDbLine
 10
24.700000000
 20
80.750000000
 30
0.000000000
 11
24.700000000
 21
68.250000000
 31
0.000000000
  0
LINE
  5
B5E
330
A02
100
AcDbEntity
  8
CutProfile
100
AcDbLine
 10
13.100000000
 20
68.250000000
 30
0.000000000
 11
24.700000000
 21
68.250000000
 31
0.000000000
  0
LINE
  5
B5F
330
A02
100
AcDbEntity
  8
CutProfile
100
AcDbLine
 10
13.100000000
 20
68.250000000
 30
0.000000000
 11
13.100000000
 21
80.750000000
 31
0.000000000
  0
LINE
  5
B60
330
A02
100
AcDbEntity
  8
CutProfile
100
AcDbLine
 10
24.700000000
 20
105.750000000
 30
0.000000000
 11
13.100000000
 21
105.750000000
 31
0.000000000
  0
LINE
  5
B61
330
A02
100
AcDbEntity
  8
CutProfile
100
AcDbLine
 10
24.700000000
 20
105.750000000
 30
0.000000000
 11
24.700000000
 21
93.250000000
 31
0.000000000
  0
LINE
  5
B62
330
A02
100
AcDbEntity
  8
CutProfile
100
AcDbLine
 10
13.100000000
 20
93.250000000
 30
0.000000000
 11
24.700000000
 21
93.250000000
 31
0.000000000
  0
LINE
  5
B63
330
A02
100
AcDbEntity
  8
CutProfile
100
AcDbLine
 10
13.100000000
 20
93.250000000
 30
0.000000000
 11
13.100000000
 21
105.750000000
 31
0.000000000
  0
ENDSEC
  0
SECTION
  2
OBJECTS
  0
DICTIONARY
  5
F000
330
0
100
AcDbDictionary
  3
ACAD_GROUP
350
F001
  0
DICTIONARY
  5
F001
330
F000
100
AcDbDictionary
  0
ENDSEC
  0
EOF