999
FreeCAD v1.1 20260725 (Git shallow)
  0
SECTION
  2
HEADER
  9
$ACADVER
  1
AC1014
  9
$ACADMAINTVER
 70
     9
  9
$DWGCODEPAGE
  3
ANSI_1252
  9
$TEXTSTYLE
  7
STANDARD
  9
$DIMSTYLE
  2
STANDARD
  9
$DIMTXSTY
  7
STANDARD
  9
$CMLSTYLE
  2
STANDARD
  9
$LUNITS
 70
2
  9
$INSUNITS
 70
4
  9
$PEXTMAX
 10
50
 20
50
 30
50
  9
$PEXTMIN
 10
0
 20
0
 30
0
  9
$HANDSEED
  5
FFFF
  0
ENDSEC
  0
SECTION
  2
CLASSES
  0
CLASS
  1
ACDBDICTIONARYWDFLT
  2
AcDbDictionaryWithDefault
  3
ObjectDBX Classes
 90
        0
280
     0
281
     0
  0
CLASS
  1
XRECORD
  2
AcDbXrecord
  3
ObjectDBX Classes
 90
        0
280
     0
281
     0
  0
CLASS
  1
LWPOLYLINE
  2
AcDbPolyline
  3
ObjectDBX Classes
 90
        0
280
     0
281
     1
  0
ENDSEC
  0
SECTION
  2
TABLES
  0
TABLE
  2
VPORT
  5
20
330
0
100
AcDbSymbolTable
 70
     1
  0
VPORT
  5
21
330
20
100
AcDbSymbolTableRecord
100
AcDbViewportTableRecord
  2
*ACTIVE
 70
     0
  0
ENDTAB
  0
TABLE
  2
LTYPE
  5
22
330
0
100
AcDbSymbolTable
 70
     1
  0
LTYPE
  5
23
330
21
100
AcDbSymbolTableRecord
100
AcDbLinetypeTableRecord
  2
BYBLOCK
 70
     0
  3

 72
    65
 73
     0
 40
0.0
  0
LTYPE
  5
24
330
21
100
AcDbSymbolTableRecord
100
AcDbLinetypeTableRecord
  2
BYLAYER
 70
     0
  3

 72
    65
 73
     0
 40
0.0
  0
LTYPE
  5
25
330
21
100
AcDbSymbolTableRecord
100
AcDbLinetypeTableRecord
  2
CONTINUOUS
 70
     0
  3
Solid line
 72
    65
 73
     0
 40
0.0
  0
ENDTAB
  0
TABLE
  2
LAYER
  5
B7E
330
0
100
AcDbSymbolTable
 70
3
  0
LAYER
  5
B7F
330
B7E
100
AcDbSymbolTableRecord
100
AcDbLayerTableRecord
  2
0
 70
   0
 62
   7
  6
CONTINUOUS
  0
LAYER
  5
B80
330
B7E
100
AcDbSymbolTableRecord
100
AcDbLayerTableRecord
  2
none
 70
    0
 62
    7
  6
CONTINUOUS
  0
LAYER
  5
B81
330
B7E
100
AcDbSymbolTableRecord
100
AcDbLayerTableRecord
  2
CutProfile
 70
    0
 62
    7
  6
CONTINUOUS
  0
ENDTAB
  0
TABLE
  2
STYLE
  5
70
330
0
100
AcDbSymbolTable
 70
     2
  0
STYLE
  5
71
330
70
100
AcDbSymbolTableRecord
100
AcDbTextStyleTableRecord
  2
STANDARD
 70
     0
 40
0.0
 41
1.0
 50
0.0
 71
     0
 42
2.5
  3
arial.ttf
  4

  0
STYLE
  5
72
330
70
100
AcDbSymbolTableRecord
100
AcDbTextStyleTableRecord
  2
ANNOTATIVE
 70
     0
 40
0.0
 41
1.0
 50
0.0
 71
     0
 42
2.5
  3
arial.ttf
  4

  0
ENDTAB
  0
TABLE
  2
VIEW
  5
73
330
0
100
AcDbSymbolTable
 70
     0
  0
ENDTAB
  0
TABLE
  2
UCS
  5
74
330
0
100
AcDbSymbolTable
 70
     0
  0
ENDTAB
  0
TABLE
  2
APPID
  5
75
330
0
100
AcDbSymbolTable
 70
     2
  0
APPID
  5
76
330
75
100
AcDbSymbolTableRecord
100
AcDbRegAppTableRecord
  2
ACAD
 70
     0
  0
APPID
  5
77
330
75
100
AcDbSymbolTableRecord
100
AcDbRegAppTableRecord
  2
ACADANNOTATIVE
 70
     0
  0
ENDTAB
  0
TABLE
  2
DIMSTYLE
  5
78
330
0
100
AcDbSymbolTable
 70
     2
  0
DIMSTYLE
105
79
330
78
100
AcDbSymbolTableRecord
100
AcDbDimStyleTableRecord
  2
STANDARD
 70
     0
  3

  4

  5

  6

  7

 40
0.0
 41
2.5
 42
0.625
 43
3.75
 44
1.25
 45
0.0
 46
0.0
 47
0.0
 48
0.0
140
2.5
141
2.5
142
0.0
143
0.03937007874016
144
1.0
145
0.0
146
1.0
147
0.625
 71
     0
 72
     0
 73
     0
 74
     0
 75
     0
 76
     0
 77
     1
 78
     8
170
     0
171
     3
172
     1
173
     0
174
     0
175
     0
176
     0
177
     0
178
     0
270
     2
271
     2
272
     2
273
     2
274
     3
340
71
275
     0
280
     0
281
     0
282
     0
283
     0
284
     8
285
     0
286
     0
287
     3
288
     0
  0
ENDTAB
  0
TABLE
  2
BLOCK_RECORD
  5
A01
330
0
100
AcDbSymbolTable
  70
5
  0
BLOCK_RECORD
  5
A02
330
A01
100
AcDbSymbolTableRecord
100
AcDbBlockTableRecord
  2
*MODEL_SPACE
  0
BLOCK_RECORD
  5
A03
330
A01
100
AcDbSymbolTableRecord
100
AcDbBlockTableRecord
  2
*PAPER_SPACE
  0
ENDTAB
  0
ENDSEC
  0
SECTION
  2
BLOCKS
  0
BLOCK
  5
A04
330
A02
100
AcDbEntity
  8
0
100
AcDbBlockBegin
  2
*MODEL_SPACE
 70
   0
 10
0
 20
0
 30
0
  3
*MODEL_SPACE
  1
 
  0
ENDBLK
  5
A05
330
A02
100
AcDbEntity
  8
0
100
AcDbBlockEnd
  0
BLOCK
  5
A06
330
A03
100
AcDbEntity
 67
1
  8
0
100
AcDbBlockBegin
  2
*PAPER_SPACE
 70
   0
 10
0
 20
0
 30
0
  3
*PAPER_SPACE
  1
 
  0
ENDBLK
  5
A07
330
A03
100
AcDbEntity
 67
    1
  8
0
100
AcDbBlockEnd
  0
ENDSEC
  0
SECTION
  2
ENTITIES
  0
LINE
  5
A08
330
A02
100
AcDbEntity
  8
CutProfile
100
AcDbLine
 10
59.775000000
 20
346.000000000
 30
0.000000000
 11
13.600000000
 21
346.000000000
 31
0.000000000
  0
LINE
  5
A09
330
A02
100
AcDbEntity
  8
CutProfile
100
AcDbLine
 10
13.600000000
 20
346.000000000
 30
0.000000000
 11
13.600000000
 21
325.225000000
 31
0.000000000
  0
LINE
  5
A0A
330
A02
100
AcDbEntity
  8
CutProfile
100
AcDbLine
 10
2.000000000
 20
325.225000000
 30
0.000000000
 11
13.600000000
 21
325.225000000
 31
0.000000000
  0
ARC
  5
A0B
330
A02
100
AcDbEntity
  8
CutProfile
100
AcDbCircle
 10
2.000000000
 20
323.225000000
 30
0.000000000
 40
2.000000000
100
AcDbArc
 50
90.000000000
 51
180.000000000
  0
LINE
  5
A0C
330
A02
100
AcDbEntity
  8
CutProfile
100
AcDbLine
 10
0.000000000
 20
323.225000000
 30
0.000000000
 11
0.000000000
 21
285.675000000
 31
0.000000000
  0
ARC
  5
A0D
330
A02
100
AcDbEntity
  8
CutProfile
100
AcDbCircle
 10
2.000000000
 20
285.675000000
 30
0.000000000
 40
2.000000000
100
AcDbArc
 50
180.000000000
 51
-90.000000000
  0
LINE
  5
A0E
330
A02
100
AcDbEntity
  8
CutProfile
100
AcDbLine
 10
13.600000000
 20
283.675000000
 30
0.000000000
 11
2.000000000
 21
283.675000000
 31
0.000000000
  0
LINE
  5
A0F
330
A02
100
AcDbEntity
  8
CutProfile
100
AcDbLine
 10
13.600000000
 20
283.675000000
 30
0.000000000
 11
13.600000000
 21
242.125000000
 31
0.000000000
  0
LINE
  5
A10
330
A02
100
AcDbEntity
  8
CutProfile
100
AcDbLine
 10
2.000000000
 20
242.125000000
 30
0.000000000
 11
13.600000000
 21
242.125000000
 31
0.000000000
  0
ARC
  5
A11
330
A02
100
AcDbEntity
  8
CutProfile
100
AcDbCircle
 10
2.000000000
 20
240.125000000
 30
0.000000000
 40
2.000000000
100
AcDbArc
 50
90.000000000
 51
180.000000000
  0
LINE
  5
A12
330
A02
100
AcDbEntity
  8
CutProfile
100
AcDbLine
 10
0.000000000
 20
240.125000000
 30
0.000000000
 11
0.000000000
 21
202.575000000
 31
0.000000000
  0
ARC
  5
A13
330
A02
100
AcDbEntity
  8
CutProfile
100
AcDbCircle
 10
2.000000000
 20
202.575000000
 30
0.000000000
 40
2.000000000
100
AcDbArc
 50
180.000000000
 51
-90.000000000
  0
LINE
  5
A14
330
A02
100
AcDbEntity
  8
CutProfile
100
AcDbLine
 10
13.600000000
 20
200.575000000
 30
0.000000000
 11
2.000000000
 21
200.575000000
 31
0.000000000
  0
LINE
  5
A15
330
A02
100
AcDbEntity
  8
CutProfile
100
AcDbLine
 10
13.600000000
 20
200.575000000
 30
0.000000000
 11
13.600000000
 21
159.025000000
 31
0.000000000
  0
LINE
  5
A16
330
A02
100
AcDbEntity
  8
CutProfile
100
AcDbLine
 10
2.000000000
 20
159.025000000
 30
0.000000000
 11
13.600000000
 21
159.025000000
 31
0.000000000
  0
ARC
  5
A17
330
A02
100
AcDbEntity
  8
CutProfile
100
AcDbCircle
 10
2.000000000
 20
157.025000000
 30
0.000000000
 40
2.000000000
100
AcDbArc
 50
90.000000000
 51
180.000000000
  0
LINE
  5
A18
330
A02
100
AcDbEntity
  8
CutProfile
100
AcDbLine
 10
0.000000000
 20
157.025000000
 30
0.000000000
 11
0.000000000
 21
119.475000000
 31
0.000000000
  0
ARC
  5
A19
330
A02
100
AcDbEntity
  8
CutProfile
100
AcDbCircle
 10
2.000000000
 20
119.475000000
 30
0.000000000
 40
2.000000000
100
AcDbArc
 50
180.000000000
 51
-90.000000000
  0
LINE
  5
A1A
330
A02
100
AcDbEntity
  8
CutProfile
100
AcDbLine
 10
13.600000000
 20
117.475000000
 30
0.000000000
 11
2.000000000
 21
117.475000000
 31
0.000000000
  0
LINE
  5
A1B
330
A02
100
AcDbEntity
  8
CutProfile
100
AcDbLine
 10
13.600000000
 20
117.475000000
 30
0.000000000
 11
13.600000000
 21
75.925000000
 31
0.000000000
  0
LINE
  5
A1C
330
A02
100
AcDbEntity
  8
CutProfile
100
AcDbLine
 10
2.000000000
 20
75.925000000
 30
0.000000000
 11
13.600000000
 21
75.925000000
 31
0.000000000
  0
ARC
  5
A1D
330
A02
100
AcDbEntity
  8
CutProfile
100
AcDbCircle
 10
2.000000000
 20
73.925000000
 30
0.000000000
 40
2.000000000
100
AcDbArc
 50
90.000000000
 51
180.000000000
  0
LINE
  5
A1E
330
A02
100
AcDbEntity
  8
CutProfile
100
AcDbLine
 10
0.000000000
 20
73.925000000
 30
0.000000000
 11
0.000000000
 21
36.375000000
 31
0.000000000
  0
ARC
  5
A1F
330
A02
100
AcDbEntity
  8
CutProfile
100
AcDbCircle
 10
2.000000000
 20
36.375000000
 30
0.000000000
 40
2.000000000
100
AcDbArc
 50
180.000000000
 51
-90.000000000
  0
LINE
  5
A20
330
A02
100
AcDbEntity
  8
CutProfile
100
AcDbLine
 10
13.600000000
 20
34.375000000
 30
0.000000000
 11
2.000000000
 21
34.375000000
 31
0.000000000
  0
LINE
  5
A21
330
A02
100
AcDbEntity
  8
CutProfile
100
AcDbLine
 10
13.600000000
 20
34.375000000
 30
0.000000000
 11
13.600000000
 21
13.600000000
 31
0.000000000
  0
LINE
  5
A22
330
A02
100
AcDbEntity
  8
CutProfile
100
AcDbLine
 10
13.600000000
 20
13.600000000
 30
0.000000000
 11
59.775000000
 21
13.600000000
 31
0.000000000
  0
LINE
  5
A23
330
A02
100
AcDbEntity
  8
CutProfile
100
AcDbLine
 10
59.775000000
 20
2.000000000
 30
0.000000000
 11
59.775000000
 21
13.600000000
 31
0.000000000
  0
ARC
  5
A24
330
A02
100
AcDbEntity
  8
CutProfile
100
AcDbCircle
 10
61.775000000
 20
2.000000000
 30
0.000000000
 40
2.000000000
100
AcDbArc
 50
180.000000000
 51
-90.000000000
  0
LINE
  5
A25
330
A02
100
AcDbEntity
  8
CutProfile
100
AcDbLine
 10
61.775000000
 20
0.000000000
 30
0.000000000
 11
150.125000000
 21
0.000000000
 31
0.000000000
  0
ARC
  5
A26
330
A02
100
AcDbEntity
  8
CutProfile
100
AcDbCircle
 10
150.125000000
 20
2.000000000
 30
0.000000000
 40
2.000000000
100
AcDbArc
 50
-90.000000000
 51
0.000000000
  0
LINE
  5
A27
330
A02
100
AcDbEntity
  8
CutProfile
100
AcDbLine
 10
152.125000000
 20
13.600000000
 30
0.000000000
 11
152.125000000
 21
2.000000000
 31
0.000000000
  0
LINE
  5
A28
330
A02
100
AcDbEntity
  8
CutProfile
100
AcDbLine
 10
152.125000000
 20
13.600000000
 30
0.000000000
 11
244.475000000
 21
13.600000000
 31
0.000000000
  0
LINE
  5
A29
330
A02
100
AcDbEntity
  8
CutProfile
100
AcDbLine
 10
244.475000000
 20
2.000000000
 30
0.000000000
 11
244.475000000
 21
13.600000000
 31
0.000000000
  0
ARC
  5
A2A
330
A02
100
AcDbEntity
  8
CutProfile
100
AcDbCircle
 10
246.475000000
 20
2.000000000
 30
0.000000000
 40
2.000000000
100
AcDbArc
 50
180.000000000
 51
-90.000000000
  0
LINE
  5
A2B
330
A02
100
AcDbEntity
  8
CutProfile
100
AcDbLine
 10
246.475000000
 20
0.000000000
 30
0.000000000
 11
334.825000000
 21
0.000000000
 31
0.000000000
  0
ARC
  5
A2C
330
A02
100
AcDbEntity
  8
CutProfile
100
AcDbCircle
 10
334.825000000
 20
2.000000000
 30
0.000000000
 40
2.000000000
100
AcDbArc
 50
-90.000000000
 51
0.000000000
  0
LINE
  5
A2D
330
A02
100
AcDbEntity
  8
CutProfile
100
AcDbLine
 10
336.825000000
 20
13.600000000
 30
0.000000000
 11
336.825000000
 21
2.000000000
 31
0.000000000
  0
LINE
  5
A2E
330
A02
100
AcDbEntity
  8
CutProfile
100
AcDbLine
 10
336.825000000
 20
13.600000000
 30
0.000000000
 11
429.175000000
 21
13.600000000
 31
0.000000000
  0
LINE
  5
A2F
330
A02
100
AcDbEntity
  8
CutProfile
100
AcDbLine
 10
429.175000000
 20
2.000000000
 30
0.000000000
 11
429.175000000
 21
13.600000000
 31
0.000000000
  0
ARC
  5
A30
330
A02
100
AcDbEntity
  8
CutProfile
100
AcDbCircle
 10
431.175000000
 20
2.000000000
 30
0.000000000
 40
2.000000000
100
AcDbArc
 50
180.000000000
 51
-90.000000000
  0
LINE
  5
A31
330
A02
100
AcDbEntity
  8
CutProfile
100
AcDbLine
 10
431.175000000
 20
0.000000000
 30
0.000000000
 11
519.525000000
 21
0.000000000
 31
0.000000000
  0
ARC
  5
A32
330
A02
100
AcDbEntity
  8
CutProfile
100
AcDbCircle
 10
519.525000000
 20
2.000000000
 30
0.000000000
 40
2.000000000
100
AcDbArc
 50
-90.000000000
 51
0.000000000
  0
LINE
  5
A33
330
A02
100
AcDbEntity
  8
CutProfile
100
AcDbLine
 10
521.525000000
 20
13.600000000
 30
0.000000000
 11
521.525000000
 21
2.000000000
 31
0.000000000
  0
LINE
  5
A34
330
A02
100
AcDbEntity
  8
CutProfile
100
AcDbLine
 10
521.525000000
 20
13.600000000
 30
0.000000000
 11
613.875000000
 21
13.600000000
 31
0.000000000
  0
LINE
  5
A35
330
A02
100
AcDbEntity
  8
CutProfile
100
AcDbLine
 10
613.875000000
 20
2.000000000
 30
0.000000000
 11
613.875000000
 21
13.600000000
 31
0.000000000
  0
ARC
  5
A36
330
A02
100
AcDbEntity
  8
CutProfile
100
AcDbCircle
 10
615.875000000
 20
2.000000000
 30
0.000000000
 40
2.000000000
100
AcDbArc
 50
180.000000000
 51
-90.000000000
  0
LINE
  5
A37
330
A02
100
AcDbEntity
  8
CutProfile
100
AcDbLine
 10
615.875000000
 20
0.000000000
 30
0.000000000
 11
704.225000000
 21
0.000000000
 31
0.000000000
  0
ARC
  5
A38
330
A02
100
AcDbEntity
  8
CutProfile
100
AcDbCircle
 10
704.225000000
 20
2.000000000
 30
0.000000000
 40
2.000000000
100
AcDbArc
 50
-90.000000000
 51
0.000000000
  0
LINE
  5
A39
330
A02
100
AcDbEntity
  8
CutProfile
100
AcDbLine
 10
706.225000000
 20
13.600000000
 30
0.000000000
 11
706.225000000
 21
2.000000000
 31
0.000000000
  0
LINE
  5
A3A
330
A02
100
AcDbEntity
  8
CutProfile
100
AcDbLine
 10
706.225000000
 20
13.600000000
 30
0.000000000
 11
752.400000000
 21
13.600000000
 31
0.000000000
  0
LINE
  5
A3B
330
A02
100
AcDbEntity
  8
CutProfile
100
AcDbLine
 10
752.400000000
 20
13.600000000
 30
0.000000000
 11
752.400000000
 21
34.375000000
 31
0.000000000
  0
LINE
  5
A3C
330
A02
100
AcDbEntity
  8
CutProfile
100
AcDbLine
 10
764.000000000
 20
34.375000000
 30
0.000000000
 11
752.400000000
 21
34.375000000
 31
0.000000000
  0
ARC
  5
A3D
330
A02
100
AcDbEntity
  8
CutProfile
100
AcDbCircle
 10
764.000000000
 20
36.375000000
 30
0.000000000
 40
2.000000000
100
AcDbArc
 50
-90.000000000
 51
0.000000000
  0
LINE
  5
A3E
330
A02
100
AcDbEntity
  8
CutProfile
100
AcDbLine
 10
766.000000000
 20
36.375000000
 30
0.000000000
 11
766.000000000
 21
73.925000000
 31
0.000000000
  0
ARC
  5
A3F
330
A02
100
AcDbEntity
  8
CutProfile
100
AcDbCircle
 10
764.000000000
 20
73.925000000
 30
0.000000000
 40
2.000000000
100
AcDbArc
 50
0.000000000
 51
90.000000000
  0
LINE
  5
A40
330
A02
100
AcDbEntity
  8
CutProfile
100
AcDbLine
 10
752.400000000
 20
75.925000000
 30
0.000000000
 11
764.000000000
 21
75.925000000
 31
0.000000000
  0
LINE
  5
A41
330
A02
100
AcDbEntity
  8
CutProfile
100
AcDbLine
 10
752.400000000
 20
75.925000000
 30
0.000000000
 11
752.400000000
 21
117.475000000
 31
0.000000000
  0
LINE
  5
A42
330
A02
100
AcDbEntity
  8
CutProfile
100
AcDbLine
 10
764.000000000
 20
117.475000000
 30
0.000000000
 11
752.400000000
 21
117.475000000
 31
0.000000000
  0
ARC
  5
A43
330
A02
100
AcDbEntity
  8
CutProfile
100
AcDbCircle
 10
764.000000000
 20
119.475000000
 30
0.000000000
 40
2.000000000
100
AcDbArc
 50
-90.000000000
 51
0.000000000
  0
LINE
  5
A44
330
A02
100
AcDbEntity
  8
CutProfile
100
AcDbLine
 10
766.000000000
 20
119.475000000
 30
0.000000000
 11
766.000000000
 21
157.025000000
 31
0.000000000
  0
ARC
  5
A45
330
A02
100
AcDbEntity
  8
CutProfile
100
AcDbCircle
 10
764.000000000
 20
157.025000000
 30
0.000000000
 40
2.000000000
100
AcDbArc
 50
0.000000000
 51
90.000000000
  0
LINE
  5
A46
330
A02
100
AcDbEntity
  8
CutProfile
100
AcDbLine
 10
752.400000000
 20
159.025000000
 30
0.000000000
 11
764.000000000
 21
159.025000000
 31
0.000000000
  0
LINE
  5
A47
330
A02
100
AcDbEntity
  8
CutProfile
100
AcDbLine
 10
752.400000000
 20
159.025000000
 30
0.000000000
 11
752.400000000
 21
200.575000000
 31
0.000000000
  0
LINE
  5
A48
330
A02
100
AcDbEntity
  8
CutProfile
100
AcDbLine
 10
764.000000000
 20
200.575000000
 30
0.000000000
 11
752.400000000
 21
200.575000000
 31
0.000000000
  0
ARC
  5
A49
330
A02
100
AcDbEntity
  8
CutProfile
100
AcDbCircle
 10
764.000000000
 20
202.575000000
 30
0.000000000
 40
2.000000000
100
AcDbArc
 50
-90.000000000
 51
0.000000000
  0
LINE
  5
A4A
330
A02
100
AcDbEntity
  8
CutProfile
100
AcDbLine
 10
766.000000000
 20
202.575000000
 30
0.000000000
 11
766.000000000
 21
240.125000000
 31
0.000000000
  0
ARC
  5
A4B
330
A02
100
AcDbEntity
  8
CutProfile
100
AcDbCircle
 10
764.000000000
 20
240.125000000
 30
0.000000000
 40
2.000000000
100
AcDbArc
 50
0.000000000
 51
90.000000000
  0
LINE
  5
A4C
330
A02
100
AcDbEntity
  8
CutProfile
100
AcDbLine
 10
752.400000000
 20
242.125000000
 30
0.000000000
 11
764.000000000
 21
242.125000000
 31
0.000000000
  0
LINE
  5
A4D
330
A02
100
AcDbEntity
  8
CutProfile
100
AcDbLine
 10
752.400000000
 20
242.125000000
 30
0.000000000
 11
752.400000000
 21
283.675000000
 31
0.000000000
  0
LINE
  5
A4E
330
A02
100
AcDbEntity
  8
CutProfile
100
AcDbLine
 10
764.000000000
 20
283.675000000
 30
0.000000000
 11
752.400000000
 21
283.675000000
 31
0.000000000
  0
ARC
  5
A4F
330
A02
100
AcDbEntity
  8
CutProfile
100
AcDbCircle
 10
764.000000000
 20
285.675000000
 30
0.000000000
 40
2.000000000
100
AcDbArc
 50
-90.000000000
 51
0.000000000
  0
LINE
  5
A50
330
A02
100
AcDbEntity
  8
CutProfile
100
AcDbLine
 10
766.000000000
 20
285.675000000
 30
0.000000000
 11
766.000000000
 21
323.225000000
 31
0.000000000
  0
ARC
  5
A51
330
A02
100
AcDbEntity
  8
CutProfile
100
AcDbCircle
 10
764.000000000
 20
323.225000000
 30
0.000000000
 40
2.000000000
100
AcDbArc
 50
0.000000000
 51
90.000000000
  0
LINE
  5
A52
330
A02
100
AcDbEntity
  8
CutProfile
100
AcDbLine
 10
752.400000000
 20
325.225000000
 30
0.000000000
 11
764.000000000
 21
325.225000000
 31
0.000000000
  0
LINE
  5
A53
330
A02
100
AcDbEntity
  8
CutProfile
100
AcDbLine
 10
752.400000000
 20
325.225000000
 30
0.000000000
 11
752.400000000
 21
346.000000000
 31
0.000000000
  0
LINE
  5
A54
330
A02
100
AcDbEntity
  8
CutProfile
100
AcDbLine
 10
752.400000000
 20
346.000000000
 30
0.000000000
 11
706.225000000
 21
346.000000000
 31
0.000000000
  0
LINE
  5
A55
330
A02
100
AcDbEntity
  8
CutProfile
100
AcDbLine
 10
706.225000000
 20
357.600000000
 30
0.000000000
 11
706.225000000
 21
346.000000000
 31
0.000000000
  0
ARC
  5
A56
330
A02
100
AcDbEntity
  8
CutProfile
100
AcDbCircle
 10
704.225000000
 20
357.600000000
 30
0.000000000
 40
2.000000000
100
AcDbArc
 50
0.000000000
 51
90.000000000
  0
LINE
  5
A57
330
A02
100
AcDbEntity
  8
CutProfile
100
AcDbLine
 10
704.225000000
 20
359.600000000
 30
0.000000000
 11
615.875000000
 21
359.600000000
 31
0.000000000
  0
ARC
  5
A58
330
A02
100
AcDbEntity
  8
CutProfile
100
AcDbCircle
 10
615.875000000
 20
357.600000000
 30
0.000000000
 40
2.000000000
100
AcDbArc
 50
90.000000000
 51
180.000000000
  0
LINE
  5
A59
330
A02
100
AcDbEntity
  8
CutProfile
100
AcDbLine
 10
613.875000000
 20
346.000000000
 30
0.000000000
 11
613.875000000
 21
357.600000000
 31
0.000000000
  0
LINE
  5
A5A
330
A02
100
AcDbEntity
  8
CutProfile
100
AcDbLine
 10
613.875000000
 20
346.000000000
 30
0.000000000
 11
521.525000000
 21
346.000000000
 31
0.000000000
  0
LINE
  5
A5B
330
A02
100
AcDbEntity
  8
CutProfile
100
AcDbLine
 10
521.525000000
 20
357.600000000
 30
0.000000000
 11
521.525000000
 21
346.000000000
 31
0.000000000
  0
ARC
  5
A5C
330
A02
100
AcDbEntity
  8
CutProfile
100
AcDbCircle
 10
519.525000000
 20
357.600000000
 30
0.000000000
 40
2.000000000
100
AcDbArc
 50
0.000000000
 51
90.000000000
  0
LINE
  5
A5D
330
A02
100
AcDbEntity
  8
CutProfile
100
AcDbLine
 10
519.525000000
 20
359.600000000
 30
0.000000000
 11
431.175000000
 21
359.600000000
 31
0.000000000
  0
ARC
  5
A5E
330
A02
100
AcDbEntity
  8
CutProfile
100
AcDbCircle
 10
431.175000000
 20
357.600000000
 30
0.000000000
 40
2.000000000
100
AcDbArc
 50
90.000000000
 51
180.000000000
  0
LINE
  5
A5F
330
A02
100
AcDbEntity
  8
CutProfile
100
AcDbLine
 10
429.175000000
 20
346.000000000
 30
0.000000000
 11
429.175000000
 21
357.600000000
 31
0.000000000
  0
LINE
  5
A60
330
A02
100
AcDbEntity
  8
CutProfile
100
AcDbLine
 10
429.175000000
 20
346.000000000
 30
0.000000000
 11
336.825000000
 21
346.000000000
 31
0.000000000
  0
LINE
  5
A61
330
A02
100
AcDbEntity
  8
CutProfile
100
AcDbLine
 10
336.825000000
 20
357.600000000
 30
0.000000000
 11
336.825000000
 21
346.000000000
 31
0.000000000
  0
ARC
  5
A62
330
A02
100
AcDbEntity
  8
CutProfile
100
AcDbCircle
 10
334.825000000
 20
357.600000000
 30
0.000000000
 40
2.000000000
100
AcDbArc
 50
0.000000000
 51
90.000000000
  0
LINE
  5
A63
330
A02
100
AcDbEntity
  8
CutProfile
100
AcDbLine
 10
334.825000000
 20
359.600000000
 30
0.000000000
 11
246.475000000
 21
359.600000000
 31
0.000000000
  0
ARC
  5
A64
330
A02
100
AcDbEntity
  8
CutProfile
100
AcDbCircle
 10
246.475000000
 20
357.600000000
 30
0.000000000
 40
2.000000000
100
AcDbArc
 50
90.000000000
 51
180.000000000
  0
LINE
  5
A65
330
A02
100
AcDbEntity
  8
CutProfile
100
AcDbLine
 10
244.475000000
 20
346.000000000
 30
0.000000000
 11
244.475000000
 21
357.600000000
 31
0.000000000
  0
LINE
  5
A66
330
A02
100
AcDbEntity
  8
CutProfile
100
AcDbLine
 10
244.475000000
 20
346.000000000
 30
0.000000000
 11
152.125000000
 21
346.000000000
 31
0.000000000
  0
LINE
  5
A67
330
A02
100
AcDbEntity
  8
CutProfile
100
AcDbLine
 10
152.125000000
 20
357.600000000
 30
0.000000000
 11
152.125000000
 21
346.000000000
 31
0.000000000
  0
ARC
  5
A68
330
A02
100
AcDbEntity
  8
CutProfile
100
AcDbCircle
 10
150.125000000
 20
357.600000000
 30
0.000000000
 40
2.000000000
100
AcDbArc
 50
0.000000000
 51
90.000000000
  0
LINE
  5
A69
330
A02
100
AcDbEntity
  8
CutProfile
100
AcDbLine
 10
150.125000000
 20
359.600000000
 30
0.000000000
 11
61.775000000
 21
359.600000000
 31
0.000000000
  0
ARC
  5
A6A
330
A02
100
AcDbEntity
  8
CutProfile
100
AcDbCircle
 10
61.775000000
 20
357.600000000
 30
0.000000000
 40
2.000000000
100
AcDbArc
 50
90.000000000
 51
180.000000000
  0
LINE
  5
A6B
330
A02
100
AcDbEntity
  8
CutProfile
100
AcDbLine
 10
59.775000000
 20
346.000000000
 30
0.000000000
 11
59.775000000
 21
357.600000000
 31
0.000000000
  0
LINE
  5
A6C
330
A02
100
AcDbEntity
  8
CutProfile
100
AcDbLine
 10
25.448642304
 20
22.210321588
 30
0.000000000
 11
40.356975637
 21
23.450201547
 31
0.000000000
  0
ARC
  5
A6D
330
A02
100
AcDbEntity
  8
CutProfile
100
AcDbCircle
 10
25.200000000
 20
25.200000000
 30
0.000000000
 40
3.000000000
100
AcDbArc
 50
175.574094783
 51
-85.245828256
  0
LINE
  5
A6E
330
A02
100
AcDbEntity
  8
CutProfile
100
AcDbLine
 10
22.707535172
 20
31.873176124
 30
0.000000000
 11
22.208946110
 21
25.431509457
 31
0.000000000
  0
ARC
  5
A6F
330
A02
100
AcDbEntity
  8
CutProfile
100
AcDbCircle
 10
25.698589062
 20
31.641666667
 30
0.000000000
 40
3.000000000
100
AcDbArc
 50
167.569720508
 51
175.574094783
  0
LINE
  5
A70
330
A02
100
AcDbEntity
  8
CutProfile
100
AcDbLine
 10
24.188774605
 20
38.729087671
 30
0.000000000
 11
22.768913084
 21
32.287421004
 31
0.000000000
  0
ARC
  5
A71
330
A02
100
AcDbEntity
  8
CutProfile
100
AcDbCircle
 10
27.118450583
 20
38.083333333
 30
0.000000000
 40
3.000000000
100
AcDbArc
 50
161.743343172
 51
167.569720508
  0
LINE
  5
A72
330
A02
100
AcDbEntity
  8
CutProfile
100
AcDbLine
 10
26.394435312
 20
45.464822431
 30
0.000000000
 11
24.269462377
 21
39.023155765
 31
0.000000000
  0
ARC
  5
A73
330
A02
100
AcDbEntity
  8
CutProfile
100
AcDbCircle
 10
29.243423518
 20
44.525000000
 30
0.000000000
 40
3.000000000
100
AcDbArc
 50
158.738030701
 51
161.743343172
  0
LINE
  5
A74
330
A02
100
AcDbEntity
  8
CutProfile
100
AcDbLine
 10
31.432241993
 20
58.422891316
 30
0.000000000
 11
26.447627115
 21
45.612898191
 31
0.000000000
  0
LINE
  5
A75
330
A02
100
AcDbEntity
  8
CutProfile
100
AcDbLine
 10
33.484734969
 20
64.644841428
 30
0.000000000
 11
31.432241993
 21
58.422891316
 31
0.000000000
  0
LINE
  5
A76
330
A02
100
AcDbEntity
  8
CutProfile
100
AcDbLine
 10
34.826554647
 20
70.732445722
 30
0.000000000
 11
33.484734969
 21
64.644841428
 31
0.000000000
  0
LINE
  5
A77
330
A02
100
AcDbEntity
  8
CutProfile
100
AcDbLine
 10
35.291027132
 20
76.733333333
 30
0.000000000
 11
34.826554647
 21
70.732445722
 31
0.000000000
  0
LINE
  5
A78
330
A02
100
AcDbEntity
  8
CutProfile
100
AcDbLine
 10
34.826554647
 20
82.734220945
 30
0.000000000
 11
35.291027132
 21
76.733333333
 31
0.000000000
  0
LINE
  5
A79
330
A02
100
AcDbEntity
  8
CutProfile
100
AcDbLine
 10
33.484734969
 20
88.821825239
 30
0.000000000
 11
34.826554647
 21
82.734220945
 31
0.000000000
  0
LINE
  5
A7A
330
A02
100
AcDbEntity
  8
CutProfile
100
AcDbLine
 10
31.432241993
 20
95.043775350
 30
0.000000000
 11
33.484734969
 21
88.821825239
 31
0.000000000
  0
LINE
  5
A7B
330
A02
100
AcDbEntity
  8
CutProfile
100
AcDbLine
 10
26.447627115
 20
107.853768476
 30
0.000000000
 11
31.432241993
 21
95.043775350
 31
0.000000000
  0
ARC
  5
A7C
330
A02
100
AcDbEntity
  8
CutProfile
100
AcDbCircle
 10
29.243423518
 20
108.941666667
 30
0.000000000
 40
3.000000000
100
AcDbArc
 50
-161.743343172
 51
-158.738030701
  0
LINE
  5
A7D
330
A02
100
AcDbEntity
  8
CutProfile
100
AcDbLine
 10
24.269462377
 20
114.443510902
 30
0.000000000
 11
26.394435312
 21
108.001844235
 31
0.000000000
  0
ARC
  5
A7E
330
A02
100
AcDbEntity
  8
CutProfile
100
AcDbCircle
 10
27.118450583
 20
115.383333333
 30
0.000000000
 40
3.000000000
100
AcDbArc
 50
-167.569720508
 51
-161.743343172
  0
LINE
  5
A7F
330
A02
100
AcDbEntity
  8
CutProfile
100
AcDbLine
 10
22.768913084
 20
121.179245663
 30
0.000000000
 11
24.188774605
 21
114.737578996
 31
0.000000000
  0
ARC
  5
A80
330
A02
100
AcDbEntity
  8
CutProfile
100
AcDbCircle
 10
25.698589062
 20
121.825000000
 30
0.000000000
 40
3.000000000
100
AcDbArc
 50
-175.574094783
 51
-167.569720508
  0
LINE
  5
A81
330
A02
100
AcDbEntity
  8
CutProfile
100
AcDbLine
 10
22.208946110
 20
128.035157209
 30
0.000000000
 11
22.707535172
 21
121.593490543
 31
0.000000000
  0
ARC
  5
A82
330
A02
100
AcDbEntity
  8
CutProfile
100
AcDbCircle
 10
25.200000000
 20
128.266666667
 30
0.000000000
 40
3.000000000
100
AcDbArc
 50
175.574094783
 51
-175.574094783
  0
LINE
  5
A83
330
A02
100
AcDbEntity
  8
CutProfile
100
AcDbLine
 10
22.707535172
 20
134.939842791
 30
0.000000000
 11
22.208946110
 21
128.498176124
 31
0.000000000
  0
ARC
  5
A84
330
A02
100
AcDbEntity
  8
CutProfile
100
AcDbCircle
 10
25.698589062
 20
134.708333333
 30
0.000000000
 40
3.000000000
100
AcDbArc
 50
167.569720508
 51
175.574094783
  0
LINE
  5
A85
330
A02
100
AcDbEntity
  8
CutProfile
100
AcDbLine
 10
24.188774605
 20
141.795754337
 30
0.000000000
 11
22.768913084
 21
135.354087671
 31
0.000000000
  0
ARC
  5
A86
330
A02
100
AcDbEntity
  8
CutProfile
100
AcDbCircle
 10
27.118450583
 20
141.150000000
 30
0.000000000
 40
3.000000000
100
AcDbArc
 50
161.743343172
 51
167.569720508
  0
LINE
  5
A87
330
A02
100
AcDbEntity
  8
CutProfile
100
AcDbLine
 10
26.394435312
 20
148.531489098
 30
0.000000000
 11
24.269462377
 21
142.089822431
 31
0.000000000
  0
ARC
  5
A88
330
A02
100
AcDbEntity
  8
CutProfile
100
AcDbCircle
 10
29.243423518
 20
147.591666667
 30
0.000000000
 40
3.000000000
100
AcDbArc
 50
158.738030701
 51
161.743343172
  0
LINE
  5
A89
330
A02
100
AcDbEntity
  8
CutProfile
100
AcDbLine
 10
28.404117323
 20
153.707561349
 30
0.000000000
 11
26.447627115
 21
148.679564857
 31
0.000000000
  0
LINE
  5
A8A
330
A02
100
AcDbEntity
  8
CutProfile
100
AcDbLine
 10
25.131068383
 20
158.868221579
 30
0.000000000
 11
28.404117323
 21
153.707561349
 31
0.000000000
  0
ARC
  5
A8B
330
A02
100
AcDbEntity
  8
CutProfile
100
AcDbCircle
 10
27.664497502
 20
160.475000000
 30
0.000000000
 40
3.000000000
100
AcDbArc
 50
-159.081883593
 51
-147.615876937
  0
LINE
  5
A8C
330
A02
100
AcDbEntity
  8
CutProfile
100
AcDbLine
 10
22.400055224
 20
165.845566561
 30
0.000000000
 11
24.862222611
 21
159.403899895
 31
0.000000000
  0
ARC
  5
A8D
330
A02
100
AcDbEntity
  8
CutProfile
100
AcDbCircle
 10
25.202330115
 20
166.916666667
 30
0.000000000
 40
3.000000000
100
AcDbArc
 50
-179.979274654
 51
-159.081883593
  0
LINE
  5
A8E
330
A02
100
AcDbEntity
  8
CutProfile
100
AcDbLine
 10
22.200000196
 20
173.357248157
 30
0.000000000
 11
22.202330312
 21
166.915581490
 31
0.000000000
  0
LINE
  5
A8F
330
A02
100
AcDbEntity
  8
CutProfile
100
AcDbLine
 10
22.200000000
 20
186.241666667
 30
0.000000000
 11
22.200000000
 21
173.358333333
 31
0.000000000
  0
LINE
  5
A90
330
A02
100
AcDbEntity
  8
CutProfile
100
AcDbLine
 10
22.202330312
 20
192.684418510
 30
0.000000000
 11
22.200000196
 21
186.242751843
 31
0.000000000
  0
ARC
  5
A91
330
A02
100
AcDbEntity
  8
CutProfile
100
AcDbCircle
 10
25.202330115
 20
192.683333333
 30
0.000000000
 40
3.000000000
100
AcDbArc
 50
159.081883593
 51
179.979274654
  0
LINE
  5
A92
330
A02
100
AcDbEntity
  8
CutProfile
100
AcDbLine
 10
24.862222611
 20
200.196100105
 30
0.000000000
 11
22.400055224
 21
193.754433439
 31
0.000000000
  0
ARC
  5
A93
330
A02
100
AcDbEntity
  8
CutProfile
100
AcDbCircle
 10
27.664497502
 20
199.125000000
 30
0.000000000
 40
3.000000000
100
AcDbArc
 50
147.615876937
 51
159.081883593
  0
LINE
  5
A94
330
A02
100
AcDbEntity
  8
CutProfile
100
AcDbLine
 10
28.404117323
 20
205.892438651
 30
0.000000000
 11
25.131068383
 21
200.731778421
 31
0.000000000
  0
LINE
  5
A95
330
A02
100
AcDbEntity
  8
CutProfile
100
AcDbLine
 10
26.447627115
 20
210.920435143
 30
0.000000000
 11
28.404117323
 21
205.892438651
 31
0.000000000
  0
ARC
  5
A96
330
A02
100
AcDbEntity
  8
CutProfile
100
AcDbCircle
 10
29.243423518
 20
212.008333333
 30
0.000000000
 40
3.000000000
100
AcDbArc
 50
-161.743343172
 51
-158.738030701
  0
LINE
  5
A97
330
A02
100
AcDbEntity
  8
CutProfile
100
AcDbLine
 10
24.269462377
 20
217.510177569
 30
0.000000000
 11
26.394435312
 21
211.068510902
 31
0.000000000
  0
ARC
  5
A98
330
A02
100
AcDbEntity
  8
CutProfile
100
AcDbCircle
 10
27.118450583
 20
218.450000000
 30
0.000000000
 40
3.000000000
100
AcDbArc
 50
-167.569720508
 51
-161.743343172
  0
LINE
  5
A99
330
A02
100
AcDbEntity
  8
CutProfile
100
AcDbLine
 10
22.768913084
 20
224.245912329
 30
0.000000000
 11
24.188774605
 21
217.804245663
 31
0.000000000
  0
ARC
  5
A9A
330
A02
100
AcDbEntity
  8
CutProfile
100
AcDbCircle
 10
25.698589062
 20
224.891666667
 30
0.000000000
 40
3.000000000
100
AcDbArc
 50
-175.574094783
 51
-167.569720508
  0
LINE
  5
A9B
330
A02
100
AcDbEntity
  8
CutProfile
100
AcDbLine
 10
22.208946110
 20
231.101823876
 30
0.000000000
 11
22.707535172
 21
224.660157209
 31
0.000000000
  0
ARC
  5
A9C
330
A02
100
AcDbEntity
  8
CutProfile
100
AcDbCircle
 10
25.200000000
 20
231.333333333
 30
0.000000000
 40
3.000000000
100
AcDbArc
 50
175.574094783
 51
-175.574094783
  0
LINE
  5
A9D
330
A02
100
AcDbEntity
  8
CutProfile
100
AcDbLine
 10
22.707535172
 20
238.006509457
 30
0.000000000
 11
22.208946110
 21
231.564842791
 31
0.000000000
  0
ARC
  5
A9E
330
A02
100
AcDbEntity
  8
CutProfile
100
AcDbCircle
 10
25.698589062
 20
237.775000000
 30
0.000000000
 40
3.000000000
100
AcDbArc
 50
167.569720508
 51
175.574094783
  0
LINE
  5
A9F
330
A02
100
AcDbEntity
  8
CutProfile
100
AcDbLine
 10
24.188774605
 20
244.862421004
 30
0.000000000
 11
22.768913084
 21
238.420754337
 31
0.000000000
  0
ARC
  5
AA0
330
A02
100
AcDbEntity
  8
CutProfile
100
AcDbCircle
 10
27.118450583
 20
244.216666667
 30
0.000000000
 40
3.000000000
100
AcDbArc
 50
161.743343172
 51
167.569720508
  0
LINE
  5
AA1
330
A02
100
AcDbEntity
  8
CutProfile
100
AcDbLine
 10
26.394435312
 20
251.598155765
 30
0.000000000
 11
24.269462377
 21
245.156489098
 31
0.000000000
  0
ARC
  5
AA2
330
A02
100
AcDbEntity
  8
CutProfile
100
AcDbCircle
 10
29.243423518
 20
250.658333333
 30
0.000000000
 40
3.000000000
100
AcDbArc
 50
158.738030701
 51
161.743343172
  0
LINE
  5
AA3
330
A02
100
AcDbEntity
  8
CutProfile
100
AcDbLine
 10
31.432241993
 20
264.556224650
 30
0.000000000
 11
26.447627115
 21
251.746231524
 31
0.000000000
  0
LINE
  5
AA4
330
A02
100
AcDbEntity
  8
CutProfile
100
AcDbLine
 10
33.484734969
 20
270.778174761
 30
0.000000000
 11
31.432241993
 21
264.556224650
 31
0.000000000
  0
LINE
  5
AA5
330
A02
100
AcDbEntity
  8
CutProfile
100
AcDbLine
 10
34.826554647
 20
276.865779055
 30
0.000000000
 11
33.484734969
 21
270.778174761
 31
0.000000000
  0
LINE
  5
AA6
330
A02
100
AcDbEntity
  8
CutProfile
100
AcDbLine
 10
35.291027132
 20
282.866666667
 30
0.000000000
 11
34.826554647
 21
276.865779055
 31
0.000000000
  0
LINE
  5
AA7
330
A02
100
AcDbEntity
  8
CutProfile
100
AcDbLine
 10
34.826554647
 20
288.867554278
 30
0.000000000
 11
35.291027132
 21
282.866666667
 31
0.000000000
  0
LINE
  5
AA8
330
A02
100
AcDbEntity
  8
CutProfile
100
AcDbLine
 10
33.484734969
 20
294.955158572
 30
0.000000000
 11
34.826554647
 21
288.867554278
 31
0.000000000
  0
LINE
  5
AA9
330
A02
100
AcDbEntity
  8
CutProfile
100
AcDbLine
 10
31.432241993
 20
301.177108684
 30
0.000000000
 11
33.484734969
 21
294.955158572
 31
0.000000000
  0
LINE
  5
AAA
330
A02
100
AcDbEntity
  8
CutProfile
100
AcDbLine
 10
26.447627115
 20
313.987101809
 30
0.000000000
 11
31.432241993
 21
301.177108684
 31
0.000000000
  0
ARC
  5
AAB
330
A02
100
AcDbEntity
  8
CutProfile
100
AcDbCircle
 10
29.243423518
 20
315.075000000
 30
0.000000000
 40
3.000000000
100
AcDbArc
 50
-161.743343172
 51
-158.738030701
  0
LINE
  5
AAC
330
A02
100
AcDbEntity
  8
CutProfile
100
AcDbLine
 10
24.269462377
 20
320.576844235
 30
0.000000000
 11
26.394435312
 21
314.135177569
 31
0.000000000
  0
ARC
  5
AAD
330
A02
100
AcDbEntity
  8
CutProfile
100
AcDbCircle
 10
27.118450583
 20
321.516666667
 30
0.000000000
 40
3.000000000
100
AcDbArc
 50
-167.569720508
 51
-161.743343172
  0
LINE
  5
AAE
330
A02
100
AcDbEntity
  8
CutProfile
100
AcDbLine
 10
22.768913084
 20
327.312578996
 30
0.000000000
 11
24.188774605
 21
320.870912329
 31
0.000000000
  0
ARC
  5
AAF
330
A02
100
AcDbEntity
  8
CutProfile
100
AcDbCircle
 10
25.698589062
 20
327.958333333
 30
0.000000000
 40
3.000000000
100
AcDbArc
 50
-175.574094783
 51
-167.569720508
  0
LINE
  5
AB0
330
A02
100
AcDbEntity
  8
CutProfile
100
AcDbLine
 10
22.208946110
 20
334.168490543
 30
0.000000000
 11
22.707535172
 21
327.726823876
 31
0.000000000
  0
ARC
  5
AB1
330
A02
100
AcDbEntity
  8
CutProfile
100
AcDbCircle
 10
25.200000000
 20
334.400000000
 30
0.000000000
 40
3.000000000
100
AcDbArc
 50
85.245828256
 51
-175.574094783
  0
LINE
  5
AB2
330
A02
100
AcDbEntity
  8
CutProfile
100
AcDbLine
 10
40.356975637
 20
336.149798453
 30
0.000000000
 11
25.448642304
 21
337.389678412
 31
0.000000000
  0
ARC
  5
AB3
330
A02
100
AcDbEntity
  8
CutProfile
100
AcDbCircle
 10
40.108333333
 20
333.160120042
 30
0.000000000
 40
3.000000000
100
AcDbArc
 50
77.859088740
 51
85.245828256
  0
LINE
  5
AB4
330
A02
100
AcDbEntity
  8
CutProfile
100
AcDbLine
 10
55.647616713
 20
332.885814207
 30
0.000000000
 11
40.739283379
 21
336.093019979
 31
0.000000000
  0
ARC
  5
AB5
330
A02
100
AcDbEntity
  8
CutProfile
100
AcDbCircle
 10
55.016666667
 20
329.952914271
 30
0.000000000
 40
3.000000000
100
AcDbArc
 50
75.523569621
 51
77.859088740
  0
LINE
  5
AB6
330
A02
100
AcDbEntity
  8
CutProfile
100
AcDbLine
 10
70.586998433
 20
329.031357051
 30
0.000000000
 11
55.766611822
 21
332.857665941
 31
0.000000000
  0
LINE
  5
AB7
330
A02
100
AcDbEntity
  8
CutProfile
100
AcDbLine
 10
85.197194241
 20
326.189300590
 30
0.000000000
 11
70.586998433
 21
329.031357051
 31
0.000000000
  0
LINE
  5
AB8
330
A02
100
AcDbEntity
  8
CutProfile
100
AcDbLine
 10
99.646101885
 20
325.459973930
 30
0.000000000
 11
85.197194241
 21
326.189300590
 31
0.000000000
  0
LINE
  5
AB9
330
A02
100
AcDbEntity
  8
CutProfile
100
AcDbLine
 10
114.138733386
 20
327.118431757
 30
0.000000000
 11
99.646101885
 21
325.459973930
 31
0.000000000
  0
LINE
  5
ABA
330
A02
100
AcDbEntity
  8
CutProfile
100
AcDbLine
 10
128.850244658
 20
330.532242668
 30
0.000000000
 11
114.138733386
 21
327.118431757
 31
0.000000000
  0
LINE
  5
ABB
330
A02
100
AcDbEntity
  8
CutProfile
100
AcDbLine
 10
143.728770631
 20
334.307835869
 30
0.000000000
 11
128.850244658
 21
330.532242668
 31
0.000000000
  0
ARC
  5
ABC
330
A02
100
AcDbEntity
  8
CutProfile
100
AcDbCircle
 10
144.466666667
 20
331.400000000
 30
0.000000000
 40
3.000000000
100
AcDbArc
 50
99.681138404
 51
104.238889802
  0
LINE
  5
ABD
330
A02
100
AcDbEntity
  8
CutProfile
100
AcDbLine
 10
158.870505360
 20
336.900553841
 30
0.000000000
 11
143.962172027
 21
334.357276646
 31
0.000000000
  0
ARC
  5
ABE
330
A02
100
AcDbEntity
  8
CutProfile
100
AcDbCircle
 10
159.375000000
 20
333.943277195
 30
0.000000000
 40
3.000000000
100
AcDbArc
 50
90.969462601
 51
99.681138404
  0
LINE
  5
ABF
330
A02
100
AcDbEntity
  8
CutProfile
100
AcDbLine
 10
174.232574812
 20
337.195125522
 30
0.000000000
 11
159.324241479
 21
336.942847760
 31
0.000000000
  0
ARC
  5
AC0
330
A02
100
AcDbEntity
  8
CutProfile
100
AcDbCircle
 10
174.283333333
 20
334.195554958
 30
0.000000000
 40
3.000000000
100
AcDbArc
 50
81.820095949
 51
90.969462601
  0
LINE
  5
AC1
330
A02
100
AcDbEntity
  8
CutProfile
100
AcDbLine
 10
189.618511978
 20
335.022047161
 30
0.000000000
 11
174.710178644
 21
337.165033545
 31
0.000000000
  0
ARC
  5
AC2
330
A02
100
AcDbEntity
  8
CutProfile
100
AcDbCircle
 10
189.191666667
 20
332.052568574
 30
0.000000000
 40
3.000000000
100
AcDbArc
 50
76.233601760
 51
81.820095949
  0
LINE
  5
AC3
330
A02
100
AcDbEntity
  8
CutProfile
100
AcDbLine
 10
219.580059557
 20
327.696084223
 30
0.000000000
 11
189.905558318
 21
334.966390585
 31
0.000000000
  0
LINE
  5
AC4
330
A02
100
AcDbEntity
  8
CutProfile
100
AcDbLine
 10
234.105913942
 20
325.608076968
 30
0.000000000
 11
219.580059557
 21
327.696084223
 31
0.000000000
  0
LINE
  5
AC5
330
A02
100
AcDbEntity
  8
CutProfile
100
AcDbLine
 10
248.545762645
 20
325.852427067
 30
0.000000000
 11
234.105913942
 21
325.608076968
 31
0.000000000
  0
LINE
  5
AC6
330
A02
100
AcDbEntity
  8
CutProfile
100
AcDbLine
 10
263.111154251
 20
328.337200346
 30
0.000000000
 11
248.545762645
 21
325.852427067
 31
0.000000000
  0
LINE
  5
AC7
330
A02
100
AcDbEntity
  8
CutProfile
100
AcDbLine
 10
277.903770631
 20
332.090993022
 30
0.000000000
 11
263.111154251
 21
328.337200346
 31
0.000000000
  0
ARC
  5
AC8
330
A02
100
AcDbEntity
  8
CutProfile
100
AcDbCircle
 10
278.641666667
 20
329.183157153
 30
0.000000000
 40
3.000000000
100
AcDbArc
 50
103.064286969
 51
104.238889802
  0
LINE
  5
AC9
330
A02
100
AcDbEntity
  8
CutProfile
100
AcDbLine
 10
292.871867476
 20
335.564991843
 30
0.000000000
 11
277.963534143
 21
332.105508310
 31
0.000000000
  0
ARC
  5
ACA
330
A02
100
AcDbEntity
  8
CutProfile
100
AcDbCircle
 10
293.550000000
 20
332.642640687
 30
0.000000000
 40
3.000000000
100
AcDbArc
 50
96.528219569
 51
103.064286969
  0
LINE
  5
ACB
330
A02
100
AcDbEntity
  8
CutProfile
100
AcDbLine
 10
308.117255658
 20
337.329217108
 30
0.000000000
 11
293.208922325
 21
335.623188627
 31
0.000000000
  0
ARC
  5
ACC
330
A02
100
AcDbEntity
  8
CutProfile
100
AcDbCircle
 10
308.458333333
 20
334.348669168
 30
0.000000000
 40
3.000000000
100
AcDbArc
 50
87.110376412
 51
96.528219569
  0
LINE
  5
ACD
330
A02
100
AcDbEntity
  8
CutProfile
100
AcDbLine
 10
323.517902873
 20
336.592337933
 30
0.000000000
 11
308.609569539
 21
337.344854678
 31
0.000000000
  0
ARC
  5
ACE
330
A02
100
AcDbEntity
  8
CutProfile
100
AcDbCircle
 10
323.366666667
 20
333.596152423
 30
0.000000000
 40
3.000000000
100
AcDbArc
 50
78.991981183
 51
87.110376412
  0
LINE
  5
ACF
330
A02
100
AcDbEntity
  8
CutProfile
100
AcDbLine
 10
338.847839131
 20
333.640902002
 30
0.000000000
 11
323.939505797
 21
336.540953830
 31
0.000000000
  0
ARC
  5
AD0
330
A02
100
AcDbEntity
  8
CutProfile
100
AcDbCircle
 10
338.275000000
 20
330.696100594
 30
0.000000000
 40
3.000000000
100
AcDbArc
 50
75.523569621
 51
78.991981183
  0
LINE
  5
AD1
330
A02
100
AcDbEntity
  8
CutProfile
100
AcDbLine
 10
353.874067822
 20
329.767124335
 30
0.000000000
 11
339.024945155
 21
333.600852264
 31
0.000000000
  0
LINE
  5
AD2
330
A02
100
AcDbEntity
  8
CutProfile
100
AcDbLine
 10
368.533295392
 20
326.613508286
 30
0.000000000
 11
353.874067822
 21
329.767124335
 31
0.000000000
  0
LINE
  5
AD3
330
A02
100
AcDbEntity
  8
CutProfile
100
AcDbLine
 10
383.000000000
 20
325.410357223
 30
0.000000000
 11
368.533295392
 21
326.613508286
 31
0.000000000
  0
LINE
  5
AD4
330
A02
100
AcDbEntity
  8
CutProfile
100
AcDbLine
 10
397.466704608
 20
326.613508286
 30
0.000000000
 11
383.000000000
 21
325.410357223
 31
0.000000000
  0
LINE
  5
AD5
330
A02
100
AcDbEntity
  8
CutProfile
100
AcDbLine
 10
412.125932178
 20
329.767124335
 30
0.000000000
 11
397.466704608
 21
326.613508286
 31
0.000000000
  0
LINE
  5
AD6
330
A02
100
AcDbEntity
  8
CutProfile
100
AcDbLine
 10
426.975054845
 20
333.600852264
 30
0.000000000
 11
412.125932178
 21
329.767124335
 31
0.000000000
  0
ARC
  5
AD7
330
A02
100
AcDbEntity
  8
CutProfile
100
AcDbCircle
 10
427.725000000
 20
330.696100594
 30
0.000000000
 40
3.000000000
100
AcDbArc
 50
101.008018817
 51
104.476430379
  0
LINE
  5
AD8
330
A02
100
AcDbEntity
  8
CutProfile
100
AcDbLine
 10
442.060494203
 20
336.540953830
 30
0.000000000
 11
427.152160869
 21
333.640902002
 31
0.000000000
  0
ARC
  5
AD9
330
A02
100
AcDbEntity
  8
CutProfile
100
AcDbCircle
 10
442.633333333
 20
333.596152423
 30
0.000000000
 40
3.000000000
100
AcDbArc
 50
92.889623588
 51
101.008018817
  0
LINE
  5
ADA
330
A02
100
AcDbEntity
  8
CutProfile
100
AcDbLine
 10
457.390430461
 20
337.344854678
 30
0.000000000
 11
442.482097127
 21
336.592337933
 31
0.000000000
  0
ARC
  5
ADB
330
A02
100
AcDbEntity
  8
CutProfile
100
AcDbCircle
 10
457.541666667
 20
334.348669168
 30
0.000000000
 40
3.000000000
100
AcDbArc
 50
83.471780431
 51
92.889623588
  0
LINE
  5
ADC
330
A02
100
AcDbEntity
  8
CutProfile
100
AcDbLine
 10
472.791077675
 20
335.623188627
 30
0.000000000
 11
457.882744342
 21
337.329217108
 31
0.000000000
  0
ARC
  5
ADD
330
A02
100
AcDbEntity
  8
CutProfile
100
AcDbCircle
 10
472.450000000
 20
332.642640687
 30
0.000000000
 40
3.000000000
100
AcDbArc
 50
76.935713031
 51
83.471780431
  0
LINE
  5
ADE
330
A02
100
AcDbEntity
  8
CutProfile
100
AcDbLine
 10
488.036465857
 20
332.105508310
 30
0.000000000
 11
473.128132524
 21
335.564991843
 31
0.000000000
  0
ARC
  5
ADF
330
A02
100
AcDbEntity
  8
CutProfile
100
AcDbCircle
 10
487.358333333
 20
329.183157153
 30
0.000000000
 40
3.000000000
100
AcDbArc
 50
75.761110198
 51
76.935713031
  0
LINE
  5
AE0
330
A02
100
AcDbEntity
  8
CutProfile
100
AcDbLine
 10
502.888845749
 20
328.337200346
 30
0.000000000
 11
488.096229369
 21
332.090993022
 31
0.000000000
  0
LINE
  5
AE1
330
A02
100
AcDbEntity
  8
CutProfile
100
AcDbLine
 10
517.454237355
 20
325.852427067
 30
0.000000000
 11
502.888845749
 21
328.337200346
 31
0.000000000
  0
LINE
  5
AE2
330
A02
100
AcDbEntity
  8
CutProfile
100
AcDbLine
 10
531.894086058
 20
325.608076968
 30
0.000000000
 11
517.454237355
 21
325.852427067
 31
0.000000000
  0
LINE
  5
AE3
330
A02
100
AcDbEntity
  8
CutProfile
100
AcDbLine
 10
546.419940443
 20
327.696084223
 30
0.000000000
 11
531.894086058
 21
325.608076968
 31
0.000000000
  0
LINE
  5
AE4
330
A02
100
AcDbEntity
  8
CutProfile
100
AcDbLine
 10
576.094441682
 20
334.966390585
 30
0.000000000
 11
546.419940443
 21
327.696084223
 31
0.000000000
  0
ARC
  5
AE5
330
A02
100
AcDbEntity
  8
CutProfile
100
AcDbCircle
 10
576.808333333
 20
332.052568574
 30
0.000000000
 40
3.000000000
100
AcDbArc
 50
98.179904051
 51
103.766398240
  0
LINE
  5
AE6
330
A02
100
AcDbEntity
  8
CutProfile
100
AcDbLine
 10
591.289821356
 20
337.165033545
 30
0.000000000
 11
576.381488022
 21
335.022047161
 31
0.000000000
  0
ARC
  5
AE7
330
A02
100
AcDbEntity
  8
CutProfile
100
AcDbCircle
 10
591.716666667
 20
334.195554958
 30
0.000000000
 40
3.000000000
100
AcDbArc
 50
89.030537399
 51
98.179904051
  0
LINE
  5
AE8
330
A02
100
AcDbEntity
  8
CutProfile
100
AcDbLine
 10
606.675758521
 20
336.942847760
 30
0.000000000
 11
591.767425188
 21
337.195125522
 31
0.000000000
  0
ARC
  5
AE9
330
A02
100
AcDbEntity
  8
CutProfile
100
AcDbCircle
 10
606.625000000
 20
333.943277195
 30
0.000000000
 40
3.000000000
100
AcDbArc
 50
80.318861596
 51
89.030537399
  0
LINE
  5
AEA
330
A02
100
AcDbEntity
  8
CutProfile
100
AcDbLine
 10
622.037827973
 20
334.357276646
 30
0.000000000
 11
607.129494640
 21
336.900553841
 31
0.000000000
  0
ARC
  5
AEB
330
A02
100
AcDbEntity
  8
CutProfile
100
AcDbCircle
 10
621.533333333
 20
331.400000000
 30
0.000000000
 40
3.000000000
100
AcDbArc
 50
75.761110198
 51
80.318861596
  0
LINE
  5
AEC
330
A02
100
AcDbEntity
  8
CutProfile
100
AcDbLine
 10
637.149755342
 20
330.532242668
 30
0.000000000
 11
622.271229369
 21
334.307835869
 31
0.000000000
  0
LINE
  5
AED
330
A02
100
AcDbEntity
  8
CutProfile
100
AcDbLine
 10
651.861266614
 20
327.118431757
 30
0.000000000
 11
637.149755342
 21
330.532242668
 31
0.000000000
  0
LINE
  5
AEE
330
A02
100
AcDbEntity
  8
CutProfile
100
AcDbLine
 10
666.353898115
 20
325.459973930
 30
0.000000000
 11
651.861266614
 21
327.118431757
 31
0.000000000
  0
LINE
  5
AEF
330
A02
100
AcDbEntity
  8
CutProfile
100
AcDbLine
 10
680.802805759
 20
326.189300590
 30
0.000000000
 11
666.353898115
 21
325.459973930
 31
0.000000000
  0
LINE
  5
AF0
330
A02
100
AcDbEntity
  8
CutProfile
100
AcDbLine
 10
695.413001567
 20
329.031357051
 30
0.000000000
 11
680.802805759
 21
326.189300590
 31
0.000000000
  0
LINE
  5
AF1
330
A02
100
AcDbEntity
  8
CutProfile
100
AcDbLine
 10
710.233388178
 20
332.857665941
 30
0.000000000
 11
695.413001567
 21
329.031357051
 31
0.000000000
  0
ARC
  5
AF2
330
A02
100
AcDbEntity
  8
CutProfile
100
AcDbCircle
 10
710.983333333
 20
329.952914271
 30
0.000000000
 40
3.000000000
100
AcDbArc
 50
102.140911260
 51
104.476430379
  0
LINE
  5
AF3
330
A02
100
AcDbEntity
  8
CutProfile
100
AcDbLine
 10
725.260716621
 20
336.093019979
 30
0.000000000
 11
710.352383287
 21
332.885814207
 31
0.000000000
  0
ARC
  5
AF4
330
A02
100
AcDbEntity
  8
CutProfile
100
AcDbCircle
 10
725.891666667
 20
333.160120042
 30
0.000000000
 40
3.000000000
100
AcDbArc
 50
94.754171744
 51
102.140911260
  0
LINE
  5
AF5
330
A02
100
AcDbEntity
  8
CutProfile
100
AcDbLine
 10
740.551357696
 20
337.389678412
 30
0.000000000
 11
725.643024363
 21
336.149798453
 31
0.000000000
  0
ARC
  5
AF6
330
A02
100
AcDbEntity
  8
CutProfile
100
AcDbCircle
 10
740.800000000
 20
334.400000000
 30
0.000000000
 40
3.000000000
100
AcDbArc
 50
-4.425905217
 51
94.754171744
  0
LINE
  5
AF7
330
A02
100
AcDbEntity
  8
CutProfile
100
AcDbLine
 10
743.292464828
 20
327.726823876
 30
0.000000000
 11
743.791053890
 21
334.168490543
 31
0.000000000
  0
ARC
  5
AF8
330
A02
100
AcDbEntity
  8
CutProfile
100
AcDbCircle
 10
740.301410938
 20
327.958333333
 30
0.000000000
 40
3.000000000
100
AcDbArc
 50
-12.430279492
 51
-4.425905217
  0
LINE
  5
AF9
330
A02
100
AcDbEntity
  8
CutProfile
100
AcDbLine
 10
741.811225395
 20
320.870912329
 30
0.000000000
 11
743.231086916
 21
327.312578996
 31
0.000000000
  0
ARC
  5
AFA
330
A02
100
AcDbEntity
  8
CutProfile
100
AcDbCircle
 10
738.881549417
 20
321.516666667
 30
0.000000000
 40
3.000000000
100
AcDbArc
 50
-18.256656828
 51
-12.430279492
  0
LINE
  5
AFB
330
A02
100
AcDbEntity
  8
CutProfile
100
AcDbLine
 10
739.605564688
 20
314.135177569
 30
0.000000000
 11
741.730537623
 21
320.576844235
 31
0.000000000
  0
ARC
  5
AFC
330
A02
100
AcDbEntity
  8
CutProfile
100
AcDbCircle
 10
736.756576482
 20
315.075000000
 30
0.000000000
 40
3.000000000
100
AcDbArc
 50
-21.261969299
 51
-18.256656828
  0
LINE
  5
AFD
330
A02
100
AcDbEntity
  8
CutProfile
100
AcDbLine
 10
734.567758007
 20
301.177108684
 30
0.000000000
 11
739.552372885
 21
313.987101809
 31
0.000000000
  0
LINE
  5
AFE
330
A02
100
AcDbEntity
  8
CutProfile
100
AcDbLine
 10
732.515265031
 20
294.955158572
 30
0.000000000
 11
734.567758007
 21
301.177108684
 31
0.000000000
  0
LINE
  5
AFF
330
A02
100
AcDbEntity
  8
CutProfile
100
AcDbLine
 10
731.173445353
 20
288.867554278
 30
0.000000000
 11
732.515265031
 21
294.955158572
 31
0.000000000
  0
LINE
  5
B00
330
A02
100
AcDbEntity
  8
CutProfile
100
AcDbLine
 10
730.708972868
 20
282.866666667
 30
0.000000000
 11
731.173445353
 21
288.867554278
 31
0.000000000
  0
LINE
  5
B01
330
A02
100
AcDbEntity
  8
CutProfile
100
AcDbLine
 10
731.173445353
 20
276.865779055
 30
0.000000000
 11
730.708972868
 21
282.866666667
 31
0.000000000
  0
LINE
  5
B02
330
A02
100
AcDbEntity
  8
CutProfile
100
AcDbLine
 10
732.515265031
 20
270.778174761
 30
0.000000000
 11
731.173445353
 21
276.865779055
 31
0.000000000
  0
LINE
  5
B03
330
A02
100
AcDbEntity
  8
CutProfile
100
AcDbLine
 10
734.567758007
 20
264.556224650
 30
0.000000000
 11
732.515265031
 21
270.778174761
 31
0.000000000
  0
LINE
  5
B04
330
A02
100
AcDbEntity
  8
CutProfile
100
AcDbLine
 10
739.552372885
 20
251.746231524
 30
0.000000000
 11
734.567758007
 21
264.556224650
 31
0.000000000
  0
ARC
  5
B05
330
A02
100
AcDbEntity
  8
CutProfile
100
AcDbCircle
 10
736.756576482
 20
250.658333333
 30
0.000000000
 40
3.000000000
100
AcDbArc
 50
18.256656828
 51
21.261969299
  0
LINE
  5
B06
330
A02
100
AcDbEntity
  8
CutProfile
100
AcDbLine
 10
741.730537623
 20
245.156489098
 30
0.000000000
 11
739.605564688
 21
251.598155765
 31
0.000000000
  0
ARC
  5
B07
330
A02
100
AcDbEntity
  8
CutProfile
100
AcDbCircle
 10
738.881549417
 20
244.216666667
 30
0.000000000
 40
3.000000000
100
AcDbArc
 50
12.430279492
 51
18.256656828
  0
LINE
  5
B08
330
A02
100
AcDbEntity
  8
CutProfile
100
AcDbLine
 10
743.231086916
 20
238.420754337
 30
0.000000000
 11
741.811225395
 21
244.862421004
 31
0.000000000
  0
ARC
  5
B09
330
A02
100
AcDbEntity
  8
CutProfile
100
AcDbCircle
 10
740.301410938
 20
237.775000000
 30
0.000000000
 40
3.000000000
100
AcDbArc
 50
4.425905217
 51
12.430279492
  0
LINE
  5
B0A
330
A02
100
AcDbEntity
  8
CutProfile
100
AcDbLine
 10
743.791053890
 20
231.564842791
 30
0.000000000
 11
743.292464828
 21
238.006509457
 31
0.000000000
  0
ARC
  5
B0B
330
A02
100
AcDbEntity
  8
CutProfile
100
AcDbCircle
 10
740.800000000
 20
231.333333333
 30
0.000000000
 40
3.000000000
100
AcDbArc
 50
-4.425905217
 51
4.425905217
  0
LINE
  5
B0C
330
A02
100
AcDbEntity
  8
CutProfile
100
AcDbLine
 10
743.292464828
 20
224.660157209
 30
0.000000000
 11
743.791053890
 21
231.101823876
 31
0.000000000
  0
ARC
  5
B0D
330
A02
100
AcDbEntity
  8
CutProfile
100
AcDbCircle
 10
740.301410938
 20
224.891666667
 30
0.000000000
 40
3.000000000
100
AcDbArc
 50
-12.430279492
 51
-4.425905217
  0
LINE
  5
B0E
330
A02
100
AcDbEntity
  8
CutProfile
100
AcDbLine
 10
741.811225395
 20
217.804245663
 30
0.000000000
 11
743.231086916
 21
224.245912329
 31
0.000000000
  0
ARC
  5
B0F
330
A02
100
AcDbEntity
  8
CutProfile
100
AcDbCircle
 10
738.881549417
 20
218.450000000
 30
0.000000000
 40
3.000000000
100
AcDbArc
 50
-18.256656828
 51
-12.430279492
  0
LINE
  5
B10
330
A02
100
AcDbEntity
  8
CutProfile
100
AcDbLine
 10
739.605564688
 20
211.068510902
 30
0.000000000
 11
741.730537623
 21
217.510177569
 31
0.000000000
  0
ARC
  5
B11
330
A02
100
AcDbEntity
  8
CutProfile
100
AcDbCircle
 10
736.756576482
 20
212.008333333
 30
0.000000000
 40
3.000000000
100
AcDbArc
 50
-21.261969299
 51
-18.256656828
  0
LINE
  5
B12
330
A02
100
AcDbEntity
  8
CutProfile
100
AcDbLine
 10
737.595882677
 20
205.892438651
 30
0.000000000
 11
739.552372885
 21
210.920435143
 31
0.000000000
  0
LINE
  5
B13
330
A02
100
AcDbEntity
  8
CutProfile
100
AcDbLine
 10
740.868931617
 20
200.731778421
 30
0.000000000
 11
737.595882677
 21
205.892438651
 31
0.000000000
  0
ARC
  5
B14
330
A02
100
AcDbEntity
  8
CutProfile
100
AcDbCircle
 10
738.335502498
 20
199.125000000
 30
0.000000000
 40
3.000000000
100
AcDbArc
 50
20.918116407
 51
32.384123063
  0
LINE
  5
B15
330
A02
100
AcDbEntity
  8
CutProfile
100
AcDbLine
 10
743.599944776
 20
193.754433439
 30
0.000000000
 11
741.137777389
 21
200.196100105
 31
0.000000000
  0
ARC
  5
B16
330
A02
100
AcDbEntity
  8
CutProfile
100
AcDbCircle
 10
740.797669885
 20
192.683333333
 30
0.000000000
 40
3.000000000
100
AcDbArc
 50
0.020725346
 51
20.918116407
  0
LINE
  5
B17
330
A02
100
AcDbEntity
  8
CutProfile
100
AcDbLine
 10
743.799999804
 20
186.242751843
 30
0.000000000
 11
743.797669688
 21
192.684418510
 31
0.000000000
  0
LINE
  5
B18
330
A02
100
AcDbEntity
  8
CutProfile
100
AcDbLine
 10
743.800000000
 20
173.358333333
 30
0.000000000
 11
743.800000000
 21
186.241666667
 31
0.000000000
  0
LINE
  5
B19
330
A02
100
AcDbEntity
  8
CutProfile
100
AcDbLine
 10
743.797669688
 20
166.915581490
 30
0.000000000
 11
743.799999804
 21
173.357248157
 31
0.000000000
  0
ARC
  5
B1A
330
A02
100
AcDbEntity
  8
CutProfile
100
AcDbCircle
 10
740.797669885
 20
166.916666667
 30
0.000000000
 40
3.000000000
100
AcDbArc
 50
-20.918116407
 51
-0.020725346
  0
LINE
  5
B1B
330
A02
100
AcDbEntity
  8
CutProfile
100
AcDbLine
 10
741.137777389
 20
159.403899895
 30
0.000000000
 11
743.599944776
 21
165.845566561
 31
0.000000000
  0
ARC
  5
B1C
330
A02
100
AcDbEntity
  8
CutProfile
100
AcDbCircle
 10
738.335502498
 20
160.475000000
 30
0.000000000
 40
3.000000000
100
AcDbArc
 50
-32.384123063
 51
-20.918116407
  0
LINE
  5
B1D
330
A02
100
AcDbEntity
  8
CutProfile
100
AcDbLine
 10
737.595882677
 20
153.707561349
 30
0.000000000
 11
740.868931617
 21
158.868221579
 31
0.000000000
  0
LINE
  5
B1E
330
A02
100
AcDbEntity
  8
CutProfile
100
AcDbLine
 10
739.552372885
 20
148.679564857
 30
0.000000000
 11
737.595882677
 21
153.707561349
 31
0.000000000
  0
ARC
  5
B1F
330
A02
100
AcDbEntity
  8
CutProfile
100
AcDbCircle
 10
736.756576482
 20
147.591666667
 30
0.000000000
 40
3.000000000
100
AcDbArc
 50
18.256656828
 51
21.261969299
  0
LINE
  5
B20
330
A02
100
AcDbEntity
  8
CutProfile
100
AcDbLine
 10
741.730537623
 20
142.089822431
 30
0.000000000
 11
739.605564688
 21
148.531489098
 31
0.000000000
  0
ARC
  5
B21
330
A02
100
AcDbEntity
  8
CutProfile
100
AcDbCircle
 10
738.881549417
 20
141.150000000
 30
0.000000000
 40
3.000000000
100
AcDbArc
 50
12.430279492
 51
18.256656828
  0
LINE
  5
B22
330
A02
100
AcDbEntity
  8
CutProfile
100
AcDbLine
 10
743.231086916
 20
135.354087671
 30
0.000000000
 11
741.811225395
 21
141.795754337
 31
0.000000000
  0
ARC
  5
B23
330
A02
100
AcDbEntity
  8
CutProfile
100
AcDbCircle
 10
740.301410938
 20
134.708333333
 30
0.000000000
 40
3.000000000
100
AcDbArc
 50
4.425905217
 51
12.430279492
  0
LINE
  5
B24
330
A02
100
AcDbEntity
  8
CutProfile
100
AcDbLine
 10
743.791053890
 20
128.498176124
 30
0.000000000
 11
743.292464828
 21
134.939842791
 31
0.000000000
  0
ARC
  5
B25
330
A02
100
AcDbEntity
  8
CutProfile
100
AcDbCircle
 10
740.800000000
 20
128.266666667
 30
0.000000000
 40
3.000000000
100
AcDbArc
 50
-4.425905217
 51
4.425905217
  0
LINE
  5
B26
330
A02
100
AcDbEntity
  8
CutProfile
100
AcDbLine
 10
743.292464828
 20
121.593490543
 30
0.000000000
 11
743.791053890
 21
128.035157209
 31
0.000000000
  0
ARC
  5
B27
330
A02
100
AcDbEntity
  8
CutProfile
100
AcDbCircle
 10
740.301410938
 20
121.825000000
 30
0.000000000
 40
3.000000000
100
AcDbArc
 50
-12.430279492
 51
-4.425905217
  0
LINE
  5
B28
330
A02
100
AcDbEntity
  8
CutProfile
100
AcDbLine
 10
741.811225395
 20
114.737578996
 30
0.000000000
 11
743.231086916
 21
121.179245663
 31
0.000000000
  0
ARC
  5
B29
330
A02
100
AcDbEntity
  8
CutProfile
100
AcDbCircle
 10
738.881549417
 20
115.383333333
 30
0.000000000
 40
3.000000000
100
AcDbArc
 50
-18.256656828
 51
-12.430279492
  0
LINE
  5
B2A
330
A02
100
AcDbEntity
  8
CutProfile
100
AcDbLine
 10
739.605564688
 20
108.001844235
 30
0.000000000
 11
741.730537623
 21
114.443510902
 31
0.000000000
  0
ARC
  5
B2B
330
A02
100
AcDbEntity
  8
CutProfile
100
AcDbCircle
 10
736.756576482
 20
108.941666667
 30
0.000000000
 40
3.000000000
100
AcDbArc
 50
-21.261969299
 51
-18.256656828
  0
LINE
  5
B2C
330
A02
100
AcDbEntity
  8
CutProfile
100
AcDbLine
 10
734.567758007
 20
95.043775350
 30
0.000000000
 11
739.552372885
 21
107.853768476
 31
0.000000000
  0
LINE
  5
B2D
330
A02
100
AcDbEntity
  8
CutProfile
100
AcDbLine
 10
732.515265031
 20
88.821825239
 30
0.000000000
 11
734.567758007
 21
95.043775350
 31
0.000000000
  0
LINE
  5
B2E
330
A02
100
AcDbEntity
  8
CutProfile
100
AcDbLine
 10
731.173445353
 20
82.734220945
 30
0.000000000
 11
732.515265031
 21
88.821825239
 31
0.000000000
  0
LINE
  5
B2F
330
A02
100
AcDbEntity
  8
CutProfile
100
AcDbLine
 10
730.708972868
 20
76.733333333
 30
0.000000000
 11
731.173445353
 21
82.734220945
 31
0.000000000
  0
LINE
  5
B30
330
A02
100
AcDbEntity
  8
CutProfile
100
AcDbLine
 10
731.173445353
 20
70.732445722
 30
0.000000000
 11
730.708972868
 21
76.733333333
 31
0.000000000
  0
LINE
  5
B31
330
A02
100
AcDbEntity
  8
CutProfile
100
AcDbLine
 10
732.515265031
 20
64.644841428
 30
0.000000000
 11
731.173445353
 21
70.732445722
 31
0.000000000
  0
LINE
  5
B32
330
A02
100
AcDbEntity
  8
CutProfile
100
AcDbLine
 10
734.567758007
 20
58.422891316
 30
0.000000000
 11
732.515265031
 21
64.644841428
 31
0.000000000
  0
LINE
  5
B33
330
A02
100
AcDbEntity
  8
CutProfile
100
AcDbLine
 10
739.552372885
 20
45.612898191
 30
0.000000000
 11
734.567758007
 21
58.422891316
 31
0.000000000
  0
ARC
  5
B34
330
A02
100
AcDbEntity
  8
CutProfile
100
AcDbCircle
 10
736.756576482
 20
44.525000000
 30
0.000000000
 40
3.000000000
100
AcDbArc
 50
18.256656828
 51
21.261969299
  0
LINE
  5
B35
330
A02
100
AcDbEntity
  8
CutProfile
100
AcDbLine
 10
741.730537623
 20
39.023155765
 30
0.000000000
 11
739.605564688
 21
45.464822431
 31
0.000000000
  0
ARC
  5
B36
330
A02
100
AcDbEntity
  8
CutProfile
100
AcDbCircle
 10
738.881549417
 20
38.083333333
 30
0.000000000
 40
3.000000000
100
AcDbArc
 50
12.430279492
 51
18.256656828
  0
LINE
  5
B37
330
A02
100
AcDbEntity
  8
CutProfile
100
AcDbLine
 10
743.231086916
 20
32.287421004
 30
0.000000000
 11
741.811225395
 21
38.729087671
 31
0.000000000
  0
ARC
  5
B38
330
A02
100
AcDbEntity
  8
CutProfile
100
AcDbCircle
 10
740.301410938
 20
31.641666667
 30
0.000000000
 40
3.000000000
100
AcDbArc
 50
4.425905217
 51
12.430279492
  0
LINE
  5
B39
330
A02
100
AcDbEntity
  8
CutProfile
100
AcDbLine
 10
743.791053890
 20
25.431509457
 30
0.000000000
 11
743.292464828
 21
31.873176124
 31
0.000000000
  0
ARC
  5
B3A
330
A02
100
AcDbEntity
  8
CutProfile
100
AcDbCircle
 10
740.800000000
 20
25.200000000
 30
0.000000000
 40
3.000000000
100
AcDbArc
 50
-94.754171744
 51
4.425905217
  0
LINE
  5
B3B
330
A02
100
AcDbEntity
  8
CutProfile
100
AcDbLine
 10
725.643024363
 20
23.450201547
 30
0.000000000
 11
740.551357696
 21
22.210321588
 31
0.000000000
  0
ARC
  5
B3C
330
A02
100
AcDbEntity
  8
CutProfile
100
AcDbCircle
 10
725.891666667
 20
26.439879958
 30
0.000000000
 40
3.000000000
100
AcDbArc
 50
-102.140911260
 51
-94.754171744
  0
LINE
  5
B3D
330
A02
100
AcDbEntity
  8
CutProfile
100
AcDbLine
 10
710.352383287
 20
26.714185793
 30
0.000000000
 11
725.260716621
 21
23.506980021
 31
0.000000000
  0
ARC
  5
B3E
330
A02
100
AcDbEntity
  8
CutProfile
100
AcDbCircle
 10
710.983333333
 20
29.647085729
 30
0.000000000
 40
3.000000000
100
AcDbArc
 50
-104.476430379
 51
-102.140911260
  0
LINE
  5
B3F
330
A02
100
AcDbEntity
  8
CutProfile
100
AcDbLine
 10
695.413001567
 20
30.568642949
 30
0.000000000
 11
710.233388178
 21
26.742334059
 31
0.000000000
  0
LINE
  5
B40
330
A02
100
AcDbEntity
  8
CutProfile
100
AcDbLine
 10
680.802805759
 20
33.410699410
 30
0.000000000
 11
695.413001567
 21
30.568642949
 31
0.000000000
  0
LINE
  5
B41
330
A02
100
AcDbEntity
  8
CutProfile
100
AcDbLine
 10
666.353898115
 20
34.140026070
 30
0.000000000
 11
680.802805759
 21
33.410699410
 31
0.000000000
  0
LINE
  5
B42
330
A02
100
AcDbEntity
  8
CutProfile
100
AcDbLine
 10
651.861266614
 20
32.481568243
 30
0.000000000
 11
666.353898115
 21
34.140026070
 31
0.000000000
  0
LINE
  5
B43
330
A02
100
AcDbEntity
  8
CutProfile
100
AcDbLine
 10
637.149755342
 20
29.067757332
 30
0.000000000
 11
651.861266614
 21
32.481568243
 31
0.000000000
  0
LINE
  5
B44
330
A02
100
AcDbEntity
  8
CutProfile
100
AcDbLine
 10
622.271229369
 20
25.292164131
 30
0.000000000
 11
637.149755342
 21
29.067757332
 31
0.000000000
  0
ARC
  5
B45
330
A02
100
AcDbEntity
  8
CutProfile
100
AcDbCircle
 10
621.533333333
 20
28.200000000
 30
0.000000000
 40
3.000000000
100
AcDbArc
 50
-80.318861596
 51
-75.761110198
  0
LINE
  5
B46
330
A02
100
AcDbEntity
  8
CutProfile
100
AcDbLine
 10
607.129494640
 20
22.699446159
 30
0.000000000
 11
622.037827973
 21
25.242723354
 31
0.000000000
  0
ARC
  5
B47
330
A02
100
AcDbEntity
  8
CutProfile
100
AcDbCircle
 10
606.625000000
 20
25.656722805
 30
0.000000000
 40
3.000000000
100
AcDbArc
 50
-89.030537399
 51
-80.318861596
  0
LINE
  5
B48
330
A02
100
AcDbEntity
  8
CutProfile
100
AcDbLine
 10
591.767425188
 20
22.404874478
 30
0.000000000
 11
606.675758521
 21
22.657152240
 31
0.000000000
  0
ARC
  5
B49
330
A02
100
AcDbEntity
  8
CutProfile
100
AcDbCircle
 10
591.716666667
 20
25.404445042
 30
0.000000000
 40
3.000000000
100
AcDbArc
 50
-98.179904051
 51
-89.030537399
  0
LINE
  5
B4A
330
A02
100
AcDbEntity
  8
CutProfile
100
AcDbLine
 10
576.381488022
 20
24.577952839
 30
0.000000000
 11
591.289821356
 21
22.434966455
 31
0.000000000
  0
ARC
  5
B4B
330
A02
100
AcDbEntity
  8
CutProfile
100
AcDbCircle
 10
576.808333333
 20
27.547431426
 30
0.000000000
 40
3.000000000
100
AcDbArc
 50
-103.766398240
 51
-98.179904051
  0
LINE
  5
B4C
330
A02
100
AcDbEntity
  8
CutProfile
100
AcDbLine
 10
546.419940443
 20
31.903915777
 30
0.000000000
 11
576.094441682
 21
24.633609415
 31
0.000000000
  0
LINE
  5
B4D
330
A02
100
AcDbEntity
  8
CutProfile
100
AcDbLine
 10
531.894086058
 20
33.991923032
 30
0.000000000
 11
546.419940443
 21
31.903915777
 31
0.000000000
  0
LINE
  5
B4E
330
A02
100
AcDbEntity
  8
CutProfile
100
AcDbLine
 10
517.454237355
 20
33.747572933
 30
0.000000000
 11
531.894086058
 21
33.991923032
 31
0.000000000
  0
LINE
  5
B4F
330
A02
100
AcDbEntity
  8
CutProfile
100
AcDbLine
 10
502.888845749
 20
31.262799654
 30
0.000000000
 11
517.454237355
 21
33.747572933
 31
0.000000000
  0
LINE
  5
B50
330
A02
100
AcDbEntity
  8
CutProfile
100
AcDbLine
 10
488.096229369
 20
27.509006978
 30
0.000000000
 11
502.888845749
 21
31.262799654
 31
0.000000000
  0
ARC
  5
B51
330
A02
100
AcDbEntity
  8
CutProfile
100
AcDbCircle
 10
487.358333333
 20
30.416842847
 30
0.000000000
 40
3.000000000
100
AcDbArc
 50
-76.935713031
 51
-75.761110198
  0
LINE
  5
B52
330
A02
100
AcDbEntity
  8
CutProfile
100
AcDbLine
 10
473.128132524
 20
24.035008157
 30
0.000000000
 11
488.036465857
 21
27.494491690
 31
0.000000000
  0
ARC
  5
B53
330
A02
100
AcDbEntity
  8
CutProfile
100
AcDbCircle
 10
472.450000000
 20
26.957359313
 30
0.000000000
 40
3.000000000
100
AcDbArc
 50
-83.471780431
 51
-76.935713031
  0
LINE
  5
B54
330
A02
100
AcDbEntity
  8
CutProfile
100
AcDbLine
 10
457.882744342
 20
22.270782892
 30
0.000000000
 11
472.791077675
 21
23.976811373
 31
0.000000000
  0
ARC
  5
B55
330
A02
100
AcDbEntity
  8
CutProfile
100
AcDbCircle
 10
457.541666667
 20
25.251330832
 30
0.000000000
 40
3.000000000
100
AcDbArc
 50
-92.889623588
 51
-83.471780431
  0
LINE
  5
B56
330
A02
100
AcDbEntity
  8
CutProfile
100
AcDbLine
 10
442.482097127
 20
23.007662067
 30
0.000000000
 11
457.390430461
 21
22.255145322
 31
0.000000000
  0
ARC
  5
B57
330
A02
100
AcDbEntity
  8
CutProfile
100
AcDbCircle
 10
442.633333333
 20
26.003847577
 30
0.000000000
 40
3.000000000
100
AcDbArc
 50
-101.008018817
 51
-92.889623588
  0
LINE
  5
B58
330
A02
100
AcDbEntity
  8
CutProfile
100
AcDbLine
 10
427.152160869
 20
25.959097998
 30
0.000000000
 11
442.060494203
 21
23.059046170
 31
0.000000000
  0
ARC
  5
B59
330
A02
100
AcDbEntity
  8
CutProfile
100
AcDbCircle
 10
427.725000000
 20
28.903899406
 30
0.000000000
 40
3.000000000
100
AcDbArc
 50
-104.476430379
 51
-101.008018817
  0
LINE
  5
B5A
330
A02
100
AcDbEntity
  8
CutProfile
100
AcDbLine
 10
412.125932178
 20
29.832875665
 30
0.000000000
 11
426.975054845
 21
25.999147736
 31
0.000000000
  0
LINE
  5
B5B
330
A02
100
AcDbEntity
  8
CutProfile
100
AcDbLine
 10
397.466704608
 20
32.986491714
 30
0.000000000
 11
412.125932178
 21
29.832875665
 31
0.000000000
  0
LINE
  5
B5C
330
A02
100
AcDbEntity
  8
CutProfile
100
AcDbLine
 10
383.000000000
 20
34.189642777
 30
0.000000000
 11
397.466704608
 21
32.986491714
 31
0.000000000
  0
LINE
  5
B5D
330
A02
100
AcDbEntity
  8
CutProfile
100
AcDbLine
 10
368.533295392
 20
32.986491714
 30
0.000000000
 11
383.000000000
 21
34.189642777
 31
0.000000000
  0
LINE
  5
B5E
330
A02
100
AcDbEntity
  8
CutProfile
100
AcDbLine
 10
353.874067822
 20
29.832875665
 30
0.000000000
 11
368.533295392
 21
32.986491714
 31
0.000000000
  0
LINE
  5
B5F
330
A02
100
AcDbEntity
  8
CutProfile
100
AcDbLine
 10
339.024945155
 20
25.999147736
 30
0.000000000
 11
353.874067822
 21
29.832875665
 31
0.000000000
  0
ARC
  5
B60
330
A02
100
AcDbEntity
  8
CutProfile
100
AcDbCircle
 10
338.275000000
 20
28.903899406
 30
0.000000000
 40
3.000000000
100
AcDbArc
 50
-78.991981183
 51
-75.523569621
  0
LINE
  5
B61
330
A02
100
AcDbEntity
  8
CutProfile
100
AcDbLine
 10
323.939505797
 20
23.059046170
 30
0.000000000
 11
338.847839131
 21
25.959097998
 31
0.000000000
  0
ARC
  5
B62
330
A02
100
AcDbEntity
  8
CutProfile
100
AcDbCircle
 10
323.366666667
 20
26.003847577
 30
0.000000000
 40
3.000000000
100
AcDbArc
 50
-87.110376412
 51
-78.991981183
  0
LINE
  5
B63
330
A02
100
AcDbEntity
  8
CutProfile
100
AcDbLine
 10
308.609569539
 20
22.255145322
 30
0.000000000
 11
323.517902873
 21
23.007662067
 31
0.000000000
  0
ARC
  5
B64
330
A02
100
AcDbEntity
  8
CutProfile
100
AcDbCircle
 10
308.458333333
 20
25.251330832
 30
0.000000000
 40
3.000000000
100
AcDbArc
 50
-96.528219569
 51
-87.110376412
  0
LINE
  5
B65
330
A02
100
AcDbEntity
  8
CutProfile
100
AcDbLine
 10
293.208922325
 20
23.976811373
 30
0.000000000
 11
308.117255658
 21
22.270782892
 31
0.000000000
  0
ARC
  5
B66
330
A02
100
AcDbEntity
  8
CutProfile
100
AcDbCircle
 10
293.550000000
 20
26.957359313
 30
0.000000000
 40
3.000000000
100
AcDbArc
 50
-103.064286969
 51
-96.528219569
  0
LINE
  5
B67
330
A02
100
AcDbEntity
  8
CutProfile
100
AcDbLine
 10
277.963534143
 20
27.494491690
 30
0.000000000
 11
292.871867476
 21
24.035008157
 31
0.000000000
  0
ARC
  5
B68
330
A02
100
AcDbEntity
  8
CutProfile
100
AcDbCircle
 10
278.641666667
 20
30.416842847
 30
0.000000000
 40
3.000000000
100
AcDbArc
 50
-104.238889802
 51
-103.064286969
  0
LINE
  5
B69
330
A02
100
AcDbEntity
  8
CutProfile
100
AcDbLine
 10
263.111154251
 20
31.262799654
 30
0.000000000
 11
277.903770631
 21
27.509006978
 31
0.000000000
  0
LINE
  5
B6A
330
A02
100
AcDbEntity
  8
CutProfile
100
AcDbLine
 10
248.545762645
 20
33.747572933
 30
0.000000000
 11
263.111154251
 21
31.262799654
 31
0.000000000
  0
LINE
  5
B6B
330
A02
100
AcDbEntity
  8
CutProfile
100
AcDbLine
 10
234.105913942
 20
33.991923032
 30
0.000000000
 11
248.545762645
 21
33.747572933
 31
0.000000000
  0
LINE
  5
B6C
330
A02
100
AcDbEntity
  8
CutProfile
100
AcDbLine
 10
219.580059557
 20
31.903915777
 30
0.000000000
 11
234.105913942
 21
33.991923032
 31
0.000000000
  0
LINE
  5
B6D
330
A02
100
AcDbEntity
  8
CutProfile
100
AcDbLine
 10
189.905558318
 20
24.633609415
 30
0.000000000
 11
219.580059557
 21
31.903915777
 31
0.000000000
  0
ARC
  5
B6E
330
A02
100
AcDbEntity
  8
CutProfile
100
AcDbCircle
 10
189.191666667
 20
27.547431426
 30
0.000000000
 40
3.000000000
100
AcDbArc
 50
-81.820095949
 51
-76.233601760
  0
LINE
  5
B6F
330
A02
100
AcDbEntity
  8
CutProfile
100
AcDbLine
 10
174.710178644
 20
22.434966455
 30
0.000000000
 11
189.618511978
 21
24.577952839
 31
0.000000000
  0
ARC
  5
B70
330
A02
100
AcDbEntity
  8
CutProfile
100
AcDbCircle
 10
174.283333333
 20
25.404445042
 30
0.000000000
 40
3.000000000
100
AcDbArc
 50
-90.969462601
 51
-81.820095949
  0
LINE
  5
B71
330
A02
100
AcDbEntity
  8
CutProfile
100
AcDbLine
 10
159.324241479
 20
22.657152240
 30
0.000000000
 11
174.232574812
 21
22.404874478
 31
0.000000000
  0
ARC
  5
B72
330
A02
100
AcDbEntity
  8
CutProfile
100
AcDbCircle
 10
159.375000000
 20
25.656722805
 30
0.000000000
 40
3.000000000
100
AcDbArc
 50
-99.681138404
 51
-90.969462601
  0
LINE
  5
B73
330
A02
100
AcDbEntity
  8
CutProfile
100
AcDbLine
 10
143.962172027
 20
25.242723354
 30
0.000000000
 11
158.870505360
 21
22.699446159
 31
0.000000000
  0
ARC
  5
B74
330
A02
100
AcDbEntity
  8
CutProfile
100
AcDbCircle
 10
144.466666667
 20
28.200000000
 30
0.000000000
 40
3.000000000
100
AcDbArc
 50
-104.238889802
 51
-99.681138404
  0
LINE
  5
B75
330
A02
100
AcDbEntity
  8
CutProfile
100
AcDbLine
 10
128.850244658
 20
29.067757332
 30
0.000000000
 11
143.728770631
 21
25.292164131
 31
0.000000000
  0
LINE
  5
B76
330
A02
100
AcDbEntity
  8
CutProfile
100
AcDbLine
 10
114.138733386
 20
32.481568243
 30
0.000000000
 11
128.850244658
 21
29.067757332
 31
0.000000000
  0
LINE
  5
B77
330
A02
100
AcDbEntity
  8
CutProfile
100
AcDbLine
 10
99.646101885
 20
34.140026070
 30
0.000000000
 11
114.138733386
 21
32.481568243
 31
0.000000000
  0
LINE
  5
B78
330
A02
100
AcDbEntity
  8
CutProfile
100
AcDbLine
 10
85.197194241
 20
33.410699410
 30
0.000000000
 11
99.646101885
 21
34.140026070
 31
0.000000000
  0
LINE
  5
B79
330
A02
100
AcDbEntity
  8
CutProfile
100
AcDbLine
 10
70.586998433
 20
30.568642949
 30
0.000000000
 11
85.197194241
 21
33.410699410
 31
0.000000000
  0
LINE
  5
B7A
330
A02
100
AcDbEntity
  8
CutProfile
100
AcDbLine
 10
55.766611822
 20
26.742334059
 30
0.000000000
 11
70.586998433
 21
30.568642949
 31
0.000000000
  0
ARC
  5
B7B
330
A02
100
AcDbEntity
  8
CutProfile
100
AcDbCircle
 10
55.016666667
 20
29.647085729
 30
0.000000000
 40
3.000000000
100
AcDbArc
 50
-77.859088740
 51
-75.523569621
  0
LINE
  5
B7C
330
A02
100
AcDbEntity
  8
CutProfile
100
AcDbLine
 10
40.739283379
 20
23.506980021
 30
0.000000000
 11
55.647616713
 21
26.714185793
 31
0.000000000
  0
ARC
  5
B7D
330
A02
100
AcDbEntity
  8
CutProfile
100
AcDbCircle
 10
40.108333333
 20
26.439879958
 30
0.000000000
 40
3.000000000
100
AcDbArc
 50
-85.245828256
 51
-77.859088740
  0
ENDSEC
  0
SECTION
  2
OBJECTS
  0
DICTIONARY
  5
F000
330
0
100
AcDbDictionary
  3
ACAD_GROUP
350
F001
  0
DICTIONARY
  5
F001
330
F000
100
AcDbDictionary
  0
ENDSEC
  0
EOF